<?xml version="1.0" encoding="UTF-8"?>
<svg xmlns="http://www.w3.org/2000/svg" xmlns:xlink="http://www.w3.org/1999/xlink"
     width="1000" height="520" viewBox="0 0 1000 520">
<defs>
</defs>
<rect x="0" y="0" width="1000" height="520" fill="white" />
<path d="M405.002945426876,204.44784806195634 A176,176,0,0,1,280.55215193804366,420.002945426876 L267.0935615927126,369.77480245984447 A124,124,0,0,0,354.77480245984447,217.90643840728742 Z" fill="#f6e7bf" stroke="none" />
<circle cx="235" cy="250" r="150" fill="none" stroke="#e2e2e2" stroke-width="1.2" />
<path d="M203.58407346410206,111.0 L252.41592653589794,111.0 L252.41592653589794,118.0 L266.41592653589794,100.0 L252.41592653589794,82.0 L252.41592653589794,89.0 L203.58407346410206,89.0 Z" fill="#a3807e" stroke="#1a1a1a" stroke-width="1.3" />
<text x="235.0" y="70.0" font-size="12" font-family="Helvetica" text-anchor="middle" dominant-baseline="middle" fill="#1a1a1a">1</text>
<path d="M331.70699046351325,145.33043214191198 L289.41736518946885,120.91450560601406 L285.91736518946885,126.97668343250513 L282.79300953648675,104.38822616438523 L303.91736518946885,95.79976889626533 L300.41736518946885,101.8619467227564 L342.70699046351325,126.27787325865434 Z" fill="#7e8aa3" stroke="#1a1a1a" stroke-width="1.3" />
<text x="325.0" y="94.11542731880104" font-size="12" font-family="Helvetica" text-anchor="middle" dominant-baseline="middle" fill="#1a1a1a">2</text>
<path d="M339.669567858088,153.29300953648672 L364.0854943939859,195.58263481053112 L358.0233165674949,199.08263481053112 L380.61177383561477,202.20699046351328 L389.20023110373467,181.08263481053112 L383.1380532772436,184.58263481053112 L358.7221267413457,142.29300953648672 Z" fill="#83a380" stroke="#1a1a1a" stroke-width="1.3" />
<text x="390.88457268119896" y="160.0" font-size="12" font-family="Helvetica" text-anchor="middle" dominant-baseline="middle" fill="#1a1a1a">3</text>
<path d="M374.0,218.58407346410206 L374.0,267.41592653589794 L367.0,267.41592653589794 L385.0,281.41592653589794 L403.0,267.41592653589794 L396.0,267.41592653589794 L396.0,218.58407346410206 Z" fill="#a3967e" stroke="#1a1a1a" stroke-width="1.3" />
<text x="415.0" y="250.0" font-size="12" font-family="Helvetica" text-anchor="middle" dominant-baseline="middle" fill="#1a1a1a">4</text>
<path d="M339.669567858088,346.70699046351325 L364.0854943939859,304.41736518946885 L358.0233165674949,300.91736518946885 L380.61177383561477,297.79300953648675 L389.20023110373467,318.91736518946885 L383.1380532772436,315.41736518946885 L358.7221267413457,357.70699046351325 Z" fill="#7e9ca3" stroke="#1a1a1a" stroke-width="1.3" />
<text x="390.88457268119896" y="340.0" font-size="12" font-family="Helvetica" text-anchor="middle" dominant-baseline="middle" fill="#1a1a1a">5</text>
<path d="M331.70699046351325,354.669567858088 L289.41736518946885,379.0854943939859 L285.91736518946885,373.0233165674949 L282.79300953648675,395.61177383561477 L303.91736518946885,404.20023110373467 L300.41736518946885,398.1380532772436 L342.70699046351325,373.7221267413457 Z" fill="#957e95" stroke="#1a1a1a" stroke-width="1.3" />
<text x="325.0" y="405.88457268119896" font-size="12" font-family="Helvetica" text-anchor="middle" dominant-baseline="middle" fill="#1a1a1a">6</text>
<path d="M266.41592653589794,389.0 L217.58407346410206,389.0 L217.58407346410206,382.0 L203.58407346410206,400.0 L217.58407346410206,418.0 L217.58407346410206,411.0 L266.41592653589794,411.0 Z" fill="#a3877e" stroke="#1a1a1a" stroke-width="1.3" />
<text x="235.0" y="430.0" font-size="12" font-family="Helvetica" text-anchor="middle" dominant-baseline="middle" fill="#1a1a1a">7</text>
<path d="M138.29300953648675,354.669567858088 L180.58263481053115,379.0854943939859 L184.08263481053115,373.0233165674949 L187.2069904635133,395.61177383561477 L166.08263481053115,404.20023110373467 L169.58263481053115,398.1380532772436 L127.29300953648675,373.7221267413457 Z" fill="#8a8a66" stroke="#1a1a1a" stroke-width="1.3" />
<text x="145.00000000000003" y="405.88457268119896" font-size="12" font-family="Helvetica" text-anchor="middle" dominant-baseline="middle" fill="#1a1a1a">8</text>
<path d="M130.33043214191198,346.70699046351325 L105.91450560601406,304.41736518946885 L111.97668343250513,300.91736518946885 L89.38822616438523,297.79300953648675 L80.79976889626533,318.91736518946885 L86.8619467227564,315.41736518946885 L111.27787325865434,357.70699046351325 Z" fill="#8f83a3" stroke="#1a1a1a" stroke-width="1.3" />
<text x="79.11542731880104" y="340.0" font-size="12" font-family="Helvetica" text-anchor="middle" dominant-baseline="middle" fill="#1a1a1a">9</text>
<path d="M96.0,218.5840734641021 L96.0,267.41592653589794 L103.0,267.41592653589794 L85.0,281.41592653589794 L67.0,267.41592653589794 L74.0,267.41592653589794 L74.0,218.5840734641021 Z" fill="#679380" stroke="#1a1a1a" stroke-width="1.3" />
<text x="55.0" y="250.00000000000003" font-size="12" font-family="Helvetica" text-anchor="middle" dominant-baseline="middle" fill="#1a1a1a">10</text>
<path d="M98.91450560601406,207.70699046351328 L123.330432141912,165.41736518946888 L129.39260996840306,168.91736518946888 L120.80415270028317,147.79300953648672 L98.21569543216327,150.91736518946888 L104.27787325865434,154.41736518946888 L79.8619467227564,196.70699046351328 Z" fill="#a37e8c" stroke="#1a1a1a" stroke-width="1.3" />
<text x="79.11542731880104" y="160.0" font-size="12" font-family="Helvetica" text-anchor="middle" dominant-baseline="middle" fill="#1a1a1a">11</text>
<path d="M138.2930095364867,145.33043214191204 L180.58263481053106,120.9145056060141 L184.08263481053106,126.97668343250518 L187.2069904635132,104.38822616438527 L166.08263481053106,95.79976889626539 L169.58263481053106,101.86194672275647 L127.2930095364867,126.27787325865441 Z" fill="#7ea390" stroke="#1a1a1a" stroke-width="1.3" />
<text x="144.99999999999991" y="94.1154273188011" font-size="12" font-family="Helvetica" text-anchor="middle" dominant-baseline="middle" fill="#1a1a1a">12</text>
<circle cx="765" cy="250" r="150" fill="none" stroke="#e2e2e2" stroke-width="1.2" />
<path d="M723.1120979521361,111.0 L792.8879020478639,111.0 L792.8879020478639,118.0 L806.8879020478639,100.0 L792.8879020478639,82.0 L792.8879020478639,89.0 L723.1120979521361,89.0 Z" fill="#a3807e" stroke="#1a1a1a" stroke-width="1.3" />
<text x="765.0" y="70.0" font-size="12" font-family="Helvetica" text-anchor="middle" dominant-baseline="middle" fill="#1a1a1a">1</text>
<path d="M886.4354723441071,170.44484683859235 L832.9841053524163,125.59382450994325 L828.4845920846105,130.9561356117761 L829.3301468553027,108.16830910002294 L851.6249460333261,103.37853565949288 L847.1254327655203,108.74084676132573 L900.576799757211,153.59186908997486 Z" fill="#7e8aa3" stroke="#1a1a1a" stroke-width="1.3" />
<text x="880.7017697435771" y="112.11200023858396" font-size="12" font-family="Helvetica" text-anchor="middle" dominant-baseline="middle" fill="#1a1a1a">2</text>
<path d="M894.6145198117945,184.61137261014437 L906.7309610382623,253.32712545627808 L899.8373067671769,254.5426626999466 L919.9949208087336,265.20430404411275 L935.2903858756163,248.2913283039371 L928.3967316045308,249.5068655476056 L916.280290378063,180.7911127014719 Z" fill="#83a380" stroke="#1a1a1a" stroke-width="1.3" />
<text x="942.2653955421974" y="218.74332801995254" font-size="12" font-family="Helvetica" text-anchor="middle" dominant-baseline="middle" fill="#1a1a1a">3</text>
<path d="M906.3214821499689,283.22401271531567 L871.433580102105,343.65163163170223 L865.371402275614,340.15163163170223 L873.9598595437338,361.27598728468433 L896.5483168118537,358.15163163170223 L890.4861389853627,354.65163163170223 L925.3740410332266,294.22401271531567 Z" fill="#a3877e" stroke="#1a1a1a" stroke-width="1.3" />
<text x="920.884572681199" y="340.0" font-size="12" font-family="Helvetica" text-anchor="middle" dominant-baseline="middle" fill="#1a1a1a">7</text>
<path d="M773.1790474676873,394.9437805512633 L838.746855685846,371.0790500337786 L836.3527146825662,364.50120168827726 L855.664773953431,376.62738685586424 L848.6654398422903,398.33013603656997 L846.2712988390106,391.7522876910686 L780.7034906208519,415.61701820855325 Z" fill="#8a8a66" stroke="#1a1a1a" stroke-width="1.3" />
<text x="826.5636257986204" y="419.1446717414635" font-size="12" font-family="Helvetica" text-anchor="middle" dominant-baseline="middle" fill="#1a1a1a">8</text>
<path d="M756.8209525323127,394.9437805512633 L691.253144314154,371.0790500337786 L693.6472853174338,364.50120168827726 L674.335226046569,376.62738685586424 L681.3345601577097,398.33013603656997 L683.7287011609894,391.7522876910686 L749.2965093791481,415.61701820855325 Z" fill="#8f83a3" stroke="#1a1a1a" stroke-width="1.3" />
<text x="703.4363742013796" y="419.1446717414635" font-size="12" font-family="Helvetica" text-anchor="middle" dominant-baseline="middle" fill="#1a1a1a">9</text>
<path d="M623.6785178500311,283.22401271531567 L658.566419897895,343.65163163170223 L664.628597724386,340.15163163170223 L656.0401404562662,361.27598728468433 L633.4516831881463,358.15163163170223 L639.5138610146373,354.65163163170223 L604.6259589667734,294.22401271531567 Z" fill="#679380" stroke="#1a1a1a" stroke-width="1.3" />
<text x="609.115427318801" y="340.0" font-size="12" font-family="Helvetica" text-anchor="middle" dominant-baseline="middle" fill="#1a1a1a">10</text>
<path d="M620.8379644744007,267.114433998449 L632.9544057008685,198.39868115231528 L639.848059971954,199.61421839598378 L624.5525949050713,182.70124265580813 L604.3949808635145,193.3628839999743 L611.2886351346,194.5784212436428 L599.1721939081322,263.2941740897765 Z" fill="#a37e8c" stroke="#1a1a1a" stroke-width="1.3" />
<text x="587.7346044578026" y="218.74332801995251" font-size="12" font-family="Helvetica" text-anchor="middle" dominant-baseline="middle" fill="#1a1a1a">11</text>
<path d="M643.5645276558929,170.4448468385924 L697.0158946475835,125.59382450994327 L701.5154079153893,130.95613561177612 L700.6698531446973,108.16830910002297 L678.3750539666738,103.37853565949291 L682.8745672344796,108.74084676132576 L629.423200242789,153.59186908997492 Z" fill="#7ea390" stroke="#1a1a1a" stroke-width="1.3" />
<text x="649.2982302564229" y="112.11200023858399" font-size="12" font-family="Helvetica" text-anchor="middle" dominant-baseline="middle" fill="#1a1a1a">12</text>
<text x="235" y="452" font-size="15" font-family="Helvetica" text-anchor="middle" fill="#1a1a1a">before</text>
<text x="765" y="452" font-size="15" font-family="Helvetica" text-anchor="middle" fill="#1a1a1a">after</text>
<path d="M432,250 L556,250" stroke="#1a1a1a" stroke-width="3" />
<path d="M568,250 L553,242 L553,258 Z" fill="#1a1a1a" />
<text x="500.0" y="232" font-size="20" font-family="Helvetica" text-anchor="middle" font-weight="bold" fill="#1a1a1a">Loss</text>
<text x="500.0" y="498" font-size="14" font-family="Helvetica" text-anchor="middle" fill="#555">a segment is deleted</text>
</svg>