<?xml version="1.0" encoding="UTF-8"?>
<svg xmlns="http://www.w3.org/2000/svg" xmlns:xlink="http://www.w3.org/1999/xlink"
     width="1000" height="520" viewBox="0 0 1000 520">
<defs>
</defs>
<rect x="0" y="0" width="1000" height="520" fill="white" />
<circle cx="235" cy="250" r="150" fill="none" stroke="#e2e2e2" stroke-width="1.2" />
<path d="M203.58407346410206,111.0 L252.41592653589794,111.0 L252.41592653589794,118.0 L266.41592653589794,100.0 L252.41592653589794,82.0 L252.41592653589794,89.0 L203.58407346410206,89.0 Z" fill="#a3807e" stroke="#1a1a1a" stroke-width="1.3" />
<text x="235.0" y="70.0" font-size="12" font-family="Helvetica" text-anchor="middle" dominant-baseline="middle" fill="#1a1a1a">1</text>
<path d="M331.70699046351325,145.33043214191198 L289.41736518946885,120.91450560601406 L285.91736518946885,126.97668343250513 L282.79300953648675,104.38822616438523 L303.91736518946885,95.79976889626533 L300.41736518946885,101.8619467227564 L342.70699046351325,126.27787325865434 Z" fill="#7e8aa3" stroke="#1a1a1a" stroke-width="1.3" />
<text x="325.0" y="94.11542731880104" font-size="12" font-family="Helvetica" text-anchor="middle" dominant-baseline="middle" fill="#1a1a1a">2</text>
<path d="M339.669567858088,153.29300953648672 L364.0854943939859,195.58263481053112 L358.0233165674949,199.08263481053112 L380.61177383561477,202.20699046351328 L389.20023110373467,181.08263481053112 L383.1380532772436,184.58263481053112 L358.7221267413457,142.29300953648672 Z" fill="#83a380" stroke="#1a1a1a" stroke-width="1.3" />
<text x="390.88457268119896" y="160.0" font-size="12" font-family="Helvetica" text-anchor="middle" dominant-baseline="middle" fill="#1a1a1a">3</text>
<path d="M374.0,218.58407346410206 L374.0,267.41592653589794 L367.0,267.41592653589794 L385.0,281.41592653589794 L403.0,267.41592653589794 L396.0,267.41592653589794 L396.0,218.58407346410206 Z" fill="#a3967e" stroke="#1a1a1a" stroke-width="1.3" />
<text x="415.0" y="250.0" font-size="12" font-family="Helvetica" text-anchor="middle" dominant-baseline="middle" fill="#1a1a1a">4</text>
<path d="M339.669567858088,346.70699046351325 L364.0854943939859,304.41736518946885 L358.0233165674949,300.91736518946885 L380.61177383561477,297.79300953648675 L389.20023110373467,318.91736518946885 L383.1380532772436,315.41736518946885 L358.7221267413457,357.70699046351325 Z" fill="#7e9ca3" stroke="#1a1a1a" stroke-width="1.3" />
<text x="390.88457268119896" y="340.0" font-size="12" font-family="Helvetica" text-anchor="middle" dominant-baseline="middle" fill="#1a1a1a">5</text>
<path d="M331.70699046351325,354.669567858088 L289.41736518946885,379.0854943939859 L285.91736518946885,373.0233165674949 L282.79300953648675,395.61177383561477 L303.91736518946885,404.20023110373467 L300.41736518946885,398.1380532772436 L342.70699046351325,373.7221267413457 Z" fill="#957e95" stroke="#1a1a1a" stroke-width="1.3" />
<text x="325.0" y="405.88457268119896" font-size="12" font-family="Helvetica" text-anchor="middle" dominant-baseline="middle" fill="#1a1a1a">6</text>
<path d="M266.41592653589794,389.0 L217.58407346410206,389.0 L217.58407346410206,382.0 L203.58407346410206,400.0 L217.58407346410206,418.0 L217.58407346410206,411.0 L266.41592653589794,411.0 Z" fill="#a3877e" stroke="#1a1a1a" stroke-width="1.3" />
<text x="235.0" y="430.0" font-size="12" font-family="Helvetica" text-anchor="middle" dominant-baseline="middle" fill="#1a1a1a">7</text>
<path d="M138.29300953648675,354.669567858088 L180.58263481053115,379.0854943939859 L184.08263481053115,373.0233165674949 L187.2069904635133,395.61177383561477 L166.08263481053115,404.20023110373467 L169.58263481053115,398.1380532772436 L127.29300953648675,373.7221267413457 Z" fill="#8a8a66" stroke="#1a1a1a" stroke-width="1.3" />
<text x="145.00000000000003" y="405.88457268119896" font-size="12" font-family="Helvetica" text-anchor="middle" dominant-baseline="middle" fill="#1a1a1a">8</text>
<path d="M130.33043214191198,346.70699046351325 L105.91450560601406,304.41736518946885 L111.97668343250513,300.91736518946885 L89.38822616438523,297.79300953648675 L80.79976889626533,318.91736518946885 L86.8619467227564,315.41736518946885 L111.27787325865434,357.70699046351325 Z" fill="#8f83a3" stroke="#1a1a1a" stroke-width="1.3" />
<text x="79.11542731880104" y="340.0" font-size="12" font-family="Helvetica" text-anchor="middle" dominant-baseline="middle" fill="#1a1a1a">9</text>
<path d="M96.0,218.5840734641021 L96.0,267.41592653589794 L103.0,267.41592653589794 L85.0,281.41592653589794 L67.0,267.41592653589794 L74.0,267.41592653589794 L74.0,218.5840734641021 Z" fill="#679380" stroke="#1a1a1a" stroke-width="1.3" />
<text x="55.0" y="250.00000000000003" font-size="12" font-family="Helvetica" text-anchor="middle" dominant-baseline="middle" fill="#1a1a1a">10</text>
<path d="M98.91450560601406,207.70699046351328 L123.330432141912,165.41736518946888 L129.39260996840306,168.91736518946888 L120.80415270028317,147.79300953648672 L98.21569543216327,150.91736518946888 L104.27787325865434,154.41736518946888 L79.8619467227564,196.70699046351328 Z" fill="#a37e8c" stroke="#1a1a1a" stroke-width="1.3" />
<text x="79.11542731880104" y="160.0" font-size="12" font-family="Helvetica" text-anchor="middle" dominant-baseline="middle" fill="#1a1a1a">11</text>
<path d="M138.2930095364867,145.33043214191204 L180.58263481053106,120.9145056060141 L184.08263481053106,126.97668343250518 L187.2069904635132,104.38822616438527 L166.08263481053106,95.79976889626539 L169.58263481053106,101.86194672275647 L127.2930095364867,126.27787325865441 Z" fill="#7ea390" stroke="#1a1a1a" stroke-width="1.3" />
<text x="144.99999999999991" y="94.1154273188011" font-size="12" font-family="Helvetica" text-anchor="middle" dominant-baseline="middle" fill="#1a1a1a">12</text>
<path d="M874.7342051271371,387.6023409143732 A176,176,0,0,1,725.8363156236887,421.58731254400095 L737.407404189417,370.89106111054616 A124,124,0,0,0,842.3127354304829,346.9471038260357 Z" fill="#f6e7bf" stroke="none" />
<circle cx="765" cy="250" r="150" fill="none" stroke="#e2e2e2" stroke-width="1.2" />
<path d="M738.0720629692304,111.0 L777.9279370307696,111.0 L777.9279370307696,118.0 L791.9279370307696,100.0 L777.9279370307696,82.0 L777.9279370307696,89.0 L738.0720629692304,89.0 Z" fill="#a3807e" stroke="#1a1a1a" stroke-width="1.3" />
<text x="765.0" y="70.0" font-size="12" font-family="Helvetica" text-anchor="middle" dominant-baseline="middle" fill="#1a1a1a">1</text>
<path d="M849.5710726789008,136.44892136719625 L813.6621709464143,119.15610570357707 L810.6249847725915,125.462887778894 L805.8213279260736,103.17107580900463 L826.2447993808235,93.02800853440691 L823.2076132070006,99.33479060972384 L859.116514939487,116.62760627334302 Z" fill="#7e8aa3" stroke="#1a1a1a" stroke-width="1.3" />
<text x="843.0990730411605" y="87.82560377756457" font-size="12" font-family="Helvetica" text-anchor="middle" dominant-baseline="middle" fill="#1a1a1a">2</text>
<path d="M856.8852819392772,142.28180861306367 L881.7350129608129,173.44238571565603 L876.2621925835367,177.80681432866717 L899.0640164939834,177.52963864976238 L904.4081259523857,155.36118146175275 L898.9353055751095,159.7256100747639 L874.0855745535738,128.56503297217154 Z" fill="#83a380" stroke="#1a1a1a" stroke-width="1.3" />
<text x="905.7296668442453" y="137.77183566542797" font-size="12" font-family="Helvetica" text-anchor="middle" dominant-baseline="middle" fill="#1a1a1a">3</text>
<path d="M894.5229500956698,192.8167927513004 L903.3917164154888,231.67339683829863 L896.567221030216,233.23104337599284 L917.2312165248773,242.8746573353247 L931.6646258687616,225.2202897535655 L924.8401304834889,226.77793629125972 L915.9713641636699,187.9213322042615 Z" fill="#a3967e" stroke="#1a1a1a" stroke-width="1.3" />
<text x="940.4870241927283" y="209.9462318878634" font-size="12" font-family="Helvetica" text-anchor="middle" dominant-baseline="middle" fill="#1a1a1a">4</text>
<path d="M894.5229500956698,307.1832072486996 L903.3917164154888,268.32660316170137 L896.567221030216,266.7689566240072 L917.2312165248773,257.1253426646753 L931.6646258687616,274.7797102464345 L924.8401304834889,273.22206370874034 L915.9713641636699,312.07866779573857 Z" fill="#7e9ca3" stroke="#1a1a1a" stroke-width="1.3" />
<text x="940.4870241927283" y="290.0537681121366" font-size="12" font-family="Helvetica" text-anchor="middle" dominant-baseline="middle" fill="#1a1a1a">5</text>
<path d="M890.4638701868352,315.6119735297916 L865.6141391652994,346.77255063238397 L860.1413187880232,342.40812201937285 L865.4854282464255,364.57657920738245 L888.2872521568722,364.8537548862872 L882.814431779596,360.4893262732761 L907.6641628011317,329.32874917068375 Z" fill="#957e95" stroke="#1a1a1a" stroke-width="1.3" />
<text x="905.7296668442453" y="362.22816433457206" font-size="12" font-family="Helvetica" text-anchor="middle" dominant-baseline="middle" fill="#1a1a1a">6</text>
<path d="M849.5710726789008,363.55107863280375 L813.6621709464143,380.84389429642295 L810.6249847725915,374.537112221106 L805.8213279260736,396.8289241909954 L826.2447993808235,406.9719914655931 L823.2076132070006,400.6652093902761 L859.116514939487,383.3723937266569 Z" fill="#8a7f6a" stroke="#1a1a1a" stroke-width="1.3" />
<text x="843.0990730411605" y="412.17439622243546" font-size="12" font-family="Helvetica" text-anchor="middle" dominant-baseline="middle" fill="#1a1a1a">13</text>
<path d="M738.0720629692304,389.0 L777.9279370307696,389.0 L777.9279370307696,382.0 L791.9279370307696,400.0 L777.9279370307696,418.0 L777.9279370307696,411.0 L738.0720629692304,411.0 Z" fill="#6a7f8a" stroke="#1a1a1a" stroke-width="1.3" />
<text x="765.0" y="430.0" font-size="12" font-family="Helvetica" text-anchor="middle" dominant-baseline="middle" fill="#1a1a1a">14</text>
<path d="M728.9513932042196,386.91826664406875 L693.0424914717331,369.6254509804496 L696.079677645556,363.31866890513265 L675.6562061908062,373.4617361797304 L680.459863037324,395.75354814961975 L683.4970492111469,389.4467660743028 L719.4059509436333,406.7395817379219 Z" fill="#a3877e" stroke="#1a1a1a" stroke-width="1.3" />
<text x="686.9009269588396" y="412.17439622243546" font-size="12" font-family="Helvetica" text-anchor="middle" dominant-baseline="middle" fill="#1a1a1a">7</text>
<path d="M639.5361298131648,315.61197352979156 L664.3858608347006,346.7725506323839 L669.8586812119768,342.4081220193728 L664.5145717535745,364.5765792073824 L641.7127478431278,364.85375488628716 L647.185568220404,360.48932627327605 L622.3358371988683,329.3287491706837 Z" fill="#8a8a66" stroke="#1a1a1a" stroke-width="1.3" />
<text x="624.2703331557547" y="362.22816433457206" font-size="12" font-family="Helvetica" text-anchor="middle" dominant-baseline="middle" fill="#1a1a1a">8</text>
<path d="M635.4770499043302,307.1832072486995 L626.6082835845112,268.32660316170126 L633.432778969784,266.7689566240071 L612.7687834751227,257.1253426646752 L598.3353741312384,274.7797102464344 L605.1598695165111,273.2220637087402 L614.0286358363301,312.07866779573845 Z" fill="#8f83a3" stroke="#1a1a1a" stroke-width="1.3" />
<text x="589.5129758072717" y="290.05376811213654" font-size="12" font-family="Helvetica" text-anchor="middle" dominant-baseline="middle" fill="#1a1a1a">9</text>
<path d="M635.4770499043302,192.81679275130048 L626.6082835845112,231.67339683829871 L633.432778969784,233.2310433759929 L612.7687834751227,242.8746573353248 L598.3353741312384,225.22028975356562 L605.1598695165111,226.7779362912598 L614.0286358363301,187.92133220426157 Z" fill="#679380" stroke="#1a1a1a" stroke-width="1.3" />
<text x="589.5129758072717" y="209.94623188786352" font-size="12" font-family="Helvetica" text-anchor="middle" dominant-baseline="middle" fill="#1a1a1a">10</text>
<path d="M639.5361298131648,184.38802647020844 L664.3858608347006,153.2274493676161 L669.8586812119768,157.59187798062723 L664.5145717535745,135.4234207926176 L641.7127478431278,135.1462451137128 L647.185568220404,139.51067372672395 L622.3358371988683,170.6712508293163 Z" fill="#a37e8c" stroke="#1a1a1a" stroke-width="1.3" />
<text x="624.2703331557547" y="137.771835665428" font-size="12" font-family="Helvetica" text-anchor="middle" dominant-baseline="middle" fill="#1a1a1a">11</text>
<path d="M680.4289273210992,136.44892136719625 L716.3378290535857,119.15610570357707 L719.3750152274085,125.462887778894 L724.1786720739264,103.17107580900463 L703.7552006191765,93.02800853440691 L706.7923867929994,99.33479060972384 L670.883485060513,116.62760627334302 Z" fill="#7ea390" stroke="#1a1a1a" stroke-width="1.3" />
<text x="686.9009269588395" y="87.82560377756457" font-size="12" font-family="Helvetica" text-anchor="middle" dominant-baseline="middle" fill="#1a1a1a">12</text>
<text x="235" y="452" font-size="15" font-family="Helvetica" text-anchor="middle" fill="#1a1a1a">before</text>
<text x="765" y="452" font-size="15" font-family="Helvetica" text-anchor="middle" fill="#1a1a1a">after</text>
<path d="M432,250 L556,250" stroke="#1a1a1a" stroke-width="3" />
<path d="M568,250 L553,242 L553,258 Z" fill="#1a1a1a" />
<text x="500.0" y="232" font-size="20" font-family="Helvetica" text-anchor="middle" font-weight="bold" fill="#1a1a1a">Transfer</text>
<text x="500.0" y="498" font-size="14" font-family="Helvetica" text-anchor="middle" fill="#555">a segment arrives from a donor genome</text>
</svg>