<svg xmlns="http://www.w3.org/2000/svg" xmlns:xlink="http://www.w3.org/1999/xlink" width="1740" height="808" viewBox="0 0 1740 808">
<rect x="0" y="0" width="1740" height="808" fill="white" />
<svg x="0" y="0" xmlns="http://www.w3.org/2000/svg" xmlns:xlink="http://www.w3.org/1999/xlink"
     width="580" height="760" viewBox="-290.0 -380.0 580 760">
<defs>
</defs>
<rect x="-290.0" y="-380.0" width="580" height="760" fill="white" />
<path d="M236.0,-338.0 L236.0,338.0" stroke="#c9c9c9" stroke-width="1.0" stroke-dasharray="2,4" />
<path d="M-236.0,-326.0 L236.0,-326.0" stroke="#1a1a1a" stroke-width="2.6" stroke-linecap="round" />
<path d="M59.77609832788079,-266.72727272727275 L236.0,-266.72727272727275" stroke="#1a1a1a" stroke-width="2.6" stroke-linecap="round" />
<path d="M211.83281010385213,-207.45454545454544 L236.0,-207.45454545454544" stroke="#1a1a1a" stroke-width="2.6" stroke-linecap="round" />
<path d="M211.83281010385213,-148.1818181818182 L236.0,-148.1818181818182" stroke="#1a1a1a" stroke-width="2.6" stroke-linecap="round" />
<path d="M110.45350786003058,-177.8181818181818 L211.83281010385213,-177.8181818181818" stroke="#1a1a1a" stroke-width="2.6" stroke-linecap="round" />
<path d="M211.83281010385213,-177.8181818181818 L211.83281010385213,-207.45454545454544" stroke="#1a1a1a" stroke-width="2.6" stroke-linecap="round" />
<path d="M211.83281010385213,-177.8181818181818 L211.83281010385213,-148.1818181818182" stroke="#1a1a1a" stroke-width="2.6" stroke-linecap="round" />
<path d="M207.8245385151862,-88.9090909090909 L236.0,-88.9090909090909" stroke="#1a1a1a" stroke-width="2.6" stroke-linecap="round" />
<path d="M230.94927085195422,-29.636363636363626 L236.0,-29.636363636363626" stroke="#1a1a1a" stroke-width="2.6" stroke-linecap="round" />
<path d="M230.94927085195422,29.636363636363626 L236.0,29.636363636363626" stroke="#1a1a1a" stroke-width="2.6" stroke-linecap="round" />
<path d="M207.8245385151862,0.0 L230.94927085195422,0.0" stroke="#1a1a1a" stroke-width="2.6" stroke-linecap="round" />
<path d="M230.94927085195422,0.0 L230.94927085195422,-29.636363636363626" stroke="#1a1a1a" stroke-width="2.6" stroke-linecap="round" />
<path d="M230.94927085195422,0.0 L230.94927085195422,29.636363636363626" stroke="#1a1a1a" stroke-width="2.6" stroke-linecap="round" />
<path d="M110.45350786003058,-44.45454545454545 L207.8245385151862,-44.45454545454545" stroke="#1a1a1a" stroke-width="2.6" stroke-linecap="round" />
<path d="M207.8245385151862,-44.45454545454545 L207.8245385151862,-88.9090909090909" stroke="#1a1a1a" stroke-width="2.6" stroke-linecap="round" />
<path d="M207.8245385151862,-44.45454545454545 L207.8245385151862,0.0" stroke="#1a1a1a" stroke-width="2.6" stroke-linecap="round" />
<path d="M59.77609832788079,-111.13636363636363 L110.45350786003058,-111.13636363636363" stroke="#1a1a1a" stroke-width="2.6" stroke-linecap="round" />
<path d="M110.45350786003058,-111.13636363636363 L110.45350786003058,-177.8181818181818" stroke="#1a1a1a" stroke-width="2.6" stroke-linecap="round" />
<path d="M110.45350786003058,-111.13636363636363 L110.45350786003058,-44.45454545454545" stroke="#1a1a1a" stroke-width="2.6" stroke-linecap="round" />
<path d="M-173.49079291883587,-188.9318181818182 L59.77609832788079,-188.9318181818182" stroke="#1a1a1a" stroke-width="2.6" stroke-linecap="round" />
<path d="M59.77609832788079,-188.9318181818182 L59.77609832788079,-266.72727272727275" stroke="#1a1a1a" stroke-width="2.6" stroke-linecap="round" />
<path d="M59.77609832788079,-188.9318181818182 L59.77609832788079,-111.13636363636363" stroke="#1a1a1a" stroke-width="2.6" stroke-linecap="round" />
<path d="M211.58660999670764,88.90909090909093 L236.0,88.90909090909093" stroke="#1a1a1a" stroke-width="2.6" stroke-linecap="round" />
<path d="M211.58660999670764,148.1818181818182 L236.0,148.1818181818182" stroke="#1a1a1a" stroke-width="2.6" stroke-linecap="round" />
<path d="M69.08389787275689,118.54545454545456 L211.58660999670764,118.54545454545456" stroke="#1a1a1a" stroke-width="2.6" stroke-linecap="round" />
<path d="M211.58660999670764,118.54545454545456 L211.58660999670764,88.90909090909093" stroke="#1a1a1a" stroke-width="2.6" stroke-linecap="round" />
<path d="M211.58660999670764,118.54545454545456 L211.58660999670764,148.1818181818182" stroke="#1a1a1a" stroke-width="2.6" stroke-linecap="round" />
<path d="M69.08389787275689,207.4545454545455 L236.0,207.4545454545455" stroke="#1a1a1a" stroke-width="2.6" stroke-linecap="round" />
<path d="M-152.03488771271358,163.00000000000003 L69.08389787275689,163.00000000000003" stroke="#1a1a1a" stroke-width="2.6" stroke-linecap="round" />
<path d="M69.08389787275689,163.00000000000003 L69.08389787275689,118.54545454545456" stroke="#1a1a1a" stroke-width="2.6" stroke-linecap="round" />
<path d="M69.08389787275689,163.00000000000003 L69.08389787275689,207.4545454545455" stroke="#1a1a1a" stroke-width="2.6" stroke-linecap="round" />
<path d="M223.2651797200902,266.72727272727275 L236.0,266.72727272727275" stroke="#1a1a1a" stroke-width="2.6" stroke-linecap="round" />
<path d="M223.2651797200902,326.0 L236.0,326.0" stroke="#1a1a1a" stroke-width="2.6" stroke-linecap="round" />
<path d="M-152.03488771271358,296.3636363636364 L223.2651797200902,296.3636363636364" stroke="#1a1a1a" stroke-width="2.6" stroke-linecap="round" />
<path d="M223.2651797200902,296.3636363636364 L223.2651797200902,266.72727272727275" stroke="#1a1a1a" stroke-width="2.6" stroke-linecap="round" />
<path d="M223.2651797200902,296.3636363636364 L223.2651797200902,326.0" stroke="#1a1a1a" stroke-width="2.6" stroke-linecap="round" />
<path d="M-173.49079291883587,229.6818181818182 L-152.03488771271358,229.6818181818182" stroke="#1a1a1a" stroke-width="2.6" stroke-linecap="round" />
<path d="M-152.03488771271358,229.6818181818182 L-152.03488771271358,163.00000000000003" stroke="#1a1a1a" stroke-width="2.6" stroke-linecap="round" />
<path d="M-152.03488771271358,229.6818181818182 L-152.03488771271358,296.3636363636364" stroke="#1a1a1a" stroke-width="2.6" stroke-linecap="round" />
<path d="M-236.0,20.375 L-173.49079291883587,20.375" stroke="#1a1a1a" stroke-width="2.6" stroke-linecap="round" />
<path d="M-173.49079291883587,20.375 L-173.49079291883587,-188.9318181818182" stroke="#1a1a1a" stroke-width="2.6" stroke-linecap="round" />
<path d="M-173.49079291883587,20.375 L-173.49079291883587,229.6818181818182" stroke="#1a1a1a" stroke-width="2.6" stroke-linecap="round" />
<path d="M-250.0,-152.8125 L-236.0,-152.8125" stroke="#1a1a1a" stroke-width="2.6" stroke-linecap="round" />
<path d="M-236.0,-152.8125 L-236.0,-326.0" stroke="#1a1a1a" stroke-width="2.6" stroke-linecap="round" />
<path d="M-236.0,-152.8125 L-236.0,20.375" stroke="#1a1a1a" stroke-width="2.6" stroke-linecap="round" />
<path d="M-250.0,338.0 L236.0,338.0" stroke="black" stroke-width="1.4" />
<path d="M-236.0,338.0 L-236.0,343.0" stroke="black" stroke-width="1.4" />
<text x="-236.0" y="356.0" font-size="13" text-anchor="middle" font-family="Helvetica">0.0</text>
<path d="M0.0,338.0 L0.0,343.0" stroke="black" stroke-width="1.4" />
<text x="0.0" y="356.0" font-size="13" text-anchor="middle" font-family="Helvetica">1.0</text>
<path d="M236.0,338.0 L236.0,343.0" stroke="black" stroke-width="1.4" />
<text x="236.0" y="356.0" font-size="13" text-anchor="middle" font-family="Helvetica">2.0</text>
<text x="-7.0" y="375.5" font-size="13" text-anchor="middle" font-family="Helvetica">Time</text>
<text x="-270.0" y="-354.0" font-size="22" fill="#1a1a1a" font-weight="bold" font-family="Helvetica" text-anchor="start" dominant-baseline="middle">A</text>
<text x="-244.0" y="-354.0" font-size="14" fill="#1a1a1a" font-weight="normal" font-family="Helvetica" text-anchor="start" dominant-baseline="middle">Reconstructed tree</text>
</svg>
<svg x="580" y="0" xmlns="http://www.w3.org/2000/svg" xmlns:xlink="http://www.w3.org/1999/xlink"
     width="580" height="760" viewBox="-290.0 -380.0 580 760">
<defs>
</defs>
<rect x="-290.0" y="-380.0" width="580" height="760" fill="white" />
<path d="M236.0,-338.0 L236.0,338.0" stroke="#c9c9c9" stroke-width="1.0" stroke-dasharray="2,4" />
<path d="M83.07202655419832,-326.0 L236.0,-326.0" stroke="#1a1a1a" stroke-width="2.6" stroke-linecap="round" />
<path d="M99.25668081826444,-291.6842105263158 L196.9581125829095,-291.6842105263158" stroke="#1a1a1a" stroke-width="2.6" stroke-dasharray="6,5" stroke-linecap="butt" />
<path d="M99.25668081826444,-257.36842105263156 L125.4518692482427,-257.36842105263156" stroke="#1a1a1a" stroke-width="2.6" stroke-dasharray="6,5" stroke-linecap="butt" />
<path d="M83.07202655419832,-274.52631578947364 L99.25668081826444,-274.52631578947364" stroke="#1a1a1a" stroke-width="2.6" stroke-dasharray="6,5" stroke-linecap="butt" />
<path d="M99.25668081826444,-274.52631578947364 L99.25668081826444,-291.6842105263158" stroke="#1a1a1a" stroke-width="2.6" stroke-dasharray="6,5" stroke-linecap="butt" />
<path d="M99.25668081826444,-274.52631578947364 L99.25668081826444,-257.36842105263156" stroke="#1a1a1a" stroke-width="2.6" stroke-dasharray="6,5" stroke-linecap="butt" />
<path d="M-236.0,-300.2631578947368 L83.07202655419832,-300.2631578947368" stroke="#1a1a1a" stroke-width="2.6" stroke-linecap="round" />
<path d="M83.07202655419832,-300.2631578947368 L83.07202655419832,-326.0" stroke="#1a1a1a" stroke-width="2.6" stroke-linecap="round" />
<path d="M83.07202655419832,-300.2631578947368 L83.07202655419832,-274.52631578947364" stroke="#1a1a1a" stroke-width="2.6" stroke-dasharray="6,5" stroke-linecap="butt" />
<path d="M59.77609832788079,-223.05263157894737 L236.0,-223.05263157894737" stroke="#1a1a1a" stroke-width="2.6" stroke-linecap="round" />
<path d="M211.83281010385213,-188.73684210526315 L236.0,-188.73684210526315" stroke="#1a1a1a" stroke-width="2.6" stroke-linecap="round" />
<path d="M211.83281010385213,-154.42105263157893 L236.0,-154.42105263157893" stroke="#1a1a1a" stroke-width="2.6" stroke-linecap="round" />
<path d="M110.45350786003058,-171.57894736842104 L211.83281010385213,-171.57894736842104" stroke="#1a1a1a" stroke-width="2.6" stroke-linecap="round" />
<path d="M211.83281010385213,-171.57894736842104 L211.83281010385213,-188.73684210526315" stroke="#1a1a1a" stroke-width="2.6" stroke-linecap="round" />
<path d="M211.83281010385213,-171.57894736842104 L211.83281010385213,-154.42105263157893" stroke="#1a1a1a" stroke-width="2.6" stroke-linecap="round" />
<path d="M207.8245385151862,-120.10526315789474 L236.0,-120.10526315789474" stroke="#1a1a1a" stroke-width="2.6" stroke-linecap="round" />
<path d="M230.94927085195422,-85.78947368421052 L236.0,-85.78947368421052" stroke="#1a1a1a" stroke-width="2.6" stroke-linecap="round" />
<path d="M230.94927085195422,-51.4736842105263 L236.0,-51.4736842105263" stroke="#1a1a1a" stroke-width="2.6" stroke-linecap="round" />
<path d="M207.8245385151862,-68.63157894736841 L230.94927085195422,-68.63157894736841" stroke="#1a1a1a" stroke-width="2.6" stroke-linecap="round" />
<path d="M230.94927085195422,-68.63157894736841 L230.94927085195422,-85.78947368421052" stroke="#1a1a1a" stroke-width="2.6" stroke-linecap="round" />
<path d="M230.94927085195422,-68.63157894736841 L230.94927085195422,-51.4736842105263" stroke="#1a1a1a" stroke-width="2.6" stroke-linecap="round" />
<path d="M110.45350786003058,-94.36842105263158 L207.8245385151862,-94.36842105263158" stroke="#1a1a1a" stroke-width="2.6" stroke-linecap="round" />
<path d="M207.8245385151862,-94.36842105263158 L207.8245385151862,-120.10526315789474" stroke="#1a1a1a" stroke-width="2.6" stroke-linecap="round" />
<path d="M207.8245385151862,-94.36842105263158 L207.8245385151862,-68.63157894736841" stroke="#1a1a1a" stroke-width="2.6" stroke-linecap="round" />
<path d="M59.77609832788079,-132.9736842105263 L110.45350786003058,-132.9736842105263" stroke="#1a1a1a" stroke-width="2.6" stroke-linecap="round" />
<path d="M110.45350786003058,-132.9736842105263 L110.45350786003058,-171.57894736842104" stroke="#1a1a1a" stroke-width="2.6" stroke-linecap="round" />
<path d="M110.45350786003058,-132.9736842105263 L110.45350786003058,-94.36842105263158" stroke="#1a1a1a" stroke-width="2.6" stroke-linecap="round" />
<path d="M-173.49079291883587,-178.01315789473682 L59.77609832788079,-178.01315789473682" stroke="#1a1a1a" stroke-width="2.6" stroke-linecap="round" />
<path d="M59.77609832788079,-178.01315789473682 L59.77609832788079,-223.05263157894737" stroke="#1a1a1a" stroke-width="2.6" stroke-linecap="round" />
<path d="M59.77609832788079,-178.01315789473682 L59.77609832788079,-132.9736842105263" stroke="#1a1a1a" stroke-width="2.6" stroke-linecap="round" />
<path d="M211.58660999670764,-17.15789473684208 L236.0,-17.15789473684208" stroke="#1a1a1a" stroke-width="2.6" stroke-linecap="round" />
<path d="M211.58660999670764,17.157894736842138 L236.0,17.157894736842138" stroke="#1a1a1a" stroke-width="2.6" stroke-linecap="round" />
<path d="M72.09427326355399,2.842170943040401e-14 L211.58660999670764,2.842170943040401e-14" stroke="#1a1a1a" stroke-width="2.6" stroke-linecap="round" />
<path d="M211.58660999670764,2.842170943040401e-14 L211.58660999670764,-17.15789473684208" stroke="#1a1a1a" stroke-width="2.6" stroke-linecap="round" />
<path d="M211.58660999670764,2.842170943040401e-14 L211.58660999670764,17.157894736842138" stroke="#1a1a1a" stroke-width="2.6" stroke-linecap="round" />
<path d="M72.09427326355399,51.47368421052636 L115.52729971240183,51.47368421052636" stroke="#1a1a1a" stroke-width="2.6" stroke-dasharray="6,5" stroke-linecap="butt" />
<path d="M69.08389787275689,25.736842105263193 L72.09427326355399,25.736842105263193" stroke="#1a1a1a" stroke-width="2.6" stroke-linecap="round" />
<path d="M72.09427326355399,25.736842105263193 L72.09427326355399,2.842170943040401e-14" stroke="#1a1a1a" stroke-width="2.6" stroke-linecap="round" />
<path d="M72.09427326355399,25.736842105263193 L72.09427326355399,51.47368421052636" stroke="#1a1a1a" stroke-width="2.6" stroke-dasharray="6,5" stroke-linecap="butt" />
<path d="M131.2421790728672,85.78947368421052 L236.0,85.78947368421052" stroke="#1a1a1a" stroke-width="2.6" stroke-linecap="round" />
<path d="M131.2421790728672,120.10526315789474 L186.8385635595285,120.10526315789474" stroke="#1a1a1a" stroke-width="2.6" stroke-dasharray="6,5" stroke-linecap="butt" />
<path d="M69.08389787275689,102.94736842105263 L131.2421790728672,102.94736842105263" stroke="#1a1a1a" stroke-width="2.6" stroke-linecap="round" />
<path d="M131.2421790728672,102.94736842105263 L131.2421790728672,85.78947368421052" stroke="#1a1a1a" stroke-width="2.6" stroke-linecap="round" />
<path d="M131.2421790728672,102.94736842105263 L131.2421790728672,120.10526315789474" stroke="#1a1a1a" stroke-width="2.6" stroke-dasharray="6,5" stroke-linecap="butt" />
<path d="M6.903388296301216,64.34210526315792 L69.08389787275689,64.34210526315792" stroke="#1a1a1a" stroke-width="2.6" stroke-linecap="round" />
<path d="M69.08389787275689,64.34210526315792 L69.08389787275689,25.736842105263193" stroke="#1a1a1a" stroke-width="2.6" stroke-linecap="round" />
<path d="M69.08389787275689,64.34210526315792 L69.08389787275689,102.94736842105263" stroke="#1a1a1a" stroke-width="2.6" stroke-linecap="round" />
<path d="M6.903388296301216,154.42105263157896 L48.447268644847156,154.42105263157896" stroke="#1a1a1a" stroke-width="2.6" stroke-dasharray="6,5" stroke-linecap="butt" />
<path d="M-28.35767283479896,109.38157894736844 L6.903388296301216,109.38157894736844" stroke="#1a1a1a" stroke-width="2.6" stroke-linecap="round" />
<path d="M6.903388296301216,109.38157894736844 L6.903388296301216,64.34210526315792" stroke="#1a1a1a" stroke-width="2.6" stroke-linecap="round" />
<path d="M6.903388296301216,109.38157894736844 L6.903388296301216,154.42105263157896" stroke="#1a1a1a" stroke-width="2.6" stroke-dasharray="6,5" stroke-linecap="butt" />
<path d="M-28.35767283479896,188.73684210526324 L143.5430007810357,188.73684210526324" stroke="#1a1a1a" stroke-width="2.6" stroke-dasharray="6,5" stroke-linecap="butt" />
<path d="M-143.20653268126762,149.05921052631584 L-28.35767283479896,149.05921052631584" stroke="#1a1a1a" stroke-width="2.6" stroke-linecap="round" />
<path d="M-28.35767283479896,149.05921052631584 L-28.35767283479896,109.38157894736844" stroke="#1a1a1a" stroke-width="2.6" stroke-linecap="round" />
<path d="M-28.35767283479896,149.05921052631584 L-28.35767283479896,188.73684210526324" stroke="#1a1a1a" stroke-width="2.6" stroke-dasharray="6,5" stroke-linecap="butt" />
<path d="M-143.20653268126762,223.0526315789474 L7.730284648568329,223.0526315789474" stroke="#1a1a1a" stroke-width="2.6" stroke-dasharray="6,5" stroke-linecap="butt" />
<path d="M-152.03488771271358,186.05592105263162 L-143.20653268126762,186.05592105263162" stroke="#1a1a1a" stroke-width="2.6" stroke-linecap="round" />
<path d="M-143.20653268126762,186.05592105263162 L-143.20653268126762,149.05921052631584" stroke="#1a1a1a" stroke-width="2.6" stroke-linecap="round" />
<path d="M-143.20653268126762,186.05592105263162 L-143.20653268126762,223.0526315789474" stroke="#1a1a1a" stroke-width="2.6" stroke-dasharray="6,5" stroke-linecap="butt" />
<path d="M223.2651797200902,257.36842105263156 L236.0,257.36842105263156" stroke="#1a1a1a" stroke-width="2.6" stroke-linecap="round" />
<path d="M223.2651797200902,291.68421052631584 L236.0,291.68421052631584" stroke="#1a1a1a" stroke-width="2.6" stroke-linecap="round" />
<path d="M210.30143335491124,274.5263157894737 L223.2651797200902,274.5263157894737" stroke="#1a1a1a" stroke-width="2.6" stroke-linecap="round" />
<path d="M223.2651797200902,274.5263157894737 L223.2651797200902,257.36842105263156" stroke="#1a1a1a" stroke-width="2.6" stroke-linecap="round" />
<path d="M223.2651797200902,274.5263157894737 L223.2651797200902,291.68421052631584" stroke="#1a1a1a" stroke-width="2.6" stroke-linecap="round" />
<path d="M210.30143335491124,326.0 L225.83975689658172,326.0" stroke="#1a1a1a" stroke-width="2.6" stroke-dasharray="6,5" stroke-linecap="butt" />
<path d="M-152.03488771271358,300.2631578947369 L210.30143335491124,300.2631578947369" stroke="#1a1a1a" stroke-width="2.6" stroke-linecap="round" />
<path d="M210.30143335491124,300.2631578947369 L210.30143335491124,274.5263157894737" stroke="#1a1a1a" stroke-width="2.6" stroke-linecap="round" />
<path d="M210.30143335491124,300.2631578947369 L210.30143335491124,326.0" stroke="#1a1a1a" stroke-width="2.6" stroke-dasharray="6,5" stroke-linecap="butt" />
<path d="M-173.49079291883587,243.15953947368425 L-152.03488771271358,243.15953947368425" stroke="#1a1a1a" stroke-width="2.6" stroke-linecap="round" />
<path d="M-152.03488771271358,243.15953947368425 L-152.03488771271358,186.05592105263162" stroke="#1a1a1a" stroke-width="2.6" stroke-linecap="round" />
<path d="M-152.03488771271358,243.15953947368425 L-152.03488771271358,300.2631578947369" stroke="#1a1a1a" stroke-width="2.6" stroke-linecap="round" />
<path d="M-236.0,32.57319078947371 L-173.49079291883587,32.57319078947371" stroke="#1a1a1a" stroke-width="2.6" stroke-linecap="round" />
<path d="M-173.49079291883587,32.57319078947371 L-173.49079291883587,-178.01315789473682" stroke="#1a1a1a" stroke-width="2.6" stroke-linecap="round" />
<path d="M-173.49079291883587,32.57319078947371 L-173.49079291883587,243.15953947368425" stroke="#1a1a1a" stroke-width="2.6" stroke-linecap="round" />
<path d="M-250.0,-133.84498355263156 L-236.0,-133.84498355263156" stroke="#1a1a1a" stroke-width="2.6" stroke-linecap="round" />
<path d="M-236.0,-133.84498355263156 L-236.0,-300.2631578947368" stroke="#1a1a1a" stroke-width="2.6" stroke-linecap="round" />
<path d="M-236.0,-133.84498355263156 L-236.0,32.57319078947371" stroke="#1a1a1a" stroke-width="2.6" stroke-linecap="round" />
<path d="M-250.0,338.0 L236.0,338.0" stroke="black" stroke-width="1.4" />
<path d="M-236.0,338.0 L-236.0,343.0" stroke="black" stroke-width="1.4" />
<text x="-236.0" y="356.0" font-size="13" text-anchor="middle" font-family="Helvetica">0.0</text>
<path d="M0.0,338.0 L0.0,343.0" stroke="black" stroke-width="1.4" />
<text x="0.0" y="356.0" font-size="13" text-anchor="middle" font-family="Helvetica">1.0</text>
<path d="M236.0,338.0 L236.0,343.0" stroke="black" stroke-width="1.4" />
<text x="236.0" y="356.0" font-size="13" text-anchor="middle" font-family="Helvetica">2.0</text>
<text x="-7.0" y="375.5" font-size="13" text-anchor="middle" font-family="Helvetica">Time</text>
<text x="-270.0" y="-354.0" font-size="22" fill="#1a1a1a" font-weight="bold" font-family="Helvetica" text-anchor="start" dominant-baseline="middle">B</text>
<text x="-244.0" y="-354.0" font-size="14" fill="#1a1a1a" font-weight="normal" font-family="Helvetica" text-anchor="start" dominant-baseline="middle">Ghost lineages (seed 1)</text>
</svg>
<svg x="1160" y="0" xmlns="http://www.w3.org/2000/svg" xmlns:xlink="http://www.w3.org/1999/xlink"
     width="580" height="760" viewBox="-290.0 -380.0 580 760">
<defs>
</defs>
<rect x="-290.0" y="-380.0" width="580" height="760" fill="white" />
<path d="M236.0,-338.0 L236.0,338.0" stroke="#c9c9c9" stroke-width="1.0" stroke-dasharray="2,4" />
<path d="M-236.0,-326.0 L236.0,-326.0" stroke="#1a1a1a" stroke-width="2.6" stroke-linecap="round" />
<path d="M110.32716995604233,-285.25 L236.0,-285.25" stroke="#1a1a1a" stroke-width="2.6" stroke-linecap="round" />
<path d="M122.94038510585108,-244.5 L201.8595480405076,-244.5" stroke="#1a1a1a" stroke-width="2.6" stroke-dasharray="6,5" stroke-linecap="butt" />
<path d="M122.94038510585108,-203.75 L225.6908387603936,-203.75" stroke="#1a1a1a" stroke-width="2.6" stroke-dasharray="6,5" stroke-linecap="butt" />
<path d="M110.32716995604233,-224.125 L122.94038510585108,-224.125" stroke="#1a1a1a" stroke-width="2.6" stroke-dasharray="6,5" stroke-linecap="butt" />
<path d="M122.94038510585108,-224.125 L122.94038510585108,-244.5" stroke="#1a1a1a" stroke-width="2.6" stroke-dasharray="6,5" stroke-linecap="butt" />
<path d="M122.94038510585108,-224.125 L122.94038510585108,-203.75" stroke="#1a1a1a" stroke-width="2.6" stroke-dasharray="6,5" stroke-linecap="butt" />
<path d="M59.77609832788079,-254.6875 L110.32716995604233,-254.6875" stroke="#1a1a1a" stroke-width="2.6" stroke-linecap="round" />
<path d="M110.32716995604233,-254.6875 L110.32716995604233,-285.25" stroke="#1a1a1a" stroke-width="2.6" stroke-linecap="round" />
<path d="M110.32716995604233,-254.6875 L110.32716995604233,-224.125" stroke="#1a1a1a" stroke-width="2.6" stroke-dasharray="6,5" stroke-linecap="butt" />
<path d="M211.83281010385213,-163.0 L236.0,-163.0" stroke="#1a1a1a" stroke-width="2.6" stroke-linecap="round" />
<path d="M211.83281010385213,-122.25 L236.0,-122.25" stroke="#1a1a1a" stroke-width="2.6" stroke-linecap="round" />
<path d="M110.45350786003058,-142.625 L211.83281010385213,-142.625" stroke="#1a1a1a" stroke-width="2.6" stroke-linecap="round" />
<path d="M211.83281010385213,-142.625 L211.83281010385213,-163.0" stroke="#1a1a1a" stroke-width="2.6" stroke-linecap="round" />
<path d="M211.83281010385213,-142.625 L211.83281010385213,-122.25" stroke="#1a1a1a" stroke-width="2.6" stroke-linecap="round" />
<path d="M207.8245385151862,-81.5 L236.0,-81.5" stroke="#1a1a1a" stroke-width="2.6" stroke-linecap="round" />
<path d="M230.94927085195422,-40.75 L236.0,-40.75" stroke="#1a1a1a" stroke-width="2.6" stroke-linecap="round" />
<path d="M230.94927085195422,0.0 L236.0,0.0" stroke="#1a1a1a" stroke-width="2.6" stroke-linecap="round" />
<path d="M207.8245385151862,-20.375 L230.94927085195422,-20.375" stroke="#1a1a1a" stroke-width="2.6" stroke-linecap="round" />
<path d="M230.94927085195422,-20.375 L230.94927085195422,-40.75" stroke="#1a1a1a" stroke-width="2.6" stroke-linecap="round" />
<path d="M230.94927085195422,-20.375 L230.94927085195422,0.0" stroke="#1a1a1a" stroke-width="2.6" stroke-linecap="round" />
<path d="M110.45350786003058,-50.9375 L207.8245385151862,-50.9375" stroke="#1a1a1a" stroke-width="2.6" stroke-linecap="round" />
<path d="M207.8245385151862,-50.9375 L207.8245385151862,-81.5" stroke="#1a1a1a" stroke-width="2.6" stroke-linecap="round" />
<path d="M207.8245385151862,-50.9375 L207.8245385151862,-20.375" stroke="#1a1a1a" stroke-width="2.6" stroke-linecap="round" />
<path d="M59.77609832788079,-96.78125 L110.45350786003058,-96.78125" stroke="#1a1a1a" stroke-width="2.6" stroke-linecap="round" />
<path d="M110.45350786003058,-96.78125 L110.45350786003058,-142.625" stroke="#1a1a1a" stroke-width="2.6" stroke-linecap="round" />
<path d="M110.45350786003058,-96.78125 L110.45350786003058,-50.9375" stroke="#1a1a1a" stroke-width="2.6" stroke-linecap="round" />
<path d="M-173.49079291883587,-175.734375 L59.77609832788079,-175.734375" stroke="#1a1a1a" stroke-width="2.6" stroke-linecap="round" />
<path d="M59.77609832788079,-175.734375 L59.77609832788079,-254.6875" stroke="#1a1a1a" stroke-width="2.6" stroke-linecap="round" />
<path d="M59.77609832788079,-175.734375 L59.77609832788079,-96.78125" stroke="#1a1a1a" stroke-width="2.6" stroke-linecap="round" />
<path d="M211.58660999670764,40.75 L236.0,40.75" stroke="#1a1a1a" stroke-width="2.6" stroke-linecap="round" />
<path d="M211.58660999670764,81.5 L236.0,81.5" stroke="#1a1a1a" stroke-width="2.6" stroke-linecap="round" />
<path d="M69.08389787275689,61.125 L211.58660999670764,61.125" stroke="#1a1a1a" stroke-width="2.6" stroke-linecap="round" />
<path d="M211.58660999670764,61.125 L211.58660999670764,40.75" stroke="#1a1a1a" stroke-width="2.6" stroke-linecap="round" />
<path d="M211.58660999670764,61.125 L211.58660999670764,81.5" stroke="#1a1a1a" stroke-width="2.6" stroke-linecap="round" />
<path d="M69.08389787275689,122.25 L236.0,122.25" stroke="#1a1a1a" stroke-width="2.6" stroke-linecap="round" />
<path d="M9.495309733515086,91.6875 L69.08389787275689,91.6875" stroke="#1a1a1a" stroke-width="2.6" stroke-linecap="round" />
<path d="M69.08389787275689,91.6875 L69.08389787275689,61.125" stroke="#1a1a1a" stroke-width="2.6" stroke-linecap="round" />
<path d="M69.08389787275689,91.6875 L69.08389787275689,122.25" stroke="#1a1a1a" stroke-width="2.6" stroke-linecap="round" />
<path d="M9.495309733515086,163.0 L57.160604553494636,163.0" stroke="#1a1a1a" stroke-width="2.6" stroke-dasharray="6,5" stroke-linecap="butt" />
<path d="M-152.03488771271358,127.34375 L9.495309733515086,127.34375" stroke="#1a1a1a" stroke-width="2.6" stroke-linecap="round" />
<path d="M9.495309733515086,127.34375 L9.495309733515086,91.6875" stroke="#1a1a1a" stroke-width="2.6" stroke-linecap="round" />
<path d="M9.495309733515086,127.34375 L9.495309733515086,163.0" stroke="#1a1a1a" stroke-width="2.6" stroke-dasharray="6,5" stroke-linecap="butt" />
<path d="M223.2651797200902,203.75 L236.0,203.75" stroke="#1a1a1a" stroke-width="2.6" stroke-linecap="round" />
<path d="M223.2651797200902,244.5 L236.0,244.5" stroke="#1a1a1a" stroke-width="2.6" stroke-linecap="round" />
<path d="M-152.03488771271358,224.125 L223.2651797200902,224.125" stroke="#1a1a1a" stroke-width="2.6" stroke-linecap="round" />
<path d="M223.2651797200902,224.125 L223.2651797200902,203.75" stroke="#1a1a1a" stroke-width="2.6" stroke-linecap="round" />
<path d="M223.2651797200902,224.125 L223.2651797200902,244.5" stroke="#1a1a1a" stroke-width="2.6" stroke-linecap="round" />
<path d="M-173.49079291883587,175.734375 L-152.03488771271358,175.734375" stroke="#1a1a1a" stroke-width="2.6" stroke-linecap="round" />
<path d="M-152.03488771271358,175.734375 L-152.03488771271358,127.34375" stroke="#1a1a1a" stroke-width="2.6" stroke-linecap="round" />
<path d="M-152.03488771271358,175.734375 L-152.03488771271358,224.125" stroke="#1a1a1a" stroke-width="2.6" stroke-linecap="round" />
<path d="M-227.52809850961444,0.0 L-173.49079291883587,0.0" stroke="#1a1a1a" stroke-width="2.6" stroke-linecap="round" />
<path d="M-173.49079291883587,0.0 L-173.49079291883587,-175.734375" stroke="#1a1a1a" stroke-width="2.6" stroke-linecap="round" />
<path d="M-173.49079291883587,0.0 L-173.49079291883587,175.734375" stroke="#1a1a1a" stroke-width="2.6" stroke-linecap="round" />
<path d="M-115.64088867414223,285.25 L-58.158538180810126,285.25" stroke="#1a1a1a" stroke-width="2.6" stroke-dasharray="6,5" stroke-linecap="butt" />
<path d="M-115.64088867414223,326.0 L73.07912638678016,326.0" stroke="#1a1a1a" stroke-width="2.6" stroke-dasharray="6,5" stroke-linecap="butt" />
<path d="M-227.52809850961444,305.625 L-115.64088867414223,305.625" stroke="#1a1a1a" stroke-width="2.6" stroke-dasharray="6,5" stroke-linecap="butt" />
<path d="M-115.64088867414223,305.625 L-115.64088867414223,285.25" stroke="#1a1a1a" stroke-width="2.6" stroke-dasharray="6,5" stroke-linecap="butt" />
<path d="M-115.64088867414223,305.625 L-115.64088867414223,326.0" stroke="#1a1a1a" stroke-width="2.6" stroke-dasharray="6,5" stroke-linecap="butt" />
<path d="M-236.0,152.8125 L-227.52809850961444,152.8125" stroke="#1a1a1a" stroke-width="2.6" stroke-linecap="round" />
<path d="M-227.52809850961444,152.8125 L-227.52809850961444,0.0" stroke="#1a1a1a" stroke-width="2.6" stroke-linecap="round" />
<path d="M-227.52809850961444,152.8125 L-227.52809850961444,305.625" stroke="#1a1a1a" stroke-width="2.6" stroke-dasharray="6,5" stroke-linecap="butt" />
<path d="M-250.0,-86.59375 L-236.0,-86.59375" stroke="#1a1a1a" stroke-width="2.6" stroke-linecap="round" />
<path d="M-236.0,-86.59375 L-236.0,-326.0" stroke="#1a1a1a" stroke-width="2.6" stroke-linecap="round" />
<path d="M-236.0,-86.59375 L-236.0,152.8125" stroke="#1a1a1a" stroke-width="2.6" stroke-linecap="round" />
<path d="M-250.0,338.0 L236.0,338.0" stroke="black" stroke-width="1.4" />
<path d="M-236.0,338.0 L-236.0,343.0" stroke="black" stroke-width="1.4" />
<text x="-236.0" y="356.0" font-size="13" text-anchor="middle" font-family="Helvetica">0.0</text>
<path d="M0.0,338.0 L0.0,343.0" stroke="black" stroke-width="1.4" />
<text x="0.0" y="356.0" font-size="13" text-anchor="middle" font-family="Helvetica">1.0</text>
<path d="M236.0,338.0 L236.0,343.0" stroke="black" stroke-width="1.4" />
<text x="236.0" y="356.0" font-size="13" text-anchor="middle" font-family="Helvetica">2.0</text>
<text x="-7.0" y="375.5" font-size="13" text-anchor="middle" font-family="Helvetica">Time</text>
<text x="-270.0" y="-354.0" font-size="22" fill="#1a1a1a" font-weight="bold" font-family="Helvetica" text-anchor="start" dominant-baseline="middle">C</text>
<text x="-244.0" y="-354.0" font-size="14" fill="#1a1a1a" font-weight="normal" font-family="Helvetica" text-anchor="start" dominant-baseline="middle">Ghost lineages (seed 2)</text>
</svg>
<line x1="660.0" y1="784.0" x2="690.0" y2="784.0" stroke="#1a1a1a" stroke-width="2.6" stroke-linecap="round" />
<text x="698.0" y="784.0" font-size="15" font-family="Helvetica" text-anchor="start" dominant-baseline="middle" fill="#1a1a1a">reconstructed lineage</text>
<line x1="890.0" y1="784.0" x2="920.0" y2="784.0" stroke="#1a1a1a" stroke-width="2.6" stroke-dasharray="6,5" stroke-linecap="butt" />
<text x="928.0" y="784.0" font-size="15" font-family="Helvetica" text-anchor="start" dominant-baseline="middle" fill="#1a1a1a">ghost lineage</text>
</svg>