<?xml version="1.0" encoding="UTF-8"?>
<svg xmlns="http://www.w3.org/2000/svg" xmlns:xlink="http://www.w3.org/1999/xlink"
     width="1400" height="800" viewBox="0 0 1400 800">
<defs>
</defs>
<rect x="0" y="0" width="1400" height="800" fill="white" />
<path d="M1330.0,132 L1330.0,720" stroke="#cccccc" stroke-width="1.0" stroke-dasharray="2,4" />
<rect x="712.0" y="132" width="14" height="588" fill="#e9e9e9" />
<path d="M719.0,132 L719.0,720" stroke="#1a1a1a" stroke-width="1.6" stroke-dasharray="5,4" />
<path d="M94.0,231.72608150652985 L133.39044931149945,231.72608150652985" stroke="#1a1a1a" stroke-width="2.6" stroke-linecap="round" />
<path d="M133.39044931149945,231.72608150652985 L133.39044931149945,177.78603078358208" stroke="#1a1a1a" stroke-width="2.6" stroke-linecap="round" />
<path d="M133.39044931149945,231.72608150652985 L133.39044931149945,285.6661322294776" stroke="#1a1a1a" stroke-width="2.6" stroke-linecap="round" />
<path d="M133.39044931149945,177.78603078358208 L183.58815570475957,177.78603078358208" stroke="#1a1a1a" stroke-width="2.6" stroke-linecap="round" />
<path d="M183.58815570475957,177.78603078358208 L183.58815570475957,155.17164179104478" stroke="#1a1a1a" stroke-width="2.0" stroke-dasharray="6,5" stroke-linecap="butt" />
<path d="M183.58815570475957,177.78603078358208 L183.58815570475957,200.4004197761194" stroke="#1a1a1a" stroke-width="2.6" stroke-linecap="round" />
<path d="M133.39044931149945,285.6661322294776 L279.4345621137576,285.6661322294776" stroke="#1a1a1a" stroke-width="2.6" stroke-linecap="round" />
<path d="M279.4345621137576,285.6661322294776 L279.4345621137576,297.2128614738806" stroke="#1a1a1a" stroke-width="2.6" stroke-linecap="round" />
<path d="M279.4345621137576,285.6661322294776 L279.4345621137576,274.11940298507466" stroke="#1a1a1a" stroke-width="2.0" stroke-dasharray="6,5" stroke-linecap="butt" />
<path d="M183.58815570475957,155.17164179104478 L270.90564383987214,155.17164179104478" stroke="#1a1a1a" stroke-width="2.0" stroke-dasharray="6,5" stroke-linecap="butt" />
<path d="M270.90564383987214,155.17164179104478 L270.90564383987214,150.0" stroke="#1a1a1a" stroke-width="2.0" stroke-dasharray="6,5" stroke-linecap="butt" />
<path d="M270.90564383987214,155.17164179104478 L270.90564383987214,160.34328358208955" stroke="#1a1a1a" stroke-width="2.0" stroke-dasharray="6,5" stroke-linecap="butt" />
<path d="M183.58815570475957,200.4004197761194 L554.4742876250035,200.4004197761194" stroke="#1a1a1a" stroke-width="2.6" stroke-linecap="round" />
<path d="M554.4742876250035,200.4004197761194 L554.4742876250035,218.29337686567163" stroke="#1a1a1a" stroke-width="2.6" stroke-linecap="round" />
<path d="M554.4742876250035,200.4004197761194 L554.4742876250035,182.50746268656718" stroke="#1a1a1a" stroke-width="2.0" stroke-dasharray="6,5" stroke-linecap="butt" />
<path d="M270.90564383987214,150.0 L459.819581938457,150.0" stroke="#1a1a1a" stroke-width="2.0" stroke-dasharray="6,5" stroke-linecap="butt" />
<path d="M270.90564383987214,160.34328358208955 L552.0231423123923,160.34328358208955" stroke="#1a1a1a" stroke-width="2.0" stroke-dasharray="6,5" stroke-linecap="butt" />
<path d="M552.0231423123923,160.34328358208955 L552.0231423123923,164.77611940298507" stroke="#1a1a1a" stroke-width="2.0" stroke-dasharray="6,5" stroke-linecap="butt" />
<path d="M552.0231423123923,160.34328358208955 L552.0231423123923,155.91044776119404" stroke="#1a1a1a" stroke-width="2.0" stroke-dasharray="6,5" stroke-linecap="butt" />
<path d="M279.4345621137576,297.2128614738806 L351.69852544214484,297.2128614738806" stroke="#1a1a1a" stroke-width="2.6" stroke-linecap="round" />
<path d="M351.69852544214484,297.2128614738806 L351.69852544214484,282.98507462686564" stroke="#1a1a1a" stroke-width="2.0" stroke-dasharray="6,5" stroke-linecap="butt" />
<path d="M351.69852544214484,297.2128614738806 L351.69852544214484,311.44064832089555" stroke="#1a1a1a" stroke-width="2.6" stroke-linecap="round" />
<path d="M279.4345621137576,274.11940298507466 L719.0,274.11940298507466" stroke="#1a1a1a" stroke-width="2.0" stroke-dasharray="6,5" stroke-linecap="butt" />
<path d="M351.69852544214484,282.98507462686564 L645.9951827311936,282.98507462686564" stroke="#1a1a1a" stroke-width="2.0" stroke-dasharray="6,5" stroke-linecap="butt" />
<path d="M645.9951827311936,282.98507462686564 L645.9951827311936,280.02985074626866" stroke="#1a1a1a" stroke-width="2.0" stroke-dasharray="6,5" stroke-linecap="butt" />
<path d="M645.9951827311936,282.98507462686564 L645.9951827311936,285.94029850746267" stroke="#1a1a1a" stroke-width="2.0" stroke-dasharray="6,5" stroke-linecap="butt" />
<path d="M351.69852544214484,311.44064832089555 L381.90878792917374,311.44064832089555" stroke="#1a1a1a" stroke-width="2.6" stroke-linecap="round" />
<path d="M381.90878792917374,311.44064832089555 L381.90878792917374,291.85074626865674" stroke="#1a1a1a" stroke-width="2.0" stroke-dasharray="6,5" stroke-linecap="butt" />
<path d="M381.90878792917374,311.44064832089555 L381.90878792917374,331.03055037313436" stroke="#1a1a1a" stroke-width="2.6" stroke-linecap="round" />
<path d="M381.90878792917374,291.85074626865674 L719.0,291.85074626865674" stroke="#1a1a1a" stroke-width="2.0" stroke-dasharray="6,5" stroke-linecap="butt" />
<path d="M381.90878792917374,331.03055037313436 L623.507312810438,331.03055037313436" stroke="#1a1a1a" stroke-width="2.6" stroke-linecap="round" />
<path d="M623.507312810438,331.03055037313436 L623.507312810438,364.2999067164179" stroke="#1a1a1a" stroke-width="2.6" stroke-linecap="round" />
<path d="M623.507312810438,331.03055037313436 L623.507312810438,297.76119402985074" stroke="#1a1a1a" stroke-width="2.0" stroke-dasharray="6,5" stroke-linecap="butt" />
<path d="M552.0231423123923,164.77611940298507 L677.1284507402916,164.77611940298507" stroke="#1a1a1a" stroke-width="2.0" stroke-dasharray="6,5" stroke-linecap="butt" />
<path d="M677.1284507402916,164.77611940298507 L677.1284507402916,161.82089552238807" stroke="#1a1a1a" stroke-width="2.0" stroke-dasharray="6,5" stroke-linecap="butt" />
<path d="M677.1284507402916,164.77611940298507 L677.1284507402916,167.73134328358208" stroke="#1a1a1a" stroke-width="2.0" stroke-dasharray="6,5" stroke-linecap="butt" />
<path d="M552.0231423123923,155.91044776119404 L649.8645376313468,155.91044776119404" stroke="#1a1a1a" stroke-width="2.0" stroke-dasharray="6,5" stroke-linecap="butt" />
<path d="M554.4742876250035,218.29337686567163 L813.241774322336,218.29337686567163" stroke="#1a1a1a" stroke-width="2.6" stroke-linecap="round" />
<path d="M813.241774322336,218.29337686567163 L813.241774322336,233.76212686567163" stroke="#1a1a1a" stroke-width="2.6" stroke-linecap="round" />
<path d="M813.241774322336,218.29337686567163 L813.241774322336,202.82462686567163" stroke="#1a1a1a" stroke-width="2.6" stroke-linecap="round" />
<path d="M554.4742876250035,182.50746268656718 L599.4780984451805,182.50746268656718" stroke="#1a1a1a" stroke-width="2.0" stroke-dasharray="6,5" stroke-linecap="butt" />
<path d="M599.4780984451805,182.50746268656718 L599.4780984451805,176.59701492537314" stroke="#1a1a1a" stroke-width="2.0" stroke-dasharray="6,5" stroke-linecap="butt" />
<path d="M599.4780984451805,182.50746268656718 L599.4780984451805,188.4179104477612" stroke="#1a1a1a" stroke-width="2.0" stroke-dasharray="6,5" stroke-linecap="butt" />
<path d="M599.4780984451805,176.59701492537314 L689.9376721194117,176.59701492537314" stroke="#1a1a1a" stroke-width="2.0" stroke-dasharray="6,5" stroke-linecap="butt" />
<path d="M689.9376721194117,176.59701492537314 L689.9376721194117,173.6417910447761" stroke="#1a1a1a" stroke-width="2.0" stroke-dasharray="6,5" stroke-linecap="butt" />
<path d="M689.9376721194117,176.59701492537314 L689.9376721194117,179.55223880597015" stroke="#1a1a1a" stroke-width="2.0" stroke-dasharray="6,5" stroke-linecap="butt" />
<path d="M599.4780984451805,188.4179104477612 L707.2042618999665,188.4179104477612" stroke="#1a1a1a" stroke-width="2.0" stroke-dasharray="6,5" stroke-linecap="butt" />
<path d="M707.2042618999665,188.4179104477612 L707.2042618999665,185.46268656716418" stroke="#1a1a1a" stroke-width="2.0" stroke-dasharray="6,5" stroke-linecap="butt" />
<path d="M707.2042618999665,188.4179104477612 L707.2042618999665,191.37313432835822" stroke="#1a1a1a" stroke-width="2.0" stroke-dasharray="6,5" stroke-linecap="butt" />
<path d="M623.507312810438,364.2999067164179 L778.4805457934609,364.2999067164179" stroke="#1a1a1a" stroke-width="2.6" stroke-linecap="round" />
<path d="M778.4805457934609,364.2999067164179 L778.4805457934609,415.78544776119406" stroke="#1a1a1a" stroke-width="2.6" stroke-linecap="round" />
<path d="M778.4805457934609,364.2999067164179 L778.4805457934609,312.8143656716418" stroke="#1a1a1a" stroke-width="2.6" stroke-linecap="round" />
<path d="M623.507312810438,297.76119402985074 L719.0,297.76119402985074" stroke="#1a1a1a" stroke-width="2.0" stroke-dasharray="6,5" stroke-linecap="butt" />
<path d="M645.9951827311936,280.02985074626866 L719.0,280.02985074626866" stroke="#1a1a1a" stroke-width="2.0" stroke-dasharray="6,5" stroke-linecap="butt" />
<path d="M645.9951827311936,285.94029850746267 L719.0,285.94029850746267" stroke="#1a1a1a" stroke-width="2.0" stroke-dasharray="6,5" stroke-linecap="butt" />
<path d="M677.1284507402916,161.82089552238807 L719.0,161.82089552238807" stroke="#1a1a1a" stroke-width="2.0" stroke-dasharray="6,5" stroke-linecap="butt" />
<path d="M677.1284507402916,167.73134328358208 L744.7175481610332,167.73134328358208" stroke="#1a1a1a" stroke-width="2.0" stroke-dasharray="6,5" stroke-linecap="butt" />
<path d="M689.9376721194117,173.6417910447761 L719.0,173.6417910447761" stroke="#1a1a1a" stroke-width="2.0" stroke-dasharray="6,5" stroke-linecap="butt" />
<path d="M689.9376721194117,179.55223880597015 L719.0,179.55223880597015" stroke="#1a1a1a" stroke-width="2.0" stroke-dasharray="6,5" stroke-linecap="butt" />
<path d="M707.2042618999665,185.46268656716418 L719.0,185.46268656716418" stroke="#1a1a1a" stroke-width="2.0" stroke-dasharray="6,5" stroke-linecap="butt" />
<path d="M707.2042618999665,191.37313432835822 L719.0,191.37313432835822" stroke="#1a1a1a" stroke-width="2.0" stroke-dasharray="6,5" stroke-linecap="butt" />
<path d="M778.4805457934609,415.78544776119406 L807.9690888260668,415.78544776119406" stroke="#1a1a1a" stroke-width="2.6" stroke-linecap="round" />
<path d="M807.9690888260668,415.78544776119406 L807.9690888260668,373.7196828358209" stroke="#1a1a1a" stroke-width="2.6" stroke-linecap="round" />
<path d="M807.9690888260668,415.78544776119406 L807.9690888260668,457.8512126865672" stroke="#1a1a1a" stroke-width="2.6" stroke-linecap="round" />
<path d="M778.4805457934609,312.8143656716418 L921.7178271929018,312.8143656716418" stroke="#1a1a1a" stroke-width="2.6" stroke-linecap="round" />
<path d="M921.7178271929018,312.8143656716418 L921.7178271929018,321.9570895522388" stroke="#1a1a1a" stroke-width="2.6" stroke-linecap="round" />
<path d="M921.7178271929018,312.8143656716418 L921.7178271929018,303.67164179104475" stroke="#1a1a1a" stroke-width="2.6" stroke-linecap="round" />
<path d="M807.9690888260668,373.7196828358209 L943.5872896853616,373.7196828358209" stroke="#1a1a1a" stroke-width="2.6" stroke-linecap="round" />
<path d="M943.5872896853616,373.7196828358209 L943.5872896853616,361.2985074626866" stroke="#1a1a1a" stroke-width="2.6" stroke-linecap="round" />
<path d="M943.5872896853616,373.7196828358209 L943.5872896853616,386.14085820895525" stroke="#1a1a1a" stroke-width="2.6" stroke-linecap="round" />
<path d="M807.9690888260668,457.8512126865672 L814.9101963435414,457.8512126865672" stroke="#1a1a1a" stroke-width="2.6" stroke-linecap="round" />
<path d="M814.9101963435414,457.8512126865672 L814.9101963435414,433.70149253731347" stroke="#1a1a1a" stroke-width="2.0" stroke-dasharray="6,5" stroke-linecap="butt" />
<path d="M814.9101963435414,457.8512126865672 L814.9101963435414,482.0009328358209" stroke="#1a1a1a" stroke-width="2.6" stroke-linecap="round" />
<path d="M813.241774322336,233.76212686567163 L828.5267342875816,233.76212686567163" stroke="#1a1a1a" stroke-width="2.6" stroke-linecap="round" />
<path d="M828.5267342875816,233.76212686567163 L828.5267342875816,240.6884328358209" stroke="#1a1a1a" stroke-width="2.6" stroke-linecap="round" />
<path d="M828.5267342875816,233.76212686567163 L828.5267342875816,226.83582089552237" stroke="#1a1a1a" stroke-width="2.0" stroke-dasharray="6,5" stroke-linecap="butt" />
<path d="M813.241774322336,202.82462686567163 L862.9859280165922,202.82462686567163" stroke="#1a1a1a" stroke-width="2.6" stroke-linecap="round" />
<path d="M862.9859280165922,202.82462686567163 L862.9859280165922,208.36567164179104" stroke="#1a1a1a" stroke-width="2.6" stroke-linecap="round" />
<path d="M862.9859280165922,202.82462686567163 L862.9859280165922,197.28358208955223" stroke="#1a1a1a" stroke-width="2.0" stroke-dasharray="6,5" stroke-linecap="butt" />
<path d="M814.9101963435414,433.70149253731347 L1004.6606462217544,433.70149253731347" stroke="#1a1a1a" stroke-width="2.0" stroke-dasharray="6,5" stroke-linecap="butt" />
<path d="M814.9101963435414,482.0009328358209 L833.560158562525,482.0009328358209" stroke="#1a1a1a" stroke-width="2.6" stroke-linecap="round" />
<path d="M833.560158562525,482.0009328358209 L833.560158562525,453.64925373134326" stroke="#1a1a1a" stroke-width="2.6" stroke-linecap="round" />
<path d="M833.560158562525,482.0009328358209 L833.560158562525,510.3526119402985" stroke="#1a1a1a" stroke-width="2.6" stroke-linecap="round" />
<path d="M828.5267342875816,240.6884328358209 L875.867508787646,240.6884328358209" stroke="#1a1a1a" stroke-width="2.6" stroke-linecap="round" />
<path d="M875.867508787646,240.6884328358209 L875.867508787646,248.63059701492537" stroke="#1a1a1a" stroke-width="2.6" stroke-linecap="round" />
<path d="M875.867508787646,240.6884328358209 L875.867508787646,232.74626865671644" stroke="#1a1a1a" stroke-width="2.0" stroke-dasharray="6,5" stroke-linecap="butt" />
<path d="M828.5267342875816,226.83582089552237 L929.4851335412943,226.83582089552237" stroke="#1a1a1a" stroke-width="2.0" stroke-dasharray="6,5" stroke-linecap="butt" />
<path d="M833.560158562525,453.64925373134326 L930.0375411561179,453.64925373134326" stroke="#1a1a1a" stroke-width="2.6" stroke-linecap="round" />
<path d="M930.0375411561179,453.64925373134326 L930.0375411561179,464.7313432835821" stroke="#1a1a1a" stroke-width="2.6" stroke-linecap="round" />
<path d="M930.0375411561179,453.64925373134326 L930.0375411561179,442.5671641791045" stroke="#1a1a1a" stroke-width="2.6" stroke-linecap="round" />
<path d="M833.560158562525,510.3526119402985 L960.8477416999813,510.3526119402985" stroke="#1a1a1a" stroke-width="2.6" stroke-linecap="round" />
<path d="M960.8477416999813,510.3526119402985 L960.8477416999813,496.5" stroke="#1a1a1a" stroke-width="2.6" stroke-linecap="round" />
<path d="M960.8477416999813,510.3526119402985 L960.8477416999813,524.205223880597" stroke="#1a1a1a" stroke-width="2.6" stroke-linecap="round" />
<path d="M862.9859280165922,208.36567164179104 L923.0725593027968,208.36567164179104" stroke="#1a1a1a" stroke-width="2.6" stroke-linecap="round" />
<path d="M923.0725593027968,208.36567164179104 L923.0725593027968,213.53731343283582" stroke="#1a1a1a" stroke-width="2.6" stroke-linecap="round" />
<path d="M923.0725593027968,208.36567164179104 L923.0725593027968,203.19402985074626" stroke="#1a1a1a" stroke-width="2.0" stroke-dasharray="6,5" stroke-linecap="butt" />
<path d="M862.9859280165922,197.28358208955223 L1329.2161505988863,197.28358208955223" stroke="#1a1a1a" stroke-width="2.0" stroke-dasharray="6,5" stroke-linecap="butt" />
<path d="M875.867508787646,248.63059701492537 L929.7959057403775,248.63059701492537" stroke="#1a1a1a" stroke-width="2.6" stroke-linecap="round" />
<path d="M929.7959057403775,248.63059701492537 L929.7959057403775,255.6492537313433" stroke="#1a1a1a" stroke-width="2.6" stroke-linecap="round" />
<path d="M929.7959057403775,248.63059701492537 L929.7959057403775,241.61194029850748" stroke="#1a1a1a" stroke-width="2.6" stroke-linecap="round" />
<path d="M875.867508787646,232.74626865671644 L933.0242478270754,232.74626865671644" stroke="#1a1a1a" stroke-width="2.0" stroke-dasharray="6,5" stroke-linecap="butt" />
<path d="M921.7178271929018,321.9570895522388 L1066.4181964928064,321.9570895522388" stroke="#1a1a1a" stroke-width="2.6" stroke-linecap="round" />
<path d="M1066.4181964928064,321.9570895522388 L1066.4181964928064,331.3768656716418" stroke="#1a1a1a" stroke-width="2.6" stroke-linecap="round" />
<path d="M1066.4181964928064,321.9570895522388 L1066.4181964928064,312.53731343283584" stroke="#1a1a1a" stroke-width="2.6" stroke-linecap="round" />
<path d="M921.7178271929018,303.67164179104475 L1330.0,303.67164179104475" stroke="#1a1a1a" stroke-width="2.6" stroke-linecap="round" />
<path d="M923.0725593027968,213.53731343283582 L1118.0119294135789,213.53731343283582" stroke="#1a1a1a" stroke-width="2.6" stroke-linecap="round" />
<path d="M1118.0119294135789,213.53731343283582 L1118.0119294135789,209.1044776119403" stroke="#1a1a1a" stroke-width="2.6" stroke-linecap="round" />
<path d="M1118.0119294135789,213.53731343283582 L1118.0119294135789,217.97014925373134" stroke="#1a1a1a" stroke-width="2.6" stroke-linecap="round" />
<path d="M923.0725593027968,203.19402985074626 L1193.943795989697,203.19402985074626" stroke="#1a1a1a" stroke-width="2.0" stroke-dasharray="6,5" stroke-linecap="butt" />
<path d="M929.7959057403775,255.6492537313433 L1251.7638237045696,255.6492537313433" stroke="#1a1a1a" stroke-width="2.6" stroke-linecap="round" />
<path d="M1251.7638237045696,255.6492537313433 L1251.7638237045696,250.47761194029852" stroke="#1a1a1a" stroke-width="2.6" stroke-linecap="round" />
<path d="M1251.7638237045696,255.6492537313433 L1251.7638237045696,260.82089552238807" stroke="#1a1a1a" stroke-width="2.6" stroke-linecap="round" />
<path d="M929.7959057403775,241.61194029850748 L1283.6847311243416,241.61194029850748" stroke="#1a1a1a" stroke-width="2.6" stroke-linecap="round" />
<path d="M1283.6847311243416,241.61194029850748 L1283.6847311243416,238.65671641791045" stroke="#1a1a1a" stroke-width="2.6" stroke-linecap="round" />
<path d="M1283.6847311243416,241.61194029850748 L1283.6847311243416,244.56716417910448" stroke="#1a1a1a" stroke-width="2.6" stroke-linecap="round" />
<path d="M930.0375411561179,464.7313432835821 L981.7908690689638,464.7313432835821" stroke="#1a1a1a" stroke-width="2.6" stroke-linecap="round" />
<path d="M981.7908690689638,464.7313432835821 L981.7908690689638,455.86567164179104" stroke="#1a1a1a" stroke-width="2.6" stroke-linecap="round" />
<path d="M981.7908690689638,464.7313432835821 L981.7908690689638,473.5970149253731" stroke="#1a1a1a" stroke-width="2.6" stroke-linecap="round" />
<path d="M930.0375411561179,442.5671641791045 L1071.5665010380062,442.5671641791045" stroke="#1a1a1a" stroke-width="2.6" stroke-linecap="round" />
<path d="M1071.5665010380062,442.5671641791045 L1071.5665010380062,439.6119402985075" stroke="#1a1a1a" stroke-width="2.6" stroke-linecap="round" />
<path d="M1071.5665010380062,442.5671641791045 L1071.5665010380062,445.5223880597015" stroke="#1a1a1a" stroke-width="2.6" stroke-linecap="round" />
<path d="M943.5872896853616,361.2985074626866 L1170.3141582573592,361.2985074626866" stroke="#1a1a1a" stroke-width="2.6" stroke-linecap="round" />
<path d="M1170.3141582573592,361.2985074626866 L1170.3141582573592,356.86567164179104" stroke="#1a1a1a" stroke-width="2.6" stroke-linecap="round" />
<path d="M1170.3141582573592,361.2985074626866 L1170.3141582573592,365.7313432835821" stroke="#1a1a1a" stroke-width="2.6" stroke-linecap="round" />
<path d="M943.5872896853616,386.14085820895525 L1000.9320454709928,386.14085820895525" stroke="#1a1a1a" stroke-width="2.6" stroke-linecap="round" />
<path d="M1000.9320454709928,386.14085820895525 L1000.9320454709928,397.68470149253733" stroke="#1a1a1a" stroke-width="2.6" stroke-linecap="round" />
<path d="M1000.9320454709928,386.14085820895525 L1000.9320454709928,374.5970149253732" stroke="#1a1a1a" stroke-width="2.6" stroke-linecap="round" />
<path d="M960.8477416999813,496.5 L971.0581511465897,496.5" stroke="#1a1a1a" stroke-width="2.6" stroke-linecap="round" />
<path d="M971.0581511465897,496.5 L971.0581511465897,503.1492537313433" stroke="#1a1a1a" stroke-width="2.6" stroke-linecap="round" />
<path d="M971.0581511465897,496.5 L971.0581511465897,489.85074626865674" stroke="#1a1a1a" stroke-width="2.6" stroke-linecap="round" />
<path d="M960.8477416999813,524.205223880597 L1081.988021263549,524.205223880597" stroke="#1a1a1a" stroke-width="2.6" stroke-linecap="round" />
<path d="M1081.988021263549,524.205223880597 L1081.988021263549,516.4477611940299" stroke="#1a1a1a" stroke-width="2.0" stroke-dasharray="6,5" stroke-linecap="butt" />
<path d="M1081.988021263549,524.205223880597 L1081.988021263549,531.9626865671642" stroke="#1a1a1a" stroke-width="2.6" stroke-linecap="round" />
<path d="M971.0581511465897,503.1492537313433 L1173.5775624171633,503.1492537313433" stroke="#1a1a1a" stroke-width="2.6" stroke-linecap="round" />
<path d="M1173.5775624171633,503.1492537313433 L1173.5775624171633,507.5820895522388" stroke="#1a1a1a" stroke-width="2.6" stroke-linecap="round" />
<path d="M1173.5775624171633,503.1492537313433 L1173.5775624171633,498.7164179104478" stroke="#1a1a1a" stroke-width="2.6" stroke-linecap="round" />
<path d="M971.0581511465897,489.85074626865674 L1274.2838217190183,489.85074626865674" stroke="#1a1a1a" stroke-width="2.6" stroke-linecap="round" />
<path d="M1274.2838217190183,489.85074626865674 L1274.2838217190183,486.8955223880597" stroke="#1a1a1a" stroke-width="2.6" stroke-linecap="round" />
<path d="M1274.2838217190183,489.85074626865674 L1274.2838217190183,492.80597014925377" stroke="#1a1a1a" stroke-width="2.6" stroke-linecap="round" />
<path d="M981.7908690689638,455.86567164179104 L1130.2667919973546,455.86567164179104" stroke="#1a1a1a" stroke-width="2.6" stroke-linecap="round" />
<path d="M1130.2667919973546,455.86567164179104 L1130.2667919973546,460.2985074626866" stroke="#1a1a1a" stroke-width="2.6" stroke-linecap="round" />
<path d="M1130.2667919973546,455.86567164179104 L1130.2667919973546,451.43283582089555" stroke="#1a1a1a" stroke-width="2.0" stroke-dasharray="6,5" stroke-linecap="butt" />
<path d="M981.7908690689638,473.5970149253731 L1115.7519056521048,473.5970149253731" stroke="#1a1a1a" stroke-width="2.6" stroke-linecap="round" />
<path d="M1115.7519056521048,473.5970149253731 L1115.7519056521048,469.1641791044776" stroke="#1a1a1a" stroke-width="2.0" stroke-dasharray="6,5" stroke-linecap="butt" />
<path d="M1115.7519056521048,473.5970149253731 L1115.7519056521048,478.02985074626866" stroke="#1a1a1a" stroke-width="2.6" stroke-linecap="round" />
<path d="M1000.9320454709928,397.68470149253733 L1004.8963497903217,397.68470149253733" stroke="#1a1a1a" stroke-width="2.6" stroke-linecap="round" />
<path d="M1004.8963497903217,397.68470149253733 L1004.8963497903217,409.69029850746267" stroke="#1a1a1a" stroke-width="2.6" stroke-linecap="round" />
<path d="M1004.8963497903217,397.68470149253733 L1004.8963497903217,385.679104477612" stroke="#1a1a1a" stroke-width="2.6" stroke-linecap="round" />
<path d="M1000.9320454709928,374.5970149253732 L1330.0,374.5970149253732" stroke="#1a1a1a" stroke-width="2.6" stroke-linecap="round" />
<path d="M1004.8963497903217,409.69029850746267 L1109.0915785280679,409.69029850746267" stroke="#1a1a1a" stroke-width="2.6" stroke-linecap="round" />
<path d="M1109.0915785280679,409.69029850746267 L1109.0915785280679,404.14925373134326" stroke="#1a1a1a" stroke-width="2.0" stroke-dasharray="6,5" stroke-linecap="butt" />
<path d="M1109.0915785280679,409.69029850746267 L1109.0915785280679,415.2313432835821" stroke="#1a1a1a" stroke-width="2.6" stroke-linecap="round" />
<path d="M1004.8963497903217,385.679104477612 L1204.2701530016586,385.679104477612" stroke="#1a1a1a" stroke-width="2.6" stroke-linecap="round" />
<path d="M1204.2701530016586,385.679104477612 L1204.2701530016586,390.85074626865674" stroke="#1a1a1a" stroke-width="2.6" stroke-linecap="round" />
<path d="M1204.2701530016586,385.679104477612 L1204.2701530016586,380.5074626865672" stroke="#1a1a1a" stroke-width="2.6" stroke-linecap="round" />
<path d="M1066.4181964928064,331.3768656716418 L1177.308126679588,331.3768656716418" stroke="#1a1a1a" stroke-width="2.6" stroke-linecap="round" />
<path d="M1177.308126679588,331.3768656716418 L1177.308126679588,338.3955223880597" stroke="#1a1a1a" stroke-width="2.6" stroke-linecap="round" />
<path d="M1177.308126679588,331.3768656716418 L1177.308126679588,324.35820895522386" stroke="#1a1a1a" stroke-width="2.6" stroke-linecap="round" />
<path d="M1066.4181964928064,312.53731343283584 L1158.980702706893,312.53731343283584" stroke="#1a1a1a" stroke-width="2.6" stroke-linecap="round" />
<path d="M1158.980702706893,312.53731343283584 L1158.980702706893,309.5820895522388" stroke="#1a1a1a" stroke-width="2.6" stroke-linecap="round" />
<path d="M1158.980702706893,312.53731343283584 L1158.980702706893,315.4925373134329" stroke="#1a1a1a" stroke-width="2.0" stroke-dasharray="6,5" stroke-linecap="butt" />
<path d="M1071.5665010380062,439.6119402985075 L1330.0,439.6119402985075" stroke="#1a1a1a" stroke-width="2.6" stroke-linecap="round" />
<path d="M1071.5665010380062,445.5223880597015 L1330.0,445.5223880597015" stroke="#1a1a1a" stroke-width="2.6" stroke-linecap="round" />
<path d="M1081.988021263549,516.4477611940299 L1223.5927917298834,516.4477611940299" stroke="#1a1a1a" stroke-width="2.0" stroke-dasharray="6,5" stroke-linecap="butt" />
<path d="M1081.988021263549,531.9626865671642 L1196.0858427781584,531.9626865671642" stroke="#1a1a1a" stroke-width="2.6" stroke-linecap="round" />
<path d="M1196.0858427781584,531.9626865671642 L1196.0858427781584,525.3134328358209" stroke="#1a1a1a" stroke-width="2.6" stroke-linecap="round" />
<path d="M1196.0858427781584,531.9626865671642 L1196.0858427781584,538.6119402985075" stroke="#1a1a1a" stroke-width="2.6" stroke-linecap="round" />
<path d="M1109.0915785280679,404.14925373134326 L1138.3475281306632,404.14925373134326" stroke="#1a1a1a" stroke-width="2.0" stroke-dasharray="6,5" stroke-linecap="butt" />
<path d="M1109.0915785280679,415.2313432835821 L1111.7061038288512,415.2313432835821" stroke="#1a1a1a" stroke-width="2.6" stroke-linecap="round" />
<path d="M1111.7061038288512,415.2313432835821 L1111.7061038288512,420.4029850746269" stroke="#1a1a1a" stroke-width="2.6" stroke-linecap="round" />
<path d="M1111.7061038288512,415.2313432835821 L1111.7061038288512,410.05970149253733" stroke="#1a1a1a" stroke-width="2.6" stroke-linecap="round" />
<path d="M1111.7061038288512,420.4029850746269 L1267.7924628078144,420.4029850746269" stroke="#1a1a1a" stroke-width="2.6" stroke-linecap="round" />
<path d="M1267.7924628078144,420.4029850746269 L1267.7924628078144,424.8358208955224" stroke="#1a1a1a" stroke-width="2.6" stroke-linecap="round" />
<path d="M1267.7924628078144,420.4029850746269 L1267.7924628078144,415.97014925373134" stroke="#1a1a1a" stroke-width="2.6" stroke-linecap="round" />
<path d="M1111.7061038288512,410.05970149253733 L1330.0,410.05970149253733" stroke="#1a1a1a" stroke-width="2.6" stroke-linecap="round" />
<path d="M1115.7519056521048,469.1641791044776 L1173.63715783718,469.1641791044776" stroke="#1a1a1a" stroke-width="2.0" stroke-dasharray="6,5" stroke-linecap="butt" />
<path d="M1115.7519056521048,478.02985074626866 L1307.0171245640518,478.02985074626866" stroke="#1a1a1a" stroke-width="2.6" stroke-linecap="round" />
<path d="M1307.0171245640518,478.02985074626866 L1307.0171245640518,475.07462686567163" stroke="#1a1a1a" stroke-width="2.6" stroke-linecap="round" />
<path d="M1307.0171245640518,478.02985074626866 L1307.0171245640518,480.9850746268657" stroke="#1a1a1a" stroke-width="2.6" stroke-linecap="round" />
<path d="M1118.0119294135789,209.1044776119403 L1330.0,209.1044776119403" stroke="#1a1a1a" stroke-width="2.6" stroke-linecap="round" />
<path d="M1118.0119294135789,217.97014925373134 L1217.489543526482,217.97014925373134" stroke="#1a1a1a" stroke-width="2.6" stroke-linecap="round" />
<path d="M1217.489543526482,217.97014925373134 L1217.489543526482,215.01492537313433" stroke="#1a1a1a" stroke-width="2.0" stroke-dasharray="6,5" stroke-linecap="butt" />
<path d="M1217.489543526482,217.97014925373134 L1217.489543526482,220.92537313432837" stroke="#1a1a1a" stroke-width="2.6" stroke-linecap="round" />
<path d="M1130.2667919973546,460.2985074626866 L1317.0443343354307,460.2985074626866" stroke="#1a1a1a" stroke-width="2.6" stroke-linecap="round" />
<path d="M1317.0443343354307,460.2985074626866 L1317.0443343354307,457.34328358208955" stroke="#1a1a1a" stroke-width="2.6" stroke-linecap="round" />
<path d="M1317.0443343354307,460.2985074626866 L1317.0443343354307,463.2537313432836" stroke="#1a1a1a" stroke-width="2.6" stroke-linecap="round" />
<path d="M1130.2667919973546,451.43283582089555 L1141.2823187104755,451.43283582089555" stroke="#1a1a1a" stroke-width="2.0" stroke-dasharray="6,5" stroke-linecap="butt" />
<path d="M1158.980702706893,309.5820895522388 L1330.0,309.5820895522388" stroke="#1a1a1a" stroke-width="2.6" stroke-linecap="round" />
<path d="M1158.980702706893,315.4925373134329 L1248.8103833271778,315.4925373134329" stroke="#1a1a1a" stroke-width="2.0" stroke-dasharray="6,5" stroke-linecap="butt" />
<path d="M1170.3141582573592,356.86567164179104 L1330.0,356.86567164179104" stroke="#1a1a1a" stroke-width="2.6" stroke-linecap="round" />
<path d="M1170.3141582573592,365.7313432835821 L1181.8830972592752,365.7313432835821" stroke="#1a1a1a" stroke-width="2.6" stroke-linecap="round" />
<path d="M1181.8830972592752,365.7313432835821 L1181.8830972592752,362.77611940298505" stroke="#1a1a1a" stroke-width="2.6" stroke-linecap="round" />
<path d="M1181.8830972592752,365.7313432835821 L1181.8830972592752,368.6865671641791" stroke="#1a1a1a" stroke-width="2.6" stroke-linecap="round" />
<path d="M1173.5775624171633,507.5820895522388 L1280.4115537390533,507.5820895522388" stroke="#1a1a1a" stroke-width="2.6" stroke-linecap="round" />
<path d="M1280.4115537390533,507.5820895522388 L1280.4115537390533,504.6268656716418" stroke="#1a1a1a" stroke-width="2.6" stroke-linecap="round" />
<path d="M1280.4115537390533,507.5820895522388 L1280.4115537390533,510.53731343283584" stroke="#1a1a1a" stroke-width="2.6" stroke-linecap="round" />
<path d="M1173.5775624171633,498.7164179104478 L1330.0,498.7164179104478" stroke="#1a1a1a" stroke-width="2.6" stroke-linecap="round" />
<path d="M1177.308126679588,338.3955223880597 L1291.0475398727413,338.3955223880597" stroke="#1a1a1a" stroke-width="2.6" stroke-linecap="round" />
<path d="M1291.0475398727413,338.3955223880597 L1291.0475398727413,343.56716417910445" stroke="#1a1a1a" stroke-width="2.6" stroke-linecap="round" />
<path d="M1291.0475398727413,338.3955223880597 L1291.0475398727413,333.22388059701495" stroke="#1a1a1a" stroke-width="2.6" stroke-linecap="round" />
<path d="M1177.308126679588,324.35820895522386 L1318.0019512079696,324.35820895522386" stroke="#1a1a1a" stroke-width="2.6" stroke-linecap="round" />
<path d="M1318.0019512079696,324.35820895522386 L1318.0019512079696,321.4029850746269" stroke="#1a1a1a" stroke-width="2.6" stroke-linecap="round" />
<path d="M1318.0019512079696,324.35820895522386 L1318.0019512079696,327.3134328358209" stroke="#1a1a1a" stroke-width="2.6" stroke-linecap="round" />
<path d="M1181.8830972592752,362.77611940298505 L1330.0,362.77611940298505" stroke="#1a1a1a" stroke-width="2.6" stroke-linecap="round" />
<path d="M1181.8830972592752,368.6865671641791 L1330.0,368.6865671641791" stroke="#1a1a1a" stroke-width="2.6" stroke-linecap="round" />
<path d="M1196.0858427781584,525.3134328358209 L1225.247028894933,525.3134328358209" stroke="#1a1a1a" stroke-width="2.6" stroke-linecap="round" />
<path d="M1225.247028894933,525.3134328358209 L1225.247028894933,522.358208955224" stroke="#1a1a1a" stroke-width="2.6" stroke-linecap="round" />
<path d="M1225.247028894933,525.3134328358209 L1225.247028894933,528.2686567164179" stroke="#1a1a1a" stroke-width="2.0" stroke-dasharray="6,5" stroke-linecap="butt" />
<path d="M1196.0858427781584,538.6119402985075 L1282.9948042041801,538.6119402985075" stroke="#1a1a1a" stroke-width="2.6" stroke-linecap="round" />
<path d="M1282.9948042041801,538.6119402985075 L1282.9948042041801,534.1791044776119" stroke="#1a1a1a" stroke-width="2.6" stroke-linecap="round" />
<path d="M1282.9948042041801,538.6119402985075 L1282.9948042041801,543.044776119403" stroke="#1a1a1a" stroke-width="2.6" stroke-linecap="round" />
<path d="M1204.2701530016586,390.85074626865674 L1258.8549164522515,390.85074626865674" stroke="#1a1a1a" stroke-width="2.6" stroke-linecap="round" />
<path d="M1258.8549164522515,390.85074626865674 L1258.8549164522515,386.4179104477612" stroke="#1a1a1a" stroke-width="2.0" stroke-dasharray="6,5" stroke-linecap="butt" />
<path d="M1258.8549164522515,390.85074626865674 L1258.8549164522515,395.2835820895523" stroke="#1a1a1a" stroke-width="2.6" stroke-linecap="round" />
<path d="M1204.2701530016586,380.5074626865672 L1330.0,380.5074626865672" stroke="#1a1a1a" stroke-width="2.6" stroke-linecap="round" />
<path d="M1217.489543526482,215.01492537313433 L1321.1687755630776,215.01492537313433" stroke="#1a1a1a" stroke-width="2.0" stroke-dasharray="6,5" stroke-linecap="butt" />
<path d="M1217.489543526482,220.92537313432837 L1330.0,220.92537313432837" stroke="#1a1a1a" stroke-width="2.6" stroke-linecap="round" />
<path d="M1225.247028894933,522.358208955224 L1330.0,522.358208955224" stroke="#1a1a1a" stroke-width="2.6" stroke-linecap="round" />
<path d="M1225.247028894933,528.2686567164179 L1316.168454448049,528.2686567164179" stroke="#1a1a1a" stroke-width="2.0" stroke-dasharray="6,5" stroke-linecap="butt" />
<path d="M1251.7638237045696,250.47761194029852 L1330.0,250.47761194029852" stroke="#1a1a1a" stroke-width="2.6" stroke-linecap="round" />
<path d="M1251.7638237045696,260.82089552238807 L1253.2062342645454,260.82089552238807" stroke="#1a1a1a" stroke-width="2.6" stroke-linecap="round" />
<path d="M1253.2062342645454,260.82089552238807 L1253.2062342645454,256.3880597014925" stroke="#1a1a1a" stroke-width="2.6" stroke-linecap="round" />
<path d="M1253.2062342645454,260.82089552238807 L1253.2062342645454,265.25373134328356" stroke="#1a1a1a" stroke-width="2.6" stroke-linecap="round" />
<path d="M1253.2062342645454,256.3880597014925 L1330.0,256.3880597014925" stroke="#1a1a1a" stroke-width="2.6" stroke-linecap="round" />
<path d="M1253.2062342645454,265.25373134328356 L1319.7708263558443,265.25373134328356" stroke="#1a1a1a" stroke-width="2.6" stroke-linecap="round" />
<path d="M1319.7708263558443,265.25373134328356 L1319.7708263558443,262.2985074626866" stroke="#1a1a1a" stroke-width="2.6" stroke-linecap="round" />
<path d="M1319.7708263558443,265.25373134328356 L1319.7708263558443,268.2089552238806" stroke="#1a1a1a" stroke-width="2.6" stroke-linecap="round" />
<path d="M1258.8549164522515,386.4179104477612 L1303.4476597354592,386.4179104477612" stroke="#1a1a1a" stroke-width="2.0" stroke-dasharray="6,5" stroke-linecap="butt" />
<path d="M1258.8549164522515,395.2835820895523 L1307.9770895958754,395.2835820895523" stroke="#1a1a1a" stroke-width="2.6" stroke-linecap="round" />
<path d="M1307.9770895958754,395.2835820895523 L1307.9770895958754,392.32835820895525" stroke="#1a1a1a" stroke-width="2.6" stroke-linecap="round" />
<path d="M1307.9770895958754,395.2835820895523 L1307.9770895958754,398.23880597014926" stroke="#1a1a1a" stroke-width="2.6" stroke-linecap="round" />
<path d="M1267.7924628078144,424.8358208955224 L1325.8958009556857,424.8358208955224" stroke="#1a1a1a" stroke-width="2.6" stroke-linecap="round" />
<path d="M1325.8958009556857,424.8358208955224 L1325.8958009556857,421.8805970149254" stroke="#1a1a1a" stroke-width="2.6" stroke-linecap="round" />
<path d="M1325.8958009556857,424.8358208955224 L1325.8958009556857,427.7910447761194" stroke="#1a1a1a" stroke-width="2.6" stroke-linecap="round" />
<path d="M1267.7924628078144,415.97014925373134 L1330.0,415.97014925373134" stroke="#1a1a1a" stroke-width="2.6" stroke-linecap="round" />
<path d="M1274.2838217190183,486.8955223880597 L1330.0,486.8955223880597" stroke="#1a1a1a" stroke-width="2.6" stroke-linecap="round" />
<path d="M1274.2838217190183,492.80597014925377 L1330.0,492.80597014925377" stroke="#1a1a1a" stroke-width="2.6" stroke-linecap="round" />
<path d="M1280.4115537390533,504.6268656716418 L1330.0,504.6268656716418" stroke="#1a1a1a" stroke-width="2.6" stroke-linecap="round" />
<path d="M1280.4115537390533,510.53731343283584 L1330.0,510.53731343283584" stroke="#1a1a1a" stroke-width="2.6" stroke-linecap="round" />
<path d="M1282.9948042041801,534.1791044776119 L1330.0,534.1791044776119" stroke="#1a1a1a" stroke-width="2.6" stroke-linecap="round" />
<path d="M1282.9948042041801,543.044776119403 L1329.4289650960704,543.044776119403" stroke="#1a1a1a" stroke-width="2.6" stroke-linecap="round" />
<path d="M1329.4289650960704,543.044776119403 L1329.4289650960704,540.0895522388059" stroke="#1a1a1a" stroke-width="2.6" stroke-linecap="round" />
<path d="M1329.4289650960704,543.044776119403 L1329.4289650960704,546.0" stroke="#1a1a1a" stroke-width="2.6" stroke-linecap="round" />
<path d="M1283.6847311243416,238.65671641791045 L1330.0,238.65671641791045" stroke="#1a1a1a" stroke-width="2.6" stroke-linecap="round" />
<path d="M1283.6847311243416,244.56716417910448 L1330.0,244.56716417910448" stroke="#1a1a1a" stroke-width="2.6" stroke-linecap="round" />
<path d="M1291.0475398727413,343.56716417910445 L1307.693287031788,343.56716417910445" stroke="#1a1a1a" stroke-width="2.6" stroke-linecap="round" />
<path d="M1307.693287031788,343.56716417910445 L1307.693287031788,348.0" stroke="#1a1a1a" stroke-width="2.6" stroke-linecap="round" />
<path d="M1307.693287031788,343.56716417910445 L1307.693287031788,339.13432835820896" stroke="#1a1a1a" stroke-width="2.6" stroke-linecap="round" />
<path d="M1291.0475398727413,333.22388059701495 L1330.0,333.22388059701495" stroke="#1a1a1a" stroke-width="2.6" stroke-linecap="round" />
<path d="M1307.0171245640518,475.07462686567163 L1330.0,475.07462686567163" stroke="#1a1a1a" stroke-width="2.6" stroke-linecap="round" />
<path d="M1307.0171245640518,480.9850746268657 L1330.0,480.9850746268657" stroke="#1a1a1a" stroke-width="2.6" stroke-linecap="round" />
<path d="M1307.693287031788,348.0 L1325.600101248428,348.0" stroke="#1a1a1a" stroke-width="2.6" stroke-linecap="round" />
<path d="M1325.600101248428,348.0 L1325.600101248428,345.04477611940297" stroke="#1a1a1a" stroke-width="2.6" stroke-linecap="round" />
<path d="M1325.600101248428,348.0 L1325.600101248428,350.95522388059703" stroke="#1a1a1a" stroke-width="2.6" stroke-linecap="round" />
<path d="M1307.693287031788,339.13432835820896 L1330.0,339.13432835820896" stroke="#1a1a1a" stroke-width="2.6" stroke-linecap="round" />
<path d="M1307.9770895958754,392.32835820895525 L1330.0,392.32835820895525" stroke="#1a1a1a" stroke-width="2.6" stroke-linecap="round" />
<path d="M1307.9770895958754,398.23880597014926 L1330.0,398.23880597014926" stroke="#1a1a1a" stroke-width="2.6" stroke-linecap="round" />
<path d="M1317.0443343354307,457.34328358208955 L1330.0,457.34328358208955" stroke="#1a1a1a" stroke-width="2.6" stroke-linecap="round" />
<path d="M1317.0443343354307,463.2537313432836 L1330.0,463.2537313432836" stroke="#1a1a1a" stroke-width="2.6" stroke-linecap="round" />
<path d="M1318.0019512079696,321.4029850746269 L1330.0,321.4029850746269" stroke="#1a1a1a" stroke-width="2.6" stroke-linecap="round" />
<path d="M1318.0019512079696,327.3134328358209 L1330.0,327.3134328358209" stroke="#1a1a1a" stroke-width="2.6" stroke-linecap="round" />
<path d="M1319.7708263558443,262.2985074626866 L1330.0,262.2985074626866" stroke="#1a1a1a" stroke-width="2.6" stroke-linecap="round" />
<path d="M1319.7708263558443,268.2089552238806 L1330.0,268.2089552238806" stroke="#1a1a1a" stroke-width="2.6" stroke-linecap="round" />
<path d="M1325.600101248428,345.04477611940297 L1330.0,345.04477611940297" stroke="#1a1a1a" stroke-width="2.6" stroke-linecap="round" />
<path d="M1325.600101248428,350.95522388059703 L1330.0,350.95522388059703" stroke="#1a1a1a" stroke-width="2.6" stroke-linecap="round" />
<path d="M1325.8958009556857,421.8805970149254 L1330.0,421.8805970149254" stroke="#1a1a1a" stroke-width="2.6" stroke-linecap="round" />
<path d="M1325.8958009556857,427.7910447761194 L1330.0,427.7910447761194" stroke="#1a1a1a" stroke-width="2.6" stroke-linecap="round" />
<path d="M1329.4289650960704,540.0895522388059 L1330.0,540.0895522388059" stroke="#1a1a1a" stroke-width="2.6" stroke-linecap="round" />
<path d="M1329.4289650960704,546.0 L1330.0,546.0" stroke="#1a1a1a" stroke-width="2.6" stroke-linecap="round" />
<circle cx="719.0" cy="274.11940298507466" r="3.2" fill="#1a1a1a" />
<circle cx="719.0" cy="291.85074626865674" r="3.2" fill="#1a1a1a" />
<circle cx="719.0" cy="297.76119402985074" r="3.2" fill="#1a1a1a" />
<circle cx="719.0" cy="280.02985074626866" r="3.2" fill="#1a1a1a" />
<circle cx="719.0" cy="285.94029850746267" r="3.2" fill="#1a1a1a" />
<circle cx="719.0" cy="161.82089552238807" r="3.2" fill="#1a1a1a" />
<circle cx="719.0" cy="173.6417910447761" r="3.2" fill="#1a1a1a" />
<circle cx="719.0" cy="179.55223880597015" r="3.2" fill="#1a1a1a" />
<circle cx="719.0" cy="185.46268656716418" r="3.2" fill="#1a1a1a" />
<circle cx="719.0" cy="191.37313432835822" r="3.2" fill="#1a1a1a" />
<path d="M44,96 L78,96" stroke="#1a1a1a" stroke-width="2.6" stroke-linecap="round" />
<text x="90" y="96" font-size="22" font-family="Helvetica" text-anchor="start" dominant-baseline="central" fill="#1a1a1a">surviving lineage</text>
<path d="M304,96 L338,96" stroke="#1a1a1a" stroke-width="2.0" stroke-dasharray="6,5" stroke-linecap="butt" />
<text x="350" y="96" font-size="22" font-family="Helvetica" text-anchor="start" dominant-baseline="central" fill="#1a1a1a">extinct lineage</text>
<path d="M108,720 L1330,720" stroke="#bdbdbd" stroke-width="1.2" />
<path d="M108,588 L108,720" stroke="#bdbdbd" stroke-width="1.2" />
<path d="M108.0,720.0 L109.74571428571429,716.8571428571429 L111.49142857142857,716.8571428571429 L113.23714285714286,716.8571428571429 L114.98285714285714,716.8571428571429 L116.72857142857143,716.8571428571429 L118.47428571428571,716.8571428571429 L120.22,716.8571428571429 L121.96571428571428,716.8571428571429 L123.71142857142857,716.8571428571429 L125.45714285714286,716.8571428571429 L127.20285714285714,716.8571428571429 L128.94857142857143,716.8571428571429 L130.6942857142857,716.8571428571429 L132.44,716.8571428571429 L134.18571428571428,713.7142857142857 L135.93142857142857,713.7142857142857 L137.67714285714285,713.7142857142857 L139.42285714285714,713.7142857142857 L141.16857142857143,713.7142857142857 L142.9142857142857,713.7142857142857 L144.66,713.7142857142857 L146.40571428571428,713.7142857142857 L148.15142857142857,713.7142857142857 L149.89714285714285,713.7142857142857 L151.64285714285714,713.7142857142857 L153.38857142857142,713.7142857142857 L155.1342857142857,713.7142857142857 L156.88,713.7142857142857 L158.62571428571428,713.7142857142857 L160.37142857142857,713.7142857142857 L162.11714285714285,713.7142857142857 L163.86285714285714,713.7142857142857 L165.60857142857142,713.7142857142857 L167.3542857142857,713.7142857142857 L169.1,713.7142857142857 L170.84571428571428,713.7142857142857 L172.5914285714286,713.7142857142857 L174.33714285714285,713.7142857142857 L176.08285714285716,713.7142857142857 L177.82857142857142,713.7142857142857 L179.57428571428574,713.7142857142857 L181.32,713.7142857142857 L183.0657142857143,713.7142857142857 L184.81142857142856,710.5714285714286 L186.55714285714288,710.5714285714286 L188.30285714285714,710.5714285714286 L190.04857142857145,710.5714285714286 L191.7942857142857,710.5714285714286 L193.54,710.5714285714286 L195.28571428571428,710.5714285714286 L197.0314285714286,710.5714285714286 L198.77714285714285,710.5714285714286 L200.52285714285713,710.5714285714286 L202.26857142857142,710.5714285714286 L204.0142857142857,710.5714285714286 L205.76,710.5714285714286 L207.5057142857143,710.5714285714286 L209.25142857142856,710.5714285714286 L210.99714285714285,710.5714285714286 L212.74285714285713,710.5714285714286 L214.48857142857145,710.5714285714286 L216.2342857142857,710.5714285714286 L217.98,710.5714285714286 L219.72571428571428,710.5714285714286 L221.4714285714286,710.5714285714286 L223.21714285714285,710.5714285714286 L224.96285714285716,710.5714285714286 L226.70857142857142,710.5714285714286 L228.45428571428573,710.5714285714286 L230.2,710.5714285714286 L231.94571428571427,710.5714285714286 L233.69142857142856,710.5714285714286 L235.43714285714287,710.5714285714286 L237.18285714285716,710.5714285714286 L238.92857142857142,710.5714285714286 L240.6742857142857,710.5714285714286 L242.42000000000002,710.5714285714286 L244.1657142857143,710.5714285714286 L245.91142857142856,710.5714285714286 L247.65714285714284,710.5714285714286 L249.40285714285716,710.5714285714286 L251.14857142857144,710.5714285714286 L252.89428571428573,710.5714285714286 L254.64,710.5714285714286 L256.38571428571424,710.5714285714286 L258.1314285714286,710.5714285714286 L259.87714285714287,710.5714285714286 L261.62285714285713,710.5714285714286 L263.3685714285714,710.5714285714286 L265.11428571428576,710.5714285714286 L266.86,710.5714285714286 L268.60571428571427,710.5714285714286 L270.3514285714285,710.5714285714286 L272.0971428571429,707.4285714285714 L273.84285714285716,707.4285714285714 L275.5885714285714,707.4285714285714 L277.33428571428567,707.4285714285714 L279.08,707.4285714285714 L280.8257142857143,704.2857142857143 L282.57142857142856,704.2857142857143 L284.31714285714287,704.2857142857143 L286.0628571428572,704.2857142857143 L287.80857142857144,704.2857142857143 L289.5542857142857,704.2857142857143 L291.29999999999995,704.2857142857143 L293.04571428571427,704.2857142857143 L294.7914285714286,704.2857142857143 L296.53714285714284,704.2857142857143 L298.28285714285715,704.2857142857143 L300.0285714285714,704.2857142857143 L301.7742857142857,704.2857142857143 L303.52,704.2857142857143 L305.26571428571424,704.2857142857143 L307.0114285714286,704.2857142857143 L308.75714285714287,704.2857142857143 L310.5028571428571,704.2857142857143 L312.24857142857144,704.2857142857143 L313.9942857142857,704.2857142857143 L315.74,704.2857142857143 L317.48571428571427,704.2857142857143 L319.2314285714286,704.2857142857143 L320.9771428571429,704.2857142857143 L322.72285714285715,704.2857142857143 L324.4685714285714,704.2857142857143 L326.2142857142857,704.2857142857143 L327.96,704.2857142857143 L329.7057142857143,704.2857142857143 L331.45142857142855,704.2857142857143 L333.1971428571428,704.2857142857143 L334.9428571428572,704.2857142857143 L336.68857142857144,704.2857142857143 L338.4342857142857,704.2857142857143 L340.18,704.2857142857143 L341.9257142857143,704.2857142857143 L343.6714285714286,704.2857142857143 L345.41714285714284,704.2857142857143 L347.1628571428571,704.2857142857143 L348.90857142857146,704.2857142857143 L350.6542857142857,704.2857142857143 L352.4,701.1428571428571 L354.1457142857143,701.1428571428571 L355.89142857142855,701.1428571428571 L357.63714285714286,701.1428571428571 L359.3828571428571,701.1428571428571 L361.12857142857143,701.1428571428571 L362.87428571428575,701.1428571428571 L364.62,701.1428571428571 L366.3657142857143,701.1428571428571 L368.1114285714286,701.1428571428571 L369.85714285714283,701.1428571428571 L371.6028571428571,701.1428571428571 L373.3485714285714,701.1428571428571 L375.0942857142857,701.1428571428571 L376.84000000000003,701.1428571428571 L378.5857142857143,701.1428571428571 L380.3314285714286,701.1428571428571 L382.07714285714286,698.0 L383.8228571428571,698.0 L385.56857142857143,698.0 L387.3142857142857,698.0 L389.06,698.0 L390.8057142857143,698.0 L392.5514285714286,698.0 L394.2971428571429,698.0 L396.04285714285714,698.0 L397.78857142857146,698.0 L399.5342857142857,698.0 L401.28,698.0 L403.0257142857143,698.0 L404.77142857142854,698.0 L406.51714285714286,698.0 L408.2628571428572,698.0 L410.00857142857143,698.0 L411.75428571428574,698.0 L413.5,698.0 L415.2457142857143,698.0 L416.99142857142857,698.0 L418.7371428571428,698.0 L420.4828571428571,698.0 L422.22857142857146,698.0 L423.9742857142857,698.0 L425.72,698.0 L427.46571428571434,698.0 L429.21142857142854,698.0 L430.95714285714286,698.0 L432.7028571428571,698.0 L434.4485714285714,698.0 L436.19428571428574,698.0 L437.94,698.0 L439.6857142857143,698.0 L441.43142857142857,698.0 L443.1771428571429,698.0 L444.92285714285714,698.0 L446.6685714285714,698.0 L448.4142857142857,698.0 L450.15999999999997,698.0 L451.90571428571434,698.0 L453.6514285714286,698.0 L455.3971428571429,698.0 L457.1428571428571,698.0 L458.8885714285714,698.0 L460.63428571428574,701.1428571428571 L462.38,701.1428571428571 L464.1257142857143,701.1428571428571 L465.8714285714285,701.1428571428571 L467.6171428571429,701.1428571428571 L469.36285714285714,701.1428571428571 L471.10857142857145,701.1428571428571 L472.85428571428577,701.1428571428571 L474.59999999999997,701.1428571428571 L476.3457142857143,701.1428571428571 L478.09142857142854,701.1428571428571 L479.83714285714285,701.1428571428571 L481.58285714285716,701.1428571428571 L483.3285714285715,701.1428571428571 L485.07428571428574,701.1428571428571 L486.82,701.1428571428571 L488.5657142857143,701.1428571428571 L490.31142857142856,701.1428571428571 L492.0571428571428,701.1428571428571 L493.80285714285714,701.1428571428571 L495.5485714285714,701.1428571428571 L497.2942857142857,701.1428571428571 L499.04,701.1428571428571 L500.78571428571433,701.1428571428571 L502.53142857142853,701.1428571428571 L504.27714285714285,701.1428571428571 L506.02285714285716,701.1428571428571 L507.7685714285714,701.1428571428571 L509.51428571428573,701.1428571428571 L511.25999999999993,701.1428571428571 L513.0057142857142,701.1428571428571 L514.7514285714285,701.1428571428571 L516.4971428571429,701.1428571428571 L518.2428571428572,701.1428571428571 L519.9885714285714,701.1428571428571 L521.7342857142858,701.1428571428571 L523.48,701.1428571428571 L525.2257142857143,701.1428571428571 L526.9714285714285,701.1428571428571 L528.7171428571429,701.1428571428571 L530.4628571428572,701.1428571428571 L532.2085714285714,701.1428571428571 L533.9542857142858,701.1428571428571 L535.7,701.1428571428571 L537.4457142857143,701.1428571428571 L539.1914285714286,701.1428571428571 L540.9371428571428,701.1428571428571 L542.6828571428571,701.1428571428571 L544.4285714285714,701.1428571428571 L546.1742857142858,701.1428571428571 L547.92,701.1428571428571 L549.6657142857143,701.1428571428571 L551.4114285714286,701.1428571428571 L553.1571428571428,698.0 L554.9028571428571,694.8571428571429 L556.6485714285714,694.8571428571429 L558.3942857142856,694.8571428571429 L560.14,694.8571428571429 L561.8857142857144,694.8571428571429 L563.6314285714286,694.8571428571429 L565.3771428571429,694.8571428571429 L567.1228571428571,694.8571428571429 L568.8685714285714,694.8571428571429 L570.6142857142856,694.8571428571429 L572.36,694.8571428571429 L574.1057142857144,694.8571428571429 L575.8514285714286,694.8571428571429 L577.5971428571429,694.8571428571429 L579.3428571428572,694.8571428571429 L581.0885714285714,694.8571428571429 L582.8342857142857,694.8571428571429 L584.58,694.8571428571429 L586.3257142857142,694.8571428571429 L588.0714285714286,694.8571428571429 L589.8171428571429,694.8571428571429 L591.5628571428572,694.8571428571429 L593.3085714285714,694.8571428571429 L595.0542857142857,694.8571428571429 L596.8,694.8571428571429 L598.5457142857142,694.8571428571429 L600.2914285714286,691.7142857142857 L602.0371428571428,691.7142857142857 L603.7828571428571,691.7142857142857 L605.5285714285715,691.7142857142857 L607.2742857142857,691.7142857142857 L609.02,691.7142857142857 L610.7657142857142,691.7142857142857 L612.5114285714287,691.7142857142857 L614.2571428571429,691.7142857142857 L616.0028571428572,691.7142857142857 L617.7485714285715,691.7142857142857 L619.4942857142858,691.7142857142857 L621.24,691.7142857142857 L622.9857142857143,691.7142857142857 L624.7314285714286,688.5714285714286 L626.4771428571428,688.5714285714286 L628.2228571428572,688.5714285714286 L629.9685714285714,688.5714285714286 L631.7142857142857,688.5714285714286 L633.46,688.5714285714286 L635.2057142857142,688.5714285714286 L636.9514285714286,688.5714285714286 L638.6971428571428,688.5714285714286 L640.4428571428571,688.5714285714286 L642.1885714285714,688.5714285714286 L643.9342857142858,688.5714285714286 L645.6800000000001,688.5714285714286 L647.4257142857143,685.4285714285714 L649.1714285714286,685.4285714285714 L650.9171428571428,688.5714285714286 L652.6628571428572,688.5714285714286 L654.4085714285715,688.5714285714286 L656.1542857142857,688.5714285714286 L657.9,688.5714285714286 L659.6457142857142,688.5714285714286 L661.3914285714286,688.5714285714286 L663.1371428571429,688.5714285714286 L664.8828571428571,688.5714285714286 L666.6285714285714,688.5714285714286 L668.3742857142856,688.5714285714286 L670.12,688.5714285714286 L671.8657142857143,688.5714285714286 L673.6114285714286,688.5714285714286 L675.3571428571429,688.5714285714286 L677.1028571428571,688.5714285714286 L678.8485714285715,685.4285714285714 L680.5942857142858,685.4285714285714 L682.34,685.4285714285714 L684.0857142857143,685.4285714285714 L685.8314285714285,685.4285714285714 L687.5771428571429,685.4285714285714 L689.3228571428572,685.4285714285714 L691.0685714285714,682.2857142857143 L692.8142857142857,682.2857142857143 L694.56,682.2857142857143 L696.3057142857143,682.2857142857143 L698.0514285714286,682.2857142857143 L699.7971428571428,682.2857142857143 L701.5428571428571,682.2857142857143 L703.2885714285713,682.2857142857143 L705.0342857142857,682.2857142857143 L706.7800000000001,682.2857142857143 L708.5257142857143,679.1428571428571 L710.2714285714286,679.1428571428571 L712.0171428571429,679.1428571428571 L713.7628571428571,679.1428571428571 L715.5085714285715,679.1428571428571 L717.2542857142857,679.1428571428571 L719.0,679.1428571428571 L720.7457142857143,710.5714285714286 L722.4914285714286,710.5714285714286 L724.2371428571428,710.5714285714286 L725.9828571428571,710.5714285714286 L727.7285714285714,710.5714285714286 L729.4742857142857,710.5714285714286 L731.22,710.5714285714286 L732.9657142857142,710.5714285714286 L734.7114285714287,710.5714285714286 L736.4571428571429,710.5714285714286 L738.2028571428573,710.5714285714286 L739.9485714285714,710.5714285714286 L741.6942857142857,710.5714285714286 L743.44,710.5714285714286 L745.1857142857143,713.7142857142857 L746.9314285714287,713.7142857142857 L748.6771428571428,713.7142857142857 L750.4228571428571,713.7142857142857 L752.1685714285715,713.7142857142857 L753.9142857142857,713.7142857142857 L755.6600000000001,713.7142857142857 L757.4057142857142,713.7142857142857 L759.1514285714285,713.7142857142857 L760.8971428571429,713.7142857142857 L762.6428571428571,713.7142857142857 L764.3885714285715,713.7142857142857 L766.1342857142857,713.7142857142857 L767.88,713.7142857142857 L769.6257142857144,713.7142857142857 L771.3714285714286,713.7142857142857 L773.1171428571429,713.7142857142857 L774.8628571428571,713.7142857142857 L776.6085714285714,713.7142857142857 L778.3542857142858,713.7142857142857 L780.1,710.5714285714286 L781.8457142857143,710.5714285714286 L783.5914285714285,710.5714285714286 L785.3371428571428,710.5714285714286 L787.0828571428572,710.5714285714286 L788.8285714285714,710.5714285714286 L790.5742857142857,710.5714285714286 L792.3199999999999,710.5714285714286 L794.0657142857142,710.5714285714286 L795.8114285714287,710.5714285714286 L797.5571428571428,710.5714285714286 L799.3028571428572,710.5714285714286 L801.0485714285714,710.5714285714286 L802.7942857142858,710.5714285714286 L804.5400000000001,710.5714285714286 L806.2857142857142,710.5714285714286 L808.0314285714286,707.4285714285714 L809.7771428571428,707.4285714285714 L811.5228571428572,707.4285714285714 L813.2685714285715,704.2857142857143 L815.0142857142856,701.1428571428571 L816.76,701.1428571428571 L818.5057142857142,701.1428571428571 L820.2514285714286,701.1428571428571 L821.9971428571429,701.1428571428571 L823.742857142857,701.1428571428571 L825.4885714285714,701.1428571428571 L827.2342857142858,701.1428571428571 L828.9800000000001,698.0 L830.7257142857143,698.0 L832.4714285714285,698.0 L834.2171428571429,694.8571428571429 L835.9628571428572,694.8571428571429 L837.7085714285715,694.8571428571429 L839.4542857142857,694.8571428571429 L841.1999999999999,694.8571428571429 L842.9457142857143,694.8571428571429 L844.6914285714286,694.8571428571429 L846.4371428571429,694.8571428571429 L848.1828571428571,694.8571428571429 L849.9285714285713,694.8571428571429 L851.6742857142857,694.8571428571429 L853.42,694.8571428571429 L855.1657142857143,694.8571428571429 L856.9114285714286,694.8571428571429 L858.657142857143,694.8571428571429 L860.4028571428572,694.8571428571429 L862.1485714285715,694.8571428571429 L863.8942857142857,691.7142857142857 L865.64,691.7142857142857 L867.3857142857144,691.7142857142857 L869.1314285714286,691.7142857142857 L870.8771428571429,691.7142857142857 L872.6228571428571,691.7142857142857 L874.3685714285714,691.7142857142857 L876.1142857142856,688.5714285714286 L877.86,688.5714285714286 L879.6057142857143,688.5714285714286 L881.3514285714285,688.5714285714286 L883.0971428571428,688.5714285714286 L884.842857142857,688.5714285714286 L886.5885714285714,688.5714285714286 L888.3342857142857,688.5714285714286 L890.08,688.5714285714286 L891.8257142857143,688.5714285714286 L893.5714285714287,688.5714285714286 L895.3171428571429,688.5714285714286 L897.0628571428571,688.5714285714286 L898.8085714285714,688.5714285714286 L900.5542857142857,688.5714285714286 L902.3000000000001,688.5714285714286 L904.0457142857143,688.5714285714286 L905.7914285714285,688.5714285714286 L907.5371428571428,688.5714285714286 L909.2828571428571,688.5714285714286 L911.0285714285715,688.5714285714286 L912.7742857142857,688.5714285714286 L914.5199999999999,688.5714285714286 L916.2657142857142,688.5714285714286 L918.0114285714286,688.5714285714286 L919.757142857143,688.5714285714286 L921.5028571428571,688.5714285714286 L923.2485714285714,682.2857142857143 L924.9942857142858,682.2857142857143 L926.74,682.2857142857143 L928.4857142857144,682.2857142857143 L930.2314285714285,679.1428571428571 L931.9771428571428,679.1428571428571 L933.7228571428572,682.2857142857143 L935.4685714285714,682.2857142857143 L937.2142857142858,682.2857142857143 L938.9599999999999,682.2857142857143 L940.7057142857142,682.2857142857143 L942.4514285714286,682.2857142857143 L944.1971428571428,679.1428571428571 L945.9428571428572,679.1428571428571 L947.6885714285713,679.1428571428571 L949.4342857142858,679.1428571428571 L951.1800000000001,679.1428571428571 L952.9257142857143,679.1428571428571 L954.6714285714286,679.1428571428571 L956.4171428571428,679.1428571428571 L958.1628571428572,679.1428571428571 L959.9085714285715,679.1428571428571 L961.6542857142857,676.0 L963.4,676.0 L965.1457142857142,676.0 L966.8914285714286,676.0 L968.6371428571429,676.0 L970.3828571428571,676.0 L972.1285714285714,672.8571428571429 L973.8742857142856,672.8571428571429 L975.62,672.8571428571429 L977.3657142857143,672.8571428571429 L979.1114285714285,672.8571428571429 L980.8571428571429,672.8571428571429 L982.6028571428571,669.7142857142857 L984.3485714285715,669.7142857142857 L986.0942857142858,669.7142857142857 L987.8399999999999,669.7142857142857 L989.5857142857143,669.7142857142857 L991.3314285714285,669.7142857142857 L993.0771428571429,669.7142857142857 L994.8228571428572,669.7142857142857 L996.5685714285713,669.7142857142857 L998.3142857142857,669.7142857142857 L1000.06,669.7142857142857 L1001.8057142857143,666.5714285714286 L1003.5514285714286,666.5714285714286 L1005.2971428571427,666.5714285714286 L1007.0428571428571,666.5714285714286 L1008.7885714285713,666.5714285714286 L1010.5342857142858,666.5714285714286 L1012.28,666.5714285714286 L1014.0257142857143,666.5714285714286 L1015.7714285714286,666.5714285714286 L1017.5171428571429,666.5714285714286 L1019.2628571428572,666.5714285714286 L1021.0085714285714,666.5714285714286 L1022.7542857142857,666.5714285714286 L1024.5,666.5714285714286 L1026.2457142857143,666.5714285714286 L1027.9914285714285,666.5714285714286 L1029.7371428571428,666.5714285714286 L1031.482857142857,666.5714285714286 L1033.2285714285713,666.5714285714286 L1034.9742857142855,666.5714285714286 L1036.72,666.5714285714286 L1038.465714285714,666.5714285714286 L1040.2114285714288,666.5714285714286 L1041.957142857143,666.5714285714286 L1043.7028571428573,666.5714285714286 L1045.4485714285715,666.5714285714286 L1047.1942857142858,666.5714285714286 L1048.94,666.5714285714286 L1050.6857142857143,666.5714285714286 L1052.4314285714286,666.5714285714286 L1054.1771428571428,666.5714285714286 L1055.922857142857,666.5714285714286 L1057.6685714285713,666.5714285714286 L1059.4142857142856,666.5714285714286 L1061.16,666.5714285714286 L1062.905714285714,666.5714285714286 L1064.6514285714284,666.5714285714286 L1066.3971428571429,666.5714285714286 L1068.142857142857,663.4285714285714 L1069.8885714285716,663.4285714285714 L1071.6342857142859,660.2857142857143 L1073.38,660.2857142857143 L1075.1257142857144,660.2857142857143 L1076.8714285714286,660.2857142857143 L1078.6171428571429,660.2857142857143 L1080.3628571428571,660.2857142857143 L1082.1085714285714,657.1428571428571 L1083.8542857142857,657.1428571428571 L1085.6,657.1428571428571 L1087.3457142857142,657.1428571428571 L1089.0914285714284,657.1428571428571 L1090.8371428571427,657.1428571428571 L1092.5828571428572,657.1428571428571 L1094.3285714285714,657.1428571428571 L1096.0742857142857,657.1428571428571 L1097.82,657.1428571428571 L1099.5657142857142,657.1428571428571 L1101.3114285714287,657.1428571428571 L1103.057142857143,657.1428571428571 L1104.802857142857,657.1428571428571 L1106.5485714285714,657.1428571428571 L1108.2942857142857,657.1428571428571 L1110.04,654.0 L1111.7857142857142,650.8571428571429 L1113.5314285714285,650.8571428571429 L1115.2771428571427,650.8571428571429 L1117.0228571428574,647.7142857142857 L1118.7685714285715,644.5714285714286 L1120.5142857142857,644.5714285714286 L1122.2600000000002,644.5714285714286 L1124.0057142857145,644.5714285714286 L1125.7514285714287,644.5714285714286 L1127.497142857143,644.5714285714286 L1129.2428571428572,644.5714285714286 L1130.9885714285715,641.4285714285714 L1132.7342857142858,641.4285714285714 L1134.48,641.4285714285714 L1136.2257142857143,641.4285714285714 L1137.9714285714285,641.4285714285714 L1139.7171428571428,644.5714285714286 L1141.4628571428573,647.7142857142857 L1143.2085714285715,647.7142857142857 L1144.9542857142856,647.7142857142857 L1146.7,647.7142857142857 L1148.4457142857143,647.7142857142857 L1150.1914285714286,647.7142857142857 L1151.9371428571428,647.7142857142857 L1153.682857142857,647.7142857142857 L1155.4285714285713,647.7142857142857 L1157.1742857142856,647.7142857142857 L1158.92,647.7142857142857 L1160.6657142857143,644.5714285714286 L1162.4114285714284,644.5714285714286 L1164.1571428571428,644.5714285714286 L1165.902857142857,644.5714285714286 L1167.6485714285714,644.5714285714286 L1169.3942857142856,644.5714285714286 L1171.1399999999999,641.4285714285714 L1172.8857142857141,641.4285714285714 L1174.6314285714284,641.4285714285714 L1176.3771428571429,641.4285714285714 L1178.1228571428571,638.2857142857142 L1179.8685714285716,638.2857142857142 L1181.6142857142859,638.2857142857142 L1183.3600000000001,635.1428571428571 L1185.1057142857144,635.1428571428571 L1186.8514285714286,635.1428571428571 L1188.597142857143,635.1428571428571 L1190.3428571428572,635.1428571428571 L1192.0885714285716,635.1428571428571 L1193.8342857142857,635.1428571428571 L1195.58,638.2857142857142 L1197.3257142857144,635.1428571428571 L1199.0714285714287,635.1428571428571 L1200.817142857143,635.1428571428571 L1202.5628571428572,635.1428571428571 L1204.3085714285714,632.0 L1206.0542857142857,632.0 L1207.8,632.0 L1209.5457142857144,632.0 L1211.2914285714285,632.0 L1213.0371428571427,632.0 L1214.7828571428572,632.0 L1216.5285714285715,632.0 L1218.2742857142857,628.8571428571429 L1220.02,628.8571428571429 L1221.7657142857142,628.8571428571429 L1223.5114285714285,628.8571428571429 L1225.2571428571428,628.8571428571429 L1227.0028571428572,628.8571428571429 L1228.7485714285713,628.8571428571429 L1230.4942857142855,628.8571428571429 L1232.24,628.8571428571429 L1233.9857142857143,628.8571428571429 L1235.7314285714285,628.8571428571429 L1237.4771428571428,628.8571428571429 L1239.2228571428573,628.8571428571429 L1240.9685714285715,628.8571428571429 L1242.7142857142858,628.8571428571429 L1244.46,628.8571428571429 L1246.2057142857143,628.8571428571429 L1247.9514285714288,628.8571428571429 L1249.697142857143,632.0 L1251.442857142857,632.0 L1253.1885714285715,628.8571428571429 L1254.9342857142858,625.7142857142857 L1256.68,625.7142857142857 L1258.4257142857143,625.7142857142857 L1260.1714285714286,622.5714285714286 L1261.9171428571428,622.5714285714286 L1263.662857142857,622.5714285714286 L1265.4085714285716,622.5714285714286 L1267.1542857142858,622.5714285714286 L1268.8999999999999,619.4285714285714 L1270.6457142857143,619.4285714285714 L1272.3914285714286,619.4285714285714 L1274.1371428571429,619.4285714285714 L1275.8828571428571,616.2857142857143 L1277.6285714285714,616.2857142857143 L1279.3742857142856,616.2857142857143 L1281.12,613.1428571428571 L1282.8657142857144,613.1428571428571 L1284.6114285714286,606.8571428571429 L1286.3571428571427,606.8571428571429 L1288.1028571428571,606.8571428571429 L1289.8485714285714,606.8571428571429 L1291.5942857142857,603.7142857142858 L1293.34,603.7142857142858 L1295.0857142857142,603.7142857142858 L1296.8314285714284,603.7142857142858 L1298.5771428571427,603.7142857142858 L1300.3228571428572,603.7142857142858 L1302.0685714285714,603.7142857142858 L1303.814285714286,606.8571428571429 L1305.5600000000002,606.8571428571429 L1307.3057142857144,603.7142857142858 L1309.0514285714287,597.4285714285714 L1310.797142857143,597.4285714285714 L1312.5428571428572,597.4285714285714 L1314.2885714285715,597.4285714285714 L1316.0342857142857,597.4285714285714 L1317.78,597.4285714285714 L1319.5257142857142,594.2857142857143 L1321.2714285714287,594.2857142857143 L1323.017142857143,594.2857142857143 L1324.7628571428572,594.2857142857143 L1326.5085714285715,588.0 L1328.2542857142857,588.0 L1330.0,588.0" fill="none" stroke="#1a1a1a" stroke-width="2.8" stroke-linejoin="round" />
<text x="96" y="720.0" font-size="22" font-family="Helvetica" text-anchor="end" dominant-baseline="central" fill="#8a8a8a">0</text>
<text x="96" y="588.0" font-size="22" font-family="Helvetica" text-anchor="end" dominant-baseline="central" fill="#8a8a8a">42</text>
<text x="62" y="654.0" font-size="22" font-family="Helvetica" text-anchor="middle" fill="#8a8a8a" transform="rotate(-90 62 654.0)">lineages</text>
<text x="735.0" y="612" font-size="22" font-family="Helvetica" text-anchor="start" fill="#8a8a8a" font-style="italic">mass extinction</text>
<path d="M108.0,720 L108.0,726" stroke="#1a1a1a" stroke-width="1.2" />
<text x="108.0" y="746" font-size="22" font-family="Helvetica" text-anchor="middle" fill="#8a8a8a">0</text>
<path d="M352.4,720 L352.4,726" stroke="#1a1a1a" stroke-width="1.2" />
<text x="352.4" y="746" font-size="22" font-family="Helvetica" text-anchor="middle" fill="#8a8a8a">1</text>
<path d="M596.8,720 L596.8,726" stroke="#1a1a1a" stroke-width="1.2" />
<text x="596.8" y="746" font-size="22" font-family="Helvetica" text-anchor="middle" fill="#8a8a8a">2</text>
<path d="M841.1999999999999,720 L841.1999999999999,726" stroke="#1a1a1a" stroke-width="1.2" />
<text x="841.1999999999999" y="746" font-size="22" font-family="Helvetica" text-anchor="middle" fill="#8a8a8a">3</text>
<path d="M1085.6,720 L1085.6,726" stroke="#1a1a1a" stroke-width="1.2" />
<text x="1085.6" y="746" font-size="22" font-family="Helvetica" text-anchor="middle" fill="#8a8a8a">4</text>
<path d="M1330.0,720 L1330.0,726" stroke="#1a1a1a" stroke-width="1.2" />
<text x="1330.0" y="746" font-size="22" font-family="Helvetica" text-anchor="middle" fill="#8a8a8a">5</text>
<text x="719.0" y="776" font-size="22" font-family="Helvetica" text-anchor="middle" fill="#8a8a8a">time (origin to present)</text>
</svg>