<?xml version="1.0" encoding="UTF-8"?>
<svg xmlns="http://www.w3.org/2000/svg" xmlns:xlink="http://www.w3.org/1999/xlink"
     width="1040" height="560" viewBox="0 0 1040 560">
<defs>
</defs>
<rect x="0" y="0" width="1040" height="560" fill="white" />
<text x="138" y="103.0" font-size="13" font-family="Helvetica" text-anchor="end" dominant-baseline="middle" fill="#1a1a1a">start</text>
<text x="138" y="275.0" font-size="13" font-family="Helvetica" text-anchor="end" dominant-baseline="middle" fill="#1a1a1a">after inversion</text>
<text x="138" y="447.0" font-size="13" font-family="Helvetica" text-anchor="end" dominant-baseline="middle" fill="#1a1a1a">after inversion</text>
<text x="138" y="462.0" font-size="13" font-family="Helvetica" text-anchor="end" dominant-baseline="middle" fill="#1a1a1a">+ duplication</text>
<rect x="150.0" y="96" width="7.817391304347826" height="30" fill="#272727" />
<rect x="157.2173913043478" y="96" width="7.817391304347826" height="30" fill="#292929" />
<rect x="164.43478260869566" y="96" width="7.817391304347826" height="30" fill="#2b2b2b" />
<rect x="171.65217391304347" y="96" width="7.817391304347826" height="30" fill="#2d2d2d" />
<rect x="178.8695652173913" y="96" width="7.817391304347826" height="30" fill="#2f2f2f" />
<rect x="186.08695652173913" y="96" width="7.817391304347826" height="30" fill="#313131" />
<rect x="193.30434782608694" y="96" width="7.817391304347826" height="30" fill="#323232" />
<rect x="200.52173913043478" y="96" width="7.817391304347826" height="30" fill="#343434" />
<rect x="207.73913043478262" y="96" width="7.817391304347826" height="30" fill="#363636" />
<rect x="214.95652173913044" y="96" width="7.817391304347826" height="30" fill="#383838" />
<rect x="222.17391304347825" y="96" width="7.817391304347826" height="30" fill="#3a3a3a" />
<rect x="229.3913043478261" y="96" width="7.817391304347826" height="30" fill="#3c3c3c" />
<rect x="236.6086956521739" y="96" width="7.817391304347826" height="30" fill="#3e3e3e" />
<rect x="243.82608695652175" y="96" width="7.817391304347826" height="30" fill="#404040" />
<rect x="251.04347826086956" y="96" width="7.817391304347826" height="30" fill="#424242" />
<rect x="258.2608695652174" y="96" width="7.817391304347826" height="30" fill="#444444" />
<rect x="265.47826086956525" y="96" width="7.817391304347826" height="30" fill="#464646" />
<rect x="272.69565217391306" y="96" width="7.817391304347826" height="30" fill="#484848" />
<rect x="279.9130434782609" y="96" width="7.817391304347826" height="30" fill="#4a4a4a" />
<rect x="287.1304347826087" y="96" width="7.817391304347826" height="30" fill="#4b4b4b" />
<rect x="294.3478260869565" y="96" width="7.817391304347826" height="30" fill="#4d4d4d" />
<rect x="301.5652173913044" y="96" width="7.817391304347826" height="30" fill="#4f4f4f" />
<rect x="308.7826086956522" y="96" width="7.817391304347826" height="30" fill="#515151" />
<rect x="316.0" y="96" width="7.817391304347826" height="30" fill="#535353" />
<rect x="323.2173913043478" y="96" width="7.817391304347826" height="30" fill="#555555" />
<rect x="330.4347826086956" y="96" width="7.817391304347826" height="30" fill="#575757" />
<rect x="337.6521739130435" y="96" width="7.817391304347826" height="30" fill="#595959" />
<rect x="344.8695652173913" y="96" width="7.817391304347826" height="30" fill="#5b5b5b" />
<rect x="352.0869565217391" y="96" width="7.817391304347826" height="30" fill="#5d5d5d" />
<rect x="359.304347826087" y="96" width="7.817391304347826" height="30" fill="#5f5f5f" />
<rect x="366.52173913043475" y="96" width="7.817391304347826" height="30" fill="#616161" />
<rect x="373.7391304347826" y="96" width="7.817391304347826" height="30" fill="#626262" />
<rect x="380.95652173913044" y="96" width="7.817391304347826" height="30" fill="#646464" />
<rect x="388.17391304347825" y="96" width="7.817391304347826" height="30" fill="#666666" />
<rect x="395.3913043478261" y="96" width="7.817391304347826" height="30" fill="#686868" />
<rect x="402.6086956521739" y="96" width="7.817391304347826" height="30" fill="#6a6a6a" />
<rect x="409.82608695652175" y="96" width="7.817391304347826" height="30" fill="#6c6c6c" />
<rect x="417.04347826086956" y="96" width="7.817391304347826" height="30" fill="#6e6e6e" />
<rect x="424.2608695652174" y="96" width="7.817391304347826" height="30" fill="#707070" />
<rect x="431.4782608695652" y="96" width="7.817391304347826" height="30" fill="#727272" />
<rect x="438.69565217391306" y="96" width="7.817391304347826" height="30" fill="#747474" />
<rect x="445.9130434782609" y="96" width="7.817391304347826" height="30" fill="#767676" />
<rect x="453.1304347826087" y="96" width="7.817391304347826" height="30" fill="#787878" />
<rect x="460.3478260869565" y="96" width="7.817391304347826" height="30" fill="#7a7a7a" />
<rect x="467.5652173913044" y="96" width="7.817391304347826" height="30" fill="#7b7b7b" />
<rect x="474.7826086956522" y="96" width="7.817391304347826" height="30" fill="#7d7d7d" />
<rect x="482.0" y="96" width="7.817391304347826" height="30" fill="#7f7f7f" />
<rect x="489.2173913043478" y="96" width="7.817391304347826" height="30" fill="#818181" />
<rect x="496.4347826086956" y="96" width="7.817391304347826" height="30" fill="#838383" />
<rect x="503.6521739130435" y="96" width="7.817391304347826" height="30" fill="#858585" />
<rect x="510.8695652173913" y="96" width="7.817391304347826" height="30" fill="#878787" />
<rect x="518.0869565217391" y="96" width="7.817391304347826" height="30" fill="#898989" />
<rect x="525.304347826087" y="96" width="7.817391304347826" height="30" fill="#8b8b8b" />
<rect x="532.5217391304348" y="96" width="7.817391304347826" height="30" fill="#8d8d8d" />
<rect x="539.7391304347826" y="96" width="7.817391304347826" height="30" fill="#8f8f8f" />
<rect x="546.9565217391305" y="96" width="7.817391304347826" height="30" fill="#919191" />
<rect x="554.1739130434783" y="96" width="7.817391304347826" height="30" fill="#929292" />
<rect x="561.391304347826" y="96" width="7.817391304347826" height="30" fill="#949494" />
<rect x="568.608695652174" y="96" width="7.817391304347826" height="30" fill="#969696" />
<rect x="575.8260869565217" y="96" width="7.817391304347826" height="30" fill="#989898" />
<rect x="583.0434782608695" y="96" width="7.817391304347826" height="30" fill="#9a9a9a" />
<rect x="590.2608695652174" y="96" width="7.817391304347826" height="30" fill="#9c9c9c" />
<rect x="597.4782608695652" y="96" width="7.817391304347826" height="30" fill="#9e9e9e" />
<rect x="604.695652173913" y="96" width="7.817391304347826" height="30" fill="#a0a0a0" />
<rect x="611.9130434782609" y="96" width="7.817391304347826" height="30" fill="#a2a2a2" />
<rect x="619.1304347826087" y="96" width="7.817391304347826" height="30" fill="#a4a4a4" />
<rect x="626.3478260869565" y="96" width="7.817391304347826" height="30" fill="#a6a6a6" />
<rect x="633.5652173913044" y="96" width="7.817391304347826" height="30" fill="#a8a8a8" />
<rect x="640.7826086956522" y="96" width="7.817391304347826" height="30" fill="#aaaaaa" />
<rect x="648.0" y="96" width="7.817391304347826" height="30" fill="#ababab" />
<rect x="655.2173913043478" y="96" width="7.817391304347826" height="30" fill="#adadad" />
<rect x="662.4347826086956" y="96" width="7.817391304347826" height="30" fill="#afafaf" />
<rect x="669.6521739130435" y="96" width="7.817391304347826" height="30" fill="#b1b1b1" />
<rect x="676.8695652173913" y="96" width="7.817391304347826" height="30" fill="#b3b3b3" />
<rect x="684.0869565217391" y="96" width="7.817391304347826" height="30" fill="#b5b5b5" />
<rect x="691.304347826087" y="96" width="7.817391304347826" height="30" fill="#b7b7b7" />
<rect x="698.5217391304348" y="96" width="7.817391304347826" height="30" fill="#b9b9b9" />
<rect x="705.7391304347826" y="96" width="7.817391304347826" height="30" fill="#bbbbbb" />
<rect x="712.9565217391304" y="96" width="7.817391304347826" height="30" fill="#bdbdbd" />
<rect x="720.1739130434783" y="96" width="7.817391304347826" height="30" fill="#bfbfbf" />
<rect x="727.3913043478261" y="96" width="7.817391304347826" height="30" fill="#c1c1c1" />
<rect x="734.6086956521739" y="96" width="7.817391304347826" height="30" fill="#c2c2c2" />
<rect x="741.8260869565217" y="96" width="7.817391304347826" height="30" fill="#c4c4c4" />
<rect x="749.0434782608696" y="96" width="7.817391304347826" height="30" fill="#c6c6c6" />
<rect x="756.2608695652174" y="96" width="7.817391304347826" height="30" fill="#c8c8c8" />
<rect x="763.4782608695652" y="96" width="7.817391304347826" height="30" fill="#cacaca" />
<rect x="770.695652173913" y="96" width="7.817391304347826" height="30" fill="#cccccc" />
<rect x="777.9130434782609" y="96" width="7.817391304347826" height="30" fill="#cecece" />
<rect x="785.1304347826087" y="96" width="7.817391304347826" height="30" fill="#d0d0d0" />
<rect x="792.3478260869565" y="96" width="7.817391304347826" height="30" fill="#d2d2d2" />
<rect x="799.5652173913044" y="96" width="7.817391304347826" height="30" fill="#d4d4d4" />
<rect x="806.7826086956521" y="96" width="7.817391304347826" height="30" fill="#d6d6d6" />
<rect x="814.0" y="96" width="7.817391304347826" height="30" fill="#d8d8d8" />
<rect x="821.2173913043479" y="96" width="7.817391304347826" height="30" fill="#dadada" />
<rect x="828.4347826086956" y="96" width="7.817391304347826" height="30" fill="#dbdbdb" />
<rect x="835.6521739130435" y="96" width="7.817391304347826" height="30" fill="#dddddd" />
<rect x="842.8695652173913" y="96" width="7.817391304347826" height="30" fill="#dfdfdf" />
<rect x="850.0869565217391" y="96" width="7.817391304347826" height="30" fill="#e1e1e1" />
<rect x="857.304347826087" y="96" width="7.817391304347826" height="30" fill="#e3e3e3" />
<rect x="864.5217391304348" y="96" width="7.817391304347826" height="30" fill="#e5e5e5" />
<rect x="150" y="96" width="721.7391304347826" height="30" fill="none" stroke="#1a1a1a" stroke-width="1.4" />
<rect x="366.52173913043475" y="93.5" width="180.43478260869566" height="35" fill="none" stroke="#1a1a1a" stroke-width="2.4" />
<path d="M542.9565217391305,90 C542.9565217391305,74,370.52173913043475,74,370.52173913043475,90" fill="none" stroke="#1a1a1a" stroke-width="2.2" />
<path d="M370.52173913043475,90 L379.52173913043475,82 L380.52173913043475,93 Z" fill="#1a1a1a" />
<rect x="150.0" y="268" width="7.817391304347826" height="30" fill="#272727" />
<rect x="157.2173913043478" y="268" width="7.817391304347826" height="30" fill="#292929" />
<rect x="164.43478260869566" y="268" width="7.817391304347826" height="30" fill="#2b2b2b" />
<rect x="171.65217391304347" y="268" width="7.817391304347826" height="30" fill="#2d2d2d" />
<rect x="178.8695652173913" y="268" width="7.817391304347826" height="30" fill="#2f2f2f" />
<rect x="186.08695652173913" y="268" width="7.817391304347826" height="30" fill="#313131" />
<rect x="193.30434782608694" y="268" width="7.817391304347826" height="30" fill="#323232" />
<rect x="200.52173913043478" y="268" width="7.817391304347826" height="30" fill="#343434" />
<rect x="207.73913043478262" y="268" width="7.817391304347826" height="30" fill="#363636" />
<rect x="214.95652173913044" y="268" width="7.817391304347826" height="30" fill="#383838" />
<rect x="222.17391304347825" y="268" width="7.817391304347826" height="30" fill="#3a3a3a" />
<rect x="229.3913043478261" y="268" width="7.817391304347826" height="30" fill="#3c3c3c" />
<rect x="236.6086956521739" y="268" width="7.817391304347826" height="30" fill="#3e3e3e" />
<rect x="243.82608695652175" y="268" width="7.817391304347826" height="30" fill="#404040" />
<rect x="251.04347826086956" y="268" width="7.817391304347826" height="30" fill="#424242" />
<rect x="258.2608695652174" y="268" width="7.817391304347826" height="30" fill="#444444" />
<rect x="265.47826086956525" y="268" width="7.817391304347826" height="30" fill="#464646" />
<rect x="272.69565217391306" y="268" width="7.817391304347826" height="30" fill="#484848" />
<rect x="279.9130434782609" y="268" width="7.817391304347826" height="30" fill="#4a4a4a" />
<rect x="287.1304347826087" y="268" width="7.817391304347826" height="30" fill="#4b4b4b" />
<rect x="294.3478260869565" y="268" width="7.817391304347826" height="30" fill="#4d4d4d" />
<rect x="301.5652173913044" y="268" width="7.817391304347826" height="30" fill="#4f4f4f" />
<rect x="308.7826086956522" y="268" width="7.817391304347826" height="30" fill="#515151" />
<rect x="316.0" y="268" width="7.817391304347826" height="30" fill="#535353" />
<rect x="323.2173913043478" y="268" width="7.817391304347826" height="30" fill="#555555" />
<rect x="330.4347826086956" y="268" width="7.817391304347826" height="30" fill="#575757" />
<rect x="337.6521739130435" y="268" width="7.817391304347826" height="30" fill="#595959" />
<rect x="344.8695652173913" y="268" width="7.817391304347826" height="30" fill="#5b5b5b" />
<rect x="352.0869565217391" y="268" width="7.817391304347826" height="30" fill="#5d5d5d" />
<rect x="359.304347826087" y="268" width="7.817391304347826" height="30" fill="#5f5f5f" />
<rect x="366.52173913043475" y="268" width="7.817391304347826" height="30" fill="#8f8f8f" />
<rect x="373.7391304347826" y="268" width="7.817391304347826" height="30" fill="#8d8d8d" />
<rect x="380.95652173913044" y="268" width="7.817391304347826" height="30" fill="#8b8b8b" />
<rect x="388.17391304347825" y="268" width="7.817391304347826" height="30" fill="#898989" />
<rect x="395.3913043478261" y="268" width="7.817391304347826" height="30" fill="#878787" />
<rect x="402.6086956521739" y="268" width="7.817391304347826" height="30" fill="#858585" />
<rect x="409.82608695652175" y="268" width="7.817391304347826" height="30" fill="#838383" />
<rect x="417.04347826086956" y="268" width="7.817391304347826" height="30" fill="#818181" />
<rect x="424.2608695652174" y="268" width="7.817391304347826" height="30" fill="#7f7f7f" />
<rect x="431.4782608695652" y="268" width="7.817391304347826" height="30" fill="#7d7d7d" />
<rect x="438.69565217391306" y="268" width="7.817391304347826" height="30" fill="#7b7b7b" />
<rect x="445.9130434782609" y="268" width="7.817391304347826" height="30" fill="#7a7a7a" />
<rect x="453.1304347826087" y="268" width="7.817391304347826" height="30" fill="#787878" />
<rect x="460.3478260869565" y="268" width="7.817391304347826" height="30" fill="#767676" />
<rect x="467.5652173913044" y="268" width="7.817391304347826" height="30" fill="#747474" />
<rect x="474.7826086956522" y="268" width="7.817391304347826" height="30" fill="#727272" />
<rect x="482.0" y="268" width="7.817391304347826" height="30" fill="#707070" />
<rect x="489.2173913043478" y="268" width="7.817391304347826" height="30" fill="#6e6e6e" />
<rect x="496.4347826086956" y="268" width="7.817391304347826" height="30" fill="#6c6c6c" />
<rect x="503.6521739130435" y="268" width="7.817391304347826" height="30" fill="#6a6a6a" />
<rect x="510.8695652173913" y="268" width="7.817391304347826" height="30" fill="#686868" />
<rect x="518.0869565217391" y="268" width="7.817391304347826" height="30" fill="#666666" />
<rect x="525.304347826087" y="268" width="7.817391304347826" height="30" fill="#646464" />
<rect x="532.5217391304348" y="268" width="7.817391304347826" height="30" fill="#626262" />
<rect x="539.7391304347826" y="268" width="7.817391304347826" height="30" fill="#616161" />
<rect x="546.9565217391305" y="268" width="7.817391304347826" height="30" fill="#919191" />
<rect x="554.1739130434783" y="268" width="7.817391304347826" height="30" fill="#929292" />
<rect x="561.391304347826" y="268" width="7.817391304347826" height="30" fill="#949494" />
<rect x="568.608695652174" y="268" width="7.817391304347826" height="30" fill="#969696" />
<rect x="575.8260869565217" y="268" width="7.817391304347826" height="30" fill="#989898" />
<rect x="583.0434782608695" y="268" width="7.817391304347826" height="30" fill="#9a9a9a" />
<rect x="590.2608695652174" y="268" width="7.817391304347826" height="30" fill="#9c9c9c" />
<rect x="597.4782608695652" y="268" width="7.817391304347826" height="30" fill="#9e9e9e" />
<rect x="604.695652173913" y="268" width="7.817391304347826" height="30" fill="#a0a0a0" />
<rect x="611.9130434782609" y="268" width="7.817391304347826" height="30" fill="#a2a2a2" />
<rect x="619.1304347826087" y="268" width="7.817391304347826" height="30" fill="#a4a4a4" />
<rect x="626.3478260869565" y="268" width="7.817391304347826" height="30" fill="#a6a6a6" />
<rect x="633.5652173913044" y="268" width="7.817391304347826" height="30" fill="#a8a8a8" />
<rect x="640.7826086956522" y="268" width="7.817391304347826" height="30" fill="#aaaaaa" />
<rect x="648.0" y="268" width="7.817391304347826" height="30" fill="#ababab" />
<rect x="655.2173913043478" y="268" width="7.817391304347826" height="30" fill="#adadad" />
<rect x="662.4347826086956" y="268" width="7.817391304347826" height="30" fill="#afafaf" />
<rect x="669.6521739130435" y="268" width="7.817391304347826" height="30" fill="#b1b1b1" />
<rect x="676.8695652173913" y="268" width="7.817391304347826" height="30" fill="#b3b3b3" />
<rect x="684.0869565217391" y="268" width="7.817391304347826" height="30" fill="#b5b5b5" />
<rect x="691.304347826087" y="268" width="7.817391304347826" height="30" fill="#b7b7b7" />
<rect x="698.5217391304348" y="268" width="7.817391304347826" height="30" fill="#b9b9b9" />
<rect x="705.7391304347826" y="268" width="7.817391304347826" height="30" fill="#bbbbbb" />
<rect x="712.9565217391304" y="268" width="7.817391304347826" height="30" fill="#bdbdbd" />
<rect x="720.1739130434783" y="268" width="7.817391304347826" height="30" fill="#bfbfbf" />
<rect x="727.3913043478261" y="268" width="7.817391304347826" height="30" fill="#c1c1c1" />
<rect x="734.6086956521739" y="268" width="7.817391304347826" height="30" fill="#c2c2c2" />
<rect x="741.8260869565217" y="268" width="7.817391304347826" height="30" fill="#c4c4c4" />
<rect x="749.0434782608696" y="268" width="7.817391304347826" height="30" fill="#c6c6c6" />
<rect x="756.2608695652174" y="268" width="7.817391304347826" height="30" fill="#c8c8c8" />
<rect x="763.4782608695652" y="268" width="7.817391304347826" height="30" fill="#cacaca" />
<rect x="770.695652173913" y="268" width="7.817391304347826" height="30" fill="#cccccc" />
<rect x="777.9130434782609" y="268" width="7.817391304347826" height="30" fill="#cecece" />
<rect x="785.1304347826087" y="268" width="7.817391304347826" height="30" fill="#d0d0d0" />
<rect x="792.3478260869565" y="268" width="7.817391304347826" height="30" fill="#d2d2d2" />
<rect x="799.5652173913044" y="268" width="7.817391304347826" height="30" fill="#d4d4d4" />
<rect x="806.7826086956521" y="268" width="7.817391304347826" height="30" fill="#d6d6d6" />
<rect x="814.0" y="268" width="7.817391304347826" height="30" fill="#d8d8d8" />
<rect x="821.2173913043479" y="268" width="7.817391304347826" height="30" fill="#dadada" />
<rect x="828.4347826086956" y="268" width="7.817391304347826" height="30" fill="#dbdbdb" />
<rect x="835.6521739130435" y="268" width="7.817391304347826" height="30" fill="#dddddd" />
<rect x="842.8695652173913" y="268" width="7.817391304347826" height="30" fill="#dfdfdf" />
<rect x="850.0869565217391" y="268" width="7.817391304347826" height="30" fill="#e1e1e1" />
<rect x="857.304347826087" y="268" width="7.817391304347826" height="30" fill="#e3e3e3" />
<rect x="864.5217391304348" y="268" width="7.817391304347826" height="30" fill="#e5e5e5" />
<rect x="150" y="268" width="721.7391304347826" height="30" fill="none" stroke="#1a1a1a" stroke-width="1.4" />
<rect x="366.52173913043475" y="265.5" width="180.43478260869566" height="35" fill="none" stroke="#1a1a1a" stroke-width="2.4" />
<rect x="222.17391304347825" y="265.5" width="108.26086956521739" height="35" fill="none" stroke="#1a1a1a" stroke-width="2.4" />
<rect x="150.0" y="440" width="7.817391304347826" height="30" fill="#272727" />
<rect x="157.2173913043478" y="440" width="7.817391304347826" height="30" fill="#292929" />
<rect x="164.43478260869566" y="440" width="7.817391304347826" height="30" fill="#2b2b2b" />
<rect x="171.65217391304347" y="440" width="7.817391304347826" height="30" fill="#2d2d2d" />
<rect x="178.8695652173913" y="440" width="7.817391304347826" height="30" fill="#2f2f2f" />
<rect x="186.08695652173913" y="440" width="7.817391304347826" height="30" fill="#313131" />
<rect x="193.30434782608694" y="440" width="7.817391304347826" height="30" fill="#323232" />
<rect x="200.52173913043478" y="440" width="7.817391304347826" height="30" fill="#343434" />
<rect x="207.73913043478262" y="440" width="7.817391304347826" height="30" fill="#363636" />
<rect x="214.95652173913044" y="440" width="7.817391304347826" height="30" fill="#383838" />
<rect x="222.17391304347825" y="440" width="7.817391304347826" height="30" fill="#3a3a3a" />
<rect x="229.3913043478261" y="440" width="7.817391304347826" height="30" fill="#3c3c3c" />
<rect x="236.6086956521739" y="440" width="7.817391304347826" height="30" fill="#3e3e3e" />
<rect x="243.82608695652175" y="440" width="7.817391304347826" height="30" fill="#404040" />
<rect x="251.04347826086956" y="440" width="7.817391304347826" height="30" fill="#424242" />
<rect x="258.2608695652174" y="440" width="7.817391304347826" height="30" fill="#444444" />
<rect x="265.47826086956525" y="440" width="7.817391304347826" height="30" fill="#464646" />
<rect x="272.69565217391306" y="440" width="7.817391304347826" height="30" fill="#484848" />
<rect x="279.9130434782609" y="440" width="7.817391304347826" height="30" fill="#4a4a4a" />
<rect x="287.1304347826087" y="440" width="7.817391304347826" height="30" fill="#4b4b4b" />
<rect x="294.3478260869565" y="440" width="7.817391304347826" height="30" fill="#4d4d4d" />
<rect x="301.5652173913044" y="440" width="7.817391304347826" height="30" fill="#4f4f4f" />
<rect x="308.7826086956522" y="440" width="7.817391304347826" height="30" fill="#515151" />
<rect x="316.0" y="440" width="7.817391304347826" height="30" fill="#535353" />
<rect x="323.2173913043478" y="440" width="7.817391304347826" height="30" fill="#555555" />
<rect x="330.4347826086956" y="440" width="7.817391304347826" height="30" fill="#3a3a3a" />
<rect x="337.6521739130435" y="440" width="7.817391304347826" height="30" fill="#3c3c3c" />
<rect x="344.8695652173913" y="440" width="7.817391304347826" height="30" fill="#3e3e3e" />
<rect x="352.0869565217391" y="440" width="7.817391304347826" height="30" fill="#404040" />
<rect x="359.304347826087" y="440" width="7.817391304347826" height="30" fill="#424242" />
<rect x="366.52173913043475" y="440" width="7.817391304347826" height="30" fill="#444444" />
<rect x="373.7391304347826" y="440" width="7.817391304347826" height="30" fill="#464646" />
<rect x="380.95652173913044" y="440" width="7.817391304347826" height="30" fill="#484848" />
<rect x="388.17391304347825" y="440" width="7.817391304347826" height="30" fill="#4a4a4a" />
<rect x="395.3913043478261" y="440" width="7.817391304347826" height="30" fill="#4b4b4b" />
<rect x="402.6086956521739" y="440" width="7.817391304347826" height="30" fill="#4d4d4d" />
<rect x="409.82608695652175" y="440" width="7.817391304347826" height="30" fill="#4f4f4f" />
<rect x="417.04347826086956" y="440" width="7.817391304347826" height="30" fill="#515151" />
<rect x="424.2608695652174" y="440" width="7.817391304347826" height="30" fill="#535353" />
<rect x="431.4782608695652" y="440" width="7.817391304347826" height="30" fill="#555555" />
<rect x="438.69565217391306" y="440" width="7.817391304347826" height="30" fill="#575757" />
<rect x="445.9130434782609" y="440" width="7.817391304347826" height="30" fill="#595959" />
<rect x="453.1304347826087" y="440" width="7.817391304347826" height="30" fill="#5b5b5b" />
<rect x="460.3478260869565" y="440" width="7.817391304347826" height="30" fill="#5d5d5d" />
<rect x="467.5652173913044" y="440" width="7.817391304347826" height="30" fill="#5f5f5f" />
<rect x="474.7826086956522" y="440" width="7.817391304347826" height="30" fill="#8f8f8f" />
<rect x="482.0" y="440" width="7.817391304347826" height="30" fill="#8d8d8d" />
<rect x="489.2173913043478" y="440" width="7.817391304347826" height="30" fill="#8b8b8b" />
<rect x="496.4347826086956" y="440" width="7.817391304347826" height="30" fill="#898989" />
<rect x="503.6521739130435" y="440" width="7.817391304347826" height="30" fill="#878787" />
<rect x="510.8695652173913" y="440" width="7.817391304347826" height="30" fill="#858585" />
<rect x="518.0869565217391" y="440" width="7.817391304347826" height="30" fill="#838383" />
<rect x="525.304347826087" y="440" width="7.817391304347826" height="30" fill="#818181" />
<rect x="532.5217391304348" y="440" width="7.817391304347826" height="30" fill="#7f7f7f" />
<rect x="539.7391304347826" y="440" width="7.817391304347826" height="30" fill="#7d7d7d" />
<rect x="546.9565217391305" y="440" width="7.817391304347826" height="30" fill="#7b7b7b" />
<rect x="554.1739130434783" y="440" width="7.817391304347826" height="30" fill="#7a7a7a" />
<rect x="561.391304347826" y="440" width="7.817391304347826" height="30" fill="#787878" />
<rect x="568.608695652174" y="440" width="7.817391304347826" height="30" fill="#767676" />
<rect x="575.8260869565217" y="440" width="7.817391304347826" height="30" fill="#747474" />
<rect x="583.0434782608695" y="440" width="7.817391304347826" height="30" fill="#727272" />
<rect x="590.2608695652174" y="440" width="7.817391304347826" height="30" fill="#707070" />
<rect x="597.4782608695652" y="440" width="7.817391304347826" height="30" fill="#6e6e6e" />
<rect x="604.695652173913" y="440" width="7.817391304347826" height="30" fill="#6c6c6c" />
<rect x="611.9130434782609" y="440" width="7.817391304347826" height="30" fill="#6a6a6a" />
<rect x="619.1304347826087" y="440" width="7.817391304347826" height="30" fill="#686868" />
<rect x="626.3478260869565" y="440" width="7.817391304347826" height="30" fill="#666666" />
<rect x="633.5652173913044" y="440" width="7.817391304347826" height="30" fill="#646464" />
<rect x="640.7826086956522" y="440" width="7.817391304347826" height="30" fill="#626262" />
<rect x="648.0" y="440" width="7.817391304347826" height="30" fill="#616161" />
<rect x="655.2173913043478" y="440" width="7.817391304347826" height="30" fill="#919191" />
<rect x="662.4347826086956" y="440" width="7.817391304347826" height="30" fill="#929292" />
<rect x="669.6521739130435" y="440" width="7.817391304347826" height="30" fill="#949494" />
<rect x="676.8695652173913" y="440" width="7.817391304347826" height="30" fill="#969696" />
<rect x="684.0869565217391" y="440" width="7.817391304347826" height="30" fill="#989898" />
<rect x="691.304347826087" y="440" width="7.817391304347826" height="30" fill="#9a9a9a" />
<rect x="698.5217391304348" y="440" width="7.817391304347826" height="30" fill="#9c9c9c" />
<rect x="705.7391304347826" y="440" width="7.817391304347826" height="30" fill="#9e9e9e" />
<rect x="712.9565217391304" y="440" width="7.817391304347826" height="30" fill="#a0a0a0" />
<rect x="720.1739130434783" y="440" width="7.817391304347826" height="30" fill="#a2a2a2" />
<rect x="727.3913043478261" y="440" width="7.817391304347826" height="30" fill="#a4a4a4" />
<rect x="734.6086956521739" y="440" width="7.817391304347826" height="30" fill="#a6a6a6" />
<rect x="741.8260869565217" y="440" width="7.817391304347826" height="30" fill="#a8a8a8" />
<rect x="749.0434782608696" y="440" width="7.817391304347826" height="30" fill="#aaaaaa" />
<rect x="756.2608695652174" y="440" width="7.817391304347826" height="30" fill="#ababab" />
<rect x="763.4782608695652" y="440" width="7.817391304347826" height="30" fill="#adadad" />
<rect x="770.695652173913" y="440" width="7.817391304347826" height="30" fill="#afafaf" />
<rect x="777.9130434782609" y="440" width="7.817391304347826" height="30" fill="#b1b1b1" />
<rect x="785.1304347826087" y="440" width="7.817391304347826" height="30" fill="#b3b3b3" />
<rect x="792.3478260869565" y="440" width="7.817391304347826" height="30" fill="#b5b5b5" />
<rect x="799.5652173913044" y="440" width="7.817391304347826" height="30" fill="#b7b7b7" />
<rect x="806.7826086956521" y="440" width="7.817391304347826" height="30" fill="#b9b9b9" />
<rect x="814.0" y="440" width="7.817391304347826" height="30" fill="#bbbbbb" />
<rect x="821.2173913043479" y="440" width="7.817391304347826" height="30" fill="#bdbdbd" />
<rect x="828.4347826086956" y="440" width="7.817391304347826" height="30" fill="#bfbfbf" />
<rect x="835.6521739130435" y="440" width="7.817391304347826" height="30" fill="#c1c1c1" />
<rect x="842.8695652173913" y="440" width="7.817391304347826" height="30" fill="#c2c2c2" />
<rect x="850.0869565217391" y="440" width="7.817391304347826" height="30" fill="#c4c4c4" />
<rect x="857.304347826087" y="440" width="7.817391304347826" height="30" fill="#c6c6c6" />
<rect x="864.5217391304348" y="440" width="7.817391304347826" height="30" fill="#c8c8c8" />
<rect x="871.7391304347826" y="440" width="7.817391304347826" height="30" fill="#cacaca" />
<rect x="878.9565217391304" y="440" width="7.817391304347826" height="30" fill="#cccccc" />
<rect x="886.1739130434783" y="440" width="7.817391304347826" height="30" fill="#cecece" />
<rect x="893.3913043478261" y="440" width="7.817391304347826" height="30" fill="#d0d0d0" />
<rect x="900.6086956521739" y="440" width="7.817391304347826" height="30" fill="#d2d2d2" />
<rect x="907.8260869565217" y="440" width="7.817391304347826" height="30" fill="#d4d4d4" />
<rect x="915.0434782608696" y="440" width="7.817391304347826" height="30" fill="#d6d6d6" />
<rect x="922.2608695652174" y="440" width="7.817391304347826" height="30" fill="#d8d8d8" />
<rect x="929.4782608695652" y="440" width="7.817391304347826" height="30" fill="#dadada" />
<rect x="936.695652173913" y="440" width="7.817391304347826" height="30" fill="#dbdbdb" />
<rect x="943.9130434782609" y="440" width="7.817391304347826" height="30" fill="#dddddd" />
<rect x="951.1304347826087" y="440" width="7.817391304347826" height="30" fill="#dfdfdf" />
<rect x="958.3478260869565" y="440" width="7.817391304347826" height="30" fill="#e1e1e1" />
<rect x="965.5652173913044" y="440" width="7.817391304347826" height="30" fill="#e3e3e3" />
<rect x="972.7826086956521" y="440" width="7.817391304347826" height="30" fill="#e5e5e5" />
<rect x="150" y="440" width="830.0" height="30" fill="none" stroke="#1a1a1a" stroke-width="1.4" />
<rect x="222.17391304347825" y="437.5" width="108.26086956521739" height="35" fill="none" stroke="#1a1a1a" stroke-width="2.4" />
<rect x="330.4347826086956" y="437.5" width="108.26086956521739" height="35" fill="none" stroke="#1a1a1a" stroke-width="2.4" />
<path d="M456.7391304347826,132 L456.7391304347826,253" stroke="#1a1a1a" stroke-width="2.4" />
<path d="M456.7391304347826,262 L450.7391304347826,252 L462.7391304347826,252 Z" fill="#1a1a1a" />
<text x="472.7391304347826" y="197.0" font-size="17" font-family="Helvetica" text-anchor="start" dominant-baseline="middle" font-weight="bold" fill="#1a1a1a">Inversion</text>
<path d="M276.30434782608694,304 L276.30434782608694,425" stroke="#1a1a1a" stroke-width="2.4" />
<path d="M276.30434782608694,434 L270.30434782608694,424 L282.30434782608694,424 Z" fill="#1a1a1a" />
<text x="292.30434782608694" y="369.0" font-size="17" font-family="Helvetica" text-anchor="start" dominant-baseline="middle" font-weight="bold" fill="#1a1a1a">Duplication</text>
<text x="110" y="36" font-size="16" font-family="Helvetica" text-anchor="start" font-weight="bold" fill="#1a1a1a">Nucleotide-level events  (100-base genome, drawn linearly)</text>
<text x="110" y="540" font-size="13" font-family="Helvetica" text-anchor="start" fill="#555">bars painted by ancestral position:  inversion = reversed gradient + flipped strand;  duplication = repeated colours, longer genome</text>
</svg>