<?xml version="1.0" encoding="UTF-8"?>
<svg xmlns="http://www.w3.org/2000/svg" xmlns:xlink="http://www.w3.org/1999/xlink"
     width="1260" height="600" viewBox="0 0 1260 600">
<defs>
</defs>
<rect x="0" y="0" width="1260" height="600" fill="white" />
<text x="630.0" y="40" font-size="32" font-family="Helvetica" text-anchor="middle" dominant-baseline="central" fill="#1a1a1a" font-weight="bold" font-style="normal">The anatomy of one Gillespie step</text>
<text x="60" y="120" font-size="22" font-family="Helvetica" text-anchor="start" dominant-baseline="central" fill="#1a1a1a" font-weight="bold" font-style="normal">1.  the events and their rates</text>
<rect x="60" y="169" width="18" height="18" fill="#377EB8" />
<text x="90" y="178" font-size="20" font-family="Helvetica" text-anchor="start" dominant-baseline="central" fill="#1a1a1a" font-weight="normal" font-style="normal">duplication</text>
<rect x="210" y="167" width="102.0" height="22" fill="#377EB8" opacity="0.85" />
<text x="328.0" y="178" font-size="20" font-family="Helvetica" text-anchor="start" dominant-baseline="central" fill="#8a8a8a" font-weight="normal" font-style="normal">3</text>
<rect x="60" y="225" width="18" height="18" fill="#4DAF4A" />
<text x="90" y="234" font-size="20" font-family="Helvetica" text-anchor="start" dominant-baseline="central" fill="#1a1a1a" font-weight="normal" font-style="normal">transfer</text>
<rect x="210" y="223" width="68.0" height="22" fill="#4DAF4A" opacity="0.85" />
<text x="294.0" y="234" font-size="20" font-family="Helvetica" text-anchor="start" dominant-baseline="central" fill="#8a8a8a" font-weight="normal" font-style="normal">2</text>
<rect x="60" y="281" width="18" height="18" fill="#E41A1C" />
<text x="90" y="290" font-size="20" font-family="Helvetica" text-anchor="start" dominant-baseline="central" fill="#1a1a1a" font-weight="normal" font-style="normal">loss</text>
<rect x="210" y="279" width="34.0" height="22" fill="#E41A1C" opacity="0.85" />
<text x="260.0" y="290" font-size="20" font-family="Helvetica" text-anchor="start" dominant-baseline="central" fill="#8a8a8a" font-weight="normal" font-style="normal">1</text>
<path d="M60,334 L400,334" stroke="#1a1a1a" stroke-width="1.4" />
<text x="60" y="362" font-size="22" font-family="Helvetica" text-anchor="start" dominant-baseline="central" fill="#1a1a1a" font-weight="bold" font-style="normal">total rate  R = 3 + 2 + 1 = 6</text>
<path d="M420,330.0 L467,330.0" stroke="#8a8a8a" stroke-width="2.6" stroke-linecap="round" />
<path d="M470,330.0 L458.12984377594,335.3008858897744 L458.12984377594,324.6991141102256 Z" fill="#8a8a8a" />
<text x="500" y="120" font-size="22" font-family="Helvetica" text-anchor="start" dominant-baseline="central" fill="#1a1a1a" font-weight="bold" font-style="normal">2.  when?  draw a waiting time</text>
<path d="M508,416 L808,416" stroke="#1a1a1a" stroke-width="2.0" />
<path d="M508,180 L508,416" stroke="#1a1a1a" stroke-width="2.0" />
<path d="M508.0,180.0 L511.3333333333333,191.50985581783152 L514.6666666666666,202.45836934351354 L518.0,212.87291756368637 L521.3333333333334,222.7795422735963 L524.6666666666666,232.20301519514845 L528.0,241.16689991911457 L531.3333333333334,249.69361082638363 L534.6666666666666,257.80446913558916 L538.0,265.5197562172615 L541.3333333333334,272.85876430781855 L544.6666666666666,279.8398447502051 L548.0,286.4804538818098 L551.3333333333334,292.7971966844002 L554.6666666666666,298.80586830522736 L558.0,304.52149355312054 L561.3333333333334,309.95836446833573 L564.6666666666666,315.1300760601005 L568.0,320.0495603012186 L571.3333333333334,324.7291184647377 L574.6666666666666,329.1804518835396 L578.0,333.4146912097673 L581.3333333333334,337.4424242472532 L584.6666666666666,341.2737224265435 L588.0,344.9181659887203 L591.3333333333334,348.38486794099515 L594.6666666666666,351.682496843973 L598.0,354.8192984875696 L601.3333333333334,357.80311650978086 L604.6666666666666,360.64141200986376 L608.0,363.3412822049706 L611.3333333333334,365.9094781768886 L614.6666666666666,368.35242175326135 L618.0,370.67622156550203 L621.3333333333334,372.8866883235546 L624.6666666666666,374.98934934569496 L628.0,376.98946237970557 L631.3333333333334,378.89202874998387 L634.6666666666666,380.7018058634581 L638.0,382.4233191055828 L641.3333333333333,384.0608731561594 L644.6666666666666,385.6185627532782 L648.0,387.10028293229624 L651.3333333333334,388.5097387654547 L654.6666666666666,389.8504546264892 L658.0,391.1257830034 L661.3333333333334,392.3389128814183 L664.6666666666667,393.4928777171303 L668.0,394.5905630236987 L671.3333333333333,395.63471358614856 L674.6666666666667,396.6279403247599 L678.0,397.57272682372786 L681.3333333333334,398.4714355414172 L684.6666666666667,399.3263137177386 L688.0,400.13949899341907 L691.3333333333333,400.913024755217 L694.6666666666666,401.64882522044854 L698.0,402.3487402735381 L701.3333333333334,403.0145200666879 L704.6666666666666,403.6478293961699 L708.0,404.2502518651841 L711.3333333333333,404.82329384369075 L714.6666666666667,405.3683882351204 L718.0,405.8868980593785 L721.3333333333334,406.3801198611056 L724.6666666666666,406.8492869517136 L728.0,407.29557249330736 L731.3333333333334,407.72009243220054 L734.6666666666666,408.12390828936304 L738.0,408.50802981477597 L741.3333333333334,408.8734175123328 L744.6666666666666,409.2209850415995 L748.0,409.5516015024389 L751.3333333333333,409.86609360821376 L754.6666666666667,410.1652477529999 L758.0,410.4498119779818 L761.3333333333334,410.7204978419449 L764.6666666666667,410.977982200543 L768.0,411.22290889879014 L771.3333333333333,411.4558903810087 L774.6666666666666,411.6775092222587 L778.0,411.88831958507956 L781.3333333333333,412.08884860518435 L784.6666666666666,412.2795977095743 L788.0,412.46104387036723 L791.3333333333334,412.6336407974762 L794.6666666666667,412.7978200731206 L798.0,412.95399223100674 L801.3333333333333,413.10254778287583 L804.6666666666667,413.2438581949867 L808.0,413.3782768169748" fill="none" stroke="#1a1a1a" stroke-width="3.0" stroke-linejoin="round" />
<path d="M574.6666666666666,188 L574.6666666666666,416" stroke="#8a8a8a" stroke-width="2.0" stroke-dasharray="5,5" />
<text x="582.6666666666666" y="204" font-size="18" font-family="Helvetica" text-anchor="start" dominant-baseline="central" fill="#8a8a8a" font-weight="normal" font-style="normal">mean = 1/R</text>
<path d="M549.3333333333334,416 L549.3333333333334,289.04511272765683" stroke="#984EA3" stroke-width="3.0" />
<circle cx="549.3333333333334" cy="289.04511272765683" r="6" fill="#984EA3" />
<text x="545.3333333333334" y="442" font-size="20" font-family="Helvetica" text-anchor="middle" dominant-baseline="central" fill="#984EA3" font-weight="bold" font-style="normal">dt</text>
<text x="658.0" y="468" font-size="18" font-family="Helvetica" text-anchor="middle" dominant-baseline="central" fill="#8a8a8a" font-weight="normal" font-style="normal">waiting time</text>
<text x="658.0" y="158" font-size="20" font-family="Helvetica" text-anchor="middle" dominant-baseline="central" fill="#1a1a1a" font-weight="bold" font-style="normal">dt ~ Exponential(R)</text>
<path d="M830,330.0 L877,330.0" stroke="#8a8a8a" stroke-width="2.6" stroke-linecap="round" />
<path d="M880,330.0 L868.12984377594,335.3008858897744 L868.12984377594,324.6991141102256 Z" fill="#8a8a8a" />
<text x="900" y="120" font-size="22" font-family="Helvetica" text-anchor="start" dominant-baseline="central" fill="#1a1a1a" font-weight="bold" font-style="normal">3.  which?  pick an event</text>
<rect x="908" y="198" width="150.0" height="54" fill="#377EB8" opacity="0.9" stroke="white" stroke-width="2.0" />
<text x="983.0" y="225.0" font-size="20" font-family="Helvetica" text-anchor="middle" dominant-baseline="central" fill="white" font-weight="bold" font-style="normal">1/2</text>
<rect x="1058.0" y="198" width="100.0" height="54" fill="#4DAF4A" opacity="0.9" stroke="white" stroke-width="2.0" />
<text x="1108.0" y="225.0" font-size="20" font-family="Helvetica" text-anchor="middle" dominant-baseline="central" fill="white" font-weight="bold" font-style="normal">1/3</text>
<rect x="1158.0" y="198" width="50.0" height="54" fill="#E41A1C" opacity="0.9" stroke="white" stroke-width="2.0" />
<text x="1183.0" y="225.0" font-size="20" font-family="Helvetica" text-anchor="middle" dominant-baseline="central" fill="white" font-weight="bold" font-style="normal">1/6</text>
<text x="908" y="274" font-size="18" font-family="Helvetica" text-anchor="middle" dominant-baseline="central" fill="#8a8a8a" font-weight="normal" font-style="normal">0</text>
<text x="1208" y="274" font-size="18" font-family="Helvetica" text-anchor="middle" dominant-baseline="central" fill="#8a8a8a" font-weight="normal" font-style="normal">R</text>
<path d="M1108.0,164 L1108.0,196" stroke="#1a1a1a" stroke-width="2.6" />
<path d="M1108.0,196 L1102.291353657166,183.21675483562768 L1113.708646342834,183.21675483562768 Z" fill="#1a1a1a" />
<text x="1108.0" y="150" font-size="18" font-family="Helvetica" text-anchor="middle" dominant-baseline="central" fill="#8a8a8a" font-weight="normal" font-style="normal">u x R</text>
<text x="1058.0" y="314" font-size="20" font-family="Helvetica" text-anchor="middle" dominant-baseline="central" fill="#4DAF4A" font-weight="bold" font-style="normal">chosen: transfer</text>
<text x="1058.0" y="354" font-size="18" font-family="Helvetica" text-anchor="middle" dominant-baseline="central" fill="#8a8a8a" font-weight="normal" font-style="normal">each event fires with</text>
<text x="1058.0" y="378" font-size="18" font-family="Helvetica" text-anchor="middle" dominant-baseline="central" fill="#8a8a8a" font-weight="normal" font-style="normal">probability (its rate) / R</text>
<text x="630.0" y="574" font-size="20" font-family="Helvetica" text-anchor="middle" dominant-baseline="central" fill="#8a8a8a" font-weight="normal" font-style="italic">then advance the clock by dt, apply the chosen event to the state, and repeat</text>
</svg>