<?xml version="1.0" encoding="UTF-8"?>
<svg xmlns="http://www.w3.org/2000/svg" xmlns:xlink="http://www.w3.org/1999/xlink"
     width="1240" height="730" viewBox="0 0 1240 730">
<defs>
</defs>
<rect x="0" y="0" width="1240" height="730" fill="white" />
<text x="40" y="40" font-size="20" font-family="Helvetica" text-anchor="start" font-weight="bold" fill="#1a1a1a">Discrete-trait models as continuous-time Markov chains</text>
<text x="40" y="64" font-size="13.5" font-family="Helvetica" text-anchor="start" fill="#777">states = circles,  allowed transitions = arrows,  instantaneous rates = labels (the off-diagonals of Q)</text>
<text x="250" y="158" font-size="16" font-family="Helvetica" text-anchor="middle" font-weight="bold" fill="#1a1a1a">Equal rates (ER)</text>
<text x="250" y="176" font-size="12" font-family="Helvetica" text-anchor="middle" fill="#777">one shared rate q</text>
<path d="M206.75916193656514,280.34507360752957 Q250.0,300.0,293.24083806343486,280.3450736075296" fill="none" stroke="#1a1a1a" stroke-width="2.3" />
<path d="M293.24083806343486,280.3450736075296 L287.60947683110425,286.7120014908187 L284.74102473832846,280.4014068867119 Z" fill="#1a1a1a" />
<text x="250.0" y="315.0" font-size="13.5" font-family="Helvetica" text-anchor="middle" dominant-baseline="central" fill="#1a1a1a">q</text>
<path d="M293.24083806343486,259.6549263924704 Q250.0,240.0,206.75916193656514,259.65492639247043" fill="none" stroke="#1a1a1a" stroke-width="2.3" />
<path d="M206.75916193656514,259.65492639247043 L212.39052316889575,253.28799850918136 L215.25897526167154,259.59859311328813 Z" fill="#1a1a1a" />
<text x="250.0" y="225.0" font-size="13.5" font-family="Helvetica" text-anchor="middle" dominant-baseline="central" fill="#1a1a1a">q</text>
<circle cx="184" cy="270" r="25" fill="#4477AA" stroke="#1a1a1a" stroke-width="1.7" />
<text x="184" y="270" font-size="16" font-family="Helvetica" text-anchor="middle" dominant-baseline="central" fill="white" font-weight="bold">0</text>
<circle cx="316" cy="270" r="25" fill="#EE6677" stroke="#1a1a1a" stroke-width="1.7" />
<text x="316" y="270" font-size="16" font-family="Helvetica" text-anchor="middle" dominant-baseline="central" fill="white" font-weight="bold">1</text>
<text x="620" y="154" font-size="16" font-family="Helvetica" text-anchor="middle" font-weight="bold" fill="#1a1a1a">Symmetric (SYM)</text>
<text x="620" y="172" font-size="12" font-family="Helvetica" text-anchor="middle" fill="#777">each pair shares one rate</text>
<path d="M601.0998643322692,234.3641336996913 Q573.7290091663156,258.062393928335,562.0586333492089,292.33444637150825" fill="none" stroke="#1a1a1a" stroke-width="2.3" />
<path d="M562.0586333492089,292.33444637150825 L561.2794798685588,283.87023229968855 L567.8413961397912,286.1047068498383 Z" fill="#1a1a1a" />
<text x="561.2874552597364" y="249.68338823614903" font-size="13.5" font-family="Helvetica" text-anchor="middle" dominant-baseline="central" fill="#1a1a1a">a</text>
<path d="M572.9001356677308,299.6358663003087 Q600.2709908336844,275.937606071665,611.9413666507911,241.66555362849175" fill="none" stroke="#1a1a1a" stroke-width="2.3" />
<path d="M611.9413666507911,241.66555362849175 L612.7205201314412,250.12976770031148 L606.1586038602088,247.8952931501617 Z" fill="#1a1a1a" />
<path d="M578.2962526422176,321.8900006405376 Q620.0,332.0,661.7037473577824,321.8900006405376" fill="none" stroke="#1a1a1a" stroke-width="2.3" />
<path d="M661.7037473577824,321.8900006405376 L654.9775510731442,327.0869500861758 L653.3443887289436,320.35015541634834 Z" fill="#1a1a1a" />
<text x="620.0" y="347.0" font-size="13.5" font-family="Helvetica" text-anchor="middle" dominant-baseline="central" fill="#1a1a1a">b</text>
<path d="M661.7037473577824,310.1099993594624 Q620.0,300.0,578.2962526422176,310.1099993594624" fill="none" stroke="#1a1a1a" stroke-width="2.3" />
<path d="M578.2962526422176,310.1099993594624 L585.0224489268558,304.9130499138242 L586.6556112710564,311.64984458365166 Z" fill="#1a1a1a" />
<path d="M628.0586333492089,241.66555362849175 Q639.7290091663156,275.937606071665,667.0998643322692,299.6358663003087" fill="none" stroke="#1a1a1a" stroke-width="2.3" />
<path d="M667.0998643322692,299.6358663003087 L658.9636128494963,297.17590455079426 L663.5010125179895,291.93532959051663 Z" fill="#1a1a1a" />
<path d="M677.9413666507911,292.33444637150825 Q666.2709908336844,258.062393928335,638.9001356677308,234.3641336996913" fill="none" stroke="#1a1a1a" stroke-width="2.3" />
<path d="M638.9001356677308,234.3641336996913 L647.0363871505037,236.8240954492057 L642.4989874820105,242.06467040948334 Z" fill="#1a1a1a" />
<text x="678.7125447402636" y="249.68338823614903" font-size="13.5" font-family="Helvetica" text-anchor="middle" dominant-baseline="central" fill="#1a1a1a">c</text>
<circle cx="620" cy="218" r="25" fill="#4477AA" stroke="#1a1a1a" stroke-width="1.7" />
<text x="620" y="218" font-size="16" font-family="Helvetica" text-anchor="middle" dominant-baseline="central" fill="white" font-weight="bold">0</text>
<circle cx="554" cy="316" r="25" fill="#EE6677" stroke="#1a1a1a" stroke-width="1.7" />
<text x="554" y="316" font-size="16" font-family="Helvetica" text-anchor="middle" dominant-baseline="central" fill="white" font-weight="bold">1</text>
<circle cx="686" cy="316" r="25" fill="#228833" stroke="#1a1a1a" stroke-width="1.7" />
<text x="686" y="316" font-size="16" font-family="Helvetica" text-anchor="middle" dominant-baseline="central" fill="white" font-weight="bold">2</text>
<text x="990" y="158" font-size="16" font-family="Helvetica" text-anchor="middle" font-weight="bold" fill="#1a1a1a">Ordered / meristic</text>
<text x="990" y="176" font-size="12" font-family="Helvetica" text-anchor="middle" fill="#777">neighbour jumps only (no 0-2)</text>
<path d="M919.7640709680034,282.30143141669754 Q944.0,296.0,968.2359290319966,282.30143141669754" fill="none" stroke="#1a1a1a" stroke-width="2.3" />
<path d="M968.2359290319966,282.30143141669754 L963.1847206472339,289.13775307777394 L959.7738153187613,283.103074419707 Z" fill="#1a1a1a" />
<text x="944.0" y="311.0" font-size="13.5" font-family="Helvetica" text-anchor="middle" dominant-baseline="central" fill="#1a1a1a">q</text>
<path d="M968.2359290319966,257.69856858330246 Q944.0,244.0,919.7640709680034,257.69856858330246" fill="none" stroke="#1a1a1a" stroke-width="2.3" />
<path d="M919.7640709680034,257.69856858330246 L924.8152793527661,250.86224692222606 L928.2261846812387,256.896925580293 Z" fill="#1a1a1a" />
<text x="944.0" y="229.0" font-size="13.5" font-family="Helvetica" text-anchor="middle" dominant-baseline="central" fill="#1a1a1a">q</text>
<path d="M1011.7640709680034,282.30143141669754 Q1036.0,296.0,1060.2359290319966,282.30143141669754" fill="none" stroke="#1a1a1a" stroke-width="2.3" />
<path d="M1060.2359290319966,282.30143141669754 L1055.184720647234,289.13775307777394 L1051.7738153187613,283.103074419707 Z" fill="#1a1a1a" />
<text x="1036.0" y="311.0" font-size="13.5" font-family="Helvetica" text-anchor="middle" dominant-baseline="central" fill="#1a1a1a">q</text>
<path d="M1060.2359290319966,257.69856858330246 Q1036.0,244.0,1011.7640709680034,257.69856858330246" fill="none" stroke="#1a1a1a" stroke-width="2.3" />
<path d="M1011.7640709680034,257.69856858330246 L1016.8152793527661,250.86224692222606 L1020.2261846812387,256.896925580293 Z" fill="#1a1a1a" />
<text x="1036.0" y="229.0" font-size="13.5" font-family="Helvetica" text-anchor="middle" dominant-baseline="central" fill="#1a1a1a">q</text>
<circle cx="898" cy="270" r="25" fill="#4477AA" stroke="#1a1a1a" stroke-width="1.7" />
<text x="898" y="270" font-size="16" font-family="Helvetica" text-anchor="middle" dominant-baseline="central" fill="white" font-weight="bold">0</text>
<circle cx="990" cy="270" r="25" fill="#EE6677" stroke="#1a1a1a" stroke-width="1.7" />
<text x="990" y="270" font-size="16" font-family="Helvetica" text-anchor="middle" dominant-baseline="central" fill="white" font-weight="bold">1</text>
<circle cx="1082" cy="270" r="25" fill="#228833" stroke="#1a1a1a" stroke-width="1.7" />
<text x="1082" y="270" font-size="16" font-family="Helvetica" text-anchor="middle" dominant-baseline="central" fill="white" font-weight="bold">2</text>
<text x="250" y="448" font-size="16" font-family="Helvetica" text-anchor="middle" font-weight="bold" fill="#1a1a1a">All rates different (ARD)</text>
<text x="250" y="466" font-size="12" font-family="Helvetica" text-anchor="middle" fill="#777">each direction its own rate</text>
<path d="M206.75916193656514,570.3450736075296 Q250.0,590.0,293.24083806343486,570.3450736075296" fill="none" stroke="#1a1a1a" stroke-width="2.3" />
<path d="M293.24083806343486,570.3450736075296 L287.60947683110425,576.7120014908187 L284.74102473832846,570.4014068867119 Z" fill="#1a1a1a" />
<text x="250.0" y="605.0" font-size="13.5" font-family="Helvetica" text-anchor="middle" dominant-baseline="central" fill="#1a1a1a">q01</text>
<path d="M293.24083806343486,549.6549263924704 Q250.0,530.0,206.75916193656514,549.6549263924704" fill="none" stroke="#1a1a1a" stroke-width="2.3" />
<path d="M206.75916193656514,549.6549263924704 L212.39052316889575,543.2879985091813 L215.25897526167154,549.5985931132881 Z" fill="#1a1a1a" />
<text x="250.0" y="515.0" font-size="13.5" font-family="Helvetica" text-anchor="middle" dominant-baseline="central" fill="#1a1a1a">q10</text>
<circle cx="184" cy="560" r="25" fill="#4477AA" stroke="#1a1a1a" stroke-width="1.7" />
<text x="184" y="560" font-size="16" font-family="Helvetica" text-anchor="middle" dominant-baseline="central" fill="white" font-weight="bold">0</text>
<circle cx="316" cy="560" r="25" fill="#EE6677" stroke="#1a1a1a" stroke-width="1.7" />
<text x="316" y="560" font-size="16" font-family="Helvetica" text-anchor="middle" dominant-baseline="central" fill="white" font-weight="bold">1</text>
<text x="620" y="444" font-size="16" font-family="Helvetica" text-anchor="middle" font-weight="bold" fill="#1a1a1a">Correlated binary (Pagel)</text>
<text x="620" y="462" font-size="12" font-family="Helvetica" text-anchor="middle" fill="#777">each trait's rate depends on the other</text>
<path d="M578.3783213947866,517.5405275897242 Q620.0,527.0,661.6216786052136,517.5405275897242" fill="none" stroke="#1a1a1a" stroke-width="2.3" />
<path d="M661.6216786052136,517.5405275897242 L654.8215536182272,522.6403609361546 L653.2852921509082,515.880810479951 Z" fill="#1a1a1a" />
<text x="620.0" y="542.0" font-size="13.5" font-family="Helvetica" text-anchor="middle" dominant-baseline="central" fill="#1a1a1a">Y</text>
<path d="M661.6216786052136,506.4594724102758 Q620.0,497.0,578.3783213947866,506.4594724102758" fill="none" stroke="#1a1a1a" stroke-width="2.3" />
<path d="M578.3783213947866,506.4594724102758 L585.1784463817729,501.3596390638454 L586.714707849092,508.11918952004896 Z" fill="#1a1a1a" />
<path d="M578.3783213947866,613.5405275897242 Q620.0,623.0,661.6216786052136,613.5405275897242" fill="none" stroke="#1a1a1a" stroke-width="2.3" />
<path d="M661.6216786052136,613.5405275897242 L654.8215536182272,618.6403609361546 L653.2852921509082,611.880810479951 Z" fill="#1a1a1a" />
<path d="M661.6216786052136,602.4594724102758 Q620.0,593.0,578.3783213947866,602.4594724102758" fill="none" stroke="#1a1a1a" stroke-width="2.3" />
<path d="M578.3783213947866,602.4594724102758 L585.1784463817729,597.3596390638454 L586.714707849092,604.119189520049 Z" fill="#1a1a1a" />
<text x="620.0" y="578.0" font-size="13.5" font-family="Helvetica" text-anchor="middle" dominant-baseline="central" fill="#1a1a1a">Y</text>
<path d="M546.5431251716013,535.8619994508757 Q539.0,560.0,546.5431251716013,584.1380005491243" fill="none" stroke="#1a1a1a" stroke-width="2.3" />
<path d="M546.5431251716013,584.1380005491243 L540.9199434932872,577.7638474435994 L547.5363296940448,575.6962267558627 Z" fill="#1a1a1a" />
<text x="524.0" y="560.0" font-size="13.5" font-family="Helvetica" text-anchor="middle" dominant-baseline="central" fill="#1a1a1a">X</text>
<path d="M561.4568748283987,584.1380005491243 Q569.0,560.0,561.4568748283987,535.8619994508757" fill="none" stroke="#1a1a1a" stroke-width="2.3" />
<path d="M561.4568748283987,535.8619994508757 L567.0800565067128,542.2361525564006 L560.4636703059552,544.3037732441373 Z" fill="#1a1a1a" />
<path d="M678.5431251716013,535.8619994508757 Q671.0,560.0,678.5431251716013,584.1380005491243" fill="none" stroke="#1a1a1a" stroke-width="2.3" />
<path d="M678.5431251716013,584.1380005491243 L672.9199434932872,577.7638474435994 L679.5363296940448,575.6962267558627 Z" fill="#1a1a1a" />
<path d="M693.4568748283987,584.1380005491243 Q701.0,560.0,693.4568748283987,535.8619994508757" fill="none" stroke="#1a1a1a" stroke-width="2.3" />
<path d="M693.4568748283987,535.8619994508757 L699.0800565067128,542.2361525564006 L692.4636703059552,544.3037732441373 Z" fill="#1a1a1a" />
<text x="716.0" y="560.0" font-size="13.5" font-family="Helvetica" text-anchor="middle" dominant-baseline="central" fill="#1a1a1a">X</text>
<circle cx="554" cy="512" r="25" fill="#e9e9e9" stroke="#1a1a1a" stroke-width="1.7" />
<text x="554" y="512" font-size="13" font-family="Helvetica" text-anchor="middle" dominant-baseline="central" fill="#1a1a1a" font-weight="bold">00</text>
<circle cx="686" cy="512" r="25" fill="#e9e9e9" stroke="#1a1a1a" stroke-width="1.7" />
<text x="686" y="512" font-size="13" font-family="Helvetica" text-anchor="middle" dominant-baseline="central" fill="#1a1a1a" font-weight="bold">01</text>
<circle cx="554" cy="608" r="25" fill="#e9e9e9" stroke="#1a1a1a" stroke-width="1.7" />
<text x="554" y="608" font-size="13" font-family="Helvetica" text-anchor="middle" dominant-baseline="central" fill="#1a1a1a" font-weight="bold">10</text>
<circle cx="686" cy="608" r="25" fill="#e9e9e9" stroke="#1a1a1a" stroke-width="1.7" />
<text x="686" y="608" font-size="13" font-family="Helvetica" text-anchor="middle" dominant-baseline="central" fill="#1a1a1a" font-weight="bold">11</text>
<text x="990" y="444" font-size="16" font-family="Helvetica" text-anchor="middle" font-weight="bold" fill="#1a1a1a">Hidden-state Mk</text>
<text x="990" y="462" font-size="12" font-family="Helvetica" text-anchor="middle" fill="#777">observed rate depends on a hidden class</text>
<path d="M948.3783213947866,517.5405275897242 Q990.0,527.0,1031.6216786052134,517.5405275897242" fill="none" stroke="#1a1a1a" stroke-width="2.3" />
<path d="M1031.6216786052134,517.5405275897242 L1024.821553618227,522.6403609361546 L1023.285292150908,515.880810479951 Z" fill="#1a1a1a" />
<text x="990.0" y="542.0" font-size="13.5" font-family="Helvetica" text-anchor="middle" dominant-baseline="central" fill="#1a1a1a">slow</text>
<path d="M1031.6216786052134,506.4594724102758 Q990.0,497.0,948.3783213947866,506.4594724102758" fill="none" stroke="#1a1a1a" stroke-width="2.3" />
<path d="M948.3783213947866,506.4594724102758 L955.1784463817729,501.3596390638454 L956.714707849092,508.11918952004896 Z" fill="#1a1a1a" />
<path d="M948.3783213947866,613.5405275897242 Q990.0,623.0,1031.6216786052134,613.5405275897242" fill="none" stroke="#1a1a1a" stroke-width="2.3" />
<path d="M1031.6216786052134,613.5405275897242 L1024.821553618227,618.6403609361546 L1023.285292150908,611.880810479951 Z" fill="#1a1a1a" />
<path d="M1031.6216786052134,602.4594724102758 Q990.0,593.0,948.3783213947866,602.4594724102758" fill="none" stroke="#1a1a1a" stroke-width="2.3" />
<path d="M948.3783213947866,602.4594724102758 L955.1784463817729,597.3596390638454 L956.714707849092,604.119189520049 Z" fill="#1a1a1a" />
<text x="990.0" y="578.0" font-size="13.5" font-family="Helvetica" text-anchor="middle" dominant-baseline="central" fill="#1a1a1a">fast</text>
<path d="M916.5431251716013,535.8619994508757 Q909.0,560.0,916.5431251716013,584.1380005491243" fill="none" stroke="#999" stroke-width="2.3" />
<path d="M916.5431251716013,584.1380005491243 L910.9199434932872,577.7638474435994 L917.5363296940448,575.6962267558627 Z" fill="#999" />
<path d="M931.4568748283987,584.1380005491243 Q939.0,560.0,931.4568748283987,535.8619994508757" fill="none" stroke="#999" stroke-width="2.3" />
<path d="M931.4568748283987,535.8619994508757 L937.0800565067128,542.2361525564006 L930.4636703059552,544.3037732441373 Z" fill="#999" />
<path d="M1048.5431251716013,535.8619994508757 Q1041.0,560.0,1048.5431251716013,584.1380005491243" fill="none" stroke="#999" stroke-width="2.3" />
<path d="M1048.5431251716013,584.1380005491243 L1042.9199434932873,577.7638474435994 L1049.5363296940448,575.6962267558627 Z" fill="#999" />
<path d="M1063.4568748283987,584.1380005491243 Q1071.0,560.0,1063.4568748283987,535.8619994508757" fill="none" stroke="#999" stroke-width="2.3" />
<path d="M1063.4568748283987,535.8619994508757 L1069.0800565067127,542.2361525564006 L1062.4636703059552,544.3037732441373 Z" fill="#999" />
<text x="872" y="512" font-size="12" font-family="Helvetica" text-anchor="middle" dominant-baseline="central" font-style="italic" fill="#777">slow</text>
<text x="872" y="608" font-size="12" font-family="Helvetica" text-anchor="middle" dominant-baseline="central" font-style="italic" fill="#777">fast</text>
<circle cx="924" cy="512" r="25" fill="#4477AA" stroke="#1a1a1a" stroke-width="1.7" />
<text x="924" y="512" font-size="16" font-family="Helvetica" text-anchor="middle" dominant-baseline="central" fill="white" font-weight="bold">0</text>
<circle cx="1056" cy="512" r="25" fill="#EE6677" stroke="#1a1a1a" stroke-width="1.7" />
<text x="1056" y="512" font-size="16" font-family="Helvetica" text-anchor="middle" dominant-baseline="central" fill="white" font-weight="bold">1</text>
<circle cx="924" cy="608" r="25" fill="#4477AA" stroke="#1a1a1a" stroke-width="1.7" />
<text x="924" y="608" font-size="16" font-family="Helvetica" text-anchor="middle" dominant-baseline="central" fill="white" font-weight="bold">0</text>
<circle cx="1056" cy="608" r="25" fill="#EE6677" stroke="#1a1a1a" stroke-width="1.7" />
<text x="1056" y="608" font-size="16" font-family="Helvetica" text-anchor="middle" dominant-baseline="central" fill="white" font-weight="bold">1</text>
</svg>