<?xml version="1.0" encoding="UTF-8"?>
<svg xmlns="http://www.w3.org/2000/svg" xmlns:xlink="http://www.w3.org/1999/xlink"
     width="1200" height="560" viewBox="0 0 1200 560">
<defs>
</defs>
<rect x="0" y="0" width="1200" height="560" fill="white" />
<text x="600.0" y="46" font-size="32" font-family="Helvetica" text-anchor="middle" font-weight="bold" fill="#1a1a1a">Two ways a branch is traversed</text>
<text x="70" y="124" font-size="22" font-family="Helvetica" text-anchor="start" fill="#1a1a1a" font-weight="bold">A   continuous: draw the endpoint</text>
<path d="M110,450 L110,150" stroke="#1a1a1a" stroke-width="1.6" />
<path d="M110,450 L470,450" stroke="#1a1a1a" stroke-width="1.6" />
<text x="290.0" y="484" font-size="18" font-family="Helvetica" text-anchor="middle" fill="#8a8a8a">time (one branch)</text>
<text x="76" y="300.0" font-size="18" font-family="Helvetica" text-anchor="middle" fill="#8a8a8a" transform="rotate(-90, 76, 300.0)">trait value</text>
<circle cx="110" cy="300.0" r="5" fill="#1a1a1a" />
<text x="120" y="286.0" font-size="18" font-family="Helvetica" text-anchor="start" fill="#8a8a8a">root value</text>
<text x="290.0" y="158" font-size="20" font-family="Helvetica" text-anchor="middle" fill="#1a1a1a">endpoint = one Normal draw</text>
<text x="290.0" y="180" font-size="18" font-family="Helvetica" text-anchor="middle" fill="#8a8a8a">(the path is never simulated)</text>
<path d="M347.6,173.99999999999997 L348.6398020759795,173.99999999999997 L348.90212081529774,177.1898734177215 L349.2212378676551,180.379746835443 L349.60695231192165,183.56962025316454 L350.07014372611513,186.75949367088606 L350.62275014275224,189.94936708860757 L351.277707060421,193.1392405063291 L352.0488408829011,196.3291139240506 L352.95071068312495,199.51898734177212 L353.9983931418054,202.70886075949363 L355.20720692895037,205.89873417721518 L356.59237469910613,209.0886075949367 L358.16862324979564,212.2784810126582 L359.9497252074955,215.46835443037972 L361.9479887818964,218.65822784810126 L364.1737055557854,221.84810126582278 L366.6345698076513,225.0379746835443 L369.33508631798856,228.2278481012658 L372.27598678385954,231.41772151898732 L375.453677639554,234.60759493670884 L378.8597440308718,237.79746835443035 L382.4805357047308,240.98734177215186 L386.2968604696971,244.1772151898734 L390.28380951523457,247.36708860759492 L394.4107361649956,250.55696202531644 L398.64140557061563,253.74683544303798 L402.9343274960344,256.9367088607595 L407.24327785207214,260.126582278481 L411.518007254356,263.3164556962025 L415.7051269086978,266.50632911392404 L419.7491539535929,269.69620253164555 L423.5936904303502,272.88607594936707 L427.18270274799374,276.0759493670886 L430.4618622956808,279.2658227848101 L433.3799031271795,282.4556962025316 L435.88994973327794,285.6455696202531 L437.95076707323864,288.83544303797464 L439.5278863908136,292.0253164556962 L440.5945639065638,295.2151898734177 L441.13253514087086,298.40506329113924 L441.13253514087086,301.59493670886076 L440.5945639065638,304.7848101265823 L439.5278863908136,307.9746835443038 L437.9507670732387,311.1645569620253 L435.88994973327794,314.3544303797469 L433.3799031271795,317.5443037974684 L430.4618622956808,320.7341772151899 L427.18270274799374,323.9240506329114 L423.5936904303502,327.11392405063293 L419.7491539535929,330.30379746835445 L415.7051269086978,333.49367088607596 L411.518007254356,336.6835443037975 L407.24327785207214,339.873417721519 L402.9343274960344,343.0632911392405 L398.64140557061563,346.253164556962 L394.4107361649957,349.44303797468353 L390.2838095152346,352.63291139240505 L386.2968604696971,355.82278481012656 L382.48053570473087,359.0126582278481 L378.85974403087187,362.2025316455696 L375.45367763955403,365.3924050632911 L372.2759867838596,368.5822784810126 L369.33508631798856,371.7721518987342 L366.6345698076513,374.9620253164557 L364.1737055557854,378.1518987341772 L361.9479887818964,381.34177215189874 L359.9497252074955,384.53164556962025 L358.16862324979564,387.7215189873418 L356.59237469910613,390.91139240506334 L355.2072069289503,394.10126582278485 L353.9983931418054,397.29113924050637 L352.95071068312495,400.4810126582279 L352.0488408829011,403.6708860759494 L351.277707060421,406.8607594936709 L350.62275014275224,410.0506329113924 L350.07014372611513,413.24050632911394 L349.60695231192165,416.43037974683546 L349.2212378676551,419.62025316455697 L348.90212081529774,422.8101265822785 L348.6398020759795,426.0" fill="none" stroke="#1a1a1a" stroke-width="2.4" />
<path d="M347.6,173.99999999999997 L347.6,426.0" stroke="#9a9a9a" stroke-width="1.2" />
<path d="M110,300.0 L347.6,306.3" stroke="#9a9a9a" stroke-width="1.6" stroke-dasharray="7,6" />
<circle cx="347.6" cy="232.79999999999998" r="4.5" fill="white" stroke="#1a1a1a" stroke-width="1.6" />
<circle cx="347.6" cy="270.6" r="4.5" fill="white" stroke="#1a1a1a" stroke-width="1.6" />
<circle cx="347.6" cy="306.3" r="4.5" fill="white" stroke="#1a1a1a" stroke-width="1.6" />
<circle cx="347.6" cy="337.8" r="4.5" fill="white" stroke="#1a1a1a" stroke-width="1.6" />
<circle cx="347.6" cy="371.4" r="4.5" fill="white" stroke="#1a1a1a" stroke-width="1.6" />
<circle cx="347.6" cy="306.3" r="6.0" fill="#1a1a1a" stroke="#1a1a1a" stroke-width="1.6" />
<text x="453.20000000000005" y="300.0" font-size="18" font-family="Helvetica" text-anchor="start" dominant-baseline="central" fill="#8a8a8a">Normal(x0, sigma^2 t)</text>
<text x="680" y="124" font-size="22" font-family="Helvetica" text-anchor="start" fill="#1a1a1a" font-weight="bold">B   discrete: simulate the jumps</text>
<path d="M720,450 L720,150" stroke="#1a1a1a" stroke-width="1.6" />
<path d="M720,450 L1080,450" stroke="#1a1a1a" stroke-width="1.6" />
<text x="900.0" y="484" font-size="18" font-family="Helvetica" text-anchor="middle" fill="#8a8a8a">time (one branch)</text>
<text x="686" y="300.0" font-size="18" font-family="Helvetica" text-anchor="middle" fill="#8a8a8a" transform="rotate(-90, 686, 300.0)">state</text>
<path d="M720,390.0 L1080,390.0" stroke="#e4e4e4" stroke-width="1.0" />
<text x="708" y="390.0" font-size="18" font-family="Helvetica" text-anchor="end" dominant-baseline="central" fill="#8a8a8a">0</text>
<path d="M720,300.0 L1080,300.0" stroke="#e4e4e4" stroke-width="1.0" />
<text x="708" y="300.0" font-size="18" font-family="Helvetica" text-anchor="end" dominant-baseline="central" fill="#8a8a8a">1</text>
<path d="M720,210.0 L1080,210.0" stroke="#e4e4e4" stroke-width="1.0" />
<text x="708" y="210.0" font-size="18" font-family="Helvetica" text-anchor="end" dominant-baseline="central" fill="#8a8a8a">2</text>
<path d="M720.0,300.0 L731.0894931179464,300.0" stroke="#1a1a1a" stroke-width="4.0" stroke-linecap="round" />
<path d="M731.0894931179464,390.0 L872.1632216963657,390.0" stroke="#1a1a1a" stroke-width="4.0" stroke-linecap="round" />
<path d="M731.0894931179464,300.0 L731.0894931179464,390.0" stroke="#1a1a1a" stroke-width="2.0" />
<circle cx="731.0894931179464" cy="390.0" r="4.0" fill="#1a1a1a" />
<path d="M872.1632216963657,300.0 L1080.0,300.0" stroke="#1a1a1a" stroke-width="4.0" stroke-linecap="round" />
<path d="M872.1632216963657,390.0 L872.1632216963657,300.0" stroke="#1a1a1a" stroke-width="2.0" />
<circle cx="872.1632216963657" cy="300.0" r="4.0" fill="#1a1a1a" />
<text x="900.0" y="156" font-size="20" font-family="Helvetica" text-anchor="middle" fill="#1a1a1a">every jump simulated exactly</text>
<text x="900.0" y="178" font-size="18" font-family="Helvetica" text-anchor="middle" fill="#8a8a8a">(a stochastic character map)</text>
</svg>