<?xml version="1.0" encoding="UTF-8"?>
<svg xmlns="http://www.w3.org/2000/svg" xmlns:xlink="http://www.w3.org/1999/xlink"
     width="1020" height="720" viewBox="0 0 1020 720">
<defs>
</defs>
<rect x="0" y="0" width="1020" height="720" fill="white" />
<text x="510.0" y="52" font-size="32" font-family="Helvetica" text-anchor="middle" font-weight="bold" fill="#1a1a1a">Coupling enters through the loss rate</text>
<text x="510.0" y="100" font-size="20" font-family="Helvetica" text-anchor="middle" fill="#1a1a1a">local field   f_i  =  h_i  +  sum_j J_ij sigma_j     (over present partners)</text>
<text x="510.0" y="134" font-size="20" font-family="Helvetica" text-anchor="middle" fill="#1a1a1a">loss rate   loss_i  =  base_loss * exp(-beta * f_i)</text>
<path d="M190,190 L190,570" stroke="#bdbdbd" stroke-width="1.6" />
<path d="M190,570 L830,570" stroke="#bdbdbd" stroke-width="1.6" />
<path d="M393.6363636363636,190 L393.6363636363636,570" stroke="#dcdcdc" stroke-width="1.4" stroke-dasharray="4,4" />
<path d="M190.0,203.10095538071994 L192.9090909090909,210.36604322666574 L195.8181818181818,217.48727269471874 L198.72727272727275,224.4674923716173 L201.63636363636365,231.30949443830298 L204.54545454545456,238.0160157868304 L207.45454545454547,244.58973911516034 L210.36363636363637,251.03329400027502 L213.27272727272728,257.3492579500437 L216.18181818181822,263.54015743426027 L219.09090909090912,269.6084688952648 L222.00000000000003,275.5566197385537 L224.90909090909093,281.3869893037739 L227.81818181818184,287.1019098164908 L230.72727272727275,292.70366732110944 L233.63636363636368,298.19450259532283 L236.54545454545456,303.5766120464527 L239.4545454545455,308.85214859004196 L242.3636363636364,314.0232225110495 L245.2727272727273,319.0919023079922 L248.18181818181824,324.0602155203722 L251.09090909090912,328.93014953971954 L254.00000000000006,333.7036524045752 L256.909090909091,338.38263357973267 L259.81818181818187,342.96896472004937 L262.7272727272728,347.4644804191332 L265.6363636363637,351.870978943205 L268.5454545454546,356.1902229504282 L271.4545454545455,360.4239401959966 L274.36363636363643,364.5738242232586 L277.27272727272737,368.64153504115785 L280.18181818181824,372.62869978825813 L283.0909090909091,376.5369133836213 L286.0000000000001,380.3677391647957 L288.909090909091,384.1227095131722 L291.81818181818187,387.803326466957 L294.7272727272728,391.4110623220073 L297.63636363636374,394.9473602207687 L300.5454545454546,398.41363472955214 L303.45454545454555,401.8112724043787 L306.3636363636365,405.1416323456208 L309.27272727272737,408.4060467416602 L312.18181818181824,411.60582140178144 L315.0909090909092,414.7422362785129 L318.0000000000001,417.8165459796247 L320.909090909091,420.82998026998854 L323.8181818181819,423.78374456350025 L326.72727272727286,426.6790204052613 L329.63636363636374,429.5169659442126 L332.5454545454547,432.2987163964095 L335.4545454545456,435.02538449912333 L338.3636363636365,437.69806095595123 L341.27272727272737,440.3178148731122 L344.1818181818183,442.8856941871036 L347.09090909090924,445.4027260838897 L350.0000000000001,447.86991740979033 L352.90909090909105,450.28825507423204 L355.818181818182,452.65870644452554 L358.72727272727286,454.9822197328254 L361.6363636363638,457.2597243754276 L364.5454545454547,459.4921314045562 L367.4545454545456,461.6803338127887 L370.3636363636365,463.8252069102649 L373.27272727272737,465.9276086748224 L376.1818181818183,467.98838009519943 L379.09090909090924,470.0083455074415 L382.0000000000001,471.9883129246467 L384.909090909091,473.92907436018186 L387.818181818182,475.8314061444983 L390.72727272727286,477.6960692356746 L393.63636363636374,479.52380952380963 L396.5454545454547,481.31535812938887 L399.4545454545456,483.07143169574226 L402.3636363636365,484.7927326757109 L405.27272727272737,486.4799496126378 L408.1818181818183,488.1337574157942 L411.09090909090924,489.7548176303525 L414.0000000000001,491.3437787020129 L416.909090909091,492.90127623639046 L419.818181818182,494.42793325326596 L422.72727272727286,495.9243604358017 L425.63636363636374,497.3911563748235 L428.5454545454547,498.82890780826426 L431.4545454545456,500.23818985586786 L434.3636363636365,501.619566249244 L437.2727272727274,502.9735895573684 L440.18181818181836,504.3008014076185 L443.09090909090924,505.60173270243064 L446.00000000000017,506.8769038316687 L448.90909090909105,508.1268248807869 L451.818181818182,509.3519958348708 L454.72727272727286,510.5529067786378 L457.6363636363638,511.73003809247774 L460.5454545454547,512.8838606446116 L463.4545454545456,514.0148359794445 L466.3636363636365,515.1234165021904 L469.2727272727274,516.2100456598396 L472.18181818181836,517.2751581185439 L475.09090909090924,518.3191799374882 L478.00000000000017,519.3425287393209 L480.9090909090911,520.3456138772071 L483.818181818182,521.3288365985771 L486.7272727272729,522.292590205629 L489.63636363636385,523.2372602126559 L492.54545454545473,524.1632245002562 L495.45454545454567,525.0708534664916 L498.36363636363654,525.9605101750502 L501.2727272727275,526.8325505004779 L504.18181818181836,527.687323270532 L507.0909090909093,528.525170405718 L510.0000000000002,529.346427056061 L512.9090909090911,530.1514217351715 L515.818181818182,530.9404764516547 L518.727272727273,531.713906837918 L521.6363636363639,532.4720222764284 L524.5454545454547,533.2151260234697 L527.4545454545456,533.9435153304488 L530.3636363636366,534.6574815628005 L533.2727272727275,535.3573103165376 L536.1818181818184,536.0432815324925 L539.0909090909092,536.7156696082982 L542.0000000000002,537.3747435081501 L544.909090909091,538.0207668703961 L547.818181818182,538.6539981129948 L550.727272727273,539.2746905368865 L553.6363636363639,539.8830924273167 L556.5454545454547,540.4794471531536 L559.4545454545457,541.0639932642392 L562.3636363636365,541.6369645868119 L565.2727272727275,542.1985903170406 L568.1818181818184,542.7490951127056 L571.0909090909092,543.2886991830654 L574.0000000000002,543.8176183769431 L576.9090909090912,544.3360642690684 L579.818181818182,544.844244244711 L582.727272727273,545.342361582637 L585.6363636363639,545.8306155364231 L588.5454545454547,546.3092014141611 L591.4545454545456,546.7783106565831 L594.3636363636367,547.2381309136412 L597.2727272727275,547.688846119569 L600.1818181818185,548.1306365664586 L603.0909090909092,548.5636789763795 L606.0000000000002,548.9881465720695 L608.9090909090911,549.4042091462265 L611.8181818181821,549.8120331294278 L614.727272727273,550.2117816567044 L617.636363636364,550.6036146327973 L620.5454545454547,550.9876887961213 L623.4545454545457,551.364157781463 L626.3636363636366,551.733172181436 L629.2727272727276,552.0948796067206 L632.1818181818185,552.4494247451098 L635.0909090909093,552.7969494193862 L638.0000000000002,553.1375926440534 L640.9090909090912,553.4714906809431 L643.818181818182,553.798777093722 L646.727272727273,554.1195828013193 L649.636363636364,554.4340361302955 L652.5454545454548,554.7422628661748 L655.4545454545457,555.0443863037613 L658.3636363636367,555.3405272964584 L661.2727272727275,555.630804304612 L664.1818181818185,555.9153334428955 L667.0909090909093,556.1942285267581 L670.0000000000003,556.4676011179521 L672.9090909090912,556.7355605691588 L675.8181818181822,556.9982140677316 L678.727272727273,557.2556666785722 L681.636363636364,557.5080213861573 L684.5454545454548,557.7553791357351 L687.4545454545457,557.9978388737032 L690.3636363636367,558.23549758719 L693.2727272727276,558.4684503428496 L696.1818181818185,558.6967903248902 L699.0909090909093,558.9206088723492 L702.0000000000003,559.1399955156302 L704.9090909090912,559.3550380123153 L707.8181818181821,559.5658223822705 L710.727272727273,559.7724329420546 L713.636363636364,559.9749523386461 L716.5454545454548,560.1734615825038 L719.4545454545457,560.3680400799724 L722.3636363636366,560.5587656650451 L725.2727272727276,560.745714630499 L728.1818181818185,560.928961758413 L731.0909090909093,561.1085803500816 L734.0000000000003,561.2846422553364 L736.9090909090912,561.457217901287 L739.8181818181821,561.6263763204928 L742.727272727273,561.792185178577 L745.636363636364,561.9547108012937 L748.5454545454548,562.1140182010589 L751.4545454545457,562.2701711029566 L754.3636363636367,562.42323197023 L757.2727272727276,562.5732620292663 L760.1818181818185,562.7203212940899 L763.0909090909095,562.8644685903676 L766.0000000000003,563.0057615789395 L768.9090909090912,563.1442567788854 L771.8181818181822,563.2800095901317 L774.7272727272731,563.413074315613 L777.636363636364,563.5435041829936 L780.5454545454548,563.6713513659598 L783.4545454545458,563.7966670050891 L786.3636363636367,563.9195012283084 L789.2727272727277,564.0399031709445 L792.1818181818185,564.15792099538 L795.0909090909095,564.2736019103182 L798.0000000000005,564.3869921896676 L800.9090909090913,564.4981371910517 L803.8181818181821,564.6070813739532 L806.7272727272731,564.7138683174976 L809.6363636363641,564.8185407378863 L812.545454545455,564.9211405054832 L815.4545454545457,565.0217086615631 L818.3636363636367,565.1202854347297 L821.2727272727277,565.2169102570064 L824.1818181818186,565.3116217796105 L827.0909090909093,565.404457888414 L830.0000000000005,565.495455719098" fill="none" stroke="#1a1a1a" stroke-width="3.4" stroke-linejoin="round" />
<text x="146" y="380.0" font-size="22" font-family="Helvetica" text-anchor="middle" fill="#8a8a8a" transform="rotate(-90 146 380.0)">loss rate</text>
<text x="510.0" y="616" font-size="22" font-family="Helvetica" text-anchor="middle" fill="#8a8a8a">local field  f</text>
<circle cx="393.6363636363636" cy="479.5238095238095" r="5" fill="#999" />
<text x="405.6363636363636" y="465.5238095238095" font-size="18" font-family="Helvetica" text-anchor="start" fill="#8a8a8a">base_loss</text>
<circle cx="248.18181818181816" cy="324.06021552037214" r="8" fill="#cc4b3c" stroke="#1a1a1a" stroke-width="1.6" />
<text x="268.18181818181813" y="312.06021552037214" font-size="18" font-family="Helvetica" text-anchor="start" fill="#cc4b3c" font-weight="bold">no partners present:</text>
<text x="268.18181818181813" y="336.06021552037214" font-size="18" font-family="Helvetica" text-anchor="start" fill="#cc4b3c" font-weight="bold">small field, fast loss</text>
<circle cx="684.5454545454545" cy="557.755379135735" r="8" fill="#2f8f4e" stroke="#1a1a1a" stroke-width="1.6" />
<text x="684.5454545454545" y="513.755379135735" font-size="18" font-family="Helvetica" text-anchor="middle" fill="#2f8f4e" font-weight="bold">partners present:</text>
<text x="684.5454545454545" y="537.755379135735" font-size="18" font-family="Helvetica" text-anchor="middle" fill="#2f8f4e" font-weight="bold">large field, protected</text>
<text x="510.0" y="666" font-size="18" font-family="Helvetica" text-anchor="middle" fill="#8a8a8a">more present partners  =&gt;  lower loss, so coupled families stay together</text>
</svg>