<?xml version="1.0" encoding="utf-8" standalone="no"?>
<!DOCTYPE svg PUBLIC "-//W3C//DTD SVG 1.1//EN"
  "http://www.w3.org/Graphics/SVG/1.1/DTD/svg11.dtd">
<svg xmlns:xlink="http://www.w3.org/1999/xlink" width="456.768pt" height="343.636975pt" viewBox="0 0 456.768 343.636975" xmlns="http://www.w3.org/2000/svg" version="1.1">
 <metadata>
  <rdf:RDF xmlns:dc="http://purl.org/dc/elements/1.1/" xmlns:cc="http://creativecommons.org/ns#" xmlns:rdf="http://www.w3.org/1999/02/22-rdf-syntax-ns#">
   <cc:Work>
    <dc:type rdf:resource="http://purl.org/dc/dcmitype/StillImage"/>
    <dc:date>2026-07-22T12:24:38.749271</dc:date>
    <dc:format>image/svg+xml</dc:format>
    <dc:creator>
     <cc:Agent>
      <dc:title>Matplotlib v3.10.7, https://matplotlib.org/</dc:title>
     </cc:Agent>
    </dc:creator>
   </cc:Work>
  </rdf:RDF>
 </metadata>
 <defs>
  <style type="text/css">*{stroke-linejoin: round; stroke-linecap: butt}</style>
 </defs>
 <g id="figure_1">
  <g id="patch_1">
   <path d="M 0 343.636975 
L 456.768 343.636975 
L 456.768 0 
L 0 0 
z
" style="fill: #ffffff"/>
  </g>
  <g id="axes_1">
   <g id="patch_2">
    <path d="M 69.408 279.067375 
L 449.568 279.067375 
L 449.568 26.779375 
L 69.408 26.779375 
z
" style="fill: #ffffff"/>
   </g>
   <g id="matplotlib.axis_1">
    <g id="xtick_1">
     <g id="line2d_1">
      <path d="M 174.630857 279.067375 
L 174.630857 26.779375 
" clip-path="url(#p07a8636dbf)" style="fill: none; stroke: #e6e6e6; stroke-width: 0.8; stroke-linecap: square"/>
     </g>
     <g id="line2d_2">
      <defs>
       <path id="mee777acf0a" d="M 0 0 
L 0 3.5 
" style="stroke: #1a1a1a; stroke-width: 0.8"/>
      </defs>
      <g>
       <use xlink:href="#mee777acf0a" x="174.630857" y="279.067375" style="fill: #ffffff; stroke: #1a1a1a; stroke-width: 0.8"/>
      </g>
     </g>
     <g id="text_1">
      <!-- ZOMBI 1 -->
      <g style="fill: #1a1a1a" transform="translate(154.629295 293.240812) scale(0.1 -0.1)">
       <defs>
        <path id="Helvetica-5a" d="M 147 516 
L 2963 4044 
L 353 4044 
L 353 4591 
L 3763 4591 
L 3763 4056 
L 931 547 
L 3763 547 
L 3763 0 
L 147 0 
L 147 516 
z
M 2059 4591 
L 2059 4591 
z
" transform="scale(0.015625)"/>
        <path id="Helvetica-4f" d="M 2469 4716 
Q 3684 4716 4269 3934 
Q 4725 3325 4725 2375 
Q 4725 1347 4203 666 
Q 3591 -134 2456 -134 
Q 1397 -134 791 566 
Q 250 1241 250 2272 
Q 250 3203 713 3866 
Q 1306 4716 2469 4716 
z
M 2531 422 
Q 3353 422 3720 1011 
Q 4088 1600 4088 2366 
Q 4088 3175 3664 3669 
Q 3241 4163 2506 4163 
Q 1794 4163 1344 3673 
Q 894 3184 894 2231 
Q 894 1469 1280 945 
Q 1666 422 2531 422 
z
M 2488 4716 
L 2488 4716 
z
" transform="scale(0.015625)"/>
        <path id="Helvetica-4d" d="M 472 4591 
L 1363 4591 
L 2681 709 
L 3991 4591 
L 4872 4591 
L 4872 0 
L 4281 0 
L 4281 2709 
Q 4281 2850 4287 3175 
Q 4294 3500 4294 3872 
L 2984 0 
L 2369 0 
L 1050 3872 
L 1050 3731 
Q 1050 3563 1058 3217 
Q 1066 2872 1066 2709 
L 1066 0 
L 472 0 
L 472 4591 
z
" transform="scale(0.015625)"/>
        <path id="Helvetica-42" d="M 2213 2650 
Q 2606 2650 2825 2759 
Q 3169 2931 3169 3378 
Q 3169 3828 2803 3984 
Q 2597 4072 2191 4072 
L 1081 4072 
L 1081 2650 
L 2213 2650 
z
M 2422 531 
Q 2994 531 3238 863 
Q 3391 1072 3391 1369 
Q 3391 1869 2944 2050 
Q 2706 2147 2316 2147 
L 1081 2147 
L 1081 531 
L 2422 531 
z
M 472 4591 
L 2444 4591 
Q 3250 4591 3591 4109 
Q 3791 3825 3791 3453 
Q 3791 3019 3544 2741 
Q 3416 2594 3175 2472 
Q 3528 2338 3703 2169 
Q 4013 1869 4013 1341 
Q 4013 897 3734 538 
Q 3319 0 2413 0 
L 472 0 
L 472 4591 
z
" transform="scale(0.015625)"/>
        <path id="Helvetica-49" d="M 628 4591 
L 1256 4591 
L 1256 0 
L 628 0 
L 628 4591 
z
" transform="scale(0.015625)"/>
        <path id="Helvetica-20" transform="scale(0.015625)"/>
        <path id="Helvetica-31" d="M 613 3169 
L 613 3600 
Q 1222 3659 1462 3798 
Q 1703 3938 1822 4456 
L 2266 4456 
L 2266 0 
L 1666 0 
L 1666 3169 
L 613 3169 
z
" transform="scale(0.015625)"/>
       </defs>
       <use xlink:href="#Helvetica-5a"/>
       <use xlink:href="#Helvetica-4f" transform="translate(61.083984 0)"/>
       <use xlink:href="#Helvetica-4d" transform="translate(138.867188 0)"/>
       <use xlink:href="#Helvetica-42" transform="translate(222.167969 0)"/>
       <use xlink:href="#Helvetica-49" transform="translate(288.867188 0)"/>
       <use xlink:href="#Helvetica-20" transform="translate(316.650391 0)"/>
       <use xlink:href="#Helvetica-31" transform="translate(344.433594 0)"/>
      </g>
      <!-- (Python) -->
      <g style="fill: #1a1a1a" transform="translate(155.735545 304.073937) scale(0.1 -0.1)">
       <defs>
        <path id="Helvetica-28" d="M 1894 4666 
Q 1403 3713 1256 3263 
Q 1034 2578 1034 1681 
Q 1034 775 1288 25 
Q 1444 -438 1903 -1306 
L 1525 -1306 
Q 1069 -594 959 -397 
Q 850 -200 722 138 
Q 547 600 478 1125 
Q 444 1397 444 1644 
Q 444 2569 734 3291 
Q 919 3750 1503 4666 
L 1894 4666 
z
" transform="scale(0.015625)"/>
        <path id="Helvetica-50" d="M 547 4591 
L 2613 4591 
Q 3225 4591 3600 4245 
Q 3975 3900 3975 3275 
Q 3975 2738 3640 2339 
Q 3306 1941 2613 1941 
L 1169 1941 
L 1169 0 
L 547 0 
L 547 4591 
z
M 3347 3272 
Q 3347 3778 2972 3959 
Q 2766 4056 2406 4056 
L 1169 4056 
L 1169 2466 
L 2406 2466 
Q 2825 2466 3086 2644 
Q 3347 2822 3347 3272 
z
" transform="scale(0.015625)"/>
        <path id="Helvetica-79" d="M 2503 3347 
L 3125 3347 
Q 3006 3025 2597 1878 
Q 2291 1016 2084 472 
Q 1597 -809 1397 -1090 
Q 1197 -1372 709 -1372 
Q 591 -1372 527 -1362 
Q 463 -1353 369 -1328 
L 369 -816 
Q 516 -856 581 -865 
Q 647 -875 697 -875 
Q 853 -875 926 -823 
Q 1000 -772 1050 -697 
Q 1066 -672 1162 -440 
Q 1259 -209 1303 -97 
L 66 3347 
L 703 3347 
L 1600 622 
L 2503 3347 
z
M 1597 3428 
L 1597 3428 
z
" transform="scale(0.015625)"/>
        <path id="Helvetica-74" d="M 525 4281 
L 1094 4281 
L 1094 3347 
L 1628 3347 
L 1628 2888 
L 1094 2888 
L 1094 703 
Q 1094 528 1213 469 
Q 1278 434 1431 434 
Q 1472 434 1519 436 
Q 1566 438 1628 444 
L 1628 0 
Q 1531 -28 1426 -40 
Q 1322 -53 1200 -53 
Q 806 -53 665 148 
Q 525 350 525 672 
L 525 2888 
L 72 2888 
L 72 3347 
L 525 3347 
L 525 4281 
z
" transform="scale(0.015625)"/>
        <path id="Helvetica-68" d="M 413 4606 
L 975 4606 
L 975 2894 
Q 1175 3147 1334 3250 
Q 1606 3428 2013 3428 
Q 2741 3428 3000 2919 
Q 3141 2641 3141 2147 
L 3141 0 
L 2563 0 
L 2563 2109 
Q 2563 2478 2469 2650 
Q 2316 2925 1894 2925 
Q 1544 2925 1259 2684 
Q 975 2444 975 1775 
L 975 0 
L 413 0 
L 413 4606 
z
" transform="scale(0.015625)"/>
        <path id="Helvetica-6f" d="M 1741 363 
Q 2300 363 2508 786 
Q 2716 1209 2716 1728 
Q 2716 2197 2566 2491 
Q 2328 2953 1747 2953 
Q 1231 2953 997 2559 
Q 763 2166 763 1609 
Q 763 1075 997 719 
Q 1231 363 1741 363 
z
M 1763 3444 
Q 2409 3444 2856 3012 
Q 3303 2581 3303 1744 
Q 3303 934 2909 406 
Q 2516 -122 1688 -122 
Q 997 -122 590 345 
Q 184 813 184 1600 
Q 184 2444 612 2944 
Q 1041 3444 1763 3444 
z
M 1744 3428 
L 1744 3428 
z
" transform="scale(0.015625)"/>
        <path id="Helvetica-6e" d="M 413 3347 
L 947 3347 
L 947 2872 
Q 1184 3166 1450 3294 
Q 1716 3422 2041 3422 
Q 2753 3422 3003 2925 
Q 3141 2653 3141 2147 
L 3141 0 
L 2569 0 
L 2569 2109 
Q 2569 2416 2478 2603 
Q 2328 2916 1934 2916 
Q 1734 2916 1606 2875 
Q 1375 2806 1200 2600 
Q 1059 2434 1017 2257 
Q 975 2081 975 1753 
L 975 0 
L 413 0 
L 413 3347 
z
M 1734 3428 
L 1734 3428 
z
" transform="scale(0.015625)"/>
        <path id="Helvetica-29" d="M 222 -1306 
Q 719 -338 863 106 
Q 1081 778 1081 1681 
Q 1081 2584 828 3334 
Q 672 3797 213 4666 
L 591 4666 
Q 1072 3897 1173 3717 
Q 1275 3538 1394 3222 
Q 1544 2831 1608 2450 
Q 1672 2069 1672 1716 
Q 1672 791 1378 66 
Q 1194 -400 613 -1306 
L 222 -1306 
z
" transform="scale(0.015625)"/>
       </defs>
       <use xlink:href="#Helvetica-28"/>
       <use xlink:href="#Helvetica-50" transform="translate(33.300781 0)"/>
       <use xlink:href="#Helvetica-79" transform="translate(100 0)"/>
       <use xlink:href="#Helvetica-74" transform="translate(150 0)"/>
       <use xlink:href="#Helvetica-68" transform="translate(177.783203 0)"/>
       <use xlink:href="#Helvetica-6f" transform="translate(233.398438 0)"/>
       <use xlink:href="#Helvetica-6e" transform="translate(289.013672 0)"/>
       <use xlink:href="#Helvetica-29" transform="translate(344.628906 0)"/>
      </g>
     </g>
    </g>
    <g id="xtick_2">
     <g id="line2d_3">
      <path d="M 344.345143 279.067375 
L 344.345143 26.779375 
" clip-path="url(#p07a8636dbf)" style="fill: none; stroke: #e6e6e6; stroke-width: 0.8; stroke-linecap: square"/>
     </g>
     <g id="line2d_4">
      <g>
       <use xlink:href="#mee777acf0a" x="344.345143" y="279.067375" style="fill: #ffffff; stroke: #1a1a1a; stroke-width: 0.8"/>
      </g>
     </g>
     <g id="text_2">
      <!-- ZOMBI2 -->
      <g style="fill: #1a1a1a" transform="translate(325.732643 293.240812) scale(0.1 -0.1)">
       <defs>
        <path id="Helvetica-32" d="M 200 0 
Q 231 578 439 1006 
Q 647 1434 1250 1784 
L 1850 2131 
Q 2253 2366 2416 2531 
Q 2672 2791 2672 3125 
Q 2672 3516 2437 3745 
Q 2203 3975 1813 3975 
Q 1234 3975 1013 3538 
Q 894 3303 881 2888 
L 309 2888 
Q 319 3472 525 3841 
Q 891 4491 1816 4491 
Q 2584 4491 2939 4075 
Q 3294 3659 3294 3150 
Q 3294 2613 2916 2231 
Q 2697 2009 2131 1694 
L 1703 1456 
Q 1397 1288 1222 1134 
Q 909 863 828 531 
L 3272 531 
L 3272 0 
L 200 0 
z
" transform="scale(0.015625)"/>
       </defs>
       <use xlink:href="#Helvetica-5a"/>
       <use xlink:href="#Helvetica-4f" transform="translate(61.083984 0)"/>
       <use xlink:href="#Helvetica-4d" transform="translate(138.867188 0)"/>
       <use xlink:href="#Helvetica-42" transform="translate(222.167969 0)"/>
       <use xlink:href="#Helvetica-49" transform="translate(288.867188 0)"/>
       <use xlink:href="#Helvetica-32" transform="translate(316.650391 0)"/>
      </g>
      <!-- (Rust) -->
      <g style="fill: #1a1a1a" transform="translate(330.734987 304.021437) scale(0.1 -0.1)">
       <defs>
        <path id="Helvetica-52" d="M 2622 2488 
Q 3059 2488 3314 2663 
Q 3569 2838 3569 3294 
Q 3569 3784 3213 3963 
Q 3022 4056 2703 4056 
L 1184 4056 
L 1184 2488 
L 2622 2488 
z
M 563 4591 
L 2688 4591 
Q 3213 4591 3553 4438 
Q 4200 4144 4200 3353 
Q 4200 2941 4029 2678 
Q 3859 2416 3553 2256 
Q 3822 2147 3958 1969 
Q 4094 1791 4109 1391 
L 4131 775 
Q 4141 513 4175 384 
Q 4231 166 4375 103 
L 4375 0 
L 3613 0 
Q 3581 59 3562 153 
Q 3544 247 3531 516 
L 3494 1281 
Q 3472 1731 3159 1884 
Q 2981 1969 2600 1969 
L 1184 1969 
L 1184 0 
L 563 0 
L 563 4591 
z
" transform="scale(0.015625)"/>
        <path id="Helvetica-75" d="M 975 3347 
L 975 1125 
Q 975 869 1056 706 
Q 1206 406 1616 406 
Q 2203 406 2416 931 
Q 2531 1213 2531 1703 
L 2531 3347 
L 3094 3347 
L 3094 0 
L 2563 0 
L 2569 494 
Q 2459 303 2297 172 
Q 1975 -91 1516 -91 
Q 800 -91 541 388 
Q 400 644 400 1072 
L 400 3347 
L 975 3347 
z
M 1747 3428 
L 1747 3428 
z
" transform="scale(0.015625)"/>
        <path id="Helvetica-73" d="M 747 1050 
Q 772 769 888 619 
Q 1100 347 1625 347 
Q 1938 347 2175 483 
Q 2413 619 2413 903 
Q 2413 1119 2222 1231 
Q 2100 1300 1741 1391 
L 1294 1503 
Q 866 1609 663 1741 
Q 300 1969 300 2372 
Q 300 2847 642 3140 
Q 984 3434 1563 3434 
Q 2319 3434 2653 2991 
Q 2863 2709 2856 2384 
L 2325 2384 
Q 2309 2575 2191 2731 
Q 1997 2953 1519 2953 
Q 1200 2953 1036 2831 
Q 872 2709 872 2509 
Q 872 2291 1088 2159 
Q 1213 2081 1456 2022 
L 1828 1931 
Q 2434 1784 2641 1647 
Q 2969 1431 2969 969 
Q 2969 522 2630 197 
Q 2291 -128 1597 -128 
Q 850 -128 539 211 
Q 228 550 206 1050 
L 747 1050 
z
M 1578 3428 
L 1578 3428 
z
" transform="scale(0.015625)"/>
       </defs>
       <use xlink:href="#Helvetica-28"/>
       <use xlink:href="#Helvetica-52" transform="translate(33.300781 0)"/>
       <use xlink:href="#Helvetica-75" transform="translate(105.517578 0)"/>
       <use xlink:href="#Helvetica-73" transform="translate(161.132812 0)"/>
       <use xlink:href="#Helvetica-74" transform="translate(211.132812 0)"/>
       <use xlink:href="#Helvetica-29" transform="translate(238.916016 0)"/>
      </g>
     </g>
    </g>
    <g id="text_3">
     <!-- one shared 1,000-tip tree · 10 runs each -->
     <g style="fill: #1a1a1a" transform="translate(126.078234 321.013) scale(0.15 -0.15)">
      <defs>
       <path id="Helvetica-65" d="M 1806 3422 
Q 2163 3422 2497 3255 
Q 2831 3088 3006 2822 
Q 3175 2569 3231 2231 
Q 3281 2000 3281 1494 
L 828 1494 
Q 844 984 1069 676 
Q 1294 369 1766 369 
Q 2206 369 2469 659 
Q 2619 828 2681 1050 
L 3234 1050 
Q 3213 866 3089 639 
Q 2966 413 2813 269 
Q 2556 19 2178 -69 
Q 1975 -119 1719 -119 
Q 1094 -119 659 336 
Q 225 791 225 1609 
Q 225 2416 662 2919 
Q 1100 3422 1806 3422 
z
M 2703 1941 
Q 2669 2306 2544 2525 
Q 2313 2931 1772 2931 
Q 1384 2931 1121 2651 
Q 859 2372 844 1941 
L 2703 1941 
z
M 1753 3428 
L 1753 3428 
z
" transform="scale(0.015625)"/>
       <path id="Helvetica-61" d="M 844 891 
Q 844 647 1022 506 
Q 1200 366 1444 366 
Q 1741 366 2019 503 
Q 2488 731 2488 1250 
L 2488 1703 
Q 2384 1638 2221 1594 
Q 2059 1550 1903 1531 
L 1563 1488 
Q 1256 1447 1103 1359 
Q 844 1213 844 891 
z
M 2206 2028 
Q 2400 2053 2466 2191 
Q 2503 2266 2503 2406 
Q 2503 2694 2298 2823 
Q 2094 2953 1713 2953 
Q 1272 2953 1088 2716 
Q 984 2584 953 2325 
L 428 2325 
Q 444 2944 830 3186 
Q 1216 3428 1725 3428 
Q 2316 3428 2684 3203 
Q 3050 2978 3050 2503 
L 3050 575 
Q 3050 488 3086 434 
Q 3122 381 3238 381 
Q 3275 381 3322 386 
Q 3369 391 3422 400 
L 3422 -16 
Q 3291 -53 3222 -62 
Q 3153 -72 3034 -72 
Q 2744 -72 2613 134 
Q 2544 244 2516 444 
Q 2344 219 2022 53 
Q 1700 -113 1313 -113 
Q 847 -113 551 170 
Q 256 453 256 878 
Q 256 1344 547 1600 
Q 838 1856 1309 1916 
L 2206 2028 
z
M 1741 3428 
L 1741 3428 
z
" transform="scale(0.015625)"/>
       <path id="Helvetica-72" d="M 428 3347 
L 963 3347 
L 963 2769 
Q 1028 2938 1284 3180 
Q 1541 3422 1875 3422 
Q 1891 3422 1928 3419 
Q 1966 3416 2056 3406 
L 2056 2813 
Q 2006 2822 1964 2825 
Q 1922 2828 1872 2828 
Q 1447 2828 1219 2554 
Q 991 2281 991 1925 
L 991 0 
L 428 0 
L 428 3347 
z
" transform="scale(0.015625)"/>
       <path id="Helvetica-64" d="M 769 1634 
Q 769 1097 997 734 
Q 1225 372 1728 372 
Q 2119 372 2370 708 
Q 2622 1044 2622 1672 
Q 2622 2306 2362 2611 
Q 2103 2916 1722 2916 
Q 1297 2916 1033 2591 
Q 769 2266 769 1634 
z
M 1616 3406 
Q 2000 3406 2259 3244 
Q 2409 3150 2600 2916 
L 2600 4606 
L 3141 4606 
L 3141 0 
L 2634 0 
L 2634 466 
Q 2438 156 2169 18 
Q 1900 -119 1553 -119 
Q 994 -119 584 351 
Q 175 822 175 1603 
Q 175 2334 548 2870 
Q 922 3406 1616 3406 
z
" transform="scale(0.015625)"/>
       <path id="Helvetica-2c" d="M 531 -653 
Q 747 -616 834 -350 
Q 881 -209 881 -78 
Q 881 -56 879 -39 
Q 878 -22 872 0 
L 531 0 
L 531 681 
L 1200 681 
L 1200 50 
Q 1200 -322 1050 -603 
Q 900 -884 531 -950 
L 531 -653 
z
" transform="scale(0.015625)"/>
       <path id="Helvetica-30" d="M 1731 4475 
Q 2600 4475 2988 3759 
Q 3288 3206 3288 2244 
Q 3288 1331 3016 734 
Q 2622 -122 1728 -122 
Q 922 -122 528 578 
Q 200 1163 200 2147 
Q 200 2909 397 3456 
Q 766 4475 1731 4475 
z
M 1725 391 
Q 2163 391 2422 778 
Q 2681 1166 2681 2222 
Q 2681 2984 2493 3476 
Q 2306 3969 1766 3969 
Q 1269 3969 1039 3501 
Q 809 3034 809 2125 
Q 809 1441 956 1025 
Q 1181 391 1725 391 
z
" transform="scale(0.015625)"/>
       <path id="Helvetica-2d" d="M 266 2072 
L 1834 2072 
L 1834 1494 
L 266 1494 
L 266 2072 
z
" transform="scale(0.015625)"/>
       <path id="Helvetica-69" d="M 413 3331 
L 984 3331 
L 984 0 
L 413 0 
L 413 3331 
z
M 413 4591 
L 984 4591 
L 984 3953 
L 413 3953 
L 413 4591 
z
" transform="scale(0.015625)"/>
       <path id="Helvetica-70" d="M 1825 378 
Q 2219 378 2480 708 
Q 2741 1038 2741 1694 
Q 2741 2094 2625 2381 
Q 2406 2934 1825 2934 
Q 1241 2934 1025 2350 
Q 909 2038 909 1556 
Q 909 1169 1025 897 
Q 1244 378 1825 378 
z
M 369 3331 
L 916 3331 
L 916 2888 
Q 1084 3116 1284 3241 
Q 1569 3428 1953 3428 
Q 2522 3428 2919 2992 
Q 3316 2556 3316 1747 
Q 3316 653 2744 184 
Q 2381 -113 1900 -113 
Q 1522 -113 1266 53 
Q 1116 147 931 375 
L 931 -1334 
L 369 -1334 
L 369 3331 
z
" transform="scale(0.015625)"/>
       <path id="Helvetica-b7" d="M 872 2591 
Q 1041 2591 1156 2473 
Q 1272 2356 1272 2191 
Q 1272 2025 1155 1908 
Q 1038 1791 872 1791 
Q 706 1791 589 1908 
Q 472 2025 472 2191 
Q 472 2356 587 2473 
Q 703 2591 872 2591 
z
" transform="scale(0.015625)"/>
       <path id="Helvetica-63" d="M 1703 3444 
Q 2269 3444 2623 3169 
Q 2978 2894 3050 2222 
L 2503 2222 
Q 2453 2531 2275 2736 
Q 2097 2941 1703 2941 
Q 1166 2941 934 2416 
Q 784 2075 784 1575 
Q 784 1072 996 728 
Q 1209 384 1666 384 
Q 2016 384 2220 598 
Q 2425 813 2503 1184 
L 3050 1184 
Q 2956 519 2581 211 
Q 2206 -97 1622 -97 
Q 966 -97 575 383 
Q 184 863 184 1581 
Q 184 2463 612 2953 
Q 1041 3444 1703 3444 
z
M 1616 3428 
L 1616 3428 
z
" transform="scale(0.015625)"/>
      </defs>
      <use xlink:href="#Helvetica-6f"/>
      <use xlink:href="#Helvetica-6e" transform="translate(55.615234 0)"/>
      <use xlink:href="#Helvetica-65" transform="translate(111.230469 0)"/>
      <use xlink:href="#Helvetica-20" transform="translate(166.845703 0)"/>
      <use xlink:href="#Helvetica-73" transform="translate(194.628906 0)"/>
      <use xlink:href="#Helvetica-68" transform="translate(244.628906 0)"/>
      <use xlink:href="#Helvetica-61" transform="translate(300.244141 0)"/>
      <use xlink:href="#Helvetica-72" transform="translate(355.859375 0)"/>
      <use xlink:href="#Helvetica-65" transform="translate(389.160156 0)"/>
      <use xlink:href="#Helvetica-64" transform="translate(444.775391 0)"/>
      <use xlink:href="#Helvetica-20" transform="translate(500.390625 0)"/>
      <use xlink:href="#Helvetica-31" transform="translate(528.173828 0)"/>
      <use xlink:href="#Helvetica-2c" transform="translate(583.789062 0)"/>
      <use xlink:href="#Helvetica-30" transform="translate(611.572266 0)"/>
      <use xlink:href="#Helvetica-30" transform="translate(667.1875 0)"/>
      <use xlink:href="#Helvetica-30" transform="translate(722.802734 0)"/>
      <use xlink:href="#Helvetica-2d" transform="translate(778.417969 0)"/>
      <use xlink:href="#Helvetica-74" transform="translate(811.71875 0)"/>
      <use xlink:href="#Helvetica-69" transform="translate(839.501953 0)"/>
      <use xlink:href="#Helvetica-70" transform="translate(861.71875 0)"/>
      <use xlink:href="#Helvetica-20" transform="translate(917.333984 0)"/>
      <use xlink:href="#Helvetica-74" transform="translate(945.117188 0)"/>
      <use xlink:href="#Helvetica-72" transform="translate(972.900391 0)"/>
      <use xlink:href="#Helvetica-65" transform="translate(1006.201172 0)"/>
      <use xlink:href="#Helvetica-65" transform="translate(1061.816406 0)"/>
      <use xlink:href="#Helvetica-20" transform="translate(1117.431641 0)"/>
      <use xlink:href="#Helvetica-b7" transform="translate(1145.214844 0)"/>
      <use xlink:href="#Helvetica-20" transform="translate(1172.998047 0)"/>
      <use xlink:href="#Helvetica-31" transform="translate(1200.78125 0)"/>
      <use xlink:href="#Helvetica-30" transform="translate(1256.396484 0)"/>
      <use xlink:href="#Helvetica-20" transform="translate(1312.011719 0)"/>
      <use xlink:href="#Helvetica-72" transform="translate(1339.794922 0)"/>
      <use xlink:href="#Helvetica-75" transform="translate(1373.095703 0)"/>
      <use xlink:href="#Helvetica-6e" transform="translate(1428.710938 0)"/>
      <use xlink:href="#Helvetica-73" transform="translate(1484.326172 0)"/>
      <use xlink:href="#Helvetica-20" transform="translate(1534.326172 0)"/>
      <use xlink:href="#Helvetica-65" transform="translate(1562.109375 0)"/>
      <use xlink:href="#Helvetica-61" transform="translate(1617.724609 0)"/>
      <use xlink:href="#Helvetica-63" transform="translate(1673.339844 0)"/>
      <use xlink:href="#Helvetica-68" transform="translate(1723.339844 0)"/>
     </g>
    </g>
   </g>
   <g id="matplotlib.axis_2">
    <g id="ytick_1">
     <g id="line2d_5">
      <path d="M 69.408 225.822311 
L 449.568 225.822311 
" clip-path="url(#p07a8636dbf)" style="fill: none; stroke: #e6e6e6; stroke-width: 0.8; stroke-linecap: square"/>
     </g>
     <g id="line2d_6">
      <defs>
       <path id="mbae8b882cd" d="M 0 0 
L -3.5 0 
" style="stroke: #1a1a1a; stroke-width: 0.8"/>
      </defs>
      <g>
       <use xlink:href="#mbae8b882cd" x="69.408" y="225.822311" style="fill: #ffffff; stroke: #1a1a1a; stroke-width: 0.8"/>
      </g>
     </g>
     <g id="text_4">
      <!-- 100 ms -->
      <g style="fill: #1a1a1a" transform="translate(29.617375 229.40903) scale(0.1 -0.1)">
       <defs>
        <path id="Helvetica-6d" d="M 413 3347 
L 969 3347 
L 969 2872 
Q 1169 3119 1331 3231 
Q 1609 3422 1963 3422 
Q 2363 3422 2606 3225 
Q 2744 3113 2856 2894 
Q 3044 3163 3297 3292 
Q 3550 3422 3866 3422 
Q 4541 3422 4784 2934 
Q 4916 2672 4916 2228 
L 4916 0 
L 4331 0 
L 4331 2325 
Q 4331 2659 4164 2784 
Q 3997 2909 3756 2909 
Q 3425 2909 3186 2687 
Q 2947 2466 2947 1947 
L 2947 0 
L 2375 0 
L 2375 2184 
Q 2375 2525 2294 2681 
Q 2166 2916 1816 2916 
Q 1497 2916 1236 2669 
Q 975 2422 975 1775 
L 975 0 
L 413 0 
L 413 3347 
z
" transform="scale(0.015625)"/>
       </defs>
       <use xlink:href="#Helvetica-31"/>
       <use xlink:href="#Helvetica-30" transform="translate(55.615234 0)"/>
       <use xlink:href="#Helvetica-30" transform="translate(111.230469 0)"/>
       <use xlink:href="#Helvetica-20" transform="translate(166.845703 0)"/>
       <use xlink:href="#Helvetica-6d" transform="translate(194.628906 0)"/>
       <use xlink:href="#Helvetica-73" transform="translate(277.929688 0)"/>
      </g>
     </g>
    </g>
    <g id="ytick_2">
     <g id="line2d_7">
      <path d="M 69.408 167.0779 
L 449.568 167.0779 
" clip-path="url(#p07a8636dbf)" style="fill: none; stroke: #e6e6e6; stroke-width: 0.8; stroke-linecap: square"/>
     </g>
     <g id="line2d_8">
      <g>
       <use xlink:href="#mbae8b882cd" x="69.408" y="167.0779" style="fill: #ffffff; stroke: #1a1a1a; stroke-width: 0.8"/>
      </g>
     </g>
     <g id="text_5">
      <!-- 1 s -->
      <g style="fill: #1a1a1a" transform="translate(49.068938 170.664618) scale(0.1 -0.1)">
       <use xlink:href="#Helvetica-31"/>
       <use xlink:href="#Helvetica-20" transform="translate(55.615234 0)"/>
       <use xlink:href="#Helvetica-73" transform="translate(83.398438 0)"/>
      </g>
     </g>
    </g>
    <g id="ytick_3">
     <g id="line2d_9">
      <path d="M 69.408 108.333488 
L 449.568 108.333488 
" clip-path="url(#p07a8636dbf)" style="fill: none; stroke: #e6e6e6; stroke-width: 0.8; stroke-linecap: square"/>
     </g>
     <g id="line2d_10">
      <g>
       <use xlink:href="#mbae8b882cd" x="69.408" y="108.333488" style="fill: #ffffff; stroke: #1a1a1a; stroke-width: 0.8"/>
      </g>
     </g>
     <g id="text_6">
      <!-- 10 s -->
      <g style="fill: #1a1a1a" transform="translate(43.508 111.920207) scale(0.1 -0.1)">
       <use xlink:href="#Helvetica-31"/>
       <use xlink:href="#Helvetica-30" transform="translate(55.615234 0)"/>
       <use xlink:href="#Helvetica-20" transform="translate(111.230469 0)"/>
       <use xlink:href="#Helvetica-73" transform="translate(139.013672 0)"/>
      </g>
     </g>
    </g>
    <g id="ytick_4">
     <g id="line2d_11">
      <path d="M 69.408 49.589076 
L 449.568 49.589076 
" clip-path="url(#p07a8636dbf)" style="fill: none; stroke: #e6e6e6; stroke-width: 0.8; stroke-linecap: square"/>
     </g>
     <g id="line2d_12">
      <g>
       <use xlink:href="#mbae8b882cd" x="69.408" y="49.589076" style="fill: #ffffff; stroke: #1a1a1a; stroke-width: 0.8"/>
      </g>
     </g>
     <g id="text_7">
      <!-- 100 s -->
      <g style="fill: #1a1a1a" transform="translate(37.947063 53.175795) scale(0.1 -0.1)">
       <use xlink:href="#Helvetica-31"/>
       <use xlink:href="#Helvetica-30" transform="translate(55.615234 0)"/>
       <use xlink:href="#Helvetica-30" transform="translate(111.230469 0)"/>
       <use xlink:href="#Helvetica-20" transform="translate(166.845703 0)"/>
       <use xlink:href="#Helvetica-73" transform="translate(194.628906 0)"/>
      </g>
     </g>
    </g>
    <g id="ytick_5">
     <g id="line2d_13"/>
    </g>
    <g id="ytick_6">
     <g id="line2d_14"/>
    </g>
    <g id="ytick_7">
     <g id="line2d_15"/>
    </g>
    <g id="ytick_8">
     <g id="line2d_16"/>
    </g>
    <g id="ytick_9">
     <g id="line2d_17"/>
    </g>
    <g id="ytick_10">
     <g id="line2d_18"/>
    </g>
    <g id="ytick_11">
     <g id="line2d_19"/>
    </g>
    <g id="ytick_12">
     <g id="line2d_20"/>
    </g>
    <g id="ytick_13">
     <g id="line2d_21"/>
    </g>
    <g id="ytick_14">
     <g id="line2d_22"/>
    </g>
    <g id="ytick_15">
     <g id="line2d_23"/>
    </g>
    <g id="ytick_16">
     <g id="line2d_24"/>
    </g>
    <g id="ytick_17">
     <g id="line2d_25"/>
    </g>
    <g id="ytick_18">
     <g id="line2d_26"/>
    </g>
    <g id="ytick_19">
     <g id="line2d_27"/>
    </g>
    <g id="ytick_20">
     <g id="line2d_28"/>
    </g>
    <g id="ytick_21">
     <g id="line2d_29"/>
    </g>
    <g id="ytick_22">
     <g id="line2d_30"/>
    </g>
    <g id="ytick_23">
     <g id="line2d_31"/>
    </g>
    <g id="ytick_24">
     <g id="line2d_32"/>
    </g>
    <g id="ytick_25">
     <g id="line2d_33"/>
    </g>
    <g id="ytick_26">
     <g id="line2d_34"/>
    </g>
    <g id="ytick_27">
     <g id="line2d_35"/>
    </g>
    <g id="ytick_28">
     <g id="line2d_36"/>
    </g>
    <g id="ytick_29">
     <g id="line2d_37"/>
    </g>
    <g id="ytick_30">
     <g id="line2d_38"/>
    </g>
    <g id="ytick_31">
     <g id="line2d_39"/>
    </g>
    <g id="ytick_32">
     <g id="line2d_40"/>
    </g>
    <g id="ytick_33">
     <g id="line2d_41"/>
    </g>
    <g id="ytick_34">
     <g id="line2d_42"/>
    </g>
    <g id="ytick_35">
     <g id="line2d_43"/>
    </g>
    <g id="ytick_36">
     <g id="line2d_44"/>
    </g>
    <g id="ytick_37">
     <g id="line2d_45"/>
    </g>
    <g id="text_8">
     <!-- Wall-clock time -->
     <g style="fill: #1a1a1a" transform="translate(23.116125 193.258375) rotate(-90) scale(0.12 -0.12)">
      <defs>
       <path id="Helvetica-57" d="M 791 4591 
L 1656 856 
L 2694 4591 
L 3369 4591 
L 4406 856 
L 5272 4591 
L 5953 4591 
L 4747 0 
L 4094 0 
L 3034 3806 
L 1969 0 
L 1316 0 
L 116 4591 
L 791 4591 
z
" transform="scale(0.015625)"/>
       <path id="Helvetica-6c" d="M 428 4591 
L 991 4591 
L 991 0 
L 428 0 
L 428 4591 
z
" transform="scale(0.015625)"/>
       <path id="Helvetica-6b" d="M 400 4591 
L 941 4591 
L 941 1925 
L 2384 3347 
L 3103 3347 
L 1822 2094 
L 3175 0 
L 2456 0 
L 1413 1688 
L 941 1256 
L 941 0 
L 400 0 
L 400 4591 
z
" transform="scale(0.015625)"/>
      </defs>
      <use xlink:href="#Helvetica-57"/>
      <use xlink:href="#Helvetica-61" transform="translate(94.384766 0)"/>
      <use xlink:href="#Helvetica-6c" transform="translate(150 0)"/>
      <use xlink:href="#Helvetica-6c" transform="translate(172.216797 0)"/>
      <use xlink:href="#Helvetica-2d" transform="translate(194.433594 0)"/>
      <use xlink:href="#Helvetica-63" transform="translate(227.734375 0)"/>
      <use xlink:href="#Helvetica-6c" transform="translate(277.734375 0)"/>
      <use xlink:href="#Helvetica-6f" transform="translate(299.951172 0)"/>
      <use xlink:href="#Helvetica-63" transform="translate(355.566406 0)"/>
      <use xlink:href="#Helvetica-6b" transform="translate(405.566406 0)"/>
      <use xlink:href="#Helvetica-20" transform="translate(455.566406 0)"/>
      <use xlink:href="#Helvetica-74" transform="translate(483.349609 0)"/>
      <use xlink:href="#Helvetica-69" transform="translate(511.132812 0)"/>
      <use xlink:href="#Helvetica-6d" transform="translate(533.349609 0)"/>
      <use xlink:href="#Helvetica-65" transform="translate(616.650391 0)"/>
     </g>
    </g>
   </g>
   <g id="patch_3">
    <path d="M 130.505143 73.190177 
L 218.756571 73.190177 
L 218.756571 70.652388 
L 130.505143 70.652388 
L 130.505143 73.190177 
z
" clip-path="url(#p07a8636dbf)" style="fill: #ffffff; stroke: #1a1a1a; stroke-width: 1.5; stroke-linejoin: miter"/>
   </g>
   <g id="line2d_46">
    <path d="M 174.630857 73.190177 
L 174.630857 75.162355 
" clip-path="url(#p07a8636dbf)" style="fill: none; stroke: #1a1a1a; stroke-width: 1.3; stroke-linecap: square"/>
   </g>
   <g id="line2d_47">
    <path d="M 174.630857 70.652388 
L 174.630857 70.226369 
" clip-path="url(#p07a8636dbf)" style="fill: none; stroke: #1a1a1a; stroke-width: 1.3; stroke-linecap: square"/>
   </g>
   <g id="line2d_48">
    <path d="M 152.568 75.162355 
L 196.693714 75.162355 
" clip-path="url(#p07a8636dbf)" style="fill: none; stroke: #1a1a1a; stroke-width: 1.3; stroke-linecap: square"/>
   </g>
   <g id="line2d_49">
    <path d="M 152.568 70.226369 
L 196.693714 70.226369 
" clip-path="url(#p07a8636dbf)" style="fill: none; stroke: #1a1a1a; stroke-width: 1.3; stroke-linecap: square"/>
   </g>
   <g id="line2d_50"/>
   <g id="patch_4">
    <path d="M 300.219429 235.263519 
L 388.470857 235.263519 
L 388.470857 233.936038 
L 300.219429 233.936038 
L 300.219429 235.263519 
z
" clip-path="url(#p07a8636dbf)" style="fill: #ffffff; stroke: #1a1a1a; stroke-width: 1.5; stroke-linejoin: miter"/>
   </g>
   <g id="line2d_51">
    <path d="M 344.345143 235.263519 
L 344.345143 235.727375 
" clip-path="url(#p07a8636dbf)" style="fill: none; stroke: #1a1a1a; stroke-width: 1.3; stroke-linecap: square"/>
   </g>
   <g id="line2d_52">
    <path d="M 344.345143 233.936038 
L 344.345143 232.87795 
" clip-path="url(#p07a8636dbf)" style="fill: none; stroke: #1a1a1a; stroke-width: 1.3; stroke-linecap: square"/>
   </g>
   <g id="line2d_53">
    <path d="M 322.282286 235.727375 
L 366.408 235.727375 
" clip-path="url(#p07a8636dbf)" style="fill: none; stroke: #1a1a1a; stroke-width: 1.3; stroke-linecap: square"/>
   </g>
   <g id="line2d_54">
    <path d="M 322.282286 232.87795 
L 366.408 232.87795 
" clip-path="url(#p07a8636dbf)" style="fill: none; stroke: #1a1a1a; stroke-width: 1.3; stroke-linecap: square"/>
   </g>
   <g id="line2d_55"/>
   <g id="line2d_56">
    <path d="M 130.505143 72.313473 
L 218.756571 72.313473 
" clip-path="url(#p07a8636dbf)" style="fill: none; stroke: #1a1a1a; stroke-width: 2.4"/>
   </g>
   <g id="line2d_57">
    <path d="M 300.219429 234.713354 
L 388.470857 234.713354 
" clip-path="url(#p07a8636dbf)" style="fill: none; stroke: #1a1a1a; stroke-width: 2.4"/>
   </g>
   <g id="patch_5">
    <path d="M 69.408 279.067375 
L 69.408 26.779375 
" style="fill: none; stroke: #1a1a1a; stroke-linejoin: miter; stroke-linecap: square"/>
   </g>
   <g id="patch_6">
    <path d="M 69.408 279.067375 
L 449.568 279.067375 
" style="fill: none; stroke: #1a1a1a; stroke-linejoin: miter; stroke-linecap: square"/>
   </g>
   <g id="patch_7">
    <path d="M 259.488 230.927211 
Q 259.488 153.515817 259.488 76.104423 
" style="fill: none; stroke: #4d4d4d; stroke-width: 1.6; stroke-linecap: round"/>
    <path d="M 261.688 226.527211 
L 259.488 230.927211 
L 257.288 226.527211 
" style="fill: none; stroke: #4d4d4d; stroke-width: 1.6; stroke-linecap: round"/>
    <path d="M 257.288 80.504423 
L 259.488 76.104423 
L 261.688 80.504423 
" style="fill: none; stroke: #4d4d4d; stroke-width: 1.6; stroke-linecap: round"/>
   </g>
   <g id="text_9">
    <!-- ≈ 581× -->
    <g style="fill: #1a1a1a" transform="translate(269.670857 150.431523) scale(0.11 -0.11)">
     <defs>
      <path id="Helvetica-2248" d="M 144 2400 
Q 390 2619 568 2697 
Q 747 2775 987 2775 
Q 1290 2775 1804 2542 
Q 2319 2309 2540 2309 
Q 2844 2309 3131 2513 
Q 3303 2631 3403 2763 
L 3403 2163 
Q 3278 2047 3109 1956 
Q 2828 1806 2550 1806 
Q 2472 1806 2345 1825 
Q 2219 1844 2115 1881 
Q 2056 1900 1625 2088 
Q 1412 2181 1303 2219 
Q 1131 2272 978 2272 
Q 706 2272 487 2131 
Q 353 2044 144 1822 
L 144 2400 
z
M 144 1081 
Q 390 1300 568 1378 
Q 747 1456 987 1456 
Q 1290 1456 1804 1223 
Q 2319 991 2540 991 
Q 2822 991 3042 1133 
Q 3262 1275 3403 1444 
L 3403 844 
Q 3194 672 2987 580 
Q 2781 488 2550 488 
Q 2453 488 2332 511 
Q 2212 534 2115 563 
Q 2044 588 1625 769 
Q 1412 863 1303 900 
Q 1131 953 978 953 
Q 703 953 478 806 
Q 340 719 144 503 
L 144 1081 
z
" transform="scale(0.015625)"/>
      <path id="Helvetica-35" d="M 791 1141 
Q 847 659 1238 475 
Q 1438 381 1700 381 
Q 2200 381 2440 700 
Q 2681 1019 2681 1406 
Q 2681 1875 2395 2131 
Q 2109 2388 1709 2388 
Q 1419 2388 1211 2275 
Q 1003 2163 856 1963 
L 369 1991 
L 709 4400 
L 3034 4400 
L 3034 3856 
L 1131 3856 
L 941 2613 
Q 1097 2731 1238 2791 
Q 1488 2894 1816 2894 
Q 2431 2894 2859 2497 
Q 3288 2100 3288 1491 
Q 3288 856 2895 371 
Q 2503 -113 1644 -113 
Q 1097 -113 676 195 
Q 256 503 206 1141 
L 791 1141 
z
" transform="scale(0.015625)"/>
      <path id="Helvetica-38" d="M 1741 2600 
Q 2113 2600 2322 2808 
Q 2531 3016 2531 3303 
Q 2531 3553 2331 3762 
Q 2131 3972 1722 3972 
Q 1316 3972 1134 3762 
Q 953 3553 953 3272 
Q 953 2956 1187 2778 
Q 1422 2600 1741 2600 
z
M 1775 384 
Q 2166 384 2423 595 
Q 2681 806 2681 1225 
Q 2681 1659 2415 1884 
Q 2150 2109 1734 2109 
Q 1331 2109 1076 1879 
Q 822 1650 822 1244 
Q 822 894 1055 639 
Q 1288 384 1775 384 
z
M 975 2384 
Q 741 2484 609 2619 
Q 363 2869 363 3269 
Q 363 3769 725 4128 
Q 1088 4488 1753 4488 
Q 2397 4488 2762 4148 
Q 3128 3809 3128 3356 
Q 3128 2938 2916 2678 
Q 2797 2531 2547 2391 
Q 2825 2263 2984 2097 
Q 3281 1784 3281 1284 
Q 3281 694 2884 283 
Q 2488 -128 1763 -128 
Q 1109 -128 657 226 
Q 206 581 206 1256 
Q 206 1653 400 1942 
Q 594 2231 975 2384 
z
" transform="scale(0.015625)"/>
      <path id="Helvetica-d7" d="M 363 2822 
L 731 3191 
L 1916 2006 
L 3103 3191 
L 3481 2822 
L 2294 1634 
L 3481 450 
L 3103 72 
L 1916 1256 
L 731 72 
L 363 450 
L 1547 1634 
L 363 2822 
z
" transform="scale(0.015625)"/>
     </defs>
     <use xlink:href="#Helvetica-2248"/>
     <use xlink:href="#Helvetica-20" transform="translate(54.882812 0)"/>
     <use xlink:href="#Helvetica-35" transform="translate(82.666016 0)"/>
     <use xlink:href="#Helvetica-38" transform="translate(138.28125 0)"/>
     <use xlink:href="#Helvetica-31" transform="translate(193.896484 0)"/>
     <use xlink:href="#Helvetica-d7" transform="translate(249.511719 0)"/>
    </g>
    <!-- faster -->
    <g style="fill: #1a1a1a" transform="translate(269.670857 162.193273) scale(0.11 -0.11)">
     <defs>
      <path id="Helvetica-66" d="M 553 3856 
Q 566 4206 675 4369 
Q 872 4656 1434 4656 
Q 1488 4656 1544 4653 
Q 1600 4650 1672 4644 
L 1672 4131 
Q 1584 4138 1545 4139 
Q 1506 4141 1472 4141 
Q 1216 4141 1166 4008 
Q 1116 3875 1116 3331 
L 1672 3331 
L 1672 2888 
L 1109 2888 
L 1109 0 
L 553 0 
L 553 2888 
L 88 2888 
L 88 3331 
L 553 3331 
L 553 3856 
z
" transform="scale(0.015625)"/>
     </defs>
     <use xlink:href="#Helvetica-66"/>
     <use xlink:href="#Helvetica-61" transform="translate(27.783203 0)"/>
     <use xlink:href="#Helvetica-73" transform="translate(83.398438 0)"/>
     <use xlink:href="#Helvetica-74" transform="translate(133.398438 0)"/>
     <use xlink:href="#Helvetica-65" transform="translate(161.181641 0)"/>
     <use xlink:href="#Helvetica-72" transform="translate(216.796875 0)"/>
    </g>
   </g>
   <g id="text_10">
    <!-- ZOMBI2 vs ZOMBI 1 on one shared 1000-tip tree -->
    <g style="fill: #1a1a1a" transform="translate(69.408 16.779375) scale(0.13 -0.13)">
     <defs>
      <path id="Helvetica-76" d="M 688 3347 
L 1581 622 
L 2516 3347 
L 3131 3347 
L 1869 0 
L 1269 0 
L 34 3347 
L 688 3347 
z
" transform="scale(0.015625)"/>
     </defs>
     <use xlink:href="#Helvetica-5a"/>
     <use xlink:href="#Helvetica-4f" transform="translate(61.083984 0)"/>
     <use xlink:href="#Helvetica-4d" transform="translate(138.867188 0)"/>
     <use xlink:href="#Helvetica-42" transform="translate(222.167969 0)"/>
     <use xlink:href="#Helvetica-49" transform="translate(288.867188 0)"/>
     <use xlink:href="#Helvetica-32" transform="translate(316.650391 0)"/>
     <use xlink:href="#Helvetica-20" transform="translate(372.265625 0)"/>
     <use xlink:href="#Helvetica-76" transform="translate(400.048828 0)"/>
     <use xlink:href="#Helvetica-73" transform="translate(450.048828 0)"/>
     <use xlink:href="#Helvetica-20" transform="translate(500.048828 0)"/>
     <use xlink:href="#Helvetica-5a" transform="translate(527.832031 0)"/>
     <use xlink:href="#Helvetica-4f" transform="translate(588.916016 0)"/>
     <use xlink:href="#Helvetica-4d" transform="translate(666.699219 0)"/>
     <use xlink:href="#Helvetica-42" transform="translate(750 0)"/>
     <use xlink:href="#Helvetica-49" transform="translate(816.699219 0)"/>
     <use xlink:href="#Helvetica-20" transform="translate(844.482422 0)"/>
     <use xlink:href="#Helvetica-31" transform="translate(872.265625 0)"/>
     <use xlink:href="#Helvetica-20" transform="translate(927.880859 0)"/>
     <use xlink:href="#Helvetica-6f" transform="translate(955.664062 0)"/>
     <use xlink:href="#Helvetica-6e" transform="translate(1011.279297 0)"/>
     <use xlink:href="#Helvetica-20" transform="translate(1066.894531 0)"/>
     <use xlink:href="#Helvetica-6f" transform="translate(1094.677734 0)"/>
     <use xlink:href="#Helvetica-6e" transform="translate(1150.292969 0)"/>
     <use xlink:href="#Helvetica-65" transform="translate(1205.908203 0)"/>
     <use xlink:href="#Helvetica-20" transform="translate(1261.523438 0)"/>
     <use xlink:href="#Helvetica-73" transform="translate(1289.306641 0)"/>
     <use xlink:href="#Helvetica-68" transform="translate(1339.306641 0)"/>
     <use xlink:href="#Helvetica-61" transform="translate(1394.921875 0)"/>
     <use xlink:href="#Helvetica-72" transform="translate(1450.537109 0)"/>
     <use xlink:href="#Helvetica-65" transform="translate(1483.837891 0)"/>
     <use xlink:href="#Helvetica-64" transform="translate(1539.453125 0)"/>
     <use xlink:href="#Helvetica-20" transform="translate(1595.068359 0)"/>
     <use xlink:href="#Helvetica-31" transform="translate(1622.851562 0)"/>
     <use xlink:href="#Helvetica-30" transform="translate(1678.466797 0)"/>
     <use xlink:href="#Helvetica-30" transform="translate(1734.082031 0)"/>
     <use xlink:href="#Helvetica-30" transform="translate(1789.697266 0)"/>
     <use xlink:href="#Helvetica-2d" transform="translate(1845.3125 0)"/>
     <use xlink:href="#Helvetica-74" transform="translate(1878.613281 0)"/>
     <use xlink:href="#Helvetica-69" transform="translate(1906.396484 0)"/>
     <use xlink:href="#Helvetica-70" transform="translate(1928.613281 0)"/>
     <use xlink:href="#Helvetica-20" transform="translate(1984.228516 0)"/>
     <use xlink:href="#Helvetica-74" transform="translate(2012.011719 0)"/>
     <use xlink:href="#Helvetica-72" transform="translate(2039.794922 0)"/>
     <use xlink:href="#Helvetica-65" transform="translate(2073.095703 0)"/>
     <use xlink:href="#Helvetica-65" transform="translate(2128.710938 0)"/>
    </g>
   </g>
   <g id="line2d_58">
    <defs>
     <path id="mf535f0586f" d="M -3.5 3.5 
L 3.5 3.5 
L 3.5 -3.5 
L -3.5 -3.5 
z
" style="stroke: #4d4d4d; stroke-opacity: 0.95; stroke-width: 1.4; stroke-linejoin: miter"/>
    </defs>
    <g clip-path="url(#p07a8636dbf)">
     <use xlink:href="#mf535f0586f" x="150.870857" y="73.180329" style="fill: #ffffff; fill-opacity: 0.95; stroke: #4d4d4d; stroke-opacity: 0.95; stroke-width: 1.4; stroke-linejoin: miter"/>
     <use xlink:href="#mf535f0586f" x="156.150857" y="73.19346" style="fill: #ffffff; fill-opacity: 0.95; stroke: #4d4d4d; stroke-opacity: 0.95; stroke-width: 1.4; stroke-linejoin: miter"/>
     <use xlink:href="#mf535f0586f" x="161.430857" y="83.264747" style="fill: #ffffff; fill-opacity: 0.95; stroke: #4d4d4d; stroke-opacity: 0.95; stroke-width: 1.4; stroke-linejoin: miter"/>
     <use xlink:href="#mf535f0586f" x="166.710857" y="72.059614" style="fill: #ffffff; fill-opacity: 0.95; stroke: #4d4d4d; stroke-opacity: 0.95; stroke-width: 1.4; stroke-linejoin: miter"/>
     <use xlink:href="#mf535f0586f" x="171.990857" y="72.569884" style="fill: #ffffff; fill-opacity: 0.95; stroke: #4d4d4d; stroke-opacity: 0.95; stroke-width: 1.4; stroke-linejoin: miter"/>
     <use xlink:href="#mf535f0586f" x="177.270857" y="70.226369" style="fill: #ffffff; fill-opacity: 0.95; stroke: #4d4d4d; stroke-opacity: 0.95; stroke-width: 1.4; stroke-linejoin: miter"/>
     <use xlink:href="#mf535f0586f" x="182.550857" y="75.162355" style="fill: #ffffff; fill-opacity: 0.95; stroke: #4d4d4d; stroke-opacity: 0.95; stroke-width: 1.4; stroke-linejoin: miter"/>
     <use xlink:href="#mf535f0586f" x="187.830857" y="71.974866" style="fill: #ffffff; fill-opacity: 0.95; stroke: #4d4d4d; stroke-opacity: 0.95; stroke-width: 1.4; stroke-linejoin: miter"/>
     <use xlink:href="#mf535f0586f" x="193.110857" y="66.549556" style="fill: #ffffff; fill-opacity: 0.95; stroke: #4d4d4d; stroke-opacity: 0.95; stroke-width: 1.4; stroke-linejoin: miter"/>
     <use xlink:href="#mf535f0586f" x="198.390857" y="65.323375" style="fill: #ffffff; fill-opacity: 0.95; stroke: #4d4d4d; stroke-opacity: 0.95; stroke-width: 1.4; stroke-linejoin: miter"/>
    </g>
   </g>
   <g id="line2d_59">
    <defs>
     <path id="mae846ab401" d="M 0 3.5 
C 0.928211 3.5 1.81853 3.131218 2.474874 2.474874 
C 3.131218 1.81853 3.5 0.928211 3.5 0 
C 3.5 -0.928211 3.131218 -1.81853 2.474874 -2.474874 
C 1.81853 -3.131218 0.928211 -3.5 0 -3.5 
C -0.928211 -3.5 -1.81853 -3.131218 -2.474874 -2.474874 
C -3.131218 -1.81853 -3.5 -0.928211 -3.5 0 
C -3.5 0.928211 -3.131218 1.81853 -2.474874 2.474874 
C -1.81853 3.131218 -0.928211 3.5 0 3.5 
z
" style="stroke: #1a1a1a; stroke-opacity: 0.95; stroke-width: 1.4"/>
    </defs>
    <g clip-path="url(#p07a8636dbf)">
     <use xlink:href="#mae846ab401" x="320.585143" y="240.523375" style="fill: #ffffff; fill-opacity: 0.95; stroke: #1a1a1a; stroke-opacity: 0.95; stroke-width: 1.4"/>
     <use xlink:href="#mae846ab401" x="325.865143" y="235.727375" style="fill: #ffffff; fill-opacity: 0.95; stroke: #1a1a1a; stroke-opacity: 0.95; stroke-width: 1.4"/>
     <use xlink:href="#mae846ab401" x="331.145143" y="233.847078" style="fill: #ffffff; fill-opacity: 0.95; stroke: #1a1a1a; stroke-opacity: 0.95; stroke-width: 1.4"/>
     <use xlink:href="#mae846ab401" x="336.425143" y="235.028094" style="fill: #ffffff; fill-opacity: 0.95; stroke: #1a1a1a; stroke-opacity: 0.95; stroke-width: 1.4"/>
     <use xlink:href="#mae846ab401" x="341.705143" y="233.354285" style="fill: #ffffff; fill-opacity: 0.95; stroke: #1a1a1a; stroke-opacity: 0.95; stroke-width: 1.4"/>
     <use xlink:href="#mae846ab401" x="346.985143" y="232.87795" style="fill: #ffffff; fill-opacity: 0.95; stroke: #1a1a1a; stroke-opacity: 0.95; stroke-width: 1.4"/>
     <use xlink:href="#mae846ab401" x="352.265143" y="234.204795" style="fill: #ffffff; fill-opacity: 0.95; stroke: #1a1a1a; stroke-opacity: 0.95; stroke-width: 1.4"/>
     <use xlink:href="#mae846ab401" x="357.545143" y="235.34248" style="fill: #ffffff; fill-opacity: 0.95; stroke: #1a1a1a; stroke-opacity: 0.95; stroke-width: 1.4"/>
     <use xlink:href="#mae846ab401" x="362.825143" y="234.561729" style="fill: #ffffff; fill-opacity: 0.95; stroke: #1a1a1a; stroke-opacity: 0.95; stroke-width: 1.4"/>
     <use xlink:href="#mae846ab401" x="368.105143" y="234.865885" style="fill: #ffffff; fill-opacity: 0.95; stroke: #1a1a1a; stroke-opacity: 0.95; stroke-width: 1.4"/>
    </g>
   </g>
  </g>
  <g id="text_11">
   <!-- zombi2 0.2.0.dev0 · @249d2bf* · Rust · arm · Python 3.12.2 · 2026-07-07 -->
   <g style="fill: #8a8a8a" transform="translate(7.2 334.93635) scale(0.07 -0.07)">
    <defs>
     <path id="Helvetica-7a" d="M 163 444 
L 2147 2844 
L 309 2844 
L 309 3347 
L 2903 3347 
L 2903 2888 
L 931 503 
L 2963 503 
L 2963 0 
L 163 0 
L 163 444 
z
M 1609 3428 
L 1609 3428 
z
" transform="scale(0.015625)"/>
     <path id="Helvetica-62" d="M 369 4606 
L 916 4606 
L 916 2941 
Q 1100 3181 1356 3307 
Q 1613 3434 1913 3434 
Q 2538 3434 2927 3004 
Q 3316 2575 3316 1738 
Q 3316 944 2931 419 
Q 2547 -106 1866 -106 
Q 1484 -106 1222 78 
Q 1066 188 888 428 
L 888 0 
L 369 0 
L 369 4606 
z
M 1831 391 
Q 2288 391 2514 753 
Q 2741 1116 2741 1709 
Q 2741 2238 2514 2584 
Q 2288 2931 1847 2931 
Q 1463 2931 1173 2647 
Q 884 2363 884 1709 
Q 884 1238 1003 944 
Q 1225 391 1831 391 
z
" transform="scale(0.015625)"/>
     <path id="Helvetica-2e" d="M 547 681 
L 1200 681 
L 1200 0 
L 547 0 
L 547 681 
z
" transform="scale(0.015625)"/>
     <path id="Helvetica-40" d="M 3903 2791 
Q 3903 2984 3773 3139 
Q 3644 3294 3416 3294 
Q 3059 3294 2798 2873 
Q 2538 2453 2538 2038 
Q 2538 1731 2672 1570 
Q 2806 1409 3009 1409 
Q 3431 1409 3667 1901 
Q 3903 2394 3903 2791 
z
M 3281 -134 
Q 1975 -134 1269 681 
Q 703 1334 703 2191 
Q 703 3209 1391 3922 
Q 2153 4716 3438 4716 
Q 4550 4716 5188 4153 
Q 5784 3622 5784 2775 
Q 5784 2063 5357 1558 
Q 4931 1053 4403 1053 
Q 4094 1053 3947 1201 
Q 3800 1350 3800 1559 
Q 3800 1594 3806 1631 
Q 3813 1669 3822 1709 
Q 3656 1350 3403 1201 
Q 3150 1053 2881 1053 
Q 2497 1053 2258 1331 
Q 2019 1609 2019 2047 
Q 2019 2669 2426 3144 
Q 2834 3619 3303 3619 
Q 3622 3619 3830 3434 
Q 4038 3250 4050 2991 
L 4206 3516 
L 4666 3516 
L 4250 2147 
Q 4203 1988 4181 1891 
Q 4159 1794 4159 1719 
Q 4159 1578 4245 1514 
Q 4331 1450 4441 1450 
Q 4797 1450 5080 1822 
Q 5363 2194 5363 2794 
Q 5363 3519 4856 3933 
Q 4350 4347 3494 4347 
Q 2306 4347 1678 3653 
Q 1141 3063 1141 2169 
Q 1141 1388 1653 856 
Q 2253 228 3363 228 
Q 3881 228 4328 392 
Q 4775 556 5147 834 
L 5353 553 
Q 5072 303 4512 84 
Q 3953 -134 3281 -134 
z
" transform="scale(0.015625)"/>
     <path id="Helvetica-34" d="M 2116 1584 
L 2116 3613 
L 681 1584 
L 2116 1584 
z
M 2125 0 
L 2125 1094 
L 163 1094 
L 163 1644 
L 2213 4488 
L 2688 4488 
L 2688 1584 
L 3347 1584 
L 3347 1094 
L 2688 1094 
L 2688 0 
L 2125 0 
z
" transform="scale(0.015625)"/>
     <path id="Helvetica-39" d="M 850 1081 
Q 875 616 1209 438 
Q 1381 344 1597 344 
Q 2000 344 2284 680 
Q 2569 1016 2688 2044 
Q 2500 1747 2223 1626 
Q 1947 1506 1628 1506 
Q 981 1506 604 1909 
Q 228 2313 228 2947 
Q 228 3556 600 4018 
Q 972 4481 1697 4481 
Q 2675 4481 3047 3600 
Q 3253 3116 3253 2388 
Q 3253 1566 3006 931 
Q 2597 -125 1619 -125 
Q 963 -125 622 219 
Q 281 563 281 1081 
L 850 1081 
z
M 1703 2000 
Q 2038 2000 2314 2220 
Q 2591 2441 2591 2991 
Q 2591 3484 2342 3726 
Q 2094 3969 1709 3969 
Q 1297 3969 1055 3692 
Q 813 3416 813 2953 
Q 813 2516 1025 2258 
Q 1238 2000 1703 2000 
z
" transform="scale(0.015625)"/>
     <path id="Helvetica-2a" d="M 1406 4591 
L 1406 3894 
L 2088 4131 
L 2213 3784 
L 1531 3563 
L 1953 2975 
L 1644 2753 
L 1234 3363 
L 822 2753 
L 503 2975 
L 931 3563 
L 244 3784 
L 369 4131 
L 1044 3888 
L 1044 4591 
L 1406 4591 
z
" transform="scale(0.015625)"/>
     <path id="Helvetica-33" d="M 1663 -122 
Q 869 -122 511 314 
Q 153 750 153 1375 
L 741 1375 
Q 778 941 903 744 
Q 1122 391 1694 391 
Q 2138 391 2406 628 
Q 2675 866 2675 1241 
Q 2675 1703 2392 1887 
Q 2109 2072 1606 2072 
Q 1550 2072 1492 2070 
Q 1434 2069 1375 2066 
L 1375 2563 
Q 1463 2553 1522 2550 
Q 1581 2547 1650 2547 
Q 1966 2547 2169 2647 
Q 2525 2822 2525 3272 
Q 2525 3606 2287 3787 
Q 2050 3969 1734 3969 
Q 1172 3969 956 3594 
Q 838 3388 822 3006 
L 266 3006 
Q 266 3506 466 3856 
Q 809 4481 1675 4481 
Q 2359 4481 2734 4176 
Q 3109 3872 3109 3294 
Q 3109 2881 2888 2625 
Q 2750 2466 2531 2375 
Q 2884 2278 3082 2001 
Q 3281 1725 3281 1325 
Q 3281 684 2859 281 
Q 2438 -122 1663 -122 
z
" transform="scale(0.015625)"/>
     <path id="Helvetica-36" d="M 1872 4494 
Q 2622 4494 2917 4105 
Q 3213 3716 3213 3303 
L 2656 3303 
Q 2606 3569 2497 3719 
Q 2294 4000 1881 4000 
Q 1409 4000 1131 3564 
Q 853 3128 822 2316 
Q 1016 2600 1309 2741 
Q 1578 2866 1909 2866 
Q 2472 2866 2890 2506 
Q 3309 2147 3309 1434 
Q 3309 825 2912 354 
Q 2516 -116 1781 -116 
Q 1153 -116 697 361 
Q 241 838 241 1966 
Q 241 2800 444 3381 
Q 834 4494 1872 4494 
z
M 1831 384 
Q 2275 384 2495 682 
Q 2716 981 2716 1388 
Q 2716 1731 2519 2042 
Q 2322 2353 1803 2353 
Q 1441 2353 1167 2112 
Q 894 1872 894 1388 
Q 894 963 1142 673 
Q 1391 384 1831 384 
z
" transform="scale(0.015625)"/>
     <path id="Helvetica-37" d="M 3347 4400 
L 3347 3909 
Q 3131 3700 2773 3181 
Q 2416 2663 2141 2063 
Q 1869 1478 1728 997 
Q 1638 688 1494 0 
L 872 0 
Q 1084 1281 1809 2550 
Q 2238 3294 2709 3834 
L 234 3834 
L 234 4400 
L 3347 4400 
z
" transform="scale(0.015625)"/>
    </defs>
    <use xlink:href="#Helvetica-7a"/>
    <use xlink:href="#Helvetica-6f" transform="translate(50 0)"/>
    <use xlink:href="#Helvetica-6d" transform="translate(105.615234 0)"/>
    <use xlink:href="#Helvetica-62" transform="translate(188.916016 0)"/>
    <use xlink:href="#Helvetica-69" transform="translate(244.53125 0)"/>
    <use xlink:href="#Helvetica-32" transform="translate(266.748047 0)"/>
    <use xlink:href="#Helvetica-20" transform="translate(322.363281 0)"/>
    <use xlink:href="#Helvetica-30" transform="translate(350.146484 0)"/>
    <use xlink:href="#Helvetica-2e" transform="translate(405.761719 0)"/>
    <use xlink:href="#Helvetica-32" transform="translate(433.544922 0)"/>
    <use xlink:href="#Helvetica-2e" transform="translate(489.160156 0)"/>
    <use xlink:href="#Helvetica-30" transform="translate(516.943359 0)"/>
    <use xlink:href="#Helvetica-2e" transform="translate(572.558594 0)"/>
    <use xlink:href="#Helvetica-64" transform="translate(600.341797 0)"/>
    <use xlink:href="#Helvetica-65" transform="translate(655.957031 0)"/>
    <use xlink:href="#Helvetica-76" transform="translate(711.572266 0)"/>
    <use xlink:href="#Helvetica-30" transform="translate(761.572266 0)"/>
    <use xlink:href="#Helvetica-20" transform="translate(817.1875 0)"/>
    <use xlink:href="#Helvetica-b7" transform="translate(844.970703 0)"/>
    <use xlink:href="#Helvetica-20" transform="translate(872.753906 0)"/>
    <use xlink:href="#Helvetica-40" transform="translate(900.537109 0)"/>
    <use xlink:href="#Helvetica-32" transform="translate(1002.050781 0)"/>
    <use xlink:href="#Helvetica-34" transform="translate(1057.666016 0)"/>
    <use xlink:href="#Helvetica-39" transform="translate(1113.28125 0)"/>
    <use xlink:href="#Helvetica-64" transform="translate(1168.896484 0)"/>
    <use xlink:href="#Helvetica-32" transform="translate(1224.511719 0)"/>
    <use xlink:href="#Helvetica-62" transform="translate(1280.126953 0)"/>
    <use xlink:href="#Helvetica-66" transform="translate(1335.742188 0)"/>
    <use xlink:href="#Helvetica-2a" transform="translate(1363.525391 0)"/>
    <use xlink:href="#Helvetica-20" transform="translate(1402.441406 0)"/>
    <use xlink:href="#Helvetica-b7" transform="translate(1430.224609 0)"/>
    <use xlink:href="#Helvetica-20" transform="translate(1458.007812 0)"/>
    <use xlink:href="#Helvetica-52" transform="translate(1485.791016 0)"/>
    <use xlink:href="#Helvetica-75" transform="translate(1558.007812 0)"/>
    <use xlink:href="#Helvetica-73" transform="translate(1613.623047 0)"/>
    <use xlink:href="#Helvetica-74" transform="translate(1663.623047 0)"/>
    <use xlink:href="#Helvetica-20" transform="translate(1691.40625 0)"/>
    <use xlink:href="#Helvetica-b7" transform="translate(1719.189453 0)"/>
    <use xlink:href="#Helvetica-20" transform="translate(1746.972656 0)"/>
    <use xlink:href="#Helvetica-61" transform="translate(1774.755859 0)"/>
    <use xlink:href="#Helvetica-72" transform="translate(1830.371094 0)"/>
    <use xlink:href="#Helvetica-6d" transform="translate(1863.671875 0)"/>
    <use xlink:href="#Helvetica-20" transform="translate(1946.972656 0)"/>
    <use xlink:href="#Helvetica-b7" transform="translate(1974.755859 0)"/>
    <use xlink:href="#Helvetica-20" transform="translate(2002.539062 0)"/>
    <use xlink:href="#Helvetica-50" transform="translate(2030.322266 0)"/>
    <use xlink:href="#Helvetica-79" transform="translate(2097.021484 0)"/>
    <use xlink:href="#Helvetica-74" transform="translate(2147.021484 0)"/>
    <use xlink:href="#Helvetica-68" transform="translate(2174.804688 0)"/>
    <use xlink:href="#Helvetica-6f" transform="translate(2230.419922 0)"/>
    <use xlink:href="#Helvetica-6e" transform="translate(2286.035156 0)"/>
    <use xlink:href="#Helvetica-20" transform="translate(2341.650391 0)"/>
    <use xlink:href="#Helvetica-33" transform="translate(2369.433594 0)"/>
    <use xlink:href="#Helvetica-2e" transform="translate(2425.048828 0)"/>
    <use xlink:href="#Helvetica-31" transform="translate(2452.832031 0)"/>
    <use xlink:href="#Helvetica-32" transform="translate(2508.447266 0)"/>
    <use xlink:href="#Helvetica-2e" transform="translate(2564.0625 0)"/>
    <use xlink:href="#Helvetica-32" transform="translate(2591.845703 0)"/>
    <use xlink:href="#Helvetica-20" transform="translate(2647.460938 0)"/>
    <use xlink:href="#Helvetica-b7" transform="translate(2675.244141 0)"/>
    <use xlink:href="#Helvetica-20" transform="translate(2703.027344 0)"/>
    <use xlink:href="#Helvetica-32" transform="translate(2730.810547 0)"/>
    <use xlink:href="#Helvetica-30" transform="translate(2786.425781 0)"/>
    <use xlink:href="#Helvetica-32" transform="translate(2842.041016 0)"/>
    <use xlink:href="#Helvetica-36" transform="translate(2897.65625 0)"/>
    <use xlink:href="#Helvetica-2d" transform="translate(2953.271484 0)"/>
    <use xlink:href="#Helvetica-30" transform="translate(2986.572266 0)"/>
    <use xlink:href="#Helvetica-37" transform="translate(3042.1875 0)"/>
    <use xlink:href="#Helvetica-2d" transform="translate(3097.802734 0)"/>
    <use xlink:href="#Helvetica-30" transform="translate(3131.103516 0)"/>
    <use xlink:href="#Helvetica-37" transform="translate(3186.71875 0)"/>
   </g>
  </g>
 </g>
 <defs>
  <clipPath id="p07a8636dbf">
   <rect x="69.408" y="26.779375" width="380.16" height="252.288"/>
  </clipPath>
 </defs>
</svg>
