<?xml version="1.0" encoding="UTF-8"?>
<svg xmlns="http://www.w3.org/2000/svg" xmlns:xlink="http://www.w3.org/1999/xlink"
     width="1000" height="520" viewBox="0 0 1000 520">
<defs>
<pattern width="6" height="6" patternUnits="userSpaceOnUse" id="g_diag">
<rect x="0" y="0" width="6" height="6" fill="white" />
<path d="M-6,6 L0,0" stroke="black" stroke-width="1.3" />
<path d="M0,6 L6,0" stroke="black" stroke-width="1.3" />
<path d="M6,6 L12,0" stroke="black" stroke-width="1.3" />
</pattern>
<pattern width="6" height="6" patternUnits="userSpaceOnUse" id="g_diag2">
<rect x="0" y="0" width="6" height="6" fill="white" />
<path d="M-6,0 L0,6" stroke="black" stroke-width="1.3" />
<path d="M0,0 L6,6" stroke="black" stroke-width="1.3" />
<path d="M6,0 L12,6" stroke="black" stroke-width="1.3" />
</pattern>
<pattern width="6" height="6" patternUnits="userSpaceOnUse" id="g_horiz">
<rect x="0" y="0" width="6" height="6" fill="white" />
<path d="M0,1.7999999999999998 L6,1.7999999999999998" stroke="black" stroke-width="1.3" />
<path d="M0,4.199999999999999 L6,4.199999999999999" stroke="black" stroke-width="1.3" />
</pattern>
<pattern width="6" height="6" patternUnits="userSpaceOnUse" id="g_vert">
<rect x="0" y="0" width="6" height="6" fill="white" />
<path d="M1.7999999999999998,0 L1.7999999999999998,6" stroke="black" stroke-width="1.3" />
<path d="M4.199999999999999,0 L4.199999999999999,6" stroke="black" stroke-width="1.3" />
</pattern>
<pattern width="6" height="6" patternUnits="userSpaceOnUse" id="g_cross">
<rect x="0" y="0" width="6" height="6" fill="white" />
<path d="M0,3.0 L6,3.0" stroke="black" stroke-width="1.3" />
<path d="M3.0,0 L3.0,6" stroke="black" stroke-width="1.3" />
</pattern>
<pattern width="6" height="6" patternUnits="userSpaceOnUse" id="g_dots">
<rect x="0" y="0" width="6" height="6" fill="white" />
<circle cx="3.0" cy="3.0" r="1.35" fill="black" />
</pattern>
<pattern width="6" height="6" patternUnits="userSpaceOnUse" id="g_check">
<rect x="0" y="0" width="6" height="6" fill="white" />
<rect x="0" y="0" width="3.0" height="3.0" fill="black" />
<rect x="3.0" y="3.0" width="3.0" height="3.0" fill="black" />
</pattern>
</defs>
<rect x="0" y="0" width="1000" height="520" fill="white" />
<use xlink:href="#g_diag" />
<use xlink:href="#g_diag2" />
<use xlink:href="#g_horiz" />
<use xlink:href="#g_vert" />
<use xlink:href="#g_cross" />
<use xlink:href="#g_dots" />
<use xlink:href="#g_check" />
<path d="M405.002945426876,204.44784806195634 A176,176,0,0,1,280.55215193804366,420.002945426876 L267.0935615927126,369.77480245984447 A124,124,0,0,0,354.77480245984447,217.90643840728742 Z" fill="#e6e6e6" stroke="none" />
<circle cx="235" cy="250" r="150" fill="none" stroke="#e2e2e2" stroke-width="1.2" />
<path d="M203.58407346410206,111.0 L252.41592653589794,111.0 L252.41592653589794,118.0 L266.41592653589794,100.0 L252.41592653589794,82.0 L252.41592653589794,89.0 L203.58407346410206,89.0 Z" fill="url(#g_diag)" stroke="#1a1a1a" stroke-width="1.3" />
<text x="235.0" y="70.0" font-size="12" font-family="Helvetica" text-anchor="middle" dominant-baseline="middle" fill="#1a1a1a">1</text>
<path d="M331.70699046351325,145.33043214191198 L289.41736518946885,120.91450560601406 L285.91736518946885,126.97668343250513 L282.79300953648675,104.38822616438523 L303.91736518946885,95.79976889626533 L300.41736518946885,101.8619467227564 L342.70699046351325,126.27787325865434 Z" fill="#606060" stroke="#1a1a1a" stroke-width="1.3" />
<text x="325.0" y="94.11542731880104" font-size="12" font-family="Helvetica" text-anchor="middle" dominant-baseline="middle" fill="#1a1a1a">2</text>
<path d="M339.669567858088,153.29300953648672 L364.0854943939859,195.58263481053112 L358.0233165674949,199.08263481053112 L380.61177383561477,202.20699046351328 L389.20023110373467,181.08263481053112 L383.1380532772436,184.58263481053112 L358.7221267413457,142.29300953648672 Z" fill="url(#g_cross)" stroke="#1a1a1a" stroke-width="1.3" />
<text x="390.88457268119896" y="160.0" font-size="12" font-family="Helvetica" text-anchor="middle" dominant-baseline="middle" fill="#1a1a1a">3</text>
<path d="M374.0,218.58407346410206 L374.0,267.41592653589794 L367.0,267.41592653589794 L385.0,281.41592653589794 L403.0,267.41592653589794 L396.0,267.41592653589794 L396.0,218.58407346410206 Z" fill="#bcbcbc" stroke="#1a1a1a" stroke-width="1.3" />
<text x="415.0" y="250.0" font-size="12" font-family="Helvetica" text-anchor="middle" dominant-baseline="middle" fill="#1a1a1a">4</text>
<path d="M339.669567858088,346.70699046351325 L364.0854943939859,304.41736518946885 L358.0233165674949,300.91736518946885 L380.61177383561477,297.79300953648675 L389.20023110373467,318.91736518946885 L383.1380532772436,315.41736518946885 L358.7221267413457,357.70699046351325 Z" fill="url(#g_dots)" stroke="#1a1a1a" stroke-width="1.3" />
<text x="390.88457268119896" y="340.0" font-size="12" font-family="Helvetica" text-anchor="middle" dominant-baseline="middle" fill="#1a1a1a">5</text>
<path d="M331.70699046351325,354.669567858088 L289.41736518946885,379.0854943939859 L285.91736518946885,373.0233165674949 L282.79300953648675,395.61177383561477 L303.91736518946885,404.20023110373467 L300.41736518946885,398.1380532772436 L342.70699046351325,373.7221267413457 Z" fill="url(#g_diag2)" stroke="#1a1a1a" stroke-width="1.3" />
<text x="325.0" y="405.88457268119896" font-size="12" font-family="Helvetica" text-anchor="middle" dominant-baseline="middle" fill="#1a1a1a">6</text>
<path d="M266.41592653589794,389.0 L217.58407346410206,389.0 L217.58407346410206,382.0 L203.58407346410206,400.0 L217.58407346410206,418.0 L217.58407346410206,411.0 L266.41592653589794,411.0 Z" fill="#8c8c8c" stroke="#1a1a1a" stroke-width="1.3" />
<text x="235.0" y="430.0" font-size="12" font-family="Helvetica" text-anchor="middle" dominant-baseline="middle" fill="#1a1a1a">7</text>
<path d="M138.29300953648675,354.669567858088 L180.58263481053115,379.0854943939859 L184.08263481053115,373.0233165674949 L187.2069904635133,395.61177383561477 L166.08263481053115,404.20023110373467 L169.58263481053115,398.1380532772436 L127.29300953648675,373.7221267413457 Z" fill="url(#g_horiz)" stroke="#1a1a1a" stroke-width="1.3" />
<text x="145.00000000000003" y="405.88457268119896" font-size="12" font-family="Helvetica" text-anchor="middle" dominant-baseline="middle" fill="#1a1a1a">8</text>
<path d="M130.33043214191198,346.70699046351325 L105.91450560601406,304.41736518946885 L111.97668343250513,300.91736518946885 L89.38822616438523,297.79300953648675 L80.79976889626533,318.91736518946885 L86.8619467227564,315.41736518946885 L111.27787325865434,357.70699046351325 Z" fill="#e0e0e0" stroke="#1a1a1a" stroke-width="1.3" />
<text x="79.11542731880104" y="340.0" font-size="12" font-family="Helvetica" text-anchor="middle" dominant-baseline="middle" fill="#1a1a1a">9</text>
<path d="M96.0,218.5840734641021 L96.0,267.41592653589794 L103.0,267.41592653589794 L85.0,281.41592653589794 L67.0,267.41592653589794 L74.0,267.41592653589794 L74.0,218.5840734641021 Z" fill="url(#g_vert)" stroke="#1a1a1a" stroke-width="1.3" />
<text x="55.0" y="250.00000000000003" font-size="12" font-family="Helvetica" text-anchor="middle" dominant-baseline="middle" fill="#1a1a1a">10</text>
<path d="M98.91450560601406,207.70699046351328 L123.330432141912,165.41736518946888 L129.39260996840306,168.91736518946888 L120.80415270028317,147.79300953648672 L98.21569543216327,150.91736518946888 L104.27787325865434,154.41736518946888 L79.8619467227564,196.70699046351328 Z" fill="white" stroke="#1a1a1a" stroke-width="1.3" />
<text x="79.11542731880104" y="160.0" font-size="12" font-family="Helvetica" text-anchor="middle" dominant-baseline="middle" fill="#1a1a1a">11</text>
<path d="M138.2930095364867,145.33043214191204 L180.58263481053106,120.9145056060141 L184.08263481053106,126.97668343250518 L187.2069904635132,104.38822616438527 L166.08263481053106,95.79976889626539 L169.58263481053106,101.86194672275647 L127.2930095364867,126.27787325865441 Z" fill="#3a3a3a" stroke="#1a1a1a" stroke-width="1.3" />
<text x="144.99999999999991" y="94.1154273188011" font-size="12" font-family="Helvetica" text-anchor="middle" dominant-baseline="middle" fill="#1a1a1a">12</text>
<path d="M917.4204710660613,162.0 A176,176,0,0,1,693.4143508186592,410.78400054509774 L714.5646562586007,363.2796367476825 A124,124,0,0,0,872.3871500692704,188.0 Z" fill="#e6e6e6" stroke="none" />
<circle cx="765" cy="250" r="150" fill="none" stroke="#e2e2e2" stroke-width="1.2" />
<path d="M739.8672587712816,111.0 L776.1327412287184,111.0 L776.1327412287184,118.0 L790.1327412287184,100.0 L776.1327412287184,82.0 L776.1327412287184,89.0 L739.8672587712816,89.0 Z" fill="url(#g_diag)" stroke="#1a1a1a" stroke-width="1.3" />
<text x="765.0" y="70.0" font-size="12" font-family="Helvetica" text-anchor="middle" dominant-baseline="middle" fill="#1a1a1a">1</text>
<path d="M844.4962949751388,133.23958818634014 L811.3661282069301,118.48908759207804 L808.5189717053995,124.88390579557624 L803.0505948737675,102.74577455494821 L823.1614908561282,91.99626932044261 L820.3143343545977,98.39108752394081 L853.4445011228064,113.14158811820293 Z" fill="#606060" stroke="#1a1a1a" stroke-width="1.3" />
<text x="838.212595753644" y="85.56181762433184" font-size="12" font-family="Helvetica" text-anchor="middle" dominant-baseline="middle" fill="#1a1a1a">2</text>
<path d="M851.4800443635252,138.3135791219343 L875.7463886301663,165.2640847536196 L870.5443748518246,169.94799899813162 L893.2888101994416,168.30767564035568 L897.2975885690107,145.85929716921274 L892.095574790669,150.54321141372475 L867.8292305240279,123.59270578203943 Z" fill="url(#g_cross)" stroke="#1a1a1a" stroke-width="1.3" />
<text x="898.766068585931" y="129.5564908554055" font-size="12" font-family="Helvetica" text-anchor="middle" dominant-baseline="middle" fill="#1a1a1a">3</text>
<path d="M889.4304116101245,183.14398046394987 L900.6370619986789,217.6345038716826 L893.9796663846129,219.79762283230724 L915.4249215991748,227.55010816169033 L928.2177009712383,208.67301103480912 L921.5603053571723,210.83612999543377 L910.3536549686179,176.34560658770104 Z" fill="#bcbcbc" stroke="#1a1a1a" stroke-width="1.3" />
<text x="936.1901729331277" y="194.37694101250946" font-size="12" font-family="Helvetica" text-anchor="middle" dominant-baseline="middle" fill="#1a1a1a">4</text>
<path d="M900.6114566378485,289.5245178367892 L904.4022317887844,253.45770148677437 L897.4405785212065,252.72600224390078 L916.8053711235826,240.68420804756272 L933.2433667544643,256.4890269215363 L926.2817134868864,255.75732767866273 L922.4909383359504,291.82414402867755 Z" fill="url(#g_dots)" stroke="#1a1a1a" stroke-width="1.3" />
<text x="944.0139411662892" y="268.81512338817765" font-size="12" font-family="Helvetica" text-anchor="middle" dominant-baseline="middle" fill="#1a1a1a">5</text>
<path d="M897.9439017403961,297.7344076291894 L879.8111605116778,329.14123671782846 L873.7489826851868,325.64123671782846 L882.3374399533067,346.7655923708106 L904.9258972214266,343.64123671782846 L898.8637193949355,340.14123671782846 L916.9964606236538,308.7344076291894 Z" fill="url(#g_diag2)" stroke="#1a1a1a" stroke-width="1.3" />
<text x="920.884572681199" y="340.0" font-size="12" font-family="Helvetica" text-anchor="middle" dominant-baseline="middle" fill="#1a1a1a">6</text>
<path d="M867.0349648379148,347.680707574194 L837.6955732206419,368.99702332994667 L833.5810764545946,363.33390436932206 L832.8349730746099,386.12520380016576 L854.7413455371237,392.4585161668202 L850.6268487710764,386.79539720619556 L879.9662403883493,365.4790814504429 Z" fill="#bcbcbc" stroke="#1a1a1a" stroke-width="1.3" />
<text x="870.8013454126451" y="395.62305898749054" font-size="12" font-family="Helvetica" text-anchor="middle" dominant-baseline="middle" fill="#1a1a1a">4</text>
<path d="M769.3161944909341,391.187907225747 L804.7891891461297,383.64788944969956 L803.3338073104054,376.80085624456297 L820.7702841553984,391.4967493863228 L810.8186281798447,412.0141698709799 L809.3632463441204,405.1671366658433 L773.8902516889248,412.70715444189074 Z" fill="url(#g_dots)" stroke="#1a1a1a" stroke-width="1.3" />
<text x="802.4241043471967" y="426.06656813208497" font-size="12" font-family="Helvetica" text-anchor="middle" dominant-baseline="middle" fill="#1a1a1a">5</text>
<path d="M760.6838055090659,391.18790722574704 L725.2108108538703,383.6478894496996 L726.6661926895946,376.80085624456297 L709.2297158446016,391.49674938632285 L719.1813718201553,412.01416987098 L720.6367536558796,405.1671366658434 L756.1097483110752,412.7071544418908 Z" fill="url(#g_diag2)" stroke="#1a1a1a" stroke-width="1.3" />
<text x="727.5758956528033" y="426.066568132085" font-size="12" font-family="Helvetica" text-anchor="middle" dominant-baseline="middle" fill="#1a1a1a">6</text>
<path d="M703.6306647006072,377.2260168620413 L674.2912730833343,355.90970110628865 L678.4057698493817,350.24658214566404 L656.4993973868679,356.57989451231845 L657.2455007668526,379.37119394316215 L661.3599975329,373.70807498253754 L690.6993891501729,395.0243907382902 Z" fill="#8c8c8c" stroke="#1a1a1a" stroke-width="1.3" />
<text x="659.1986545873549" y="395.62305898749054" font-size="12" font-family="Helvetica" text-anchor="middle" dominant-baseline="middle" fill="#1a1a1a">7</text>
<path d="M632.0560982596039,297.7344076291894 L650.1888394883222,329.14123671782846 L656.2510173148132,325.64123671782846 L647.6625600466933,346.7655923708106 L625.0741027785734,343.64123671782846 L631.1362806050645,340.14123671782846 L613.0035393763462,308.7344076291894 Z" fill="url(#g_horiz)" stroke="#1a1a1a" stroke-width="1.3" />
<text x="609.115427318801" y="340.0" font-size="12" font-family="Helvetica" text-anchor="middle" dominant-baseline="middle" fill="#1a1a1a">8</text>
<path d="M629.3885433621515,289.5245178367892 L625.5977682112156,253.45770148677437 L632.5594214787935,252.72600224390078 L613.1946288764174,240.68420804756272 L596.7566332455357,256.4890269215363 L603.7182865131136,255.75732767866273 L607.5090616640496,291.82414402867755 Z" fill="#e0e0e0" stroke="#1a1a1a" stroke-width="1.3" />
<text x="585.9860588337108" y="268.81512338817765" font-size="12" font-family="Helvetica" text-anchor="middle" dominant-baseline="middle" fill="#1a1a1a">9</text>
<path d="M640.5695883898754,183.14398046394987 L629.362938001321,217.6345038716826 L636.020333615387,219.79762283230724 L614.5750784008251,227.55010816169033 L601.7822990287616,208.67301103480912 L608.4396946428276,210.83612999543377 L619.646345031382,176.34560658770104 Z" fill="url(#g_vert)" stroke="#1a1a1a" stroke-width="1.3" />
<text x="593.8098270668723" y="194.3769410125095" font-size="12" font-family="Helvetica" text-anchor="middle" dominant-baseline="middle" fill="#1a1a1a">10</text>
<path d="M644.8857828808098,175.66811231030312 L669.1521271474509,148.7176066786178 L674.3541409257925,153.40152092312982 L670.3453625562234,130.95314245198688 L647.6009272086064,129.31281909421094 L652.8029409869481,133.99673333872295 L628.536596720307,160.94723897040825 Z" fill="white" stroke="#1a1a1a" stroke-width="1.3" />
<text x="631.233931414069" y="129.5564908554055" font-size="12" font-family="Helvetica" text-anchor="middle" dominant-baseline="middle" fill="#1a1a1a">11</text>
<path d="M685.5037050248612,133.23958818634011 L718.6338717930699,118.48908759207801 L721.4810282946005,124.88390579557621 L726.9494051262325,102.74577455494818 L706.8385091438718,91.99626932044258 L709.6856656454023,98.39108752394078 L676.5554988771936,113.1415881182029 Z" fill="#3a3a3a" stroke="#1a1a1a" stroke-width="1.3" />
<text x="691.787404246356" y="85.56181762433184" font-size="12" font-family="Helvetica" text-anchor="middle" dominant-baseline="middle" fill="#1a1a1a">12</text>
<text x="235" y="452" font-size="15" font-family="Helvetica" text-anchor="middle" fill="#1a1a1a">before</text>
<text x="765" y="452" font-size="15" font-family="Helvetica" text-anchor="middle" fill="#1a1a1a">after</text>
<path d="M432,250 L556,250" stroke="#1a1a1a" stroke-width="3" />
<path d="M568,250 L553,242 L553,258 Z" fill="#1a1a1a" />
<text x="500.0" y="232" font-size="20" font-family="Helvetica" text-anchor="middle" font-weight="bold" fill="#1a1a1a">Duplication</text>
<text x="500.0" y="498" font-size="14" font-family="Helvetica" text-anchor="middle" fill="#555">a segment is copied in tandem</text>
</svg>