<?xml version="1.0" encoding="UTF-8"?>
<svg xmlns="http://www.w3.org/2000/svg" xmlns:xlink="http://www.w3.org/1999/xlink"
     width="940" height="520" viewBox="0 0 940 520">
<defs>
</defs>
<rect x="0" y="0" width="940" height="520" fill="white" />
<text x="40" y="40" font-size="19" font-family="Helvetica" text-anchor="start" font-weight="bold" fill="#1a1a1a">The threshold model — a continuous liability read out as a discrete state</text>
<text x="40" y="64" font-size="13.5" font-family="Helvetica" text-anchor="start" fill="#777">the liability diffuses by Brownian motion; the observed state = which side of the threshold it is on</text>
<rect x="96" y="132.0" width="760" height="125.0" fill="#fbe4e8" />
<rect x="96" y="257.0" width="760" height="125.0" fill="#e6eef6" />
<rect x="96" y="132" width="760" height="250" fill="none" stroke="#bdbdbd" stroke-width="1.3" />
<path d="M96,257.0 L856,257.0" stroke="#1a1a1a" stroke-width="1.6" stroke-dasharray="6,4" />
<text x="852" y="249.0" font-size="12" font-family="Helvetica" text-anchor="end" font-weight="bold" fill="#1a1a1a">threshold</text>
<path d="M96.0,300.2692307692308 L98.375,297.3471170653896 L100.75,296.3861781467468 L103.125,291.02578533116343 L105.5,289.07084091626405 L107.875,289.6076574006949 L110.25,282.7610338087284 L112.625,283.3010618289093 L115.0,283.02434783638716 L117.375,282.4862099236026 L119.75,283.930755406344 L122.125,277.27347243831537 L124.5,277.0925035608121 L126.875,276.61803386627935 L129.25,278.4632313086014 L131.625,280.5862154166488 L134.0,283.1234109312293 L136.375,284.05980409116336 L138.75,285.9568006829512 L141.125,283.6522556101447 L143.5,282.7907261052544 L145.875,285.00817496884287 L148.25,281.4149916642845 L150.625,279.31882760412736 L153.0,276.90825472443555 L155.375,278.1324434818722 L157.75,276.34133512450717 L160.125,276.21609559001166 L162.5,276.4422280630887 L164.875,279.45331580031257 L167.25,279.40527471307814 L169.625,277.1815525717039 L172.0,275.8370305277358 L174.375,277.74762465346595 L176.75,272.768137392879 L179.125,273.95868721112043 L181.5,272.4462474694758 L183.875,273.19491920025877 L186.25,274.65677108288617 L188.625,272.58286246948995 L191.0,274.3862784289772 L193.375,270.6629479396446 L195.75,264.9570873271373 L198.125,262.4151785268276 L200.5,263.15712062909097 L202.875,261.4455976718116 L205.25,263.64054019201615 L207.625,261.18419869313493 L210.0,260.85365903029617 L212.375,259.1561620252033 L214.75,260.36780548995904 L216.1396987762081,257.0" fill="none" stroke="#4477AA" stroke-width="2.4" stroke-linejoin="round" />
<path d="M216.1396987762081,257.0 L217.125,254.61221429596128 L219.5,251.82515773316783 L221.875,250.91133178071578 L224.25,245.28413784257404 L226.625,248.30318393308357 L229.0,250.62067513382715 L231.375,248.1407568573412 L233.75000000000003,248.6964209105826 L236.125,246.14210358050934 L238.5,243.8153712332806 L240.875,241.00462893602327 L243.25,232.61237199942073 L245.62500000000003,233.98984668117836 L248.0,232.80759716570967 L250.375,235.09758663928562 L252.75,238.62401106701853 L255.125,239.06179474480524 L257.5,235.22150191878083 L259.875,239.73807745122392 L262.25,233.66105226136892 L264.625,233.8917298710227 L267.0,234.43460545674148 L269.375,234.14451212033055 L271.75,236.08424899559276 L274.125,240.30851328932738 L276.5,240.4459509747711 L278.875,238.24852916818622 L281.25,231.05904403486315 L283.625,230.91541638431056 L286.0,227.2832337820163 L288.375,231.56262517564062 L290.75,235.85451292331473 L293.125,234.85802915382223 L295.5,234.88855420434 L297.875,233.61201435560045 L300.25,230.3504171164478 L302.625,222.45943717433062 L305.0,226.46789924781083 L307.375,224.92436014227192 L309.75,221.1460888214795 L312.125,223.15692681986516 L314.5,225.52399032778732 L316.875,225.50238664236866 L319.25,226.72983894240087 L321.625,229.68723196043183 L324.0,231.8556822686773 L326.375,231.89346890651484 L328.75,234.10250353448603 L331.125,231.71998712179075 L333.5,232.0625125921829 L335.875,234.9613506560249 L338.25,238.8967582010481 L340.625,237.30583926437282 L343.0,238.69170933379303 L345.375,238.32114508292148 L347.75,236.91733580170862 L350.125,235.13032839121203 L352.5,243.0876064173751 L354.875,244.8285512618404 L357.25,243.39382708327912 L359.62500000000006,243.58123407550116 L362.0,238.87323138882155 L364.375,239.00794100336316 L366.75,241.49944272048444 L369.125,248.37127860544598 L371.50000000000006,248.3113144584928 L373.875,254.09352109143913 L376.25,253.28805840597994 L378.625,248.99436172880488 L381.0,246.20878250937875 L383.37500000000006,248.01800712291197 L385.75,250.11445844040117 L388.125,247.87725441576737 L390.5,248.69054678697427 L392.875,243.61611076118444 L395.25000000000006,247.10219740532986 L397.625,244.72924552431297 L400.0,246.481439714232 L402.375,244.23215269096733 L404.75,244.21330315127852 L407.12500000000006,248.78065427202796 L409.5,248.1323648935474 L411.875,249.21081198795673 L414.25,249.59719095320986 L416.625,246.9774814957927 L419.00000000000006,253.7408168414663 L421.375,256.23541887011993 L422.05023033895145,257.0" fill="none" stroke="#4477AA" stroke-width="2.4" stroke-linejoin="round" />
<path d="M422.05023033895145,257.0 L423.75,258.92469403847963 L426.125,261.1057535019521 L428.5,264.71382495524864 L430.87500000000006,263.59965359022385 L433.25,266.6153776003464 L435.625,263.7256252987951 L438.0,266.8188758898303 L440.375,267.16657554733627 L442.75000000000006,265.71861415978304 L445.125,266.24916377429594 L447.5,265.0079880187559 L449.875,266.1702499937643 L452.25,267.28237808563085 L454.62500000000006,266.51503691566177 L457.0,271.4734884369617 L459.375,268.48713955686765 L461.75,268.60728929535856 L464.125,269.1992289210035 L466.50000000000006,274.1183242616923 L468.875,270.75358937987426 L471.25,269.5837023187147 L473.625,268.82197125549993 L476.0,271.13992706709513 L478.37500000000006,271.6819753432743 L480.75,274.3885001431287 L483.125,279.2981442022515 L485.50000000000006,282.13813609581246 L487.875,280.03977159602823 L490.25000000000006,283.03620338692633 L492.625,286.15537649950227 L495.0,289.4202659489102 L497.37500000000006,290.9634345904608 L499.75,291.2890226901334 L502.12500000000006,290.7682413033223 L504.5,294.82402777053846 L506.875,292.2983823699496 L509.25000000000006,289.39455609263587 L511.625,286.2086873961191 L514.0,288.71639936515925 L516.375,292.8707097935778 L518.75,290.0192022530729 L521.125,289.71352953506585 L523.5,293.0449854729404 L525.875,294.52149026380863 L528.25,295.53427747693934 L530.625,294.11947827667746 L533.0,295.35961787223806 L535.375,293.65238645305794 L537.75,296.1806164518383 L540.125,298.4722759241456 L542.5,295.11738459208914 L544.875,292.19347995930593 L547.25,283.041094775091 L549.625,279.172064712162 L552.0,280.12028262141814 L554.375,284.0263859896753 L556.75,289.26542887118245 L559.125,287.291158284988 L561.5,283.677499530804 L563.875,288.77876221332247 L566.25,291.56921204705225 L568.625,291.73304689752445 L571.0,291.2881997902137 L573.375,284.41227193355655 L575.75,280.044360255561 L578.125,282.42285697966565 L580.5,284.2424291093872 L582.875,281.7558337941657 L585.25,279.8678096456736 L587.625,276.5082004537948 L590.0,273.99449252739964 L592.375,275.142141346647 L594.75,275.46967535284807 L597.125,273.862812182492 L599.5,277.0869077571736 L601.875,274.68317038449806 L604.25,274.7436275554157 L606.625,276.2852763859909 L609.0,271.22138947071596 L611.3750000000001,268.7883042588632 L613.75,270.73356164485 L616.125,265.2156419850239 L618.5,265.82274003128265 L620.875,271.4909731598951 L623.2500000000001,270.52108329731504 L625.625,278.8431298986833 L628.0,277.8139419484423 L630.375,276.46784820473 L632.75,270.9238253888895 L635.1250000000001,271.5152079349328 L637.5,275.73102257901627 L639.875,278.5764689304655 L642.25,278.71623634105856 L644.625,285.2588795766854 L647.0000000000001,287.8985025722248 L649.375,293.81727025673155 L651.75,293.49415214922317 L654.125,288.97481026482245 L656.5,292.5791591582206 L658.8750000000001,284.85188374610675 L661.25,286.791286238403 L663.625,290.22930205833916 L666.0,295.54245179368354 L668.375,289.96057599470686 L670.7500000000001,295.41941427052654 L673.125,295.0954783926228 L675.5,297.0383756005647 L677.875,296.08337983422734 L680.25,293.6177752580434 L682.6250000000001,294.44423171657184 L685.0,295.07154434401923 L687.375,295.003246471026 L689.75,299.888224476417 L692.125,302.48685708720984 L694.5000000000001,306.84280977563753 L696.875,311.5934715302841 L699.25,312.25324563670125 L701.625,310.6578522789239 L704.0,313.7833297434813 L706.3750000000001,315.15290184473787 L708.75,315.93676126182834 L711.125,318.7240708491621 L713.5,319.3195364617019 L715.875,318.56772484697586 L718.2500000000001,317.40706349551704 L720.625,316.9042326173013 L723.0,316.0247688579419 L725.375,318.84121961629967 L727.75,324.2994869525201 L730.1250000000001,327.992012611017 L732.5,330.67923755047644 L734.875,324.96003786732126 L737.25,325.26027339351594 L739.625,328.9490118616926 L742.0000000000001,329.39654950196797 L744.375,326.47664037835347 L746.75,323.7163166964682 L749.125,322.39570626187606 L751.5,329.8133860269527 L753.8750000000001,333.1239324365303 L756.25,330.98393232674823 L758.625,333.99427210630256 L761.0,332.3516677740502 L763.375,332.037435063506 L765.7500000000001,331.36615687891845 L768.125,329.53775283249365 L770.5,328.73505542291855 L772.875,324.9803073815093 L775.25,322.06819566724505 L777.6250000000001,318.79661903508895 L780.0,322.3261742336465 L782.375,320.8190291742284 L784.75,321.4165352253157 L787.125,319.355408856615 L789.5000000000001,312.80420589150697 L791.875,313.234664687448 L794.25,305.0901399155747 L796.625,299.7112892367104 L799.0,302.70702305035456 L801.3750000000001,299.0210646529599 L803.75,302.3399045227064 L806.125,303.96687712280766 L808.5,307.93574567600035 L810.875,313.2660667811615 L813.2500000000001,309.0917936863785 L815.625,305.70783830954673 L818.0,307.0303402735411 L820.375,311.05019826226953 L822.75,314.1462484611719 L825.1250000000001,321.5587887539003 L827.5,325.15228278952287 L829.875,319.69097761124175 L832.25,322.922250946146 L834.625,322.71115860569375 L837.0000000000001,322.825561342165 L839.375,321.0166911342856 L841.75,322.04066932758747 L844.125,321.60547211473937 L846.5,317.56284656582227 L848.8750000000001,323.155719976492 L851.25,324.6196235601634 L853.625,326.0532353070626 L856.0,321.97792077244304" fill="none" stroke="#4477AA" stroke-width="2.4" stroke-linejoin="round" />
<circle cx="216.1396987762081" cy="257.0" r="3.2" fill="white" stroke="#1a1a1a" stroke-width="1.4" />
<circle cx="422.05023033895145" cy="257.0" r="3.2" fill="white" stroke="#1a1a1a" stroke-width="1.4" />
<text x="70" y="257.0" font-size="12.5" font-family="Helvetica" text-anchor="middle" fill="#777" transform="rotate(-90 70 257.0)">liability</text>
<path d="M860,382 L852,378 L852,386 Z" fill="#1a1a1a" />
<text x="476.0" y="402" font-size="12.5" font-family="Helvetica" text-anchor="middle" fill="#777">time</text>
<text x="86" y="439.0" font-size="12.5" font-family="Helvetica" text-anchor="end" dominant-baseline="central" fill="#1a1a1a">observed state</text>
<rect x="96.0" y="426" width="120.13969877620809" height="26" fill="#4477AA" stroke="white" stroke-width="1.2" />
<text x="156.06984938810405" y="439.0" font-size="11" font-family="Helvetica" text-anchor="middle" dominant-baseline="central" fill="white">below</text>
<rect x="216.1396987762081" y="426" width="205.91053156274336" height="26" fill="#EE6677" stroke="white" stroke-width="1.2" />
<text x="319.0949645575798" y="439.0" font-size="11" font-family="Helvetica" text-anchor="middle" dominant-baseline="central" fill="white">above</text>
<rect x="422.05023033895145" y="426" width="433.94976966104855" height="26" fill="#4477AA" stroke="white" stroke-width="1.2" />
<text x="639.0251151694757" y="439.0" font-size="11" font-family="Helvetica" text-anchor="middle" dominant-baseline="central" fill="white">below</text>
<rect x="96" y="468" width="15" height="15" fill="#4477AA" />
<text x="116" y="476" font-size="12" font-family="Helvetica" text-anchor="start" dominant-baseline="central" fill="#1a1a1a">below threshold</text>
<rect x="246" y="468" width="15" height="15" fill="#EE6677" />
<text x="266" y="476" font-size="12" font-family="Helvetica" text-anchor="start" dominant-baseline="central" fill="#1a1a1a">above threshold</text>
<text x="456" y="476" font-size="12" font-family="Helvetica" text-anchor="start" fill="#999" font-style="italic">two thresholds give three ordered states, and so on</text>
</svg>