<?xml version="1.0" encoding="UTF-8"?>
<svg xmlns="http://www.w3.org/2000/svg" xmlns:xlink="http://www.w3.org/1999/xlink"
     width="1400" height="760" viewBox="0 0 1400 760">
<defs>
</defs>
<rect x="0" y="0" width="1400" height="760" fill="white" />
<text x="700.0" y="48" font-size="32" font-family="Helvetica" text-anchor="middle" font-weight="bold" fill="#1a1a1a">Per-lineage rates</text>
<path d="M100.0,295.74052734375005 L100.0,395.3310546875" stroke="#707070" stroke-width="2.937577291593105" />
<path d="M100.0,295.74052734375005 L100.0,196.15000000000003" stroke="#707070" stroke-width="2.937577291593105" />
<path d="M100.0,196.15000000000003 L315.37540620810205,196.15000000000003" stroke="#707070" stroke-width="2.937577291593105" stroke-linecap="round" />
<path d="M315.37540620810205,196.15000000000003 L315.37540620810205,216.3" stroke="#808080" stroke-width="2.635754729441318" />
<path d="M315.37540620810205,196.15000000000003 L315.37540620810205,176.00000000000003" stroke="#818181" stroke-width="2.628222157522754" />
<path d="M315.37540620810205,176.00000000000003 L356.6085385778748,176.00000000000003" stroke="#818181" stroke-width="2.628222157522754" stroke-linecap="round" />
<path d="M315.37540620810205,216.3 L781.1691645039597,216.3" stroke="#808080" stroke-width="2.635754729441318" stroke-linecap="round" />
<path d="M781.1691645039597,216.3 L781.1691645039597,240.81818181818184" stroke="#7c7c7c" stroke-width="2.721177179934254" />
<path d="M781.1691645039597,216.3 L781.1691645039597,191.7818181818182" stroke="#8c8c8c" stroke-width="2.4251460388112904" />
<path d="M781.1691645039597,191.7818181818182 L1223.6178200594954,191.7818181818182" stroke="#8c8c8c" stroke-width="2.4251460388112904" stroke-linecap="round" />
<path d="M1223.6178200594954,191.7818181818182 L1223.6178200594954,185.01818181818186" stroke="#bbbbbb" stroke-width="1.5371993404762962" />
<path d="M1223.6178200594954,191.7818181818182 L1223.6178200594954,198.54545454545456" stroke="#9b9b9b" stroke-width="2.149675060472239" />
<path d="M1223.6178200594954,198.54545454545456 L1292.242233274935,198.54545454545456" stroke="#9b9b9b" stroke-width="2.149675060472239" stroke-linecap="round" />
<path d="M1292.242233274935,198.54545454545456 L1292.242233274935,194.03636363636366" stroke="#afafaf" stroke-width="1.7743700904606072" />
<path d="M1292.242233274935,198.54545454545456 L1292.242233274935,203.0545454545455" stroke="#8d8d8d" stroke-width="2.400104639708651" />
<path d="M1292.242233274935,203.0545454545455 L1300.0,203.0545454545455" stroke="#8d8d8d" stroke-width="2.400104639708651" stroke-linecap="round" />
<path d="M1292.242233274935,194.03636363636366 L1300.0,194.03636363636366" stroke="#afafaf" stroke-width="1.7743700904606072" stroke-linecap="round" />
<path d="M1223.6178200594954,185.01818181818186 L1300.0,185.01818181818186" stroke="#bbbbbb" stroke-width="1.5371993404762962" stroke-linecap="round" />
<path d="M781.1691645039597,240.81818181818184 L834.4891769991656,240.81818181818184" stroke="#7c7c7c" stroke-width="2.721177179934254" stroke-linecap="round" />
<path d="M834.4891769991656,240.81818181818184 L834.4891769991656,225.60000000000002" stroke="#696969" stroke-width="3.08172780382222" />
<path d="M834.4891769991656,240.81818181818184 L834.4891769991656,256.03636363636366" stroke="#acacac" stroke-width="1.8178060289251419" />
<path d="M834.4891769991656,256.03636363636366 L1194.6383741315994,256.03636363636366" stroke="#acacac" stroke-width="1.8178060289251419" stroke-linecap="round" />
<path d="M1194.6383741315994,256.03636363636366 L1194.6383741315994,263.92727272727274" stroke="#787878" stroke-width="2.787018694319562" />
<path d="M1194.6383741315994,256.03636363636366 L1194.6383741315994,248.14545454545458" stroke="#b9b9b9" stroke-width="1.5796460316840777" />
<path d="M1194.6383741315994,248.14545454545458 L1300.0,248.14545454545458" stroke="#b9b9b9" stroke-width="1.5796460316840777" stroke-linecap="round" />
<path d="M1194.6383741315994,263.92727272727274 L1241.2882992024397,263.92727272727274" stroke="#787878" stroke-width="2.787018694319562" stroke-linecap="round" />
<path d="M1241.2882992024397,263.92727272727274 L1241.2882992024397,270.69090909090914" stroke="#5e5e5e" stroke-width="3.282300702027876" />
<path d="M1241.2882992024397,263.92727272727274 L1241.2882992024397,257.1636363636364" stroke="#a5a5a5" stroke-width="1.948390591766292" />
<path d="M1241.2882992024397,257.1636363636364 L1300.0,257.1636363636364" stroke="#a5a5a5" stroke-width="1.948390591766292" stroke-linecap="round" />
<path d="M1241.2882992024397,270.69090909090914 L1254.4125469073647,270.69090909090914" stroke="#5e5e5e" stroke-width="3.282300702027876" stroke-linecap="round" />
<path d="M1254.4125469073647,270.69090909090914 L1254.4125469073647,266.1818181818182" stroke="#3b3b3b" stroke-width="3.9396608005974523" />
<path d="M1254.4125469073647,270.69090909090914 L1254.4125469073647,275.20000000000005" stroke="#666666" stroke-width="3.125437166710362" />
<path d="M1254.4125469073647,275.20000000000005 L1300.0,275.20000000000005" stroke="#666666" stroke-width="3.125437166710362" stroke-linecap="round" />
<path d="M1254.4125469073647,266.1818181818182 L1300.0,266.1818181818182" stroke="#3b3b3b" stroke-width="3.9396608005974523" stroke-linecap="round" />
<path d="M834.4891769991656,225.60000000000002 L1072.5205438587402,225.60000000000002" stroke="#696969" stroke-width="3.08172780382222" stroke-linecap="round" />
<path d="M1072.5205438587402,225.60000000000002 L1072.5205438587402,216.58181818181822" stroke="#747474" stroke-width="2.869077131119" />
<path d="M1072.5205438587402,225.60000000000002 L1072.5205438587402,234.61818181818185" stroke="#6f6f6f" stroke-width="2.967168952025842" />
<path d="M1072.5205438587402,234.61818181818185 L1238.9449573991712,234.61818181818185" stroke="#6f6f6f" stroke-width="2.967168952025842" stroke-linecap="round" />
<path d="M1238.9449573991712,234.61818181818185 L1238.9449573991712,230.10909090909092" stroke="#7d7d7d" stroke-width="2.6996730000231928" />
<path d="M1238.9449573991712,234.61818181818185 L1238.9449573991712,239.12727272727275" stroke="#7e7e7e" stroke-width="2.691421686324267" />
<path d="M1238.9449573991712,239.12727272727275 L1300.0,239.12727272727275" stroke="#7e7e7e" stroke-width="2.691421686324267" stroke-linecap="round" />
<path d="M1238.9449573991712,230.10909090909092 L1300.0,230.10909090909092" stroke="#7d7d7d" stroke-width="2.6996730000231928" stroke-linecap="round" />
<path d="M1072.5205438587402,216.58181818181822 L1252.491464061935,216.58181818181822" stroke="#747474" stroke-width="2.869077131119" stroke-linecap="round" />
<path d="M1252.491464061935,216.58181818181822 L1252.491464061935,212.0727272727273" stroke="#7d7d7d" stroke-width="2.70189243101526" />
<path d="M1252.491464061935,216.58181818181822 L1252.491464061935,221.09090909090912" stroke="#6d6d6d" stroke-width="3.0033022836761303" />
<path d="M1252.491464061935,221.09090909090912 L1300.0,221.09090909090912" stroke="#6d6d6d" stroke-width="3.0033022836761303" stroke-linecap="round" />
<path d="M1252.491464061935,212.0727272727273 L1300.0,212.0727272727273" stroke="#7d7d7d" stroke-width="2.70189243101526" stroke-linecap="round" />
<path d="M100.0,395.3310546875 L422.74840043039904,395.3310546875" stroke="#707070" stroke-width="2.937577291593105" stroke-linecap="round" />
<path d="M422.74840043039904,395.3310546875 L422.74840043039904,458.04165482954545" stroke="#9c9c9c" stroke-width="2.130635162181673" />
<path d="M422.74840043039904,395.3310546875 L422.74840043039904,332.62045454545455" stroke="#545454" stroke-width="3.4701186216141533" />
<path d="M422.74840043039904,332.62045454545455 L748.2787169217689,332.62045454545455" stroke="#545454" stroke-width="3.4701186216141533" stroke-linecap="round" />
<path d="M748.2787169217689,332.62045454545455 L748.2787169217689,364.1136363636364" stroke="#5f5f5f" stroke-width="3.2683897106075848" />
<path d="M748.2787169217689,332.62045454545455 L748.2787169217689,301.1272727272727" stroke="#5c5c5c" stroke-width="3.3177655679653304" />
<path d="M748.2787169217689,301.1272727272727 L1110.317699063458,301.1272727272727" stroke="#5c5c5c" stroke-width="3.3177655679653304" stroke-linecap="round" />
<path d="M1110.317699063458,301.1272727272727 L1110.317699063458,288.72727272727275" stroke="#696969" stroke-width="3.0766520772717594" />
<path d="M1110.317699063458,301.1272727272727 L1110.317699063458,313.52727272727276" stroke="#353535" stroke-width="4.050471927607257" />
<path d="M1110.317699063458,313.52727272727276 L1141.240877425696,313.52727272727276" stroke="#353535" stroke-width="4.050471927607257" stroke-linecap="round" />
<path d="M1141.240877425696,313.52727272727276 L1141.240877425696,324.8" stroke="#4c4c4c" stroke-width="3.6090174913903823" />
<path d="M1141.240877425696,313.52727272727276 L1141.240877425696,302.25454545454545" stroke="#565656" stroke-width="3.4305670896180827" />
<path d="M1141.240877425696,302.25454545454545 L1300.0,302.25454545454545" stroke="#565656" stroke-width="3.4305670896180827" stroke-linecap="round" />
<path d="M1141.240877425696,324.8 L1246.1234999587157,324.8" stroke="#4c4c4c" stroke-width="3.6090174913903823" stroke-linecap="round" />
<path d="M1246.1234999587157,324.8 L1246.1234999587157,315.7818181818182" stroke="#3a3a3a" stroke-width="3.9492270405076964" />
<path d="M1246.1234999587157,324.8 L1246.1234999587157,333.81818181818187" stroke="#404040" stroke-width="3.8395194611468257" />
<path d="M1246.1234999587157,333.81818181818187 L1275.9874218910047,333.81818181818187" stroke="#404040" stroke-width="3.8395194611468257" stroke-linecap="round" />
<path d="M1275.9874218910047,333.81818181818187 L1275.9874218910047,329.30909090909097" stroke="#272727" stroke-width="4.29996756117433" />
<path d="M1275.9874218910047,333.81818181818187 L1275.9874218910047,338.32727272727277" stroke="#4a4a4a" stroke-width="3.6471278892057475" />
<path d="M1275.9874218910047,338.32727272727277 L1300.0,338.32727272727277" stroke="#4a4a4a" stroke-width="3.6471278892057475" stroke-linecap="round" />
<path d="M1275.9874218910047,329.30909090909097 L1280.9438278626208,329.30909090909097" stroke="#272727" stroke-width="4.29996756117433" stroke-linecap="round" />
<path d="M1246.1234999587157,315.7818181818182 L1246.246713536369,315.7818181818182" stroke="#3a3a3a" stroke-width="3.9492270405076964" stroke-linecap="round" />
<path d="M1246.246713536369,315.7818181818182 L1246.246713536369,311.27272727272725" stroke="#535353" stroke-width="3.48015821289128" />
<path d="M1246.246713536369,315.7818181818182 L1246.246713536369,320.2909090909091" stroke="#212121" stroke-width="4.427736549664604" />
<path d="M1246.246713536369,320.2909090909091 L1300.0,320.2909090909091" stroke="#212121" stroke-width="4.427736549664604" stroke-linecap="round" />
<path d="M1246.246713536369,311.27272727272725 L1300.0,311.27272727272725" stroke="#535353" stroke-width="3.48015821289128" stroke-linecap="round" />
<path d="M1110.317699063458,288.72727272727275 L1173.9200061943125,288.72727272727275" stroke="#696969" stroke-width="3.0766520772717594" stroke-linecap="round" />
<path d="M1173.9200061943125,288.72727272727275 L1173.9200061943125,284.21818181818185" stroke="#6a6a6a" stroke-width="3.050136517184793" />
<path d="M1173.9200061943125,288.72727272727275 L1173.9200061943125,293.23636363636365" stroke="#727272" stroke-width="2.9040403126733714" />
<path d="M1173.9200061943125,293.23636363636365 L1300.0,293.23636363636365" stroke="#727272" stroke-width="2.9040403126733714" stroke-linecap="round" />
<path d="M1173.9200061943125,284.21818181818185 L1300.0,284.21818181818185" stroke="#6a6a6a" stroke-width="3.050136517184793" stroke-linecap="round" />
<path d="M748.2787169217689,364.1136363636364 L1062.1613878517771,364.1136363636364" stroke="#5f5f5f" stroke-width="3.2683897106075848" stroke-linecap="round" />
<path d="M1062.1613878517771,364.1136363636364 L1062.1613878517771,347.3454545454546" stroke="#828282" stroke-width="2.6161258932248126" />
<path d="M1062.1613878517771,364.1136363636364 L1062.1613878517771,380.8818181818182" stroke="#6c6c6c" stroke-width="3.0253242188594625" />
<path d="M1062.1613878517771,380.8818181818182 L1063.7318363431737,380.8818181818182" stroke="#6c6c6c" stroke-width="3.0253242188594625" stroke-linecap="round" />
<path d="M1063.7318363431737,380.8818181818182 L1063.7318363431737,398.6363636363636" stroke="#777777" stroke-width="2.8043809178368235" />
<path d="M1063.7318363431737,380.8818181818182 L1063.7318363431737,363.1272727272727" stroke="#878787" stroke-width="2.512732758227777" />
<path d="M1063.7318363431737,363.1272727272727 L1233.1074690040252,363.1272727272727" stroke="#878787" stroke-width="2.512732758227777" stroke-linecap="round" />
<path d="M1233.1074690040252,363.1272727272727 L1233.1074690040252,369.8909090909091" stroke="#a7a7a7" stroke-width="1.9243259545483618" />
<path d="M1233.1074690040252,363.1272727272727 L1233.1074690040252,356.3636363636364" stroke="#949494" stroke-width="2.2721990282312605" />
<path d="M1233.1074690040252,356.3636363636364 L1300.0,356.3636363636364" stroke="#949494" stroke-width="2.2721990282312605" stroke-linecap="round" />
<path d="M1233.1074690040252,369.8909090909091 L1285.589299867219,369.8909090909091" stroke="#a7a7a7" stroke-width="1.9243259545483618" stroke-linecap="round" />
<path d="M1285.589299867219,369.8909090909091 L1285.589299867219,365.3818181818182" stroke="#a0a0a0" stroke-width="2.0555307328880406" />
<path d="M1285.589299867219,369.8909090909091 L1285.589299867219,374.4" stroke="#999999" stroke-width="2.178086799412638" />
<path d="M1285.589299867219,374.4 L1300.0,374.4" stroke="#999999" stroke-width="2.178086799412638" stroke-linecap="round" />
<path d="M1285.589299867219,365.3818181818182 L1300.0,365.3818181818182" stroke="#a0a0a0" stroke-width="2.0555307328880406" stroke-linecap="round" />
<path d="M1063.7318363431737,398.6363636363636 L1069.3702815985066,398.6363636363636" stroke="#777777" stroke-width="2.8043809178368235" stroke-linecap="round" />
<path d="M1069.3702815985066,398.6363636363636 L1069.3702815985066,409.3454545454546" stroke="#898989" stroke-width="2.4769032997863265" />
<path d="M1069.3702815985066,398.6363636363636 L1069.3702815985066,387.92727272727274" stroke="#808080" stroke-width="2.65090937342765" />
<path d="M1069.3702815985066,387.92727272727274 L1108.802382508805,387.92727272727274" stroke="#808080" stroke-width="2.65090937342765" stroke-linecap="round" />
<path d="M1108.802382508805,387.92727272727274 L1108.802382508805,383.41818181818184" stroke="#929292" stroke-width="2.3018856202990867" />
<path d="M1108.802382508805,387.92727272727274 L1108.802382508805,392.4363636363637" stroke="#9d9d9d" stroke-width="2.1060549623654117" />
<path d="M1108.802382508805,392.4363636363637 L1300.0,392.4363636363637" stroke="#9d9d9d" stroke-width="2.1060549623654117" stroke-linecap="round" />
<path d="M1108.802382508805,383.41818181818184 L1300.0,383.41818181818184" stroke="#929292" stroke-width="2.3018856202990867" stroke-linecap="round" />
<path d="M1069.3702815985066,409.3454545454546 L1079.4071843072602,409.3454545454546" stroke="#898989" stroke-width="2.4769032997863265" stroke-linecap="round" />
<path d="M1079.4071843072602,409.3454545454546 L1079.4071843072602,401.4545454545455" stroke="#777777" stroke-width="2.8126603907922236" />
<path d="M1079.4071843072602,409.3454545454546 L1079.4071843072602,417.23636363636365" stroke="#686868" stroke-width="3.0886910004412877" />
<path d="M1079.4071843072602,417.23636363636365 L1173.999554808012,417.23636363636365" stroke="#686868" stroke-width="3.0886910004412877" stroke-linecap="round" />
<path d="M1173.999554808012,417.23636363636365 L1173.999554808012,424.0" stroke="#636363" stroke-width="3.179445728829719" />
<path d="M1173.999554808012,417.23636363636365 L1173.999554808012,410.4727272727273" stroke="#7b7b7b" stroke-width="2.746419533043561" />
<path d="M1173.999554808012,410.4727272727273 L1300.0,410.4727272727273" stroke="#7b7b7b" stroke-width="2.746419533043561" stroke-linecap="round" />
<path d="M1173.999554808012,424.0 L1191.0821861166742,424.0" stroke="#636363" stroke-width="3.179445728829719" stroke-linecap="round" />
<path d="M1191.0821861166742,424.0 L1191.0821861166742,419.4909090909091" stroke="#4a4a4a" stroke-width="3.6521979834222043" />
<path d="M1191.0821861166742,424.0 L1191.0821861166742,428.5090909090909" stroke="#a4a4a4" stroke-width="1.9680717591697219" />
<path d="M1191.0821861166742,428.5090909090909 L1300.0,428.5090909090909" stroke="#a4a4a4" stroke-width="1.9680717591697219" stroke-linecap="round" />
<path d="M1191.0821861166742,419.4909090909091 L1280.1524174181804,419.4909090909091" stroke="#4a4a4a" stroke-width="3.6521979834222043" stroke-linecap="round" />
<path d="M1079.4071843072602,401.4545454545455 L1107.0646717493278,401.4545454545455" stroke="#777777" stroke-width="2.8126603907922236" stroke-linecap="round" />
<path d="M1062.1613878517771,347.3454545454546 L1300.0,347.3454545454546" stroke="#828282" stroke-width="2.6161258932248126" stroke-linecap="round" />
<path d="M422.74840043039904,458.04165482954545 L456.81924530398703,458.04165482954545" stroke="#9c9c9c" stroke-width="2.130635162181673" stroke-linecap="round" />
<path d="M456.81924530398703,458.04165482954545 L456.81924530398703,474.0469460227273" stroke="#7a7a7a" stroke-width="2.7600969454519455" />
<path d="M456.81924530398703,458.04165482954545 L456.81924530398703,442.0363636363636" stroke="#8c8c8c" stroke-width="2.4272254748873197" />
<path d="M456.81924530398703,442.0363636363636 L973.9438698174423,442.0363636363636" stroke="#8c8c8c" stroke-width="2.4272254748873197" stroke-linecap="round" />
<path d="M973.9438698174423,442.0363636363636 L973.9438698174423,437.5272727272727" stroke="#6e6e6e" stroke-width="2.9726176969648375" />
<path d="M973.9438698174423,442.0363636363636 L973.9438698174423,446.5454545454545" stroke="#797979" stroke-width="2.7850380409958593" />
<path d="M973.9438698174423,446.5454545454545 L1300.0,446.5454545454545" stroke="#797979" stroke-width="2.7850380409958593" stroke-linecap="round" />
<path d="M973.9438698174423,437.5272727272727 L1284.2747200720144,437.5272727272727" stroke="#6e6e6e" stroke-width="2.9726176969648375" stroke-linecap="round" />
<path d="M456.81924530398703,474.0469460227273 L458.31645367601584,474.0469460227273" stroke="#7a7a7a" stroke-width="2.7600969454519455" stroke-linecap="round" />
<path d="M458.31645367601584,474.0469460227273 L458.31645367601584,455.5636363636364" stroke="#6e6e6e" stroke-width="2.982497507460013" />
<path d="M458.31645367601584,474.0469460227273 L458.31645367601584,492.5302556818182" stroke="#5b5b5b" stroke-width="3.3345232510702614" />
<path d="M458.31645367601584,492.5302556818182 L475.55949496355055,492.5302556818182" stroke="#5b5b5b" stroke-width="3.3345232510702614" stroke-linecap="round" />
<path d="M475.55949496355055,492.5302556818182 L475.55949496355055,515.9696022727272" stroke="#8a8a8a" stroke-width="2.4630188130170394" />
<path d="M475.55949496355055,492.5302556818182 L475.55949496355055,469.0909090909091" stroke="#717171" stroke-width="2.9294941862663" />
<path d="M475.55949496355055,469.0909090909091 L982.6673426203415,469.0909090909091" stroke="#717171" stroke-width="2.9294941862663" stroke-linecap="round" />
<path d="M982.6673426203415,469.0909090909091 L982.6673426203415,464.5818181818182" stroke="#949494" stroke-width="2.271087598202612" />
<path d="M982.6673426203415,469.0909090909091 L982.6673426203415,473.6" stroke="#939393" stroke-width="2.2840052664105475" />
<path d="M982.6673426203415,473.6 L1300.0,473.6" stroke="#939393" stroke-width="2.2840052664105475" stroke-linecap="round" />
<path d="M982.6673426203415,464.5818181818182 L1300.0,464.5818181818182" stroke="#949494" stroke-width="2.271087598202612" stroke-linecap="round" />
<path d="M475.55949496355055,515.9696022727272 L666.5622398471288,515.9696022727272" stroke="#8a8a8a" stroke-width="2.4630188130170394" stroke-linecap="round" />
<path d="M666.5622398471288,515.9696022727272 L666.5622398471288,489.3818181818182" stroke="#8e8e8e" stroke-width="2.3844185257064057" />
<path d="M666.5622398471288,515.9696022727272 L666.5622398471288,542.5573863636364" stroke="#8e8e8e" stroke-width="2.376383557922339" />
<path d="M666.5622398471288,542.5573863636364 L883.4294455036462,542.5573863636364" stroke="#8e8e8e" stroke-width="2.376383557922339" stroke-linecap="round" />
<path d="M883.4294455036462,542.5573863636364 L883.4294455036462,568.6784090909091" stroke="#646464" stroke-width="3.1742997961501462" />
<path d="M883.4294455036462,542.5573863636364 L883.4294455036462,516.4363636363637" stroke="#9f9f9f" stroke-width="2.0738743711752012" />
<path d="M883.4294455036462,516.4363636363637 L1078.7310800682212,516.4363636363637" stroke="#9f9f9f" stroke-width="2.0738743711752012" stroke-linecap="round" />
<path d="M1078.7310800682212,516.4363636363637 L1078.7310800682212,509.67272727272723" stroke="#a4a4a4" stroke-width="1.9763723126726505" />
<path d="M1078.7310800682212,516.4363636363637 L1078.7310800682212,523.2" stroke="#8f8f8f" stroke-width="2.360784011168294" />
<path d="M1078.7310800682212,523.2 L1176.3636605915378,523.2" stroke="#8f8f8f" stroke-width="2.360784011168294" stroke-linecap="round" />
<path d="M1176.3636605915378,523.2 L1176.3636605915378,518.6909090909091" stroke="#7e7e7e" stroke-width="2.680104821909583" />
<path d="M1176.3636605915378,523.2 L1176.3636605915378,527.709090909091" stroke="#8f8f8f" stroke-width="2.3603856948273743" />
<path d="M1176.3636605915378,527.709090909091 L1300.0,527.709090909091" stroke="#8f8f8f" stroke-width="2.3603856948273743" stroke-linecap="round" />
<path d="M1176.3636605915378,518.6909090909091 L1300.0,518.6909090909091" stroke="#7e7e7e" stroke-width="2.680104821909583" stroke-linecap="round" />
<path d="M1078.7310800682212,509.67272727272723 L1300.0,509.67272727272723" stroke="#a4a4a4" stroke-width="1.9763723126726505" stroke-linecap="round" />
<path d="M883.4294455036462,568.6784090909091 L926.3674883520246,568.6784090909091" stroke="#646464" stroke-width="3.1742997961501462" stroke-linecap="round" />
<path d="M926.3674883520246,568.6784090909091 L926.3674883520246,596.1204545454545" stroke="#4f4f4f" stroke-width="3.5572841701975735" />
<path d="M926.3674883520246,568.6784090909091 L926.3674883520246,541.2363636363636" stroke="#757575" stroke-width="2.8442445864193555" />
<path d="M926.3674883520246,541.2363636363636 L1163.934720421073,541.2363636363636" stroke="#757575" stroke-width="2.8442445864193555" stroke-linecap="round" />
<path d="M1163.934720421073,541.2363636363636 L1163.934720421073,536.7272727272727" stroke="#797979" stroke-width="2.7818040188883675" />
<path d="M1163.934720421073,541.2363636363636 L1163.934720421073,545.7454545454545" stroke="#6d6d6d" stroke-width="3.0009652501298776" />
<path d="M1163.934720421073,545.7454545454545 L1300.0,545.7454545454545" stroke="#6d6d6d" stroke-width="3.0009652501298776" stroke-linecap="round" />
<path d="M1163.934720421073,536.7272727272727 L1300.0,536.7272727272727" stroke="#797979" stroke-width="2.7818040188883675" stroke-linecap="round" />
<path d="M926.3674883520246,596.1204545454545 L942.1018045964511,596.1204545454545" stroke="#4f4f4f" stroke-width="3.5572841701975735" stroke-linecap="round" />
<path d="M942.1018045964511,596.1204545454545 L942.1018045964511,572.8" stroke="#323232" stroke-width="4.097206103921125" />
<path d="M942.1018045964511,596.1204545454545 L942.1018045964511,619.4409090909091" stroke="#696969" stroke-width="3.0688922101400595" />
<path d="M942.1018045964511,619.4409090909091 L1042.0942227746768,619.4409090909091" stroke="#696969" stroke-width="3.0688922101400595" stroke-linecap="round" />
<path d="M1042.0942227746768,619.4409090909091 L1042.0942227746768,630.0090909090909" stroke="#6f6f6f" stroke-width="2.970048799018963" />
<path d="M1042.0942227746768,619.4409090909091 L1042.0942227746768,608.8727272727273" stroke="#777777" stroke-width="2.81009908299162" />
<path d="M1042.0942227746768,608.8727272727273 L1300.0,608.8727272727273" stroke="#777777" stroke-width="2.81009908299162" stroke-linecap="round" />
<path d="M1042.0942227746768,630.0090909090909 L1153.5844318476916,630.0090909090909" stroke="#6f6f6f" stroke-width="2.970048799018963" stroke-linecap="round" />
<path d="M1153.5844318476916,630.0090909090909 L1153.5844318476916,617.8909090909091" stroke="#7f7f7f" stroke-width="2.671243756119827" />
<path d="M1153.5844318476916,630.0090909090909 L1153.5844318476916,642.1272727272727" stroke="#6a6a6a" stroke-width="3.062340081700659" />
<path d="M1153.5844318476916,642.1272727272727 L1161.3480560519245,642.1272727272727" stroke="#6a6a6a" stroke-width="3.062340081700659" stroke-linecap="round" />
<path d="M1161.3480560519245,642.1272727272727 L1161.3480560519245,631.4181818181818" stroke="#606060" stroke-width="3.2339130075495772" />
<path d="M1161.3480560519245,642.1272727272727 L1161.3480560519245,652.8363636363637" stroke="#505050" stroke-width="3.5488873177480684" />
<path d="M1161.3480560519245,652.8363636363637 L1230.6240460721076,652.8363636363637" stroke="#505050" stroke-width="3.5488873177480684" stroke-linecap="round" />
<path d="M1230.6240460721076,652.8363636363637 L1230.6240460721076,644.9454545454546" stroke="#585858" stroke-width="3.3909687341310626" />
<path d="M1230.6240460721076,652.8363636363637 L1230.6240460721076,660.7272727272727" stroke="#414141" stroke-width="3.831008312121911" />
<path d="M1230.6240460721076,660.7272727272727 L1272.6763172820654,660.7272727272727" stroke="#414141" stroke-width="3.831008312121911" stroke-linecap="round" />
<path d="M1272.6763172820654,660.7272727272727 L1272.6763172820654,667.4909090909091" stroke="#4d4d4d" stroke-width="3.598684769633361" />
<path d="M1272.6763172820654,660.7272727272727 L1272.6763172820654,653.9636363636364" stroke="#121212" stroke-width="4.7" />
<path d="M1272.6763172820654,653.9636363636364 L1300.0,653.9636363636364" stroke="#121212" stroke-width="4.7" stroke-linecap="round" />
<path d="M1272.6763172820654,667.4909090909091 L1278.962689765146,667.4909090909091" stroke="#4d4d4d" stroke-width="3.598684769633361" stroke-linecap="round" />
<path d="M1278.962689765146,667.4909090909091 L1278.962689765146,662.9818181818182" stroke="#636363" stroke-width="3.1782618687846282" />
<path d="M1278.962689765146,667.4909090909091 L1278.962689765146,672.0" stroke="#646464" stroke-width="3.167310902061158" />
<path d="M1278.962689765146,672.0 L1300.0,672.0" stroke="#646464" stroke-width="3.167310902061158" stroke-linecap="round" />
<path d="M1278.962689765146,662.9818181818182 L1300.0,662.9818181818182" stroke="#636363" stroke-width="3.1782618687846282" stroke-linecap="round" />
<path d="M1230.6240460721076,644.9454545454546 L1300.0,644.9454545454546" stroke="#585858" stroke-width="3.3909687341310626" stroke-linecap="round" />
<path d="M1161.3480560519245,631.4181818181818 L1202.7508914770347,631.4181818181818" stroke="#606060" stroke-width="3.2339130075495772" stroke-linecap="round" />
<path d="M1202.7508914770347,631.4181818181818 L1202.7508914770347,626.9090909090909" stroke="#565656" stroke-width="3.4354656586487975" />
<path d="M1202.7508914770347,631.4181818181818 L1202.7508914770347,635.9272727272727" stroke="#464646" stroke-width="3.7298104609389924" />
<path d="M1202.7508914770347,635.9272727272727 L1300.0,635.9272727272727" stroke="#464646" stroke-width="3.7298104609389924" stroke-linecap="round" />
<path d="M1202.7508914770347,626.9090909090909 L1300.0,626.9090909090909" stroke="#565656" stroke-width="3.4354656586487975" stroke-linecap="round" />
<path d="M1153.5844318476916,617.8909090909091 L1300.0,617.8909090909091" stroke="#7f7f7f" stroke-width="2.671243756119827" stroke-linecap="round" />
<path d="M942.1018045964511,572.8 L1062.15426266967,572.8" stroke="#323232" stroke-width="4.097206103921125" stroke-linecap="round" />
<path d="M1062.15426266967,572.8 L1062.15426266967,559.2727272727273" stroke="#4d4d4d" stroke-width="3.604376104300502" />
<path d="M1062.15426266967,572.8 L1062.15426266967,586.3272727272728" stroke="#555555" stroke-width="3.455520903181201" />
<path d="M1062.15426266967,586.3272727272728 L1140.5151211922516,586.3272727272728" stroke="#555555" stroke-width="3.455520903181201" stroke-linecap="round" />
<path d="M1140.5151211922516,586.3272727272728 L1140.5151211922516,577.309090909091" stroke="#929292" stroke-width="2.2999583416493734" />
<path d="M1140.5151211922516,586.3272727272728 L1140.5151211922516,595.3454545454546" stroke="#6a6a6a" stroke-width="3.0506893052871016" />
<path d="M1140.5151211922516,595.3454545454546 L1206.9155720121935,595.3454545454546" stroke="#6a6a6a" stroke-width="3.0506893052871016" stroke-linecap="round" />
<path d="M1206.9155720121935,595.3454545454546 L1206.9155720121935,590.8363636363637" stroke="#5f5f5f" stroke-width="3.2684529818671573" />
<path d="M1206.9155720121935,595.3454545454546 L1206.9155720121935,599.8545454545455" stroke="#767676" stroke-width="2.8264047318774006" />
<path d="M1206.9155720121935,599.8545454545455 L1248.003170974208,599.8545454545455" stroke="#767676" stroke-width="2.8264047318774006" stroke-linecap="round" />
<path d="M1206.9155720121935,590.8363636363637 L1300.0,590.8363636363637" stroke="#5f5f5f" stroke-width="3.2684529818671573" stroke-linecap="round" />
<path d="M1140.5151211922516,577.309090909091 L1286.5979445691705,577.309090909091" stroke="#929292" stroke-width="2.2999583416493734" stroke-linecap="round" />
<path d="M1286.5979445691705,577.309090909091 L1286.5979445691705,572.8" stroke="#8c8c8c" stroke-width="2.4256656621274666" />
<path d="M1286.5979445691705,577.309090909091 L1286.5979445691705,581.8181818181819" stroke="#979797" stroke-width="2.210250336885179" />
<path d="M1286.5979445691705,581.8181818181819 L1300.0,581.8181818181819" stroke="#979797" stroke-width="2.210250336885179" stroke-linecap="round" />
<path d="M1286.5979445691705,572.8 L1300.0,572.8" stroke="#8c8c8c" stroke-width="2.4256656621274666" stroke-linecap="round" />
<path d="M1062.15426266967,559.2727272727273 L1298.1023317396102,559.2727272727273" stroke="#4d4d4d" stroke-width="3.604376104300502" stroke-linecap="round" />
<path d="M1298.1023317396102,559.2727272727273 L1298.1023317396102,554.7636363636364" stroke="#686868" stroke-width="3.0938807496461598" />
<path d="M1298.1023317396102,559.2727272727273 L1298.1023317396102,563.7818181818182" stroke="#707070" stroke-width="2.947508288045066" />
<path d="M1298.1023317396102,563.7818181818182 L1300.0,563.7818181818182" stroke="#707070" stroke-width="2.947508288045066" stroke-linecap="round" />
<path d="M1298.1023317396102,554.7636363636364 L1300.0,554.7636363636364" stroke="#686868" stroke-width="3.0938807496461598" stroke-linecap="round" />
<path d="M666.5622398471288,489.3818181818182 L1094.00834038216,489.3818181818182" stroke="#8e8e8e" stroke-width="2.3844185257064057" stroke-linecap="round" />
<path d="M1094.00834038216,489.3818181818182 L1094.00834038216,482.6181818181818" stroke="#a5a5a5" stroke-width="1.9504435328804357" />
<path d="M1094.00834038216,489.3818181818182 L1094.00834038216,496.1454545454545" stroke="#b1b1b1" stroke-width="1.729759322827186" />
<path d="M1094.00834038216,496.1454545454545 L1194.566695071822,496.1454545454545" stroke="#b1b1b1" stroke-width="1.729759322827186" stroke-linecap="round" />
<path d="M1194.566695071822,496.1454545454545 L1194.566695071822,491.6363636363636" stroke="#9c9c9c" stroke-width="2.1227481078144677" />
<path d="M1194.566695071822,496.1454545454545 L1194.566695071822,500.6545454545454" stroke="#c8c8c8" stroke-width="1.3" />
<path d="M1194.566695071822,500.6545454545454 L1300.0,500.6545454545454" stroke="#c8c8c8" stroke-width="1.3" stroke-linecap="round" />
<path d="M1194.566695071822,491.6363636363636 L1300.0,491.6363636363636" stroke="#9c9c9c" stroke-width="2.1227481078144677" stroke-linecap="round" />
<path d="M1094.00834038216,482.6181818181818 L1300.0,482.6181818181818" stroke="#a5a5a5" stroke-width="1.9504435328804357" stroke-linecap="round" />
<path d="M458.31645367601584,455.5636363636364 L490.58246601060176,455.5636363636364" stroke="#6e6e6e" stroke-width="2.982497507460013" stroke-linecap="round" />
<rect x="120.0" y="128" width="4.766666666666667" height="18" fill="#c8c8c8" />
<rect x="124.23728813559322" y="128" width="4.766666666666667" height="18" fill="#c5c5c5" />
<rect x="128.47457627118644" y="128" width="4.766666666666667" height="18" fill="#c2c2c2" />
<rect x="132.71186440677965" y="128" width="4.766666666666667" height="18" fill="#bfbfbf" />
<rect x="136.94915254237287" y="128" width="4.766666666666667" height="18" fill="#bcbcbc" />
<rect x="141.1864406779661" y="128" width="4.766666666666667" height="18" fill="#b9b9b9" />
<rect x="145.42372881355934" y="128" width="4.766666666666667" height="18" fill="#b5b5b5" />
<rect x="149.66101694915255" y="128" width="4.766666666666667" height="18" fill="#b2b2b2" />
<rect x="153.89830508474577" y="128" width="4.766666666666667" height="18" fill="#afafaf" />
<rect x="158.135593220339" y="128" width="4.766666666666667" height="18" fill="#acacac" />
<rect x="162.3728813559322" y="128" width="4.766666666666667" height="18" fill="#a9a9a9" />
<rect x="166.61016949152543" y="128" width="4.766666666666667" height="18" fill="#a6a6a6" />
<rect x="170.84745762711864" y="128" width="4.766666666666667" height="18" fill="#a3a3a3" />
<rect x="175.08474576271186" y="128" width="4.766666666666667" height="18" fill="#a0a0a0" />
<rect x="179.32203389830508" y="128" width="4.766666666666667" height="18" fill="#9d9d9d" />
<rect x="183.5593220338983" y="128" width="4.766666666666667" height="18" fill="#9a9a9a" />
<rect x="187.79661016949154" y="128" width="4.766666666666667" height="18" fill="#979797" />
<rect x="192.03389830508473" y="128" width="4.766666666666667" height="18" fill="#949494" />
<rect x="196.27118644067798" y="128" width="4.766666666666667" height="18" fill="#909090" />
<rect x="200.50847457627117" y="128" width="4.766666666666667" height="18" fill="#8d8d8d" />
<rect x="204.74576271186442" y="128" width="4.766666666666667" height="18" fill="#8a8a8a" />
<rect x="208.9830508474576" y="128" width="4.766666666666667" height="18" fill="#878787" />
<rect x="213.22033898305085" y="128" width="4.766666666666667" height="18" fill="#848484" />
<rect x="217.45762711864407" y="128" width="4.766666666666667" height="18" fill="#818181" />
<rect x="221.6949152542373" y="128" width="4.766666666666667" height="18" fill="#7e7e7e" />
<rect x="225.9322033898305" y="128" width="4.766666666666667" height="18" fill="#7b7b7b" />
<rect x="230.16949152542372" y="128" width="4.766666666666667" height="18" fill="#787878" />
<rect x="234.40677966101697" y="128" width="4.766666666666667" height="18" fill="#757575" />
<rect x="238.64406779661016" y="128" width="4.766666666666667" height="18" fill="#727272" />
<rect x="242.8813559322034" y="128" width="4.766666666666667" height="18" fill="#6f6f6f" />
<rect x="247.1186440677966" y="128" width="4.766666666666667" height="18" fill="#6b6b6b" />
<rect x="251.35593220338984" y="128" width="4.766666666666667" height="18" fill="#686868" />
<rect x="255.59322033898306" y="128" width="4.766666666666667" height="18" fill="#656565" />
<rect x="259.8305084745763" y="128" width="4.766666666666667" height="18" fill="#626262" />
<rect x="264.06779661016947" y="128" width="4.766666666666667" height="18" fill="#5f5f5f" />
<rect x="268.3050847457627" y="128" width="4.766666666666667" height="18" fill="#5c5c5c" />
<rect x="272.54237288135596" y="128" width="4.766666666666667" height="18" fill="#595959" />
<rect x="276.77966101694915" y="128" width="4.766666666666667" height="18" fill="#565656" />
<rect x="281.01694915254234" y="128" width="4.766666666666667" height="18" fill="#535353" />
<rect x="285.2542372881356" y="128" width="4.766666666666667" height="18" fill="#505050" />
<rect x="289.49152542372883" y="128" width="4.766666666666667" height="18" fill="#4d4d4d" />
<rect x="293.728813559322" y="128" width="4.766666666666667" height="18" fill="#4a4a4a" />
<rect x="297.9661016949152" y="128" width="4.766666666666667" height="18" fill="#464646" />
<rect x="302.20338983050846" y="128" width="4.766666666666667" height="18" fill="#434343" />
<rect x="306.4406779661017" y="128" width="4.766666666666667" height="18" fill="#404040" />
<rect x="310.6779661016949" y="128" width="4.766666666666667" height="18" fill="#3d3d3d" />
<rect x="314.91525423728814" y="128" width="4.766666666666667" height="18" fill="#3a3a3a" />
<rect x="319.1525423728814" y="128" width="4.766666666666667" height="18" fill="#373737" />
<rect x="323.3898305084746" y="128" width="4.766666666666667" height="18" fill="#343434" />
<rect x="327.62711864406776" y="128" width="4.766666666666667" height="18" fill="#313131" />
<rect x="331.864406779661" y="128" width="4.766666666666667" height="18" fill="#2e2e2e" />
<rect x="336.10169491525426" y="128" width="4.766666666666667" height="18" fill="#2b2b2b" />
<rect x="340.33898305084745" y="128" width="4.766666666666667" height="18" fill="#282828" />
<rect x="344.5762711864407" y="128" width="4.766666666666667" height="18" fill="#252525" />
<rect x="348.81355932203394" y="128" width="4.766666666666667" height="18" fill="#212121" />
<rect x="353.0508474576271" y="128" width="4.766666666666667" height="18" fill="#1e1e1e" />
<rect x="357.2881355932203" y="128" width="4.766666666666667" height="18" fill="#1b1b1b" />
<rect x="361.52542372881356" y="128" width="4.766666666666667" height="18" fill="#181818" />
<rect x="365.7627118644068" y="128" width="4.766666666666667" height="18" fill="#151515" />
<rect x="370.0" y="128" width="4.766666666666667" height="18" fill="#121212" />
<rect x="120" y="128" width="250" height="18" fill="none" stroke="#1a1a1a" stroke-width="0.9" />
<text x="120" y="116" font-size="22" font-family="Helvetica" text-anchor="start" font-weight="bold" fill="#1a1a1a">speciation rate</text>
<text x="110" y="137.0" font-size="18" font-family="Helvetica" text-anchor="end" dominant-baseline="central" fill="#555">slow</text>
<text x="380" y="137.0" font-size="18" font-family="Helvetica" text-anchor="start" dominant-baseline="central" fill="#555">fast</text>
<path d="M100,700.0 L1300,700.0" stroke="#bdbdbd" stroke-width="1.2" />
<path d="M100.0,700.0 L100.0,706.0" stroke="#1a1a1a" stroke-width="1.2" />
<text x="100.0" y="724.0" font-size="18" font-family="Helvetica" text-anchor="middle" fill="#777">0.0</text>
<path d="M340.0,700.0 L340.0,706.0" stroke="#1a1a1a" stroke-width="1.2" />
<text x="340.0" y="724.0" font-size="18" font-family="Helvetica" text-anchor="middle" fill="#777">1.2</text>
<path d="M580.0,700.0 L580.0,706.0" stroke="#1a1a1a" stroke-width="1.2" />
<text x="580.0" y="724.0" font-size="18" font-family="Helvetica" text-anchor="middle" fill="#777">2.4</text>
<path d="M820.0,700.0 L820.0,706.0" stroke="#1a1a1a" stroke-width="1.2" />
<text x="820.0" y="724.0" font-size="18" font-family="Helvetica" text-anchor="middle" fill="#777">3.6</text>
<path d="M1060.0,700.0 L1060.0,706.0" stroke="#1a1a1a" stroke-width="1.2" />
<text x="1060.0" y="724.0" font-size="18" font-family="Helvetica" text-anchor="middle" fill="#777">4.8</text>
<path d="M1300.0,700.0 L1300.0,706.0" stroke="#1a1a1a" stroke-width="1.2" />
<text x="1300.0" y="724.0" font-size="18" font-family="Helvetica" text-anchor="middle" fill="#777">6.0</text>
<text x="700.0" y="752.0" font-size="22" font-family="Helvetica" text-anchor="middle" fill="#555">time (root to present)</text>
</svg>