<?xml version="1.0" encoding="UTF-8"?>
<svg xmlns="http://www.w3.org/2000/svg" xmlns:xlink="http://www.w3.org/1999/xlink"
     width="1220" height="700" viewBox="0 0 1220 700">
<defs>
</defs>
<rect x="0" y="0" width="1220" height="700" fill="white" />
<text x="610.0" y="46" font-size="32" font-family="Helvetica" text-anchor="middle" font-weight="bold" fill="#1a1a1a">Gradual vs punctuational genome (species to genes)</text>
<circle cx="360.0" cy="82" r="6.5" fill="white" stroke="#1a1a1a" stroke-width="2.0" />
<text x="374.0" y="82" font-size="18" font-family="Helvetica" text-anchor="start" dominant-baseline="central" fill="#1a1a1a">gene turnover along a branch</text>
<path d="M680.0,75.5 L686.5,82 L680.0,88.5 L673.5,82 Z" fill="#1a1a1a" />
<text x="694.0" y="82" font-size="18" font-family="Helvetica" text-anchor="start" dominant-baseline="central" fill="#1a1a1a">turnover at a speciation</text>
<text x="70" y="152" font-size="22" font-family="Helvetica" text-anchor="start" fill="#1a1a1a" font-weight="bold">A   gradual: gene content drifts along branches</text>
<path d="M104.0,202.0 L434.0,202.0" stroke="#1a1a1a" stroke-width="2.6" stroke-linecap="butt" />
<circle cx="269.0" cy="202.0" r="7.5" fill="white" stroke="#1a1a1a" stroke-width="2.0" />
<path d="M104.0,417.025 L203.44905098654374,417.025" stroke="#1a1a1a" stroke-width="2.6" stroke-linecap="butt" />
<circle cx="153.72452549327187" cy="417.025" r="6.0" fill="white" stroke="#1a1a1a" stroke-width="2.0" />
<path d="M203.44905098654374,311.8 L318.80136032268535,311.8" stroke="#1a1a1a" stroke-width="2.6" stroke-linecap="butt" />
<circle cx="261.12520565461455" cy="311.8" r="5.598076211353316" fill="white" stroke="#1a1a1a" stroke-width="2.0" />
<path d="M203.44905098654374,522.25 L231.08516445943155,522.25" stroke="#1a1a1a" stroke-width="2.6" stroke-linecap="butt" />
<circle cx="217.26710772298765" cy="522.25" r="4.5" fill="white" stroke="#1a1a1a" stroke-width="2.0" />
<path d="M318.80136032268535,238.6 L434.0,238.6" stroke="#1a1a1a" stroke-width="2.6" stroke-linecap="butt" />
<circle cx="376.4006801613427" cy="238.6" r="5.121320343559643" fill="white" stroke="#1a1a1a" stroke-width="2.0" />
<path d="M318.80136032268535,385.0 L332.1616622613211,385.0" stroke="#1a1a1a" stroke-width="2.6" stroke-linecap="butt" />
<circle cx="325.48151129200323" cy="385.0" r="4.5" fill="white" stroke="#1a1a1a" stroke-width="2.0" />
<path d="M231.08516445943155,494.8 L434.0,494.8" stroke="#1a1a1a" stroke-width="2.6" stroke-linecap="butt" />
<circle cx="332.5425822297158" cy="494.8" r="6.354101966249685" fill="white" stroke="#1a1a1a" stroke-width="2.0" />
<path d="M231.08516445943155,549.7 L286.38874082323014,549.7" stroke="#1a1a1a" stroke-width="2.6" stroke-linecap="butt" />
<path d="M332.1616622613211,330.1 L400.76337152702746,330.1" stroke="#1a1a1a" stroke-width="2.6" stroke-linecap="butt" />
<circle cx="366.4625168941743" cy="330.1" r="5.121320343559643" fill="white" stroke="#1a1a1a" stroke-width="2.0" />
<path d="M332.1616622613211,439.9 L383.0924320307977,439.9" stroke="#1a1a1a" stroke-width="2.6" stroke-linecap="butt" />
<circle cx="357.6270471460594" cy="439.9" r="5.121320343559643" fill="white" stroke="#1a1a1a" stroke-width="2.0" />
<path d="M286.38874082323014,531.4000000000001 L434.0,531.4000000000001" stroke="#1a1a1a" stroke-width="2.6" stroke-linecap="butt" />
<circle cx="360.19437041161507" cy="531.4000000000001" r="5.121320343559643" fill="white" stroke="#1a1a1a" stroke-width="2.0" />
<path d="M286.38874082323014,568.0 L434.0,568.0" stroke="#1a1a1a" stroke-width="2.6" stroke-linecap="butt" />
<circle cx="360.19437041161507" cy="568.0" r="6.0" fill="white" stroke="#1a1a1a" stroke-width="2.0" />
<path d="M400.76337152702746,293.5 L416.70929493135486,293.5" stroke="#1a1a1a" stroke-width="2.6" stroke-linecap="butt" />
<path d="M400.76337152702746,366.70000000000005 L414.9327298260143,366.70000000000005" stroke="#1a1a1a" stroke-width="2.6" stroke-linecap="butt" />
<circle cx="407.84805067652087" cy="366.70000000000005" r="4.5" fill="white" stroke="#1a1a1a" stroke-width="2.0" />
<path d="M383.0924320307977,421.6 L434.0,421.6" stroke="#1a1a1a" stroke-width="2.6" stroke-linecap="butt" />
<circle cx="408.54621601539884" cy="421.6" r="4.5" fill="white" stroke="#1a1a1a" stroke-width="2.0" />
<path d="M383.0924320307977,458.2 L434.0,458.2" stroke="#1a1a1a" stroke-width="2.6" stroke-linecap="butt" />
<circle cx="408.54621601539884" cy="458.2" r="5.598076211353316" fill="white" stroke="#1a1a1a" stroke-width="2.0" />
<path d="M416.70929493135486,275.2 L434.0,275.2" stroke="#1a1a1a" stroke-width="2.6" stroke-linecap="butt" />
<circle cx="425.35464746567743" cy="275.2" r="5.121320343559643" fill="white" stroke="#1a1a1a" stroke-width="2.0" />
<path d="M416.70929493135486,311.8 L434.0,311.8" stroke="#1a1a1a" stroke-width="2.6" stroke-linecap="butt" />
<path d="M414.9327298260143,348.4 L434.0,348.4" stroke="#1a1a1a" stroke-width="2.6" stroke-linecap="butt" />
<circle cx="424.46636491300717" cy="348.4" r="4.5" fill="white" stroke="#1a1a1a" stroke-width="2.0" />
<path d="M414.9327298260143,385.0 L434.0,385.0" stroke="#1a1a1a" stroke-width="2.6" stroke-linecap="butt" />
<path d="M416.70929493135486,275.2 L416.70929493135486,311.8" stroke="#1a1a1a" stroke-width="2.6" />
<path d="M414.9327298260143,348.4 L414.9327298260143,385.0" stroke="#1a1a1a" stroke-width="2.6" />
<path d="M400.76337152702746,293.5 L400.76337152702746,366.70000000000005" stroke="#1a1a1a" stroke-width="2.6" />
<path d="M383.0924320307977,421.6 L383.0924320307977,458.2" stroke="#1a1a1a" stroke-width="2.6" />
<path d="M332.1616622613211,330.1 L332.1616622613211,439.9" stroke="#1a1a1a" stroke-width="2.6" />
<path d="M318.80136032268535,238.6 L318.80136032268535,385.0" stroke="#1a1a1a" stroke-width="2.6" />
<path d="M286.38874082323014,531.4000000000001 L286.38874082323014,568.0" stroke="#1a1a1a" stroke-width="2.6" />
<path d="M231.08516445943155,494.8 L231.08516445943155,549.7" stroke="#1a1a1a" stroke-width="2.6" />
<path d="M203.44905098654374,311.8 L203.44905098654374,522.25" stroke="#1a1a1a" stroke-width="2.6" />
<path d="M104.0,202.0 L104.0,417.025" stroke="#1a1a1a" stroke-width="2.6" />
<rect x="452" y="196.0" width="120.0" height="12" fill="#1a1a1a" stroke="none" />
<text x="578.0" y="202.0" font-size="18" font-family="Helvetica" text-anchor="start" dominant-baseline="central" fill="#8a8a8a">17</text>
<rect x="452" y="232.6" width="105.88235294117646" height="12" fill="#1a1a1a" stroke="none" />
<text x="563.8823529411765" y="238.6" font-size="18" font-family="Helvetica" text-anchor="start" dominant-baseline="central" fill="#8a8a8a">15</text>
<rect x="452" y="269.2" width="98.82352941176471" height="12" fill="#1a1a1a" stroke="none" />
<text x="556.8235294117648" y="275.2" font-size="18" font-family="Helvetica" text-anchor="start" dominant-baseline="central" fill="#8a8a8a">14</text>
<rect x="452" y="305.8" width="112.94117647058823" height="12" fill="#1a1a1a" stroke="none" />
<text x="570.9411764705883" y="311.8" font-size="18" font-family="Helvetica" text-anchor="start" dominant-baseline="central" fill="#8a8a8a">16</text>
<rect x="452" y="342.4" width="98.82352941176471" height="12" fill="#1a1a1a" stroke="none" />
<text x="556.8235294117648" y="348.4" font-size="18" font-family="Helvetica" text-anchor="start" dominant-baseline="central" fill="#8a8a8a">14</text>
<rect x="452" y="379.0" width="105.88235294117646" height="12" fill="#1a1a1a" stroke="none" />
<text x="563.8823529411765" y="385.0" font-size="18" font-family="Helvetica" text-anchor="start" dominant-baseline="central" fill="#8a8a8a">15</text>
<rect x="452" y="415.6" width="91.76470588235294" height="12" fill="#1a1a1a" stroke="none" />
<text x="549.7647058823529" y="421.6" font-size="18" font-family="Helvetica" text-anchor="start" dominant-baseline="central" fill="#8a8a8a">13</text>
<rect x="452" y="452.2" width="77.6470588235294" height="12" fill="#1a1a1a" stroke="none" />
<text x="535.6470588235294" y="458.2" font-size="18" font-family="Helvetica" text-anchor="start" dominant-baseline="central" fill="#8a8a8a">11</text>
<rect x="452" y="488.8" width="98.82352941176471" height="12" fill="#1a1a1a" stroke="none" />
<text x="556.8235294117648" y="494.8" font-size="18" font-family="Helvetica" text-anchor="start" dominant-baseline="central" fill="#8a8a8a">14</text>
<rect x="452" y="525.4000000000001" width="120.0" height="12" fill="#1a1a1a" stroke="none" />
<text x="578.0" y="531.4000000000001" font-size="18" font-family="Helvetica" text-anchor="start" dominant-baseline="central" fill="#8a8a8a">17</text>
<rect x="452" y="562.0" width="105.88235294117646" height="12" fill="#1a1a1a" stroke="none" />
<text x="563.8823529411765" y="568.0" font-size="18" font-family="Helvetica" text-anchor="start" dominant-baseline="central" fill="#8a8a8a">15</text>
<text x="452" y="178" font-size="18" font-family="Helvetica" text-anchor="start" fill="#1a1a1a" font-weight="bold">genome size</text>
<path d="M104.0,620 L434.0,620" stroke="#1a1a1a" stroke-width="1.4" />
<path d="M104.0,620 L104.0,626" stroke="#1a1a1a" stroke-width="1.4" />
<path d="M186.5,620 L186.5,626" stroke="#1a1a1a" stroke-width="1.4" />
<path d="M269.0,620 L269.0,626" stroke="#1a1a1a" stroke-width="1.4" />
<path d="M351.5,620 L351.5,626" stroke="#1a1a1a" stroke-width="1.4" />
<path d="M434.0,620 L434.0,626" stroke="#1a1a1a" stroke-width="1.4" />
<text x="269.0" y="644" font-size="18" font-family="Helvetica" text-anchor="middle" fill="#8a8a8a">time (root to present)</text>
<text x="660" y="152" font-size="22" font-family="Helvetica" text-anchor="start" fill="#1a1a1a" font-weight="bold">B   punctuational: gene content bursts at each split</text>
<path d="M694.0,202.0 L1024.0,202.0" stroke="#1a1a1a" stroke-width="2.6" stroke-linecap="butt" />
<path d="M694.0,195.32576538582524 L700.6742346141748,202.0 L694.0,208.67423461417476 L687.3257653858252,202.0 Z" fill="#1a1a1a" stroke="#1a1a1a" stroke-width="1.5" />
<path d="M694.0,417.025 L793.4490509865437,417.025" stroke="#1a1a1a" stroke-width="2.6" stroke-linecap="butt" />
<path d="M694.0,411.025 L700.0,417.025 L694.0,423.025 L688.0,417.025 Z" fill="#1a1a1a" stroke="#1a1a1a" stroke-width="1.5" />
<path d="M793.4490509865437,311.8 L908.8013603226854,311.8" stroke="#1a1a1a" stroke-width="2.6" stroke-linecap="butt" />
<path d="M793.4490509865437,304.55735931288075 L800.6916916736631,311.8 L793.4490509865437,319.0426406871193 L786.2064102994244,311.8 Z" fill="#1a1a1a" stroke="#1a1a1a" stroke-width="1.5" />
<path d="M793.4490509865437,522.25 L821.0851644594316,522.25" stroke="#1a1a1a" stroke-width="2.6" stroke-linecap="butt" />
<path d="M793.4490509865437,516.25 L799.4490509865437,522.25 L793.4490509865437,528.25 L787.4490509865437,522.25 Z" fill="#1a1a1a" stroke="#1a1a1a" stroke-width="1.5" />
<path d="M908.8013603226854,238.6 L1024.0,238.6" stroke="#1a1a1a" stroke-width="2.6" stroke-linecap="butt" />
<path d="M908.8013603226854,231.63137303340312 L915.7699872892822,238.6 L908.8013603226854,245.56862696659687 L901.8327333560885,238.6 Z" fill="#1a1a1a" stroke="#1a1a1a" stroke-width="1.5" />
<path d="M908.8013603226854,385.0 L922.1616622613211,385.0" stroke="#1a1a1a" stroke-width="2.6" stroke-linecap="butt" />
<path d="M908.8013603226854,377.25658350974743 L916.5447768129379,385.0 L908.8013603226854,392.74341649025257 L901.0579438324328,385.0 Z" fill="#1a1a1a" stroke="#1a1a1a" stroke-width="1.5" />
<path d="M821.0851644594316,494.8 L1024.0,494.8" stroke="#1a1a1a" stroke-width="2.6" stroke-linecap="butt" />
<path d="M821.0851644594316,487.05658350974744 L828.8285809496841,494.8 L821.0851644594316,502.5434164902526 L813.341747969179,494.8 Z" fill="#1a1a1a" stroke="#1a1a1a" stroke-width="1.5" />
<path d="M821.0851644594316,549.7 L876.3887408232301,549.7" stroke="#1a1a1a" stroke-width="2.6" stroke-linecap="butt" />
<path d="M821.0851644594316,542.2 L828.5851644594316,549.7 L821.0851644594316,557.2 L813.5851644594316,549.7 Z" fill="#1a1a1a" stroke="#1a1a1a" stroke-width="1.5" />
<path d="M922.1616622613211,330.1 L990.7633715270274,330.1" stroke="#1a1a1a" stroke-width="2.6" stroke-linecap="butt" />
<path d="M922.1616622613211,324.5019237886467 L927.7597384726744,330.1 L922.1616622613211,335.69807621135334 L916.5635860499679,330.1 Z" fill="#1a1a1a" stroke="#1a1a1a" stroke-width="1.5" />
<path d="M922.1616622613211,439.9 L973.0924320307977,439.9" stroke="#1a1a1a" stroke-width="2.6" stroke-linecap="butt" />
<path d="M922.1616622613211,431.0905249806888 L930.9711372806322,439.9 L922.1616622613211,448.7094750193111 L913.35218724201,439.9 Z" fill="#1a1a1a" stroke="#1a1a1a" stroke-width="1.5" />
<path d="M876.3887408232301,531.4000000000001 L1024.0,531.4000000000001" stroke="#1a1a1a" stroke-width="2.6" stroke-linecap="butt" />
<path d="M876.3887408232301,523.6565835097475 L884.1321573134827,531.4000000000001 L876.3887408232301,539.1434164902527 L868.6453243329776,531.4000000000001 Z" fill="#1a1a1a" stroke="#1a1a1a" stroke-width="1.5" />
<path d="M876.3887408232301,568.0 L1024.0,568.0" stroke="#1a1a1a" stroke-width="2.6" stroke-linecap="butt" />
<path d="M876.3887408232301,560.7573593128807 L883.6313815103495,568.0 L876.3887408232301,575.2426406871193 L869.1461001361108,568.0 Z" fill="#1a1a1a" stroke="#1a1a1a" stroke-width="1.5" />
<path d="M990.7633715270274,293.5 L1006.7092949313549,293.5" stroke="#1a1a1a" stroke-width="2.6" stroke-linecap="butt" />
<path d="M990.7633715270274,286.5313730334031 L997.7319984936242,293.5 L990.7633715270274,300.4686269665969 L983.7947445604306,293.5 Z" fill="#1a1a1a" stroke="#1a1a1a" stroke-width="1.5" />
<path d="M990.7633715270274,366.70000000000005 L1004.9327298260143,366.70000000000005" stroke="#1a1a1a" stroke-width="2.6" stroke-linecap="butt" />
<path d="M990.7633715270274,361.10192378864673 L996.3614477383808,366.70000000000005 L990.7633715270274,372.29807621135336 L985.165295315674,366.70000000000005 Z" fill="#1a1a1a" stroke="#1a1a1a" stroke-width="1.5" />
<path d="M973.0924320307977,421.6 L1024.0,421.6" stroke="#1a1a1a" stroke-width="2.6" stroke-linecap="butt" />
<path d="M973.0924320307977,414.6313730334031 L980.0610589973945,421.6 L973.0924320307977,428.5686269665969 L966.1238050642008,421.6 Z" fill="#1a1a1a" stroke="#1a1a1a" stroke-width="1.5" />
<path d="M973.0924320307977,458.2 L1024.0,458.2" stroke="#1a1a1a" stroke-width="2.6" stroke-linecap="butt" />
<path d="M973.0924320307977,451.8458980337503 L979.4465339970474,458.2 L973.0924320307977,464.5541019662497 L966.738330064548,458.2 Z" fill="#1a1a1a" stroke="#1a1a1a" stroke-width="1.5" />
<path d="M1006.7092949313549,275.2 L1024.0,275.2" stroke="#1a1a1a" stroke-width="2.6" stroke-linecap="butt" />
<path d="M1006.7092949313549,268.8458980337503 L1013.0633968976045,275.2 L1006.7092949313549,281.5541019662497 L1000.3551929651052,275.2 Z" fill="#1a1a1a" stroke="#1a1a1a" stroke-width="1.5" />
<path d="M1006.7092949313549,311.8 L1024.0,311.8" stroke="#1a1a1a" stroke-width="2.6" stroke-linecap="butt" />
<path d="M1006.7092949313549,303.6038475772934 L1014.9054473540615,311.8 L1006.7092949313549,319.99615242270664 L998.5131425086482,311.8 Z" fill="#1a1a1a" stroke="#1a1a1a" stroke-width="1.5" />
<path d="M1004.9327298260143,348.4 L1024.0,348.4" stroke="#1a1a1a" stroke-width="2.6" stroke-linecap="butt" />
<path d="M1004.9327298260143,342.0458980337503 L1011.286831792264,348.4 L1004.9327298260143,354.75410196624966 L998.5786278597647,348.4 Z" fill="#1a1a1a" stroke="#1a1a1a" stroke-width="1.5" />
<path d="M1004.9327298260143,385.0 L1024.0,385.0" stroke="#1a1a1a" stroke-width="2.6" stroke-linecap="butt" />
<path d="M1004.9327298260143,379.0 L1010.9327298260143,385.0 L1004.9327298260143,391.0 L998.9327298260143,385.0 Z" fill="#1a1a1a" stroke="#1a1a1a" stroke-width="1.5" />
<path d="M1006.7092949313549,275.2 L1006.7092949313549,311.8" stroke="#1a1a1a" stroke-width="2.6" />
<path d="M1004.9327298260143,348.4 L1004.9327298260143,385.0" stroke="#1a1a1a" stroke-width="2.6" />
<path d="M990.7633715270274,293.5 L990.7633715270274,366.70000000000005" stroke="#1a1a1a" stroke-width="2.6" />
<path d="M973.0924320307977,421.6 L973.0924320307977,458.2" stroke="#1a1a1a" stroke-width="2.6" />
<path d="M922.1616622613211,330.1 L922.1616622613211,439.9" stroke="#1a1a1a" stroke-width="2.6" />
<path d="M908.8013603226854,238.6 L908.8013603226854,385.0" stroke="#1a1a1a" stroke-width="2.6" />
<path d="M876.3887408232301,531.4000000000001 L876.3887408232301,568.0" stroke="#1a1a1a" stroke-width="2.6" />
<path d="M821.0851644594316,494.8 L821.0851644594316,549.7" stroke="#1a1a1a" stroke-width="2.6" />
<path d="M793.4490509865437,311.8 L793.4490509865437,522.25" stroke="#1a1a1a" stroke-width="2.6" />
<path d="M694.0,202.0 L694.0,417.025" stroke="#1a1a1a" stroke-width="2.6" />
<rect x="1042" y="196.0" width="104.0" height="12" fill="#1a1a1a" stroke="none" />
<text x="1152.0" y="202.0" font-size="18" font-family="Helvetica" text-anchor="start" dominant-baseline="central" fill="#8a8a8a">26</text>
<rect x="1042" y="232.6" width="92.0" height="12" fill="#1a1a1a" stroke="none" />
<text x="1140.0" y="238.6" font-size="18" font-family="Helvetica" text-anchor="start" dominant-baseline="central" fill="#8a8a8a">23</text>
<rect x="1042" y="269.2" width="116.0" height="12" fill="#1a1a1a" stroke="none" />
<text x="1164.0" y="275.2" font-size="18" font-family="Helvetica" text-anchor="start" dominant-baseline="central" fill="#8a8a8a">29</text>
<rect x="1042" y="305.8" width="120.0" height="12" fill="#1a1a1a" stroke="none" />
<text x="1168.0" y="311.8" font-size="18" font-family="Helvetica" text-anchor="start" dominant-baseline="central" fill="#8a8a8a">30</text>
<rect x="1042" y="342.4" width="92.0" height="12" fill="#1a1a1a" stroke="none" />
<text x="1140.0" y="348.4" font-size="18" font-family="Helvetica" text-anchor="start" dominant-baseline="central" fill="#8a8a8a">23</text>
<rect x="1042" y="379.0" width="88.0" height="12" fill="#1a1a1a" stroke="none" />
<text x="1136.0" y="385.0" font-size="18" font-family="Helvetica" text-anchor="start" dominant-baseline="central" fill="#8a8a8a">22</text>
<rect x="1042" y="415.6" width="112.0" height="12" fill="#1a1a1a" stroke="none" />
<text x="1160.0" y="421.6" font-size="18" font-family="Helvetica" text-anchor="start" dominant-baseline="central" fill="#8a8a8a">28</text>
<rect x="1042" y="452.2" width="104.0" height="12" fill="#1a1a1a" stroke="none" />
<text x="1152.0" y="458.2" font-size="18" font-family="Helvetica" text-anchor="start" dominant-baseline="central" fill="#8a8a8a">26</text>
<rect x="1042" y="488.8" width="80.0" height="12" fill="#1a1a1a" stroke="none" />
<text x="1128.0" y="494.8" font-size="18" font-family="Helvetica" text-anchor="start" dominant-baseline="central" fill="#8a8a8a">20</text>
<rect x="1042" y="525.4000000000001" width="100.0" height="12" fill="#1a1a1a" stroke="none" />
<text x="1148.0" y="531.4000000000001" font-size="18" font-family="Helvetica" text-anchor="start" dominant-baseline="central" fill="#8a8a8a">25</text>
<rect x="1042" y="562.0" width="84.0" height="12" fill="#1a1a1a" stroke="none" />
<text x="1132.0" y="568.0" font-size="18" font-family="Helvetica" text-anchor="start" dominant-baseline="central" fill="#8a8a8a">21</text>
<text x="1042" y="178" font-size="18" font-family="Helvetica" text-anchor="start" fill="#1a1a1a" font-weight="bold">genome size</text>
<path d="M694.0,620 L1024.0,620" stroke="#1a1a1a" stroke-width="1.4" />
<path d="M694.0,620 L694.0,626" stroke="#1a1a1a" stroke-width="1.4" />
<path d="M776.5,620 L776.5,626" stroke="#1a1a1a" stroke-width="1.4" />
<path d="M859.0,620 L859.0,626" stroke="#1a1a1a" stroke-width="1.4" />
<path d="M941.5,620 L941.5,626" stroke="#1a1a1a" stroke-width="1.4" />
<path d="M1024.0,620 L1024.0,626" stroke="#1a1a1a" stroke-width="1.4" />
<text x="859.0" y="644" font-size="18" font-family="Helvetica" text-anchor="middle" fill="#8a8a8a">time (root to present)</text>
<text x="610.0" y="680" font-size="18" font-family="Helvetica" text-anchor="middle" fill="#8a8a8a">same tree -- gradual gives similar sister genomes; punctuation makes them differ</text>
</svg>