<?xml version="1.0" encoding="UTF-8"?>
<svg xmlns="http://www.w3.org/2000/svg" xmlns:xlink="http://www.w3.org/1999/xlink"
     width="1040" height="470" viewBox="0 0 1040 470">
<defs>
</defs>
<rect x="0" y="0" width="1040" height="470" fill="white" />
<rect x="96.0" y="108" width="9.08" height="32" fill="#272727" />
<rect x="104.48" y="108" width="9.08" height="32" fill="#292929" />
<rect x="112.96000000000001" y="108" width="9.08" height="32" fill="#2b2b2b" />
<rect x="121.44" y="108" width="9.08" height="32" fill="#2d2d2d" />
<rect x="129.92000000000002" y="108" width="9.08" height="32" fill="#2f2f2f" />
<rect x="138.4" y="108" width="9.08" height="32" fill="#313131" />
<rect x="146.88" y="108" width="9.08" height="32" fill="#323232" />
<rect x="155.36" y="108" width="9.08" height="32" fill="#343434" />
<rect x="163.84" y="108" width="9.08" height="32" fill="#363636" />
<rect x="172.32" y="108" width="9.08" height="32" fill="#383838" />
<rect x="180.8" y="108" width="9.08" height="32" fill="#3a3a3a" />
<rect x="189.28" y="108" width="9.08" height="32" fill="#3c3c3c" />
<rect x="197.76" y="108" width="9.08" height="32" fill="#3e3e3e" />
<rect x="206.24" y="108" width="9.08" height="32" fill="#404040" />
<rect x="214.72000000000003" y="108" width="9.08" height="32" fill="#424242" />
<rect x="223.2" y="108" width="9.08" height="32" fill="#444444" />
<rect x="231.68" y="108" width="9.08" height="32" fill="#464646" />
<rect x="240.16" y="108" width="9.08" height="32" fill="#484848" />
<rect x="248.64" y="108" width="9.08" height="32" fill="#4a4a4a" />
<rect x="257.12" y="108" width="9.08" height="32" fill="#4b4b4b" />
<rect x="265.6" y="108" width="9.08" height="32" fill="#4d4d4d" />
<rect x="274.08" y="108" width="9.08" height="32" fill="#4f4f4f" />
<rect x="282.56" y="108" width="9.08" height="32" fill="#515151" />
<rect x="291.04" y="108" width="9.08" height="32" fill="#535353" />
<rect x="299.52" y="108" width="9.08" height="32" fill="#555555" />
<rect x="308.0" y="108" width="9.08" height="32" fill="#575757" />
<rect x="316.48" y="108" width="9.08" height="32" fill="#595959" />
<rect x="324.96000000000004" y="108" width="9.08" height="32" fill="#5b5b5b" />
<rect x="333.44000000000005" y="108" width="9.08" height="32" fill="#5d5d5d" />
<rect x="341.91999999999996" y="108" width="9.08" height="32" fill="#5f5f5f" />
<rect x="350.4" y="108" width="9.08" height="32" fill="#616161" />
<rect x="358.88" y="108" width="9.08" height="32" fill="#626262" />
<rect x="367.36" y="108" width="9.08" height="32" fill="#646464" />
<rect x="375.84000000000003" y="108" width="9.08" height="32" fill="#666666" />
<rect x="384.32" y="108" width="9.08" height="32" fill="#686868" />
<rect x="392.79999999999995" y="108" width="9.08" height="32" fill="#6a6a6a" />
<rect x="401.28" y="108" width="9.08" height="32" fill="#6c6c6c" />
<rect x="409.76" y="108" width="9.08" height="32" fill="#6e6e6e" />
<rect x="418.24" y="108" width="9.08" height="32" fill="#707070" />
<rect x="426.72" y="108" width="9.08" height="32" fill="#727272" />
<rect x="435.20000000000005" y="108" width="9.08" height="32" fill="#747474" />
<rect x="443.68" y="108" width="9.08" height="32" fill="#767676" />
<rect x="452.15999999999997" y="108" width="9.08" height="32" fill="#787878" />
<rect x="460.64" y="108" width="9.08" height="32" fill="#7a7a7a" />
<rect x="469.12" y="108" width="9.08" height="32" fill="#7b7b7b" />
<rect x="477.6" y="108" width="9.08" height="32" fill="#7d7d7d" />
<rect x="486.08000000000004" y="108" width="9.08" height="32" fill="#7f7f7f" />
<rect x="494.56" y="108" width="9.08" height="32" fill="#818181" />
<rect x="503.03999999999996" y="108" width="9.08" height="32" fill="#838383" />
<rect x="511.52" y="108" width="9.08" height="32" fill="#858585" />
<rect x="520.0" y="108" width="9.08" height="32" fill="#878787" />
<rect x="528.48" y="108" width="9.08" height="32" fill="#898989" />
<rect x="536.96" y="108" width="9.08" height="32" fill="#8b8b8b" />
<rect x="545.44" y="108" width="9.08" height="32" fill="#8d8d8d" />
<rect x="553.9200000000001" y="108" width="9.08" height="32" fill="#8f8f8f" />
<rect x="562.4000000000001" y="108" width="9.08" height="32" fill="#919191" />
<rect x="570.8800000000001" y="108" width="9.08" height="32" fill="#929292" />
<rect x="579.3599999999999" y="108" width="9.08" height="32" fill="#949494" />
<rect x="587.8399999999999" y="108" width="9.08" height="32" fill="#969696" />
<rect x="596.3199999999999" y="108" width="9.08" height="32" fill="#989898" />
<rect x="604.8" y="108" width="9.08" height="32" fill="#9a9a9a" />
<rect x="613.28" y="108" width="9.08" height="32" fill="#9c9c9c" />
<rect x="621.76" y="108" width="9.08" height="32" fill="#9e9e9e" />
<rect x="630.24" y="108" width="9.08" height="32" fill="#a0a0a0" />
<rect x="638.72" y="108" width="9.08" height="32" fill="#a2a2a2" />
<rect x="647.2" y="108" width="9.08" height="32" fill="#a4a4a4" />
<rect x="655.6800000000001" y="108" width="9.08" height="32" fill="#a6a6a6" />
<rect x="664.1600000000001" y="108" width="9.08" height="32" fill="#a8a8a8" />
<rect x="672.64" y="108" width="9.08" height="32" fill="#aaaaaa" />
<rect x="681.12" y="108" width="9.08" height="32" fill="#ababab" />
<rect x="689.5999999999999" y="108" width="9.08" height="32" fill="#adadad" />
<rect x="698.0799999999999" y="108" width="9.08" height="32" fill="#afafaf" />
<rect x="706.56" y="108" width="9.08" height="32" fill="#b1b1b1" />
<rect x="715.04" y="108" width="9.08" height="32" fill="#b3b3b3" />
<rect x="723.52" y="108" width="9.08" height="32" fill="#b5b5b5" />
<rect x="732.0" y="108" width="9.08" height="32" fill="#b7b7b7" />
<rect x="740.48" y="108" width="9.08" height="32" fill="#b9b9b9" />
<rect x="748.96" y="108" width="9.08" height="32" fill="#bbbbbb" />
<rect x="757.44" y="108" width="9.08" height="32" fill="#bdbdbd" />
<rect x="765.9200000000001" y="108" width="9.08" height="32" fill="#bfbfbf" />
<rect x="774.4000000000001" y="108" width="9.08" height="32" fill="#c1c1c1" />
<rect x="782.88" y="108" width="9.08" height="32" fill="#c2c2c2" />
<rect x="791.36" y="108" width="9.08" height="32" fill="#c4c4c4" />
<rect x="799.8399999999999" y="108" width="9.08" height="32" fill="#c6c6c6" />
<rect x="808.3199999999999" y="108" width="9.08" height="32" fill="#c8c8c8" />
<rect x="816.8" y="108" width="9.08" height="32" fill="#cacaca" />
<rect x="825.28" y="108" width="9.08" height="32" fill="#cccccc" />
<rect x="833.76" y="108" width="9.08" height="32" fill="#cecece" />
<rect x="842.24" y="108" width="9.08" height="32" fill="#d0d0d0" />
<rect x="850.72" y="108" width="9.08" height="32" fill="#d2d2d2" />
<rect x="859.2" y="108" width="9.08" height="32" fill="#d4d4d4" />
<rect x="867.6800000000001" y="108" width="9.08" height="32" fill="#d6d6d6" />
<rect x="876.1600000000001" y="108" width="9.08" height="32" fill="#d8d8d8" />
<rect x="884.64" y="108" width="9.08" height="32" fill="#dadada" />
<rect x="893.12" y="108" width="9.08" height="32" fill="#dbdbdb" />
<rect x="901.5999999999999" y="108" width="9.08" height="32" fill="#dddddd" />
<rect x="910.0799999999999" y="108" width="9.08" height="32" fill="#dfdfdf" />
<rect x="918.56" y="108" width="9.08" height="32" fill="#e1e1e1" />
<rect x="927.04" y="108" width="9.08" height="32" fill="#e3e3e3" />
<rect x="935.52" y="108" width="9.08" height="32" fill="#e5e5e5" />
<rect x="96" y="108" width="848" height="32" fill="none" stroke="#1a1a1a" stroke-width="1.4" />
<rect x="96.0" y="336" width="9.08" height="32" fill="#272727" />
<rect x="104.48" y="336" width="9.08" height="32" fill="#292929" />
<rect x="112.96000000000001" y="336" width="9.08" height="32" fill="#2b2b2b" />
<rect x="121.44" y="336" width="9.08" height="32" fill="#2d2d2d" />
<rect x="129.92000000000002" y="336" width="9.08" height="32" fill="#2f2f2f" />
<rect x="138.4" y="336" width="9.08" height="32" fill="#313131" />
<rect x="146.88" y="336" width="9.08" height="32" fill="#323232" />
<rect x="155.36" y="336" width="9.08" height="32" fill="#343434" />
<rect x="163.84" y="336" width="9.08" height="32" fill="#363636" />
<rect x="172.32" y="336" width="9.08" height="32" fill="#383838" />
<rect x="180.8" y="336" width="9.08" height="32" fill="#3a3a3a" />
<rect x="189.28" y="336" width="9.08" height="32" fill="#3c3c3c" />
<rect x="197.76" y="336" width="9.08" height="32" fill="#3e3e3e" />
<rect x="206.24" y="336" width="9.08" height="32" fill="#404040" />
<rect x="214.72000000000003" y="336" width="9.08" height="32" fill="#424242" />
<rect x="223.2" y="336" width="9.08" height="32" fill="#444444" />
<rect x="231.68" y="336" width="9.08" height="32" fill="#464646" />
<rect x="240.16" y="336" width="9.08" height="32" fill="#484848" />
<rect x="248.64" y="336" width="9.08" height="32" fill="#4a4a4a" />
<rect x="257.12" y="336" width="9.08" height="32" fill="#4b4b4b" />
<rect x="265.6" y="336" width="9.08" height="32" fill="#4d4d4d" />
<rect x="274.08" y="336" width="9.08" height="32" fill="#4f4f4f" />
<rect x="282.56" y="336" width="9.08" height="32" fill="#515151" />
<rect x="291.04" y="336" width="9.08" height="32" fill="#535353" />
<rect x="299.52" y="336" width="9.08" height="32" fill="#555555" />
<rect x="308.0" y="336" width="9.08" height="32" fill="#575757" />
<rect x="316.48" y="336" width="9.08" height="32" fill="#595959" />
<rect x="324.96000000000004" y="336" width="9.08" height="32" fill="#5b5b5b" />
<rect x="333.44000000000005" y="336" width="9.08" height="32" fill="#5d5d5d" />
<rect x="341.91999999999996" y="336" width="9.08" height="32" fill="#5f5f5f" />
<rect x="350.4" y="336" width="9.08" height="32" fill="#616161" />
<rect x="358.88" y="336" width="9.08" height="32" fill="#626262" />
<rect x="367.36" y="336" width="9.08" height="32" fill="#646464" />
<rect x="375.84000000000003" y="336" width="9.08" height="32" fill="#666666" />
<rect x="384.32" y="336" width="9.08" height="32" fill="#686868" />
<rect x="392.79999999999995" y="336" width="9.08" height="32" fill="#6a6a6a" />
<rect x="401.28" y="336" width="9.08" height="32" fill="#6c6c6c" />
<rect x="409.76" y="336" width="9.08" height="32" fill="#6e6e6e" />
<rect x="418.24" y="336" width="9.08" height="32" fill="#707070" />
<rect x="426.72" y="336" width="9.08" height="32" fill="#727272" />
<rect x="435.20000000000005" y="336" width="9.08" height="32" fill="#747474" />
<rect x="443.68" y="336" width="9.08" height="32" fill="#767676" />
<rect x="452.15999999999997" y="336" width="9.08" height="32" fill="#787878" />
<rect x="460.64" y="336" width="9.08" height="32" fill="#7a7a7a" />
<rect x="469.12" y="336" width="9.08" height="32" fill="#7b7b7b" />
<rect x="477.6" y="336" width="9.08" height="32" fill="#919191" />
<rect x="486.08000000000004" y="336" width="9.08" height="32" fill="#8f8f8f" />
<rect x="494.56" y="336" width="9.08" height="32" fill="#8d8d8d" />
<rect x="503.03999999999996" y="336" width="9.08" height="32" fill="#8b8b8b" />
<rect x="511.52" y="336" width="9.08" height="32" fill="#898989" />
<rect x="520.0" y="336" width="9.08" height="32" fill="#878787" />
<rect x="528.48" y="336" width="9.08" height="32" fill="#858585" />
<rect x="536.96" y="336" width="9.08" height="32" fill="#838383" />
<rect x="545.44" y="336" width="9.08" height="32" fill="#818181" />
<rect x="553.9200000000001" y="336" width="9.08" height="32" fill="#7f7f7f" />
<rect x="562.4000000000001" y="336" width="9.08" height="32" fill="#7d7d7d" />
<rect x="570.8800000000001" y="336" width="9.08" height="32" fill="#929292" />
<rect x="579.3599999999999" y="336" width="9.08" height="32" fill="#949494" />
<rect x="587.8399999999999" y="336" width="9.08" height="32" fill="#969696" />
<rect x="596.3199999999999" y="336" width="9.08" height="32" fill="#989898" />
<rect x="604.8" y="336" width="9.08" height="32" fill="#9a9a9a" />
<rect x="613.28" y="336" width="9.08" height="32" fill="#9c9c9c" />
<rect x="621.76" y="336" width="9.08" height="32" fill="#9e9e9e" />
<rect x="630.24" y="336" width="9.08" height="32" fill="#a0a0a0" />
<rect x="638.72" y="336" width="9.08" height="32" fill="#a2a2a2" />
<rect x="647.2" y="336" width="9.08" height="32" fill="#a4a4a4" />
<rect x="655.6800000000001" y="336" width="9.08" height="32" fill="#a6a6a6" />
<rect x="664.1600000000001" y="336" width="9.08" height="32" fill="#a8a8a8" />
<rect x="672.64" y="336" width="9.08" height="32" fill="#aaaaaa" />
<rect x="681.12" y="336" width="9.08" height="32" fill="#ababab" />
<rect x="689.5999999999999" y="336" width="9.08" height="32" fill="#adadad" />
<rect x="698.0799999999999" y="336" width="9.08" height="32" fill="#afafaf" />
<rect x="706.56" y="336" width="9.08" height="32" fill="#b1b1b1" />
<rect x="715.04" y="336" width="9.08" height="32" fill="#b3b3b3" />
<rect x="723.52" y="336" width="9.08" height="32" fill="#b5b5b5" />
<rect x="732.0" y="336" width="9.08" height="32" fill="#b7b7b7" />
<rect x="740.48" y="336" width="9.08" height="32" fill="#b9b9b9" />
<rect x="748.96" y="336" width="9.08" height="32" fill="#bbbbbb" />
<rect x="757.44" y="336" width="9.08" height="32" fill="#c6c6c6" />
<rect x="765.9200000000001" y="336" width="9.08" height="32" fill="#c4c4c4" />
<rect x="774.4000000000001" y="336" width="9.08" height="32" fill="#c2c2c2" />
<rect x="782.88" y="336" width="9.08" height="32" fill="#c1c1c1" />
<rect x="791.36" y="336" width="9.08" height="32" fill="#bfbfbf" />
<rect x="799.8399999999999" y="336" width="9.08" height="32" fill="#bdbdbd" />
<rect x="808.3199999999999" y="336" width="9.08" height="32" fill="#c8c8c8" />
<rect x="816.8" y="336" width="9.08" height="32" fill="#cacaca" />
<rect x="825.28" y="336" width="9.08" height="32" fill="#cccccc" />
<rect x="833.76" y="336" width="9.08" height="32" fill="#cecece" />
<rect x="842.24" y="336" width="9.08" height="32" fill="#d0d0d0" />
<rect x="850.72" y="336" width="9.08" height="32" fill="#d2d2d2" />
<rect x="859.2" y="336" width="9.08" height="32" fill="#d4d4d4" />
<rect x="867.6800000000001" y="336" width="9.08" height="32" fill="#d6d6d6" />
<rect x="876.1600000000001" y="336" width="9.08" height="32" fill="#d8d8d8" />
<rect x="884.64" y="336" width="9.08" height="32" fill="#dadada" />
<rect x="893.12" y="336" width="9.08" height="32" fill="#dbdbdb" />
<rect x="901.5999999999999" y="336" width="9.08" height="32" fill="#dddddd" />
<rect x="910.0799999999999" y="336" width="9.08" height="32" fill="#dfdfdf" />
<rect x="918.56" y="336" width="9.08" height="32" fill="#e1e1e1" />
<rect x="927.04" y="336" width="9.08" height="32" fill="#e3e3e3" />
<rect x="935.52" y="336" width="9.08" height="32" fill="#e5e5e5" />
<rect x="96" y="336" width="848" height="32" fill="none" stroke="#1a1a1a" stroke-width="1.4" />
<path d="M96.0,140 C96.0,238.0,96.0,238.0,96.0,336 L477.6,336 C477.6,238.0,477.6,238.0,477.6,140 Z" fill="#515151" fill-opacity="0.3" stroke="none" />
<path d="M96.0,332 L96.0,372" stroke="#1a1a1a" stroke-width="1.2" />
<path d="M260.8,352.0 L312.8,352.0" stroke="white" stroke-width="5" stroke-linecap="round" />
<path d="M260.8,352.0 L306.8,352.0" stroke="black" stroke-width="2" />
<path d="M312.8,352.0 L303.8,347.0 L303.8,357.0 Z" fill="black" stroke="white" stroke-width="0.8" />
<path d="M477.6,140 C477.6,238.0,570.8800000000001,238.0,570.8800000000001,336 L477.6,336 C477.6,238.0,570.8800000000001,238.0,570.8800000000001,140 Z" fill="#878787" fill-opacity="0.3" stroke="none" />
<path d="M477.6,332 L477.6,372" stroke="#1a1a1a" stroke-width="1.2" />
<path d="M550.24,352.0 L498.24,352.0" stroke="white" stroke-width="5" stroke-linecap="round" />
<path d="M550.24,352.0 L504.24,352.0" stroke="black" stroke-width="2" />
<path d="M498.24,352.0 L507.24,347.0 L507.24,357.0 Z" fill="black" stroke="white" stroke-width="0.8" />
<path d="M570.8800000000001,140 C570.8800000000001,238.0,570.8800000000001,238.0,570.8800000000001,336 L757.44,336 C757.44,238.0,757.44,238.0,757.44,140 Z" fill="#a7a7a7" fill-opacity="0.3" stroke="none" />
<path d="M570.8800000000001,332 L570.8800000000001,372" stroke="#1a1a1a" stroke-width="1.2" />
<path d="M638.1600000000001,352.0 L690.1600000000001,352.0" stroke="white" stroke-width="5" stroke-linecap="round" />
<path d="M638.1600000000001,352.0 L684.1600000000001,352.0" stroke="black" stroke-width="2" />
<path d="M690.1600000000001,352.0 L681.1600000000001,347.0 L681.1600000000001,357.0 Z" fill="black" stroke="white" stroke-width="0.8" />
<path d="M757.44,140 C757.44,238.0,808.3199999999999,238.0,808.3199999999999,336 L757.44,336 C757.44,238.0,808.3199999999999,238.0,808.3199999999999,140 Z" fill="#c2c2c2" fill-opacity="0.3" stroke="none" />
<path d="M757.44,332 L757.44,372" stroke="#1a1a1a" stroke-width="1.2" />
<path d="M808.3199999999999,352.0 L757.44,352.0" stroke="white" stroke-width="5" stroke-linecap="round" />
<path d="M808.3199999999999,352.0 L763.44,352.0" stroke="black" stroke-width="2" />
<path d="M757.44,352.0 L766.44,347.0 L766.44,357.0 Z" fill="black" stroke="white" stroke-width="0.8" />
<path d="M808.3199999999999,140 C808.3199999999999,238.0,808.3199999999999,238.0,808.3199999999999,336 L944.0,336 C944.0,238.0,944.0,238.0,944.0,140 Z" fill="#d7d7d7" fill-opacity="0.3" stroke="none" />
<path d="M808.3199999999999,332 L808.3199999999999,372" stroke="#1a1a1a" stroke-width="1.2" />
<path d="M850.16,352.0 L902.16,352.0" stroke="white" stroke-width="5" stroke-linecap="round" />
<path d="M850.16,352.0 L896.16,352.0" stroke="black" stroke-width="2" />
<path d="M902.16,352.0 L893.16,347.0 L893.16,357.0 Z" fill="black" stroke="white" stroke-width="0.8" />
<path d="M96.0,104 L96.0,108" stroke="#1a1a1a" stroke-width="1.2" />
<text x="96.0" y="99" font-size="12" font-family="Helvetica" text-anchor="middle" fill="#1a1a1a">0</text>
<path d="M308.0,104 L308.0,108" stroke="#1a1a1a" stroke-width="1.2" />
<text x="308.0" y="99" font-size="12" font-family="Helvetica" text-anchor="middle" fill="#1a1a1a">25</text>
<path d="M520.0,104 L520.0,108" stroke="#1a1a1a" stroke-width="1.2" />
<text x="520.0" y="99" font-size="12" font-family="Helvetica" text-anchor="middle" fill="#1a1a1a">50</text>
<path d="M732.0,104 L732.0,108" stroke="#1a1a1a" stroke-width="1.2" />
<text x="732.0" y="99" font-size="12" font-family="Helvetica" text-anchor="middle" fill="#1a1a1a">75</text>
<path d="M944.0,104 L944.0,108" stroke="#1a1a1a" stroke-width="1.2" />
<text x="944.0" y="99" font-size="12" font-family="Helvetica" text-anchor="middle" fill="#1a1a1a">100</text>
<text x="96" y="82" font-size="15" font-family="Helvetica" text-anchor="start" font-weight="bold" fill="#1a1a1a">ancestral (root) genome — base coordinate</text>
<text x="96" y="398" font-size="15" font-family="Helvetica" text-anchor="start" font-weight="bold" fill="#1a1a1a">present-day genome — a mosaic of ancestral segments</text>
<text x="96" y="448" font-size="13" font-family="Helvetica" text-anchor="start" fill="#555">each base keeps its ancestral coordinate;  an inversion reverses a segment (twisted ribbon) and flips its strand (arrow)</text>
</svg>