<?xml version="1.0" encoding="UTF-8"?>
<svg xmlns="http://www.w3.org/2000/svg" xmlns:xlink="http://www.w3.org/1999/xlink"
     width="1180" height="760" viewBox="0 0 1180 760">
<defs>
</defs>
<rect x="0" y="0" width="1180" height="760" fill="white" />
<text x="40" y="40" font-size="20" font-family="Helvetica" text-anchor="start" font-weight="bold" fill="#1a1a1a">The mass-extinction model — an instantaneous, tree-wide survival pulse</text>
<text x="40" y="64" font-size="13" font-family="Helvetica" text-anchor="start" fill="#777">at a set age before the present, every lineage independently dies with probability f;  here f = 0.8 (80% wiped out).  ZOMBI2: BirthDeath(..., mass_extinctions=[(age, f)])</text>
<path d="M1000.0,88 L1000.0,694" stroke="#cccccc" stroke-width="1.0" stroke-dasharray="2,4" />
<rect x="541.0" y="88" width="14" height="606" fill="#e9e9e9" />
<path d="M548.0,88 L548.0,694" stroke="#1a1a1a" stroke-width="1.6" stroke-dasharray="5,4" />
<path d="M82.0,137.56463788006755 L96.0,137.56463788006755" stroke="#1a1a1a" stroke-width="2.0" stroke-linecap="round" />
<path d="M96.0,137.56463788006755 L96.0,165.83197846283784" stroke="#1a1a1a" stroke-width="2.0" stroke-linecap="round" />
<path d="M96.0,137.56463788006755 L96.0,109.29729729729729" stroke="#9a9a9a" stroke-width="1.5" stroke-dasharray="6,5" stroke-linecap="butt" />
<path d="M96.0,165.83197846283784 L354.5367344131367,165.83197846283784" stroke="#1a1a1a" stroke-width="2.0" stroke-linecap="round" />
<path d="M354.5367344131367,165.83197846283784 L354.5367344131367,197.2044974662162" stroke="#1a1a1a" stroke-width="2.0" stroke-linecap="round" />
<path d="M354.5367344131367,165.83197846283784 L354.5367344131367,134.45945945945945" stroke="#9a9a9a" stroke-width="1.5" stroke-dasharray="6,5" stroke-linecap="butt" />
<path d="M354.5367344131367,197.2044974662162 L396.6080089708287,197.2044974662162" stroke="#1a1a1a" stroke-width="2.0" stroke-linecap="round" />
<path d="M396.6080089708287,197.2044974662162 L396.6080089708287,221.54413006756755" stroke="#1a1a1a" stroke-width="2.0" stroke-linecap="round" />
<path d="M396.6080089708287,197.2044974662162 L396.6080089708287,172.86486486486487" stroke="#9a9a9a" stroke-width="1.5" stroke-dasharray="6,5" stroke-linecap="butt" />
<path d="M396.6080089708287,221.54413006756755 L435.92629656850386,221.54413006756755" stroke="#1a1a1a" stroke-width="2.0" stroke-linecap="round" />
<path d="M435.92629656850386,221.54413006756755 L435.92629656850386,194.05405405405406" stroke="#9a9a9a" stroke-width="1.5" stroke-dasharray="6,5" stroke-linecap="butt" />
<path d="M435.92629656850386,221.54413006756755 L435.92629656850386,249.0342060810811" stroke="#1a1a1a" stroke-width="2.0" stroke-linecap="round" />
<path d="M435.92629656850386,194.05405405405406 L543.9924462983354,194.05405405405406" stroke="#9a9a9a" stroke-width="1.5" stroke-dasharray="6,5" stroke-linecap="butt" />
<path d="M543.9924462983354,194.05405405405406 L543.9924462983354,188.75675675675677" stroke="#9a9a9a" stroke-width="1.5" stroke-dasharray="6,5" stroke-linecap="butt" />
<path d="M543.9924462983354,194.05405405405406 L543.9924462983354,199.35135135135135" stroke="#9a9a9a" stroke-width="1.5" stroke-dasharray="6,5" stroke-linecap="butt" />
<path d="M543.9924462983354,188.75675675675677 L548.0,188.75675675675677" stroke="#9a9a9a" stroke-width="1.5" stroke-dasharray="6,5" stroke-linecap="butt" />
<path d="M543.9924462983354,199.35135135135135 L548.0,199.35135135135135" stroke="#9a9a9a" stroke-width="1.5" stroke-dasharray="6,5" stroke-linecap="butt" />
<path d="M435.92629656850386,249.0342060810811 L441.80285541564973,249.0342060810811" stroke="#1a1a1a" stroke-width="2.0" stroke-linecap="round" />
<path d="M441.80285541564973,249.0342060810811 L441.80285541564973,209.94594594594594" stroke="#9a9a9a" stroke-width="1.5" stroke-dasharray="6,5" stroke-linecap="butt" />
<path d="M441.80285541564973,249.0342060810811 L441.80285541564973,288.12246621621625" stroke="#1a1a1a" stroke-width="2.0" stroke-linecap="round" />
<path d="M441.80285541564973,209.94594594594594 L548.0,209.94594594594594" stroke="#9a9a9a" stroke-width="1.5" stroke-dasharray="6,5" stroke-linecap="butt" />
<path d="M441.80285541564973,288.12246621621625 L478.4254535431749,288.12246621621625" stroke="#1a1a1a" stroke-width="2.0" stroke-linecap="round" />
<path d="M478.4254535431749,288.12246621621625 L478.4254535431749,331.86655405405406" stroke="#1a1a1a" stroke-width="2.0" stroke-linecap="round" />
<path d="M478.4254535431749,288.12246621621625 L478.4254535431749,244.3783783783784" stroke="#1a1a1a" stroke-width="2.0" stroke-linecap="round" />
<path d="M478.4254535431749,331.86655405405406 L641.4668263172655,331.86655405405406" stroke="#1a1a1a" stroke-width="2.0" stroke-linecap="round" />
<path d="M641.4668263172655,331.86655405405406 L641.4668263172655,362.4087837837838" stroke="#1a1a1a" stroke-width="2.0" stroke-linecap="round" />
<path d="M641.4668263172655,331.86655405405406 L641.4668263172655,301.3243243243243" stroke="#1a1a1a" stroke-width="2.0" stroke-linecap="round" />
<path d="M641.4668263172655,362.4087837837838 L683.8909725631592,362.4087837837838" stroke="#1a1a1a" stroke-width="2.0" stroke-linecap="round" />
<path d="M683.8909725631592,362.4087837837838 L683.8909725631592,337.0810810810811" stroke="#1a1a1a" stroke-width="2.0" stroke-linecap="round" />
<path d="M683.8909725631592,362.4087837837838 L683.8909725631592,387.7364864864865" stroke="#1a1a1a" stroke-width="2.0" stroke-linecap="round" />
<path d="M683.8909725631592,337.0810810810811 L1000.0,337.0810810810811" stroke="#1a1a1a" stroke-width="2.0" stroke-linecap="round" />
<path d="M683.8909725631592,387.7364864864865 L735.7361008410016,387.7364864864865" stroke="#1a1a1a" stroke-width="2.0" stroke-linecap="round" />
<path d="M735.7361008410016,387.7364864864865 L735.7361008410016,422.5" stroke="#1a1a1a" stroke-width="2.0" stroke-linecap="round" />
<path d="M735.7361008410016,387.7364864864865 L735.7361008410016,352.97297297297297" stroke="#1a1a1a" stroke-width="2.0" stroke-linecap="round" />
<path d="M735.7361008410016,422.5 L755.3038071670777,422.5" stroke="#1a1a1a" stroke-width="2.0" stroke-linecap="round" />
<path d="M755.3038071670777,422.5 L755.3038071670777,458.9189189189189" stroke="#1a1a1a" stroke-width="2.0" stroke-linecap="round" />
<path d="M755.3038071670777,422.5 L755.3038071670777,386.0810810810811" stroke="#1a1a1a" stroke-width="2.0" stroke-linecap="round" />
<path d="M755.3038071670777,458.9189189189189 L776.4925622830756,458.9189189189189" stroke="#1a1a1a" stroke-width="2.0" stroke-linecap="round" />
<path d="M776.4925622830756,458.9189189189189 L776.4925622830756,437.72972972972974" stroke="#1a1a1a" stroke-width="2.0" stroke-linecap="round" />
<path d="M776.4925622830756,458.9189189189189 L776.4925622830756,480.1081081081081" stroke="#1a1a1a" stroke-width="2.0" stroke-linecap="round" />
<path d="M776.4925622830756,437.72972972972974 L918.2394893006216,437.72972972972974" stroke="#1a1a1a" stroke-width="2.0" stroke-linecap="round" />
<path d="M918.2394893006216,437.72972972972974 L918.2394893006216,427.13513513513516" stroke="#1a1a1a" stroke-width="2.0" stroke-linecap="round" />
<path d="M918.2394893006216,437.72972972972974 L918.2394893006216,448.3243243243243" stroke="#1a1a1a" stroke-width="2.0" stroke-linecap="round" />
<path d="M918.2394893006216,427.13513513513516 L950.7846359841974,427.13513513513516" stroke="#1a1a1a" stroke-width="2.0" stroke-linecap="round" />
<path d="M950.7846359841974,427.13513513513516 L950.7846359841974,421.83783783783787" stroke="#1a1a1a" stroke-width="2.0" stroke-linecap="round" />
<path d="M950.7846359841974,427.13513513513516 L950.7846359841974,432.43243243243245" stroke="#1a1a1a" stroke-width="2.0" stroke-linecap="round" />
<path d="M950.7846359841974,421.83783783783787 L1000.0,421.83783783783787" stroke="#1a1a1a" stroke-width="2.0" stroke-linecap="round" />
<path d="M950.7846359841974,432.43243243243245 L1000.0,432.43243243243245" stroke="#1a1a1a" stroke-width="2.0" stroke-linecap="round" />
<path d="M918.2394893006216,448.3243243243243 L920.8562700684314,448.3243243243243" stroke="#1a1a1a" stroke-width="2.0" stroke-linecap="round" />
<path d="M920.8562700684314,448.3243243243243 L920.8562700684314,443.02702702702703" stroke="#1a1a1a" stroke-width="2.0" stroke-linecap="round" />
<path d="M920.8562700684314,448.3243243243243 L920.8562700684314,453.6216216216216" stroke="#1a1a1a" stroke-width="2.0" stroke-linecap="round" />
<path d="M920.8562700684314,443.02702702702703 L1000.0,443.02702702702703" stroke="#1a1a1a" stroke-width="2.0" stroke-linecap="round" />
<path d="M920.8562700684314,453.6216216216216 L1000.0,453.6216216216216" stroke="#1a1a1a" stroke-width="2.0" stroke-linecap="round" />
<path d="M776.4925622830756,480.1081081081081 L973.9651598603233,480.1081081081081" stroke="#1a1a1a" stroke-width="2.0" stroke-linecap="round" />
<path d="M973.9651598603233,480.1081081081081 L973.9651598603233,469.51351351351354" stroke="#1a1a1a" stroke-width="2.0" stroke-linecap="round" />
<path d="M973.9651598603233,480.1081081081081 L973.9651598603233,490.7027027027027" stroke="#1a1a1a" stroke-width="2.0" stroke-linecap="round" />
<path d="M973.9651598603233,469.51351351351354 L982.4530648291559,469.51351351351354" stroke="#1a1a1a" stroke-width="2.0" stroke-linecap="round" />
<path d="M982.4530648291559,469.51351351351354 L982.4530648291559,464.2162162162162" stroke="#1a1a1a" stroke-width="2.0" stroke-linecap="round" />
<path d="M982.4530648291559,469.51351351351354 L982.4530648291559,474.81081081081084" stroke="#1a1a1a" stroke-width="2.0" stroke-linecap="round" />
<path d="M982.4530648291559,464.2162162162162 L1000.0,464.2162162162162" stroke="#1a1a1a" stroke-width="2.0" stroke-linecap="round" />
<path d="M982.4530648291559,474.81081081081084 L1000.0,474.81081081081084" stroke="#1a1a1a" stroke-width="2.0" stroke-linecap="round" />
<path d="M973.9651598603233,490.7027027027027 L987.0464347284928,490.7027027027027" stroke="#1a1a1a" stroke-width="2.0" stroke-linecap="round" />
<path d="M987.0464347284928,490.7027027027027 L987.0464347284928,485.4054054054054" stroke="#1a1a1a" stroke-width="2.0" stroke-linecap="round" />
<path d="M987.0464347284928,490.7027027027027 L987.0464347284928,496.0" stroke="#1a1a1a" stroke-width="2.0" stroke-linecap="round" />
<path d="M987.0464347284928,485.4054054054054 L1000.0,485.4054054054054" stroke="#1a1a1a" stroke-width="2.0" stroke-linecap="round" />
<path d="M987.0464347284928,496.0 L1000.0,496.0" stroke="#1a1a1a" stroke-width="2.0" stroke-linecap="round" />
<path d="M755.3038071670777,386.0810810810811 L768.9156511773886,386.0810810810811" stroke="#1a1a1a" stroke-width="2.0" stroke-linecap="round" />
<path d="M768.9156511773886,386.0810810810811 L768.9156511773886,374.1621621621622" stroke="#1a1a1a" stroke-width="2.0" stroke-linecap="round" />
<path d="M768.9156511773886,386.0810810810811 L768.9156511773886,398.0" stroke="#1a1a1a" stroke-width="2.0" stroke-linecap="round" />
<path d="M768.9156511773886,374.1621621621622 L902.8638933533044,374.1621621621622" stroke="#1a1a1a" stroke-width="2.0" stroke-linecap="round" />
<path d="M902.8638933533044,374.1621621621622 L902.8638933533044,368.86486486486484" stroke="#1a1a1a" stroke-width="2.0" stroke-linecap="round" />
<path d="M902.8638933533044,374.1621621621622 L902.8638933533044,379.4594594594595" stroke="#1a1a1a" stroke-width="2.0" stroke-linecap="round" />
<path d="M902.8638933533044,368.86486486486484 L1000.0,368.86486486486484" stroke="#1a1a1a" stroke-width="2.0" stroke-linecap="round" />
<path d="M902.8638933533044,379.4594594594595 L1000.0,379.4594594594595" stroke="#1a1a1a" stroke-width="2.0" stroke-linecap="round" />
<path d="M768.9156511773886,398.0 L865.8027206354258,398.0" stroke="#1a1a1a" stroke-width="2.0" stroke-linecap="round" />
<path d="M865.8027206354258,398.0 L865.8027206354258,405.94594594594594" stroke="#1a1a1a" stroke-width="2.0" stroke-linecap="round" />
<path d="M865.8027206354258,398.0 L865.8027206354258,390.05405405405406" stroke="#1a1a1a" stroke-width="2.0" stroke-linecap="round" />
<path d="M865.8027206354258,405.94594594594594 L867.5253675102283,405.94594594594594" stroke="#1a1a1a" stroke-width="2.0" stroke-linecap="round" />
<path d="M867.5253675102283,405.94594594594594 L867.5253675102283,400.64864864864865" stroke="#9a9a9a" stroke-width="1.5" stroke-dasharray="6,5" stroke-linecap="butt" />
<path d="M867.5253675102283,405.94594594594594 L867.5253675102283,411.2432432432432" stroke="#1a1a1a" stroke-width="2.0" stroke-linecap="round" />
<path d="M867.5253675102283,400.64864864864865 L939.0907447958401,400.64864864864865" stroke="#9a9a9a" stroke-width="1.5" stroke-dasharray="6,5" stroke-linecap="butt" />
<path d="M867.5253675102283,411.2432432432432 L1000.0,411.2432432432432" stroke="#1a1a1a" stroke-width="2.0" stroke-linecap="round" />
<path d="M865.8027206354258,390.05405405405406 L1000.0,390.05405405405406" stroke="#1a1a1a" stroke-width="2.0" stroke-linecap="round" />
<path d="M735.7361008410016,352.97297297297297 L773.4185409050378,352.97297297297297" stroke="#1a1a1a" stroke-width="2.0" stroke-linecap="round" />
<path d="M773.4185409050378,352.97297297297297 L773.4185409050378,347.6756756756757" stroke="#9a9a9a" stroke-width="1.5" stroke-dasharray="6,5" stroke-linecap="butt" />
<path d="M773.4185409050378,352.97297297297297 L773.4185409050378,358.27027027027026" stroke="#1a1a1a" stroke-width="2.0" stroke-linecap="round" />
<path d="M773.4185409050378,347.6756756756757 L786.0655705824798,347.6756756756757" stroke="#9a9a9a" stroke-width="1.5" stroke-dasharray="6,5" stroke-linecap="butt" />
<path d="M773.4185409050378,358.27027027027026 L1000.0,358.27027027027026" stroke="#1a1a1a" stroke-width="2.0" stroke-linecap="round" />
<path d="M641.4668263172655,301.3243243243243 L670.6596788734005,301.3243243243243" stroke="#1a1a1a" stroke-width="2.0" stroke-linecap="round" />
<path d="M670.6596788734005,301.3243243243243 L670.6596788734005,289.4054054054054" stroke="#1a1a1a" stroke-width="2.0" stroke-linecap="round" />
<path d="M670.6596788734005,301.3243243243243 L670.6596788734005,313.2432432432432" stroke="#1a1a1a" stroke-width="2.0" stroke-linecap="round" />
<path d="M670.6596788734005,289.4054054054054 L852.1973609904194,289.4054054054054" stroke="#1a1a1a" stroke-width="2.0" stroke-linecap="round" />
<path d="M852.1973609904194,289.4054054054054 L852.1973609904194,284.1081081081081" stroke="#1a1a1a" stroke-width="2.0" stroke-linecap="round" />
<path d="M852.1973609904194,289.4054054054054 L852.1973609904194,294.7027027027027" stroke="#1a1a1a" stroke-width="2.0" stroke-linecap="round" />
<path d="M852.1973609904194,284.1081081081081 L1000.0,284.1081081081081" stroke="#1a1a1a" stroke-width="2.0" stroke-linecap="round" />
<path d="M852.1973609904194,294.7027027027027 L1000.0,294.7027027027027" stroke="#1a1a1a" stroke-width="2.0" stroke-linecap="round" />
<path d="M670.6596788734005,313.2432432432432 L911.8588366181783,313.2432432432432" stroke="#1a1a1a" stroke-width="2.0" stroke-linecap="round" />
<path d="M911.8588366181783,313.2432432432432 L911.8588366181783,305.2972972972973" stroke="#1a1a1a" stroke-width="2.0" stroke-linecap="round" />
<path d="M911.8588366181783,313.2432432432432 L911.8588366181783,321.18918918918916" stroke="#1a1a1a" stroke-width="2.0" stroke-linecap="round" />
<path d="M911.8588366181783,305.2972972972973 L1000.0,305.2972972972973" stroke="#1a1a1a" stroke-width="2.0" stroke-linecap="round" />
<path d="M911.8588366181783,321.18918918918916 L955.5468942718745,321.18918918918916" stroke="#1a1a1a" stroke-width="2.0" stroke-linecap="round" />
<path d="M955.5468942718745,321.18918918918916 L955.5468942718745,315.8918918918919" stroke="#1a1a1a" stroke-width="2.0" stroke-linecap="round" />
<path d="M955.5468942718745,321.18918918918916 L955.5468942718745,326.48648648648646" stroke="#9a9a9a" stroke-width="1.5" stroke-dasharray="6,5" stroke-linecap="butt" />
<path d="M955.5468942718745,315.8918918918919 L1000.0,315.8918918918919" stroke="#1a1a1a" stroke-width="2.0" stroke-linecap="round" />
<path d="M955.5468942718745,326.48648648648646 L985.8176566905603,326.48648648648646" stroke="#9a9a9a" stroke-width="1.5" stroke-dasharray="6,5" stroke-linecap="butt" />
<path d="M478.4254535431749,244.3783783783784 L489.5116817260601,244.3783783783784" stroke="#1a1a1a" stroke-width="2.0" stroke-linecap="round" />
<path d="M489.5116817260601,244.3783783783784 L489.5116817260601,228.48648648648648" stroke="#1a1a1a" stroke-width="2.0" stroke-linecap="round" />
<path d="M489.5116817260601,244.3783783783784 L489.5116817260601,260.27027027027026" stroke="#1a1a1a" stroke-width="2.0" stroke-linecap="round" />
<path d="M489.5116817260601,228.48648648648648 L505.3707183971783,228.48648648648648" stroke="#1a1a1a" stroke-width="2.0" stroke-linecap="round" />
<path d="M505.3707183971783,228.48648648648648 L505.3707183971783,236.43243243243242" stroke="#1a1a1a" stroke-width="2.0" stroke-linecap="round" />
<path d="M505.3707183971783,228.48648648648648 L505.3707183971783,220.54054054054055" stroke="#9a9a9a" stroke-width="1.5" stroke-dasharray="6,5" stroke-linecap="butt" />
<path d="M505.3707183971783,236.43243243243242 L541.8322158391593,236.43243243243242" stroke="#1a1a1a" stroke-width="2.0" stroke-linecap="round" />
<path d="M541.8322158391593,236.43243243243242 L541.8322158391593,231.13513513513513" stroke="#9a9a9a" stroke-width="1.5" stroke-dasharray="6,5" stroke-linecap="butt" />
<path d="M541.8322158391593,236.43243243243242 L541.8322158391593,241.72972972972974" stroke="#1a1a1a" stroke-width="2.0" stroke-linecap="round" />
<path d="M541.8322158391593,231.13513513513513 L548.0,231.13513513513513" stroke="#9a9a9a" stroke-width="1.5" stroke-dasharray="6,5" stroke-linecap="butt" />
<path d="M541.8322158391593,241.72972972972974 L1000.0,241.72972972972974" stroke="#1a1a1a" stroke-width="2.0" stroke-linecap="round" />
<path d="M505.3707183971783,220.54054054054055 L548.0,220.54054054054055" stroke="#9a9a9a" stroke-width="1.5" stroke-dasharray="6,5" stroke-linecap="butt" />
<path d="M489.5116817260601,260.27027027027026 L504.3944198302013,260.27027027027026" stroke="#1a1a1a" stroke-width="2.0" stroke-linecap="round" />
<path d="M504.3944198302013,260.27027027027026 L504.3944198302013,252.32432432432432" stroke="#9a9a9a" stroke-width="1.5" stroke-dasharray="6,5" stroke-linecap="butt" />
<path d="M504.3944198302013,260.27027027027026 L504.3944198302013,268.21621621621625" stroke="#1a1a1a" stroke-width="2.0" stroke-linecap="round" />
<path d="M504.3944198302013,252.32432432432432 L548.0,252.32432432432432" stroke="#9a9a9a" stroke-width="1.5" stroke-dasharray="6,5" stroke-linecap="butt" />
<path d="M504.3944198302013,268.21621621621625 L764.9182425492345,268.21621621621625" stroke="#1a1a1a" stroke-width="2.0" stroke-linecap="round" />
<path d="M764.9182425492345,268.21621621621625 L764.9182425492345,262.91891891891896" stroke="#9a9a9a" stroke-width="1.5" stroke-dasharray="6,5" stroke-linecap="butt" />
<path d="M764.9182425492345,268.21621621621625 L764.9182425492345,273.51351351351354" stroke="#1a1a1a" stroke-width="2.0" stroke-linecap="round" />
<path d="M764.9182425492345,262.91891891891896 L851.823741902278,262.91891891891896" stroke="#9a9a9a" stroke-width="1.5" stroke-dasharray="6,5" stroke-linecap="butt" />
<path d="M764.9182425492345,273.51351351351354 L1000.0,273.51351351351354" stroke="#1a1a1a" stroke-width="2.0" stroke-linecap="round" />
<path d="M396.6080089708287,172.86486486486487 L431.6624395727445,172.86486486486487" stroke="#9a9a9a" stroke-width="1.5" stroke-dasharray="6,5" stroke-linecap="butt" />
<path d="M431.6624395727445,172.86486486486487 L431.6624395727445,167.56756756756755" stroke="#9a9a9a" stroke-width="1.5" stroke-dasharray="6,5" stroke-linecap="butt" />
<path d="M431.6624395727445,172.86486486486487 L431.6624395727445,178.16216216216216" stroke="#9a9a9a" stroke-width="1.5" stroke-dasharray="6,5" stroke-linecap="butt" />
<path d="M431.6624395727445,167.56756756756755 L474.2244367802705,167.56756756756755" stroke="#9a9a9a" stroke-width="1.5" stroke-dasharray="6,5" stroke-linecap="butt" />
<path d="M431.6624395727445,178.16216216216216 L456.9599887412776,178.16216216216216" stroke="#9a9a9a" stroke-width="1.5" stroke-dasharray="6,5" stroke-linecap="butt" />
<path d="M354.5367344131367,134.45945945945945 L495.0108909919102,134.45945945945945" stroke="#9a9a9a" stroke-width="1.5" stroke-dasharray="6,5" stroke-linecap="butt" />
<path d="M495.0108909919102,134.45945945945945 L495.0108909919102,143.72972972972974" stroke="#9a9a9a" stroke-width="1.5" stroke-dasharray="6,5" stroke-linecap="butt" />
<path d="M495.0108909919102,134.45945945945945 L495.0108909919102,125.1891891891892" stroke="#9a9a9a" stroke-width="1.5" stroke-dasharray="6,5" stroke-linecap="butt" />
<path d="M495.0108909919102,143.72972972972974 L518.8736541037816,143.72972972972974" stroke="#9a9a9a" stroke-width="1.5" stroke-dasharray="6,5" stroke-linecap="butt" />
<path d="M518.8736541037816,143.72972972972974 L518.8736541037816,135.78378378378378" stroke="#9a9a9a" stroke-width="1.5" stroke-dasharray="6,5" stroke-linecap="butt" />
<path d="M518.8736541037816,143.72972972972974 L518.8736541037816,151.67567567567568" stroke="#9a9a9a" stroke-width="1.5" stroke-dasharray="6,5" stroke-linecap="butt" />
<path d="M518.8736541037816,135.78378378378378 L548.0,135.78378378378378" stroke="#9a9a9a" stroke-width="1.5" stroke-dasharray="6,5" stroke-linecap="butt" />
<path d="M518.8736541037816,151.67567567567568 L546.6958948673513,151.67567567567568" stroke="#9a9a9a" stroke-width="1.5" stroke-dasharray="6,5" stroke-linecap="butt" />
<path d="M546.6958948673513,151.67567567567568 L546.6958948673513,146.3783783783784" stroke="#9a9a9a" stroke-width="1.5" stroke-dasharray="6,5" stroke-linecap="butt" />
<path d="M546.6958948673513,151.67567567567568 L546.6958948673513,156.97297297297297" stroke="#9a9a9a" stroke-width="1.5" stroke-dasharray="6,5" stroke-linecap="butt" />
<path d="M546.6958948673513,146.3783783783784 L548.0,146.3783783783784" stroke="#9a9a9a" stroke-width="1.5" stroke-dasharray="6,5" stroke-linecap="butt" />
<path d="M546.6958948673513,156.97297297297297 L548.0,156.97297297297297" stroke="#9a9a9a" stroke-width="1.5" stroke-dasharray="6,5" stroke-linecap="butt" />
<path d="M495.0108909919102,125.1891891891892 L548.0,125.1891891891892" stroke="#9a9a9a" stroke-width="1.5" stroke-dasharray="6,5" stroke-linecap="butt" />
<path d="M96.0,109.29729729729729 L509.0693317004492,109.29729729729729" stroke="#9a9a9a" stroke-width="1.5" stroke-dasharray="6,5" stroke-linecap="butt" />
<path d="M509.0693317004492,109.29729729729729 L509.0693317004492,104.0" stroke="#9a9a9a" stroke-width="1.5" stroke-dasharray="6,5" stroke-linecap="butt" />
<path d="M509.0693317004492,109.29729729729729 L509.0693317004492,114.5945945945946" stroke="#9a9a9a" stroke-width="1.5" stroke-dasharray="6,5" stroke-linecap="butt" />
<path d="M509.0693317004492,104.0 L548.0,104.0" stroke="#9a9a9a" stroke-width="1.5" stroke-dasharray="6,5" stroke-linecap="butt" />
<path d="M509.0693317004492,114.5945945945946 L548.0,114.5945945945946" stroke="#9a9a9a" stroke-width="1.5" stroke-dasharray="6,5" stroke-linecap="butt" />
<circle cx="548.0" cy="188.75675675675677" r="3.0" fill="#1a1a1a" />
<circle cx="548.0" cy="199.35135135135135" r="3.0" fill="#1a1a1a" />
<circle cx="548.0" cy="209.94594594594594" r="3.0" fill="#1a1a1a" />
<circle cx="548.0" cy="231.13513513513513" r="3.0" fill="#1a1a1a" />
<circle cx="548.0" cy="220.54054054054055" r="3.0" fill="#1a1a1a" />
<circle cx="548.0" cy="252.32432432432432" r="3.0" fill="#1a1a1a" />
<circle cx="548.0" cy="135.78378378378378" r="3.0" fill="#1a1a1a" />
<circle cx="548.0" cy="146.3783783783784" r="3.0" fill="#1a1a1a" />
<circle cx="548.0" cy="156.97297297297297" r="3.0" fill="#1a1a1a" />
<circle cx="548.0" cy="125.1891891891892" r="3.0" fill="#1a1a1a" />
<circle cx="548.0" cy="104.0" r="3.0" fill="#1a1a1a" />
<circle cx="548.0" cy="114.5945945945946" r="3.0" fill="#1a1a1a" />
<text x="548.0" y="80" font-size="14" font-family="Helvetica" text-anchor="middle" font-weight="bold" fill="#1a1a1a">mass extinction</text>
<text x="536.0" y="100.0" font-size="12" font-family="Helvetica" text-anchor="end" fill="#555">12 lineages die at the pulse</text>
<text x="1008.0" y="100.0" font-size="12" font-family="Helvetica" text-anchor="start" fill="#555">20 survive to the present</text>
<path d="M96,694 L1000,694" stroke="#bdbdbd" stroke-width="1.2" />
<path d="M96,566 L96,694" stroke="#bdbdbd" stroke-width="1.2" />
<path d="M96.0,694.0 L97.29142857142857,681.2 L98.58285714285714,681.2 L99.87428571428572,681.2 L101.16571428571429,681.2 L102.45714285714286,681.2 L103.74857142857142,681.2 L105.04,681.2 L106.33142857142857,681.2 L107.62285714285714,681.2 L108.91428571428571,681.2 L110.2057142857143,681.2 L111.49714285714286,681.2 L112.78857142857143,681.2 L114.08,681.2 L115.37142857142857,681.2 L116.66285714285715,681.2 L117.95428571428572,681.2 L119.24571428571429,681.2 L120.53714285714285,681.2 L121.82857142857142,681.2 L123.12,681.2 L124.41142857142857,681.2 L125.70285714285714,681.2 L126.99428571428572,681.2 L128.28571428571428,681.2 L129.57714285714286,681.2 L130.86857142857144,681.2 L132.16,681.2 L133.45142857142858,681.2 L134.74285714285713,681.2 L136.03428571428572,681.2 L137.3257142857143,681.2 L138.61714285714285,681.2 L139.90857142857143,681.2 L141.2,681.2 L142.49142857142857,681.2 L143.78285714285715,681.2 L145.0742857142857,681.2 L146.3657142857143,681.2 L147.65714285714284,681.2 L148.94857142857143,681.2 L150.24,681.2 L151.53142857142856,681.2 L152.82285714285715,681.2 L154.11428571428573,681.2 L155.40571428571428,681.2 L156.69714285714286,681.2 L157.98857142857145,681.2 L159.28,681.2 L160.57142857142856,681.2 L161.86285714285714,681.2 L163.15428571428572,681.2 L164.44571428571427,681.2 L165.73714285714289,681.2 L167.0285714285714,681.2 L168.32,681.2 L169.61142857142858,681.2 L170.90285714285716,681.2 L172.1942857142857,681.2 L173.48571428571427,681.2 L174.77714285714285,681.2 L176.06857142857143,681.2 L177.36,681.2 L178.65142857142857,681.2 L179.94285714285715,681.2 L181.2342857142857,681.2 L182.5257142857143,681.2 L183.81714285714287,681.2 L185.10857142857145,681.2 L186.4,681.2 L187.69142857142856,681.2 L188.98285714285714,681.2 L190.27428571428572,681.2 L191.5657142857143,681.2 L192.85714285714283,681.2 L194.14857142857142,681.2 L195.44,681.2 L196.73142857142858,681.2 L198.02285714285713,681.2 L199.31428571428572,681.2 L200.6057142857143,681.2 L201.89714285714285,681.2 L203.18857142857144,681.2 L204.48,681.2 L205.77142857142854,681.2 L207.06285714285713,681.2 L208.3542857142857,681.2 L209.6457142857143,681.2 L210.93714285714287,681.2 L212.22857142857146,681.2 L213.52,681.2 L214.81142857142856,681.2 L216.10285714285715,681.2 L217.39428571428573,681.2 L218.6857142857143,681.2 L219.97714285714287,681.2 L221.26857142857142,681.2 L222.56,681.2 L223.85142857142858,681.2 L225.14285714285714,681.2 L226.43428571428572,681.2 L227.72571428571428,681.2 L229.01714285714286,681.2 L230.30857142857144,681.2 L231.6,681.2 L232.89142857142855,681.2 L234.18285714285713,681.2 L235.47428571428574,681.2 L236.7657142857143,681.2 L238.05714285714285,681.2 L239.3485714285714,681.2 L240.64000000000001,681.2 L241.93142857142857,681.2 L243.22285714285715,681.2 L244.5142857142857,681.2 L245.8057142857143,681.2 L247.09714285714287,681.2 L248.38857142857142,681.2 L249.67999999999998,681.2 L250.97142857142856,681.2 L252.26285714285717,681.2 L253.55428571428573,681.2 L254.84571428571428,681.2 L256.13714285714286,681.2 L257.42857142857144,681.2 L258.72,681.2 L260.0114285714286,681.2 L261.30285714285714,681.2 L262.5942857142857,681.2 L263.8857142857143,681.2 L265.1771428571428,681.2 L266.4685714285714,681.2 L267.76,681.2 L269.0514285714286,681.2 L270.34285714285716,681.2 L271.63428571428574,681.2 L272.92571428571426,681.2 L274.2171428571429,681.2 L275.50857142857143,681.2 L276.8,681.2 L278.09142857142854,681.2 L279.3828571428571,681.2 L280.6742857142857,681.2 L281.9657142857143,681.2 L283.25714285714287,681.2 L284.54857142857145,681.2 L285.84000000000003,681.2 L287.1314285714286,681.2 L288.42285714285714,681.2 L289.71428571428567,681.2 L291.00571428571425,681.2 L292.29714285714283,681.2 L293.5885714285714,681.2 L294.88,681.2 L296.1714285714286,681.2 L297.46285714285716,681.2 L298.75428571428574,681.2 L300.04571428571427,681.2 L301.33714285714285,681.2 L302.62857142857143,681.2 L303.91999999999996,681.2 L305.2114285714286,681.2 L306.5028571428571,681.2 L307.7942857142857,681.2 L309.0857142857143,681.2 L310.37714285714287,681.2 L311.66857142857145,681.2 L312.96,681.2 L314.25142857142856,681.2 L315.5428571428571,681.2 L316.8342857142857,681.2 L318.12571428571425,681.2 L319.41714285714284,681.2 L320.7085714285714,681.2 L322.0,681.2 L323.2914285714286,681.2 L324.58285714285716,681.2 L325.87428571428575,681.2 L327.1657142857142,681.2 L328.4571428571429,681.2 L329.7485714285714,681.2 L331.04,681.2 L332.3314285714286,681.2 L333.62285714285713,681.2 L334.9142857142857,681.2 L336.2057142857143,681.2 L337.4971428571429,681.2 L338.78857142857146,681.2 L340.08000000000004,681.2 L341.3714285714286,681.2 L342.66285714285715,681.2 L343.95428571428573,681.2 L345.24571428571426,681.2 L346.53714285714284,681.2 L347.8285714285714,681.2 L349.12,681.2 L350.4114285714286,681.2 L351.70285714285717,681.2 L352.99428571428575,681.2 L354.2857142857143,681.2 L355.57714285714286,674.8 L356.86857142857144,674.8 L358.15999999999997,674.8 L359.45142857142855,674.8 L360.74285714285713,674.8 L362.0342857142857,674.8 L363.3257142857143,674.8 L364.6171428571429,674.8 L365.90857142857146,674.8 L367.2,674.8 L368.49142857142857,674.8 L369.7828571428571,674.8 L371.0742857142857,674.8 L372.36571428571426,674.8 L373.6571428571429,674.8 L374.9485714285715,674.8 L376.24,674.8 L377.5314285714286,674.8 L378.8228571428571,674.8 L380.1142857142857,674.8 L381.4057142857143,674.8 L382.6971428571428,674.8 L383.98857142857145,674.8 L385.28000000000003,674.8 L386.5714285714286,674.8 L387.86285714285714,674.8 L389.1542857142857,674.8 L390.4457142857143,674.8 L391.7371428571428,674.8 L393.0285714285714,674.8 L394.31999999999994,674.8 L395.6114285714286,674.8 L396.90285714285716,668.4 L398.19428571428574,668.4 L399.4857142857143,668.4 L400.77714285714285,668.4 L402.06857142857143,668.4 L403.35999999999996,668.4 L404.65142857142854,668.4 L405.9428571428571,668.4 L407.23428571428576,668.4 L408.52571428571434,668.4 L409.81714285714287,668.4 L411.10857142857145,668.4 L412.4,668.4 L413.69142857142856,668.4 L414.98285714285714,668.4 L416.27428571428567,668.4 L417.56571428571425,668.4 L418.8571428571429,668.4 L420.1485714285715,668.4 L421.44,668.4 L422.7314285714286,668.4 L424.02285714285716,668.4 L425.3142857142857,668.4 L426.60571428571427,668.4 L427.8971428571428,668.4 L429.18857142857144,668.4 L430.48,668.4 L431.7714285714286,662.0 L433.0628571428572,662.0 L434.3542857142857,662.0 L435.6457142857143,662.0 L436.9371428571428,655.6 L438.2285714285714,655.6 L439.52,655.6 L440.81142857142856,655.6 L442.1028571428572,649.2 L443.39428571428573,649.2 L444.6857142857143,649.2 L445.97714285714284,649.2 L447.2685714285714,649.2 L448.56,649.2 L449.8514285714285,649.2 L451.1428571428571,649.2 L452.43428571428575,649.2 L453.72571428571433,649.2 L455.01714285714286,649.2 L456.30857142857144,649.2 L457.6,655.6 L458.89142857142855,655.6 L460.18285714285713,655.6 L461.47428571428566,655.6 L462.76571428571424,655.6 L464.0571428571429,655.6 L465.3485714285714,655.6 L466.64,655.6 L467.9314285714285,655.6 L469.2228571428572,655.6 L470.51428571428573,655.6 L471.8057142857143,655.6 L473.09714285714284,655.6 L474.3885714285714,662.0 L475.68000000000006,662.0 L476.9714285714286,662.0 L478.2628571428572,662.0 L479.5542857142857,655.6 L480.8457142857143,655.6 L482.13714285714286,655.6 L483.4285714285714,655.6 L484.71999999999997,655.6 L486.01142857142855,655.6 L487.30285714285714,655.6 L488.5942857142857,655.6 L489.88571428571424,649.2 L491.1771428571428,649.2 L492.46857142857147,649.2 L493.76000000000005,649.2 L495.0514285714286,642.8 L496.34285714285716,642.8 L497.63428571428574,642.8 L498.9257142857143,642.8 L500.2171428571429,642.8 L501.50857142857143,642.8 L502.8,642.8 L504.09142857142854,642.8 L505.3828571428571,630.0 L506.6742857142857,630.0 L507.9657142857143,630.0 L509.25714285714287,623.6 L510.5485714285714,623.6 L511.84,623.6 L513.1314285714286,623.6 L514.4228571428572,623.6 L515.7142857142858,623.6 L517.0057142857142,623.6 L518.297142857143,623.6 L519.5885714285714,617.2 L520.8800000000001,617.2 L522.1714285714286,617.2 L523.4628571428572,617.2 L524.7542857142857,617.2 L526.0457142857142,617.2 L527.3371428571429,617.2 L528.6285714285714,617.2 L529.92,617.2 L531.2114285714285,617.2 L532.5028571428571,617.2 L533.7942857142857,617.2 L535.0857142857142,617.2 L536.3771428571429,617.2 L537.6685714285715,617.2 L538.96,617.2 L540.2514285714285,617.2 L541.5428571428572,617.2 L542.8342857142857,610.8 L544.1257142857144,604.4 L545.4171428571428,604.4 L546.7085714285714,598.0 L548.0,598.0 L549.2914285714286,674.8 L550.5828571428572,674.8 L551.8742857142856,674.8 L553.1657142857143,674.8 L554.4571428571428,674.8 L555.7485714285715,674.8 L557.04,674.8 L558.3314285714284,674.8 L559.6228571428571,674.8 L560.9142857142858,674.8 L562.2057142857143,674.8 L563.4971428571428,674.8 L564.7885714285715,674.8 L566.08,674.8 L567.3714285714286,674.8 L568.6628571428572,674.8 L569.9542857142857,674.8 L571.2457142857143,674.8 L572.5371428571428,674.8 L573.8285714285714,674.8 L575.12,674.8 L576.4114285714286,674.8 L577.702857142857,674.8 L578.9942857142858,674.8 L580.2857142857142,674.8 L581.5771428571429,674.8 L582.8685714285714,674.8 L584.1600000000001,674.8 L585.4514285714286,674.8 L586.7428571428572,674.8 L588.0342857142857,674.8 L589.3257142857143,674.8 L590.6171428571429,674.8 L591.9085714285715,674.8 L593.2,674.8 L594.4914285714285,674.8 L595.7828571428571,674.8 L597.0742857142857,674.8 L598.3657142857143,674.8 L599.6571428571428,674.8 L600.9485714285713,674.8 L602.24,674.8 L603.5314285714285,674.8 L604.8228571428572,674.8 L606.1142857142856,674.8 L607.4057142857143,674.8 L608.6971428571429,674.8 L609.9885714285715,674.8 L611.2800000000001,674.8 L612.5714285714286,674.8 L613.8628571428571,674.8 L615.1542857142857,674.8 L616.4457142857143,674.8 L617.7371428571429,674.8 L619.0285714285714,674.8 L620.3199999999999,674.8 L621.6114285714285,674.8 L622.9028571428571,674.8 L624.1942857142857,674.8 L625.4857142857143,674.8 L626.7771428571428,674.8 L628.0685714285714,674.8 L629.3600000000001,674.8 L630.6514285714286,674.8 L631.9428571428572,674.8 L633.2342857142858,674.8 L634.5257142857143,674.8 L635.8171428571429,674.8 L637.1085714285714,674.8 L638.4,674.8 L639.6914285714286,674.8 L640.9828571428571,674.8 L642.2742857142857,668.4 L643.5657142857142,668.4 L644.8571428571428,668.4 L646.1485714285714,668.4 L647.4399999999999,668.4 L648.7314285714285,668.4 L650.0228571428571,668.4 L651.3142857142858,668.4 L652.6057142857144,668.4 L653.897142857143,668.4 L655.1885714285714,668.4 L656.48,668.4 L657.7714285714286,668.4 L659.0628571428572,668.4 L660.3542857142858,668.4 L661.6457142857142,668.4 L662.9371428571428,668.4 L664.2285714285714,668.4 L665.52,668.4 L666.8114285714286,668.4 L668.102857142857,668.4 L669.3942857142856,668.4 L670.6857142857142,662.0 L671.9771428571429,662.0 L673.2685714285715,662.0 L674.5600000000001,662.0 L675.8514285714286,662.0 L677.1428571428572,662.0 L678.4342857142858,662.0 L679.7257142857143,662.0 L681.0171428571429,662.0 L682.3085714285714,662.0 L683.6,662.0 L684.8914285714286,655.6 L686.1828571428571,655.6 L687.4742857142857,655.6 L688.7657142857142,655.6 L690.0571428571428,655.6 L691.3485714285714,655.6 L692.6399999999999,655.6 L693.9314285714286,655.6 L695.2228571428572,655.6 L696.5142857142857,655.6 L697.8057142857143,655.6 L699.0971428571429,655.6 L700.3885714285715,655.6 L701.6800000000001,655.6 L702.9714285714286,655.6 L704.2628571428571,655.6 L705.5542857142857,655.6 L706.8457142857143,655.6 L708.1371428571429,655.6 L709.4285714285714,655.6 L710.7199999999999,655.6 L712.0114285714285,655.6 L713.3028571428571,655.6 L714.5942857142857,655.6 L715.8857142857142,655.6 L717.1771428571428,655.6 L718.4685714285715,655.6 L719.7600000000001,655.6 L721.0514285714287,655.6 L722.3428571428572,655.6 L723.6342857142857,655.6 L724.9257142857143,655.6 L726.2171428571429,655.6 L727.5085714285715,655.6 L728.8,655.6 L730.0914285714285,655.6 L731.3828571428571,655.6 L732.6742857142857,655.6 L733.9657142857143,655.6 L735.2571428571428,655.6 L736.5485714285713,649.2 L737.8399999999999,649.2 L739.1314285714285,649.2 L740.4228571428572,649.2 L741.7142857142858,649.2 L743.0057142857144,649.2 L744.297142857143,649.2 L745.5885714285715,649.2 L746.88,649.2 L748.1714285714286,649.2 L749.4628571428572,649.2 L750.7542857142857,649.2 L752.0457142857143,649.2 L753.3371428571428,649.2 L754.6285714285714,649.2 L755.92,642.8 L757.2114285714285,642.8 L758.5028571428571,642.8 L759.7942857142856,642.8 L761.0857142857142,642.8 L762.3771428571429,642.8 L763.6685714285715,642.8 L764.96,636.4 L766.2514285714286,636.4 L767.5428571428572,636.4 L768.8342857142858,636.4 L770.1257142857144,630.0 L771.4171428571428,630.0 L772.7085714285714,630.0 L774.0,623.6 L775.2914285714286,623.6 L776.5828571428572,617.2 L777.8742857142856,617.2 L779.1657142857142,617.2 L780.4571428571428,617.2 L781.7485714285714,617.2 L783.04,617.2 L784.3314285714285,617.2 L785.6228571428571,617.2 L786.9142857142858,623.6 L788.2057142857144,623.6 L789.4971428571429,623.6 L790.7885714285715,623.6 L792.08,623.6 L793.3714285714286,623.6 L794.6628571428572,623.6 L795.9542857142857,623.6 L797.2457142857143,623.6 L798.5371428571428,623.6 L799.8285714285714,623.6 L801.12,623.6 L802.4114285714285,623.6 L803.702857142857,623.6 L804.9942857142856,623.6 L806.2857142857142,623.6 L807.5771428571428,623.6 L808.8685714285715,623.6 L810.1600000000001,623.6 L811.4514285714287,623.6 L812.7428571428572,623.6 L814.0342857142857,623.6 L815.3257142857143,623.6 L816.6171428571429,623.6 L817.9085714285715,623.6 L819.2,623.6 L820.4914285714285,623.6 L821.7828571428571,623.6 L823.0742857142857,623.6 L824.3657142857143,623.6 L825.6571428571428,623.6 L826.9485714285713,623.6 L828.2399999999999,623.6 L829.5314285714285,623.6 L830.8228571428572,623.6 L832.1142857142858,623.6 L833.4057142857142,623.6 L834.6971428571428,623.6 L835.9885714285714,623.6 L837.28,623.6 L838.5714285714286,623.6 L839.862857142857,623.6 L841.1542857142856,623.6 L842.4457142857144,623.6 L843.7371428571429,623.6 L845.0285714285715,623.6 L846.32,623.6 L847.6114285714286,623.6 L848.9028571428572,623.6 L850.1942857142857,623.6 L851.4857142857143,623.6 L852.7771428571428,623.6 L854.0685714285714,623.6 L855.3600000000001,623.6 L856.6514285714286,623.6 L857.9428571428572,623.6 L859.2342857142858,623.6 L860.5257142857143,623.6 L861.8171428571429,623.6 L863.1085714285714,623.6 L864.4,623.6 L865.6914285714286,623.6 L866.9828571428571,617.2 L868.2742857142857,610.8 L869.5657142857142,610.8 L870.8571428571428,610.8 L872.1485714285714,610.8 L873.4399999999999,610.8 L874.7314285714285,610.8 L876.0228571428571,610.8 L877.3142857142857,610.8 L878.6057142857143,610.8 L879.8971428571429,610.8 L881.1885714285714,610.8 L882.4799999999999,610.8 L883.7714285714285,610.8 L885.0628571428571,610.8 L886.3542857142857,610.8 L887.6457142857143,610.8 L888.9371428571429,610.8 L890.2285714285715,610.8 L891.5200000000001,610.8 L892.8114285714286,610.8 L894.1028571428571,610.8 L895.3942857142857,610.8 L896.6857142857143,610.8 L897.9771428571429,610.8 L899.2685714285715,610.8 L900.5600000000001,610.8 L901.8514285714286,610.8 L903.1428571428572,604.4 L904.4342857142858,604.4 L905.7257142857143,604.4 L907.0171428571429,604.4 L908.3085714285714,604.4 L909.6,604.4 L910.8914285714286,604.4 L912.1828571428571,598.0 L913.4742857142857,598.0 L914.7657142857142,598.0 L916.0571428571428,598.0 L917.3485714285714,598.0 L918.6399999999999,591.6 L919.9314285714286,591.6 L921.2228571428572,585.2 L922.5142857142857,585.2 L923.8057142857143,585.2 L925.0971428571428,585.2 L926.3885714285714,585.2 L927.68,585.2 L928.9714285714285,585.2 L930.2628571428571,585.2 L931.5542857142856,585.2 L932.8457142857144,585.2 L934.137142857143,585.2 L935.4285714285714,585.2 L936.72,585.2 L938.0114285714286,585.2 L939.3028571428572,591.6 L940.5942857142858,591.6 L941.8857142857142,591.6 L943.1771428571428,591.6 L944.4685714285715,591.6 L945.7600000000001,591.6 L947.0514285714287,591.6 L948.3428571428572,591.6 L949.6342857142857,591.6 L950.9257142857143,585.2 L952.2171428571429,585.2 L953.5085714285715,585.2 L954.8,585.2 L956.0914285714285,578.8 L957.3828571428571,578.8 L958.6742857142857,578.8 L959.9657142857143,578.8 L961.2571428571428,578.8 L962.5485714285713,578.8 L963.8399999999999,578.8 L965.1314285714285,578.8 L966.4228571428572,578.8 L967.7142857142857,578.8 L969.0057142857142,578.8 L970.2971428571428,578.8 L971.5885714285714,578.8 L972.88,578.8 L974.1714285714285,572.4 L975.462857142857,572.4 L976.7542857142856,572.4 L978.0457142857143,572.4 L979.3371428571429,572.4 L980.6285714285715,572.4 L981.9200000000001,572.4 L983.2114285714287,566.0 L984.5028571428571,566.0 L985.7942857142857,566.0 L987.0857142857143,566.0 L988.3771428571429,566.0 L989.6685714285715,566.0 L990.96,566.0 L992.2514285714286,566.0 L993.5428571428572,566.0 L994.8342857142858,566.0 L996.1257142857144,566.0 L997.4171428571428,566.0 L998.7085714285714,566.0 L1000.0,566.0" fill="none" stroke="#1a1a1a" stroke-width="2.0" stroke-linejoin="round" />
<text x="88" y="694.0" font-size="11" font-family="Helvetica" text-anchor="end" dominant-baseline="central" fill="#777">0</text>
<text x="88" y="566.0" font-size="11" font-family="Helvetica" text-anchor="end" dominant-baseline="central" fill="#777">20</text>
<text x="66" y="630.0" font-size="12.5" font-family="Helvetica" text-anchor="middle" fill="#777" transform="rotate(-90 66 630.0)">lineages</text>
<path d="M96.0,694 L96.0,699" stroke="#1a1a1a" stroke-width="1.2" />
<text x="96.0" y="712" font-size="11" font-family="Helvetica" text-anchor="middle" fill="#777">0</text>
<path d="M276.8,694 L276.8,699" stroke="#1a1a1a" stroke-width="1.2" />
<text x="276.8" y="712" font-size="11" font-family="Helvetica" text-anchor="middle" fill="#777">1</text>
<path d="M457.6,694 L457.6,699" stroke="#1a1a1a" stroke-width="1.2" />
<text x="457.6" y="712" font-size="11" font-family="Helvetica" text-anchor="middle" fill="#777">2</text>
<path d="M638.4,694 L638.4,699" stroke="#1a1a1a" stroke-width="1.2" />
<text x="638.4" y="712" font-size="11" font-family="Helvetica" text-anchor="middle" fill="#777">3</text>
<path d="M819.2,694 L819.2,699" stroke="#1a1a1a" stroke-width="1.2" />
<text x="819.2" y="712" font-size="11" font-family="Helvetica" text-anchor="middle" fill="#777">4</text>
<path d="M1000.0,694 L1000.0,699" stroke="#1a1a1a" stroke-width="1.2" />
<text x="1000.0" y="712" font-size="11" font-family="Helvetica" text-anchor="middle" fill="#777">5</text>
<text x="548.0" y="732" font-size="12.5" font-family="Helvetica" text-anchor="middle" fill="#777">time (root -&gt; present)</text>
<path d="M750,110 L776,110" stroke="#1a1a1a" stroke-width="2.0" stroke-linecap="round" />
<text x="782" y="110" font-size="12" font-family="Helvetica" text-anchor="start" dominant-baseline="central" fill="#1a1a1a">surviving lineage</text>
<path d="M750,130 L776,130" stroke="#9a9a9a" stroke-width="1.5" stroke-dasharray="6,5" />
<text x="782" y="130" font-size="12" font-family="Helvetica" text-anchor="start" dominant-baseline="central" fill="#1a1a1a">extinct lineage</text>
</svg>