<?xml version="1.0" encoding="UTF-8"?>
<svg xmlns="http://www.w3.org/2000/svg" xmlns:xlink="http://www.w3.org/1999/xlink"
     width="1400" height="780" viewBox="0 0 1400 780">
<defs>
</defs>
<rect x="0" y="0" width="1400" height="780" fill="white" />
<text x="700.0" y="48" font-size="32" font-family="Helvetica" text-anchor="middle" font-weight="bold" fill="#1a1a1a">The mass-extinction model</text>
<path d="M40,96 L74,96" stroke="#1a1a1a" stroke-width="2.2" stroke-linecap="round" />
<text x="84" y="96" font-size="22" font-family="Helvetica" text-anchor="start" dominant-baseline="central" fill="#1a1a1a">surviving lineage</text>
<path d="M290,96 L324,96" stroke="#9a9a9a" stroke-width="1.6" stroke-dasharray="6,5" />
<text x="334" y="96" font-size="22" font-family="Helvetica" text-anchor="start" dominant-baseline="central" fill="#1a1a1a">extinct lineage</text>
<path d="M1320.0,134 L1320.0,700" stroke="#cccccc" stroke-width="1.0" stroke-dasharray="2,4" />
<rect x="703.0" y="134" width="14" height="566" fill="#e9e9e9" />
<path d="M710.0,134 L710.0,700" stroke="#1a1a1a" stroke-width="1.6" stroke-dasharray="5,4" />
<path d="M86.0,181.85215635557432 L100.0,181.85215635557432" stroke="#1a1a1a" stroke-width="2.0" stroke-linecap="round" />
<path d="M100.0,181.85215635557432 L100.0,208.6772856841216" stroke="#1a1a1a" stroke-width="2.0" stroke-linecap="round" />
<path d="M100.0,181.85215635557432 L100.0,155.02702702702703" stroke="#9a9a9a" stroke-width="1.5" stroke-dasharray="6,5" stroke-linecap="butt" />
<path d="M100.0,208.6772856841216 L448.91019467259594,208.6772856841216" stroke="#1a1a1a" stroke-width="2.0" stroke-linecap="round" />
<path d="M448.91019467259594,208.6772856841216 L448.91019467259594,238.44916596283784" stroke="#1a1a1a" stroke-width="2.0" stroke-linecap="round" />
<path d="M448.91019467259594,208.6772856841216 L448.91019467259594,178.90540540540542" stroke="#9a9a9a" stroke-width="1.5" stroke-dasharray="6,5" stroke-linecap="butt" />
<path d="M448.91019467259594,238.44916596283784 L505.6877997172688,238.44916596283784" stroke="#1a1a1a" stroke-width="2.0" stroke-linecap="round" />
<path d="M505.6877997172688,238.44916596283784 L505.6877997172688,261.5469805743243" stroke="#1a1a1a" stroke-width="2.0" stroke-linecap="round" />
<path d="M505.6877997172688,238.44916596283784 L505.6877997172688,215.35135135135135" stroke="#9a9a9a" stroke-width="1.5" stroke-dasharray="6,5" stroke-linecap="butt" />
<path d="M505.6877997172688,261.5469805743243 L558.7500905017419,261.5469805743243" stroke="#1a1a1a" stroke-width="2.0" stroke-linecap="round" />
<path d="M558.7500905017419,261.5469805743243 L558.7500905017419,235.45945945945948" stroke="#9a9a9a" stroke-width="1.5" stroke-dasharray="6,5" stroke-linecap="butt" />
<path d="M558.7500905017419,261.5469805743243 L558.7500905017419,287.63450168918916" stroke="#1a1a1a" stroke-width="2.0" stroke-linecap="round" />
<path d="M558.7500905017419,235.45945945945948 L704.591575756603,235.45945945945948" stroke="#9a9a9a" stroke-width="1.5" stroke-dasharray="6,5" stroke-linecap="butt" />
<path d="M704.591575756603,235.45945945945948 L704.591575756603,230.43243243243245" stroke="#9a9a9a" stroke-width="1.5" stroke-dasharray="6,5" stroke-linecap="butt" />
<path d="M704.591575756603,235.45945945945948 L704.591575756603,240.48648648648648" stroke="#9a9a9a" stroke-width="1.5" stroke-dasharray="6,5" stroke-linecap="butt" />
<path d="M704.591575756603,230.43243243243245 L710.0,230.43243243243245" stroke="#9a9a9a" stroke-width="1.5" stroke-dasharray="6,5" stroke-linecap="butt" />
<path d="M704.591575756603,240.48648648648648 L710.0,240.48648648648648" stroke="#9a9a9a" stroke-width="1.5" stroke-dasharray="6,5" stroke-linecap="butt" />
<path d="M558.7500905017419,287.63450168918916 L566.6808446981113,287.63450168918916" stroke="#1a1a1a" stroke-width="2.0" stroke-linecap="round" />
<path d="M566.6808446981113,287.63450168918916 L566.6808446981113,250.54054054054055" stroke="#9a9a9a" stroke-width="1.5" stroke-dasharray="6,5" stroke-linecap="butt" />
<path d="M566.6808446981113,287.63450168918916 L566.6808446981113,324.7284628378378" stroke="#1a1a1a" stroke-width="2.0" stroke-linecap="round" />
<path d="M566.6808446981113,250.54054054054055 L710.0,250.54054054054055" stroke="#9a9a9a" stroke-width="1.5" stroke-dasharray="6,5" stroke-linecap="butt" />
<path d="M566.6808446981113,324.7284628378378 L616.1051474808334,324.7284628378378" stroke="#1a1a1a" stroke-width="2.0" stroke-linecap="round" />
<path d="M616.1051474808334,324.7284628378378 L616.1051474808334,366.2407094594595" stroke="#1a1a1a" stroke-width="2.0" stroke-linecap="round" />
<path d="M616.1051474808334,324.7284628378378 L616.1051474808334,283.21621621621625" stroke="#1a1a1a" stroke-width="2.0" stroke-linecap="round" />
<path d="M616.1051474808334,366.2407094594595 L836.1388585255131,366.2407094594595" stroke="#1a1a1a" stroke-width="2.0" stroke-linecap="round" />
<path d="M836.1388585255131,366.2407094594595 L836.1388585255131,395.2246621621622" stroke="#1a1a1a" stroke-width="2.0" stroke-linecap="round" />
<path d="M836.1388585255131,366.2407094594595 L836.1388585255131,337.2567567567568" stroke="#1a1a1a" stroke-width="2.0" stroke-linecap="round" />
<path d="M836.1388585255131,395.2246621621622 L893.3926842113431,395.2246621621622" stroke="#1a1a1a" stroke-width="2.0" stroke-linecap="round" />
<path d="M893.3926842113431,395.2246621621622 L893.3926842113431,371.18918918918916" stroke="#1a1a1a" stroke-width="2.0" stroke-linecap="round" />
<path d="M893.3926842113431,395.2246621621622 L893.3926842113431,419.26013513513516" stroke="#1a1a1a" stroke-width="2.0" stroke-linecap="round" />
<path d="M893.3926842113431,371.18918918918916 L1320.0,371.18918918918916" stroke="#1a1a1a" stroke-width="2.0" stroke-linecap="round" />
<path d="M893.3926842113431,419.26013513513516 L963.3606670641835,419.26013513513516" stroke="#1a1a1a" stroke-width="2.0" stroke-linecap="round" />
<path d="M963.3606670641835,419.26013513513516 L963.3606670641835,452.25" stroke="#1a1a1a" stroke-width="2.0" stroke-linecap="round" />
<path d="M963.3606670641835,419.26013513513516 L963.3606670641835,386.2702702702703" stroke="#1a1a1a" stroke-width="2.0" stroke-linecap="round" />
<path d="M963.3606670641835,452.25 L989.7684123272509,452.25" stroke="#1a1a1a" stroke-width="2.0" stroke-linecap="round" />
<path d="M989.7684123272509,452.25 L989.7684123272509,486.81081081081084" stroke="#1a1a1a" stroke-width="2.0" stroke-linecap="round" />
<path d="M989.7684123272509,452.25 L989.7684123272509,417.6891891891892" stroke="#1a1a1a" stroke-width="2.0" stroke-linecap="round" />
<path d="M989.7684123272509,486.81081081081084 L1018.3638561784869,486.81081081081084" stroke="#1a1a1a" stroke-width="2.0" stroke-linecap="round" />
<path d="M1018.3638561784869,486.81081081081084 L1018.3638561784869,466.7027027027027" stroke="#1a1a1a" stroke-width="2.0" stroke-linecap="round" />
<path d="M1018.3638561784869,486.81081081081084 L1018.3638561784869,506.9189189189189" stroke="#1a1a1a" stroke-width="2.0" stroke-linecap="round" />
<path d="M1018.3638561784869,466.7027027027027 L1209.6594877729628,466.7027027027027" stroke="#1a1a1a" stroke-width="2.0" stroke-linecap="round" />
<path d="M1209.6594877729628,466.7027027027027 L1209.6594877729628,456.64864864864865" stroke="#1a1a1a" stroke-width="2.0" stroke-linecap="round" />
<path d="M1209.6594877729628,466.7027027027027 L1209.6594877729628,476.7567567567568" stroke="#1a1a1a" stroke-width="2.0" stroke-linecap="round" />
<path d="M1209.6594877729628,456.64864864864865 L1253.581035288408,456.64864864864865" stroke="#1a1a1a" stroke-width="2.0" stroke-linecap="round" />
<path d="M1253.581035288408,456.64864864864865 L1253.581035288408,451.6216216216216" stroke="#1a1a1a" stroke-width="2.0" stroke-linecap="round" />
<path d="M1253.581035288408,456.64864864864865 L1253.581035288408,461.6756756756757" stroke="#1a1a1a" stroke-width="2.0" stroke-linecap="round" />
<path d="M1253.581035288408,451.6216216216216 L1320.0,451.6216216216216" stroke="#1a1a1a" stroke-width="2.0" stroke-linecap="round" />
<path d="M1253.581035288408,461.6756756756757 L1320.0,461.6756756756757" stroke="#1a1a1a" stroke-width="2.0" stroke-linecap="round" />
<path d="M1209.6594877729628,476.7567567567568 L1213.1909839419095,476.7567567567568" stroke="#1a1a1a" stroke-width="2.0" stroke-linecap="round" />
<path d="M1213.1909839419095,476.7567567567568 L1213.1909839419095,471.72972972972974" stroke="#1a1a1a" stroke-width="2.0" stroke-linecap="round" />
<path d="M1213.1909839419095,476.7567567567568 L1213.1909839419095,481.7837837837838" stroke="#1a1a1a" stroke-width="2.0" stroke-linecap="round" />
<path d="M1213.1909839419095,471.72972972972974 L1320.0,471.72972972972974" stroke="#1a1a1a" stroke-width="2.0" stroke-linecap="round" />
<path d="M1213.1909839419095,481.7837837837838 L1320.0,481.7837837837838" stroke="#1a1a1a" stroke-width="2.0" stroke-linecap="round" />
<path d="M1018.3638561784869,506.9189189189189 L1284.8644856522062,506.9189189189189" stroke="#1a1a1a" stroke-width="2.0" stroke-linecap="round" />
<path d="M1284.8644856522062,506.9189189189189 L1284.8644856522062,496.8648648648649" stroke="#1a1a1a" stroke-width="2.0" stroke-linecap="round" />
<path d="M1284.8644856522062,506.9189189189189 L1284.8644856522062,516.9729729729729" stroke="#1a1a1a" stroke-width="2.0" stroke-linecap="round" />
<path d="M1284.8644856522062,496.8648648648649 L1296.319401649967,496.8648648648649" stroke="#1a1a1a" stroke-width="2.0" stroke-linecap="round" />
<path d="M1296.319401649967,496.8648648648649 L1296.319401649967,491.83783783783787" stroke="#1a1a1a" stroke-width="2.0" stroke-linecap="round" />
<path d="M1296.319401649967,496.8648648648649 L1296.319401649967,501.89189189189193" stroke="#1a1a1a" stroke-width="2.0" stroke-linecap="round" />
<path d="M1296.319401649967,491.83783783783787 L1320.0,491.83783783783787" stroke="#1a1a1a" stroke-width="2.0" stroke-linecap="round" />
<path d="M1296.319401649967,501.89189189189193 L1320.0,501.89189189189193" stroke="#1a1a1a" stroke-width="2.0" stroke-linecap="round" />
<path d="M1284.8644856522062,516.9729729729729 L1302.5184185495148,516.9729729729729" stroke="#1a1a1a" stroke-width="2.0" stroke-linecap="round" />
<path d="M1302.5184185495148,516.9729729729729 L1302.5184185495148,511.94594594594594" stroke="#1a1a1a" stroke-width="2.0" stroke-linecap="round" />
<path d="M1302.5184185495148,516.9729729729729 L1302.5184185495148,522.0" stroke="#1a1a1a" stroke-width="2.0" stroke-linecap="round" />
<path d="M1302.5184185495148,511.94594594594594 L1320.0,511.94594594594594" stroke="#1a1a1a" stroke-width="2.0" stroke-linecap="round" />
<path d="M1302.5184185495148,522.0 L1320.0,522.0" stroke="#1a1a1a" stroke-width="2.0" stroke-linecap="round" />
<path d="M989.7684123272509,417.6891891891892 L1008.1383788013429,417.6891891891892" stroke="#1a1a1a" stroke-width="2.0" stroke-linecap="round" />
<path d="M1008.1383788013429,417.6891891891892 L1008.1383788013429,406.3783783783784" stroke="#1a1a1a" stroke-width="2.0" stroke-linecap="round" />
<path d="M1008.1383788013429,417.6891891891892 L1008.1383788013429,429.0" stroke="#1a1a1a" stroke-width="2.0" stroke-linecap="round" />
<path d="M1008.1383788013429,406.3783783783784 L1188.9092366051232,406.3783783783784" stroke="#1a1a1a" stroke-width="2.0" stroke-linecap="round" />
<path d="M1188.9092366051232,406.3783783783784 L1188.9092366051232,401.35135135135135" stroke="#1a1a1a" stroke-width="2.0" stroke-linecap="round" />
<path d="M1188.9092366051232,406.3783783783784 L1188.9092366051232,411.4054054054054" stroke="#1a1a1a" stroke-width="2.0" stroke-linecap="round" />
<path d="M1188.9092366051232,401.35135135135135 L1320.0,401.35135135135135" stroke="#1a1a1a" stroke-width="2.0" stroke-linecap="round" />
<path d="M1188.9092366051232,411.4054054054054 L1320.0,411.4054054054054" stroke="#1a1a1a" stroke-width="2.0" stroke-linecap="round" />
<path d="M1008.1383788013429,429.0 L1138.8930521849773,429.0" stroke="#1a1a1a" stroke-width="2.0" stroke-linecap="round" />
<path d="M1138.8930521849773,429.0 L1138.8930521849773,436.5405405405406" stroke="#1a1a1a" stroke-width="2.0" stroke-linecap="round" />
<path d="M1138.8930521849773,429.0 L1138.8930521849773,421.4594594594595" stroke="#1a1a1a" stroke-width="2.0" stroke-linecap="round" />
<path d="M1138.8930521849773,436.5405405405406 L1141.2178632328303,436.5405405405406" stroke="#1a1a1a" stroke-width="2.0" stroke-linecap="round" />
<path d="M1141.2178632328303,436.5405405405406 L1141.2178632328303,431.51351351351354" stroke="#9a9a9a" stroke-width="1.5" stroke-dasharray="6,5" stroke-linecap="butt" />
<path d="M1141.2178632328303,436.5405405405406 L1141.2178632328303,441.56756756756755" stroke="#1a1a1a" stroke-width="2.0" stroke-linecap="round" />
<path d="M1141.2178632328303,431.51351351351354 L1237.7994564722621,431.51351351351354" stroke="#9a9a9a" stroke-width="1.5" stroke-dasharray="6,5" stroke-linecap="butt" />
<path d="M1141.2178632328303,441.56756756756755 L1320.0,441.56756756756755" stroke="#1a1a1a" stroke-width="2.0" stroke-linecap="round" />
<path d="M1138.8930521849773,421.4594594594595 L1320.0,421.4594594594595" stroke="#1a1a1a" stroke-width="2.0" stroke-linecap="round" />
<path d="M963.3606670641835,386.2702702702703 L1014.2152875045865,386.2702702702703" stroke="#1a1a1a" stroke-width="2.0" stroke-linecap="round" />
<path d="M1014.2152875045865,386.2702702702703 L1014.2152875045865,381.2432432432432" stroke="#9a9a9a" stroke-width="1.5" stroke-dasharray="6,5" stroke-linecap="butt" />
<path d="M1014.2152875045865,386.2702702702703 L1014.2152875045865,391.2972972972973" stroke="#1a1a1a" stroke-width="2.0" stroke-linecap="round" />
<path d="M1014.2152875045865,381.2432432432432 L1031.2831815383024,381.2432432432432" stroke="#9a9a9a" stroke-width="1.5" stroke-dasharray="6,5" stroke-linecap="butt" />
<path d="M1014.2152875045865,391.2972972972973 L1320.0,391.2972972972973" stroke="#1a1a1a" stroke-width="2.0" stroke-linecap="round" />
<path d="M836.1388585255131,337.2567567567568 L875.5362922848989,337.2567567567568" stroke="#1a1a1a" stroke-width="2.0" stroke-linecap="round" />
<path d="M875.5362922848989,337.2567567567568 L875.5362922848989,325.94594594594594" stroke="#1a1a1a" stroke-width="2.0" stroke-linecap="round" />
<path d="M875.5362922848989,337.2567567567568 L875.5362922848989,348.5675675675676" stroke="#1a1a1a" stroke-width="2.0" stroke-linecap="round" />
<path d="M875.5362922848989,325.94594594594594 L1120.531836734858,325.94594594594594" stroke="#1a1a1a" stroke-width="2.0" stroke-linecap="round" />
<path d="M1120.531836734858,325.94594594594594 L1120.531836734858,320.91891891891896" stroke="#1a1a1a" stroke-width="2.0" stroke-linecap="round" />
<path d="M1120.531836734858,325.94594594594594 L1120.531836734858,330.97297297297297" stroke="#1a1a1a" stroke-width="2.0" stroke-linecap="round" />
<path d="M1120.531836734858,320.91891891891896 L1320.0,320.91891891891896" stroke="#1a1a1a" stroke-width="2.0" stroke-linecap="round" />
<path d="M1120.531836734858,330.97297297297297 L1320.0,330.97297297297297" stroke="#1a1a1a" stroke-width="2.0" stroke-linecap="round" />
<path d="M875.5362922848989,348.5675675675676 L1201.0484299493114,348.5675675675676" stroke="#1a1a1a" stroke-width="2.0" stroke-linecap="round" />
<path d="M1201.0484299493114,348.5675675675676 L1201.0484299493114,341.02702702702703" stroke="#1a1a1a" stroke-width="2.0" stroke-linecap="round" />
<path d="M1201.0484299493114,348.5675675675676 L1201.0484299493114,356.1081081081081" stroke="#1a1a1a" stroke-width="2.0" stroke-linecap="round" />
<path d="M1201.0484299493114,341.02702702702703 L1320.0,341.02702702702703" stroke="#1a1a1a" stroke-width="2.0" stroke-linecap="round" />
<path d="M1201.0484299493114,356.1081081081081 L1260.0079767828395,356.1081081081081" stroke="#1a1a1a" stroke-width="2.0" stroke-linecap="round" />
<path d="M1260.0079767828395,356.1081081081081 L1260.0079767828395,351.0810810810811" stroke="#1a1a1a" stroke-width="2.0" stroke-linecap="round" />
<path d="M1260.0079767828395,356.1081081081081 L1260.0079767828395,361.1351351351351" stroke="#9a9a9a" stroke-width="1.5" stroke-dasharray="6,5" stroke-linecap="butt" />
<path d="M1260.0079767828395,351.0810810810811 L1320.0,351.0810810810811" stroke="#1a1a1a" stroke-width="2.0" stroke-linecap="round" />
<path d="M1260.0079767828395,361.1351351351351 L1300.8601119054022,361.1351351351351" stroke="#9a9a9a" stroke-width="1.5" stroke-dasharray="6,5" stroke-linecap="butt" />
<path d="M616.1051474808334,283.21621621621625 L631.066650117028,283.21621621621625" stroke="#1a1a1a" stroke-width="2.0" stroke-linecap="round" />
<path d="M631.066650117028,283.21621621621625 L631.066650117028,268.13513513513516" stroke="#1a1a1a" stroke-width="2.0" stroke-linecap="round" />
<path d="M631.066650117028,283.21621621621625 L631.066650117028,298.2972972972973" stroke="#1a1a1a" stroke-width="2.0" stroke-linecap="round" />
<path d="M631.066650117028,268.13513513513516 L652.4693323501742,268.13513513513516" stroke="#1a1a1a" stroke-width="2.0" stroke-linecap="round" />
<path d="M652.4693323501742,268.13513513513516 L652.4693323501742,275.6756756756757" stroke="#1a1a1a" stroke-width="2.0" stroke-linecap="round" />
<path d="M652.4693323501742,268.13513513513516 L652.4693323501742,260.5945945945946" stroke="#9a9a9a" stroke-width="1.5" stroke-dasharray="6,5" stroke-linecap="butt" />
<path d="M652.4693323501742,275.6756756756757 L701.6762204909008,275.6756756756757" stroke="#1a1a1a" stroke-width="2.0" stroke-linecap="round" />
<path d="M701.6762204909008,275.6756756756757 L701.6762204909008,270.64864864864865" stroke="#9a9a9a" stroke-width="1.5" stroke-dasharray="6,5" stroke-linecap="butt" />
<path d="M701.6762204909008,275.6756756756757 L701.6762204909008,280.7027027027027" stroke="#1a1a1a" stroke-width="2.0" stroke-linecap="round" />
<path d="M701.6762204909008,270.64864864864865 L710.0,270.64864864864865" stroke="#9a9a9a" stroke-width="1.5" stroke-dasharray="6,5" stroke-linecap="butt" />
<path d="M701.6762204909008,280.7027027027027 L1320.0,280.7027027027027" stroke="#1a1a1a" stroke-width="2.0" stroke-linecap="round" />
<path d="M652.4693323501742,260.5945945945946 L710.0,260.5945945945946" stroke="#9a9a9a" stroke-width="1.5" stroke-dasharray="6,5" stroke-linecap="butt" />
<path d="M631.066650117028,298.2972972972973 L651.1517612752716,298.2972972972973" stroke="#1a1a1a" stroke-width="2.0" stroke-linecap="round" />
<path d="M651.1517612752716,298.2972972972973 L651.1517612752716,290.7567567567568" stroke="#9a9a9a" stroke-width="1.5" stroke-dasharray="6,5" stroke-linecap="butt" />
<path d="M651.1517612752716,298.2972972972973 L651.1517612752716,305.8378378378378" stroke="#1a1a1a" stroke-width="2.0" stroke-linecap="round" />
<path d="M651.1517612752716,290.7567567567568 L710.0,290.7567567567568" stroke="#9a9a9a" stroke-width="1.5" stroke-dasharray="6,5" stroke-linecap="butt" />
<path d="M651.1517612752716,305.8378378378378 L1002.7436459182146,305.8378378378378" stroke="#1a1a1a" stroke-width="2.0" stroke-linecap="round" />
<path d="M1002.7436459182146,305.8378378378378 L1002.7436459182146,300.81081081081084" stroke="#9a9a9a" stroke-width="1.5" stroke-dasharray="6,5" stroke-linecap="butt" />
<path d="M1002.7436459182146,305.8378378378378 L1002.7436459182146,310.8648648648649" stroke="#1a1a1a" stroke-width="2.0" stroke-linecap="round" />
<path d="M1002.7436459182146,300.81081081081084 L1120.0276162840478,300.81081081081084" stroke="#9a9a9a" stroke-width="1.5" stroke-dasharray="6,5" stroke-linecap="butt" />
<path d="M1002.7436459182146,310.8648648648649 L1320.0,310.8648648648649" stroke="#1a1a1a" stroke-width="2.0" stroke-linecap="round" />
<path d="M505.6877997172688,215.35135135135135 L552.9957702198544,215.35135135135135" stroke="#9a9a9a" stroke-width="1.5" stroke-dasharray="6,5" stroke-linecap="butt" />
<path d="M552.9957702198544,215.35135135135135 L552.9957702198544,210.32432432432432" stroke="#9a9a9a" stroke-width="1.5" stroke-dasharray="6,5" stroke-linecap="butt" />
<path d="M552.9957702198544,215.35135135135135 L552.9957702198544,220.3783783783784" stroke="#9a9a9a" stroke-width="1.5" stroke-dasharray="6,5" stroke-linecap="butt" />
<path d="M552.9957702198544,210.32432432432432 L610.4356337078872,210.32432432432432" stroke="#9a9a9a" stroke-width="1.5" stroke-dasharray="6,5" stroke-linecap="butt" />
<path d="M552.9957702198544,220.3783783783784 L587.1362679915471,220.3783783783784" stroke="#9a9a9a" stroke-width="1.5" stroke-dasharray="6,5" stroke-linecap="butt" />
<path d="M448.91019467259594,178.90540540540542 L638.4881493474894,178.90540540540542" stroke="#9a9a9a" stroke-width="1.5" stroke-dasharray="6,5" stroke-linecap="butt" />
<path d="M638.4881493474894,178.90540540540542 L638.4881493474894,187.7027027027027" stroke="#9a9a9a" stroke-width="1.5" stroke-dasharray="6,5" stroke-linecap="butt" />
<path d="M638.4881493474894,178.90540540540542 L638.4881493474894,170.1081081081081" stroke="#9a9a9a" stroke-width="1.5" stroke-dasharray="6,5" stroke-linecap="butt" />
<path d="M638.4881493474894,187.7027027027027 L670.692320803776,187.7027027027027" stroke="#9a9a9a" stroke-width="1.5" stroke-dasharray="6,5" stroke-linecap="butt" />
<path d="M670.692320803776,187.7027027027027 L670.692320803776,180.16216216216216" stroke="#9a9a9a" stroke-width="1.5" stroke-dasharray="6,5" stroke-linecap="butt" />
<path d="M670.692320803776,187.7027027027027 L670.692320803776,195.24324324324323" stroke="#9a9a9a" stroke-width="1.5" stroke-dasharray="6,5" stroke-linecap="butt" />
<path d="M670.692320803776,180.16216216216216 L710.0,180.16216216216216" stroke="#9a9a9a" stroke-width="1.5" stroke-dasharray="6,5" stroke-linecap="butt" />
<path d="M670.692320803776,195.24324324324323 L708.2400351085936,195.24324324324323" stroke="#9a9a9a" stroke-width="1.5" stroke-dasharray="6,5" stroke-linecap="butt" />
<path d="M708.2400351085936,195.24324324324323 L708.2400351085936,190.21621621621622" stroke="#9a9a9a" stroke-width="1.5" stroke-dasharray="6,5" stroke-linecap="butt" />
<path d="M708.2400351085936,195.24324324324323 L708.2400351085936,200.27027027027026" stroke="#9a9a9a" stroke-width="1.5" stroke-dasharray="6,5" stroke-linecap="butt" />
<path d="M708.2400351085936,190.21621621621622 L710.0,190.21621621621622" stroke="#9a9a9a" stroke-width="1.5" stroke-dasharray="6,5" stroke-linecap="butt" />
<path d="M708.2400351085936,200.27027027027026 L710.0,200.27027027027026" stroke="#9a9a9a" stroke-width="1.5" stroke-dasharray="6,5" stroke-linecap="butt" />
<path d="M638.4881493474894,170.1081081081081 L710.0,170.1081081081081" stroke="#9a9a9a" stroke-width="1.5" stroke-dasharray="6,5" stroke-linecap="butt" />
<path d="M100.0,155.02702702702703 L657.460823755031,155.02702702702703" stroke="#9a9a9a" stroke-width="1.5" stroke-dasharray="6,5" stroke-linecap="butt" />
<path d="M657.460823755031,155.02702702702703 L657.460823755031,150.0" stroke="#9a9a9a" stroke-width="1.5" stroke-dasharray="6,5" stroke-linecap="butt" />
<path d="M657.460823755031,155.02702702702703 L657.460823755031,160.05405405405406" stroke="#9a9a9a" stroke-width="1.5" stroke-dasharray="6,5" stroke-linecap="butt" />
<path d="M657.460823755031,150.0 L710.0,150.0" stroke="#9a9a9a" stroke-width="1.5" stroke-dasharray="6,5" stroke-linecap="butt" />
<path d="M657.460823755031,160.05405405405406 L710.0,160.05405405405406" stroke="#9a9a9a" stroke-width="1.5" stroke-dasharray="6,5" stroke-linecap="butt" />
<circle cx="710.0" cy="230.43243243243245" r="3.2" fill="#1a1a1a" />
<circle cx="710.0" cy="240.48648648648648" r="3.2" fill="#1a1a1a" />
<circle cx="710.0" cy="250.54054054054055" r="3.2" fill="#1a1a1a" />
<circle cx="710.0" cy="270.64864864864865" r="3.2" fill="#1a1a1a" />
<circle cx="710.0" cy="260.5945945945946" r="3.2" fill="#1a1a1a" />
<circle cx="710.0" cy="290.7567567567568" r="3.2" fill="#1a1a1a" />
<circle cx="710.0" cy="180.16216216216216" r="3.2" fill="#1a1a1a" />
<circle cx="710.0" cy="190.21621621621622" r="3.2" fill="#1a1a1a" />
<circle cx="710.0" cy="200.27027027027026" r="3.2" fill="#1a1a1a" />
<circle cx="710.0" cy="170.1081081081081" r="3.2" fill="#1a1a1a" />
<circle cx="710.0" cy="150.0" r="3.2" fill="#1a1a1a" />
<circle cx="710.0" cy="160.05405405405406" r="3.2" fill="#1a1a1a" />
<path d="M100,700 L1320,700" stroke="#bdbdbd" stroke-width="1.2" />
<path d="M100,572 L100,700" stroke="#bdbdbd" stroke-width="1.2" />
<path d="M100.0,700.0 L101.74285714285715,687.2 L103.48571428571428,687.2 L105.22857142857143,687.2 L106.97142857142858,687.2 L108.71428571428571,687.2 L110.45714285714286,687.2 L112.2,687.2 L113.94285714285715,687.2 L115.68571428571428,687.2 L117.42857142857143,687.2 L119.17142857142858,687.2 L120.91428571428571,687.2 L122.65714285714286,687.2 L124.4,687.2 L126.14285714285714,687.2 L127.88571428571429,687.2 L129.62857142857143,687.2 L131.37142857142857,687.2 L133.1142857142857,687.2 L134.85714285714286,687.2 L136.6,687.2 L138.34285714285716,687.2 L140.0857142857143,687.2 L141.82857142857142,687.2 L143.57142857142856,687.2 L145.31428571428572,687.2 L147.05714285714288,687.2 L148.8,687.2 L150.54285714285714,687.2 L152.28571428571428,687.2 L154.0285714285714,687.2 L155.77142857142857,687.2 L157.5142857142857,687.2 L159.25714285714287,687.2 L161.0,687.2 L162.74285714285713,687.2 L164.4857142857143,687.2 L166.22857142857143,687.2 L167.9714285714286,687.2 L169.71428571428572,687.2 L171.45714285714286,687.2 L173.2,687.2 L174.94285714285715,687.2 L176.6857142857143,687.2 L178.42857142857144,687.2 L180.17142857142858,687.2 L181.9142857142857,687.2 L183.65714285714284,687.2 L185.39999999999998,687.2 L187.14285714285714,687.2 L188.8857142857143,687.2 L190.62857142857143,687.2 L192.37142857142857,687.2 L194.11428571428573,687.2 L195.85714285714286,687.2 L197.60000000000002,687.2 L199.34285714285716,687.2 L201.0857142857143,687.2 L202.82857142857142,687.2 L204.57142857142856,687.2 L206.31428571428572,687.2 L208.05714285714285,687.2 L209.8,687.2 L211.54285714285714,687.2 L213.28571428571428,687.2 L215.0285714285714,687.2 L216.7714285714286,687.2 L218.51428571428573,687.2 L220.25714285714287,687.2 L222.0,687.2 L223.74285714285713,687.2 L225.48571428571427,687.2 L227.22857142857143,687.2 L228.9714285714286,687.2 L230.7142857142857,687.2 L232.45714285714286,687.2 L234.20000000000002,687.2 L235.94285714285715,687.2 L237.68571428571428,687.2 L239.42857142857142,687.2 L241.17142857142858,687.2 L242.9142857142857,687.2 L244.65714285714287,687.2 L246.4,687.2 L248.1428571428571,687.2 L249.8857142857143,687.2 L251.62857142857143,687.2 L253.3714285714286,687.2 L255.1142857142857,687.2 L256.8571428571429,687.2 L258.6,687.2 L260.34285714285716,687.2 L262.0857142857143,687.2 L263.8285714285714,687.2 L265.57142857142856,687.2 L267.3142857142857,687.2 L269.0571428571428,687.2 L270.79999999999995,687.2 L272.54285714285714,687.2 L274.2857142857143,687.2 L276.02857142857147,687.2 L277.7714285714286,687.2 L279.51428571428573,687.2 L281.25714285714287,687.2 L283.0,687.2 L284.74285714285713,687.2 L286.48571428571427,687.2 L288.22857142857146,687.2 L289.9714285714286,687.2 L291.7142857142857,687.2 L293.4571428571428,687.2 L295.20000000000005,687.2 L296.9428571428571,687.2 L298.6857142857143,687.2 L300.42857142857144,687.2 L302.1714285714286,687.2 L303.9142857142857,687.2 L305.65714285714284,687.2 L307.4,687.2 L309.1428571428571,687.2 L310.8857142857143,687.2 L312.62857142857143,687.2 L314.37142857142857,687.2 L316.1142857142857,687.2 L317.8571428571429,687.2 L319.6,687.2 L321.34285714285716,687.2 L323.0857142857143,687.2 L324.8285714285714,687.2 L326.57142857142856,687.2 L328.3142857142857,687.2 L330.0571428571428,687.2 L331.8,687.2 L333.5428571428572,687.2 L335.28571428571433,687.2 L337.02857142857147,687.2 L338.77142857142854,687.2 L340.51428571428573,687.2 L342.25714285714287,687.2 L344.0,687.2 L345.74285714285713,687.2 L347.48571428571427,687.2 L349.2285714285714,687.2 L350.97142857142853,687.2 L352.7142857142857,687.2 L354.45714285714286,687.2 L356.20000000000005,687.2 L357.9428571428572,687.2 L359.6857142857143,687.2 L361.4285714285714,687.2 L363.1714285714285,687.2 L364.9142857142857,687.2 L366.65714285714284,687.2 L368.40000000000003,687.2 L370.14285714285717,687.2 L371.8857142857143,687.2 L373.62857142857143,687.2 L375.37142857142857,687.2 L377.1142857142857,687.2 L378.85714285714283,687.2 L380.59999999999997,687.2 L382.34285714285716,687.2 L384.0857142857143,687.2 L385.8285714285714,687.2 L387.57142857142856,687.2 L389.31428571428575,687.2 L391.0571428571429,687.2 L392.8,687.2 L394.54285714285714,687.2 L396.2857142857142,687.2 L398.02857142857147,687.2 L399.7714285714286,687.2 L401.51428571428573,687.2 L403.25714285714287,687.2 L405.0,687.2 L406.7428571428572,687.2 L408.48571428571427,687.2 L410.2285714285714,687.2 L411.97142857142853,687.2 L413.7142857142858,687.2 L415.45714285714286,687.2 L417.2,687.2 L418.9428571428572,687.2 L420.68571428571425,687.2 L422.42857142857144,687.2 L424.1714285714285,687.2 L425.9142857142857,687.2 L427.65714285714284,687.2 L429.40000000000003,687.2 L431.14285714285717,687.2 L432.8857142857143,687.2 L434.62857142857143,687.2 L436.37142857142857,687.2 L438.1142857142857,687.2 L439.8571428571429,687.2 L441.59999999999997,687.2 L443.3428571428572,687.2 L445.0857142857143,687.2 L446.8285714285715,687.2 L448.57142857142856,687.2 L450.3142857142857,680.8 L452.0571428571429,680.8 L453.79999999999995,680.8 L455.54285714285714,680.8 L457.2857142857142,680.8 L459.02857142857147,680.8 L460.77142857142854,680.8 L462.51428571428573,680.8 L464.25714285714287,680.8 L466.0,680.8 L467.74285714285713,680.8 L469.48571428571427,680.8 L471.2285714285714,680.8 L472.9714285714286,680.8 L474.7142857142857,680.8 L476.4571428571429,680.8 L478.2,680.8 L479.9428571428572,680.8 L481.68571428571425,680.8 L483.42857142857144,680.8 L485.1714285714286,680.8 L486.91428571428565,680.8 L488.65714285714284,680.8 L490.40000000000003,680.8 L492.14285714285717,680.8 L493.88571428571424,680.8 L495.62857142857143,680.8 L497.3714285714286,680.8 L499.1142857142857,680.8 L500.85714285714283,680.8 L502.59999999999997,680.8 L504.34285714285716,680.8 L506.0857142857143,674.4 L507.8285714285714,674.4 L509.5714285714286,674.4 L511.3142857142857,674.4 L513.0571428571429,674.4 L514.8,674.4 L516.5428571428572,674.4 L518.2857142857142,674.4 L520.0285714285715,674.4 L521.7714285714286,674.4 L523.5142857142857,674.4 L525.2571428571429,674.4 L527.0,674.4 L528.7428571428571,674.4 L530.4857142857143,674.4 L532.2285714285714,674.4 L533.9714285714285,674.4 L535.7142857142858,674.4 L537.4571428571429,674.4 L539.2,674.4 L540.9428571428571,674.4 L542.6857142857143,674.4 L544.4285714285713,674.4 L546.1714285714286,674.4 L547.9142857142856,674.4 L549.6571428571428,674.4 L551.4,674.4 L553.1428571428571,668.0 L554.8857142857144,668.0 L556.6285714285714,668.0 L558.3714285714286,668.0 L560.1142857142856,661.6 L561.8571428571429,661.6 L563.6,661.6 L565.3428571428572,661.6 L567.0857142857144,655.2 L568.8285714285714,655.2 L570.5714285714287,655.2 L572.3142857142857,655.2 L574.0571428571429,655.2 L575.8,655.2 L577.5428571428571,655.2 L579.2857142857142,655.2 L581.0285714285715,655.2 L582.7714285714286,655.2 L584.5142857142857,655.2 L586.2571428571429,655.2 L588.0,661.6 L589.7428571428571,661.6 L591.4857142857143,661.6 L593.2285714285714,661.6 L594.9714285714285,661.6 L596.7142857142858,661.6 L598.4571428571428,661.6 L600.2,661.6 L601.9428571428571,661.6 L603.6857142857143,661.6 L605.4285714285714,661.6 L607.1714285714286,661.6 L608.9142857142857,661.6 L610.6571428571428,668.0 L612.4000000000001,668.0 L614.1428571428571,668.0 L615.8857142857144,668.0 L617.6285714285714,661.6 L619.3714285714286,661.6 L621.1142857142858,661.6 L622.8571428571428,661.6 L624.6,661.6 L626.342857142857,661.6 L628.0857142857143,661.6 L629.8285714285714,661.6 L631.5714285714286,655.2 L633.3142857142857,655.2 L635.0571428571429,655.2 L636.8000000000001,655.2 L638.5428571428572,648.8 L640.2857142857143,648.8 L642.0285714285715,648.8 L643.7714285714286,648.8 L645.5142857142857,648.8 L647.2571428571429,648.8 L649.0,648.8 L650.7428571428571,648.8 L652.4857142857143,636.0 L654.2285714285714,636.0 L655.9714285714285,636.0 L657.7142857142857,629.6 L659.4571428571428,629.6 L661.1999999999999,629.6 L662.9428571428571,629.6 L664.6857142857143,629.6 L666.4285714285714,629.6 L668.1714285714286,629.6 L669.9142857142858,629.6 L671.6571428571428,623.2 L673.4000000000001,623.2 L675.1428571428571,623.2 L676.8857142857142,623.2 L678.6285714285715,623.2 L680.3714285714285,623.2 L682.1142857142858,623.2 L683.8571428571428,623.2 L685.6,623.2 L687.3428571428572,623.2 L689.0857142857143,623.2 L690.8285714285714,623.2 L692.5714285714284,623.2 L694.3142857142857,623.2 L696.0571428571429,623.2 L697.8000000000001,623.2 L699.5428571428572,623.2 L701.2857142857143,623.2 L703.0285714285715,616.8 L704.7714285714286,610.4 L706.5142857142857,610.4 L708.2571428571429,604.0 L710.0,604.0 L711.7428571428571,680.8 L713.4857142857144,680.8 L715.2285714285714,680.8 L716.9714285714285,680.8 L718.7142857142857,680.8 L720.4571428571428,680.8 L722.2,680.8 L723.9428571428571,680.8 L725.6857142857143,680.8 L727.4285714285716,680.8 L729.1714285714287,680.8 L730.9142857142857,680.8 L732.6571428571428,680.8 L734.4,680.8 L736.1428571428572,680.8 L737.8857142857144,680.8 L739.6285714285714,680.8 L741.3714285714285,680.8 L743.1142857142858,680.8 L744.8571428571429,680.8 L746.6,680.8 L748.342857142857,680.8 L750.0857142857142,680.8 L751.8285714285714,680.8 L753.5714285714286,680.8 L755.3142857142857,680.8 L757.0571428571429,680.8 L758.8000000000001,680.8 L760.5428571428572,680.8 L762.2857142857143,680.8 L764.0285714285714,680.8 L765.7714285714286,680.8 L767.5142857142857,680.8 L769.2571428571429,680.8 L771.0,680.8 L772.7428571428571,680.8 L774.4857142857143,680.8 L776.2285714285714,680.8 L777.9714285714285,680.8 L779.7142857142858,680.8 L781.4571428571428,680.8 L783.1999999999999,680.8 L784.9428571428571,680.8 L786.6857142857144,680.8 L788.4285714285714,680.8 L790.1714285714286,680.8 L791.9142857142857,680.8 L793.657142857143,680.8 L795.4000000000001,680.8 L797.1428571428571,680.8 L798.8857142857142,680.8 L800.6285714285714,680.8 L802.3714285714286,680.8 L804.1142857142858,680.8 L805.8571428571428,680.8 L807.5999999999999,680.8 L809.3428571428572,680.8 L811.0857142857143,680.8 L812.8285714285714,680.8 L814.5714285714284,680.8 L816.3142857142857,680.8 L818.0571428571429,680.8 L819.8000000000001,680.8 L821.5428571428571,680.8 L823.2857142857143,680.8 L825.0285714285715,680.8 L826.7714285714286,680.8 L828.5142857142857,680.8 L830.2571428571428,680.8 L832.0,680.8 L833.7428571428571,680.8 L835.4857142857143,680.8 L837.2285714285715,674.4 L838.9714285714285,674.4 L840.7142857142857,674.4 L842.4571428571428,674.4 L844.1999999999999,674.4 L845.9428571428572,674.4 L847.6857142857143,674.4 L849.4285714285714,674.4 L851.1714285714287,674.4 L852.9142857142858,674.4 L854.6571428571428,674.4 L856.4,674.4 L858.1428571428571,674.4 L859.8857142857144,674.4 L861.6285714285715,674.4 L863.3714285714285,674.4 L865.1142857142856,674.4 L866.8571428571429,674.4 L868.6,674.4 L870.3428571428572,674.4 L872.0857142857142,674.4 L873.8285714285713,674.4 L875.5714285714286,668.0 L877.3142857142857,668.0 L879.0571428571428,668.0 L880.8000000000001,668.0 L882.5428571428572,668.0 L884.2857142857143,668.0 L886.0285714285715,668.0 L887.7714285714285,668.0 L889.5142857142857,668.0 L891.2571428571429,668.0 L893.0,668.0 L894.7428571428572,661.6 L896.4857142857143,661.6 L898.2285714285714,661.6 L899.9714285714285,661.6 L901.7142857142857,661.6 L903.4571428571429,661.6 L905.1999999999999,661.6 L906.9428571428571,661.6 L908.6857142857143,661.6 L910.4285714285716,661.6 L912.1714285714286,661.6 L913.9142857142857,661.6 L915.6571428571428,661.6 L917.4000000000001,661.6 L919.1428571428572,661.6 L920.8857142857142,661.6 L922.6285714285714,661.6 L924.3714285714286,661.6 L926.1142857142858,661.6 L927.8571428571429,661.6 L929.5999999999999,661.6 L931.342857142857,661.6 L933.0857142857143,661.6 L934.8285714285714,661.6 L936.5714285714286,661.6 L938.3142857142856,661.6 L940.0571428571429,661.6 L941.8000000000001,661.6 L943.5428571428572,661.6 L945.2857142857142,661.6 L947.0285714285715,661.6 L948.7714285714286,661.6 L950.5142857142857,661.6 L952.2571428571429,661.6 L954.0,661.6 L955.7428571428571,661.6 L957.4857142857143,661.6 L959.2285714285714,661.6 L960.9714285714286,661.6 L962.7142857142857,661.6 L964.4571428571428,655.2 L966.1999999999999,655.2 L967.9428571428571,655.2 L969.6857142857143,655.2 L971.4285714285714,655.2 L973.1714285714286,655.2 L974.9142857142858,655.2 L976.657142857143,655.2 L978.4,655.2 L980.1428571428571,655.2 L981.8857142857142,655.2 L983.6285714285715,655.2 L985.3714285714286,655.2 L987.1142857142856,655.2 L988.8571428571428,655.2 L990.6,648.8 L992.3428571428572,648.8 L994.0857142857143,648.8 L995.8285714285713,648.8 L997.5714285714284,648.8 L999.3142857142857,648.8 L1001.0571428571429,648.8 L1002.8,642.4 L1004.5428571428572,642.4 L1006.2857142857143,642.4 L1008.0285714285715,642.4 L1009.7714285714286,636.0 L1011.5142857142856,636.0 L1013.2571428571429,636.0 L1015.0,629.6 L1016.7428571428571,629.6 L1018.4857142857144,623.2 L1020.2285714285714,623.2 L1021.9714285714285,623.2 L1023.7142857142857,623.2 L1025.4571428571428,623.2 L1027.2,623.2 L1028.942857142857,623.2 L1030.6857142857143,623.2 L1032.4285714285716,629.6 L1034.1714285714288,629.6 L1035.9142857142856,629.6 L1037.6571428571428,629.6 L1039.4,629.6 L1041.1428571428573,629.6 L1042.8857142857144,629.6 L1044.6285714285714,629.6 L1046.3714285714286,629.6 L1048.1142857142859,629.6 L1049.857142857143,629.6 L1051.6,629.6 L1053.3428571428572,629.6 L1055.0857142857142,629.6 L1056.8285714285714,629.6 L1058.5714285714284,629.6 L1060.3142857142857,629.6 L1062.057142857143,629.6 L1063.8000000000002,629.6 L1065.5428571428572,629.6 L1067.2857142857142,629.6 L1069.0285714285715,629.6 L1070.7714285714287,629.6 L1072.5142857142857,629.6 L1074.2571428571428,629.6 L1076.0,629.6 L1077.7428571428572,629.6 L1079.4857142857143,629.6 L1081.2285714285713,629.6 L1082.9714285714285,629.6 L1084.7142857142858,629.6 L1086.4571428571428,629.6 L1088.1999999999998,629.6 L1089.942857142857,629.6 L1091.6857142857143,629.6 L1093.4285714285716,629.6 L1095.1714285714284,629.6 L1096.9142857142856,629.6 L1098.6571428571428,629.6 L1100.4,629.6 L1102.142857142857,629.6 L1103.8857142857141,629.6 L1105.6285714285714,629.6 L1107.3714285714286,629.6 L1109.1142857142859,629.6 L1110.857142857143,629.6 L1112.6000000000001,629.6 L1114.3428571428572,629.6 L1116.0857142857144,629.6 L1117.8285714285714,629.6 L1119.5714285714284,629.6 L1121.3142857142857,629.6 L1123.057142857143,629.6 L1124.8000000000002,629.6 L1126.5428571428572,629.6 L1128.2857142857142,629.6 L1130.0285714285715,629.6 L1131.7714285714287,629.6 L1133.5142857142857,629.6 L1135.2571428571428,629.6 L1137.0,629.6 L1138.7428571428572,629.6 L1140.4857142857143,623.2 L1142.2285714285715,616.8 L1143.9714285714285,616.8 L1145.7142857142856,616.8 L1147.4571428571428,616.8 L1149.2,616.8 L1150.942857142857,616.8 L1152.685714285714,616.8 L1154.4285714285713,616.8 L1156.1714285714286,616.8 L1157.9142857142856,616.8 L1159.6571428571428,616.8 L1161.3999999999999,616.8 L1163.142857142857,616.8 L1164.8857142857141,616.8 L1166.6285714285714,616.8 L1168.3714285714286,616.8 L1170.1142857142859,616.8 L1171.857142857143,616.8 L1173.6000000000001,616.8 L1175.3428571428572,616.8 L1177.0857142857144,616.8 L1178.8285714285714,616.8 L1180.5714285714287,616.8 L1182.314285714286,616.8 L1184.057142857143,616.8 L1185.8,616.8 L1187.5428571428572,616.8 L1189.2857142857144,610.4 L1191.0285714285715,610.4 L1192.7714285714285,610.4 L1194.5142857142857,610.4 L1196.2571428571428,610.4 L1198.0,610.4 L1199.7428571428572,610.4 L1201.4857142857143,604.0 L1203.2285714285713,604.0 L1204.9714285714285,604.0 L1206.7142857142858,604.0 L1208.4571428571428,604.0 L1210.1999999999998,597.6 L1211.942857142857,597.6 L1213.6857142857143,591.2 L1215.4285714285713,591.2 L1217.1714285714286,591.2 L1218.9142857142856,591.2 L1220.6571428571428,591.2 L1222.3999999999999,591.2 L1224.142857142857,591.2 L1225.8857142857141,591.2 L1227.6285714285714,591.2 L1229.3714285714286,591.2 L1231.1142857142859,591.2 L1232.857142857143,591.2 L1234.6000000000001,591.2 L1236.3428571428572,591.2 L1238.0857142857144,597.6 L1239.8285714285716,597.6 L1241.5714285714287,597.6 L1243.3142857142857,597.6 L1245.057142857143,597.6 L1246.8000000000002,597.6 L1248.5428571428572,597.6 L1250.2857142857142,597.6 L1252.0285714285715,597.6 L1253.7714285714285,591.2 L1255.5142857142857,591.2 L1257.257142857143,591.2 L1259.0,591.2 L1260.742857142857,584.8 L1262.4857142857143,584.8 L1264.2285714285715,584.8 L1265.9714285714285,584.8 L1267.7142857142856,584.8 L1269.4571428571428,584.8 L1271.2,584.8 L1272.942857142857,584.8 L1274.6857142857143,584.8 L1276.4285714285713,584.8 L1278.1714285714286,584.8 L1279.9142857142856,584.8 L1281.6571428571428,584.8 L1283.3999999999999,584.8 L1285.1428571428569,578.4 L1286.8857142857141,578.4 L1288.6285714285714,578.4 L1290.3714285714286,578.4 L1292.1142857142859,578.4 L1293.857142857143,578.4 L1295.6000000000001,578.4 L1297.3428571428574,572.0 L1299.0857142857144,572.0 L1300.8285714285714,572.0 L1302.5714285714287,572.0 L1304.3142857142857,572.0 L1306.057142857143,572.0 L1307.8,572.0 L1309.5428571428572,572.0 L1311.2857142857142,572.0 L1313.0285714285715,572.0 L1314.7714285714287,572.0 L1316.5142857142857,572.0 L1318.2571428571428,572.0 L1320.0,572.0" fill="none" stroke="#1a1a1a" stroke-width="2.8" stroke-linejoin="round" />
<text x="90" y="700.0" font-size="18" font-family="Helvetica" text-anchor="end" dominant-baseline="central" fill="#555">0</text>
<text x="90" y="572.0" font-size="18" font-family="Helvetica" text-anchor="end" dominant-baseline="central" fill="#555">20</text>
<text x="60" y="636.0" font-size="22" font-family="Helvetica" text-anchor="middle" fill="#555" transform="rotate(-90 60 636.0)">lineages</text>
<text x="726.0" y="594" font-size="20" font-family="Helvetica" text-anchor="start" fill="#555" font-style="italic">crash, then recovery</text>
<path d="M100.0,700 L100.0,706" stroke="#1a1a1a" stroke-width="1.2" />
<text x="100.0" y="724" font-size="18" font-family="Helvetica" text-anchor="middle" fill="#555">0</text>
<path d="M344.0,700 L344.0,706" stroke="#1a1a1a" stroke-width="1.2" />
<text x="344.0" y="724" font-size="18" font-family="Helvetica" text-anchor="middle" fill="#555">1</text>
<path d="M588.0,700 L588.0,706" stroke="#1a1a1a" stroke-width="1.2" />
<text x="588.0" y="724" font-size="18" font-family="Helvetica" text-anchor="middle" fill="#555">2</text>
<path d="M832.0,700 L832.0,706" stroke="#1a1a1a" stroke-width="1.2" />
<text x="832.0" y="724" font-size="18" font-family="Helvetica" text-anchor="middle" fill="#555">3</text>
<path d="M1076.0,700 L1076.0,706" stroke="#1a1a1a" stroke-width="1.2" />
<text x="1076.0" y="724" font-size="18" font-family="Helvetica" text-anchor="middle" fill="#555">4</text>
<path d="M1320.0,700 L1320.0,706" stroke="#1a1a1a" stroke-width="1.2" />
<text x="1320.0" y="724" font-size="18" font-family="Helvetica" text-anchor="middle" fill="#555">5</text>
<text x="710.0" y="752" font-size="22" font-family="Helvetica" text-anchor="middle" fill="#555">time (root to present)</text>
</svg>