<?xml version="1.0" encoding="UTF-8"?>
<svg xmlns="http://www.w3.org/2000/svg" xmlns:xlink="http://www.w3.org/1999/xlink"
     width="1460" height="620" viewBox="0 0 1460 620">
<defs>
</defs>
<rect x="0" y="0" width="1460" height="620" fill="white" />
<text x="730.0" y="46" font-size="32" font-family="Helvetica" text-anchor="middle" font-weight="bold" fill="#1a1a1a">A DEC history on a tree</text>
<path d="M150.0,229.140625 L757.9624694107672,229.140625" stroke="#1a1a1a" stroke-width="2.4" />
<path d="M150.0,498.75 L481.49683662181246,498.75" stroke="#1a1a1a" stroke-width="2.4" />
<path d="M757.9624694107672,180.0 L1250.0,180.0" stroke="#1a1a1a" stroke-width="2.4" />
<path d="M757.9624694107672,278.28125 L866.0045344089511,278.28125" stroke="#1a1a1a" stroke-width="2.4" />
<path d="M481.49683662181246,477.5 L1250.0,477.5" stroke="#1a1a1a" stroke-width="2.4" />
<path d="M481.49683662181246,520.0 L1250.0,520.0" stroke="#1a1a1a" stroke-width="2.4" />
<path d="M866.0045344089511,222.5 L1250.0,222.5" stroke="#1a1a1a" stroke-width="2.4" />
<path d="M866.0045344089511,334.0625 L910.5388742044037,334.0625" stroke="#1a1a1a" stroke-width="2.4" />
<path d="M910.5388742044037,286.25 L1192.3643164378495,286.25" stroke="#1a1a1a" stroke-width="2.4" />
<path d="M910.5388742044037,381.875 L1080.3081067693256,381.875" stroke="#1a1a1a" stroke-width="2.4" />
<path d="M1192.3643164378495,265.0 L1250.0,265.0" stroke="#1a1a1a" stroke-width="2.4" />
<path d="M1192.3643164378495,307.5 L1250.0,307.5" stroke="#1a1a1a" stroke-width="2.4" />
<path d="M1080.3081067693256,350.0 L1250.0,350.0" stroke="#1a1a1a" stroke-width="2.4" />
<path d="M1080.3081067693256,413.75 L1186.442432753381,413.75" stroke="#1a1a1a" stroke-width="2.4" />
<path d="M1186.442432753381,392.5 L1250.0,392.5" stroke="#1a1a1a" stroke-width="2.4" />
<path d="M1186.442432753381,435.0 L1250.0,435.0" stroke="#1a1a1a" stroke-width="2.4" />
<path d="M1192.3643164378495,265.0 L1192.3643164378495,307.5" stroke="#1a1a1a" stroke-width="2.4" />
<path d="M1186.442432753381,392.5 L1186.442432753381,435.0" stroke="#1a1a1a" stroke-width="2.4" />
<path d="M1080.3081067693256,350.0 L1080.3081067693256,413.75" stroke="#1a1a1a" stroke-width="2.4" />
<path d="M910.5388742044037,286.25 L910.5388742044037,381.875" stroke="#1a1a1a" stroke-width="2.4" />
<path d="M866.0045344089511,222.5 L866.0045344089511,334.0625" stroke="#1a1a1a" stroke-width="2.4" />
<path d="M757.9624694107672,180.0 L757.9624694107672,278.28125" stroke="#1a1a1a" stroke-width="2.4" />
<path d="M481.49683662181246,477.5 L481.49683662181246,520.0" stroke="#1a1a1a" stroke-width="2.4" />
<path d="M150.0,229.140625 L150.0,498.75" stroke="#1a1a1a" stroke-width="2.4" />
<path d="M331.18727891725433,221.140625 L324.18727891725433,234.140625 L338.18727891725433,234.140625 Z" fill="#2f8f4e" stroke="#1a1a1a" stroke-width="0.8" />
<path d="M430.9604247706925,221.140625 L423.9604247706925,234.140625 L437.9604247706925,234.140625 Z" fill="#2f8f4e" stroke="#1a1a1a" stroke-width="0.8" />
<path d="M529.876646724416,223.140625 L541.876646724416,235.140625" stroke="#cc4b3c" stroke-width="2.6" />
<path d="M529.876646724416,235.140625 L541.876646724416,223.140625" stroke="#cc4b3c" stroke-width="2.6" />
<path d="M751.0072567609324,223.140625 L763.0072567609324,235.140625" stroke="#cc4b3c" stroke-width="2.6" />
<path d="M751.0072567609324,235.140625 L763.0072567609324,223.140625" stroke="#cc4b3c" stroke-width="2.6" />
<path d="M795.5314963076731,172.0 L788.5314963076731,185.0 L802.5314963076731,185.0 Z" fill="#2f8f4e" stroke="#1a1a1a" stroke-width="0.8" />
<path d="M1034.4892153415592,278.25 L1027.4892153415592,291.25 L1041.4892153415592,291.25 Z" fill="#2f8f4e" stroke="#1a1a1a" stroke-width="0.8" />
<path d="M873.2846992217367,469.5 L866.2846992217367,482.5 L880.2846992217367,482.5 Z" fill="#2f8f4e" stroke="#1a1a1a" stroke-width="0.8" />
<path d="M887.4954758123904,469.5 L880.4954758123904,482.5 L894.4954758123904,482.5 Z" fill="#2f8f4e" stroke="#1a1a1a" stroke-width="0.8" />
<path d="M723.8528784345359,512.0 L716.8528784345359,525.0 L730.8528784345359,525.0 Z" fill="#2f8f4e" stroke="#1a1a1a" stroke-width="0.8" />
<path d="M899.1006280822817,512.0 L892.1006280822817,525.0 L906.1006280822817,525.0 Z" fill="#2f8f4e" stroke="#1a1a1a" stroke-width="0.8" />
<rect x="92.0" y="351.9453125" width="24" height="24" fill="#4477AA" stroke="#1a1a1a" stroke-width="1.2" />
<text x="104.0" y="368.7053125" font-size="14" font-family="Helvetica" text-anchor="middle" font-weight="bold" fill="white">A</text>
<rect x="1286.0" y="168.0" width="24" height="24" fill="#EE6677" stroke="#1a1a1a" stroke-width="1.2" />
<text x="1298.0" y="184.76" font-size="14" font-family="Helvetica" text-anchor="middle" font-weight="bold" fill="white">B</text>
<rect x="1310.0" y="168.0" width="24" height="24" fill="#228833" stroke="#1a1a1a" stroke-width="1.2" />
<text x="1322.0" y="184.76" font-size="14" font-family="Helvetica" text-anchor="middle" font-weight="bold" fill="white">C</text>
<rect x="1298.0" y="210.5" width="24" height="24" fill="#228833" stroke="#1a1a1a" stroke-width="1.2" />
<text x="1310.0" y="227.26" font-size="14" font-family="Helvetica" text-anchor="middle" font-weight="bold" fill="white">C</text>
<rect x="1298.0" y="253.0" width="24" height="24" fill="#EE6677" stroke="#1a1a1a" stroke-width="1.2" />
<text x="1310.0" y="269.76" font-size="14" font-family="Helvetica" text-anchor="middle" font-weight="bold" fill="white">B</text>
<rect x="1298.0" y="295.5" width="24" height="24" fill="#228833" stroke="#1a1a1a" stroke-width="1.2" />
<text x="1310.0" y="312.26" font-size="14" font-family="Helvetica" text-anchor="middle" font-weight="bold" fill="white">C</text>
<rect x="1298.0" y="338.0" width="24" height="24" fill="#228833" stroke="#1a1a1a" stroke-width="1.2" />
<text x="1310.0" y="354.76" font-size="14" font-family="Helvetica" text-anchor="middle" font-weight="bold" fill="white">C</text>
<rect x="1298.0" y="380.5" width="24" height="24" fill="#228833" stroke="#1a1a1a" stroke-width="1.2" />
<text x="1310.0" y="397.26" font-size="14" font-family="Helvetica" text-anchor="middle" font-weight="bold" fill="white">C</text>
<rect x="1298.0" y="423.0" width="24" height="24" fill="#228833" stroke="#1a1a1a" stroke-width="1.2" />
<text x="1310.0" y="439.76" font-size="14" font-family="Helvetica" text-anchor="middle" font-weight="bold" fill="white">C</text>
<rect x="1274.0" y="465.5" width="24" height="24" fill="#4477AA" stroke="#1a1a1a" stroke-width="1.2" />
<text x="1286.0" y="482.26" font-size="14" font-family="Helvetica" text-anchor="middle" font-weight="bold" fill="white">A</text>
<rect x="1298.0" y="465.5" width="24" height="24" fill="#EE6677" stroke="#1a1a1a" stroke-width="1.2" />
<text x="1310.0" y="482.26" font-size="14" font-family="Helvetica" text-anchor="middle" font-weight="bold" fill="white">B</text>
<rect x="1322.0" y="465.5" width="24" height="24" fill="#228833" stroke="#1a1a1a" stroke-width="1.2" />
<text x="1334.0" y="482.26" font-size="14" font-family="Helvetica" text-anchor="middle" font-weight="bold" fill="white">C</text>
<rect x="1274.0" y="508.0" width="24" height="24" fill="#4477AA" stroke="#1a1a1a" stroke-width="1.2" />
<text x="1286.0" y="524.76" font-size="14" font-family="Helvetica" text-anchor="middle" font-weight="bold" fill="white">A</text>
<rect x="1298.0" y="508.0" width="24" height="24" fill="#EE6677" stroke="#1a1a1a" stroke-width="1.2" />
<text x="1310.0" y="524.76" font-size="14" font-family="Helvetica" text-anchor="middle" font-weight="bold" fill="white">B</text>
<rect x="1322.0" y="508.0" width="24" height="24" fill="#228833" stroke="#1a1a1a" stroke-width="1.2" />
<text x="1334.0" y="524.76" font-size="14" font-family="Helvetica" text-anchor="middle" font-weight="bold" fill="white">C</text>
<path d="M150.0,556 L1250.0,556" stroke="#1a1a1a" stroke-width="1.6" />
<path d="M150.0,556 L150.0,562" stroke="#1a1a1a" stroke-width="1.6" />
<text x="150.0" y="578" font-size="22" font-family="Helvetica" text-anchor="middle" fill="#1a1a1a">0.00</text>
<path d="M425.0,556 L425.0,562" stroke="#1a1a1a" stroke-width="1.6" />
<text x="425.0" y="578" font-size="22" font-family="Helvetica" text-anchor="middle" fill="#1a1a1a">0.25</text>
<path d="M700.0,556 L700.0,562" stroke="#1a1a1a" stroke-width="1.6" />
<text x="700.0" y="578" font-size="22" font-family="Helvetica" text-anchor="middle" fill="#1a1a1a">0.50</text>
<path d="M975.0,556 L975.0,562" stroke="#1a1a1a" stroke-width="1.6" />
<text x="975.0" y="578" font-size="22" font-family="Helvetica" text-anchor="middle" fill="#1a1a1a">0.75</text>
<path d="M1250.0,556 L1250.0,562" stroke="#1a1a1a" stroke-width="1.6" />
<text x="1250.0" y="578" font-size="22" font-family="Helvetica" text-anchor="middle" fill="#1a1a1a">1.00</text>
<text x="700.0" y="600" font-size="22" font-family="Helvetica" text-anchor="middle" fill="#8a8a8a">time (root to present)</text>
<rect x="60" y="83" width="18" height="18" fill="#4477AA" stroke="#1a1a1a" stroke-width="1.1" />
<text x="69" y="96.76" font-size="14" font-family="Helvetica" text-anchor="middle" font-weight="bold" fill="white">A</text>
<rect x="126" y="83" width="18" height="18" fill="#EE6677" stroke="#1a1a1a" stroke-width="1.1" />
<text x="135" y="96.76" font-size="14" font-family="Helvetica" text-anchor="middle" font-weight="bold" fill="white">B</text>
<rect x="192" y="83" width="18" height="18" fill="#228833" stroke="#1a1a1a" stroke-width="1.1" />
<text x="201" y="96.76" font-size="14" font-family="Helvetica" text-anchor="middle" font-weight="bold" fill="white">C</text>
<path d="M290,84 L283,97 L297,97 Z" fill="#2f8f4e" stroke="#1a1a1a" stroke-width="0.8" />
<text x="306" y="92" font-size="22" font-family="Helvetica" text-anchor="start" dominant-baseline="central" fill="#1a1a1a">dispersal (gain)</text>
<path d="M484,86 L496,98" stroke="#cc4b3c" stroke-width="2.6" />
<path d="M484,98 L496,86" stroke="#cc4b3c" stroke-width="2.6" />
<text x="506" y="92" font-size="22" font-family="Helvetica" text-anchor="start" dominant-baseline="central" fill="#1a1a1a">extinction (loss)</text>
</svg>