<svg xmlns="http://www.w3.org/2000/svg" xmlns:xlink="http://www.w3.org/1999/xlink" width="1800" height="1030" viewBox="0 0 1800 1030">
<rect x="0" y="0" width="1800" height="1030" fill="white" />
<svg x="0" y="0" xmlns="http://www.w3.org/2000/svg" xmlns:xlink="http://www.w3.org/1999/xlink"
     width="900" height="900" viewBox="-450.0 -450.0 900 900">
<defs>
</defs>
<rect x="-450.0" y="-450.0" width="900" height="900" fill="white" />
<path d="M-318.0,-318.0 L-313.2956052817579,-318.0" stroke="#1a1a1a" stroke-width="2.6" stroke-dasharray="6,5" stroke-linecap="butt" />
<path d="M-160.7933284826686,-227.14285714285714 L318.0,-227.14285714285714" stroke="#1a1a1a" stroke-width="2.6" stroke-linecap="round" />
<path d="M-160.7933284826686,-136.28571428571428 L318.0,-136.28571428571428" stroke="#1a1a1a" stroke-width="2.6" stroke-linecap="round" />
<path d="M-188.72223971110412,-181.71428571428572 L-160.7933284826686,-181.71428571428572" stroke="#1a1a1a" stroke-width="2.6" stroke-linecap="round" />
<path d="M-160.7933284826686,-181.71428571428572 L-160.7933284826686,-227.14285714285714" stroke="#1a1a1a" stroke-width="2.6" stroke-linecap="round" />
<path d="M-160.7933284826686,-181.71428571428572 L-160.7933284826686,-136.28571428571428" stroke="#1a1a1a" stroke-width="2.6" stroke-linecap="round" />
<path d="M285.067742372903,-45.428571428571445 L317.99980920007636,-45.428571428571445" stroke="#1a1a1a" stroke-width="2.6" stroke-linecap="round" />
<path d="M285.067742372903,45.428571428571445 L317.99980920007636,45.428571428571445" stroke="#1a1a1a" stroke-width="2.6" stroke-linecap="round" />
<path d="M270.0339167864332,0.0 L285.067742372903,0.0" stroke="#1a1a1a" stroke-width="2.6" stroke-linecap="round" />
<path d="M285.067742372903,0.0 L285.067742372903,-45.428571428571445" stroke="#1a1a1a" stroke-width="2.6" stroke-linecap="round" />
<path d="M285.067742372903,0.0 L285.067742372903,45.428571428571445" stroke="#1a1a1a" stroke-width="2.6" stroke-linecap="round" />
<path d="M270.0339167864332,136.28571428571433 L317.99980920007636,136.28571428571433" stroke="#1a1a1a" stroke-width="2.6" stroke-linecap="round" />
<path d="M47.72592970962813,68.14285714285717 L270.0339167864332,68.14285714285717" stroke="#1a1a1a" stroke-width="2.6" stroke-linecap="round" />
<path d="M270.0339167864332,68.14285714285717 L270.0339167864332,0.0" stroke="#1a1a1a" stroke-width="2.6" stroke-linecap="round" />
<path d="M270.0339167864332,68.14285714285717 L270.0339167864332,136.28571428571433" stroke="#1a1a1a" stroke-width="2.6" stroke-linecap="round" />
<path d="M177.6333297466681,227.1428571428571 L317.99974560010173,227.1428571428571" stroke="#1a1a1a" stroke-width="2.6" stroke-linecap="round" />
<path d="M177.6333297466681,318.0 L317.99974560010173,318.0" stroke="#1a1a1a" stroke-width="2.6" stroke-linecap="round" />
<path d="M47.72592970962813,272.57142857142856 L177.6333297466681,272.57142857142856" stroke="#1a1a1a" stroke-width="2.6" stroke-linecap="round" />
<path d="M177.6333297466681,272.57142857142856 L177.6333297466681,227.1428571428571" stroke="#1a1a1a" stroke-width="2.6" stroke-linecap="round" />
<path d="M177.6333297466681,272.57142857142856 L177.6333297466681,318.0" stroke="#1a1a1a" stroke-width="2.6" stroke-linecap="round" />
<path d="M-188.72223971110412,170.35714285714286 L47.72592970962813,170.35714285714286" stroke="#1a1a1a" stroke-width="2.6" stroke-linecap="round" />
<path d="M47.72592970962813,170.35714285714286 L47.72592970962813,68.14285714285717" stroke="#1a1a1a" stroke-width="2.6" stroke-linecap="round" />
<path d="M47.72592970962813,170.35714285714286 L47.72592970962813,272.57142857142856" stroke="#1a1a1a" stroke-width="2.6" stroke-linecap="round" />
<path d="M-318.0,-5.678571428571431 L-188.72223971110412,-5.678571428571431" stroke="#1a1a1a" stroke-width="2.6" stroke-linecap="round" />
<path d="M-188.72223971110412,-5.678571428571431 L-188.72223971110412,-181.71428571428572" stroke="#1a1a1a" stroke-width="2.6" stroke-linecap="round" />
<path d="M-188.72223971110412,-5.678571428571431 L-188.72223971110412,170.35714285714286" stroke="#1a1a1a" stroke-width="2.6" stroke-linecap="round" />
<path d="M-332.0,-161.83928571428572 L-318.0,-161.83928571428572" stroke="#1a1a1a" stroke-width="2.6" stroke-linecap="round" />
<path d="M-318.0,-161.83928571428572 L-318.0,-318.0" stroke="#1a1a1a" stroke-width="2.6" stroke-dasharray="6,5" stroke-linecap="butt" />
<path d="M-318.0,-161.83928571428572 L-318.0,-5.678571428571431" stroke="#1a1a1a" stroke-width="2.6" stroke-linecap="round" />
<text x="-299.2956052817579" y="-318.0" font-size="30" fill="#1a1a1a" font-family="Helvetica" transform="" text-anchor="start" dominant-baseline="middle"></text>
<text x="332.0" y="-227.14285714285714" font-size="30" fill="#1a1a1a" font-family="Helvetica" transform="" text-anchor="start" dominant-baseline="middle">F_1</text>
<text x="332.0" y="-136.28571428571428" font-size="30" fill="#1a1a1a" font-family="Helvetica" transform="" text-anchor="start" dominant-baseline="middle">F_2</text>
<text x="331.99980920007636" y="-45.428571428571445" font-size="30" fill="#1a1a1a" font-family="Helvetica" transform="" text-anchor="start" dominant-baseline="middle">G_1</text>
<text x="331.99980920007636" y="45.428571428571445" font-size="30" fill="#1a1a1a" font-family="Helvetica" transform="" text-anchor="start" dominant-baseline="middle">H_1</text>
<text x="331.99980920007636" y="136.28571428571433" font-size="30" fill="#1a1a1a" font-family="Helvetica" transform="" text-anchor="start" dominant-baseline="middle">J_1</text>
<text x="331.99974560010173" y="227.1428571428571" font-size="30" fill="#1a1a1a" font-family="Helvetica" transform="" text-anchor="start" dominant-baseline="middle">I_1</text>
<text x="331.99974560010173" y="318.0" font-size="30" fill="#1a1a1a" font-family="Helvetica" transform="" text-anchor="start" dominant-baseline="middle">J_2</text>
<rect x="-173.7933284826686" y="-194.71428571428572" width="26.0" height="26.0" fill="#1a1a1a" opacity="1.0" />
<path d="M270.0339167864332,53.1317501439269 L257.0339167864332,75.6484106423223 L283.0339167864332,75.6484106423223 Z" fill="#1a1a1a" opacity="1.0" />
<text x="240.03391678643322" y="34.071428571428584" font-size="23" fill="#8a8a8a" font-weight="normal" font-family="Helvetica" text-anchor="end" dominant-baseline="middle">donor-kept copy</text>
<text x="240.03391678643322" y="102.21428571428575" font-size="23" fill="#8a8a8a" font-weight="normal" font-family="Helvetica" text-anchor="end" dominant-baseline="middle">transferred copy</text>
<path d="M-326.2956052817579,-331.0 L-300.2956052817579,-305.0" stroke="#1a1a1a" stroke-width="4.0" stroke-linecap="round" />
<path d="M-326.2956052817579,-305.0 L-300.2956052817579,-331.0" stroke="#1a1a1a" stroke-width="4.0" stroke-linecap="round" />
<path d="M-332.0,334.0 L317.99974560010173,334.0" stroke="black" stroke-width="1.8" />
<path d="M-318.0,334.0 L-318.0,342.0" stroke="black" stroke-width="1.8" />
<text x="-318.0" y="372.0" font-size="30" text-anchor="middle" font-family="Helvetica">0.0</text>
<path d="M-0.00012719994913368282,334.0 L-0.00012719994913368282,342.0" stroke="black" stroke-width="1.8" />
<text x="-0.00012719994913368282" y="372.0" font-size="30" text-anchor="middle" font-family="Helvetica">0.5</text>
<path d="M317.99974560010173,334.0 L317.99974560010173,342.0" stroke="black" stroke-width="1.8" />
<text x="317.99974560010173" y="372.0" font-size="30" text-anchor="middle" font-family="Helvetica">1.0</text>
<text x="-7.000127199949134" y="417.0" font-size="30" text-anchor="middle" font-family="Helvetica">Time (root to present)</text>
<text x="-424.0" y="-392.0" font-size="46" fill="#1a1a1a" font-weight="bold" font-family="Helvetica" text-anchor="start" dominant-baseline="middle">A</text>
<text x="-360.0" y="-392.0" font-size="40" fill="#1a1a1a" font-weight="normal" font-family="Helvetica" text-anchor="start" dominant-baseline="middle">Complete gene tree</text>
</svg>
<svg x="900" y="0" xmlns="http://www.w3.org/2000/svg" xmlns:xlink="http://www.w3.org/1999/xlink"
     width="900" height="900" viewBox="-450.0 -450.0 900 900">
<defs>
</defs>
<rect x="-450.0" y="-450.0" width="900" height="900" fill="white" />
<path d="M-160.7933284826686,-318.0 L318.0,-318.0" stroke="#1a1a1a" stroke-width="2.6" stroke-linecap="round" />
<path d="M-160.7933284826686,-212.0 L318.0,-212.0" stroke="#1a1a1a" stroke-width="2.6" stroke-linecap="round" />
<path d="M-188.72223971110412,-265.0 L-160.7933284826686,-265.0" stroke="#1a1a1a" stroke-width="2.6" stroke-linecap="round" />
<path d="M-160.7933284826686,-265.0 L-160.7933284826686,-318.0" stroke="#1a1a1a" stroke-width="2.6" stroke-linecap="round" />
<path d="M-160.7933284826686,-265.0 L-160.7933284826686,-212.0" stroke="#1a1a1a" stroke-width="2.6" stroke-linecap="round" />
<path d="M285.067742372903,-106.0 L317.99980920007636,-106.0" stroke="#1a1a1a" stroke-width="2.6" stroke-linecap="round" />
<path d="M285.067742372903,0.0 L317.99980920007636,0.0" stroke="#1a1a1a" stroke-width="2.6" stroke-linecap="round" />
<path d="M270.0339167864332,-53.0 L285.067742372903,-53.0" stroke="#1a1a1a" stroke-width="2.6" stroke-linecap="round" />
<path d="M285.067742372903,-53.0 L285.067742372903,-106.0" stroke="#1a1a1a" stroke-width="2.6" stroke-linecap="round" />
<path d="M285.067742372903,-53.0 L285.067742372903,0.0" stroke="#1a1a1a" stroke-width="2.6" stroke-linecap="round" />
<path d="M270.0339167864332,106.0 L317.99980920007636,106.0" stroke="#1a1a1a" stroke-width="2.6" stroke-linecap="round" />
<path d="M47.72592970962813,26.5 L270.0339167864332,26.5" stroke="#1a1a1a" stroke-width="2.6" stroke-linecap="round" />
<path d="M270.0339167864332,26.5 L270.0339167864332,-53.0" stroke="#1a1a1a" stroke-width="2.6" stroke-linecap="round" />
<path d="M270.0339167864332,26.5 L270.0339167864332,106.0" stroke="#1a1a1a" stroke-width="2.6" stroke-linecap="round" />
<path d="M177.6333297466681,212.0 L317.99974560010173,212.0" stroke="#1a1a1a" stroke-width="2.6" stroke-linecap="round" />
<path d="M177.6333297466681,318.0 L317.99974560010173,318.0" stroke="#1a1a1a" stroke-width="2.6" stroke-linecap="round" />
<path d="M47.72592970962813,265.0 L177.6333297466681,265.0" stroke="#1a1a1a" stroke-width="2.6" stroke-linecap="round" />
<path d="M177.6333297466681,265.0 L177.6333297466681,212.0" stroke="#1a1a1a" stroke-width="2.6" stroke-linecap="round" />
<path d="M177.6333297466681,265.0 L177.6333297466681,318.0" stroke="#1a1a1a" stroke-width="2.6" stroke-linecap="round" />
<path d="M-188.72223971110412,145.75 L47.72592970962813,145.75" stroke="#1a1a1a" stroke-width="2.6" stroke-linecap="round" />
<path d="M47.72592970962813,145.75 L47.72592970962813,26.5" stroke="#1a1a1a" stroke-width="2.6" stroke-linecap="round" />
<path d="M47.72592970962813,145.75 L47.72592970962813,265.0" stroke="#1a1a1a" stroke-width="2.6" stroke-linecap="round" />
<path d="M-202.72223971110412,-59.625 L-188.72223971110412,-59.625" stroke="#1a1a1a" stroke-width="2.6" stroke-linecap="round" />
<path d="M-188.72223971110412,-59.625 L-188.72223971110412,-265.0" stroke="#1a1a1a" stroke-width="2.6" stroke-linecap="round" />
<path d="M-188.72223971110412,-59.625 L-188.72223971110412,145.75" stroke="#1a1a1a" stroke-width="2.6" stroke-linecap="round" />
<text x="332.0" y="-318.0" font-size="30" fill="#1a1a1a" font-family="Helvetica" transform="" text-anchor="start" dominant-baseline="middle">F_1</text>
<text x="332.0" y="-212.0" font-size="30" fill="#1a1a1a" font-family="Helvetica" transform="" text-anchor="start" dominant-baseline="middle">F_2</text>
<text x="331.99980920007636" y="-106.0" font-size="30" fill="#1a1a1a" font-family="Helvetica" transform="" text-anchor="start" dominant-baseline="middle">G_1</text>
<text x="331.99980920007636" y="0.0" font-size="30" fill="#1a1a1a" font-family="Helvetica" transform="" text-anchor="start" dominant-baseline="middle">H_1</text>
<text x="331.99980920007636" y="106.0" font-size="30" fill="#1a1a1a" font-family="Helvetica" transform="" text-anchor="start" dominant-baseline="middle">J_1</text>
<text x="331.99974560010173" y="212.0" font-size="30" fill="#1a1a1a" font-family="Helvetica" transform="" text-anchor="start" dominant-baseline="middle">I_1</text>
<text x="331.99974560010173" y="318.0" font-size="30" fill="#1a1a1a" font-family="Helvetica" transform="" text-anchor="start" dominant-baseline="middle">J_2</text>
<rect x="-173.7933284826686" y="-278.0" width="26.0" height="26.0" fill="#1a1a1a" opacity="1.0" />
<path d="M270.0339167864332,11.488893001069732 L257.0339167864332,34.00555349946514 L283.0339167864332,34.00555349946514 Z" fill="#1a1a1a" opacity="1.0" />
<text x="240.03391678643322" y="-13.25" font-size="23" fill="#8a8a8a" font-weight="normal" font-family="Helvetica" text-anchor="end" dominant-baseline="middle">donor-kept copy</text>
<text x="240.03391678643322" y="66.25" font-size="23" fill="#8a8a8a" font-weight="normal" font-family="Helvetica" text-anchor="end" dominant-baseline="middle">transferred copy</text>
<path d="M-332.0,334.0 L188.72198531120586,334.0" stroke="black" stroke-width="1.8" />
<path d="M-318.0,334.0 L-318.0,342.0" stroke="black" stroke-width="1.8" />
<text x="-318.0" y="372.0" font-size="30" text-anchor="middle" font-family="Helvetica">0.0</text>
<path d="M-64.63868934452427,334.0 L-64.63868934452427,342.0" stroke="black" stroke-width="1.8" />
<text x="-64.63868934452427" y="372.0" font-size="30" text-anchor="middle" font-family="Helvetica">0.4</text>
<path d="M188.72198531120586,334.0 L188.72198531120586,342.0" stroke="black" stroke-width="1.8" />
<text x="188.72198531120586" y="372.0" font-size="30" text-anchor="middle" font-family="Helvetica">0.8</text>
<text x="-71.63900734439707" y="417.0" font-size="30" text-anchor="middle" font-family="Helvetica">Time (root to present)</text>
<text x="-424.0" y="-392.0" font-size="46" fill="#1a1a1a" font-weight="bold" font-family="Helvetica" text-anchor="start" dominant-baseline="middle">B</text>
<text x="-360.0" y="-392.0" font-size="40" fill="#1a1a1a" font-weight="normal" font-family="Helvetica" text-anchor="start" dominant-baseline="middle">Extant gene tree</text>
</svg>
<rect x="165.0" y="950.0" width="30" height="30" fill="#1a1a1a" />
<text x="209.0" y="965.0" font-size="34" font-family="Helvetica" text-anchor="start" dominant-baseline="middle" fill="#1a1a1a">Duplication</text>
<polygon points="510.0,950.0 525.0,980.0 495.0,980.0" fill="#1a1a1a" />
<text x="539.0" y="965.0" font-size="34" font-family="Helvetica" text-anchor="start" dominant-baseline="middle" fill="#1a1a1a">Transfer</text>
<line x1="795.0" y1="950.0" x2="825.0" y2="980.0" stroke="#1a1a1a" stroke-width="4.5" stroke-linecap="round" />
<line x1="795.0" y1="980.0" x2="825.0" y2="950.0" stroke="#1a1a1a" stroke-width="4.5" stroke-linecap="round" />
<text x="839.0" y="965.0" font-size="34" font-family="Helvetica" text-anchor="start" dominant-baseline="middle" fill="#1a1a1a">Loss</text>
<line x1="1040.0" y1="965.0" x2="1094.0" y2="965.0" stroke="#1a1a1a" stroke-width="4.5" stroke-linecap="round" />
<text x="1106.0" y="965.0" font-size="34" font-family="Helvetica" text-anchor="start" dominant-baseline="middle" fill="#1a1a1a">surviving copy</text>
<line x1="1470.0" y1="965.0" x2="1524.0" y2="965.0" stroke="#1a1a1a" stroke-width="4.5" stroke-dasharray="8,6" stroke-linecap="butt" />
<text x="1536.0" y="965.0" font-size="34" font-family="Helvetica" text-anchor="start" dominant-baseline="middle" fill="#1a1a1a">lost lineage</text>
</svg>