<?xml version="1.0" encoding="UTF-8"?>
<svg xmlns="http://www.w3.org/2000/svg" xmlns:xlink="http://www.w3.org/1999/xlink"
     width="1440" height="860" viewBox="-720.0 -430.0 1440 860">
<defs>
</defs>
<rect x="-720.0" y="-430.0" width="1440" height="860" fill="white" />
<path d="M602.0,-326.0 L602.0,326.0" stroke="#c9c9c9" stroke-width="1.0" stroke-dasharray="2,4" />
<path d="M-282.40301480053364,-312.0 L138.01735736407147,-312.0" stroke="#1a1a1a" stroke-width="2.6" stroke-dasharray="6,5" stroke-linecap="butt" />
<path d="M253.7483792774251,-284.8695652173913 L602.0,-284.8695652173913" stroke="#1a1a1a" stroke-width="2.6" stroke-dasharray="6,5" stroke-linecap="butt" />
<path d="M324.8428975837454,-257.7391304347826 L602.0,-257.7391304347826" stroke="#1a1a1a" stroke-width="2.6" stroke-linecap="round" />
<path d="M525.299285432118,-230.6086956521739 L602.0,-230.6086956521739" stroke="#1a1a1a" stroke-width="2.6" stroke-linecap="round" />
<path d="M596.4066404010837,-203.47826086956522 L602.0,-203.47826086956522" stroke="#1a1a1a" stroke-width="2.6" stroke-dasharray="6,5" stroke-linecap="butt" />
<path d="M596.4066404010837,-176.34782608695653 L602.0,-176.34782608695653" stroke="#1a1a1a" stroke-width="2.6" stroke-dasharray="6,5" stroke-linecap="butt" />
<path d="M525.299285432118,-189.91304347826087 L596.4066404010837,-189.91304347826087" stroke="#1a1a1a" stroke-width="2.6" stroke-dasharray="6,5" stroke-linecap="butt" />
<path d="M596.4066404010837,-189.91304347826087 L596.4066404010837,-203.47826086956522" stroke="#1a1a1a" stroke-width="2.6" stroke-dasharray="6,5" stroke-linecap="butt" />
<path d="M596.4066404010837,-189.91304347826087 L596.4066404010837,-176.34782608695653" stroke="#1a1a1a" stroke-width="2.6" stroke-dasharray="6,5" stroke-linecap="butt" />
<path d="M324.8428975837454,-210.26086956521738 L525.299285432118,-210.26086956521738" stroke="#1a1a1a" stroke-width="2.6" stroke-linecap="round" />
<path d="M525.299285432118,-210.26086956521738 L525.299285432118,-230.6086956521739" stroke="#1a1a1a" stroke-width="2.6" stroke-linecap="round" />
<path d="M525.299285432118,-210.26086956521738 L525.299285432118,-189.91304347826087" stroke="#1a1a1a" stroke-width="2.6" stroke-dasharray="6,5" stroke-linecap="butt" />
<path d="M253.7483792774251,-234.0 L324.8428975837454,-234.0" stroke="#1a1a1a" stroke-width="2.6" stroke-linecap="round" />
<path d="M324.8428975837454,-234.0 L324.8428975837454,-257.7391304347826" stroke="#1a1a1a" stroke-width="2.6" stroke-linecap="round" />
<path d="M324.8428975837454,-234.0 L324.8428975837454,-210.26086956521738" stroke="#1a1a1a" stroke-width="2.6" stroke-linecap="round" />
<path d="M-191.34707606486643,-259.4347826086956 L253.7483792774251,-259.4347826086956" stroke="#1a1a1a" stroke-width="2.6" stroke-linecap="round" />
<path d="M253.7483792774251,-259.4347826086956 L253.7483792774251,-284.8695652173913" stroke="#1a1a1a" stroke-width="2.6" stroke-dasharray="6,5" stroke-linecap="butt" />
<path d="M253.7483792774251,-259.4347826086956 L253.7483792774251,-234.0" stroke="#1a1a1a" stroke-width="2.6" stroke-linecap="round" />
<path d="M72.02315626290499,-149.2173913043478 L602.0,-149.2173913043478" stroke="#1a1a1a" stroke-width="2.6" stroke-linecap="round" />
<path d="M220.81077240712114,-122.08695652173913 L243.41489289167873,-122.08695652173913" stroke="#1a1a1a" stroke-width="2.6" stroke-dasharray="6,5" stroke-linecap="butt" />
<path d="M220.81077240712114,-94.95652173913044 L602.0,-94.95652173913044" stroke="#1a1a1a" stroke-width="2.6" stroke-linecap="round" />
<path d="M202.7631087189542,-108.52173913043478 L220.81077240712114,-108.52173913043478" stroke="#1a1a1a" stroke-width="2.6" stroke-linecap="round" />
<path d="M220.81077240712114,-108.52173913043478 L220.81077240712114,-122.08695652173913" stroke="#1a1a1a" stroke-width="2.6" stroke-dasharray="6,5" stroke-linecap="butt" />
<path d="M220.81077240712114,-108.52173913043478 L220.81077240712114,-94.95652173913044" stroke="#1a1a1a" stroke-width="2.6" stroke-linecap="round" />
<path d="M292.0901676011455,-67.82608695652175 L583.7181430331914,-67.82608695652175" stroke="#1a1a1a" stroke-width="2.6" stroke-dasharray="6,5" stroke-linecap="butt" />
<path d="M433.2940019467512,-40.69565217391306 L602.0,-40.69565217391306" stroke="#1a1a1a" stroke-width="2.6" stroke-linecap="round" />
<path d="M433.2940019467512,-13.565217391304373 L602.0,-13.565217391304373" stroke="#1a1a1a" stroke-width="2.6" stroke-dasharray="6,5" stroke-linecap="butt" />
<path d="M292.0901676011455,-27.130434782608717 L433.2940019467512,-27.130434782608717" stroke="#1a1a1a" stroke-width="2.6" stroke-linecap="round" />
<path d="M433.2940019467512,-27.130434782608717 L433.2940019467512,-40.69565217391306" stroke="#1a1a1a" stroke-width="2.6" stroke-linecap="round" />
<path d="M433.2940019467512,-27.130434782608717 L433.2940019467512,-13.565217391304373" stroke="#1a1a1a" stroke-width="2.6" stroke-dasharray="6,5" stroke-linecap="butt" />
<path d="M202.7631087189542,-47.47826086956523 L292.0901676011455,-47.47826086956523" stroke="#1a1a1a" stroke-width="2.6" stroke-linecap="round" />
<path d="M292.0901676011455,-47.47826086956523 L292.0901676011455,-67.82608695652175" stroke="#1a1a1a" stroke-width="2.6" stroke-dasharray="6,5" stroke-linecap="butt" />
<path d="M292.0901676011455,-47.47826086956523 L292.0901676011455,-27.130434782608717" stroke="#1a1a1a" stroke-width="2.6" stroke-linecap="round" />
<path d="M152.9861864816928,-78.0 L202.7631087189542,-78.0" stroke="#1a1a1a" stroke-width="2.6" stroke-linecap="round" />
<path d="M202.7631087189542,-78.0 L202.7631087189542,-108.52173913043478" stroke="#1a1a1a" stroke-width="2.6" stroke-linecap="round" />
<path d="M202.7631087189542,-78.0 L202.7631087189542,-47.47826086956523" stroke="#1a1a1a" stroke-width="2.6" stroke-linecap="round" />
<path d="M152.9861864816928,13.565217391304373 L602.0,13.565217391304373" stroke="#1a1a1a" stroke-width="2.6" stroke-linecap="round" />
<path d="M72.02315626290499,-32.217391304347814 L152.9861864816928,-32.217391304347814" stroke="#1a1a1a" stroke-width="2.6" stroke-linecap="round" />
<path d="M152.9861864816928,-32.217391304347814 L152.9861864816928,-78.0" stroke="#1a1a1a" stroke-width="2.6" stroke-linecap="round" />
<path d="M152.9861864816928,-32.217391304347814 L152.9861864816928,13.565217391304373" stroke="#1a1a1a" stroke-width="2.6" stroke-linecap="round" />
<path d="M-128.10805795281027,-90.71739130434781 L72.02315626290499,-90.71739130434781" stroke="#1a1a1a" stroke-width="2.6" stroke-linecap="round" />
<path d="M72.02315626290499,-90.71739130434781 L72.02315626290499,-149.2173913043478" stroke="#1a1a1a" stroke-width="2.6" stroke-linecap="round" />
<path d="M72.02315626290499,-90.71739130434781 L72.02315626290499,-32.217391304347814" stroke="#1a1a1a" stroke-width="2.6" stroke-linecap="round" />
<path d="M-128.10805795281027,40.69565217391306 L602.0,40.69565217391306" stroke="#1a1a1a" stroke-width="2.6" stroke-linecap="round" />
<path d="M-191.34707606486643,-25.010869565217376 L-128.10805795281027,-25.010869565217376" stroke="#1a1a1a" stroke-width="2.6" stroke-linecap="round" />
<path d="M-128.10805795281027,-25.010869565217376 L-128.10805795281027,-90.71739130434781" stroke="#1a1a1a" stroke-width="2.6" stroke-linecap="round" />
<path d="M-128.10805795281027,-25.010869565217376 L-128.10805795281027,40.69565217391306" stroke="#1a1a1a" stroke-width="2.6" stroke-linecap="round" />
<path d="M-282.40301480053364,-142.2228260869565 L-191.34707606486643,-142.2228260869565" stroke="#1a1a1a" stroke-width="2.6" stroke-linecap="round" />
<path d="M-191.34707606486643,-142.2228260869565 L-191.34707606486643,-259.4347826086956" stroke="#1a1a1a" stroke-width="2.6" stroke-linecap="round" />
<path d="M-191.34707606486643,-142.2228260869565 L-191.34707606486643,-25.010869565217376" stroke="#1a1a1a" stroke-width="2.6" stroke-linecap="round" />
<path d="M-285.60441122764774,-227.11141304347825 L-282.40301480053364,-227.11141304347825" stroke="#1a1a1a" stroke-width="2.6" stroke-linecap="round" />
<path d="M-282.40301480053364,-227.11141304347825 L-282.40301480053364,-312.0" stroke="#1a1a1a" stroke-width="2.6" stroke-dasharray="6,5" stroke-linecap="butt" />
<path d="M-282.40301480053364,-227.11141304347825 L-282.40301480053364,-142.2228260869565" stroke="#1a1a1a" stroke-width="2.6" stroke-linecap="round" />
<path d="M-25.71543862028352,67.82608695652175 L358.2197914296198,67.82608695652175" stroke="#1a1a1a" stroke-width="2.6" stroke-dasharray="6,5" stroke-linecap="butt" />
<path d="M-25.71543862028352,94.95652173913044 L602.0,94.95652173913044" stroke="#1a1a1a" stroke-width="2.6" stroke-linecap="round" />
<path d="M-158.31930754618656,81.3913043478261 L-25.71543862028352,81.3913043478261" stroke="#1a1a1a" stroke-width="2.6" stroke-linecap="round" />
<path d="M-25.71543862028352,81.3913043478261 L-25.71543862028352,67.82608695652175" stroke="#1a1a1a" stroke-width="2.6" stroke-dasharray="6,5" stroke-linecap="butt" />
<path d="M-25.71543862028352,81.3913043478261 L-25.71543862028352,94.95652173913044" stroke="#1a1a1a" stroke-width="2.6" stroke-linecap="round" />
<path d="M345.03107566542656,122.08695652173913 L602.0,122.08695652173913" stroke="#1a1a1a" stroke-width="2.6" stroke-dasharray="6,5" stroke-linecap="butt" />
<path d="M525.3105527942735,149.2173913043478 L602.0,149.2173913043478" stroke="#1a1a1a" stroke-width="2.6" stroke-linecap="round" />
<path d="M525.3105527942735,176.3478260869565 L602.0,176.3478260869565" stroke="#1a1a1a" stroke-width="2.6" stroke-linecap="round" />
<path d="M345.03107566542656,162.78260869565216 L525.3105527942735,162.78260869565216" stroke="#1a1a1a" stroke-width="2.6" stroke-linecap="round" />
<path d="M525.3105527942735,162.78260869565216 L525.3105527942735,149.2173913043478" stroke="#1a1a1a" stroke-width="2.6" stroke-linecap="round" />
<path d="M525.3105527942735,162.78260869565216 L525.3105527942735,176.3478260869565" stroke="#1a1a1a" stroke-width="2.6" stroke-linecap="round" />
<path d="M302.4194788154805,142.43478260869563 L345.03107566542656,142.43478260869563" stroke="#1a1a1a" stroke-width="2.6" stroke-linecap="round" />
<path d="M345.03107566542656,142.43478260869563 L345.03107566542656,122.08695652173913" stroke="#1a1a1a" stroke-width="2.6" stroke-dasharray="6,5" stroke-linecap="butt" />
<path d="M345.03107566542656,142.43478260869563 L345.03107566542656,162.78260869565216" stroke="#1a1a1a" stroke-width="2.6" stroke-linecap="round" />
<path d="M302.4194788154805,203.47826086956525 L602.0,203.47826086956525" stroke="#1a1a1a" stroke-width="2.6" stroke-linecap="round" />
<path d="M99.74668743293432,172.95652173913044 L302.4194788154805,172.95652173913044" stroke="#1a1a1a" stroke-width="2.6" stroke-linecap="round" />
<path d="M302.4194788154805,172.95652173913044 L302.4194788154805,142.43478260869563" stroke="#1a1a1a" stroke-width="2.6" stroke-linecap="round" />
<path d="M302.4194788154805,172.95652173913044 L302.4194788154805,203.47826086956525" stroke="#1a1a1a" stroke-width="2.6" stroke-linecap="round" />
<path d="M511.30938266078374,230.60869565217388 L602.0,230.60869565217388" stroke="#1a1a1a" stroke-width="2.6" stroke-linecap="round" />
<path d="M511.30938266078374,257.7391304347826 L602.0,257.7391304347826" stroke="#1a1a1a" stroke-width="2.6" stroke-linecap="round" />
<path d="M99.74668743293432,244.17391304347825 L511.30938266078374,244.17391304347825" stroke="#1a1a1a" stroke-width="2.6" stroke-linecap="round" />
<path d="M511.30938266078374,244.17391304347825 L511.30938266078374,230.60869565217388" stroke="#1a1a1a" stroke-width="2.6" stroke-linecap="round" />
<path d="M511.30938266078374,244.17391304347825 L511.30938266078374,257.7391304347826" stroke="#1a1a1a" stroke-width="2.6" stroke-linecap="round" />
<path d="M-158.31930754618656,208.56521739130434 L99.74668743293432,208.56521739130434" stroke="#1a1a1a" stroke-width="2.6" stroke-linecap="round" />
<path d="M99.74668743293432,208.56521739130434 L99.74668743293432,172.95652173913044" stroke="#1a1a1a" stroke-width="2.6" stroke-linecap="round" />
<path d="M99.74668743293432,208.56521739130434 L99.74668743293432,244.17391304347825" stroke="#1a1a1a" stroke-width="2.6" stroke-linecap="round" />
<path d="M-285.60441122764774,144.97826086956522 L-158.31930754618656,144.97826086956522" stroke="#1a1a1a" stroke-width="2.6" stroke-linecap="round" />
<path d="M-158.31930754618656,144.97826086956522 L-158.31930754618656,81.3913043478261" stroke="#1a1a1a" stroke-width="2.6" stroke-linecap="round" />
<path d="M-158.31930754618656,144.97826086956522 L-158.31930754618656,208.56521739130434" stroke="#1a1a1a" stroke-width="2.6" stroke-linecap="round" />
<path d="M-602.0,-41.066576086956516 L-285.60441122764774,-41.066576086956516" stroke="#1a1a1a" stroke-width="2.6" stroke-linecap="round" />
<path d="M-285.60441122764774,-41.066576086956516 L-285.60441122764774,-227.11141304347825" stroke="#1a1a1a" stroke-width="2.6" stroke-linecap="round" />
<path d="M-285.60441122764774,-41.066576086956516 L-285.60441122764774,144.97826086956522" stroke="#1a1a1a" stroke-width="2.6" stroke-linecap="round" />
<path d="M-273.22807012165237,284.86956521739125 L-88.8078678519953,284.86956521739125" stroke="#1a1a1a" stroke-width="2.6" stroke-dasharray="6,5" stroke-linecap="butt" />
<path d="M-273.22807012165237,312.0 L-209.4790160937605,312.0" stroke="#1a1a1a" stroke-width="2.6" stroke-dasharray="6,5" stroke-linecap="butt" />
<path d="M-602.0,298.4347826086956 L-273.22807012165237,298.4347826086956" stroke="#1a1a1a" stroke-width="2.6" stroke-dasharray="6,5" stroke-linecap="butt" />
<path d="M-273.22807012165237,298.4347826086956 L-273.22807012165237,284.86956521739125" stroke="#1a1a1a" stroke-width="2.6" stroke-dasharray="6,5" stroke-linecap="butt" />
<path d="M-273.22807012165237,298.4347826086956 L-273.22807012165237,312.0" stroke="#1a1a1a" stroke-width="2.6" stroke-dasharray="6,5" stroke-linecap="butt" />
<path d="M-616.0,128.68410326086956 L-602.0,128.68410326086956" stroke="#1a1a1a" stroke-width="2.6" stroke-linecap="round" />
<path d="M-602.0,128.68410326086956 L-602.0,-41.066576086956516" stroke="#1a1a1a" stroke-width="2.6" stroke-linecap="round" />
<path d="M-602.0,128.68410326086956 L-602.0,298.4347826086956" stroke="#1a1a1a" stroke-width="2.6" stroke-dasharray="6,5" stroke-linecap="butt" />
<circle cx="602.0" cy="-284.8695652173913" r="6.0" fill="#ffffff" stroke="#1a1a1a" stroke-width="2" />
<circle cx="602.0" cy="-203.47826086956522" r="6.0" fill="#ffffff" stroke="#1a1a1a" stroke-width="2" />
<circle cx="602.0" cy="-176.34782608695653" r="6.0" fill="#ffffff" stroke="#1a1a1a" stroke-width="2" />
<circle cx="602.0" cy="-13.565217391304373" r="6.0" fill="#ffffff" stroke="#1a1a1a" stroke-width="2" />
<circle cx="602.0" cy="122.08695652173913" r="6.0" fill="#ffffff" stroke="#1a1a1a" stroke-width="2" />
<path d="M-616.0,326.0 L602.0,326.0" stroke="black" stroke-width="1.6" />
<path d="M-602.0,326.0 L-602.0,332.0" stroke="black" stroke-width="1.6" />
<text x="-602.0" y="349.0" font-size="17" text-anchor="middle" font-family="Helvetica">0.00</text>
<path d="M-301.0,326.0 L-301.0,332.0" stroke="black" stroke-width="1.6" />
<text x="-301.0" y="349.0" font-size="17" text-anchor="middle" font-family="Helvetica">0.70</text>
<path d="M0.0,326.0 L0.0,332.0" stroke="black" stroke-width="1.6" />
<text x="0.0" y="349.0" font-size="17" text-anchor="middle" font-family="Helvetica">1.40</text>
<path d="M301.0,326.0 L301.0,332.0" stroke="black" stroke-width="1.6" />
<text x="301.0" y="349.0" font-size="17" text-anchor="middle" font-family="Helvetica">2.10</text>
<path d="M602.0,326.0 L602.0,332.0" stroke="black" stroke-width="1.6" />
<text x="602.0" y="349.0" font-size="17" text-anchor="middle" font-family="Helvetica">2.80</text>
<text x="-7.0" y="374.5" font-size="17" text-anchor="middle" font-family="Helvetica">Time (root to present)</text>
<text x="0" y="-386.0" font-size="32" font-weight="bold" font-family="Helvetica" text-anchor="middle" dominant-baseline="central" fill="#1a1a1a">Incomplete sampling (rho = 0.6)</text>
<path d="M-686.0,-310.0 L-652.0,-310.0" stroke="#1a1a1a" stroke-width="2.6" stroke-linecap="round" />
<text x="-638.0" y="-310.0" font-size="22" font-family="Helvetica" text-anchor="start" dominant-baseline="central" fill="#1a1a1a">sampled</text>
<path d="M-686.0,-268.2 L-652.0,-268.2" stroke="#1a1a1a" stroke-width="2.6" stroke-dasharray="6,5" stroke-linecap="butt" />
<circle cx="-644.0" cy="-268.2" r="6.0" fill="#ffffff" stroke="#1a1a1a" stroke-width="2" />
<text x="-630.0" y="-268.2" font-size="22" font-family="Helvetica" text-anchor="start" dominant-baseline="central" fill="#1a1a1a">unsampled extant</text>
<path d="M-686.0,-226.39999999999998 L-652.0,-226.39999999999998" stroke="#1a1a1a" stroke-width="2.6" stroke-dasharray="6,5" stroke-linecap="butt" />
<text x="-638.0" y="-226.39999999999998" font-size="22" font-family="Helvetica" text-anchor="start" dominant-baseline="central" fill="#1a1a1a">extinct</text>
</svg>