<?xml version="1.0" encoding="UTF-8"?>
<svg xmlns="http://www.w3.org/2000/svg" xmlns:xlink="http://www.w3.org/1999/xlink"
     width="1040" height="470" viewBox="0 0 1040 470">
<defs>
</defs>
<rect x="0" y="0" width="1040" height="470" fill="white" />
<rect x="96.0" y="108" width="9.08" height="32" fill="#3c5cbe" />
<rect x="104.48" y="108" width="9.08" height="32" fill="#3b60bf" />
<rect x="112.96000000000001" y="108" width="9.08" height="32" fill="#3a64bf" />
<rect x="121.44" y="108" width="9.08" height="32" fill="#3968c0" />
<rect x="129.92000000000002" y="108" width="9.08" height="32" fill="#396cc0" />
<rect x="138.4" y="108" width="9.08" height="32" fill="#3870c1" />
<rect x="146.88" y="108" width="9.08" height="32" fill="#3774c1" />
<rect x="155.36" y="108" width="9.08" height="32" fill="#3678c2" />
<rect x="163.84" y="108" width="9.08" height="32" fill="#367cc2" />
<rect x="172.32" y="108" width="9.08" height="32" fill="#3580c3" />
<rect x="180.8" y="108" width="9.08" height="32" fill="#3484c3" />
<rect x="189.28" y="108" width="9.08" height="32" fill="#3388c4" />
<rect x="197.76" y="108" width="9.08" height="32" fill="#338cc4" />
<rect x="206.24" y="108" width="9.08" height="32" fill="#3290c5" />
<rect x="214.72000000000003" y="108" width="9.08" height="32" fill="#3194c5" />
<rect x="223.2" y="108" width="9.08" height="32" fill="#3098c6" />
<rect x="231.68" y="108" width="9.08" height="32" fill="#309cc6" />
<rect x="240.16" y="108" width="9.08" height="32" fill="#2fa0c7" />
<rect x="248.64" y="108" width="9.08" height="32" fill="#2ea4c7" />
<rect x="257.12" y="108" width="9.08" height="32" fill="#2da8c8" />
<rect x="265.6" y="108" width="9.08" height="32" fill="#2eaac6" />
<rect x="274.08" y="108" width="9.08" height="32" fill="#2fabc1" />
<rect x="282.56" y="108" width="9.08" height="32" fill="#30acbc" />
<rect x="291.04" y="108" width="9.08" height="32" fill="#32acb7" />
<rect x="299.52" y="108" width="9.08" height="32" fill="#33adb3" />
<rect x="308.0" y="108" width="9.08" height="32" fill="#34aeae" />
<rect x="316.48" y="108" width="9.08" height="32" fill="#36aea9" />
<rect x="324.96000000000004" y="108" width="9.08" height="32" fill="#37afa4" />
<rect x="333.44000000000005" y="108" width="9.08" height="32" fill="#39b09f" />
<rect x="341.91999999999996" y="108" width="9.08" height="32" fill="#3ab09b" />
<rect x="350.4" y="108" width="9.08" height="32" fill="#3bb196" />
<rect x="358.88" y="108" width="9.08" height="32" fill="#3db291" />
<rect x="367.36" y="108" width="9.08" height="32" fill="#3eb38c" />
<rect x="375.84000000000003" y="108" width="9.08" height="32" fill="#3fb388" />
<rect x="384.32" y="108" width="9.08" height="32" fill="#41b483" />
<rect x="392.79999999999995" y="108" width="9.08" height="32" fill="#42b57e" />
<rect x="401.28" y="108" width="9.08" height="32" fill="#44b579" />
<rect x="409.76" y="108" width="9.08" height="32" fill="#45b674" />
<rect x="418.24" y="108" width="9.08" height="32" fill="#46b770" />
<rect x="426.72" y="108" width="9.08" height="32" fill="#48b76b" />
<rect x="435.20000000000005" y="108" width="9.08" height="32" fill="#49b866" />
<rect x="443.68" y="108" width="9.08" height="32" fill="#4ab961" />
<rect x="452.15999999999997" y="108" width="9.08" height="32" fill="#4fba5e" />
<rect x="460.64" y="108" width="9.08" height="32" fill="#58bb5c" />
<rect x="469.12" y="108" width="9.08" height="32" fill="#60bc5a" />
<rect x="477.6" y="108" width="9.08" height="32" fill="#69bd58" />
<rect x="486.08000000000004" y="108" width="9.08" height="32" fill="#71bf56" />
<rect x="494.56" y="108" width="9.08" height="32" fill="#7ac054" />
<rect x="503.03999999999996" y="108" width="9.08" height="32" fill="#82c152" />
<rect x="511.52" y="108" width="9.08" height="32" fill="#8bc350" />
<rect x="520.0" y="108" width="9.08" height="32" fill="#93c44e" />
<rect x="528.48" y="108" width="9.08" height="32" fill="#9cc54d" />
<rect x="536.96" y="108" width="9.08" height="32" fill="#a4c64b" />
<rect x="545.44" y="108" width="9.08" height="32" fill="#adc849" />
<rect x="553.9200000000001" y="108" width="9.08" height="32" fill="#b5c947" />
<rect x="562.4000000000001" y="108" width="9.08" height="32" fill="#beca45" />
<rect x="570.8800000000001" y="108" width="9.08" height="32" fill="#c6cc43" />
<rect x="579.3599999999999" y="108" width="9.08" height="32" fill="#cfcd41" />
<rect x="587.8399999999999" y="108" width="9.08" height="32" fill="#d7ce3f" />
<rect x="596.3199999999999" y="108" width="9.08" height="32" fill="#e0cf3d" />
<rect x="604.8" y="108" width="9.08" height="32" fill="#e4ce3c" />
<rect x="613.28" y="108" width="9.08" height="32" fill="#e5cb3b" />
<rect x="621.76" y="108" width="9.08" height="32" fill="#e5c73a" />
<rect x="630.24" y="108" width="9.08" height="32" fill="#e6c439" />
<rect x="638.72" y="108" width="9.08" height="32" fill="#e6c038" />
<rect x="647.2" y="108" width="9.08" height="32" fill="#e7bd37" />
<rect x="655.6800000000001" y="108" width="9.08" height="32" fill="#e8ba37" />
<rect x="664.1600000000001" y="108" width="9.08" height="32" fill="#e8b636" />
<rect x="672.64" y="108" width="9.08" height="32" fill="#e9b335" />
<rect x="681.12" y="108" width="9.08" height="32" fill="#e9af34" />
<rect x="689.5999999999999" y="108" width="9.08" height="32" fill="#eaac33" />
<rect x="698.0799999999999" y="108" width="9.08" height="32" fill="#eaa832" />
<rect x="706.56" y="108" width="9.08" height="32" fill="#eba532" />
<rect x="715.04" y="108" width="9.08" height="32" fill="#eca231" />
<rect x="723.52" y="108" width="9.08" height="32" fill="#ec9e30" />
<rect x="732.0" y="108" width="9.08" height="32" fill="#ed9b2f" />
<rect x="740.48" y="108" width="9.08" height="32" fill="#ed972e" />
<rect x="748.96" y="108" width="9.08" height="32" fill="#ee942d" />
<rect x="757.44" y="108" width="9.08" height="32" fill="#ed902d" />
<rect x="765.9200000000001" y="108" width="9.08" height="32" fill="#ec8c2e" />
<rect x="774.4000000000001" y="108" width="9.08" height="32" fill="#eb882e" />
<rect x="782.88" y="108" width="9.08" height="32" fill="#ea842f" />
<rect x="791.36" y="108" width="9.08" height="32" fill="#e87f2f" />
<rect x="799.8399999999999" y="108" width="9.08" height="32" fill="#e77b30" />
<rect x="808.3199999999999" y="108" width="9.08" height="32" fill="#e67730" />
<rect x="816.8" y="108" width="9.08" height="32" fill="#e47330" />
<rect x="825.28" y="108" width="9.08" height="32" fill="#e36f31" />
<rect x="833.76" y="108" width="9.08" height="32" fill="#e26b31" />
<rect x="842.24" y="108" width="9.08" height="32" fill="#e16732" />
<rect x="850.72" y="108" width="9.08" height="32" fill="#df6232" />
<rect x="859.2" y="108" width="9.08" height="32" fill="#de5e33" />
<rect x="867.6800000000001" y="108" width="9.08" height="32" fill="#dd5a33" />
<rect x="876.1600000000001" y="108" width="9.08" height="32" fill="#dc5634" />
<rect x="884.64" y="108" width="9.08" height="32" fill="#da5234" />
<rect x="893.12" y="108" width="9.08" height="32" fill="#d94e34" />
<rect x="901.5999999999999" y="108" width="9.08" height="32" fill="#d84a35" />
<rect x="910.0799999999999" y="108" width="9.08" height="32" fill="#d64535" />
<rect x="918.56" y="108" width="9.08" height="32" fill="#d54136" />
<rect x="927.04" y="108" width="9.08" height="32" fill="#d43d36" />
<rect x="935.52" y="108" width="9.08" height="32" fill="#d33937" />
<rect x="96" y="108" width="848" height="32" fill="none" stroke="#1a1a1a" stroke-width="1.4" />
<rect x="96.0" y="336" width="9.08" height="32" fill="#3c5cbe" />
<rect x="104.48" y="336" width="9.08" height="32" fill="#3b60bf" />
<rect x="112.96000000000001" y="336" width="9.08" height="32" fill="#3a64bf" />
<rect x="121.44" y="336" width="9.08" height="32" fill="#3968c0" />
<rect x="129.92000000000002" y="336" width="9.08" height="32" fill="#396cc0" />
<rect x="138.4" y="336" width="9.08" height="32" fill="#3870c1" />
<rect x="146.88" y="336" width="9.08" height="32" fill="#3774c1" />
<rect x="155.36" y="336" width="9.08" height="32" fill="#3678c2" />
<rect x="163.84" y="336" width="9.08" height="32" fill="#367cc2" />
<rect x="172.32" y="336" width="9.08" height="32" fill="#3580c3" />
<rect x="180.8" y="336" width="9.08" height="32" fill="#3484c3" />
<rect x="189.28" y="336" width="9.08" height="32" fill="#3388c4" />
<rect x="197.76" y="336" width="9.08" height="32" fill="#338cc4" />
<rect x="206.24" y="336" width="9.08" height="32" fill="#3290c5" />
<rect x="214.72000000000003" y="336" width="9.08" height="32" fill="#3194c5" />
<rect x="223.2" y="336" width="9.08" height="32" fill="#3098c6" />
<rect x="231.68" y="336" width="9.08" height="32" fill="#309cc6" />
<rect x="240.16" y="336" width="9.08" height="32" fill="#2fa0c7" />
<rect x="248.64" y="336" width="9.08" height="32" fill="#2ea4c7" />
<rect x="257.12" y="336" width="9.08" height="32" fill="#2da8c8" />
<rect x="265.6" y="336" width="9.08" height="32" fill="#2eaac6" />
<rect x="274.08" y="336" width="9.08" height="32" fill="#2fabc1" />
<rect x="282.56" y="336" width="9.08" height="32" fill="#30acbc" />
<rect x="291.04" y="336" width="9.08" height="32" fill="#32acb7" />
<rect x="299.52" y="336" width="9.08" height="32" fill="#33adb3" />
<rect x="308.0" y="336" width="9.08" height="32" fill="#34aeae" />
<rect x="316.48" y="336" width="9.08" height="32" fill="#36aea9" />
<rect x="324.96000000000004" y="336" width="9.08" height="32" fill="#37afa4" />
<rect x="333.44000000000005" y="336" width="9.08" height="32" fill="#39b09f" />
<rect x="341.91999999999996" y="336" width="9.08" height="32" fill="#3ab09b" />
<rect x="350.4" y="336" width="9.08" height="32" fill="#3bb196" />
<rect x="358.88" y="336" width="9.08" height="32" fill="#3db291" />
<rect x="367.36" y="336" width="9.08" height="32" fill="#3eb38c" />
<rect x="375.84000000000003" y="336" width="9.08" height="32" fill="#3fb388" />
<rect x="384.32" y="336" width="9.08" height="32" fill="#41b483" />
<rect x="392.79999999999995" y="336" width="9.08" height="32" fill="#42b57e" />
<rect x="401.28" y="336" width="9.08" height="32" fill="#44b579" />
<rect x="409.76" y="336" width="9.08" height="32" fill="#45b674" />
<rect x="418.24" y="336" width="9.08" height="32" fill="#46b770" />
<rect x="426.72" y="336" width="9.08" height="32" fill="#48b76b" />
<rect x="435.20000000000005" y="336" width="9.08" height="32" fill="#49b866" />
<rect x="443.68" y="336" width="9.08" height="32" fill="#4ab961" />
<rect x="452.15999999999997" y="336" width="9.08" height="32" fill="#4fba5e" />
<rect x="460.64" y="336" width="9.08" height="32" fill="#58bb5c" />
<rect x="469.12" y="336" width="9.08" height="32" fill="#60bc5a" />
<rect x="477.6" y="336" width="9.08" height="32" fill="#beca45" />
<rect x="486.08000000000004" y="336" width="9.08" height="32" fill="#b5c947" />
<rect x="494.56" y="336" width="9.08" height="32" fill="#adc849" />
<rect x="503.03999999999996" y="336" width="9.08" height="32" fill="#a4c64b" />
<rect x="511.52" y="336" width="9.08" height="32" fill="#9cc54d" />
<rect x="520.0" y="336" width="9.08" height="32" fill="#93c44e" />
<rect x="528.48" y="336" width="9.08" height="32" fill="#8bc350" />
<rect x="536.96" y="336" width="9.08" height="32" fill="#82c152" />
<rect x="545.44" y="336" width="9.08" height="32" fill="#7ac054" />
<rect x="553.9200000000001" y="336" width="9.08" height="32" fill="#71bf56" />
<rect x="562.4000000000001" y="336" width="9.08" height="32" fill="#69bd58" />
<rect x="570.8800000000001" y="336" width="9.08" height="32" fill="#c6cc43" />
<rect x="579.3599999999999" y="336" width="9.08" height="32" fill="#cfcd41" />
<rect x="587.8399999999999" y="336" width="9.08" height="32" fill="#d7ce3f" />
<rect x="596.3199999999999" y="336" width="9.08" height="32" fill="#e0cf3d" />
<rect x="604.8" y="336" width="9.08" height="32" fill="#e4ce3c" />
<rect x="613.28" y="336" width="9.08" height="32" fill="#e5cb3b" />
<rect x="621.76" y="336" width="9.08" height="32" fill="#e5c73a" />
<rect x="630.24" y="336" width="9.08" height="32" fill="#e6c439" />
<rect x="638.72" y="336" width="9.08" height="32" fill="#e6c038" />
<rect x="647.2" y="336" width="9.08" height="32" fill="#e7bd37" />
<rect x="655.6800000000001" y="336" width="9.08" height="32" fill="#e8ba37" />
<rect x="664.1600000000001" y="336" width="9.08" height="32" fill="#e8b636" />
<rect x="672.64" y="336" width="9.08" height="32" fill="#e9b335" />
<rect x="681.12" y="336" width="9.08" height="32" fill="#e9af34" />
<rect x="689.5999999999999" y="336" width="9.08" height="32" fill="#eaac33" />
<rect x="698.0799999999999" y="336" width="9.08" height="32" fill="#eaa832" />
<rect x="706.56" y="336" width="9.08" height="32" fill="#eba532" />
<rect x="715.04" y="336" width="9.08" height="32" fill="#eca231" />
<rect x="723.52" y="336" width="9.08" height="32" fill="#ec9e30" />
<rect x="732.0" y="336" width="9.08" height="32" fill="#ed9b2f" />
<rect x="740.48" y="336" width="9.08" height="32" fill="#ed972e" />
<rect x="748.96" y="336" width="9.08" height="32" fill="#ee942d" />
<rect x="757.44" y="336" width="9.08" height="32" fill="#e77b30" />
<rect x="765.9200000000001" y="336" width="9.08" height="32" fill="#e87f2f" />
<rect x="774.4000000000001" y="336" width="9.08" height="32" fill="#ea842f" />
<rect x="782.88" y="336" width="9.08" height="32" fill="#eb882e" />
<rect x="791.36" y="336" width="9.08" height="32" fill="#ec8c2e" />
<rect x="799.8399999999999" y="336" width="9.08" height="32" fill="#ed902d" />
<rect x="808.3199999999999" y="336" width="9.08" height="32" fill="#e67730" />
<rect x="816.8" y="336" width="9.08" height="32" fill="#e47330" />
<rect x="825.28" y="336" width="9.08" height="32" fill="#e36f31" />
<rect x="833.76" y="336" width="9.08" height="32" fill="#e26b31" />
<rect x="842.24" y="336" width="9.08" height="32" fill="#e16732" />
<rect x="850.72" y="336" width="9.08" height="32" fill="#df6232" />
<rect x="859.2" y="336" width="9.08" height="32" fill="#de5e33" />
<rect x="867.6800000000001" y="336" width="9.08" height="32" fill="#dd5a33" />
<rect x="876.1600000000001" y="336" width="9.08" height="32" fill="#dc5634" />
<rect x="884.64" y="336" width="9.08" height="32" fill="#da5234" />
<rect x="893.12" y="336" width="9.08" height="32" fill="#d94e34" />
<rect x="901.5999999999999" y="336" width="9.08" height="32" fill="#d84a35" />
<rect x="910.0799999999999" y="336" width="9.08" height="32" fill="#d64535" />
<rect x="918.56" y="336" width="9.08" height="32" fill="#d54136" />
<rect x="927.04" y="336" width="9.08" height="32" fill="#d43d36" />
<rect x="935.52" y="336" width="9.08" height="32" fill="#d33937" />
<rect x="96" y="336" width="848" height="32" fill="none" stroke="#1a1a1a" stroke-width="1.4" />
<path d="M96.0,140 C96.0,238.0,96.0,238.0,96.0,336 L477.6,336 C477.6,238.0,477.6,238.0,477.6,140 Z" fill="#30acbc" fill-opacity="0.3" stroke="none" />
<path d="M96.0,332 L96.0,372" stroke="#1a1a1a" stroke-width="1.2" />
<path d="M260.8,352.0 L312.8,352.0" stroke="white" stroke-width="5" stroke-linecap="round" />
<path d="M260.8,352.0 L306.8,352.0" stroke="black" stroke-width="2" />
<path d="M312.8,352.0 L303.8,347.0 L303.8,357.0 Z" fill="black" stroke="white" stroke-width="0.8" />
<path d="M477.6,140 C477.6,238.0,570.8800000000001,238.0,570.8800000000001,336 L477.6,336 C477.6,238.0,570.8800000000001,238.0,570.8800000000001,140 Z" fill="#93c44e" fill-opacity="0.3" stroke="none" />
<path d="M477.6,332 L477.6,372" stroke="#1a1a1a" stroke-width="1.2" />
<path d="M550.24,352.0 L498.24,352.0" stroke="white" stroke-width="5" stroke-linecap="round" />
<path d="M550.24,352.0 L504.24,352.0" stroke="black" stroke-width="2" />
<path d="M498.24,352.0 L507.24,347.0 L507.24,357.0 Z" fill="black" stroke="white" stroke-width="0.8" />
<path d="M570.8800000000001,140 C570.8800000000001,238.0,570.8800000000001,238.0,570.8800000000001,336 L757.44,336 C757.44,238.0,757.44,238.0,757.44,140 Z" fill="#e8b836" fill-opacity="0.3" stroke="none" />
<path d="M570.8800000000001,332 L570.8800000000001,372" stroke="#1a1a1a" stroke-width="1.2" />
<path d="M638.1600000000001,352.0 L690.1600000000001,352.0" stroke="white" stroke-width="5" stroke-linecap="round" />
<path d="M638.1600000000001,352.0 L684.1600000000001,352.0" stroke="black" stroke-width="2" />
<path d="M690.1600000000001,352.0 L681.1600000000001,347.0 L681.1600000000001,357.0 Z" fill="black" stroke="white" stroke-width="0.8" />
<path d="M757.44,140 C757.44,238.0,808.3199999999999,238.0,808.3199999999999,336 L757.44,336 C757.44,238.0,808.3199999999999,238.0,808.3199999999999,140 Z" fill="#ea862e" fill-opacity="0.3" stroke="none" />
<path d="M757.44,332 L757.44,372" stroke="#1a1a1a" stroke-width="1.2" />
<path d="M808.3199999999999,352.0 L757.44,352.0" stroke="white" stroke-width="5" stroke-linecap="round" />
<path d="M808.3199999999999,352.0 L763.44,352.0" stroke="black" stroke-width="2" />
<path d="M757.44,352.0 L766.44,347.0 L766.44,357.0 Z" fill="black" stroke="white" stroke-width="0.8" />
<path d="M808.3199999999999,140 C808.3199999999999,238.0,808.3199999999999,238.0,808.3199999999999,336 L944.0,336 C944.0,238.0,944.0,238.0,944.0,140 Z" fill="#dc5833" fill-opacity="0.3" stroke="none" />
<path d="M808.3199999999999,332 L808.3199999999999,372" stroke="#1a1a1a" stroke-width="1.2" />
<path d="M850.16,352.0 L902.16,352.0" stroke="white" stroke-width="5" stroke-linecap="round" />
<path d="M850.16,352.0 L896.16,352.0" stroke="black" stroke-width="2" />
<path d="M902.16,352.0 L893.16,347.0 L893.16,357.0 Z" fill="black" stroke="white" stroke-width="0.8" />
<path d="M96.0,104 L96.0,108" stroke="#1a1a1a" stroke-width="1.2" />
<text x="96.0" y="99" font-size="12" font-family="Helvetica" text-anchor="middle" fill="#1a1a1a">0</text>
<path d="M308.0,104 L308.0,108" stroke="#1a1a1a" stroke-width="1.2" />
<text x="308.0" y="99" font-size="12" font-family="Helvetica" text-anchor="middle" fill="#1a1a1a">25</text>
<path d="M520.0,104 L520.0,108" stroke="#1a1a1a" stroke-width="1.2" />
<text x="520.0" y="99" font-size="12" font-family="Helvetica" text-anchor="middle" fill="#1a1a1a">50</text>
<path d="M732.0,104 L732.0,108" stroke="#1a1a1a" stroke-width="1.2" />
<text x="732.0" y="99" font-size="12" font-family="Helvetica" text-anchor="middle" fill="#1a1a1a">75</text>
<path d="M944.0,104 L944.0,108" stroke="#1a1a1a" stroke-width="1.2" />
<text x="944.0" y="99" font-size="12" font-family="Helvetica" text-anchor="middle" fill="#1a1a1a">100</text>
<text x="96" y="82" font-size="15" font-family="Helvetica" text-anchor="start" font-weight="bold" fill="#1a1a1a">ancestral (root) genome — base coordinate</text>
<text x="96" y="398" font-size="15" font-family="Helvetica" text-anchor="start" font-weight="bold" fill="#1a1a1a">present-day genome — a mosaic of ancestral segments</text>
<text x="96" y="448" font-size="13" font-family="Helvetica" text-anchor="start" fill="#555">each base keeps its ancestral coordinate;  an inversion reverses a segment (twisted ribbon) and flips its strand (arrow)</text>
</svg>