<?xml version="1.0" encoding="UTF-8"?>
<svg xmlns="http://www.w3.org/2000/svg" xmlns:xlink="http://www.w3.org/1999/xlink"
     width="1180" height="760" viewBox="-590.0 -380.0 1180 760">
<defs>
</defs>
<rect x="-590.0" y="-380.0" width="1180" height="760" fill="white" />
<path d="M17.445956459255456,-260.0 L469.99999990599997,-260.0" stroke="#1a1a1a" stroke-width="2.6" stroke-linecap="round" />
<path d="M365.3923993064608,-202.22222222222223 L470.0,-202.22222222222223" stroke="#1a1a1a" stroke-width="2.6" stroke-linecap="round" />
<path d="M365.3923993064608,-144.44444444444446 L470.0,-144.44444444444446" stroke="#1a1a1a" stroke-width="2.6" stroke-linecap="round" />
<path d="M227.55711085624432,-173.33333333333334 L365.3923993064608,-173.33333333333334" stroke="#1a1a1a" stroke-width="2.6" stroke-linecap="round" />
<path d="M365.3923993064608,-202.22222222222223 L365.3923993064608,-144.44444444444446" stroke="#1a1a1a" stroke-width="2.6" stroke-linecap="round" />
<path d="M392.8871234823313,-86.66666666666666 L469.99999989002004,-86.66666666666666" stroke="#1a1a1a" stroke-width="2.6" stroke-linecap="round" />
<path d="M392.8871234823313,-28.888888888888886 L469.99999989002004,-28.888888888888886" stroke="#1a1a1a" stroke-width="2.6" stroke-linecap="round" />
<path d="M230.75459180054463,-57.77777777777777 L392.8871234823313,-57.77777777777777" stroke="#1a1a1a" stroke-width="2.6" stroke-linecap="round" />
<path d="M392.8871234823313,-86.66666666666666 L392.8871234823313,-28.888888888888886" stroke="#1a1a1a" stroke-width="2.6" stroke-linecap="round" />
<path d="M230.75459180054463,28.888888888888914 L469.99999997462,28.888888888888914" stroke="#1a1a1a" stroke-width="2.6" stroke-linecap="round" />
<path d="M227.55711085624432,-14.444444444444429 L230.75459180054463,-14.444444444444429" stroke="#1a1a1a" stroke-width="2.6" stroke-linecap="round" />
<path d="M230.75459180054463,-57.77777777777777 L230.75459180054463,28.888888888888914" stroke="#1a1a1a" stroke-width="2.6" stroke-linecap="round" />
<path d="M17.445956459255456,-93.88888888888889 L227.55711085624432,-93.88888888888889" stroke="#1a1a1a" stroke-width="2.6" stroke-linecap="round" />
<path d="M227.55711085624432,-173.33333333333334 L227.55711085624432,-14.444444444444429" stroke="#1a1a1a" stroke-width="2.6" stroke-linecap="round" />
<path d="M-177.36647920126336,-176.94444444444446 L17.445956459255456,-176.94444444444446" stroke="#1a1a1a" stroke-width="2.6" stroke-linecap="round" />
<path d="M17.445956459255456,-260.0 L17.445956459255456,-93.88888888888889" stroke="#1a1a1a" stroke-width="2.6" stroke-linecap="round" />
<path d="M17.32581581126749,86.66666666666669 L469.99999990599997,86.66666666666669" stroke="#1a1a1a" stroke-width="2.6" stroke-linecap="round" />
<path d="M17.32581581126749,144.44444444444446 L469.99999990599997,144.44444444444446" stroke="#1a1a1a" stroke-width="2.6" stroke-linecap="round" />
<path d="M-177.36647920126336,115.55555555555557 L17.32581581126749,115.55555555555557" stroke="#1a1a1a" stroke-width="2.6" stroke-linecap="round" />
<path d="M17.32581581126749,86.66666666666669 L17.32581581126749,144.44444444444446" stroke="#1a1a1a" stroke-width="2.6" stroke-linecap="round" />
<path d="M-470.0,-30.694444444444443 L-177.36647920126336,-30.694444444444443" stroke="#1a1a1a" stroke-width="2.6" stroke-linecap="round" />
<path d="M-177.36647920126336,-176.94444444444446 L-177.36647920126336,115.55555555555557" stroke="#1a1a1a" stroke-width="2.6" stroke-linecap="round" />
<path d="M-405.09871265909015,202.22222222222223 L469.99999991539994,202.22222222222223" stroke="#1a1a1a" stroke-width="2.6" stroke-linecap="round" />
<path d="M-405.09871265909015,260.0 L469.99999991539994,260.0" stroke="#1a1a1a" stroke-width="2.6" stroke-linecap="round" />
<path d="M-470.0,231.11111111111111 L-405.09871265909015,231.11111111111111" stroke="#1a1a1a" stroke-width="2.6" stroke-linecap="round" />
<path d="M-405.09871265909015,202.22222222222223 L-405.09871265909015,260.0" stroke="#1a1a1a" stroke-width="2.6" stroke-linecap="round" />
<path d="M-484.0,100.20833333333334 L-470.0,100.20833333333334" stroke="#1a1a1a" stroke-width="2.6" />
<path d="M-470.0,-30.694444444444443 L-470.0,231.11111111111111" stroke="#1a1a1a" stroke-width="2.6" stroke-linecap="round" />
<text x="481.99999990599997" y="-260.0" font-size="22" fill="#1a1a1a" font-family="Helvetica" transform="" text-anchor="start" dominant-baseline="middle">A</text>
<text x="482.0" y="-202.22222222222223" font-size="22" fill="#1a1a1a" font-family="Helvetica" transform="" text-anchor="start" dominant-baseline="middle">B</text>
<text x="482.0" y="-144.44444444444446" font-size="22" fill="#1a1a1a" font-family="Helvetica" transform="" text-anchor="start" dominant-baseline="middle">C</text>
<text x="481.99999989002004" y="-86.66666666666666" font-size="22" fill="#1a1a1a" font-family="Helvetica" transform="" text-anchor="start" dominant-baseline="middle">D</text>
<text x="481.99999989002004" y="-28.888888888888886" font-size="22" fill="#1a1a1a" font-family="Helvetica" transform="" text-anchor="start" dominant-baseline="middle">E</text>
<text x="481.99999997462" y="28.888888888888914" font-size="22" fill="#1a1a1a" font-family="Helvetica" transform="" text-anchor="start" dominant-baseline="middle">F</text>
<text x="481.99999990599997" y="86.66666666666669" font-size="22" fill="#1a1a1a" font-family="Helvetica" transform="" text-anchor="start" dominant-baseline="middle">G</text>
<text x="481.99999990599997" y="144.44444444444446" font-size="22" fill="#1a1a1a" font-family="Helvetica" transform="" text-anchor="start" dominant-baseline="middle">H</text>
<text x="481.99999991539994" y="202.22222222222223" font-size="22" fill="#1a1a1a" font-family="Helvetica" transform="" text-anchor="start" dominant-baseline="middle">I</text>
<text x="481.99999991539994" y="260.0" font-size="22" fill="#1a1a1a" font-family="Helvetica" transform="" text-anchor="start" dominant-baseline="middle">J</text>
<rect x="244.98799992760118" y="-269.0" width="18.0" height="18.0" fill="#1a1a1a" opacity="1.0" />
<path d="M69.30199994516983,-102.88888888888889 L87.30199994516983,-84.88888888888889" stroke="#1a1a1a" stroke-width="3.0" stroke-linecap="round" />
<path d="M69.30199994516983,-84.88888888888889 L87.30199994516983,-102.88888888888889" stroke="#1a1a1a" stroke-width="3.0" stroke-linecap="round" />
<path d="M62.41599994675842,144.44444444444446 C24.41599994675842,144.44444444444446,62.415999946758404,210.0,62.415999946758404,248.0" stroke-width="2.6" fill="none" stroke-opacity="1.0" stroke="#1a1a1a" />
<path d="M62.415999946758404,260.0 L55.2159999467584,248.0 L69.61599994675841,248.0 Z" fill="#1a1a1a" stroke="none" />
<circle cx="62.41599994675842" cy="144.44444444444446" r="2.5" fill="#1a1a1a" />
<path d="M-484.0,276.0 L469.99999990599997,276.0" stroke="black" stroke-width="1.6" />
<path d="M-470.0,276.0 L-470.0,282.0" stroke="black" stroke-width="1.6" />
<text x="-470.0" y="304.0" font-size="22" text-anchor="middle" font-family="Helvetica">0.00</text>
<path d="M-235.0000000235,276.0 L-235.0000000235,282.0" stroke="black" stroke-width="1.6" />
<text x="-235.0000000235" y="304.0" font-size="22" text-anchor="middle" font-family="Helvetica">0.25</text>
<path d="M-4.7000014546938473e-08,276.0 L-4.7000014546938473e-08,282.0" stroke="black" stroke-width="1.6" />
<text x="-4.7000014546938473e-08" y="304.0" font-size="22" text-anchor="middle" font-family="Helvetica">0.50</text>
<path d="M234.99999992949995,276.0 L234.99999992949995,282.0" stroke="black" stroke-width="1.6" />
<text x="234.99999992949995" y="304.0" font-size="22" text-anchor="middle" font-family="Helvetica">0.75</text>
<path d="M469.99999990599997,276.0 L469.99999990599997,282.0" stroke="black" stroke-width="1.6" />
<text x="469.99999990599997" y="304.0" font-size="22" text-anchor="middle" font-family="Helvetica">1.00</text>
<text x="-7.0000000470000145" y="337.0" font-size="22" text-anchor="middle" font-family="Helvetica">Time (root to present)</text>
<text x="0" y="-338.0" font-size="32" font-weight="bold" font-family="Helvetica" text-anchor="middle" dominant-baseline="central" fill="#1a1a1a">Gene-family events on the species tree</text>
<rect x="-555.0" y="-273.0" width="18.0" height="18.0" fill="#1a1a1a" opacity="1.0" />
<text x="-513.0" y="-264.0" font-size="22" font-family="Helvetica" text-anchor="start" dominant-baseline="central" fill="#1a1a1a">Duplication</text>
<circle cx="-555.0" cy="-224.0" r="3.2" fill="#1a1a1a" />
<path d="M-555.0,-224.0 C-555.0,-236.0,-537.0,-236.0,-537.0,-224.0" stroke="#1a1a1a" stroke-width="2.6" fill="none" stroke-linecap="round" />
<path d="M-537.0,-223.0 L-542.0,-232.0 L-532.0,-232.0 Z" fill="#1a1a1a" />
<text x="-513.0" y="-224.0" font-size="22" font-family="Helvetica" text-anchor="start" dominant-baseline="central" fill="#1a1a1a">Transfer</text>
<path d="M-555.0,-193.0 L-537.0,-175.0" stroke="#1a1a1a" stroke-width="3.0" stroke-linecap="round" />
<path d="M-555.0,-175.0 L-537.0,-193.0" stroke="#1a1a1a" stroke-width="3.0" stroke-linecap="round" />
<text x="-513.0" y="-184.0" font-size="22" font-family="Helvetica" text-anchor="start" dominant-baseline="central" fill="#1a1a1a">Loss</text>
</svg>