<?xml version="1.0" encoding="UTF-8"?>
<svg xmlns="http://www.w3.org/2000/svg" xmlns:xlink="http://www.w3.org/1999/xlink"
     width="1680" height="1030" viewBox="-840.0 -515.0 1680 1030">
<defs>
</defs>
<rect x="-840.0" y="-515.0" width="1680" height="1030" fill="white" />
<path d="M-610.0,-285.0 L609.9999999633999,-285.0" stroke="#1a1a1a" stroke-width="2.6" stroke-linecap="square" />
<path d="M-54.93737431405191,-233.1818181818182 L610.0,-233.1818181818182" stroke="#1a1a1a" stroke-width="2.6" stroke-linecap="square" />
<path d="M298.7806887673364,-181.36363636363637 L609.9999998779999,-181.36363636363637" stroke="#1a1a1a" stroke-width="2.6" stroke-linecap="square" />
<path d="M516.826855109995,-129.54545454545453 L609.9999999023998,-129.54545454545453" stroke="#1a1a1a" stroke-width="2.6" stroke-linecap="square" />
<path d="M516.826855109995,-77.72727272727272 L609.9999999023998,-77.72727272727272" stroke="#1a1a1a" stroke-width="2.6" stroke-linecap="square" />
<path d="M323.9590567697811,-103.63636363636363 L516.826855109995,-103.63636363636363" stroke="#1a1a1a" stroke-width="2.6" stroke-linecap="square" />
<path d="M516.826855109995,-129.54545454545453 L516.826855109995,-77.72727272727272" stroke="#1a1a1a" stroke-width="2.6" stroke-linecap="square" />
<path d="M336.71246860659846,-25.909090909090878 L609.9999999023998,-25.909090909090878" stroke="#1a1a1a" stroke-width="2.6" stroke-linecap="square" />
<path d="M336.71246860659846,25.909090909090935 L609.9999999023998,25.909090909090935" stroke="#1a1a1a" stroke-width="2.6" stroke-linecap="square" />
<path d="M323.9590567697811,2.842170943040401e-14 L336.71246860659846,2.842170943040401e-14" stroke="#1a1a1a" stroke-width="2.6" stroke-linecap="square" />
<path d="M336.71246860659846,-25.909090909090878 L336.71246860659846,25.909090909090935" stroke="#1a1a1a" stroke-width="2.6" stroke-linecap="square" />
<path d="M298.7806887673364,-51.8181818181818 L323.9590567697811,-51.8181818181818" stroke="#1a1a1a" stroke-width="2.6" stroke-linecap="square" />
<path d="M323.9590567697811,-103.63636363636363 L323.9590567697811,2.842170943040401e-14" stroke="#1a1a1a" stroke-width="2.6" stroke-linecap="square" />
<path d="M117.02343115878921,-116.5909090909091 L298.7806887673364,-116.5909090909091" stroke="#1a1a1a" stroke-width="2.6" stroke-linecap="square" />
<path d="M298.7806887673364,-181.36363636363637 L298.7806887673364,-51.8181818181818" stroke="#1a1a1a" stroke-width="2.6" stroke-linecap="square" />
<path d="M117.02343115878921,77.72727272727275 L609.9999998779999,77.72727272727275" stroke="#1a1a1a" stroke-width="2.6" stroke-linecap="square" />
<path d="M-54.93737431405191,-19.431818181818173 L117.02343115878921,-19.431818181818173" stroke="#1a1a1a" stroke-width="2.6" stroke-linecap="square" />
<path d="M117.02343115878921,-116.5909090909091 L117.02343115878921,77.72727272727275" stroke="#1a1a1a" stroke-width="2.6" stroke-linecap="square" />
<path d="M-583.3098867242007,-126.30681818181819 L-54.93737431405191,-126.30681818181819" stroke="#1a1a1a" stroke-width="2.6" stroke-linecap="square" />
<path d="M-54.93737431405191,-233.1818181818182 L-54.93737431405191,-19.431818181818173" stroke="#1a1a1a" stroke-width="2.6" stroke-linecap="square" />
<path d="M-62.591349191822246,129.54545454545456 L609.9999998779999,129.54545454545456" stroke="#1a1a1a" stroke-width="2.6" stroke-linecap="square" />
<path d="M0.39277239368811934,181.36363636363637 L609.9999999633999,181.36363636363637" stroke="#1a1a1a" stroke-width="2.6" stroke-linecap="square" />
<path d="M293.40279928889777,233.18181818181824 L609.9999999633999,233.18181818181824" stroke="#1a1a1a" stroke-width="2.6" stroke-linecap="square" />
<path d="M293.40279928889777,285.0 L609.9999999633999,285.0" stroke="#1a1a1a" stroke-width="2.6" stroke-linecap="square" />
<path d="M0.39277239368811934,259.0909090909091 L293.40279928889777,259.0909090909091" stroke="#1a1a1a" stroke-width="2.6" stroke-linecap="square" />
<path d="M293.40279928889777,233.18181818181824 L293.40279928889777,285.0" stroke="#1a1a1a" stroke-width="2.6" stroke-linecap="square" />
<path d="M-62.591349191822246,220.22727272727275 L0.39277239368811934,220.22727272727275" stroke="#1a1a1a" stroke-width="2.6" stroke-linecap="square" />
<path d="M0.39277239368811934,181.36363636363637 L0.39277239368811934,259.0909090909091" stroke="#1a1a1a" stroke-width="2.6" stroke-linecap="square" />
<path d="M-583.3098867242007,174.88636363636365 L-62.591349191822246,174.88636363636365" stroke="#1a1a1a" stroke-width="2.6" stroke-linecap="square" />
<path d="M-62.591349191822246,129.54545454545456 L-62.591349191822246,220.22727272727275" stroke="#1a1a1a" stroke-width="2.6" stroke-linecap="square" />
<path d="M-610.0,24.289772727272734 L-583.3098867242007,24.289772727272734" stroke="#1a1a1a" stroke-width="2.6" stroke-linecap="square" />
<path d="M-583.3098867242007,-126.30681818181819 L-583.3098867242007,174.88636363636365" stroke="#1a1a1a" stroke-width="2.6" stroke-linecap="square" />
<path d="M-624.0,-130.35511363636363 L-610.0,-130.35511363636363" stroke="#1a1a1a" stroke-width="2.6" />
<path d="M-610.0,-285.0 L-610.0,24.289772727272734" stroke="#1a1a1a" stroke-width="2.6" stroke-linecap="square" />
<circle cx="-617.0" cy="-146.35511363636363" r="6.800000000000001" fill="#4477AA" stroke="none" />
<circle cx="-617.0" cy="-130.35511363636363" r="6.800000000000001" fill="#E08A3C" stroke="none" />
<circle cx="-617.0" cy="-114.35511363636363" r="6.800000000000001" fill="#7B5EA7" stroke="none" />
<rect x="513.6599999660351" y="-86.22727272727272" width="17.0" height="17.0" fill="#4477AA" opacity="1.0" />
<path d="M-293.9800000097356,-293.5 L-276.9800000097356,-276.5" stroke="#4477AA" stroke-width="3.0" stroke-linecap="round" />
<path d="M-293.9800000097356,-276.5 L-276.9800000097356,-293.5" stroke="#4477AA" stroke-width="3.0" stroke-linecap="round" />
<path d="M437.97999996856055,77.72727272727275 C395.97999996856055,77.72727272727275,437.97999996856055,-179.1818181818182,437.97999996856055,-221.1818181818182" stroke-width="2.6" fill="none" stroke-opacity="1.0" stroke="#4477AA" />
<path d="M437.97999996856055,-233.1818181818182 L430.77999996856056,-221.1818181818182 L445.17999996856054,-221.1818181818182 Z" fill="#4477AA" stroke="none" />
<circle cx="437.97999996856055" cy="77.72727272727275" r="2.5" fill="#4477AA" />
<rect x="527.0799999656324" y="-189.86363636363637" width="17.0" height="17.0" fill="#E08A3C" opacity="1.0" />
<path d="M150.0999999769419,172.86363636363637 L167.0999999769419,189.86363636363637" stroke="#E08A3C" stroke-width="3.0" stroke-linecap="round" />
<path d="M150.0999999769419,189.86363636363637 L167.0999999769419,172.86363636363637" stroke="#E08A3C" stroke-width="3.0" stroke-linecap="round" />
<path d="M461.15999996786513,77.72727272727275 C419.15999996786513,77.72727272727275,461.1599999678651,28.090909090909122,461.1599999678651,-13.909090909090878" stroke-width="2.6" fill="none" stroke-opacity="1.0" stroke="#E08A3C" />
<path d="M461.1599999678651,-25.909090909090878 L453.9599999678651,-13.909090909090878 L468.35999996786506,-13.909090909090878 Z" fill="#E08A3C" stroke="none" />
<circle cx="461.15999996786513" cy="77.72727272727275" r="2.5" fill="#E08A3C" />
<rect x="529.5199999655592" y="-138.04545454545453" width="17.0" height="17.0" fill="#7B5EA7" opacity="1.0" />
<path d="M175.71999997617334,69.22727272727275 L192.71999997617334,86.22727272727275" stroke="#7B5EA7" stroke-width="3.0" stroke-linecap="round" />
<path d="M175.71999997617334,86.22727272727275 L192.71999997617334,69.22727272727275" stroke="#7B5EA7" stroke-width="3.0" stroke-linecap="round" />
<path d="M-2.4400000182268826,-19.431818181818173 C-44.44000001822688,-19.431818181818173,-2.440000018226897,-231.0,-2.440000018226897,-273.0" stroke-width="2.6" fill="none" stroke-opacity="1.0" stroke="#7B5EA7" />
<path d="M-2.440000018226897,-285.0 L-9.640000018226896,-273.0 L4.7599999817731025,-273.0 Z" fill="#7B5EA7" stroke="none" />
<circle cx="-2.4400000182268826" cy="-19.431818181818173" r="2.5" fill="#7B5EA7" />
<path d="M-624.0,301.0 L609.9999999633999,301.0" stroke="black" stroke-width="1.6" />
<path d="M-610.0,301.0 L-610.0,307.0" stroke="black" stroke-width="1.6" />
<text x="-610.0" y="329.0" font-size="22" text-anchor="middle" font-family="Helvetica">0.00</text>
<path d="M-305.00000000915,301.0 L-305.00000000915,307.0" stroke="black" stroke-width="1.6" />
<text x="-305.00000000915" y="329.0" font-size="22" text-anchor="middle" font-family="Helvetica">0.25</text>
<path d="M-1.830005658121081e-08,301.0 L-1.830005658121081e-08,307.0" stroke="black" stroke-width="1.6" />
<text x="-1.830005658121081e-08" y="329.0" font-size="22" text-anchor="middle" font-family="Helvetica">0.50</text>
<path d="M304.99999997254986,301.0 L304.99999997254986,307.0" stroke="black" stroke-width="1.6" />
<text x="304.99999997254986" y="329.0" font-size="22" text-anchor="middle" font-family="Helvetica">0.75</text>
<path d="M609.9999999633999,301.0 L609.9999999633999,307.0" stroke="black" stroke-width="1.6" />
<text x="609.9999999633999" y="329.0" font-size="22" text-anchor="middle" font-family="Helvetica">1.00</text>
<text x="-7.000000018300057" y="362.0" font-size="22" text-anchor="middle" font-family="Helvetica">Time (root to present)</text>
<text x="0" y="-471.0" font-size="32" font-weight="bold" font-family="Helvetica" text-anchor="middle" dominant-baseline="central" fill="#1a1a1a">Three gene families on one species tree</text>
<text x="-794.0" y="-415.0" font-size="22" font-weight="bold" font-family="Helvetica" text-anchor="start" dominant-baseline="central" fill="#1a1a1a">Gene family</text>
<rect x="-794.0" y="-390.9" width="20.0" height="20.0" fill="#4477AA" opacity="1.0" />
<text x="-754.0" y="-380.9" font-size="22" font-family="Helvetica" text-anchor="start" dominant-baseline="central" fill="#1a1a1a">Family 1</text>
<rect x="-794.0" y="-356.79999999999995" width="20.0" height="20.0" fill="#E08A3C" opacity="1.0" />
<text x="-754.0" y="-346.79999999999995" font-size="22" font-family="Helvetica" text-anchor="start" dominant-baseline="central" fill="#1a1a1a">Family 2</text>
<rect x="-794.0" y="-322.69999999999993" width="20.0" height="20.0" fill="#7B5EA7" opacity="1.0" />
<text x="-754.0" y="-312.69999999999993" font-size="22" font-family="Helvetica" text-anchor="start" dominant-baseline="central" fill="#1a1a1a">Family 3</text>
<text x="-494.0" y="-415.0" font-size="22" font-weight="bold" font-family="Helvetica" text-anchor="start" dominant-baseline="central" fill="#1a1a1a">Event</text>
<circle cx="-484.0" cy="-380.9" r="10" fill="#1a1a1a" stroke="none" />
<text x="-454.0" y="-380.9" font-size="22" font-family="Helvetica" text-anchor="start" dominant-baseline="central" fill="#1a1a1a">Origination</text>
<rect x="-494.0" y="-356.8" width="20.0" height="20.0" fill="#1a1a1a" opacity="1.0" />
<text x="-454.0" y="-346.8" font-size="22" font-family="Helvetica" text-anchor="start" dominant-baseline="central" fill="#1a1a1a">Duplication</text>
<circle cx="-314.0" cy="-380.9" r="3.4" fill="#1a1a1a" />
<path d="M-314.0,-380.9 C-314.0,-391.9,-294.0,-391.9,-294.0,-380.9" stroke="#1a1a1a" stroke-width="2.6" fill="none" stroke-linecap="round" />
<path d="M-294.0,-379.9 L-299.0,-387.9 L-289.0,-387.9 Z" fill="#1a1a1a" />
<text x="-274.0" y="-380.9" font-size="22" font-family="Helvetica" text-anchor="start" dominant-baseline="central" fill="#1a1a1a">Transfer</text>
<path d="M-314.0,-356.8 L-294.0,-336.8" stroke="#1a1a1a" stroke-width="3.0" stroke-linecap="round" />
<path d="M-314.0,-336.8 L-294.0,-356.8" stroke="#1a1a1a" stroke-width="3.0" stroke-linecap="round" />
<text x="-274.0" y="-346.8" font-size="22" font-family="Helvetica" text-anchor="start" dominant-baseline="central" fill="#1a1a1a">Loss</text>
</svg>