<?xml version="1.0" encoding="UTF-8"?>
<svg xmlns="http://www.w3.org/2000/svg" xmlns:xlink="http://www.w3.org/1999/xlink"
     width="1200" height="700" viewBox="0 0 1200 700">
<defs>
</defs>
<rect x="0" y="0" width="1200" height="700" fill="white" />
<text x="600.0" y="46" font-size="32" font-family="Helvetica" text-anchor="middle" font-weight="bold" fill="#1a1a1a">State-dependent diversification (BiSSE)</text>
<path d="M300.0,82 L332.0,82" stroke="#1a1a1a" stroke-width="5.2" />
<text x="344.0" y="89.48" font-size="22" font-family="Helvetica" text-anchor="start" fill="#1a1a1a">in state 1</text>
<path d="M450.0,82 L482.0,82" stroke="#9a9a9a" stroke-width="2.4" />
<text x="494.0" y="89.48" font-size="22" font-family="Helvetica" text-anchor="start" fill="#1a1a1a">in state 0</text>
<path d="M605.0,77.0 L615.0,87.0" stroke="#1a1a1a" stroke-width="2.2" />
<path d="M605.0,87.0 L615.0,77.0" stroke="#1a1a1a" stroke-width="2.2" />
<text x="624.0" y="89.48" font-size="22" font-family="Helvetica" text-anchor="start" fill="#1a1a1a">extinct</text>
<text x="150" y="170" font-size="22" font-family="Helvetica" text-anchor="start" fill="#1a1a1a" font-weight="bold">A</text>
<text x="335.0" y="170" font-size="22" font-family="Helvetica" text-anchor="middle" fill="#1a1a1a" font-weight="bold">the model</text>
<path d="M243.572981485168,314.62832296237315 Q335.0,300.0,426.427018514832,314.6283229623731" fill="none" stroke="#1a1a1a" stroke-width="2.481816307401944" stroke-linecap="round" />
<path d="M426.427018514832,314.6283229623731 L415.80054113101846,317.4705014246268 L417.2178312538465,308.61243815695155 Z" fill="#1a1a1a" />
<text x="335.0" y="284.0" font-size="22" font-family="Helvetica" text-anchor="middle" dominant-baseline="central" fill="#8a8a8a">0.12</text>
<path d="M426.427018514832,325.3716770376269 Q335.0,340.0,243.572981485168,325.37167703762685" fill="none" stroke="#1a1a1a" stroke-width="2.481816307401944" stroke-linecap="round" />
<path d="M243.572981485168,325.37167703762685 L254.19945886898157,322.52949857537317 L252.7821687461535,331.3875618430484 Z" fill="#1a1a1a" />
<text x="335.0" y="356.0" font-size="22" font-family="Helvetica" text-anchor="middle" dominant-baseline="central" fill="#8a8a8a">0.12</text>
<circle cx="210" cy="320" r="34" fill="white" stroke="#1a1a1a" stroke-width="2.2" />
<text x="210" y="327.48" font-size="22" font-family="Helvetica" text-anchor="middle" fill="#1a1a1a" font-weight="bold">0</text>
<circle cx="460" cy="320" r="34" fill="white" stroke="#1a1a1a" stroke-width="2.2" />
<text x="460" y="327.48" font-size="22" font-family="Helvetica" text-anchor="middle" fill="#1a1a1a" font-weight="bold">1</text>
<path d="M210,366 L210,382" stroke="#1a1a1a" stroke-width="4.1" stroke-linecap="round" />
<path d="M210,382 L188,404" stroke="#1a1a1a" stroke-width="4.1" stroke-linecap="round" />
<path d="M210,382 L232,404" stroke="#1a1a1a" stroke-width="4.1" stroke-linecap="round" />
<path d="M460,366 L460,382" stroke="#1a1a1a" stroke-width="8.3" stroke-linecap="round" />
<path d="M460,382 L438,404" stroke="#1a1a1a" stroke-width="8.3" stroke-linecap="round" />
<path d="M460,382 L482,404" stroke="#1a1a1a" stroke-width="8.3" stroke-linecap="round" />
<text x="210" y="438" font-size="22" font-family="Helvetica" text-anchor="middle" fill="#1a1a1a">lambda = 1,  mu = 0.3</text>
<text x="460" y="438" font-size="22" font-family="Helvetica" text-anchor="middle" fill="#1a1a1a">lambda = 3,  mu = 0.3</text>
<text x="335.0" y="478" font-size="22" font-family="Helvetica" text-anchor="middle" fill="#8a8a8a">nodes = state;  arrows = transitions;</text>
<text x="335.0" y="506" font-size="22" font-family="Helvetica" text-anchor="middle" fill="#8a8a8a">fork width = speciation rate</text>
<text x="335.0" y="224" font-size="22" font-family="Helvetica" text-anchor="middle" fill="#1a1a1a" font-style="italic">state 1 branches 3x faster</text>
<text x="560" y="144" font-size="22" font-family="Helvetica" text-anchor="start" fill="#1a1a1a" font-weight="bold">B</text>
<text x="860.0" y="144" font-size="22" font-family="Helvetica" text-anchor="middle" fill="#1a1a1a" font-weight="bold">a simulated realization</text>
<text x="1126" y="174" font-size="22" font-family="Helvetica" text-anchor="end" fill="#1a1a1a" font-style="italic">state 1 fills 9 of 12 extant tips</text>
<path d="M604.0,205.86666666666667 L772.2930733601363,205.86666666666667" stroke="#1a1a1a" stroke-width="5.2" stroke-linecap="butt" />
<path d="M604.0,487.32916666666665 L627.0952059355446,487.32916666666665" stroke="#1a1a1a" stroke-width="5.2" stroke-linecap="butt" />
<path d="M772.2930733601363,194.0 L899.575781299455,194.0" stroke="#1a1a1a" stroke-width="5.2" stroke-linecap="butt" />
<path d="M899.575781299455,194.0 L1054.0,194.0" stroke="#9a9a9a" stroke-width="2.4" stroke-linecap="butt" />
<path d="M772.2930733601363,217.73333333333335 L1054.0,217.73333333333335" stroke="#1a1a1a" stroke-width="5.2" stroke-linecap="butt" />
<path d="M627.0952059355446,424.6583333333333 L679.7698748832331,424.6583333333333" stroke="#1a1a1a" stroke-width="5.2" stroke-linecap="butt" />
<path d="M627.0952059355446,550.0 L642.2635961927648,550.0" stroke="#1a1a1a" stroke-width="5.2" stroke-linecap="butt" />
<path d="M636.2635961927648,544.0 L648.2635961927648,556.0" stroke="#1a1a1a" stroke-width="2.2" />
<path d="M636.2635961927648,556.0 L648.2635961927648,544.0" stroke="#1a1a1a" stroke-width="2.2" />
<path d="M679.7698748832331,323.04999999999995 L771.8662042884797,323.04999999999995" stroke="#1a1a1a" stroke-width="5.2" stroke-linecap="butt" />
<path d="M679.7698748832331,526.2666666666667 L742.2042728404087,526.2666666666667" stroke="#1a1a1a" stroke-width="5.2" stroke-linecap="butt" />
<path d="M736.2042728404087,520.2666666666667 L748.2042728404087,532.2666666666667" stroke="#1a1a1a" stroke-width="2.2" />
<path d="M736.2042728404087,532.2666666666667 L748.2042728404087,520.2666666666667" stroke="#1a1a1a" stroke-width="2.2" />
<path d="M771.8662042884797,259.26666666666665 L836.0274641177535,259.26666666666665" stroke="#1a1a1a" stroke-width="5.2" stroke-linecap="butt" />
<path d="M771.8662042884797,386.8333333333333 L779.5810655744157,386.8333333333333" stroke="#1a1a1a" stroke-width="5.2" stroke-linecap="butt" />
<path d="M836.0274641177535,241.46666666666667 L907.3958580058231,241.46666666666667" stroke="#1a1a1a" stroke-width="5.2" stroke-linecap="butt" />
<path d="M907.3958580058231,241.46666666666667 L1054.0,241.46666666666667" stroke="#9a9a9a" stroke-width="2.4" stroke-linecap="butt" />
<path d="M836.0274641177535,277.06666666666666 L995.1656403040315,277.06666666666666" stroke="#1a1a1a" stroke-width="5.2" stroke-linecap="butt" />
<path d="M779.5810655744157,330.4666666666667 L789.8403719634123,330.4666666666667" stroke="#1a1a1a" stroke-width="5.2" stroke-linecap="butt" />
<path d="M789.8403719634123,330.4666666666667 L816.4233766582254,330.4666666666667" stroke="#9a9a9a" stroke-width="2.4" stroke-linecap="butt" />
<path d="M779.5810655744157,443.2 L838.3098827187813,443.2" stroke="#1a1a1a" stroke-width="5.2" stroke-linecap="butt" />
<path d="M995.1656403040315,265.2 L1054.0,265.2" stroke="#1a1a1a" stroke-width="5.2" stroke-linecap="butt" />
<path d="M995.1656403040315,288.93333333333334 L1054.0,288.93333333333334" stroke="#1a1a1a" stroke-width="5.2" stroke-linecap="butt" />
<path d="M816.4233766582254,312.66666666666663 L992.3068929095901,312.66666666666663" stroke="#9a9a9a" stroke-width="2.4" stroke-linecap="butt" />
<path d="M986.3068929095901,306.66666666666663 L998.3068929095901,318.66666666666663" stroke="#1a1a1a" stroke-width="2.2" />
<path d="M986.3068929095901,318.66666666666663 L998.3068929095901,306.66666666666663" stroke="#1a1a1a" stroke-width="2.2" />
<path d="M816.4233766582254,348.26666666666665 L867.5750042621639,348.26666666666665" stroke="#9a9a9a" stroke-width="2.4" stroke-linecap="butt" />
<path d="M838.3098827187813,401.6666666666667 L854.9512664514253,401.6666666666667" stroke="#1a1a1a" stroke-width="5.2" stroke-linecap="butt" />
<path d="M838.3098827187813,484.73333333333335 L905.111174928223,484.73333333333335" stroke="#1a1a1a" stroke-width="5.2" stroke-linecap="butt" />
<path d="M867.5750042621639,336.4 L1054.0,336.4" stroke="#9a9a9a" stroke-width="2.4" stroke-linecap="butt" />
<path d="M867.5750042621639,360.1333333333333 L927.7458622839351,360.1333333333333" stroke="#9a9a9a" stroke-width="2.4" stroke-linecap="butt" />
<path d="M921.7458622839351,354.1333333333333 L933.7458622839351,366.1333333333333" stroke="#1a1a1a" stroke-width="2.2" />
<path d="M921.7458622839351,366.1333333333333 L933.7458622839351,354.1333333333333" stroke="#1a1a1a" stroke-width="2.2" />
<path d="M854.9512664514253,383.8666666666667 L1054.0,383.8666666666667" stroke="#1a1a1a" stroke-width="5.2" stroke-linecap="butt" />
<path d="M854.9512664514253,419.4666666666667 L1030.45490198966,419.4666666666667" stroke="#1a1a1a" stroke-width="5.2" stroke-linecap="butt" />
<path d="M905.111174928223,466.93333333333334 L1054.0,466.93333333333334" stroke="#1a1a1a" stroke-width="5.2" stroke-linecap="butt" />
<path d="M905.111174928223,502.53333333333336 L1054.0,502.53333333333336" stroke="#1a1a1a" stroke-width="5.2" stroke-linecap="butt" />
<path d="M1030.45490198966,407.6 L1054.0,407.6" stroke="#1a1a1a" stroke-width="5.2" stroke-linecap="butt" />
<path d="M1030.45490198966,431.3333333333333 L1054.0,431.3333333333333" stroke="#1a1a1a" stroke-width="5.2" stroke-linecap="butt" />
<path d="M1054.0,455.06666666666666 L1054.0,455.06666666666666" stroke="#1a1a1a" stroke-width="5.2" stroke-linecap="butt" />
<path d="M1054.0,478.8 L1054.0,478.8" stroke="#1a1a1a" stroke-width="5.2" stroke-linecap="butt" />
<path d="M772.2930733601363,194.0 L772.2930733601363,217.73333333333335" stroke="#1a1a1a" stroke-width="2.4" />
<path d="M995.1656403040315,265.2 L995.1656403040315,288.93333333333334" stroke="#1a1a1a" stroke-width="2.4" />
<path d="M836.0274641177535,241.46666666666667 L836.0274641177535,277.06666666666666" stroke="#1a1a1a" stroke-width="2.4" />
<path d="M867.5750042621639,336.4 L867.5750042621639,360.1333333333333" stroke="#1a1a1a" stroke-width="2.4" />
<path d="M816.4233766582254,312.66666666666663 L816.4233766582254,348.26666666666665" stroke="#1a1a1a" stroke-width="2.4" />
<path d="M1030.45490198966,407.6 L1030.45490198966,431.3333333333333" stroke="#1a1a1a" stroke-width="2.4" />
<path d="M854.9512664514253,383.8666666666667 L854.9512664514253,419.4666666666667" stroke="#1a1a1a" stroke-width="2.4" />
<path d="M1054.0,455.06666666666666 L1054.0,478.8" stroke="#1a1a1a" stroke-width="2.4" />
<path d="M905.111174928223,466.93333333333334 L905.111174928223,502.53333333333336" stroke="#1a1a1a" stroke-width="2.4" />
<path d="M838.3098827187813,401.6666666666667 L838.3098827187813,484.73333333333335" stroke="#1a1a1a" stroke-width="2.4" />
<path d="M779.5810655744157,330.4666666666667 L779.5810655744157,443.2" stroke="#1a1a1a" stroke-width="2.4" />
<path d="M771.8662042884797,259.26666666666665 L771.8662042884797,386.8333333333333" stroke="#1a1a1a" stroke-width="2.4" />
<path d="M679.7698748832331,323.04999999999995 L679.7698748832331,526.2666666666667" stroke="#1a1a1a" stroke-width="2.4" />
<path d="M627.0952059355446,424.6583333333333 L627.0952059355446,550.0" stroke="#1a1a1a" stroke-width="2.4" />
<path d="M604.0,205.86666666666667 L604.0,487.32916666666665" stroke="#1a1a1a" stroke-width="2.4" />
<rect x="1117" y="185.0" width="18" height="18" fill="white" stroke="#1a1a1a" stroke-width="1.6" />
<rect x="1117" y="208.73333333333335" width="18" height="18" fill="#1a1a1a" stroke="#1a1a1a" stroke-width="1.6" />
<rect x="1117" y="232.46666666666667" width="18" height="18" fill="white" stroke="#1a1a1a" stroke-width="1.6" />
<rect x="1117" y="256.2" width="18" height="18" fill="#1a1a1a" stroke="#1a1a1a" stroke-width="1.6" />
<rect x="1117" y="279.93333333333334" width="18" height="18" fill="#1a1a1a" stroke="#1a1a1a" stroke-width="1.6" />
<rect x="1117" y="327.4" width="18" height="18" fill="white" stroke="#1a1a1a" stroke-width="1.6" />
<rect x="1117" y="374.8666666666667" width="18" height="18" fill="#1a1a1a" stroke="#1a1a1a" stroke-width="1.6" />
<rect x="1117" y="398.6" width="18" height="18" fill="#1a1a1a" stroke="#1a1a1a" stroke-width="1.6" />
<rect x="1117" y="422.3333333333333" width="18" height="18" fill="#1a1a1a" stroke="#1a1a1a" stroke-width="1.6" />
<rect x="1117" y="446.06666666666666" width="18" height="18" fill="#1a1a1a" stroke="#1a1a1a" stroke-width="1.6" />
<rect x="1117" y="469.8" width="18" height="18" fill="#1a1a1a" stroke="#1a1a1a" stroke-width="1.6" />
<rect x="1117" y="493.53333333333336" width="18" height="18" fill="#1a1a1a" stroke="#1a1a1a" stroke-width="1.6" />
<path d="M604.0,602 L1054.0,602" stroke="#1a1a1a" stroke-width="1.6" />
<path d="M604.0,602 L604.0,608" stroke="#1a1a1a" stroke-width="1.6" />
<text x="604.0" y="624" font-size="22" font-family="Helvetica" text-anchor="middle" fill="#1a1a1a">0.0</text>
<path d="M716.5,602 L716.5,608" stroke="#1a1a1a" stroke-width="1.6" />
<text x="716.5" y="624" font-size="22" font-family="Helvetica" text-anchor="middle" fill="#1a1a1a">0.3</text>
<path d="M829.0,602 L829.0,608" stroke="#1a1a1a" stroke-width="1.6" />
<text x="829.0" y="624" font-size="22" font-family="Helvetica" text-anchor="middle" fill="#1a1a1a">0.5</text>
<path d="M941.5,602 L941.5,608" stroke="#1a1a1a" stroke-width="1.6" />
<text x="941.5" y="624" font-size="22" font-family="Helvetica" text-anchor="middle" fill="#1a1a1a">0.8</text>
<path d="M1054.0,602 L1054.0,608" stroke="#1a1a1a" stroke-width="1.6" />
<text x="1054.0" y="624" font-size="22" font-family="Helvetica" text-anchor="middle" fill="#1a1a1a">1.0</text>
<text x="829.0" y="646" font-size="22" font-family="Helvetica" text-anchor="middle" fill="#8a8a8a">time (root to present)</text>
</svg>