<?xml version="1.0" encoding="UTF-8"?>
<svg xmlns="http://www.w3.org/2000/svg" xmlns:xlink="http://www.w3.org/1999/xlink"
     width="1200" height="660" viewBox="0 0 1200 660">
<defs>
</defs>
<rect x="0" y="0" width="1200" height="660" fill="white" />
<text x="600.0" y="46" font-size="32" font-family="Helvetica" text-anchor="middle" font-weight="bold" fill="#1a1a1a">A discrete character under the Mk model</text>
<rect x="450.0" y="74" width="18" height="18" fill="#5a86a0" stroke="#1a1a1a" stroke-width="1.4" />
<text x="476.0" y="90.48" font-size="22" font-family="Helvetica" text-anchor="start" fill="#1a1a1a">state A</text>
<rect x="560.0" y="74" width="18" height="18" fill="#8fae86" stroke="#1a1a1a" stroke-width="1.4" />
<text x="586.0" y="90.48" font-size="22" font-family="Helvetica" text-anchor="start" fill="#1a1a1a">state B</text>
<rect x="670.0" y="74" width="18" height="18" fill="#e0cfa4" stroke="#1a1a1a" stroke-width="1.4" />
<text x="696.0" y="90.48" font-size="22" font-family="Helvetica" text-anchor="start" fill="#1a1a1a">state C</text>
<text x="150" y="126" font-size="22" font-family="Helvetica" text-anchor="start" fill="#1a1a1a" font-weight="bold">A   the model</text>
<path d="M279.5861837798008,269.1896323499957 Q227.05124503538997,339.16212816274293,194.6070395182176,420.4237026460337" fill="none" stroke="#1a1a1a" stroke-width="3.4" stroke-linecap="round" />
<path d="M194.6070395182176,420.4237026460337 L194.16567520736007,409.4325608698077 L202.49692335235815,412.7588651993707 Z" fill="#1a1a1a" />
<text x="213.10249007077994" y="331.32425632548586" font-size="22" font-family="Helvetica" text-anchor="middle" dominant-baseline="central" fill="#8a8a8a">q</text>
<path d="M202.41381622019915,424.8103676500043 Q254.94875496461003,354.83787183725707,287.3929604817824,273.5762973539663" fill="none" stroke="#1a1a1a" stroke-width="3.4" stroke-linecap="round" />
<path d="M287.3929604817824,273.5762973539663 L287.8343247926399,284.5674391301923 L279.5030766476418,281.2411348006293 Z" fill="#1a1a1a" />
<path d="M215.6916909981247,447.4316351188983 Q300.0,436.0,384.3083090018753,447.4316351188983" fill="none" stroke="#1a1a1a" stroke-width="3.4" stroke-linecap="round" />
<path d="M384.3083090018753,447.4316351188983 L373.75273845454774,450.52678138691084 L374.95807868220976,441.6373972079037 Z" fill="#1a1a1a" />
<text x="300.0" y="420.0" font-size="22" font-family="Helvetica" text-anchor="middle" dominant-baseline="central" fill="#8a8a8a">q</text>
<path d="M384.3083090018753,456.5683648811017 Q300.0,468.0,215.6916909981247,456.5683648811017" fill="none" stroke="#1a1a1a" stroke-width="3.4" stroke-linecap="round" />
<path d="M215.6916909981247,456.5683648811017 L226.2472615454522,453.47321861308916 L225.0419213177902,462.3626027920963 Z" fill="#1a1a1a" />
<path d="M320.4138162201992,269.1896323499957 Q372.94875496461003,339.16212816274293,405.3929604817824,420.4237026460337" fill="none" stroke="#1a1a1a" stroke-width="3.4" stroke-linecap="round" />
<path d="M405.3929604817824,420.4237026460337 L397.5030766476418,412.7588651993707 L405.8343247926399,409.4325608698077 Z" fill="#1a1a1a" />
<text x="386.89750992922006" y="331.32425632548586" font-size="22" font-family="Helvetica" text-anchor="middle" dominant-baseline="central" fill="#8a8a8a">q</text>
<path d="M397.5861837798008,424.8103676500043 Q345.05124503538997,354.83787183725707,312.6070395182176,273.5762973539663" fill="none" stroke="#1a1a1a" stroke-width="3.4" stroke-linecap="round" />
<path d="M312.6070395182176,273.5762973539663 L320.4969233523582,281.2411348006293 L312.1656752073601,284.5674391301923 Z" fill="#1a1a1a" />
<circle cx="300" cy="242" r="34" fill="#5a86a0" stroke="#1a1a1a" stroke-width="2.2" />
<text x="300" y="242" font-size="22" font-family="Helvetica" text-anchor="middle" dominant-baseline="central" font-weight="bold" fill="white">A</text>
<circle cx="182" cy="452" r="34" fill="#8fae86" stroke="#1a1a1a" stroke-width="2.2" />
<text x="182" y="452" font-size="22" font-family="Helvetica" text-anchor="middle" dominant-baseline="central" font-weight="bold" fill="#1a1a1a">B</text>
<circle cx="418" cy="452" r="34" fill="#e0cfa4" stroke="#1a1a1a" stroke-width="2.2" />
<text x="418" y="452" font-size="22" font-family="Helvetica" text-anchor="middle" dominant-baseline="central" font-weight="bold" fill="#1a1a1a">C</text>
<text x="300" y="510" font-size="22" font-family="Helvetica" text-anchor="middle" fill="#8a8a8a">equal-rates Q (one shared rate q)</text>
<text x="560" y="126" font-size="22" font-family="Helvetica" text-anchor="start" fill="#1a1a1a" font-weight="bold">B   a simulated realization</text>
<path d="M610.0,228.86363636363637 L651.1768746891935,228.86363636363637" stroke="#e0cfa4" stroke-width="5.0" stroke-linecap="butt" />
<path d="M610.0,507.3863636363636 L627.6382264871967,507.3863636363636" stroke="#e0cfa4" stroke-width="5.0" stroke-linecap="butt" />
<path d="M651.1768746891935,190.0 L1040.0,190.0" stroke="#e0cfa4" stroke-width="5.0" stroke-linecap="butt" />
<path d="M651.1768746891935,267.72727272727275 L813.7869202667971,267.72727272727275" stroke="#e0cfa4" stroke-width="5.0" stroke-linecap="butt" />
<path d="M813.7869202667971,267.72727272727275 L836.6040589499519,267.72727272727275" stroke="#5a86a0" stroke-width="5.0" stroke-linecap="butt" />
<path d="M627.6382264871967,444.77272727272725 L697.9559247326558,444.77272727272725" stroke="#e0cfa4" stroke-width="5.0" stroke-linecap="butt" />
<path d="M627.6382264871967,570.0 L1040.0,570.0" stroke="#e0cfa4" stroke-width="5.0" stroke-linecap="butt" />
<path d="M836.6040589499519,241.8181818181818 L1018.7766845975207,241.8181818181818" stroke="#5a86a0" stroke-width="5.0" stroke-linecap="butt" />
<path d="M836.6040589499519,293.6363636363636 L1040.0,293.6363636363636" stroke="#5a86a0" stroke-width="5.0" stroke-linecap="butt" />
<path d="M697.9559247326558,371.3636363636364 L767.8934077012473,371.3636363636364" stroke="#e0cfa4" stroke-width="5.0" stroke-linecap="butt" />
<path d="M767.8934077012473,371.3636363636364 L863.8552656429288,371.3636363636364" stroke="#8fae86" stroke-width="5.0" stroke-linecap="butt" />
<path d="M697.9559247326558,518.1818181818182 L710.7858239911855,518.1818181818182" stroke="#e0cfa4" stroke-width="5.0" stroke-linecap="butt" />
<path d="M710.7858239911855,518.1818181818182 L711.2348368275841,518.1818181818182" stroke="#8fae86" stroke-width="5.0" stroke-linecap="butt" />
<path d="M711.2348368275841,518.1818181818182 L739.2316701980757,518.1818181818182" stroke="#e0cfa4" stroke-width="5.0" stroke-linecap="butt" />
<path d="M1018.7766845975207,224.54545454545456 L1040.0,224.54545454545456" stroke="#5a86a0" stroke-width="5.0" stroke-linecap="butt" />
<path d="M1018.7766845975207,259.0909090909091 L1036.5365962802762,259.0909090909091" stroke="#5a86a0" stroke-width="5.0" stroke-linecap="butt" />
<path d="M1036.5365962802762,259.0909090909091 L1040.0,259.0909090909091" stroke="#e0cfa4" stroke-width="5.0" stroke-linecap="butt" />
<path d="M863.8552656429288,328.1818181818182 L1040.0,328.1818181818182" stroke="#8fae86" stroke-width="5.0" stroke-linecap="butt" />
<path d="M863.8552656429288,414.54545454545456 L877.16204416037,414.54545454545456" stroke="#8fae86" stroke-width="5.0" stroke-linecap="butt" />
<path d="M739.2316701980757,500.90909090909093 L832.9163663863931,500.90909090909093" stroke="#e0cfa4" stroke-width="5.0" stroke-linecap="butt" />
<path d="M832.9163663863931,500.90909090909093 L1040.0,500.90909090909093" stroke="#5a86a0" stroke-width="5.0" stroke-linecap="butt" />
<path d="M739.2316701980757,535.4545454545455 L897.9597739774108,535.4545454545455" stroke="#e0cfa4" stroke-width="5.0" stroke-linecap="butt" />
<path d="M897.9597739774108,535.4545454545455 L1040.0,535.4545454545455" stroke="#5a86a0" stroke-width="5.0" stroke-linecap="butt" />
<path d="M877.16204416037,380.0 L902.6094411035967,380.0" stroke="#8fae86" stroke-width="5.0" stroke-linecap="butt" />
<path d="M902.6094411035967,380.0 L992.389576036916,380.0" stroke="#e0cfa4" stroke-width="5.0" stroke-linecap="butt" />
<path d="M877.16204416037,449.09090909090907 L927.7153524475939,449.09090909090907" stroke="#8fae86" stroke-width="5.0" stroke-linecap="butt" />
<path d="M992.389576036916,362.72727272727275 L1040.0,362.72727272727275" stroke="#e0cfa4" stroke-width="5.0" stroke-linecap="butt" />
<path d="M992.389576036916,397.27272727272725 L1005.9602097121342,397.27272727272725" stroke="#e0cfa4" stroke-width="5.0" stroke-linecap="butt" />
<path d="M1005.9602097121342,397.27272727272725 L1040.0,397.27272727272725" stroke="#8fae86" stroke-width="5.0" stroke-linecap="butt" />
<path d="M927.7153524475939,431.8181818181818 L1040.0,431.8181818181818" stroke="#8fae86" stroke-width="5.0" stroke-linecap="butt" />
<path d="M927.7153524475939,466.3636363636364 L1040.0,466.3636363636364" stroke="#8fae86" stroke-width="5.0" stroke-linecap="butt" />
<path d="M1018.7766845975207,224.54545454545456 L1018.7766845975207,259.0909090909091" stroke="#5a86a0" stroke-width="5.0" />
<path d="M836.6040589499519,241.8181818181818 L836.6040589499519,293.6363636363636" stroke="#5a86a0" stroke-width="5.0" />
<path d="M651.1768746891935,190.0 L651.1768746891935,267.72727272727275" stroke="#e0cfa4" stroke-width="5.0" />
<path d="M992.389576036916,362.72727272727275 L992.389576036916,397.27272727272725" stroke="#e0cfa4" stroke-width="5.0" />
<path d="M927.7153524475939,431.8181818181818 L927.7153524475939,466.3636363636364" stroke="#8fae86" stroke-width="5.0" />
<path d="M877.16204416037,380.0 L877.16204416037,449.09090909090907" stroke="#8fae86" stroke-width="5.0" />
<path d="M863.8552656429288,328.1818181818182 L863.8552656429288,414.54545454545456" stroke="#8fae86" stroke-width="5.0" />
<path d="M739.2316701980757,500.90909090909093 L739.2316701980757,535.4545454545455" stroke="#e0cfa4" stroke-width="5.0" />
<path d="M697.9559247326558,371.3636363636364 L697.9559247326558,518.1818181818182" stroke="#e0cfa4" stroke-width="5.0" />
<path d="M627.6382264871967,444.77272727272725 L627.6382264871967,570.0" stroke="#e0cfa4" stroke-width="5.0" />
<path d="M610.0,228.86363636363637 L610.0,507.3863636363636" stroke="#e0cfa4" stroke-width="5.0" />
<rect x="1058" y="178.0" width="24" height="24" fill="#e0cfa4" stroke="#1a1a1a" stroke-width="1.5" />
<rect x="1058" y="212.54545454545456" width="24" height="24" fill="#5a86a0" stroke="#1a1a1a" stroke-width="1.5" />
<rect x="1058" y="247.09090909090912" width="24" height="24" fill="#e0cfa4" stroke="#1a1a1a" stroke-width="1.5" />
<rect x="1058" y="281.6363636363636" width="24" height="24" fill="#5a86a0" stroke="#1a1a1a" stroke-width="1.5" />
<rect x="1058" y="316.1818181818182" width="24" height="24" fill="#8fae86" stroke="#1a1a1a" stroke-width="1.5" />
<rect x="1058" y="350.72727272727275" width="24" height="24" fill="#e0cfa4" stroke="#1a1a1a" stroke-width="1.5" />
<rect x="1058" y="385.27272727272725" width="24" height="24" fill="#8fae86" stroke="#1a1a1a" stroke-width="1.5" />
<rect x="1058" y="419.8181818181818" width="24" height="24" fill="#8fae86" stroke="#1a1a1a" stroke-width="1.5" />
<rect x="1058" y="454.3636363636364" width="24" height="24" fill="#8fae86" stroke="#1a1a1a" stroke-width="1.5" />
<rect x="1058" y="488.90909090909093" width="24" height="24" fill="#5a86a0" stroke="#1a1a1a" stroke-width="1.5" />
<rect x="1058" y="523.4545454545455" width="24" height="24" fill="#5a86a0" stroke="#1a1a1a" stroke-width="1.5" />
<rect x="1058" y="558.0" width="24" height="24" fill="#e0cfa4" stroke="#1a1a1a" stroke-width="1.5" />
<path d="M610.0,606 L1040.0,606" stroke="#1a1a1a" stroke-width="1.6" />
<path d="M610.0,606 L610.0,612" stroke="#1a1a1a" stroke-width="1.6" />
<text x="610.0" y="628" font-size="22" font-family="Helvetica" text-anchor="middle" fill="#1a1a1a">0.00</text>
<path d="M717.5,606 L717.5,612" stroke="#1a1a1a" stroke-width="1.6" />
<text x="717.5" y="628" font-size="22" font-family="Helvetica" text-anchor="middle" fill="#1a1a1a">0.25</text>
<path d="M825.0,606 L825.0,612" stroke="#1a1a1a" stroke-width="1.6" />
<text x="825.0" y="628" font-size="22" font-family="Helvetica" text-anchor="middle" fill="#1a1a1a">0.50</text>
<path d="M932.5,606 L932.5,612" stroke="#1a1a1a" stroke-width="1.6" />
<text x="932.5" y="628" font-size="22" font-family="Helvetica" text-anchor="middle" fill="#1a1a1a">0.75</text>
<path d="M1040.0,606 L1040.0,612" stroke="#1a1a1a" stroke-width="1.6" />
<text x="1040.0" y="628" font-size="22" font-family="Helvetica" text-anchor="middle" fill="#1a1a1a">1.00</text>
<text x="825.0" y="650" font-size="22" font-family="Helvetica" text-anchor="middle" fill="#8a8a8a">time (root to present)</text>
</svg>