<?xml version="1.0" encoding="UTF-8"?>
<svg xmlns="http://www.w3.org/2000/svg" xmlns:xlink="http://www.w3.org/1999/xlink"
     width="1200" height="640" viewBox="0 0 1200 640">
<defs>
</defs>
<rect x="0" y="0" width="1200" height="640" fill="white" />
<text x="600.0" y="46" font-size="32" font-family="Helvetica" text-anchor="middle" font-weight="bold" fill="#1a1a1a">Multivariate Brownian motion</text>
<rect x="120" y="150" width="430" height="430" fill="none" stroke="#cccccc" stroke-width="1.2" />
<path d="M120,365.0 L550,365.0" stroke="#d9d9d9" stroke-width="1" />
<path d="M335.0,150 L335.0,580" stroke="#d9d9d9" stroke-width="1" />
<text x="544" y="355.0" font-size="22" font-family="Helvetica" text-anchor="end" fill="#8a8a8a">trait X</text>
<text x="345.0" y="168" font-size="22" font-family="Helvetica" text-anchor="start" fill="#8a8a8a">trait Y</text>
<circle cx="387.68631171420526" cy="462.05089932069825" r="3.0" fill="#b4b4b4" fill-opacity="0.55" />
<circle cx="344.6078425501173" cy="387.5075691716323" r="3.0" fill="#b4b4b4" fill-opacity="0.55" />
<circle cx="302.34172698818975" cy="389.93612032401535" r="3.0" fill="#b4b4b4" fill-opacity="0.55" />
<circle cx="208.83294923861493" cy="432.91984521999746" r="3.0" fill="#b4b4b4" fill-opacity="0.55" />
<circle cx="372.6979551031235" cy="190.8678467941853" r="3.0" fill="#b4b4b4" fill-opacity="0.55" />
<circle cx="338.9550104964944" cy="379.88737475008827" r="3.0" fill="#b4b4b4" fill-opacity="0.55" />
<circle cx="300.3892002616308" cy="412.2097648157759" r="3.0" fill="#b4b4b4" fill-opacity="0.55" />
<circle cx="261.8677870374009" cy="416.4905222953794" r="3.0" fill="#b4b4b4" fill-opacity="0.55" />
<circle cx="357.22404705038343" cy="366.24675354692454" r="3.0" fill="#b4b4b4" fill-opacity="0.55" />
<circle cx="386.5173460374141" cy="351.19107500586836" r="3.0" fill="#b4b4b4" fill-opacity="0.55" />
<circle cx="377.87753198892375" cy="272.5564564172472" r="3.0" fill="#b4b4b4" fill-opacity="0.55" />
<circle cx="353.82615445426455" cy="380.38927971768356" r="3.0" fill="#b4b4b4" fill-opacity="0.55" />
<circle cx="338.63194471761494" cy="337.80392151484034" r="3.0" fill="#b4b4b4" fill-opacity="0.55" />
<circle cx="442.6811493922474" cy="329.13889571529273" r="3.0" fill="#b4b4b4" fill-opacity="0.55" />
<circle cx="347.4049225918227" cy="312.00984403298315" r="3.0" fill="#b4b4b4" fill-opacity="0.55" />
<circle cx="274.5408361498504" cy="406.0850672130351" r="3.0" fill="#b4b4b4" fill-opacity="0.55" />
<circle cx="402.9632818563566" cy="306.8807521621435" r="3.0" fill="#b4b4b4" fill-opacity="0.55" />
<circle cx="358.3970860772179" cy="322.7549828496886" r="3.0" fill="#b4b4b4" fill-opacity="0.55" />
<circle cx="194.43626728041545" cy="380.16435972959573" r="3.0" fill="#b4b4b4" fill-opacity="0.55" />
<circle cx="233.28611526413306" cy="489.8092851619704" r="3.0" fill="#b4b4b4" fill-opacity="0.55" />
<circle cx="370.1944437919004" cy="315.99020589702326" r="3.0" fill="#b4b4b4" fill-opacity="0.55" />
<circle cx="279.73509929466366" cy="440.840999591681" r="3.0" fill="#b4b4b4" fill-opacity="0.55" />
<circle cx="335.1373995680775" cy="367.431920201928" r="3.0" fill="#b4b4b4" fill-opacity="0.55" />
<circle cx="438.5014728678195" cy="282.9395708270031" r="3.0" fill="#b4b4b4" fill-opacity="0.55" />
<circle cx="376.30728954922677" cy="293.7941081513392" r="3.0" fill="#b4b4b4" fill-opacity="0.55" />
<circle cx="297.9762447979389" cy="425.4905662027662" r="3.0" fill="#b4b4b4" fill-opacity="0.55" />
<circle cx="385.2976980812433" cy="314.75181356412867" r="3.0" fill="#b4b4b4" fill-opacity="0.55" />
<circle cx="301.2593165911511" cy="417.2430513436941" r="3.0" fill="#b4b4b4" fill-opacity="0.55" />
<circle cx="281.7566893914161" cy="506.94866810696567" r="3.0" fill="#b4b4b4" fill-opacity="0.55" />
<circle cx="389.15220058071975" cy="317.32244328667895" r="3.0" fill="#b4b4b4" fill-opacity="0.55" />
<circle cx="239.3267434263392" cy="405.28760649007563" r="3.0" fill="#b4b4b4" fill-opacity="0.55" />
<circle cx="298.04817664296695" cy="345.8784972533408" r="3.0" fill="#b4b4b4" fill-opacity="0.55" />
<circle cx="189.69422752851378" cy="473.83158487731953" r="3.0" fill="#b4b4b4" fill-opacity="0.55" />
<circle cx="408.13421614551123" cy="277.31024930170554" r="3.0" fill="#b4b4b4" fill-opacity="0.55" />
<circle cx="193.50392845921164" cy="452.42143667630285" r="3.0" fill="#b4b4b4" fill-opacity="0.55" />
<circle cx="338.1478186597222" cy="392.38336157601657" r="3.0" fill="#b4b4b4" fill-opacity="0.55" />
<circle cx="397.52290944561616" cy="393.0985127183685" r="3.0" fill="#b4b4b4" fill-opacity="0.55" />
<circle cx="327.9493120101015" cy="417.75243873819534" r="3.0" fill="#b4b4b4" fill-opacity="0.55" />
<circle cx="417.90788799220815" cy="328.5977251927836" r="3.0" fill="#b4b4b4" fill-opacity="0.55" />
<circle cx="266.837864029084" cy="477.00696823339786" r="3.0" fill="#b4b4b4" fill-opacity="0.55" />
<circle cx="455.0482476502347" cy="275.21616064664374" r="3.0" fill="#b4b4b4" fill-opacity="0.55" />
<circle cx="410.2496078248586" cy="277.2309610232005" r="3.0" fill="#b4b4b4" fill-opacity="0.55" />
<circle cx="338.60210197986305" cy="393.59816098534634" r="3.0" fill="#b4b4b4" fill-opacity="0.55" />
<circle cx="266.0304323054216" cy="433.9682240205093" r="3.0" fill="#b4b4b4" fill-opacity="0.55" />
<circle cx="377.2103434092497" cy="414.99382502162337" r="3.0" fill="#b4b4b4" fill-opacity="0.55" />
<circle cx="290.9754512036266" cy="400.0621241927086" r="3.0" fill="#b4b4b4" fill-opacity="0.55" />
<circle cx="363.7609265205978" cy="324.8137661946865" r="3.0" fill="#b4b4b4" fill-opacity="0.55" />
<circle cx="214.45228581122473" cy="501.2139316233284" r="3.0" fill="#b4b4b4" fill-opacity="0.55" />
<circle cx="367.2684226033025" cy="293.05501944969285" r="3.0" fill="#b4b4b4" fill-opacity="0.55" />
<circle cx="385.7359764417656" cy="331.90077571781944" r="3.0" fill="#b4b4b4" fill-opacity="0.55" />
<circle cx="324.02716771815165" cy="356.0889371211242" r="3.0" fill="#b4b4b4" fill-opacity="0.55" />
<circle cx="342.45625852859894" cy="322.9957932531472" r="3.0" fill="#b4b4b4" fill-opacity="0.55" />
<circle cx="291.42289018508575" cy="378.32441792336243" r="3.0" fill="#b4b4b4" fill-opacity="0.55" />
<circle cx="342.9868851715451" cy="335.7040242204283" r="3.0" fill="#b4b4b4" fill-opacity="0.55" />
<circle cx="416.69509796863247" cy="207.55336199779418" r="3.0" fill="#b4b4b4" fill-opacity="0.55" />
<circle cx="464.11368453651625" cy="235.9487824957033" r="3.0" fill="#b4b4b4" fill-opacity="0.55" />
<circle cx="204.76863113338766" cy="439.8790581436067" r="3.0" fill="#b4b4b4" fill-opacity="0.55" />
<circle cx="313.13978249392767" cy="349.6804559307052" r="3.0" fill="#b4b4b4" fill-opacity="0.55" />
<circle cx="231.15123636634104" cy="356.347564977012" r="3.0" fill="#b4b4b4" fill-opacity="0.55" />
<circle cx="363.456080397165" cy="413.7176539006136" r="3.0" fill="#b4b4b4" fill-opacity="0.55" />
<circle cx="255.41621131189063" cy="438.8056142433139" r="3.0" fill="#b4b4b4" fill-opacity="0.55" />
<circle cx="354.75271870355715" cy="325.7775600316913" r="3.0" fill="#b4b4b4" fill-opacity="0.55" />
<circle cx="451.3139770581543" cy="321.82939708240264" r="3.0" fill="#b4b4b4" fill-opacity="0.55" />
<circle cx="384.7415941577899" cy="335.1975302363768" r="3.0" fill="#b4b4b4" fill-opacity="0.55" />
<circle cx="459.4012938226437" cy="273.7532835833847" r="3.0" fill="#b4b4b4" fill-opacity="0.55" />
<circle cx="387.3787111719573" cy="392.308942273718" r="3.0" fill="#b4b4b4" fill-opacity="0.55" />
<circle cx="301.7706284779014" cy="418.4762378430015" r="3.0" fill="#b4b4b4" fill-opacity="0.55" />
<circle cx="441.99468004621605" cy="285.607003672112" r="3.0" fill="#b4b4b4" fill-opacity="0.55" />
<circle cx="304.75128663854684" cy="400.04788672175164" r="3.0" fill="#b4b4b4" fill-opacity="0.55" />
<circle cx="344.97600694922494" cy="393.6640669603273" r="3.0" fill="#b4b4b4" fill-opacity="0.55" />
<circle cx="292.64113180999425" cy="361.3663493681886" r="3.0" fill="#b4b4b4" fill-opacity="0.55" />
<circle cx="474.66680503453307" cy="313.5895739088848" r="3.0" fill="#b4b4b4" fill-opacity="0.55" />
<circle cx="270.5980319511193" cy="449.44554023749845" r="3.0" fill="#b4b4b4" fill-opacity="0.55" />
<circle cx="269.79756727417475" cy="369.6117128308895" r="3.0" fill="#b4b4b4" fill-opacity="0.55" />
<circle cx="385.76794317751495" cy="341.6487366797053" r="3.0" fill="#b4b4b4" fill-opacity="0.55" />
<circle cx="357.8561158577678" cy="349.20172859698334" r="3.0" fill="#b4b4b4" fill-opacity="0.55" />
<circle cx="302.32362934790694" cy="451.908944622618" r="3.0" fill="#b4b4b4" fill-opacity="0.55" />
<circle cx="310.78451615429094" cy="370.6604111430695" r="3.0" fill="#b4b4b4" fill-opacity="0.55" />
<circle cx="275.7232589840078" cy="414.2845496688207" r="3.0" fill="#b4b4b4" fill-opacity="0.55" />
<circle cx="277.4197251566955" cy="406.76072123454725" r="3.0" fill="#b4b4b4" fill-opacity="0.55" />
<circle cx="374.76018559531195" cy="366.2751256729998" r="3.0" fill="#b4b4b4" fill-opacity="0.55" />
<circle cx="347.67528953834983" cy="320.80476447353306" r="3.0" fill="#b4b4b4" fill-opacity="0.55" />
<circle cx="418.7288493939936" cy="247.05235831319067" r="3.0" fill="#b4b4b4" fill-opacity="0.55" />
<circle cx="233.83253209504417" cy="370.15550353069614" r="3.0" fill="#b4b4b4" fill-opacity="0.55" />
<circle cx="309.9717424307871" cy="369.9298000385982" r="3.0" fill="#b4b4b4" fill-opacity="0.55" />
<circle cx="413.78254523512743" cy="278.2190061708816" r="3.0" fill="#b4b4b4" fill-opacity="0.55" />
<circle cx="400.8760192530261" cy="327.9288989037278" r="3.0" fill="#b4b4b4" fill-opacity="0.55" />
<circle cx="422.9989239229298" cy="338.6551572437985" r="3.0" fill="#b4b4b4" fill-opacity="0.55" />
<circle cx="348.05552110852216" cy="321.31241572141" r="3.0" fill="#b4b4b4" fill-opacity="0.55" />
<circle cx="360.1834651703873" cy="251.46200250589027" r="3.0" fill="#b4b4b4" fill-opacity="0.55" />
<circle cx="453.84010351917044" cy="208.49030817595968" r="3.0" fill="#b4b4b4" fill-opacity="0.55" />
<circle cx="323.1520984641942" cy="388.4611383642434" r="3.0" fill="#b4b4b4" fill-opacity="0.55" />
<circle cx="364.61047945134214" cy="316.9018497010151" r="3.0" fill="#b4b4b4" fill-opacity="0.55" />
<circle cx="310.29583852182753" cy="358.1991874968105" r="3.0" fill="#b4b4b4" fill-opacity="0.55" />
<circle cx="377.31177447517507" cy="269.508756056353" r="3.0" fill="#b4b4b4" fill-opacity="0.55" />
<circle cx="323.6909365809847" cy="320.6415375756273" r="3.0" fill="#b4b4b4" fill-opacity="0.55" />
<circle cx="271.0158157580029" cy="439.30322839002656" r="3.0" fill="#b4b4b4" fill-opacity="0.55" />
<circle cx="260.9174335306657" cy="454.71523062241374" r="3.0" fill="#b4b4b4" fill-opacity="0.55" />
<circle cx="371.33428047127643" cy="299.8390916889318" r="3.0" fill="#b4b4b4" fill-opacity="0.55" />
<circle cx="361.4928058323644" cy="323.522012313883" r="3.0" fill="#b4b4b4" fill-opacity="0.55" />
<circle cx="439.15931685357316" cy="305.2136779805481" r="3.0" fill="#b4b4b4" fill-opacity="0.55" />
<circle cx="339.2158024465173" cy="376.1020950108349" r="3.0" fill="#b4b4b4" fill-opacity="0.55" />
<circle cx="259.8654798243449" cy="362.99573811064545" r="3.0" fill="#b4b4b4" fill-opacity="0.55" />
<circle cx="248.19415916966213" cy="373.3263817300184" r="3.0" fill="#b4b4b4" fill-opacity="0.55" />
<circle cx="364.35391200327126" cy="298.47383282899483" r="3.0" fill="#b4b4b4" fill-opacity="0.55" />
<circle cx="308.90915947750443" cy="415.69954172721515" r="3.0" fill="#b4b4b4" fill-opacity="0.55" />
<circle cx="341.235691736591" cy="388.6736228890231" r="3.0" fill="#b4b4b4" fill-opacity="0.55" />
<circle cx="325.3768821323908" cy="367.36433961342436" r="3.0" fill="#b4b4b4" fill-opacity="0.55" />
<circle cx="321.94923321154477" cy="379.8180851360388" r="3.0" fill="#b4b4b4" fill-opacity="0.55" />
<circle cx="280.49823978610505" cy="398.5454103802946" r="3.0" fill="#b4b4b4" fill-opacity="0.55" />
<circle cx="203.80459633414634" cy="431.6625506268241" r="3.0" fill="#b4b4b4" fill-opacity="0.55" />
<circle cx="293.8871340888345" cy="330.59184615359385" r="3.0" fill="#b4b4b4" fill-opacity="0.55" />
<circle cx="358.11142284655966" cy="446.8135458634615" r="3.0" fill="#b4b4b4" fill-opacity="0.55" />
<circle cx="340.2180986664637" cy="368.6190760599786" r="3.0" fill="#b4b4b4" fill-opacity="0.55" />
<circle cx="287.0957844554107" cy="361.4876570389951" r="3.0" fill="#b4b4b4" fill-opacity="0.55" />
<circle cx="260.2022526320513" cy="482.33874031822893" r="3.0" fill="#b4b4b4" fill-opacity="0.55" />
<circle cx="315.1902824772014" cy="380.9519811958702" r="3.0" fill="#b4b4b4" fill-opacity="0.55" />
<circle cx="308.31585651638574" cy="435.2595622183811" r="3.0" fill="#b4b4b4" fill-opacity="0.55" />
<circle cx="391.2746051466847" cy="304.82359566019113" r="3.0" fill="#b4b4b4" fill-opacity="0.55" />
<circle cx="249.29784482119092" cy="434.8386828769269" r="3.0" fill="#b4b4b4" fill-opacity="0.55" />
<circle cx="315.05936541932203" cy="400.7590319798215" r="3.0" fill="#b4b4b4" fill-opacity="0.55" />
<circle cx="444.1324418753104" cy="305.883806025244" r="3.0" fill="#b4b4b4" fill-opacity="0.55" />
<circle cx="253.8641781629909" cy="438.88859177991446" r="3.0" fill="#b4b4b4" fill-opacity="0.55" />
<circle cx="393.12750936044864" cy="230.21361953340272" r="3.0" fill="#b4b4b4" fill-opacity="0.55" />
<circle cx="327.83149441701653" cy="362.2087693210869" r="3.0" fill="#b4b4b4" fill-opacity="0.55" />
<circle cx="364.44920638773993" cy="353.6033440062846" r="3.0" fill="#b4b4b4" fill-opacity="0.55" />
<circle cx="456.1812397637934" cy="335.42784375321446" r="3.0" fill="#b4b4b4" fill-opacity="0.55" />
<circle cx="383.49260690564705" cy="335.5239853026675" r="3.0" fill="#b4b4b4" fill-opacity="0.55" />
<circle cx="340.34675357051094" cy="418.2192246570304" r="3.0" fill="#b4b4b4" fill-opacity="0.55" />
<circle cx="436.73564024554895" cy="324.8208208890253" r="3.0" fill="#b4b4b4" fill-opacity="0.55" />
<circle cx="311.96588295211717" cy="419.60457123671574" r="3.0" fill="#b4b4b4" fill-opacity="0.55" />
<circle cx="306.7944481697191" cy="351.0546486802013" r="3.0" fill="#b4b4b4" fill-opacity="0.55" />
<circle cx="413.7714906686149" cy="293.8266482710431" r="3.0" fill="#b4b4b4" fill-opacity="0.55" />
<circle cx="425.94297927391864" cy="290.16512490218423" r="3.0" fill="#b4b4b4" fill-opacity="0.55" />
<circle cx="359.1138545212841" cy="314.5628434243451" r="3.0" fill="#b4b4b4" fill-opacity="0.55" />
<circle cx="367.5530834672453" cy="355.0603072894407" r="3.0" fill="#b4b4b4" fill-opacity="0.55" />
<circle cx="412.57947187259754" cy="269.19033034897615" r="3.0" fill="#b4b4b4" fill-opacity="0.55" />
<circle cx="339.38084823623626" cy="379.86414124762433" r="3.0" fill="#b4b4b4" fill-opacity="0.55" />
<circle cx="428.62856195344006" cy="232.86655494848094" r="3.0" fill="#b4b4b4" fill-opacity="0.55" />
<circle cx="320.02206528739794" cy="376.1257725118463" r="3.0" fill="#b4b4b4" fill-opacity="0.55" />
<circle cx="359.6844598231088" cy="296.03156864015074" r="3.0" fill="#b4b4b4" fill-opacity="0.55" />
<circle cx="235.71108690276404" cy="392.5230979537463" r="3.0" fill="#b4b4b4" fill-opacity="0.55" />
<circle cx="383.9951009495363" cy="381.3403723281036" r="3.0" fill="#b4b4b4" fill-opacity="0.55" />
<circle cx="437.7671795985408" cy="293.2992909974926" r="3.0" fill="#b4b4b4" fill-opacity="0.55" />
<circle cx="307.8695239733987" cy="367.59520581811" r="3.0" fill="#b4b4b4" fill-opacity="0.55" />
<circle cx="228.7188881436519" cy="439.7177734787183" r="3.0" fill="#b4b4b4" fill-opacity="0.55" />
<circle cx="419.5252596830454" cy="369.10386018730867" r="3.0" fill="#b4b4b4" fill-opacity="0.55" />
<circle cx="442.3468934549181" cy="320.3987495483865" r="3.0" fill="#b4b4b4" fill-opacity="0.55" />
<circle cx="395.24132391051864" cy="335.73059429937507" r="3.0" fill="#b4b4b4" fill-opacity="0.55" />
<circle cx="186.54696414551842" cy="459.08962676093313" r="3.0" fill="#b4b4b4" fill-opacity="0.55" />
<circle cx="315.42167661548035" cy="428.25600682254816" r="3.0" fill="#b4b4b4" fill-opacity="0.55" />
<circle cx="264.8045588120949" cy="379.37373418729356" r="3.0" fill="#b4b4b4" fill-opacity="0.55" />
<circle cx="250.97872547626514" cy="483.10894536595947" r="3.0" fill="#b4b4b4" fill-opacity="0.55" />
<circle cx="317.44893429773157" cy="332.22631712685524" r="3.0" fill="#b4b4b4" fill-opacity="0.55" />
<circle cx="331.9255460767703" cy="322.1908921156731" r="3.0" fill="#b4b4b4" fill-opacity="0.55" />
<circle cx="426.5634334888277" cy="322.1294199752904" r="3.0" fill="#b4b4b4" fill-opacity="0.55" />
<circle cx="233.02815503643558" cy="472.57102325409494" r="3.0" fill="#b4b4b4" fill-opacity="0.55" />
<circle cx="357.0584056916879" cy="313.38529897391646" r="3.0" fill="#b4b4b4" fill-opacity="0.55" />
<circle cx="365.6442142567719" cy="325.291846303365" r="3.0" fill="#b4b4b4" fill-opacity="0.55" />
<circle cx="316.7267472130719" cy="359.0445594367081" r="3.0" fill="#b4b4b4" fill-opacity="0.55" />
<circle cx="298.28471912832765" cy="396.9690300533323" r="3.0" fill="#b4b4b4" fill-opacity="0.55" />
<circle cx="216.11997058392552" cy="493.0001510281447" r="3.0" fill="#b4b4b4" fill-opacity="0.55" />
<circle cx="276.6905779385944" cy="443.6902053141482" r="3.0" fill="#b4b4b4" fill-opacity="0.55" />
<circle cx="296.0561505158598" cy="350.85210185333415" r="3.0" fill="#b4b4b4" fill-opacity="0.55" />
<circle cx="406.7568378453258" cy="194.82506154230737" r="3.0" fill="#b4b4b4" fill-opacity="0.55" />
<circle cx="373.0345340870782" cy="377.7683270461938" r="3.0" fill="#b4b4b4" fill-opacity="0.55" />
<circle cx="390.7636990207248" cy="322.9573225918975" r="3.0" fill="#b4b4b4" fill-opacity="0.55" />
<circle cx="323.83912877853123" cy="317.90642424881895" r="3.0" fill="#b4b4b4" fill-opacity="0.55" />
<circle cx="206.97743162470863" cy="567.3947378551292" r="3.0" fill="#b4b4b4" fill-opacity="0.55" />
<circle cx="365.6066773552351" cy="380.3682671474759" r="3.0" fill="#b4b4b4" fill-opacity="0.55" />
<circle cx="405.8282358913917" cy="363.7441255177538" r="3.0" fill="#b4b4b4" fill-opacity="0.55" />
<circle cx="306.3570977199753" cy="304.71708088057443" r="3.0" fill="#b4b4b4" fill-opacity="0.55" />
<circle cx="276.58736675694416" cy="381.7517569434876" r="3.0" fill="#b4b4b4" fill-opacity="0.55" />
<circle cx="424.15624850194484" cy="319.339875477291" r="3.0" fill="#b4b4b4" fill-opacity="0.55" />
<circle cx="332.9602843387246" cy="361.0780799340607" r="3.0" fill="#b4b4b4" fill-opacity="0.55" />
<circle cx="363.19706730093833" cy="390.4182583903503" r="3.0" fill="#b4b4b4" fill-opacity="0.55" />
<circle cx="386.72977933889985" cy="314.36364493482796" r="3.0" fill="#b4b4b4" fill-opacity="0.55" />
<circle cx="464.4992331401073" cy="322.4532023738134" r="3.0" fill="#b4b4b4" fill-opacity="0.55" />
<circle cx="300.3966576268241" cy="345.836504543703" r="3.0" fill="#b4b4b4" fill-opacity="0.55" />
<circle cx="319.1661742748497" cy="358.47794929297095" r="3.0" fill="#b4b4b4" fill-opacity="0.55" />
<circle cx="374.19233248275486" cy="292.06512973830564" r="3.0" fill="#b4b4b4" fill-opacity="0.55" />
<circle cx="293.5223420577015" cy="388.08675482001695" r="3.0" fill="#b4b4b4" fill-opacity="0.55" />
<circle cx="159.591368033332" cy="486.2677634998949" r="3.0" fill="#b4b4b4" fill-opacity="0.55" />
<circle cx="407.96187852534865" cy="364.2860936154584" r="3.0" fill="#b4b4b4" fill-opacity="0.55" />
<circle cx="260.69824170043785" cy="456.12486864500113" r="3.0" fill="#b4b4b4" fill-opacity="0.55" />
<circle cx="374.20263036423415" cy="338.8877464778179" r="3.0" fill="#b4b4b4" fill-opacity="0.55" />
<circle cx="282.41353958441937" cy="357.18067174137684" r="3.0" fill="#b4b4b4" fill-opacity="0.55" />
<circle cx="370.6579580815726" cy="313.25197943181496" r="3.0" fill="#b4b4b4" fill-opacity="0.55" />
<circle cx="343.49666045873647" cy="278.98970662838764" r="3.0" fill="#b4b4b4" fill-opacity="0.55" />
<circle cx="356.2052592019148" cy="360.95425313532473" r="3.0" fill="#b4b4b4" fill-opacity="0.55" />
<circle cx="297.6280203013524" cy="393.4459970270401" r="3.0" fill="#b4b4b4" fill-opacity="0.55" />
<circle cx="378.7865376446766" cy="357.9510559280273" r="3.0" fill="#b4b4b4" fill-opacity="0.55" />
<circle cx="414.5873483240708" cy="301.6180389102477" r="3.0" fill="#b4b4b4" fill-opacity="0.55" />
<circle cx="436.779691211663" cy="280.56334716187854" r="3.0" fill="#b4b4b4" fill-opacity="0.55" />
<circle cx="280.08118791256135" cy="480.06671289068925" r="3.0" fill="#b4b4b4" fill-opacity="0.55" />
<circle cx="373.8813981215055" cy="310.14001517180697" r="3.0" fill="#b4b4b4" fill-opacity="0.55" />
<circle cx="359.58839316625176" cy="327.5917615908685" r="3.0" fill="#b4b4b4" fill-opacity="0.55" />
<circle cx="296.7954598545539" cy="400.2355036430862" r="3.0" fill="#b4b4b4" fill-opacity="0.55" />
<circle cx="315.5462996552041" cy="309.38972594401616" r="3.0" fill="#b4b4b4" fill-opacity="0.55" />
<circle cx="331.2042153098023" cy="389.9987051220565" r="3.0" fill="#b4b4b4" fill-opacity="0.55" />
<circle cx="251.80300263824336" cy="409.80499362474706" r="3.0" fill="#b4b4b4" fill-opacity="0.55" />
<circle cx="433.04786239820595" cy="298.899494009707" r="3.0" fill="#b4b4b4" fill-opacity="0.55" />
<circle cx="330.29553499973366" cy="299.5357445986027" r="3.0" fill="#b4b4b4" fill-opacity="0.55" />
<circle cx="446.1176424477294" cy="268.4676310871083" r="3.0" fill="#b4b4b4" fill-opacity="0.55" />
<circle cx="412.8193406233645" cy="275.2307342196476" r="3.0" fill="#b4b4b4" fill-opacity="0.55" />
<circle cx="388.03408244511047" cy="304.4167537968024" r="3.0" fill="#b4b4b4" fill-opacity="0.55" />
<circle cx="328.87772584064146" cy="296.863126207373" r="3.0" fill="#b4b4b4" fill-opacity="0.55" />
<circle cx="402.98845183617584" cy="238.60218485879147" r="3.0" fill="#b4b4b4" fill-opacity="0.55" />
<circle cx="232.63718625578062" cy="377.855810565869" r="3.0" fill="#b4b4b4" fill-opacity="0.55" />
<circle cx="384.08813062986536" cy="359.0550121810487" r="3.0" fill="#b4b4b4" fill-opacity="0.55" />
<circle cx="381.92633290448737" cy="308.43508383273115" r="3.0" fill="#b4b4b4" fill-opacity="0.55" />
<circle cx="354.8198153484032" cy="381.5686339245637" r="3.0" fill="#b4b4b4" fill-opacity="0.55" />
<circle cx="353.88767684837876" cy="308.29260818218296" r="3.0" fill="#b4b4b4" fill-opacity="0.55" />
<circle cx="413.50240666606845" cy="324.8830170811092" r="3.0" fill="#b4b4b4" fill-opacity="0.55" />
<circle cx="344.94877315734857" cy="351.02929759082804" r="3.0" fill="#b4b4b4" fill-opacity="0.55" />
<circle cx="368.3638320734628" cy="399.7749998544002" r="3.0" fill="#b4b4b4" fill-opacity="0.55" />
<circle cx="259.41036534663857" cy="393.2446540428187" r="3.0" fill="#b4b4b4" fill-opacity="0.55" />
<circle cx="253.5546627056953" cy="429.5248603143409" r="3.0" fill="#b4b4b4" fill-opacity="0.55" />
<circle cx="353.0583048042911" cy="334.0348806040205" r="3.0" fill="#b4b4b4" fill-opacity="0.55" />
<circle cx="292.82519280580016" cy="346.1376987577413" r="3.0" fill="#b4b4b4" fill-opacity="0.55" />
<circle cx="244.2943791895849" cy="380.1581822700746" r="3.0" fill="#b4b4b4" fill-opacity="0.55" />
<circle cx="207.136495790276" cy="482.9992925160692" r="3.0" fill="#b4b4b4" fill-opacity="0.55" />
<circle cx="362.2432734935152" cy="371.9151496760423" r="3.0" fill="#b4b4b4" fill-opacity="0.55" />
<circle cx="275.8359149254908" cy="412.73711071556454" r="3.0" fill="#b4b4b4" fill-opacity="0.55" />
<circle cx="361.16559128117075" cy="355.74381309934955" r="3.0" fill="#b4b4b4" fill-opacity="0.55" />
<circle cx="361.52932807424816" cy="303.1533654424977" r="3.0" fill="#b4b4b4" fill-opacity="0.55" />
<circle cx="279.8090535315923" cy="412.22757731169804" r="3.0" fill="#b4b4b4" fill-opacity="0.55" />
<circle cx="335.3111864097882" cy="309.59173631770966" r="3.0" fill="#b4b4b4" fill-opacity="0.55" />
<circle cx="428.3723240131298" cy="261.9959725471148" r="3.0" fill="#b4b4b4" fill-opacity="0.55" />
<circle cx="328.7926189477726" cy="375.21589137579457" r="3.0" fill="#b4b4b4" fill-opacity="0.55" />
<circle cx="375.0664671787042" cy="365.56151847457636" r="3.0" fill="#b4b4b4" fill-opacity="0.55" />
<circle cx="403.741505513722" cy="299.7236953136827" r="3.0" fill="#b4b4b4" fill-opacity="0.55" />
<circle cx="291.30269069390727" cy="388.65920037446494" r="3.0" fill="#b4b4b4" fill-opacity="0.55" />
<circle cx="374.38226244109546" cy="265.2681701145965" r="3.0" fill="#b4b4b4" fill-opacity="0.55" />
<circle cx="485.9903454520581" cy="301.5651661322779" r="3.0" fill="#b4b4b4" fill-opacity="0.55" />
<circle cx="274.6754907929229" cy="500.1070188654104" r="3.0" fill="#b4b4b4" fill-opacity="0.55" />
<circle cx="347.3725925443943" cy="359.7473367692806" r="3.0" fill="#b4b4b4" fill-opacity="0.55" />
<circle cx="292.3513471049665" cy="347.10862633787434" r="3.0" fill="#b4b4b4" fill-opacity="0.55" />
<circle cx="236.2637984486788" cy="419.72958264649196" r="3.0" fill="#b4b4b4" fill-opacity="0.55" />
<circle cx="309.7650905186572" cy="435.44539305455476" r="3.0" fill="#b4b4b4" fill-opacity="0.55" />
<circle cx="414.16977277420534" cy="279.3534823002877" r="3.0" fill="#b4b4b4" fill-opacity="0.55" />
<circle cx="214.93393632993184" cy="485.76376295244216" r="3.0" fill="#b4b4b4" fill-opacity="0.55" />
<circle cx="369.94560841703156" cy="350.66691351187995" r="3.0" fill="#b4b4b4" fill-opacity="0.55" />
<circle cx="255.15120916502312" cy="415.0036503088311" r="3.0" fill="#b4b4b4" fill-opacity="0.55" />
<circle cx="324.7812195221159" cy="376.37594478434266" r="3.0" fill="#b4b4b4" fill-opacity="0.55" />
<circle cx="394.43630370675396" cy="320.0042168640917" r="3.0" fill="#b4b4b4" fill-opacity="0.55" />
<circle cx="476.91434266889394" cy="235.95644711341265" r="3.0" fill="#b4b4b4" fill-opacity="0.55" />
<circle cx="404.1607999334939" cy="282.85432059645507" r="3.0" fill="#b4b4b4" fill-opacity="0.55" />
<circle cx="432.5352260707058" cy="287.5908859472517" r="3.0" fill="#b4b4b4" fill-opacity="0.55" />
<circle cx="285.2508796163417" cy="346.82347194383954" r="3.0" fill="#b4b4b4" fill-opacity="0.55" />
<circle cx="382.6851791823549" cy="266.93516027853906" r="3.0" fill="#b4b4b4" fill-opacity="0.55" />
<circle cx="354.650289909752" cy="331.26009997119615" r="3.0" fill="#b4b4b4" fill-opacity="0.55" />
<circle cx="399.64112141330423" cy="256.32995378206954" r="3.0" fill="#b4b4b4" fill-opacity="0.55" />
<circle cx="338.29612953679907" cy="376.2561851901083" r="3.0" fill="#b4b4b4" fill-opacity="0.55" />
<circle cx="341.5729820619572" cy="382.81323225264737" r="3.0" fill="#b4b4b4" fill-opacity="0.55" />
<circle cx="344.4218481920884" cy="361.1001097657803" r="3.0" fill="#b4b4b4" fill-opacity="0.55" />
<circle cx="402.6845335705879" cy="243.51134274212916" r="3.0" fill="#b4b4b4" fill-opacity="0.55" />
<circle cx="311.90055921435373" cy="373.67933286349296" r="3.0" fill="#b4b4b4" fill-opacity="0.55" />
<circle cx="341.1837587243643" cy="330.4068159953841" r="3.0" fill="#b4b4b4" fill-opacity="0.55" />
<circle cx="246.26709385189315" cy="437.8084051059802" r="3.0" fill="#b4b4b4" fill-opacity="0.55" />
<circle cx="347.2949748895756" cy="333.62744143662155" r="3.0" fill="#b4b4b4" fill-opacity="0.55" />
<circle cx="318.8411770655815" cy="395.9483817376998" r="3.0" fill="#b4b4b4" fill-opacity="0.55" />
<circle cx="297.2443781379667" cy="357.8473327402523" r="3.0" fill="#b4b4b4" fill-opacity="0.55" />
<circle cx="429.29493087857793" cy="307.16786709634476" r="3.0" fill="#b4b4b4" fill-opacity="0.55" />
<circle cx="358.07012051726144" cy="333.59902101029866" r="3.0" fill="#b4b4b4" fill-opacity="0.55" />
<circle cx="270.6691095731353" cy="408.7763030631487" r="3.0" fill="#b4b4b4" fill-opacity="0.55" />
<circle cx="327.0042682603505" cy="354.65014418296664" r="3.0" fill="#b4b4b4" fill-opacity="0.55" />
<circle cx="300.491690756564" cy="438.0902013180556" r="3.0" fill="#b4b4b4" fill-opacity="0.55" />
<circle cx="447.1842101986546" cy="234.3394915096207" r="3.0" fill="#b4b4b4" fill-opacity="0.55" />
<circle cx="330.062194242911" cy="348.37141625745426" r="3.0" fill="#b4b4b4" fill-opacity="0.55" />
<circle cx="371.89800458811106" cy="311.24397459668916" r="3.0" fill="#b4b4b4" fill-opacity="0.55" />
<circle cx="290.3661905388435" cy="308.88374026855223" r="3.0" fill="#b4b4b4" fill-opacity="0.55" />
<circle cx="341.1067912870968" cy="302.4694402582437" r="3.0" fill="#b4b4b4" fill-opacity="0.55" />
<circle cx="329.34802845412815" cy="385.9699650947133" r="3.0" fill="#b4b4b4" fill-opacity="0.55" />
<circle cx="350.7091369144458" cy="315.4894216296143" r="3.0" fill="#b4b4b4" fill-opacity="0.55" />
<circle cx="273.6803773441552" cy="410.41945352854316" r="3.0" fill="#b4b4b4" fill-opacity="0.55" />
<circle cx="260.38342535677805" cy="479.7912196253229" r="3.0" fill="#b4b4b4" fill-opacity="0.55" />
<circle cx="427.7388554077189" cy="295.76574236188003" r="3.0" fill="#b4b4b4" fill-opacity="0.55" />
<circle cx="364.9271881605065" cy="296.471264647384" r="3.0" fill="#b4b4b4" fill-opacity="0.55" />
<circle cx="276.23682686402447" cy="394.99942949504714" r="3.0" fill="#b4b4b4" fill-opacity="0.55" />
<path d="M288.93092183178555,318.93092183178555 L297.6434836996394,310.4478737940208 L306.5421538526118,302.23660170495884 L315.58259956361735,294.338013709108 L324.7197817868721,286.7914601745526 L333.9081795401539,279.63453765139843 L343.10201668804643,272.90290156765184 L352.255489996343,266.6300885956706 L361.32299732145526,260.8473495741488 L370.25936479799896,255.58349381801116 L379.020071892719,250.86474559185484 L387.56147320354637,246.7146134619822 L395.841015898796,243.15377317790632 L403.81745171323394,240.19996466680675 L411.45104244485947,237.8679036541048 L418.703757928629,236.16920835045931 L425.5394655008249,235.11234157042634 L431.92411001016916,234.7025685711418 L437.82588347887355,234.94193082107597 L443.2153835683852,235.82923582954004 L448.06576006035834,237.3600630876145 L452.3528486230912,239.5267860909027 L456.0552911970113,242.31861033439162 L459.154642399454,245.72162709013338 L461.6354614186308,249.71888269982765 L463.4853889389772,254.2904630370951 L464.69520871464096,259.41359271865286 L465.25889348435544,265.0627485701288 L465.17363499895225,271.20978678123186 L464.43985801191695,277.82408311679984 L463.0612181632888,284.8726854851982 L461.0445837674463,292.32047810398285 L458.40000159550925,300.1303564449626 L455.140646822832,308.2634120870913 L451.2827573909416,316.67912655626503 L446.8455531109297,325.33557318632177 L441.85113991132147,334.189625995583 L436.3243997074505,343.19717453832527 L430.29286644100915,352.3133436608023 L423.78658890733544,361.4927170670029 L416.83798105382647,370.68956358035405 L409.48166049528277,379.8580649741416 L401.7542760506929,388.9525442356114 L393.6943251606605,397.92769312654895 L385.34196209509196,406.73879790664324 L376.73879790664324,415.34196209509196 L367.92769312654895,423.69432516066047 L358.9525442356114,431.75427605069285 L349.8580649741417,439.4816604952827 L340.68956358035416,446.8379810538264 L331.4927170670029,453.7865889073355 L322.31334366080233,460.2928664410091 L313.1971745383253,466.3243997074505 L304.189625995583,471.8511399113214 L295.3355731863219,476.8455531109297 L286.67912655626515,481.2827573909415 L278.2634120870913,485.140646822832 L270.1303564449627,488.4000015955092 L262.3204781039829,491.04458376744617 L254.8726854851982,493.06121816328886 L247.82408311679987,494.43985801191695 L241.20978678123186,495.17363499895225 L235.06274857012883,495.25889348435544 L229.41359271865292,494.69520871464096 L224.29046303709512,493.4853889389772 L219.71888269982767,491.6354614186308 L215.72162709013338,489.154642399454 L212.31861033439168,486.05529119701134 L209.5267860909027,482.3528486230912 L207.36006308761455,478.06576006035834 L205.82923582954004,473.2153835683853 L204.941930821076,467.82588347887355 L204.7025685711418,461.9241100101692 L205.11234157042637,455.5394655008249 L206.16920835045937,448.703757928629 L207.8679036541048,441.45104244485947 L210.19996466680675,433.81745171323394 L213.15377317790632,425.8410158987961 L216.71461346198217,417.56147320354637 L220.8647455918548,409.020071892719 L225.58349381801116,400.25936479799896 L230.8473495741488,391.3229973214552 L236.6300885956705,382.25548999634304 L242.90290156765184,373.10201668804655 L249.63453765139838,363.9081795401539 L256.7914601745525,354.7197817868721 L264.338013709108,345.58259956361735 L272.23660170495873,336.5421538526119 L280.44787379402067,327.64348369963943 L288.93092183178555,318.93092183178555 Z" fill="none" stroke="#1a1a1a" stroke-width="2.6" />
<path d="M335.0,365.0 L345.87864335757496,356.1744838669417 L327.1610285906446,377.93882392247826 L324.3564856250839,374.9639813076659 L321.4921421385674,377.1270917211684 L322.5394192871962,380.19157780786753 L325.40228175096325,375.7340325680366 L328.64307691527813,372.68889788195054 L326.78673299322634,371.4718044106071 L327.5969659222685,365.8915200989379 L338.81912162395497,363.7823003790629 L326.9422051167928,370.84377933858286 L331.2125377166326,364.7197860822314 L334.85170243846005,366.209656099077 L333.74180056106695,361.64658430695727 L330.7294037548394,358.64989470981067 L331.3270209193497,355.31759302421705 L336.6305285482907,349.8200217159717 L338.5065004413211,352.9267566216439 L340.03133416230725,352.18254860256536 L344.3730568499161,345.29459795232015 L341.39948604119706,349.48193024458647 L337.04116380591574,352.6913692993645 L338.9722907532958,355.0756080177517 L345.4482277807451,350.9916288971871 L341.29659469638057,358.186984024871 L344.09235654956416,354.1618394131025 L337.93097145130594,352.1801510766927 L346.9673273486378,346.7483475268633 L354.9036414555717,333.5207079104282 L359.0522067637887,335.2353912030155 L358.6131424076113,336.06068419653457 L352.49968664659207,348.26794632812755 L354.856306763656,349.7485097197041 L355.36919325299016,350.06099349666556 L359.0707669364672,349.5720864272341 L356.2849909394065,348.70208538092925 L362.61109871665167,347.12433232868705 L370.08037537752483,342.70490298510947 L370.8620387920787,336.25755893464515 L369.0509633110301,333.022999168586 L367.57071048831074,331.89214802795755 L359.4793739926844,338.89170565128614 L365.25068599810913,335.534731994612 L364.44647845647984,337.655225934041 L363.52169368821916,343.65613827721 L357.5436477491621,346.985251182902 L351.7694794859965,352.39135782198696 L351.09907408241276,353.2435211505621 L353.7550767745043,345.39016299191417 L361.615287593173,336.9279510459091 L360.3305881798641,339.524589703804 L352.24525980129806,344.5655856219587 L340.4540957157317,352.22092265724467 L347.963131423754,342.35163194314816 L350.8572230027044,344.4881236345883 L351.54165281775516,347.3326385831968 L355.41958719841534,346.0270722823966 L365.555503271704,331.1703355308329 L375.46951002495507,317.3745863401022 L375.6130555850478,318.6273304612187 L386.21299667860154,306.95186378953827 L383.6011785428967,307.8246616642347 L375.9485616553909,312.0785549352404 L380.2110916447905,310.49957114602864 L374.1662638751401,318.85159633740943 L377.82123814977973,314.01473113891706 L381.39328931676766,311.3820147788533 L378.9905752801623,305.42650016080074 L378.37880178273156,306.2812672664638 L377.1564132945719,315.4771057937079 L376.5229770030581,316.3096566963332 L381.44333373867653,308.70531421969736 L379.6625192430178,316.8302174566122 L378.4264419426553,316.56690381506945 L376.26231842429075,322.66371550630237 L369.1562702969161,323.6776686306605 L370.83209760018997,323.00629146715266 L366.1919129131028,318.01188981331075 L350.8117696603167,326.409658791408 L360.94989346721354,322.462214595227 L359.443214093398,327.85419076310245 L363.33332133184433,331.2634187151514 L364.9157932064968,330.00998598650625 L361.6520214767213,327.9389602935329 L352.99737675053694,334.576992724544 L351.91881528737497,336.7122022911386 L356.3600261230318,331.014869985897 L353.658983242427,334.3978476505405 L350.23619228438895,337.40385435907734 L353.80660314558577,336.66157663395404 L355.64589939228205,336.1955324356653 L353.364577988302,333.77395768767576 L348.16904565197285,336.09453908126443 L353.15547122785745,338.2116112353871 L349.28817196230676,346.29011444210926 L343.34556558491295,354.94508241439775 L340.3113686707962,358.4657899509118 L344.56292810145555,350.2157442996237 L347.4742269150255,346.2714898082721 L346.66580216481395,347.61353548322546 L338.4004858181539,358.5408076053775 L342.43565283078203,350.2093350831277 L343.61628491084724,351.8101837496633 L350.91397927844787,350.24463765313226 L345.06087157182344,357.7327186431843 L339.67453158285934,361.1486591635206 L349.2398385829139,357.654598803025 L342.6914336685005,363.029891202517 L337.69498701352245,372.12548178380547 L339.9178585992571,368.3221895330514 L342.88886720425575,364.5805169289872 L332.5689066119745,376.0266410172511 L341.49997647423965,367.62209330064934 L334.2374751713056,370.0758088437783 L335.600032569851,367.2833777092098 L335.50927376857356,369.3308529446018 L336.84499019139446,368.100333866102 L332.40428404196945,377.5071544419528 L315.58222078751305,388.25847943242945 L307.9500427918724,390.6945374912625 L312.1399757895154,387.7517317597727 L310.4451164655018,388.2351792548101 L314.65248418286274,389.2482019813451 L320.8842727374085,383.6074561492088 L325.48692918859194,375.72786946887027 L324.01969423683204,372.6239750720449 L317.6198918117738,378.5779867747504 L313.3115979134993,378.7412897966741 L308.7134326549551,380.6085467053221 L305.4242751798016,377.83258987120223 L315.1515784078139,372.5381312969614 L324.6692518342886,366.00130261555364 L335.7821784894306,360.58629171045754 L331.2776836181871,356.6633611320026 L328.2967798019772,362.14819760576995 L321.31874620957535,371.7969719185038 L318.0501566153975,377.5532067243097 L327.00415927179495,370.8559329086297 L315.2516621229744,382.1926110349706 L308.0450179126864,393.13821800914536" fill="none" stroke="#555555" stroke-width="1.7" stroke-opacity="0.85" stroke-linejoin="round" />
<circle cx="308.0450179126864" cy="393.13821800914536" r="4.0" fill="#555555" />
<path d="M335.0,365.0 L334.35049033210487,365.4668168133495 L329.2339552042173,369.96028027799525 L334.95835809765344,361.6951793713159 L342.5423563690996,358.13454232515915 L345.16482314697157,359.90116604345127 L345.05813789542333,363.78414829389936 L345.9140145459587,368.3464087144439 L341.0516884034017,370.5746866195647 L340.5888369573683,376.53053108649976 L338.2018169043789,377.06801080640247 L337.4510193646631,380.7587515354121 L337.3318133133953,381.88043491094936 L345.6388058602581,375.9051735460782 L334.00598970667227,389.95377706426854 L337.18527881896546,383.7950171188987 L340.05554424461377,378.9746211797693 L334.5331677476946,386.9177005005015 L338.5142573021212,384.72520146380464 L338.81548534425355,390.10992163029783 L338.309565243428,392.8377868762595 L341.04200921456993,393.92472785058317 L336.6667507679907,398.24031299181013 L343.0743055985859,395.23249821881853 L336.9434722856669,402.08627403521893 L335.0169671437591,397.11131038626854 L323.9827476688557,405.49034137987144 L329.8539868238074,398.1307323810065 L330.8894226124949,394.52441937868366 L336.93589175761156,387.8541687191416 L340.918168798843,379.443297312081 L345.51028058118027,371.1837786896758 L342.2524086066156,368.8158517024017 L332.711242233331,379.0192795055111 L333.5367182220556,381.84240313470457 L333.5761458546574,385.97744758431566 L341.9115117994031,382.03325899209017 L336.90830315239594,383.4300207525455 L339.8991809216653,384.98450666012263 L347.4608964925158,373.2060658154131 L352.1443223572579,370.9350576034707 L350.96231571277997,368.9546163442978 L336.8470890531564,387.26034253920466 L331.438665844773,393.81151520104584 L340.9152264056536,388.75088473271023 L333.7520373568291,396.40084425759926 L334.80597689400054,399.00681681511287 L332.1159243474227,400.34250684554604 L333.2342609329238,399.1961360537134 L337.2335459218648,391.9249767437226 L342.51931068078477,395.8721709160335 L356.25122993520756,388.8776399958182 L361.3362159577647,389.2523704204018 L363.981537983658,386.9093614107878 L367.012873230503,381.84183894421346 L368.44459312113173,384.91744659469236 L370.046919521963,380.98351544734135 L373.2794876287188,380.5671076425315 L372.0692799119397,381.4279418944806 L364.1583216031601,389.8431144780614 L371.68754352881723,387.7223290632612 L371.02010134544184,390.71178499780865 L382.0501175260702,378.4294809630425 L382.660563222813,375.79731166131364 L383.4189183547456,368.1009993433103 L386.71106068021584,369.6702679993581 L394.3376860481496,364.4882194679699 L397.76959046433643,361.2117558795684 L393.735871989433,364.88690535355556 L397.28315329562133,363.1916854948391 L397.6529027875934,354.6198495681074 L395.85325954646186,357.3839041846895 L394.4284252878712,354.9884064149414 L400.3857729409819,351.03885306530503 L401.85540676907345,356.0902598040275 L399.4224989454251,358.79638293889354 L401.0453201692842,355.84476727459605 L398.37110318183477,344.29972030192084 L395.2685056555092,344.0675773049968 L401.80740749937365,337.4665200155308 L396.86164256090586,351.09179090760693 L393.54183164914684,349.3335114120885 L386.9161780912514,356.33400577849704 L378.21781304192996,355.19941468858286 L379.08747934461206,358.1993120765295 L378.49283446809926,358.71161704673614 L372.53519297711057,362.3564075446857 L375.2993010797723,358.7759524306797 L381.93104024203694,355.55431471979267 L380.71366448606364,354.3938020894607 L374.8921271452556,361.9303984969174 L379.9281486782658,361.09425818275656 L382.1583629046005,357.40978419456246 L378.1982200638585,356.5558370896652 L380.3787440134732,355.8859770241845 L380.7846284138778,358.65008489535757 L369.21164548244974,364.93093673597514 L366.74143122582404,362.50157294143867 L367.00185172236183,364.4284011453537 L370.4372496232361,357.39878745394867 L377.1006231576837,352.8447818701179 L378.76166811268536,353.13554257087367 L379.56965771514894,350.34656883364687 L379.7730322788829,348.99149658870067 L370.51456665704654,359.77355602896483 L361.1153365948287,365.6998875258779 L370.57955920155314,356.63403208352946 L362.16339651710604,366.5902466172163 L367.3081213586345,362.3538203670788 L362.9486943302329,360.0318089928922 L366.938008778724,352.87855499411853 L370.78695907798397,347.52096842714536 L370.353224357907,351.4635736424759 L367.7576354932079,355.28466960879655 L369.7754763543958,358.29688756123204 L363.7285903505385,358.24211417459776 L372.8623358037347,348.2852366041682 L375.03119963039893,353.2781373290637 L370.38644493473385,357.514718692839 L365.4835003745542,368.2872460297978 L366.1501600470316,366.8322644413821 L361.73114132296826,368.30907595214387 L367.89916053231036,365.294799843547 L375.5841718111653,357.7280479219275 L378.59500221744565,354.79076923455955 L379.62332741451746,349.3218238738042 L375.76178726352776,353.8064199042921 L377.742507577799,355.76843072673967 L382.35845862013633,349.4145179569864 L383.08819521303394,348.6155114086786 L389.49519093994786,342.6612297605468 L378.8896400743631,352.63413651212267 L386.55494904862786,347.5590225626054 L373.157790970798,358.9380260993648 L371.17366481281005,363.6882809069847 L373.82446468028326,362.111324113136 L373.7665466267139,366.7354089816989 L381.457057178379,355.3584403899375 L380.585041504123,350.42216197726816 L387.1208633962986,344.81450360976584 L384.3131686809004,350.6396326877711" fill="none" stroke="#555555" stroke-width="1.7" stroke-opacity="0.85" stroke-linejoin="round" />
<circle cx="384.3131686809004" cy="350.6396326877711" r="4.0" fill="#555555" />
<path d="M335.0,365.0 L332.4841482727739,362.99435413318145 L340.3329092553871,354.47368729033394 L347.36784737098105,347.595712346754 L342.6205871945334,354.47156698070705 L344.9509093231405,351.325472676834 L342.1113504138493,358.5869037337921 L336.32900423138847,367.0034530851625 L334.8580319005607,371.76675022775987 L334.9297178813195,370.3467351127956 L338.90049323852463,362.98543788629684 L328.5926315767131,376.26212882368077 L336.70154105287037,366.893292239476 L344.7291816549697,362.0233414841066 L347.91501849050394,359.9831929031669 L340.3293644047863,365.57472971776576 L341.72682885509846,367.13277923969235 L348.02604650409296,370.3270460880294 L348.583453598299,365.51789480548337 L343.1897763466642,372.3561498570721 L334.94436323629213,378.86020183370294 L343.6748462588548,373.16069301172257 L345.3192451713909,374.3673477343882 L350.0304905385735,371.68579835194583 L344.6182954769474,375.8069760296307 L348.5245739153721,369.2345840233116 L349.60532676244554,366.6166224089106 L358.1739667263011,365.80694236852185 L354.4195060508862,363.43801317911004 L356.64354422591873,362.69059059420334 L357.4712320758394,363.4967519072186 L359.55117649624293,363.7615251564854 L361.16701416286145,367.5705496274668 L357.58746251676104,368.5808855375981 L357.0630267214853,365.89618321591286 L355.88335176000083,368.45213177998187 L356.00435100322613,370.3613927005469 L345.88211370299416,379.3221796354188 L341.0683357749891,383.22187053037 L343.90361209601735,378.1458523756942 L350.9959786754887,367.6691026386012 L357.2689274515599,365.42308375430014 L368.54190356500624,355.4424126917812 L367.290804031015,354.5868488972213 L373.655818629932,350.5682281276629 L379.9818742695234,345.95041529770253 L383.1256823434117,345.6189637574234 L384.5409030551138,346.24826023890944 L384.4473302004463,352.85212906971196 L389.30223766825605,345.47645744000647 L392.50020783205963,343.94637429846927 L393.6330027716003,346.6255878575672 L388.9907171743384,349.9666701087725 L390.7809480007032,345.10986322578157 L388.9038900345967,341.77030921580865 L379.5696803461271,348.94111348312623 L382.3492539265863,342.8729996645801 L374.7537952042752,354.6806832303833 L377.1354142040657,353.53551190091076 L369.6784630521307,360.8870972418398 L366.74801374195977,361.632033182296 L367.0658234379632,367.211228453295 L378.8030305076849,361.8800872457389 L378.7902539639508,359.01416478345334 L384.961661791954,346.71073515605855 L389.9580541723887,345.7470920248503 L387.19775870006293,348.80356484932486 L387.33322285472684,345.87561616644575 L388.0693500705636,338.9206868873232 L387.6490183994407,339.5167466905146 L388.24597371163156,346.98207488324385 L385.2218689120826,345.7811380954398 L385.5658397591965,345.50237199853166 L386.5078793970073,347.30833541222603 L382.8763217172274,354.21732009187144 L376.63703271346407,351.8122059190509 L370.6361365132907,357.2170697468431 L380.3445767954333,348.43682767629195 L376.795756810383,351.9987670197156 L374.51340407953785,356.6854365016133 L377.88276756530854,354.4267950826114 L380.5264100007268,350.06615824682297 L388.59105586229606,338.9091177539326 L392.61230059614553,343.77186078093087 L394.86645483560824,347.0694996202599 L389.5915424009639,346.4548440878972 L385.63183969658155,349.35104332184164 L389.7791194838052,349.97616898830057 L386.3063017000177,350.0844887104241 L393.9228149861656,344.379784675324 L384.9304005120857,350.8872564487071 L388.8198543758097,341.264640120306 L395.5120465674709,334.68777199705545 L401.12877309427444,333.23377489443703 L404.9271507982569,329.406086175935 L400.2665911118064,331.4232147845478 L400.93199660062584,335.2836875984439 L406.98709464800294,329.36469064162213 L410.6998918025505,330.63118207119885 L414.8104989673862,322.81496386491307 L417.2818255370933,324.69644441533666 L421.90755435476353,316.7800734865287 L422.66368648710403,314.7655774314716 L435.7441454653939,308.85919605816395 L433.1930427303714,313.88332818300876 L433.51469650794354,307.65984018520635 L430.38192771482534,313.6778554256626 L425.96533953706296,315.51538615179226 L428.3553767474086,317.2829307390964 L431.05277649356447,317.89669710359686 L434.2234478245486,314.27916109602046 L436.48265486942995,314.8846174316504 L436.9495808626572,312.56237523929946 L430.99254107668736,314.48788342304005 L436.056138381428,307.9693675694678 L435.54905931192314,308.8855999734494 L434.6758136118744,312.1699351584917 L434.6112545962932,310.5368119162507 L433.6990651872545,315.10156026174144 L427.2955640803297,326.4307194764999 L430.1128204330848,327.28652634514947 L428.80693226602455,332.28028647355995 L429.35614875785524,330.27534184931653 L431.1402954508198,334.94345029032854 L434.92071340085323,333.9393302464103 L432.01861924647847,333.39808402236304 L429.76688566074097,335.6573134271598 L426.62767469090664,336.2473999454173 L426.29426036070606,337.1616770722268 L420.20971404126254,342.0262983116969 L424.98741055846745,334.8376553397786 L427.9135119968837,327.9477629714354 L425.24702381934065,333.5856833551835 L426.08299988697104,337.1447771983565 L430.3791402125658,331.00990730018873 L428.48976746423324,332.2944505577093 L441.2637221314693,325.65098836982975 L444.2155643120796,321.27713920114655 L443.38412679789917,322.08080532084625 L439.7443199748765,333.3478990866628 L444.29068945696355,335.6299815191834" fill="none" stroke="#555555" stroke-width="1.7" stroke-opacity="0.85" stroke-linejoin="round" />
<circle cx="444.29068945696355" cy="335.6299815191834" r="4.0" fill="#555555" />
<circle cx="335.0" cy="365.0" r="4.0" fill="white" stroke="#1a1a1a" stroke-width="1.8" />
<text x="335.0" y="132" font-size="22" font-family="Helvetica" text-anchor="middle" font-weight="bold" fill="#1a1a1a">Correlated  (rho = 0.75)</text>
<rect x="650" y="150" width="430" height="430" fill="none" stroke="#cccccc" stroke-width="1.2" />
<path d="M650,365.0 L1080,365.0" stroke="#d9d9d9" stroke-width="1" />
<path d="M865.0,150 L865.0,580" stroke="#d9d9d9" stroke-width="1" />
<text x="1074" y="355.0" font-size="22" font-family="Helvetica" text-anchor="end" fill="#8a8a8a">trait X</text>
<text x="875.0" y="168" font-size="22" font-family="Helvetica" text-anchor="start" fill="#8a8a8a">trait Y</text>
<circle cx="812.7529525971239" cy="451.2839951697125" r="3.0" fill="#b4b4b4" fill-opacity="0.55" />
<circle cx="848.8188640150065" cy="337.6073557017918" r="3.0" fill="#b4b4b4" fill-opacity="0.55" />
<circle cx="939.0151528743252" cy="357.852461862367" r="3.0" fill="#b4b4b4" fill-opacity="0.55" />
<circle cx="828.9941897226394" cy="416.1296292118242" r="3.0" fill="#b4b4b4" fill-opacity="0.55" />
<circle cx="913.7819214266476" cy="258.4914078072442" r="3.0" fill="#b4b4b4" fill-opacity="0.55" />
<circle cx="882.7712990323076" cy="445.3532311413988" r="3.0" fill="#b4b4b4" fill-opacity="0.55" />
<circle cx="802.5675699488609" cy="260.7563320803609" r="3.0" fill="#b4b4b4" fill-opacity="0.55" />
<circle cx="878.218098396773" cy="477.85120943166993" r="3.0" fill="#b4b4b4" fill-opacity="0.55" />
<circle cx="859.5470662255574" cy="440.7859346335215" r="3.0" fill="#b4b4b4" fill-opacity="0.55" />
<circle cx="824.0009272050805" cy="396.7943187892498" r="3.0" fill="#b4b4b4" fill-opacity="0.55" />
<circle cx="818.5265530603235" cy="328.9465542042554" r="3.0" fill="#b4b4b4" fill-opacity="0.55" />
<circle cx="860.8898533442615" cy="403.4023395384879" r="3.0" fill="#b4b4b4" fill-opacity="0.55" />
<circle cx="891.6885250635697" cy="310.9336693884289" r="3.0" fill="#b4b4b4" fill-opacity="0.55" />
<circle cx="757.9545379235695" cy="381.72635671775186" r="3.0" fill="#b4b4b4" fill-opacity="0.55" />
<circle cx="801.1028237728901" cy="376.2813252561627" r="3.0" fill="#b4b4b4" fill-opacity="0.55" />
<circle cx="780.9924149842183" cy="363.65198947936904" r="3.0" fill="#b4b4b4" fill-opacity="0.55" />
<circle cx="862.531686568341" cy="384.82806559275" r="3.0" fill="#b4b4b4" fill-opacity="0.55" />
<circle cx="796.7260004239839" cy="390.8124003187015" r="3.0" fill="#b4b4b4" fill-opacity="0.55" />
<circle cx="793.8982685258857" cy="453.29390316182395" r="3.0" fill="#b4b4b4" fill-opacity="0.55" />
<circle cx="879.6451310542052" cy="437.2758292868617" r="3.0" fill="#b4b4b4" fill-opacity="0.55" />
<circle cx="941.2465641676768" cy="318.31322848094703" r="3.0" fill="#b4b4b4" fill-opacity="0.55" />
<circle cx="734.8392154919121" cy="347.27039184130757" r="3.0" fill="#b4b4b4" fill-opacity="0.55" />
<circle cx="793.2214924454775" cy="362.8462720199915" r="3.0" fill="#b4b4b4" fill-opacity="0.55" />
<circle cx="867.8426904249775" cy="494.5492134756639" r="3.0" fill="#b4b4b4" fill-opacity="0.55" />
<circle cx="849.7921689061695" cy="381.66510810632394" r="3.0" fill="#b4b4b4" fill-opacity="0.55" />
<circle cx="927.6757922261411" cy="441.9730496092686" r="3.0" fill="#b4b4b4" fill-opacity="0.55" />
<circle cx="913.0845478899461" cy="436.5997406220689" r="3.0" fill="#b4b4b4" fill-opacity="0.55" />
<circle cx="843.4158963847024" cy="419.75810036690166" r="3.0" fill="#b4b4b4" fill-opacity="0.55" />
<circle cx="959.3870385206544" cy="327.9800556198536" r="3.0" fill="#b4b4b4" fill-opacity="0.55" />
<circle cx="1023.4310570035517" cy="323.1781753022125" r="3.0" fill="#b4b4b4" fill-opacity="0.55" />
<circle cx="920.0525568938251" cy="310.2282368493793" r="3.0" fill="#b4b4b4" fill-opacity="0.55" />
<circle cx="825.478339327105" cy="369.56245940219765" r="3.0" fill="#b4b4b4" fill-opacity="0.55" />
<circle cx="952.9798807773013" cy="390.83588318551176" r="3.0" fill="#b4b4b4" fill-opacity="0.55" />
<circle cx="877.3005755235109" cy="366.38274060294464" r="3.0" fill="#b4b4b4" fill-opacity="0.55" />
<circle cx="904.6913775633452" cy="388.77435742990457" r="3.0" fill="#b4b4b4" fill-opacity="0.55" />
<circle cx="855.0733920961447" cy="349.20848267742053" r="3.0" fill="#b4b4b4" fill-opacity="0.55" />
<circle cx="871.7121135680799" cy="421.3542849850277" r="3.0" fill="#b4b4b4" fill-opacity="0.55" />
<circle cx="923.3616225108274" cy="449.59801811305636" r="3.0" fill="#b4b4b4" fill-opacity="0.55" />
<circle cx="786.7455021234066" cy="448.5562835967271" r="3.0" fill="#b4b4b4" fill-opacity="0.55" />
<circle cx="927.9997090820125" cy="388.49418161010396" r="3.0" fill="#b4b4b4" fill-opacity="0.55" />
<circle cx="801.7355086721124" cy="439.01351507599213" r="3.0" fill="#b4b4b4" fill-opacity="0.55" />
<circle cx="892.4373316831568" cy="433.7244674103741" r="3.0" fill="#b4b4b4" fill-opacity="0.55" />
<circle cx="782.1221772209112" cy="324.9974216876348" r="3.0" fill="#b4b4b4" fill-opacity="0.55" />
<circle cx="787.032678379878" cy="386.0073340641062" r="3.0" fill="#b4b4b4" fill-opacity="0.55" />
<circle cx="864.5594754016661" cy="394.0142739060332" r="3.0" fill="#b4b4b4" fill-opacity="0.55" />
<circle cx="861.4756964415087" cy="277.7768780918861" r="3.0" fill="#b4b4b4" fill-opacity="0.55" />
<circle cx="831.3235627858503" cy="447.04576944206633" r="3.0" fill="#b4b4b4" fill-opacity="0.55" />
<circle cx="745.3332343585936" cy="378.3408227634186" r="3.0" fill="#b4b4b4" fill-opacity="0.55" />
<circle cx="842.0499220489653" cy="347.7289257606002" r="3.0" fill="#b4b4b4" fill-opacity="0.55" />
<circle cx="834.7537614539217" cy="396.18402107767747" r="3.0" fill="#b4b4b4" fill-opacity="0.55" />
<circle cx="818.0051861250151" cy="398.86313668472377" r="3.0" fill="#b4b4b4" fill-opacity="0.55" />
<circle cx="875.439012684317" cy="389.7805564700773" r="3.0" fill="#b4b4b4" fill-opacity="0.55" />
<circle cx="871.5439388966633" cy="241.13477333116663" r="3.0" fill="#b4b4b4" fill-opacity="0.55" />
<circle cx="896.215273461013" cy="467.6846414450223" r="3.0" fill="#b4b4b4" fill-opacity="0.55" />
<circle cx="977.9420790626721" cy="342.3396274098378" r="3.0" fill="#b4b4b4" fill-opacity="0.55" />
<circle cx="803.665498003951" cy="305.9043860901669" r="3.0" fill="#b4b4b4" fill-opacity="0.55" />
<circle cx="866.1502898017017" cy="405.08241957652723" r="3.0" fill="#b4b4b4" fill-opacity="0.55" />
<circle cx="823.7259336459916" cy="429.7235863345907" r="3.0" fill="#b4b4b4" fill-opacity="0.55" />
<circle cx="868.1350247144895" cy="295.36497298298286" r="3.0" fill="#b4b4b4" fill-opacity="0.55" />
<circle cx="843.8223632595844" cy="337.5826706402678" r="3.0" fill="#b4b4b4" fill-opacity="0.55" />
<circle cx="987.2011822914196" cy="444.13242002747506" r="3.0" fill="#b4b4b4" fill-opacity="0.55" />
<circle cx="881.7779695889548" cy="384.9648300827737" r="3.0" fill="#b4b4b4" fill-opacity="0.55" />
<circle cx="795.9878601627313" cy="431.83549935723283" r="3.0" fill="#b4b4b4" fill-opacity="0.55" />
<circle cx="864.0041497634688" cy="336.7331413915041" r="3.0" fill="#b4b4b4" fill-opacity="0.55" />
<circle cx="830.3661177394691" cy="361.4563736250634" r="3.0" fill="#b4b4b4" fill-opacity="0.55" />
<circle cx="912.0529880919585" cy="345.6785854280811" r="3.0" fill="#b4b4b4" fill-opacity="0.55" />
<circle cx="921.5951790285733" cy="334.9393770447123" r="3.0" fill="#b4b4b4" fill-opacity="0.55" />
<circle cx="896.7943091731371" cy="245.9920230416696" r="3.0" fill="#b4b4b4" fill-opacity="0.55" />
<circle cx="905.6005917708794" cy="356.5647595586497" r="3.0" fill="#b4b4b4" fill-opacity="0.55" />
<circle cx="911.2539144666757" cy="424.88230007098946" r="3.0" fill="#b4b4b4" fill-opacity="0.55" />
<circle cx="842.9980215337615" cy="313.3204594994425" r="3.0" fill="#b4b4b4" fill-opacity="0.55" />
<circle cx="906.096709248541" cy="264.12188983978007" r="3.0" fill="#b4b4b4" fill-opacity="0.55" />
<circle cx="865.6823337022778" cy="460.2728711940597" r="3.0" fill="#b4b4b4" fill-opacity="0.55" />
<circle cx="991.8660879207225" cy="293.7963774938996" r="3.0" fill="#b4b4b4" fill-opacity="0.55" />
<circle cx="796.021652053101" cy="275.3630033202395" r="3.0" fill="#b4b4b4" fill-opacity="0.55" />
<circle cx="867.111091435607" cy="483.1802077362262" r="3.0" fill="#b4b4b4" fill-opacity="0.55" />
<circle cx="837.613305119414" cy="398.1558558511091" r="3.0" fill="#b4b4b4" fill-opacity="0.55" />
<circle cx="968.6461680209945" cy="416.60447561066593" r="3.0" fill="#b4b4b4" fill-opacity="0.55" />
<circle cx="848.4764460055867" cy="383.03138590053175" r="3.0" fill="#b4b4b4" fill-opacity="0.55" />
<circle cx="840.3093502908753" cy="424.55331003697364" r="3.0" fill="#b4b4b4" fill-opacity="0.55" />
<circle cx="879.273844072885" cy="294.84454576396536" r="3.0" fill="#b4b4b4" fill-opacity="0.55" />
<circle cx="905.6530893945232" cy="425.42797271295507" r="3.0" fill="#b4b4b4" fill-opacity="0.55" />
<circle cx="790.0877612758293" cy="357.24869272116956" r="3.0" fill="#b4b4b4" fill-opacity="0.55" />
<circle cx="818.9652317639059" cy="406.0562468189696" r="3.0" fill="#b4b4b4" fill-opacity="0.55" />
<circle cx="755.5653531967772" cy="237.92251679379018" r="3.0" fill="#b4b4b4" fill-opacity="0.55" />
<circle cx="924.7191266049367" cy="428.45153829090907" r="3.0" fill="#b4b4b4" fill-opacity="0.55" />
<circle cx="924.1712749578265" cy="277.53493098415333" r="3.0" fill="#b4b4b4" fill-opacity="0.55" />
<circle cx="709.3169787331888" cy="400.7645845140354" r="3.0" fill="#b4b4b4" fill-opacity="0.55" />
<circle cx="839.7229570009054" cy="322.76523905339167" r="3.0" fill="#b4b4b4" fill-opacity="0.55" />
<circle cx="857.086343698583" cy="380.01295066916634" r="3.0" fill="#b4b4b4" fill-opacity="0.55" />
<circle cx="861.1970155604505" cy="244.25302206483923" r="3.0" fill="#b4b4b4" fill-opacity="0.55" />
<circle cx="1005.7260003037841" cy="399.19323756301094" r="3.0" fill="#b4b4b4" fill-opacity="0.55" />
<circle cx="804.6538004397445" cy="189.5760828217654" r="3.0" fill="#b4b4b4" fill-opacity="0.55" />
<circle cx="801.1681526859277" cy="402.3580102566131" r="3.0" fill="#b4b4b4" fill-opacity="0.55" />
<circle cx="867.3833407605996" cy="333.515775002659" r="3.0" fill="#b4b4b4" fill-opacity="0.55" />
<circle cx="932.0432251906452" cy="339.5272416184606" r="3.0" fill="#b4b4b4" fill-opacity="0.55" />
<circle cx="808.1629210865253" cy="332.0084241923674" r="3.0" fill="#b4b4b4" fill-opacity="0.55" />
<circle cx="881.282508990307" cy="242.71588382495514" r="3.0" fill="#b4b4b4" fill-opacity="0.55" />
<circle cx="864.022740423188" cy="452.10581014612274" r="3.0" fill="#b4b4b4" fill-opacity="0.55" />
<circle cx="796.9153692143783" cy="270.520331007597" r="3.0" fill="#b4b4b4" fill-opacity="0.55" />
<circle cx="829.8096334782258" cy="502.109149141938" r="3.0" fill="#b4b4b4" fill-opacity="0.55" />
<circle cx="827.1665343393233" cy="364.9990162231127" r="3.0" fill="#b4b4b4" fill-opacity="0.55" />
<circle cx="942.4541199653136" cy="431.0941362377339" r="3.0" fill="#b4b4b4" fill-opacity="0.55" />
<circle cx="908.4354288087716" cy="313.1850586623189" r="3.0" fill="#b4b4b4" fill-opacity="0.55" />
<circle cx="819.4337920334576" cy="377.2217535283571" r="3.0" fill="#b4b4b4" fill-opacity="0.55" />
<circle cx="980.2823638865314" cy="252.90781194920504" r="3.0" fill="#b4b4b4" fill-opacity="0.55" />
<circle cx="920.7385548648202" cy="343.37319172873714" r="3.0" fill="#b4b4b4" fill-opacity="0.55" />
<circle cx="939.1625965172996" cy="374.1653383052377" r="3.0" fill="#b4b4b4" fill-opacity="0.55" />
<circle cx="858.804542689343" cy="421.0537666661736" r="3.0" fill="#b4b4b4" fill-opacity="0.55" />
<circle cx="865.3624629405391" cy="370.3435073807204" r="3.0" fill="#b4b4b4" fill-opacity="0.55" />
<circle cx="1045.7063056013376" cy="377.56402443721026" r="3.0" fill="#b4b4b4" fill-opacity="0.55" />
<circle cx="947.7957175311785" cy="278.967601819828" r="3.0" fill="#b4b4b4" fill-opacity="0.55" />
<circle cx="852.8506300267513" cy="288.8120011077188" r="3.0" fill="#b4b4b4" fill-opacity="0.55" />
<circle cx="723.1772925335528" cy="358.8153500776212" r="3.0" fill="#b4b4b4" fill-opacity="0.55" />
<circle cx="920.8518790561372" cy="521.2245556441806" r="3.0" fill="#b4b4b4" fill-opacity="0.55" />
<circle cx="789.4782401141391" cy="296.1952037165756" r="3.0" fill="#b4b4b4" fill-opacity="0.55" />
<circle cx="848.2553589903926" cy="436.54930883985037" r="3.0" fill="#b4b4b4" fill-opacity="0.55" />
<circle cx="840.6596761418288" cy="400.3504502677001" r="3.0" fill="#b4b4b4" fill-opacity="0.55" />
<circle cx="912.1988401112337" cy="335.4286472473261" r="3.0" fill="#b4b4b4" fill-opacity="0.55" />
<circle cx="846.7426991025789" cy="408.34808406368427" r="3.0" fill="#b4b4b4" fill-opacity="0.55" />
<circle cx="861.48991886749" cy="278.6640835214476" r="3.0" fill="#b4b4b4" fill-opacity="0.55" />
<circle cx="887.7395800619056" cy="323.37172647478525" r="3.0" fill="#b4b4b4" fill-opacity="0.55" />
<circle cx="855.1828656364123" cy="449.16378598981385" r="3.0" fill="#b4b4b4" fill-opacity="0.55" />
<circle cx="818.6874666208388" cy="322.57095100972265" r="3.0" fill="#b4b4b4" fill-opacity="0.55" />
<circle cx="871.7246854712134" cy="423.88653690841284" r="3.0" fill="#b4b4b4" fill-opacity="0.55" />
<circle cx="759.5932904531478" cy="357.7889064922555" r="3.0" fill="#b4b4b4" fill-opacity="0.55" />
<circle cx="842.8790403423924" cy="387.83757484901105" r="3.0" fill="#b4b4b4" fill-opacity="0.55" />
<circle cx="843.5358361048084" cy="346.503151697313" r="3.0" fill="#b4b4b4" fill-opacity="0.55" />
<circle cx="884.1837154135916" cy="302.3158671826102" r="3.0" fill="#b4b4b4" fill-opacity="0.55" />
<circle cx="925.4880726651206" cy="278.21211748300357" r="3.0" fill="#b4b4b4" fill-opacity="0.55" />
<circle cx="917.5357749115587" cy="386.86537186831924" r="3.0" fill="#b4b4b4" fill-opacity="0.55" />
<circle cx="861.464295926554" cy="332.8011377609825" r="3.0" fill="#b4b4b4" fill-opacity="0.55" />
<circle cx="844.7839884696042" cy="329.2032309817648" r="3.0" fill="#b4b4b4" fill-opacity="0.55" />
<circle cx="940.1594053193704" cy="417.20239155839556" r="3.0" fill="#b4b4b4" fill-opacity="0.55" />
<circle cx="749.6567966872735" cy="287.23157109464097" r="3.0" fill="#b4b4b4" fill-opacity="0.55" />
<circle cx="866.1570850672813" cy="318.82908728214244" r="3.0" fill="#b4b4b4" fill-opacity="0.55" />
<circle cx="778.1982875172853" cy="252.09290893854381" r="3.0" fill="#b4b4b4" fill-opacity="0.55" />
<circle cx="913.122204919915" cy="373.2139234374745" r="3.0" fill="#b4b4b4" fill-opacity="0.55" />
<circle cx="842.0674459566383" cy="357.57951081882504" r="3.0" fill="#b4b4b4" fill-opacity="0.55" />
<circle cx="854.1372005389242" cy="383.1570840477057" r="3.0" fill="#b4b4b4" fill-opacity="0.55" />
<circle cx="792.0563652309095" cy="282.7260517066592" r="3.0" fill="#b4b4b4" fill-opacity="0.55" />
<circle cx="862.4214538841045" cy="360.1373751397683" r="3.0" fill="#b4b4b4" fill-opacity="0.55" />
<circle cx="871.0536174391216" cy="518.6414325453037" r="3.0" fill="#b4b4b4" fill-opacity="0.55" />
<circle cx="899.3440646959788" cy="386.444942449834" r="3.0" fill="#b4b4b4" fill-opacity="0.55" />
<circle cx="846.1563273068623" cy="360.4532143625501" r="3.0" fill="#b4b4b4" fill-opacity="0.55" />
<circle cx="801.6417408649666" cy="310.05246237958875" r="3.0" fill="#b4b4b4" fill-opacity="0.55" />
<circle cx="819.6633654186342" cy="423.87469144341486" r="3.0" fill="#b4b4b4" fill-opacity="0.55" />
<circle cx="808.827041148118" cy="354.65702137724713" r="3.0" fill="#b4b4b4" fill-opacity="0.55" />
<circle cx="913.5886627236155" cy="403.76861989165036" r="3.0" fill="#b4b4b4" fill-opacity="0.55" />
<circle cx="766.6090499024889" cy="295.77712150665917" r="3.0" fill="#b4b4b4" fill-opacity="0.55" />
<circle cx="795.6081900199017" cy="287.1549911412327" r="3.0" fill="#b4b4b4" fill-opacity="0.55" />
<circle cx="861.4625413484607" cy="410.49855370156934" r="3.0" fill="#b4b4b4" fill-opacity="0.55" />
<circle cx="823.3004275563093" cy="334.908718986699" r="3.0" fill="#b4b4b4" fill-opacity="0.55" />
<circle cx="922.9439199770642" cy="377.9110905848374" r="3.0" fill="#b4b4b4" fill-opacity="0.55" />
<circle cx="926.6942097605759" cy="229.0302076823686" r="3.0" fill="#b4b4b4" fill-opacity="0.55" />
<circle cx="851.4283956876054" cy="439.88819026199155" r="3.0" fill="#b4b4b4" fill-opacity="0.55" />
<circle cx="796.3042197169555" cy="455.5824549470454" r="3.0" fill="#b4b4b4" fill-opacity="0.55" />
<circle cx="823.3248266811485" cy="412.15531392131777" r="3.0" fill="#b4b4b4" fill-opacity="0.55" />
<circle cx="778.6675103855321" cy="330.45769249593866" r="3.0" fill="#b4b4b4" fill-opacity="0.55" />
<circle cx="694.8673072517473" cy="451.05205421636936" r="3.0" fill="#b4b4b4" fill-opacity="0.55" />
<circle cx="996.2967085847072" cy="297.3855993576865" r="3.0" fill="#b4b4b4" fill-opacity="0.55" />
<circle cx="899.0606702784228" cy="335.20887949230337" r="3.0" fill="#b4b4b4" fill-opacity="0.55" />
<circle cx="980.379240046092" cy="330.10291763595325" r="3.0" fill="#b4b4b4" fill-opacity="0.55" />
<circle cx="870.0542647738941" cy="445.1467983541461" r="3.0" fill="#b4b4b4" fill-opacity="0.55" />
<circle cx="860.2004952346305" cy="412.8136544356626" r="3.0" fill="#b4b4b4" fill-opacity="0.55" />
<circle cx="818.9916108775303" cy="411.5337486869191" r="3.0" fill="#b4b4b4" fill-opacity="0.55" />
<circle cx="862.0911891185203" cy="386.4811594680443" r="3.0" fill="#b4b4b4" fill-opacity="0.55" />
<circle cx="921.7541696517885" cy="451.4027303063705" r="3.0" fill="#b4b4b4" fill-opacity="0.55" />
<circle cx="853.9587599091769" cy="243.85092068684315" r="3.0" fill="#b4b4b4" fill-opacity="0.55" />
<circle cx="867.5342204536121" cy="286.90840223895214" r="3.0" fill="#b4b4b4" fill-opacity="0.55" />
<circle cx="939.0683793632462" cy="279.21839958408106" r="3.0" fill="#b4b4b4" fill-opacity="0.55" />
<circle cx="913.0895822569479" cy="454.9381505210217" r="3.0" fill="#b4b4b4" fill-opacity="0.55" />
<circle cx="847.5792858350892" cy="389.77943946386466" r="3.0" fill="#b4b4b4" fill-opacity="0.55" />
<circle cx="764.0897301722165" cy="395.22259047050136" r="3.0" fill="#b4b4b4" fill-opacity="0.55" />
<circle cx="783.5554046806767" cy="473.5132002709598" r="3.0" fill="#b4b4b4" fill-opacity="0.55" />
<circle cx="878.7402106547613" cy="367.8400374472173" r="3.0" fill="#b4b4b4" fill-opacity="0.55" />
<circle cx="820.1878164973743" cy="426.93214180659527" r="3.0" fill="#b4b4b4" fill-opacity="0.55" />
<circle cx="829.7352151376979" cy="390.6755846713272" r="3.0" fill="#b4b4b4" fill-opacity="0.55" />
<circle cx="838.4109967408303" cy="368.43398963776383" r="3.0" fill="#b4b4b4" fill-opacity="0.55" />
<circle cx="836.6238651813298" cy="339.788189027331" r="3.0" fill="#b4b4b4" fill-opacity="0.55" />
<circle cx="899.0658310273966" cy="341.6842482744465" r="3.0" fill="#b4b4b4" fill-opacity="0.55" />
<circle cx="821.7978013263418" cy="405.16630955655967" r="3.0" fill="#b4b4b4" fill-opacity="0.55" />
<circle cx="893.3320552261379" cy="377.83763556741445" r="3.0" fill="#b4b4b4" fill-opacity="0.55" />
<circle cx="862.1886008030351" cy="527.3572663081542" r="3.0" fill="#b4b4b4" fill-opacity="0.55" />
<circle cx="689.0841346437755" cy="343.0342844561271" r="3.0" fill="#b4b4b4" fill-opacity="0.55" />
<circle cx="886.4712457925493" cy="274.21580231503935" r="3.0" fill="#b4b4b4" fill-opacity="0.55" />
<circle cx="911.9848698674591" cy="350.553381201173" r="3.0" fill="#b4b4b4" fill-opacity="0.55" />
<circle cx="866.0660388057778" cy="457.95430062576384" r="3.0" fill="#b4b4b4" fill-opacity="0.55" />
<circle cx="922.5402473548493" cy="404.3245434258097" r="3.0" fill="#b4b4b4" fill-opacity="0.55" />
<circle cx="897.7376235561892" cy="351.96698370630793" r="3.0" fill="#b4b4b4" fill-opacity="0.55" />
<circle cx="882.7275331706426" cy="306.84085716913086" r="3.0" fill="#b4b4b4" fill-opacity="0.55" />
<circle cx="833.0844805832072" cy="390.22895880248586" r="3.0" fill="#b4b4b4" fill-opacity="0.55" />
<circle cx="809.2393282513134" cy="389.5720257703252" r="3.0" fill="#b4b4b4" fill-opacity="0.55" />
<circle cx="973.5385616730354" cy="388.6707616131458" r="3.0" fill="#b4b4b4" fill-opacity="0.55" />
<circle cx="942.2446991277656" cy="311.1841035592241" r="3.0" fill="#b4b4b4" fill-opacity="0.55" />
<circle cx="912.5138136944556" cy="312.6823471301471" r="3.0" fill="#b4b4b4" fill-opacity="0.55" />
<circle cx="798.9183456658036" cy="340.6693178907976" r="3.0" fill="#b4b4b4" fill-opacity="0.55" />
<circle cx="968.4874548361277" cy="410.3321594882316" r="3.0" fill="#b4b4b4" fill-opacity="0.55" />
<circle cx="861.9309019995866" cy="409.8997632696148" r="3.0" fill="#b4b4b4" fill-opacity="0.55" />
<circle cx="885.6537802760017" cy="435.26787222762414" r="3.0" fill="#b4b4b4" fill-opacity="0.55" />
<circle cx="969.8730775042206" cy="389.55135746250875" r="3.0" fill="#b4b4b4" fill-opacity="0.55" />
<circle cx="764.493261218166" cy="248.32725884088802" r="3.0" fill="#b4b4b4" fill-opacity="0.55" />
<circle cx="928.2310370855131" cy="331.2181913626363" r="3.0" fill="#b4b4b4" fill-opacity="0.55" />
<circle cx="899.698885408174" cy="388.31108232719464" r="3.0" fill="#b4b4b4" fill-opacity="0.55" />
<circle cx="850.4519533481744" cy="317.8290501777664" r="3.0" fill="#b4b4b4" fill-opacity="0.55" />
<circle cx="924.7846563356418" cy="304.23888888606626" r="3.0" fill="#b4b4b4" fill-opacity="0.55" />
<circle cx="878.84801875949" cy="395.3858909144758" r="3.0" fill="#b4b4b4" fill-opacity="0.55" />
<circle cx="852.4852194626754" cy="292.70789758313583" r="3.0" fill="#b4b4b4" fill-opacity="0.55" />
<circle cx="958.8128468835773" cy="387.2370193540946" r="3.0" fill="#b4b4b4" fill-opacity="0.55" />
<circle cx="833.9029210463461" cy="283.7202487761347" r="3.0" fill="#b4b4b4" fill-opacity="0.55" />
<circle cx="912.1468302950576" cy="319.5725724680481" r="3.0" fill="#b4b4b4" fill-opacity="0.55" />
<circle cx="779.4994734742525" cy="389.3508636106893" r="3.0" fill="#b4b4b4" fill-opacity="0.55" />
<circle cx="831.4472609760916" cy="351.4546964561788" r="3.0" fill="#b4b4b4" fill-opacity="0.55" />
<circle cx="755.2234770781351" cy="282.1433776518838" r="3.0" fill="#b4b4b4" fill-opacity="0.55" />
<circle cx="884.5540412122333" cy="336.6697089460132" r="3.0" fill="#b4b4b4" fill-opacity="0.55" />
<circle cx="787.8514602938643" cy="366.7213272255019" r="3.0" fill="#b4b4b4" fill-opacity="0.55" />
<circle cx="951.9544884708284" cy="467.26804682686907" r="3.0" fill="#b4b4b4" fill-opacity="0.55" />
<circle cx="884.9212522230832" cy="319.4718010370929" r="3.0" fill="#b4b4b4" fill-opacity="0.55" />
<circle cx="819.9185978291671" cy="311.918374521896" r="3.0" fill="#b4b4b4" fill-opacity="0.55" />
<circle cx="843.4955025541535" cy="284.8788457873379" r="3.0" fill="#b4b4b4" fill-opacity="0.55" />
<circle cx="899.3681914292144" cy="350.38222259648376" r="3.0" fill="#b4b4b4" fill-opacity="0.55" />
<circle cx="995.8839200012205" cy="310.80068528774837" r="3.0" fill="#b4b4b4" fill-opacity="0.55" />
<circle cx="950.2595991998157" cy="442.4990089483537" r="3.0" fill="#b4b4b4" fill-opacity="0.55" />
<circle cx="822.87256983045" cy="310.496261930203" r="3.0" fill="#b4b4b4" fill-opacity="0.55" />
<circle cx="924.001985035251" cy="368.6315474084479" r="3.0" fill="#b4b4b4" fill-opacity="0.55" />
<circle cx="915.8003651086422" cy="433.9533501277323" r="3.0" fill="#b4b4b4" fill-opacity="0.55" />
<circle cx="878.9316889484489" cy="439.747282109587" r="3.0" fill="#b4b4b4" fill-opacity="0.55" />
<circle cx="887.1886862916037" cy="396.6748363742722" r="3.0" fill="#b4b4b4" fill-opacity="0.55" />
<circle cx="823.2380405822669" cy="361.3320328820403" r="3.0" fill="#b4b4b4" fill-opacity="0.55" />
<circle cx="983.4102768770751" cy="430.91780997209537" r="3.0" fill="#b4b4b4" fill-opacity="0.55" />
<circle cx="825.795035614999" cy="295.44006323239967" r="3.0" fill="#b4b4b4" fill-opacity="0.55" />
<circle cx="837.4039896819047" cy="249.7297516363418" r="3.0" fill="#b4b4b4" fill-opacity="0.55" />
<circle cx="879.4981473718096" cy="359.0951934719768" r="3.0" fill="#b4b4b4" fill-opacity="0.55" />
<circle cx="888.2515423804603" cy="251.55951113611764" r="3.0" fill="#b4b4b4" fill-opacity="0.55" />
<circle cx="907.6977969440891" cy="331.33542164382015" r="3.0" fill="#b4b4b4" fill-opacity="0.55" />
<circle cx="881.408914871894" cy="466.7939542907879" r="3.0" fill="#b4b4b4" fill-opacity="0.55" />
<circle cx="807.3231860450886" cy="268.3578830233298" r="3.0" fill="#b4b4b4" fill-opacity="0.55" />
<circle cx="918.5466185949028" cy="332.02910748616506" r="3.0" fill="#b4b4b4" fill-opacity="0.55" />
<circle cx="906.50560195925" cy="400.41591097095034" r="3.0" fill="#b4b4b4" fill-opacity="0.55" />
<circle cx="887.0188841059104" cy="423.6881350075872" r="3.0" fill="#b4b4b4" fill-opacity="0.55" />
<circle cx="890.4978482098287" cy="411.5269844854507" r="3.0" fill="#b4b4b4" fill-opacity="0.55" />
<circle cx="851.0693141610367" cy="335.4593358670419" r="3.0" fill="#b4b4b4" fill-opacity="0.55" />
<circle cx="843.7092859925308" cy="322.8090565396182" r="3.0" fill="#b4b4b4" fill-opacity="0.55" />
<circle cx="894.7115846633724" cy="341.5807577380148" r="3.0" fill="#b4b4b4" fill-opacity="0.55" />
<circle cx="951.2874082761136" cy="461.0258198307017" r="3.0" fill="#b4b4b4" fill-opacity="0.55" />
<circle cx="760.9997909249565" cy="324.8509135573281" r="3.0" fill="#b4b4b4" fill-opacity="0.55" />
<circle cx="926.2941607357791" cy="233.93857819435374" r="3.0" fill="#b4b4b4" fill-opacity="0.55" />
<circle cx="914.2712762979311" cy="310.9102349578787" r="3.0" fill="#b4b4b4" fill-opacity="0.55" />
<circle cx="807.4659966442086" cy="315.9655508618643" r="3.0" fill="#b4b4b4" fill-opacity="0.55" />
<circle cx="908.9016277836921" cy="433.7912168697053" r="3.0" fill="#b4b4b4" fill-opacity="0.55" />
<circle cx="806.6035562286853" cy="372.23385109146795" r="3.0" fill="#b4b4b4" fill-opacity="0.55" />
<circle cx="883.780168638145" cy="556.8572396391224" r="3.0" fill="#b4b4b4" fill-opacity="0.55" />
<circle cx="869.5805105121764" cy="349.9594797991338" r="3.0" fill="#b4b4b4" fill-opacity="0.55" />
<circle cx="853.4788432271152" cy="347.6159536108195" r="3.0" fill="#b4b4b4" fill-opacity="0.55" />
<circle cx="894.7029817559564" cy="430.90975090903714" r="3.0" fill="#b4b4b4" fill-opacity="0.55" />
<circle cx="892.1147685523187" cy="381.3730448310358" r="3.0" fill="#b4b4b4" fill-opacity="0.55" />
<circle cx="803.374564412202" cy="351.37416040114897" r="3.0" fill="#b4b4b4" fill-opacity="0.55" />
<circle cx="961.9222762264815" cy="460.12874254997274" r="3.0" fill="#b4b4b4" fill-opacity="0.55" />
<circle cx="757.2973842759709" cy="472.7062794648382" r="3.0" fill="#b4b4b4" fill-opacity="0.55" />
<circle cx="993.82485662144" cy="381.3910624154275" r="3.0" fill="#b4b4b4" fill-opacity="0.55" />
<circle cx="861.1243478658737" cy="416.24659987441026" r="3.0" fill="#b4b4b4" fill-opacity="0.55" />
<circle cx="803.7284019592378" cy="497.05301042779354" r="3.0" fill="#b4b4b4" fill-opacity="0.55" />
<circle cx="876.1022282392994" cy="348.08928439451415" r="3.0" fill="#b4b4b4" fill-opacity="0.55" />
<circle cx="736.2258117372309" cy="432.9627493797042" r="3.0" fill="#b4b4b4" fill-opacity="0.55" />
<circle cx="816.5198613411425" cy="366.69409930438985" r="3.0" fill="#b4b4b4" fill-opacity="0.55" />
<circle cx="880.9053851223453" cy="291.65288236498117" r="3.0" fill="#b4b4b4" fill-opacity="0.55" />
<circle cx="953.896377004975" cy="295.3885696594797" r="3.0" fill="#b4b4b4" fill-opacity="0.55" />
<circle cx="952.4026164463984" cy="440.99381467075546" r="3.0" fill="#b4b4b4" fill-opacity="0.55" />
<circle cx="828.8740213725406" cy="290.49208877028656" r="3.0" fill="#b4b4b4" fill-opacity="0.55" />
<circle cx="883.8067066441762" cy="363.78025166203975" r="3.0" fill="#b4b4b4" fill-opacity="0.55" />
<circle cx="736.0659224072003" cy="486.1324937358498" r="3.0" fill="#b4b4b4" fill-opacity="0.55" />
<circle cx="912.6185532861232" cy="342.7457803317227" r="3.0" fill="#b4b4b4" fill-opacity="0.55" />
<circle cx="845.711397212126" cy="391.9057340543901" r="3.0" fill="#b4b4b4" fill-opacity="0.55" />
<circle cx="752.5417985516375" cy="340.81477124441915" r="3.0" fill="#b4b4b4" fill-opacity="0.55" />
<circle cx="932.3940823602343" cy="258.01007256780275" r="3.0" fill="#b4b4b4" fill-opacity="0.55" />
<circle cx="868.2014119028094" cy="378.3037232290308" r="3.0" fill="#b4b4b4" fill-opacity="0.55" />
<circle cx="793.5941318699264" cy="285.3038218128318" r="3.0" fill="#b4b4b4" fill-opacity="0.55" />
<circle cx="976.2042238736569" cy="404.9489549436845" r="3.0" fill="#b4b4b4" fill-opacity="0.55" />
<circle cx="883.9433743850013" cy="359.09270523867747" r="3.0" fill="#b4b4b4" fill-opacity="0.55" />
<circle cx="827.6142804446251" cy="527.7126229670189" r="3.0" fill="#b4b4b4" fill-opacity="0.55" />
<path d="M995.3030303030303,365.0 L994.9784487317661,355.80855988236556 L994.0063210670348,346.66291105705363 L992.3914903999628,337.6086166864719 L990.1420017357045,328.69078480972985 L987.2690619136329,319.95384361665657 L983.7869837754281,311.44132010879474 L979.7131148592209,303.1956232500674 L975.0677509750301,295.25783268745374 L969.8740350920575,287.6674940942536 L964.1578420415806,280.46242215553264 L957.9476496098434,273.6785121772636 L951.2743966631589,267.349561257717 L944.1713290120323,261.50709991201825 L936.6738337822067,256.1802349887069 L928.8192631177812,251.39550466088133 L920.6467480947097,247.1767462143556 L912.1970037717465,243.5449772915003 L903.512126350074,240.5182911824055 L894.6353834521442,238.11176668501992 L885.6109985645608,236.33739298333762 L876.4839307188936,235.20400991788654 L867.299650508044,234.7172639460881 L858.1039135540394,234.87958001188952 L848.9425325558248,235.69014946481576 L839.8611490527019,237.1449340886253 L830.9050060404759,239.2366862195002 L822.118722573126,241.95498485354267 L813.5460714729229,245.28628756369267 L805.2297612564306,249.2139979674177 L797.2112233628244,253.71854840905627 L789.5304057445456,258.77749744489387 L782.2255738486117,264.3656416453069 L775.3331199800838,270.4551411569811 L768.8873819974341,277.01565839966025 L762.9204722430617,284.0145092064456 L757.4621175612181,291.41682565467045 L752.5395112003648,299.18572977613775 L748.1771773377769,307.282517281302 L744.3968489013257,315.6668503820932 L741.2173592971254,324.296958752748 L738.654548582451,333.12984762747146 L736.7211845513694,342.12151199819755 L735.4268991262327,351.22715584532574 L734.7781403719241,360.4014153092374 L734.7781403719241,369.59858469076255 L735.4268991262327,378.7728441546742 L736.7211845513694,387.87848800180234 L738.654548582451,396.8701523725284 L741.2173592971254,405.7030412472519 L744.3968489013257,414.33314961790677 L748.1771773377768,422.71748271869797 L752.5395112003648,430.8142702238622 L757.4621175612181,438.58317434532944 L762.9204722430616,445.9854907935544 L768.8873819974341,452.9843416003397 L775.3331199800837,459.5448588430189 L782.2255738486116,465.63435835469306 L789.5304057445456,471.2225025551061 L797.2112233628244,476.28145159094373 L805.2297612564306,480.7860020325823 L813.5460714729229,484.71371243630733 L822.118722573126,488.0450151464573 L830.9050060404759,490.7633137804998 L839.8611490527019,492.8550659113747 L848.9425325558248,494.30985053518424 L858.1039135540394,495.12041998811054 L867.2996505080439,495.28273605391195 L876.4839307188935,494.79599008211346 L885.6109985645608,493.6626070166624 L894.6353834521442,491.8882333149801 L903.512126350074,489.48170881759444 L912.1970037717465,486.45502270849977 L920.6467480947096,482.8232537856444 L928.8192631177812,478.60449533911867 L936.6738337822067,473.81976501129316 L944.1713290120323,468.49290008798175 L951.2743966631588,462.65043874228303 L957.9476496098434,456.32148782273646 L964.1578420415806,449.53757784446736 L969.8740350920575,442.3325059057464 L975.0677509750301,434.74216731254626 L979.7131148592209,426.80437674993266 L983.7869837754281,418.5586798912053 L987.2690619136329,410.04615638334343 L990.1420017357045,401.30921519027015 L992.3914903999628,392.3913833135281 L994.0063210670348,383.3370889429464 L994.9784487317661,374.1914401176345 L995.3030303030303,365.0 Z" fill="none" stroke="#1a1a1a" stroke-width="2.6" />
<path d="M865.0,365.0 L862.9846961890145,361.6552254372913 L855.0374306454721,366.2743640801199 L836.9571351862479,359.20135880869066 L839.7118109861244,358.95094001983654 L838.2225011993005,362.4600174866712 L837.7885696865268,364.1687070870429 L836.4210410840944,364.35488149003544 L837.1129140037426,355.8257291982135 L829.131892720401,354.3832492571562 L825.692868480472,360.6575836583263 L812.6529905758271,357.31584858298004 L807.1996574263467,361.4989135512593 L809.731891161546,367.51991276539746 L809.8202405905033,367.9872904154438 L814.1803742022327,362.47745316607984 L809.3521578484631,357.4822531272521 L808.7643833701459,356.8611549956201 L807.5391548768443,352.64585796455106 L800.8093429632748,351.26881695890285 L807.2284855659456,352.8858539670247 L818.3389623174926,356.99304132022496 L819.4605759547462,359.70549561533005 L815.9984830750714,365.9043374696255 L812.9696476628626,366.24703396468817 L808.4924841582754,361.44335430496335 L816.8088077856088,369.9169905303288 L821.3506494009774,368.93653687309666 L822.6353850815905,355.4433327647596 L829.2117044610723,353.6575828553471 L830.1649243076224,365.5826885642548 L834.417946608146,369.70518950256263 L835.3855845670149,369.16760518255063 L840.6735758109044,357.9870308751325 L846.0895928682337,350.9777833981411 L844.7981257487068,348.4681540424649 L849.0338473025904,356.39519026925393 L860.2752114581674,360.3314750278141 L853.2406645047577,351.33392421695805 L864.9054400492168,355.2054409841163 L861.5283665219426,338.07028980479726 L862.1484710251175,348.9951250287513 L858.777130704917,337.9708423015031 L862.4064708276815,333.8295530992287 L869.1492612171987,330.108507478741 L867.3145347107103,338.88727889451934 L869.7723900431554,345.03251090638594 L869.4627234367495,335.3470743542242 L872.4397104528801,335.0194956652996 L872.8013650712801,330.99552568738204 L877.873961950818,338.2463079390133 L878.8952682391791,328.7994266965797 L883.0490543555135,333.0124455788241 L879.3068149562486,344.3660259405075 L874.9382266781964,335.51758018804003 L874.5554066600187,340.2255338955888 L871.3831096058141,340.8353328079778 L870.796433564538,342.78442110520245 L866.5615626761708,339.27927013098423 L875.0332079044985,342.40661633807815 L872.052798276967,335.8576720197755 L863.9929748837255,339.1140733897131 L861.9110558024181,338.1902162644742 L860.3971580294269,343.07212734574784 L862.1069016181333,349.6120266631999 L852.5120847859588,360.7802375020932 L856.6346495519106,370.3438991303139 L859.0962846742666,366.65076810414246 L863.5393208444063,367.61262498086927 L860.520762115189,367.1408922148694 L857.251474818213,374.22311805127543 L864.1643138062977,379.14816620603784 L874.053031816034,376.31371402546415 L871.550102309638,373.9038912764153 L878.3236842316254,381.4941675689894 L873.220586915407,387.27175790454646 L874.1293006316912,385.04582808843384 L874.2888092511126,389.05557577525246 L871.3789935279406,382.519349908276 L877.5292239377101,381.7960672219096 L870.3126074033441,378.3374076300071 L871.8965474365048,376.945795677221 L881.4226343649001,372.42765117117165 L876.0568172897437,377.73991995726936 L883.6572505088955,376.6071814454623 L888.5416651301477,377.1930503950639 L883.3134760348956,375.4078975567894 L892.2277233943264,373.21013265552756 L886.3603956286461,374.5639066542036 L884.0014232987401,373.20195428953787 L890.0476476087946,361.8904013224913 L891.7793331350659,363.7432001682923 L892.7242054753774,363.1327368902618 L890.9082452382268,362.4796658604316 L891.4329500350043,368.42933487008145 L894.9780460861713,369.8978813323097 L890.0898537849932,366.67127722487373 L887.9336223021476,356.54927775254447 L891.0772105444516,355.6207118931163 L887.4112413692626,357.37387191537016 L892.5625482797429,360.6913457010123 L897.2078969775798,371.8028773084797 L898.7521552615437,366.87306786453075 L901.0443983356924,366.4725379752846 L907.0261211451141,370.76355538193894 L902.0268392394597,369.7712411444454 L909.0618288777762,366.9822885322408 L908.4044727531117,364.9170287518113 L911.2521297246435,371.3619306018752 L896.1808068296714,376.59628391640103 L888.3636004834,379.3770757874057 L882.1551535902655,383.7340292362712 L884.9566400405521,382.7786289498838 L885.2505166517178,373.1970830582387 L883.1662162722729,374.83180539715056 L890.6060694269677,380.47769549746425 L882.1121631583585,372.78356853877256 L884.4714916466129,368.9624818663576 L888.5043285711487,363.45335087081287 L886.4481561441276,363.3169804901942 L880.8835281165524,361.97953872480025 L882.7416549381583,363.8868543210827 L887.017691282752,347.0120905346601 L881.29349085234,341.8088730696096 L887.1351595788022,335.2752521687189 L883.3826166885514,327.99919865392644 L887.6856791839073,327.97301227032983 L886.5279174608168,325.8795719032287 L892.4280642460884,320.24015207333395 L905.824143471342,321.3770320254442 L910.0639056284688,322.90472832257495 L915.2189509424301,321.3281877847011 L912.7831420229251,327.7745986560242 L909.4070706215673,325.58756316345557 L918.3656580392063,320.4622631810376 L912.6315577073409,322.2992373298079 L913.6450753825357,322.2368719831378 L914.6922437908456,317.3290714764457 L916.4204969608512,320.6392360413457 L906.2630819411113,322.10221881623346 L897.3828207304462,322.6774259165793" fill="none" stroke="#555555" stroke-width="1.7" stroke-opacity="0.85" stroke-linejoin="round" />
<circle cx="897.3828207304462" cy="322.6774259165793" r="4.0" fill="#555555" />
<path d="M865.0,365.0 L867.0011786934224,372.15751604434706 L866.3632790532984,373.9589961030164 L876.8587362114946,371.4879407548789 L866.3924313133277,369.1727215207941 L868.5195076307547,370.46633386258156 L866.2411964609845,367.4132648255516 L869.6212443897987,365.3096895905179 L863.8279099777009,367.03991947659756 L854.8776308864494,375.66769721102935 L851.382263186105,381.90403954108217 L848.6532802869644,368.72869868391047 L850.869804041301,374.12984413929075 L838.4175098392479,379.3213804772905 L829.919277855196,392.04937654054845 L833.2508402146482,395.36717961097736 L834.9933183835548,379.0341583514799 L835.8004100233691,379.0750086572684 L837.0347369085639,381.2307139330795 L831.7927198118159,383.0890591428974 L837.3994337153288,385.25505462044487 L829.1837525643172,392.79075157202726 L822.8529102062242,393.38107987009914 L824.8666116518024,391.35289286958 L830.8193135683842,393.0414190548073 L834.890795865657,391.73726136935636 L838.329182994677,402.28584138949225 L844.821828069196,411.1286722541961 L838.3177289957464,407.11710777654986 L835.9409127156434,397.59696458112376 L836.6405046491911,403.41865118638884 L837.3474776625114,405.76430271961783 L845.7724221913611,396.903659700546 L849.7376671662892,399.23006841831034 L850.1193382321455,393.52961163628265 L845.6391028699543,397.97171483042615 L850.2569099568252,393.9741786140003 L848.9243112532306,395.50639871267333 L838.125753059694,389.04392715610436 L837.4313899776776,396.95247616558663 L831.1816137044749,401.90981129685827 L840.5256090905381,398.13767381370565 L833.1392145592076,387.94393213320905 L840.4911223995908,393.7874514028564 L825.838880100004,388.4931438577634 L822.5197979599418,389.24356989591877 L819.6294918413885,382.3095416043492 L827.7731930882247,377.84878351056614 L826.9437401632416,376.4069920815124 L830.3641572466537,385.07742506020634 L837.2105988440981,386.8322839805637 L838.6591466965951,386.06139035963685 L843.6606164080479,380.16148169869945 L855.8471762825851,382.0748056713812 L850.9104843552452,381.2774248886965 L847.3763889518203,376.4588394645191 L843.0213279980167,375.6308939247255 L848.3009112188611,369.9355680030059 L849.5477114982024,362.03877188686636 L856.7658375929296,371.2618005335837 L858.8875095883557,370.11845365289304 L857.4018725503931,373.4622843933845 L857.8152745504494,371.15657546182985 L859.514821237106,363.4483685206788 L865.1759336045742,366.4947848888069 L861.1977370510948,361.62594373898327 L857.5638397961161,360.50383701915894 L860.3922788778033,354.6239412930969 L863.4475671106909,346.45461359972137 L861.135404907159,342.5449110253197 L857.7329595316718,341.29575672713065 L858.638362479567,346.18486308244906 L844.5241617030284,340.69456448527865 L846.7499726963864,339.69109108343866 L843.1205195301239,341.2959591085173 L845.856699084679,340.9570065199141 L852.4689171956935,340.0858993478862 L848.1720811524165,336.50336764331746 L844.9036444498614,335.096510192853 L835.145206301984,336.81754420293777 L838.4105191190894,340.21373729741015 L838.4411455529821,336.7915845030651 L838.9814464461531,326.79364923754235 L837.7165396892951,327.62302765111133 L836.9887210379882,338.35195224484704 L828.6973825040681,335.2649735772202 L827.0356597415841,327.46718109136134 L826.7554553567734,328.2541727293201 L832.5689625147959,326.58294678194886 L841.5492083482654,332.25388368194024 L844.1222385127905,328.35874529912473 L847.340610519577,321.853221208602 L853.1811717854972,321.4673766277664 L850.3085340268024,315.8538108288488 L850.8204414717385,310.3134053864308 L858.553402036606,308.8900365410719 L853.932845219223,309.9290816456271 L858.6559808406498,310.8305378752892 L865.5683669950064,310.1585893969934 L866.7709243660879,313.11407420465565 L866.7261265282475,306.5820791527818 L865.3452331056485,307.9209338595672 L861.5408987652577,303.15119931219044 L853.6224407188613,306.30717862644633 L859.0597985748923,298.0624976384555 L858.2358182392804,292.36906533630764 L847.6912947488472,287.83279581149105 L849.658579344565,294.2161917846551 L840.2055683235625,296.658339414708 L841.9684880856219,294.2985917999201 L842.9063711890955,289.72819434141167 L847.0867313730648,297.0249026589702 L845.2934717029489,299.5285210374334 L851.2544175329731,301.93372070505393 L857.0954884767111,301.12495172621163 L870.3132008288342,301.0933140380347 L870.6409214391746,301.40594459440996 L871.7522109151732,287.734454520173 L869.2766641395675,292.2398526324212 L868.478336128383,288.25534944221346 L863.3193209103991,283.5966963454324 L867.7943285067934,284.2401824451425 L866.6658385458047,288.3239386549285 L865.4056904093746,292.48045057221157 L872.4892612749425,283.28869590233563 L871.1588314971995,283.286480617044 L860.9293262688539,285.9806747972223 L863.0063089697273,284.2721034382745 L863.8859971265508,279.4210517486522 L864.5826235450824,281.3635666025078 L873.5815799741376,291.72862894655145 L867.3974293345509,295.616346831658 L863.5490718455644,299.72113041055525 L862.4553318759449,303.50742253489415 L862.264943337491,300.1505472449534 L862.5224893366737,299.3257926154089 L857.4690329903574,305.48432183807114 L855.9386189728668,300.3295649151034 L858.0694734148826,294.2989934356067 L863.5820911737881,288.0759283311917 L859.2140426079939,281.2230796597874" fill="none" stroke="#555555" stroke-width="1.7" stroke-opacity="0.85" stroke-linejoin="round" />
<circle cx="859.2140426079939" cy="281.2230796597874" r="4.0" fill="#555555" />
<path d="M865.0,365.0 L869.2144459158816,353.5618526034169 L872.5056219077695,351.7147041272102 L871.859000389966,350.74841618391054 L862.8697111536733,352.0525191386176 L862.726184546749,346.56534082264693 L859.1991561825483,345.7740287892567 L869.2622137359045,348.6044424512485 L873.9418943881408,351.4570805486612 L873.4618800782877,348.86918425199303 L878.3581571380489,351.49448074852705 L872.8402963294475,343.1311623104151 L873.9304909772349,338.72467918508784 L878.9884680514081,334.51615662892135 L877.633050082577,335.18742180134103 L869.2223256251535,334.13387476777996 L866.7336011915114,334.18676441484376 L876.9959881054224,330.36676343843396 L877.3564938539319,337.70526600919163 L881.3965330873827,329.34584608912644 L876.9889127920654,326.96395673637244 L874.2463778558254,327.7162723071956 L872.3305814143175,336.39681773111977 L869.6155798051459,345.125719239172 L877.2045193834692,339.4052743136599 L877.5077399679809,337.82619025260226 L877.8861841414437,336.68298598601746 L879.0144560071308,337.91414539754896 L878.1781794623105,345.1297906158944 L872.8203500620737,348.3447567360621 L874.0120671273,350.2903907793918 L884.3963260075506,351.2470806218233 L882.5359963661355,348.8356609307818 L888.1774623444023,338.74046862828766 L893.5234293558898,341.8426613164835 L892.6863772486261,336.07882258503105 L894.1675769135122,331.6657572495421 L893.8600467019021,322.92047558906773 L901.7762936374202,316.7360542936417 L902.7362120174242,325.309538300093 L895.5830951550289,323.424198627934 L899.2382940393184,338.98620767583816 L896.8204302248295,332.64183941329094 L902.1064192679388,335.1738791585527 L905.685891825528,334.85916809271987 L904.6640133851347,328.67292999082485 L910.9578912814497,331.33516145593774 L906.0361123231262,338.2056739291287 L898.5539558801378,330.85529901954294 L908.8222637231759,329.53108780956904 L914.675042546075,333.01625830303874 L914.500241960855,327.88815462987793 L916.3998056938713,327.8741858449467 L907.6653942694952,335.4772207654877 L905.6480365626273,338.24260112704894 L905.4610082888581,341.459588740892 L904.5026147428927,340.9218354222784 L907.4816473746313,340.3586211683914 L904.7448272133854,341.64504048898254 L909.8066783903497,342.54851426151623 L904.8175149723776,347.75772446459797 L906.5308497408216,344.56575997934124 L913.2834959226659,346.10561275837756 L920.8466142839167,347.7904297191876 L919.7747736478032,350.6634622516225 L922.7545254582546,344.88101478459623 L922.7820317130933,347.405989436897 L914.6716295090437,346.45819230835224 L912.9847132247979,347.3889171931846 L909.7497059407513,351.93479792229436 L907.5877403838576,349.4043723544303 L912.8443305396985,349.34223618640976 L914.6947622202152,350.27853242503744 L914.1450701095168,357.4758272011492 L918.9795082300559,354.17611333606993 L926.8779283595142,357.3398011923548 L927.6744301221386,362.16302513749326 L929.0728040919178,362.70802172331224 L932.7991894513038,363.37099516867465 L936.3506674367948,365.8744292972566 L939.6442858535178,367.3701461846207 L937.431104080174,366.78035926781604 L939.5179521675851,374.18294769360546 L931.5493481492459,373.05037251181915 L931.3725835668155,383.7711433219018 L922.4119674509019,387.7401457582216 L924.2477827011355,386.5209608195842 L929.7531570997088,380.13758497053107 L942.5279710057949,387.69422132709576 L942.4520658589986,381.87285008343883 L935.8914822489552,389.25483203808403 L937.0853414342603,383.26568500611756 L943.9167713312795,392.61439232599315 L937.5745253170031,392.9852875480809 L934.8941730897542,391.1161341112502 L935.7573163682863,381.5576733118078 L935.5731719088558,380.4290302592724 L936.1346110924997,374.3630392178503 L930.3553176608018,372.1395511920359 L926.3925967515152,379.5473824204896 L932.8695944864344,376.5592003882771 L940.5259409729865,375.0022064072585 L944.1992558622803,374.06958561219903 L947.4576046917529,376.0568637962765 L956.8271523238722,380.5731211111158 L966.2195946251612,381.39128118610597 L971.1321955920375,380.3957146163518 L973.7878082987472,372.1415909073227 L974.8270601713524,376.93150361644473 L976.3952619583117,373.16008343399164 L963.4902689687124,367.6233806552725 L969.649662502145,376.85067798182297 L969.1108082123128,372.13577758359764 L963.1680088171083,374.11142758550056 L961.6289841509271,370.8051134602006 L967.9260724854295,370.6787449114877 L968.5613259787448,365.3819866708204 L971.7845048033034,365.67904710051596 L979.2650651450401,373.03157968885125 L980.3776992972485,375.0160787404706 L977.9411678597667,373.65957474765486 L978.4342283664187,360.07604812905186 L982.2025386610846,357.89026263463325 L991.4236248164182,352.112089891528 L981.6154320618526,351.1735409770805 L985.920611933516,354.17911392279177 L987.7921037936719,356.3904092820512 L990.0835354720084,364.9668687510431 L979.7633329236387,367.705329625006 L981.2220724540578,360.254525636206 L979.9425073521712,364.0985135043212 L985.1295745372688,363.69764062466606 L995.1258266568504,363.97702580890484 L984.7490920082587,368.11332571459616 L979.7652749721192,375.4912989805923 L975.7319666214827,379.0633576450035 L974.3525668260784,381.88073574152077 L976.728734578809,379.4805440059238 L977.8419989334745,378.2569861163855 L967.7420971479175,387.18551647141373 L963.0961470198383,385.66173133287543" fill="none" stroke="#555555" stroke-width="1.7" stroke-opacity="0.85" stroke-linejoin="round" />
<circle cx="963.0961470198383" cy="385.66173133287543" r="4.0" fill="#555555" />
<circle cx="865.0" cy="365.0" r="4.0" fill="white" stroke="#1a1a1a" stroke-width="1.8" />
<text x="865.0" y="132" font-size="22" font-family="Helvetica" text-anchor="middle" font-weight="bold" fill="#1a1a1a">Independent  (rho = 0)</text>
<text x="335.0" y="602" font-size="22" font-family="Helvetica" text-anchor="middle" fill="#8a8a8a">R = [[1, 0.75], [0.75, 1]]</text>
<text x="865.0" y="602" font-size="22" font-family="Helvetica" text-anchor="middle" fill="#8a8a8a">R = [[1, 0], [0, 1]]</text>
<text x="600.0" y="632" font-size="22" font-family="Helvetica" text-anchor="middle" fill="#8a8a8a">dots = endpoints,  ring = 95% ellipse,  lines = sample paths</text>
</svg>