<?xml version="1.0" encoding="UTF-8"?>
<svg xmlns="http://www.w3.org/2000/svg" xmlns:xlink="http://www.w3.org/1999/xlink"
     width="1580" height="420" viewBox="0 0 1580 420">
<defs>
</defs>
<rect x="0" y="0" width="1580" height="420" fill="white" />
<text x="790.0" y="44" font-size="32" font-family="Helvetica" text-anchor="middle" font-weight="bold" fill="#1a1a1a">How many genes does an event affect?</text>
<text x="330.0" y="84" font-size="22" font-family="Helvetica" text-anchor="middle" font-weight="bold" fill="#1a1a1a">extension = 0.3</text>
<path d="M110,340 L550,340" stroke="#bdbdbd" stroke-width="1.2" />
<path d="M110,116 L110,340" stroke="#bdbdbd" stroke-width="1.2" />
<rect x="116.33333333333334" y="122.22222222222223" width="24" height="217.77777777777777" fill="#c9c9c9" stroke="#1a1a1a" stroke-width="1.0" />
<rect x="153.0" y="274.66666666666663" width="24" height="65.33333333333334" fill="#c9c9c9" stroke="#1a1a1a" stroke-width="1.0" />
<rect x="189.66666666666669" y="320.4" width="24" height="19.6" fill="#c9c9c9" stroke="#1a1a1a" stroke-width="1.0" />
<rect x="226.33333333333334" y="334.12" width="24" height="5.879999999999999" fill="#c9c9c9" stroke="#1a1a1a" stroke-width="1.0" />
<rect x="263.0" y="338.236" width="24" height="1.764" fill="#c9c9c9" stroke="#1a1a1a" stroke-width="1.0" />
<rect x="299.66666666666663" y="339.4708" width="24" height="0.5291999999999999" fill="#c9c9c9" stroke="#1a1a1a" stroke-width="1.0" />
<rect x="336.3333333333333" y="339.84124" width="24" height="0.15875999999999996" fill="#c9c9c9" stroke="#1a1a1a" stroke-width="1.0" />
<rect x="373.0" y="339.952372" width="24" height="0.04762799999999999" fill="#c9c9c9" stroke="#1a1a1a" stroke-width="1.0" />
<rect x="409.6666666666667" y="339.9857116" width="24" height="0.014288399999999993" fill="#c9c9c9" stroke="#1a1a1a" stroke-width="1.0" />
<rect x="446.3333333333333" y="339.99571348" width="24" height="0.0042865199999999985" fill="#c9c9c9" stroke="#1a1a1a" stroke-width="1.0" />
<rect x="483.0" y="339.998714044" width="24" height="0.0012859559999999996" fill="#c9c9c9" stroke="#1a1a1a" stroke-width="1.0" />
<rect x="519.6666666666667" y="339.9996142132" width="24" height="0.00038578679999999983" fill="#c9c9c9" stroke="#1a1a1a" stroke-width="1.0" />
<path d="M144.04761904761904,112 L144.04761904761904,340" stroke="#1a1a1a" stroke-width="1.6" stroke-dasharray="6,4" />
<text x="151.04761904761904" y="126" font-size="20" font-family="Helvetica" text-anchor="start" fill="#1a1a1a">mean = 1.4</text>
<path d="M128.33333333333334,340 L128.33333333333334,345" stroke="#999999" stroke-width="1" />
<text x="128.33333333333334" y="362" font-size="18" font-family="Helvetica" text-anchor="middle" fill="#777777">1</text>
<path d="M238.33333333333334,340 L238.33333333333334,345" stroke="#999999" stroke-width="1" />
<text x="238.33333333333334" y="362" font-size="18" font-family="Helvetica" text-anchor="middle" fill="#777777">4</text>
<path d="M385.0,340 L385.0,345" stroke="#999999" stroke-width="1" />
<text x="385.0" y="362" font-size="18" font-family="Helvetica" text-anchor="middle" fill="#777777">8</text>
<path d="M531.6666666666667,340 L531.6666666666667,345" stroke="#999999" stroke-width="1" />
<text x="531.6666666666667" y="362" font-size="18" font-family="Helvetica" text-anchor="middle" fill="#777777">12</text>
<text x="330.0" y="388" font-size="22" font-family="Helvetica" text-anchor="middle" fill="#555555">genes in the segment</text>
<text x="100" y="340.0" font-size="18" font-family="Helvetica" text-anchor="end" dominant-baseline="central" fill="#777777">0.00</text>
<text x="100" y="231.11111111111111" font-size="18" font-family="Helvetica" text-anchor="end" dominant-baseline="central" fill="#777777">0.35</text>
<text x="100" y="122.22222222222223" font-size="18" font-family="Helvetica" text-anchor="end" dominant-baseline="central" fill="#777777">0.70</text>
<text x="54" y="228.0" font-size="22" font-family="Helvetica" text-anchor="middle" fill="#555555" transform="rotate(-90 54 228.0)">probability</text>
<text x="834.0" y="84" font-size="22" font-family="Helvetica" text-anchor="middle" font-weight="bold" fill="#1a1a1a">extension = 0.6</text>
<path d="M614,340 L1054,340" stroke="#bdbdbd" stroke-width="1.2" />
<path d="M614,116 L614,340" stroke="#bdbdbd" stroke-width="1.2" />
<rect x="620.3333333333334" y="215.55555555555554" width="24" height="124.44444444444446" fill="#c9c9c9" stroke="#1a1a1a" stroke-width="1.0" />
<rect x="657.0" y="265.33333333333337" width="24" height="74.66666666666666" fill="#c9c9c9" stroke="#1a1a1a" stroke-width="1.0" />
<rect x="693.6666666666666" y="295.2" width="24" height="44.8" fill="#c9c9c9" stroke="#1a1a1a" stroke-width="1.0" />
<rect x="730.3333333333334" y="313.12" width="24" height="26.88" fill="#c9c9c9" stroke="#1a1a1a" stroke-width="1.0" />
<rect x="767.0" y="323.872" width="24" height="16.128" fill="#c9c9c9" stroke="#1a1a1a" stroke-width="1.0" />
<rect x="803.6666666666666" y="330.3232" width="24" height="9.676799999999997" fill="#c9c9c9" stroke="#1a1a1a" stroke-width="1.0" />
<rect x="840.3333333333333" y="334.19392" width="24" height="5.806079999999999" fill="#c9c9c9" stroke="#1a1a1a" stroke-width="1.0" />
<rect x="877.0" y="336.516352" width="24" height="3.4836479999999996" fill="#c9c9c9" stroke="#1a1a1a" stroke-width="1.0" />
<rect x="913.6666666666667" y="337.9098112" width="24" height="2.0901887999999995" fill="#c9c9c9" stroke="#1a1a1a" stroke-width="1.0" />
<rect x="950.3333333333333" y="338.74588672" width="24" height="1.2541132799999997" fill="#c9c9c9" stroke="#1a1a1a" stroke-width="1.0" />
<rect x="987.0" y="339.247532032" width="24" height="0.7524679679999998" fill="#c9c9c9" stroke="#1a1a1a" stroke-width="1.0" />
<rect x="1023.6666666666667" y="339.5485192192" width="24" height="0.45148078079999987" fill="#c9c9c9" stroke="#1a1a1a" stroke-width="1.0" />
<path d="M687.3333333333334,112 L687.3333333333334,340" stroke="#1a1a1a" stroke-width="1.6" stroke-dasharray="6,4" />
<text x="694.3333333333334" y="126" font-size="20" font-family="Helvetica" text-anchor="start" fill="#1a1a1a">mean = 2.5</text>
<path d="M632.3333333333334,340 L632.3333333333334,345" stroke="#999999" stroke-width="1" />
<text x="632.3333333333334" y="362" font-size="18" font-family="Helvetica" text-anchor="middle" fill="#777777">1</text>
<path d="M742.3333333333334,340 L742.3333333333334,345" stroke="#999999" stroke-width="1" />
<text x="742.3333333333334" y="362" font-size="18" font-family="Helvetica" text-anchor="middle" fill="#777777">4</text>
<path d="M889.0,340 L889.0,345" stroke="#999999" stroke-width="1" />
<text x="889.0" y="362" font-size="18" font-family="Helvetica" text-anchor="middle" fill="#777777">8</text>
<path d="M1035.6666666666667,340 L1035.6666666666667,345" stroke="#999999" stroke-width="1" />
<text x="1035.6666666666667" y="362" font-size="18" font-family="Helvetica" text-anchor="middle" fill="#777777">12</text>
<text x="834.0" y="388" font-size="22" font-family="Helvetica" text-anchor="middle" fill="#555555">genes in the segment</text>
<text x="1338.0" y="84" font-size="22" font-family="Helvetica" text-anchor="middle" font-weight="bold" fill="#1a1a1a">extension = 0.8</text>
<path d="M1118,340 L1558,340" stroke="#bdbdbd" stroke-width="1.2" />
<path d="M1118,116 L1118,340" stroke="#bdbdbd" stroke-width="1.2" />
<rect x="1124.3333333333333" y="277.77777777777777" width="24" height="62.222222222222214" fill="#c9c9c9" stroke="#1a1a1a" stroke-width="1.0" />
<rect x="1161.0" y="290.22222222222223" width="24" height="49.77777777777777" fill="#c9c9c9" stroke="#1a1a1a" stroke-width="1.0" />
<rect x="1197.6666666666667" y="300.1777777777778" width="24" height="39.82222222222222" fill="#c9c9c9" stroke="#1a1a1a" stroke-width="1.0" />
<rect x="1234.3333333333333" y="308.14222222222224" width="24" height="31.857777777777777" fill="#c9c9c9" stroke="#1a1a1a" stroke-width="1.0" />
<rect x="1271.0" y="314.51377777777776" width="24" height="25.48622222222222" fill="#c9c9c9" stroke="#1a1a1a" stroke-width="1.0" />
<rect x="1307.6666666666667" y="319.61102222222223" width="24" height="20.38897777777778" fill="#c9c9c9" stroke="#1a1a1a" stroke-width="1.0" />
<rect x="1344.3333333333333" y="323.6888177777778" width="24" height="16.31118222222223" fill="#c9c9c9" stroke="#1a1a1a" stroke-width="1.0" />
<rect x="1381.0" y="326.95105422222224" width="24" height="13.048945777777782" fill="#c9c9c9" stroke="#1a1a1a" stroke-width="1.0" />
<rect x="1417.6666666666667" y="329.56084337777776" width="24" height="10.439156622222226" fill="#c9c9c9" stroke="#1a1a1a" stroke-width="1.0" />
<rect x="1454.3333333333333" y="331.6486747022222" width="24" height="8.35132529777778" fill="#c9c9c9" stroke="#1a1a1a" stroke-width="1.0" />
<rect x="1491.0" y="333.31893976177776" width="24" height="6.681060238222225" fill="#c9c9c9" stroke="#1a1a1a" stroke-width="1.0" />
<rect x="1527.6666666666667" y="334.6551518094222" width="24" height="5.34484819057778" fill="#c9c9c9" stroke="#1a1a1a" stroke-width="1.0" />
<path d="M1283.0,112 L1283.0,340" stroke="#1a1a1a" stroke-width="1.6" stroke-dasharray="6,4" />
<text x="1290.0" y="126" font-size="20" font-family="Helvetica" text-anchor="start" fill="#1a1a1a">mean = 5.0</text>
<path d="M1136.3333333333333,340 L1136.3333333333333,345" stroke="#999999" stroke-width="1" />
<text x="1136.3333333333333" y="362" font-size="18" font-family="Helvetica" text-anchor="middle" fill="#777777">1</text>
<path d="M1246.3333333333333,340 L1246.3333333333333,345" stroke="#999999" stroke-width="1" />
<text x="1246.3333333333333" y="362" font-size="18" font-family="Helvetica" text-anchor="middle" fill="#777777">4</text>
<path d="M1393.0,340 L1393.0,345" stroke="#999999" stroke-width="1" />
<text x="1393.0" y="362" font-size="18" font-family="Helvetica" text-anchor="middle" fill="#777777">8</text>
<path d="M1539.6666666666667,340 L1539.6666666666667,345" stroke="#999999" stroke-width="1" />
<text x="1539.6666666666667" y="362" font-size="18" font-family="Helvetica" text-anchor="middle" fill="#777777">12</text>
<text x="1338.0" y="388" font-size="22" font-family="Helvetica" text-anchor="middle" fill="#555555">genes in the segment</text>
</svg>