<?xml version="1.0" encoding="UTF-8"?>
<svg xmlns="http://www.w3.org/2000/svg" xmlns:xlink="http://www.w3.org/1999/xlink"
     width="1180" height="420" viewBox="0 0 1180 420">
<defs>
</defs>
<rect x="0" y="0" width="1180" height="420" fill="white" />
<text x="590.0" y="44" font-size="32" font-family="Helvetica" text-anchor="middle" font-weight="bold" fill="#1a1a1a">How many genes does an event affect?</text>
<text x="256.0" y="84" font-size="22" font-family="Helvetica" text-anchor="middle" font-weight="bold" fill="#1a1a1a">extension = 0.3</text>
<path d="M96,340 L416,340" stroke="#bdbdbd" stroke-width="1.2" />
<path d="M96,116 L96,340" stroke="#bdbdbd" stroke-width="1.2" />
<rect x="100.33333333333333" y="122.22222222222223" width="18" height="217.77777777777777" fill="#c9c9c9" stroke="#1a1a1a" stroke-width="1.0" />
<rect x="127.0" y="274.66666666666663" width="18" height="65.33333333333334" fill="#c9c9c9" stroke="#1a1a1a" stroke-width="1.0" />
<rect x="153.66666666666669" y="320.4" width="18" height="19.6" fill="#c9c9c9" stroke="#1a1a1a" stroke-width="1.0" />
<rect x="180.33333333333334" y="334.12" width="18" height="5.879999999999999" fill="#c9c9c9" stroke="#1a1a1a" stroke-width="1.0" />
<rect x="207.0" y="338.236" width="18" height="1.764" fill="#c9c9c9" stroke="#1a1a1a" stroke-width="1.0" />
<rect x="233.66666666666666" y="339.4708" width="18" height="0.5291999999999999" fill="#c9c9c9" stroke="#1a1a1a" stroke-width="1.0" />
<rect x="260.3333333333333" y="339.84124" width="18" height="0.15875999999999996" fill="#c9c9c9" stroke="#1a1a1a" stroke-width="1.0" />
<rect x="287.0" y="339.952372" width="18" height="0.04762799999999999" fill="#c9c9c9" stroke="#1a1a1a" stroke-width="1.0" />
<rect x="313.6666666666667" y="339.9857116" width="18" height="0.014288399999999993" fill="#c9c9c9" stroke="#1a1a1a" stroke-width="1.0" />
<rect x="340.3333333333333" y="339.99571348" width="18" height="0.0042865199999999985" fill="#c9c9c9" stroke="#1a1a1a" stroke-width="1.0" />
<rect x="367.0" y="339.998714044" width="18" height="0.0012859559999999996" fill="#c9c9c9" stroke="#1a1a1a" stroke-width="1.0" />
<rect x="393.6666666666667" y="339.9996142132" width="18" height="0.00038578679999999983" fill="#c9c9c9" stroke="#1a1a1a" stroke-width="1.0" />
<path d="M120.76190476190476,112 L120.76190476190476,340" stroke="#1a1a1a" stroke-width="1.6" stroke-dasharray="6,4" />
<text x="127.76190476190476" y="126" font-size="20" font-family="Helvetica" text-anchor="start" fill="#1a1a1a">mean = 1.4</text>
<path d="M109.33333333333333,340 L109.33333333333333,345" stroke="#999999" stroke-width="1" />
<text x="109.33333333333333" y="362" font-size="18" font-family="Helvetica" text-anchor="middle" fill="#777777">1</text>
<path d="M189.33333333333334,340 L189.33333333333334,345" stroke="#999999" stroke-width="1" />
<text x="189.33333333333334" y="362" font-size="18" font-family="Helvetica" text-anchor="middle" fill="#777777">4</text>
<path d="M296.0,340 L296.0,345" stroke="#999999" stroke-width="1" />
<text x="296.0" y="362" font-size="18" font-family="Helvetica" text-anchor="middle" fill="#777777">8</text>
<path d="M402.6666666666667,340 L402.6666666666667,345" stroke="#999999" stroke-width="1" />
<text x="402.6666666666667" y="362" font-size="18" font-family="Helvetica" text-anchor="middle" fill="#777777">12</text>
<text x="256.0" y="388" font-size="22" font-family="Helvetica" text-anchor="middle" fill="#555555">genes in the segment</text>
<text x="86" y="340.0" font-size="18" font-family="Helvetica" text-anchor="end" dominant-baseline="central" fill="#777777">0.00</text>
<text x="86" y="231.11111111111111" font-size="18" font-family="Helvetica" text-anchor="end" dominant-baseline="central" fill="#777777">0.35</text>
<text x="86" y="122.22222222222223" font-size="18" font-family="Helvetica" text-anchor="end" dominant-baseline="central" fill="#777777">0.70</text>
<text x="40" y="228.0" font-size="22" font-family="Helvetica" text-anchor="middle" fill="#555555" transform="rotate(-90 40 228.0)">probability</text>
<text x="631.0" y="84" font-size="22" font-family="Helvetica" text-anchor="middle" font-weight="bold" fill="#1a1a1a">extension = 0.6</text>
<path d="M471,340 L791,340" stroke="#bdbdbd" stroke-width="1.2" />
<path d="M471,116 L471,340" stroke="#bdbdbd" stroke-width="1.2" />
<rect x="475.3333333333333" y="215.55555555555554" width="18" height="124.44444444444446" fill="#c9c9c9" stroke="#1a1a1a" stroke-width="1.0" />
<rect x="502.0" y="265.33333333333337" width="18" height="74.66666666666666" fill="#c9c9c9" stroke="#1a1a1a" stroke-width="1.0" />
<rect x="528.6666666666666" y="295.2" width="18" height="44.8" fill="#c9c9c9" stroke="#1a1a1a" stroke-width="1.0" />
<rect x="555.3333333333334" y="313.12" width="18" height="26.88" fill="#c9c9c9" stroke="#1a1a1a" stroke-width="1.0" />
<rect x="582.0" y="323.872" width="18" height="16.128" fill="#c9c9c9" stroke="#1a1a1a" stroke-width="1.0" />
<rect x="608.6666666666666" y="330.3232" width="18" height="9.676799999999997" fill="#c9c9c9" stroke="#1a1a1a" stroke-width="1.0" />
<rect x="635.3333333333333" y="334.19392" width="18" height="5.806079999999999" fill="#c9c9c9" stroke="#1a1a1a" stroke-width="1.0" />
<rect x="662.0" y="336.516352" width="18" height="3.4836479999999996" fill="#c9c9c9" stroke="#1a1a1a" stroke-width="1.0" />
<rect x="688.6666666666667" y="337.9098112" width="18" height="2.0901887999999995" fill="#c9c9c9" stroke="#1a1a1a" stroke-width="1.0" />
<rect x="715.3333333333333" y="338.74588672" width="18" height="1.2541132799999997" fill="#c9c9c9" stroke="#1a1a1a" stroke-width="1.0" />
<rect x="742.0" y="339.247532032" width="18" height="0.7524679679999998" fill="#c9c9c9" stroke="#1a1a1a" stroke-width="1.0" />
<rect x="768.6666666666667" y="339.5485192192" width="18" height="0.45148078079999987" fill="#c9c9c9" stroke="#1a1a1a" stroke-width="1.0" />
<path d="M524.3333333333334,112 L524.3333333333334,340" stroke="#1a1a1a" stroke-width="1.6" stroke-dasharray="6,4" />
<text x="531.3333333333334" y="126" font-size="20" font-family="Helvetica" text-anchor="start" fill="#1a1a1a">mean = 2.5</text>
<path d="M484.3333333333333,340 L484.3333333333333,345" stroke="#999999" stroke-width="1" />
<text x="484.3333333333333" y="362" font-size="18" font-family="Helvetica" text-anchor="middle" fill="#777777">1</text>
<path d="M564.3333333333334,340 L564.3333333333334,345" stroke="#999999" stroke-width="1" />
<text x="564.3333333333334" y="362" font-size="18" font-family="Helvetica" text-anchor="middle" fill="#777777">4</text>
<path d="M671.0,340 L671.0,345" stroke="#999999" stroke-width="1" />
<text x="671.0" y="362" font-size="18" font-family="Helvetica" text-anchor="middle" fill="#777777">8</text>
<path d="M777.6666666666667,340 L777.6666666666667,345" stroke="#999999" stroke-width="1" />
<text x="777.6666666666667" y="362" font-size="18" font-family="Helvetica" text-anchor="middle" fill="#777777">12</text>
<text x="631.0" y="388" font-size="22" font-family="Helvetica" text-anchor="middle" fill="#555555">genes in the segment</text>
<text x="1006.0" y="84" font-size="22" font-family="Helvetica" text-anchor="middle" font-weight="bold" fill="#1a1a1a">extension = 0.8</text>
<path d="M846,340 L1166,340" stroke="#bdbdbd" stroke-width="1.2" />
<path d="M846,116 L846,340" stroke="#bdbdbd" stroke-width="1.2" />
<rect x="850.3333333333334" y="277.77777777777777" width="18" height="62.222222222222214" fill="#c9c9c9" stroke="#1a1a1a" stroke-width="1.0" />
<rect x="877.0" y="290.22222222222223" width="18" height="49.77777777777777" fill="#c9c9c9" stroke="#1a1a1a" stroke-width="1.0" />
<rect x="903.6666666666666" y="300.1777777777778" width="18" height="39.82222222222222" fill="#c9c9c9" stroke="#1a1a1a" stroke-width="1.0" />
<rect x="930.3333333333334" y="308.14222222222224" width="18" height="31.857777777777777" fill="#c9c9c9" stroke="#1a1a1a" stroke-width="1.0" />
<rect x="957.0" y="314.51377777777776" width="18" height="25.48622222222222" fill="#c9c9c9" stroke="#1a1a1a" stroke-width="1.0" />
<rect x="983.6666666666666" y="319.61102222222223" width="18" height="20.38897777777778" fill="#c9c9c9" stroke="#1a1a1a" stroke-width="1.0" />
<rect x="1010.3333333333333" y="323.6888177777778" width="18" height="16.31118222222223" fill="#c9c9c9" stroke="#1a1a1a" stroke-width="1.0" />
<rect x="1037.0" y="326.95105422222224" width="18" height="13.048945777777782" fill="#c9c9c9" stroke="#1a1a1a" stroke-width="1.0" />
<rect x="1063.6666666666667" y="329.56084337777776" width="18" height="10.439156622222226" fill="#c9c9c9" stroke="#1a1a1a" stroke-width="1.0" />
<rect x="1090.3333333333333" y="331.6486747022222" width="18" height="8.35132529777778" fill="#c9c9c9" stroke="#1a1a1a" stroke-width="1.0" />
<rect x="1117.0" y="333.31893976177776" width="18" height="6.681060238222225" fill="#c9c9c9" stroke="#1a1a1a" stroke-width="1.0" />
<rect x="1143.6666666666667" y="334.6551518094222" width="18" height="5.34484819057778" fill="#c9c9c9" stroke="#1a1a1a" stroke-width="1.0" />
<path d="M966.0,112 L966.0,340" stroke="#1a1a1a" stroke-width="1.6" stroke-dasharray="6,4" />
<text x="973.0" y="126" font-size="20" font-family="Helvetica" text-anchor="start" fill="#1a1a1a">mean = 5.0</text>
<path d="M859.3333333333334,340 L859.3333333333334,345" stroke="#999999" stroke-width="1" />
<text x="859.3333333333334" y="362" font-size="18" font-family="Helvetica" text-anchor="middle" fill="#777777">1</text>
<path d="M939.3333333333334,340 L939.3333333333334,345" stroke="#999999" stroke-width="1" />
<text x="939.3333333333334" y="362" font-size="18" font-family="Helvetica" text-anchor="middle" fill="#777777">4</text>
<path d="M1046.0,340 L1046.0,345" stroke="#999999" stroke-width="1" />
<text x="1046.0" y="362" font-size="18" font-family="Helvetica" text-anchor="middle" fill="#777777">8</text>
<path d="M1152.6666666666667,340 L1152.6666666666667,345" stroke="#999999" stroke-width="1" />
<text x="1152.6666666666667" y="362" font-size="18" font-family="Helvetica" text-anchor="middle" fill="#777777">12</text>
<text x="1006.0" y="388" font-size="22" font-family="Helvetica" text-anchor="middle" fill="#555555">genes in the segment</text>
</svg>