<?xml version="1.0" encoding="UTF-8"?>
<svg xmlns="http://www.w3.org/2000/svg" xmlns:xlink="http://www.w3.org/1999/xlink"
     width="1180" height="720" viewBox="0 0 1180 720">
<defs>
</defs>
<rect x="0" y="0" width="1180" height="720" fill="white" />
<text x="40" y="40" font-size="20" font-family="Helvetica" text-anchor="start" font-weight="bold" fill="#1a1a1a">The ClaDS model — every lineage carries its own speciation rate</text>
<text x="40" y="64" font-size="13" font-family="Helvetica" text-anchor="start" fill="#777">at each split the daughters inherit λ times a lognormal jump: λ_child = λ_parent · exp(N(ln α, σ²)) — so rates drift lineage by lineage.  ZOMBI2: ClaDS(λ0, alpha, sigma, turnover)</text>
<path d="M96.0,329.95703125 L96.0,244.15625" stroke="#565656" stroke-width="3.4352945675753137" />
<path d="M96.0,329.95703125 L96.0,415.7578125" stroke="#565656" stroke-width="3.4352945675753137" />
<path d="M96.0,415.7578125 L96.18789224953504,415.7578125" stroke="#565656" stroke-width="3.4352945675753137" stroke-linecap="round" />
<path d="M96.18789224953504,415.7578125 L96.18789224953504,475.4140625" stroke="#707070" stroke-width="2.939464148852465" />
<path d="M96.18789224953504,415.7578125 L96.18789224953504,356.1015625" stroke="#979797" stroke-width="2.212658505022038" />
<path d="M96.18789224953504,356.1015625 L156.79590956391087,356.1015625" stroke="#979797" stroke-width="2.212658505022038" stroke-linecap="round" />
<path d="M156.79590956391087,356.1015625 L156.79590956391087,379.640625" stroke="#aaaaaa" stroke-width="1.851819609873787" />
<path d="M156.79590956391087,356.1015625 L156.79590956391087,332.5625" stroke="#afafaf" stroke-width="1.772773366224191" />
<path d="M156.79590956391087,332.5625 L680.0178525606837,332.5625" stroke="#afafaf" stroke-width="1.772773366224191" stroke-linecap="round" />
<path d="M680.0178525606837,332.5625 L680.0178525606837,342.625" stroke="#afafaf" stroke-width="1.758310439813608" />
<path d="M680.0178525606837,332.5625 L680.0178525606837,322.5" stroke="#8e8e8e" stroke-width="2.3772928505021707" />
<path d="M680.0178525606837,322.5 L698.6136565405687,322.5" stroke="#8e8e8e" stroke-width="2.3772928505021707" stroke-linecap="round" />
<path d="M680.0178525606837,342.625 L886.5095267960468,342.625" stroke="#afafaf" stroke-width="1.758310439813608" stroke-linecap="round" />
<path d="M886.5095267960468,342.625 L886.5095267960468,334.0" stroke="#b7b7b7" stroke-width="1.618660979972507" />
<path d="M886.5095267960468,342.625 L886.5095267960468,351.25" stroke="#bfbfbf" stroke-width="1.4679832964135213" />
<path d="M886.5095267960468,351.25 L890.9472218947038,351.25" stroke="#bfbfbf" stroke-width="1.4679832964135213" stroke-linecap="round" />
<path d="M890.9472218947038,351.25 L890.9472218947038,345.5" stroke="#bebebe" stroke-width="1.4943092621617815" />
<path d="M890.9472218947038,351.25 L890.9472218947038,357.0" stroke="#9b9b9b" stroke-width="2.1468284283175256" />
<path d="M890.9472218947038,357.0 L980.0,357.0" stroke="#9b9b9b" stroke-width="2.1468284283175256" stroke-linecap="round" />
<path d="M890.9472218947038,345.5 L980.0,345.5" stroke="#bebebe" stroke-width="1.4943092621617815" stroke-linecap="round" />
<path d="M886.5095267960468,334.0 L980.0,334.0" stroke="#b7b7b7" stroke-width="1.618660979972507" stroke-linecap="round" />
<path d="M156.79590956391087,379.640625 L309.9472353337658,379.640625" stroke="#aaaaaa" stroke-width="1.851819609873787" stroke-linecap="round" />
<path d="M309.9472353337658,379.640625 L309.9472353337658,368.5" stroke="#c8c8c8" stroke-width="1.3" />
<path d="M309.9472353337658,379.640625 L309.9472353337658,390.78125" stroke="#808080" stroke-width="2.6446373489578843" />
<path d="M309.9472353337658,390.78125 L509.66283803140425,390.78125" stroke="#808080" stroke-width="2.6446373489578843" stroke-linecap="round" />
<path d="M509.66283803140425,390.78125 L509.66283803140425,401.5625" stroke="#909090" stroke-width="2.3552417738957416" />
<path d="M509.66283803140425,390.78125 L509.66283803140425,380.0" stroke="#676767" stroke-width="3.111897479368647" />
<path d="M509.66283803140425,380.0 L980.0,380.0" stroke="#676767" stroke-width="3.111897479368647" stroke-linecap="round" />
<path d="M509.66283803140425,401.5625 L776.0920363979396,401.5625" stroke="#909090" stroke-width="2.3552417738957416" stroke-linecap="round" />
<path d="M776.0920363979396,401.5625 L776.0920363979396,391.5" stroke="#9e9e9e" stroke-width="2.0867309511609258" />
<path d="M776.0920363979396,401.5625 L776.0920363979396,411.625" stroke="#535353" stroke-width="3.4774529158574365" />
<path d="M776.0920363979396,411.625 L870.372365323207,411.625" stroke="#535353" stroke-width="3.4774529158574365" stroke-linecap="round" />
<path d="M870.372365323207,411.625 L870.372365323207,420.25" stroke="#808080" stroke-width="2.649151684381204" />
<path d="M870.372365323207,411.625 L870.372365323207,403.0" stroke="#6b6b6b" stroke-width="3.0396371276015137" />
<path d="M870.372365323207,403.0 L980.0,403.0" stroke="#6b6b6b" stroke-width="3.0396371276015137" stroke-linecap="round" />
<path d="M870.372365323207,420.25 L948.1171549479743,420.25" stroke="#808080" stroke-width="2.649151684381204" stroke-linecap="round" />
<path d="M948.1171549479743,420.25 L948.1171549479743,414.5" stroke="#7f7f7f" stroke-width="2.6674084344837423" />
<path d="M948.1171549479743,420.25 L948.1171549479743,426.0" stroke="#7a7a7a" stroke-width="2.7654788746071377" />
<path d="M948.1171549479743,426.0 L980.0,426.0" stroke="#7a7a7a" stroke-width="2.7654788746071377" stroke-linecap="round" />
<path d="M948.1171549479743,414.5 L980.0,414.5" stroke="#7f7f7f" stroke-width="2.6674084344837423" stroke-linecap="round" />
<path d="M776.0920363979396,391.5 L980.0,391.5" stroke="#9e9e9e" stroke-width="2.0867309511609258" stroke-linecap="round" />
<path d="M309.9472353337658,368.5 L980.0,368.5" stroke="#c8c8c8" stroke-width="1.3" stroke-linecap="round" />
<path d="M96.18789224953504,475.4140625 L213.345138941632,475.4140625" stroke="#707070" stroke-width="2.939464148852465" stroke-linecap="round" />
<path d="M213.345138941632,475.4140625 L213.345138941632,503.265625" stroke="#747474" stroke-width="2.861663605332401" />
<path d="M213.345138941632,475.4140625 L213.345138941632,447.5625" stroke="#6b6b6b" stroke-width="3.035575667421762" />
<path d="M213.345138941632,447.5625 L521.5419702406716,447.5625" stroke="#6b6b6b" stroke-width="3.035575667421762" stroke-linecap="round" />
<path d="M521.5419702406716,447.5625 L521.5419702406716,437.5" stroke="#909090" stroke-width="2.3526274911757983" />
<path d="M521.5419702406716,447.5625 L521.5419702406716,457.625" stroke="#888888" stroke-width="2.495697280654915" />
<path d="M521.5419702406716,457.625 L900.3218562870554,457.625" stroke="#888888" stroke-width="2.495697280654915" stroke-linecap="round" />
<path d="M900.3218562870554,457.625 L900.3218562870554,449.0" stroke="#6d6d6d" stroke-width="3.004190410354682" />
<path d="M900.3218562870554,457.625 L900.3218562870554,466.25" stroke="#aaaaaa" stroke-width="1.8624247109854135" />
<path d="M900.3218562870554,466.25 L901.3203646162764,466.25" stroke="#aaaaaa" stroke-width="1.8624247109854135" stroke-linecap="round" />
<path d="M901.3203646162764,466.25 L901.3203646162764,460.5" stroke="#a5a5a5" stroke-width="1.9629374445165357" />
<path d="M901.3203646162764,466.25 L901.3203646162764,472.0" stroke="#aaaaaa" stroke-width="1.8515420746061937" />
<path d="M901.3203646162764,472.0 L980.0,472.0" stroke="#aaaaaa" stroke-width="1.8515420746061937" stroke-linecap="round" />
<path d="M901.3203646162764,460.5 L980.0,460.5" stroke="#a5a5a5" stroke-width="1.9629374445165357" stroke-linecap="round" />
<path d="M900.3218562870554,449.0 L980.0,449.0" stroke="#6d6d6d" stroke-width="3.004190410354682" stroke-linecap="round" />
<path d="M521.5419702406716,437.5 L980.0,437.5" stroke="#909090" stroke-width="2.3526274911757983" stroke-linecap="round" />
<path d="M213.345138941632,503.265625 L275.23545435182564,503.265625" stroke="#747474" stroke-width="2.861663605332401" stroke-linecap="round" />
<path d="M275.23545435182564,503.265625 L275.23545435182564,517.28125" stroke="#3c3c3c" stroke-width="3.9064759002529463" />
<path d="M275.23545435182564,503.265625 L275.23545435182564,489.25" stroke="#979797" stroke-width="2.2076533396955886" />
<path d="M275.23545435182564,489.25 L774.0525490491195,489.25" stroke="#979797" stroke-width="2.2076533396955886" stroke-linecap="round" />
<path d="M774.0525490491195,489.25 L774.0525490491195,483.5" stroke="#767676" stroke-width="2.828271569784044" />
<path d="M774.0525490491195,489.25 L774.0525490491195,495.0" stroke="#858585" stroke-width="2.5606587306571758" />
<path d="M774.0525490491195,495.0 L980.0,495.0" stroke="#858585" stroke-width="2.5606587306571758" stroke-linecap="round" />
<path d="M774.0525490491195,483.5 L980.0,483.5" stroke="#767676" stroke-width="2.828271569784044" stroke-linecap="round" />
<path d="M275.23545435182564,517.28125 L369.2116012848496,517.28125" stroke="#3c3c3c" stroke-width="3.9064759002529463" stroke-linecap="round" />
<path d="M369.2116012848496,517.28125 L369.2116012848496,528.0625" stroke="#5e5e5e" stroke-width="3.278089111658838" />
<path d="M369.2116012848496,517.28125 L369.2116012848496,506.5" stroke="#6c6c6c" stroke-width="3.0270788558467503" />
<path d="M369.2116012848496,506.5 L558.2512815429209,506.5" stroke="#6c6c6c" stroke-width="3.0270788558467503" stroke-linecap="round" />
<path d="M369.2116012848496,528.0625 L676.8531488108353,528.0625" stroke="#5e5e5e" stroke-width="3.278089111658838" stroke-linecap="round" />
<path d="M676.8531488108353,528.0625 L676.8531488108353,518.0" stroke="#929292" stroke-width="2.3036039287279872" />
<path d="M676.8531488108353,528.0625 L676.8531488108353,538.125" stroke="#606060" stroke-width="3.2392704417002536" />
<path d="M676.8531488108353,538.125 L955.0225563325743,538.125" stroke="#606060" stroke-width="3.2392704417002536" stroke-linecap="round" />
<path d="M955.0225563325743,538.125 L955.0225563325743,546.75" stroke="#414141" stroke-width="3.825293153188486" />
<path d="M955.0225563325743,538.125 L955.0225563325743,529.5" stroke="#666666" stroke-width="3.134007195219634" />
<path d="M955.0225563325743,529.5 L980.0,529.5" stroke="#666666" stroke-width="3.134007195219634" stroke-linecap="round" />
<path d="M955.0225563325743,546.75 L968.7538616226328,546.75" stroke="#414141" stroke-width="3.825293153188486" stroke-linecap="round" />
<path d="M968.7538616226328,546.75 L968.7538616226328,541.0" stroke="#121212" stroke-width="4.7" />
<path d="M968.7538616226328,546.75 L968.7538616226328,552.5" stroke="#727272" stroke-width="2.900237329897671" />
<path d="M968.7538616226328,552.5 L980.0,552.5" stroke="#727272" stroke-width="2.900237329897671" stroke-linecap="round" />
<path d="M968.7538616226328,541.0 L980.0,541.0" stroke="#121212" stroke-width="4.7" stroke-linecap="round" />
<path d="M676.8531488108353,518.0 L950.2879316933742,518.0" stroke="#929292" stroke-width="2.3036039287279872" stroke-linecap="round" />
<path d="M96.0,244.15625 L125.00826612996596,244.15625" stroke="#565656" stroke-width="3.4352945675753137" stroke-linecap="round" />
<path d="M125.00826612996596,244.15625 L125.00826612996596,216.125" stroke="#676767" stroke-width="3.1159041598531907" />
<path d="M125.00826612996596,244.15625 L125.00826612996596,272.1875" stroke="#4c4c4c" stroke-width="3.623317717373353" />
<path d="M125.00826612996596,272.1875 L178.2909543967633,272.1875" stroke="#4c4c4c" stroke-width="3.623317717373353" stroke-linecap="round" />
<path d="M178.2909543967633,272.1875 L178.2909543967633,293.75" stroke="#777777" stroke-width="2.8150756706037052" />
<path d="M178.2909543967633,272.1875 L178.2909543967633,250.625" stroke="#6c6c6c" stroke-width="3.0153721523976884" />
<path d="M178.2909543967633,250.625 L625.3707225718276,250.625" stroke="#6c6c6c" stroke-width="3.0153721523976884" stroke-linecap="round" />
<path d="M625.3707225718276,250.625 L625.3707225718276,242.0" stroke="#6b6b6b" stroke-width="3.0318405394388837" />
<path d="M625.3707225718276,250.625 L625.3707225718276,259.25" stroke="#858585" stroke-width="2.5514728237475364" />
<path d="M625.3707225718276,259.25 L817.8815301545344,259.25" stroke="#858585" stroke-width="2.5514728237475364" stroke-linecap="round" />
<path d="M817.8815301545344,259.25 L817.8815301545344,253.5" stroke="#868686" stroke-width="2.524742811581909" />
<path d="M817.8815301545344,259.25 L817.8815301545344,265.0" stroke="#8e8e8e" stroke-width="2.3928086239328157" />
<path d="M817.8815301545344,265.0 L980.0,265.0" stroke="#8e8e8e" stroke-width="2.3928086239328157" stroke-linecap="round" />
<path d="M817.8815301545344,253.5 L980.0,253.5" stroke="#868686" stroke-width="2.524742811581909" stroke-linecap="round" />
<path d="M625.3707225718276,242.0 L980.0,242.0" stroke="#6b6b6b" stroke-width="3.0318405394388837" stroke-linecap="round" />
<path d="M178.2909543967633,293.75 L227.58238920956862,293.75" stroke="#777777" stroke-width="2.8150756706037052" stroke-linecap="round" />
<path d="M227.58238920956862,293.75 L227.58238920956862,282.25" stroke="#424242" stroke-width="3.799732074150744" />
<path d="M227.58238920956862,293.75 L227.58238920956862,305.25" stroke="#878787" stroke-width="2.508639421493969" />
<path d="M227.58238920956862,305.25 L705.814383156905,305.25" stroke="#878787" stroke-width="2.508639421493969" stroke-linecap="round" />
<path d="M705.814383156905,305.25 L705.814383156905,299.5" stroke="#979797" stroke-width="2.2118540684316526" />
<path d="M705.814383156905,305.25 L705.814383156905,311.0" stroke="#8d8d8d" stroke-width="2.4091065146430806" />
<path d="M705.814383156905,311.0 L980.0,311.0" stroke="#8d8d8d" stroke-width="2.4091065146430806" stroke-linecap="round" />
<path d="M705.814383156905,299.5 L980.0,299.5" stroke="#979797" stroke-width="2.2118540684316526" stroke-linecap="round" />
<path d="M227.58238920956862,282.25 L234.78444268233923,282.25" stroke="#424242" stroke-width="3.799732074150744" stroke-linecap="round" />
<path d="M234.78444268233923,282.25 L234.78444268233923,276.5" stroke="#494949" stroke-width="3.665704791365534" />
<path d="M234.78444268233923,282.25 L234.78444268233923,288.0" stroke="#7e7e7e" stroke-width="2.686674241253715" />
<path d="M234.78444268233923,288.0 L980.0,288.0" stroke="#7e7e7e" stroke-width="2.686674241253715" stroke-linecap="round" />
<path d="M234.78444268233923,276.5 L423.9769920963463,276.5" stroke="#494949" stroke-width="3.665704791365534" stroke-linecap="round" />
<path d="M125.00826612996596,216.125 L496.4761444409759,216.125" stroke="#676767" stroke-width="3.1159041598531907" stroke-linecap="round" />
<path d="M496.4761444409759,216.125 L496.4761444409759,207.5" stroke="#909090" stroke-width="2.3477143351687335" />
<path d="M496.4761444409759,216.125 L496.4761444409759,224.75" stroke="#8f8f8f" stroke-width="2.369446968244416" />
<path d="M496.4761444409759,224.75 L554.7939957310223,224.75" stroke="#8f8f8f" stroke-width="2.369446968244416" stroke-linecap="round" />
<path d="M554.7939957310223,224.75 L554.7939957310223,219.0" stroke="#bdbdbd" stroke-width="1.5062062096729314" />
<path d="M554.7939957310223,224.75 L554.7939957310223,230.5" stroke="#9a9a9a" stroke-width="2.15541245040676" />
<path d="M554.7939957310223,230.5 L980.0,230.5" stroke="#9a9a9a" stroke-width="2.15541245040676" stroke-linecap="round" />
<path d="M554.7939957310223,219.0 L980.0,219.0" stroke="#bdbdbd" stroke-width="1.5062062096729314" stroke-linecap="round" />
<path d="M496.4761444409759,207.5 L980.0,207.5" stroke="#909090" stroke-width="2.3477143351687335" stroke-linecap="round" />
<rect x="730.0" y="116" width="3.7666666666666666" height="12" fill="#c8c8c8" />
<rect x="733.2203389830509" y="116" width="3.7666666666666666" height="12" fill="#c5c5c5" />
<rect x="736.4406779661017" y="116" width="3.7666666666666666" height="12" fill="#c2c2c2" />
<rect x="739.6610169491526" y="116" width="3.7666666666666666" height="12" fill="#bfbfbf" />
<rect x="742.8813559322034" y="116" width="3.7666666666666666" height="12" fill="#bcbcbc" />
<rect x="746.1016949152543" y="116" width="3.7666666666666666" height="12" fill="#b9b9b9" />
<rect x="749.3220338983051" y="116" width="3.7666666666666666" height="12" fill="#b5b5b5" />
<rect x="752.542372881356" y="116" width="3.7666666666666666" height="12" fill="#b2b2b2" />
<rect x="755.7627118644068" y="116" width="3.7666666666666666" height="12" fill="#afafaf" />
<rect x="758.9830508474577" y="116" width="3.7666666666666666" height="12" fill="#acacac" />
<rect x="762.2033898305085" y="116" width="3.7666666666666666" height="12" fill="#a9a9a9" />
<rect x="765.4237288135594" y="116" width="3.7666666666666666" height="12" fill="#a6a6a6" />
<rect x="768.6440677966102" y="116" width="3.7666666666666666" height="12" fill="#a3a3a3" />
<rect x="771.8644067796611" y="116" width="3.7666666666666666" height="12" fill="#a0a0a0" />
<rect x="775.0847457627119" y="116" width="3.7666666666666666" height="12" fill="#9d9d9d" />
<rect x="778.3050847457628" y="116" width="3.7666666666666666" height="12" fill="#9a9a9a" />
<rect x="781.5254237288135" y="116" width="3.7666666666666666" height="12" fill="#979797" />
<rect x="784.7457627118644" y="116" width="3.7666666666666666" height="12" fill="#949494" />
<rect x="787.9661016949152" y="116" width="3.7666666666666666" height="12" fill="#909090" />
<rect x="791.1864406779661" y="116" width="3.7666666666666666" height="12" fill="#8d8d8d" />
<rect x="794.4067796610169" y="116" width="3.7666666666666666" height="12" fill="#8a8a8a" />
<rect x="797.6271186440678" y="116" width="3.7666666666666666" height="12" fill="#878787" />
<rect x="800.8474576271186" y="116" width="3.7666666666666666" height="12" fill="#848484" />
<rect x="804.0677966101695" y="116" width="3.7666666666666666" height="12" fill="#818181" />
<rect x="807.2881355932203" y="116" width="3.7666666666666666" height="12" fill="#7e7e7e" />
<rect x="810.5084745762712" y="116" width="3.7666666666666666" height="12" fill="#7b7b7b" />
<rect x="813.728813559322" y="116" width="3.7666666666666666" height="12" fill="#787878" />
<rect x="816.9491525423729" y="116" width="3.7666666666666666" height="12" fill="#757575" />
<rect x="820.1694915254237" y="116" width="3.7666666666666666" height="12" fill="#727272" />
<rect x="823.3898305084746" y="116" width="3.7666666666666666" height="12" fill="#6f6f6f" />
<rect x="826.6101694915254" y="116" width="3.7666666666666666" height="12" fill="#6b6b6b" />
<rect x="829.8305084745763" y="116" width="3.7666666666666666" height="12" fill="#686868" />
<rect x="833.0508474576271" y="116" width="3.7666666666666666" height="12" fill="#656565" />
<rect x="836.271186440678" y="116" width="3.7666666666666666" height="12" fill="#626262" />
<rect x="839.4915254237288" y="116" width="3.7666666666666666" height="12" fill="#5f5f5f" />
<rect x="842.7118644067797" y="116" width="3.7666666666666666" height="12" fill="#5c5c5c" />
<rect x="845.9322033898305" y="116" width="3.7666666666666666" height="12" fill="#595959" />
<rect x="849.1525423728814" y="116" width="3.7666666666666666" height="12" fill="#565656" />
<rect x="852.3728813559322" y="116" width="3.7666666666666666" height="12" fill="#535353" />
<rect x="855.5932203389831" y="116" width="3.7666666666666666" height="12" fill="#505050" />
<rect x="858.8135593220338" y="116" width="3.7666666666666666" height="12" fill="#4d4d4d" />
<rect x="862.0338983050848" y="116" width="3.7666666666666666" height="12" fill="#4a4a4a" />
<rect x="865.2542372881355" y="116" width="3.7666666666666666" height="12" fill="#464646" />
<rect x="868.4745762711864" y="116" width="3.7666666666666666" height="12" fill="#434343" />
<rect x="871.6949152542372" y="116" width="3.7666666666666666" height="12" fill="#404040" />
<rect x="874.9152542372881" y="116" width="3.7666666666666666" height="12" fill="#3d3d3d" />
<rect x="878.1355932203389" y="116" width="3.7666666666666666" height="12" fill="#3a3a3a" />
<rect x="881.3559322033898" y="116" width="3.7666666666666666" height="12" fill="#373737" />
<rect x="884.5762711864406" y="116" width="3.7666666666666666" height="12" fill="#343434" />
<rect x="887.7966101694915" y="116" width="3.7666666666666666" height="12" fill="#313131" />
<rect x="891.0169491525423" y="116" width="3.7666666666666666" height="12" fill="#2e2e2e" />
<rect x="894.2372881355932" y="116" width="3.7666666666666666" height="12" fill="#2b2b2b" />
<rect x="897.457627118644" y="116" width="3.7666666666666666" height="12" fill="#282828" />
<rect x="900.6779661016949" y="116" width="3.7666666666666666" height="12" fill="#252525" />
<rect x="903.8983050847457" y="116" width="3.7666666666666666" height="12" fill="#212121" />
<rect x="907.1186440677966" y="116" width="3.7666666666666666" height="12" fill="#1e1e1e" />
<rect x="910.3389830508474" y="116" width="3.7666666666666666" height="12" fill="#1b1b1b" />
<rect x="913.5593220338983" y="116" width="3.7666666666666666" height="12" fill="#181818" />
<rect x="916.7796610169491" y="116" width="3.7666666666666666" height="12" fill="#151515" />
<rect x="920.0" y="116" width="3.7666666666666666" height="12" fill="#121212" />
<rect x="730" y="116" width="190" height="12" fill="none" stroke="#1a1a1a" stroke-width="0.8" />
<text x="825.0" y="106" font-size="12.5" font-family="Helvetica" text-anchor="middle" font-weight="bold" fill="#1a1a1a">speciation rate λ</text>
<text x="724" y="122.0" font-size="11" font-family="Helvetica" text-anchor="end" dominant-baseline="central" fill="#777">slow</text>
<text x="926" y="122.0" font-size="11" font-family="Helvetica" text-anchor="start" dominant-baseline="central" fill="#777">fast</text>
<path d="M96.0,576.5 L96.0,581.5" stroke="#1a1a1a" stroke-width="1.2" />
<text x="96.0" y="594.5" font-size="11" font-family="Helvetica" text-anchor="middle" fill="#777">0.0</text>
<path d="M272.79999999999995,576.5 L272.79999999999995,581.5" stroke="#1a1a1a" stroke-width="1.2" />
<text x="272.79999999999995" y="594.5" font-size="11" font-family="Helvetica" text-anchor="middle" fill="#777">1.2</text>
<path d="M449.59999999999997,576.5 L449.59999999999997,581.5" stroke="#1a1a1a" stroke-width="1.2" />
<text x="449.59999999999997" y="594.5" font-size="11" font-family="Helvetica" text-anchor="middle" fill="#777">2.4</text>
<path d="M626.4,576.5 L626.4,581.5" stroke="#1a1a1a" stroke-width="1.2" />
<text x="626.4" y="594.5" font-size="11" font-family="Helvetica" text-anchor="middle" fill="#777">3.6</text>
<path d="M803.1999999999999,576.5 L803.1999999999999,581.5" stroke="#1a1a1a" stroke-width="1.2" />
<text x="803.1999999999999" y="594.5" font-size="11" font-family="Helvetica" text-anchor="middle" fill="#777">4.8</text>
<path d="M980.0,576.5 L980.0,581.5" stroke="#1a1a1a" stroke-width="1.2" />
<text x="980.0" y="594.5" font-size="11" font-family="Helvetica" text-anchor="middle" fill="#777">6.0</text>
<text x="538.0" y="614.5" font-size="12.5" font-family="Helvetica" text-anchor="middle" fill="#777">time (root -&gt; present)</text>
</svg>