<?xml version="1.0" encoding="UTF-8"?>
<svg xmlns="http://www.w3.org/2000/svg" xmlns:xlink="http://www.w3.org/1999/xlink"
     width="1300" height="940" viewBox="0 0 1300 940">
<defs>
<linearGradient x1="0" y1="0" x2="1" y2="0" gradientUnits="objectBoundingBox" id="d0">
<stop offset="0.0" stop-color="#440154" />
<stop offset="0.05" stop-color="#42115f" />
<stop offset="0.1" stop-color="#40216a" />
<stop offset="0.15" stop-color="#3f3275" />
<stop offset="0.2" stop-color="#3d4280" />
<stop offset="0.25" stop-color="#3b528b" />
<stop offset="0.3" stop-color="#365f8b" />
<stop offset="0.35" stop-color="#316b8b" />
<stop offset="0.4" stop-color="#2b788c" />
<stop offset="0.45" stop-color="#26848c" />
<stop offset="0.5" stop-color="#21918c" />
<stop offset="0.55" stop-color="#2d9c84" />
<stop offset="0.6" stop-color="#39a77b" />
<stop offset="0.65" stop-color="#46b373" />
<stop offset="0.7" stop-color="#52be6a" />
<stop offset="0.75" stop-color="#5ec962" />
<stop offset="0.8" stop-color="#7ecf56" />
<stop offset="0.85" stop-color="#9ed54a" />
<stop offset="0.9" stop-color="#bddb3d" />
<stop offset="0.95" stop-color="#dde131" />
<stop offset="1.0" stop-color="#fde725" />
</linearGradient>
</defs>
<rect x="0" y="0" width="1300" height="940" fill="white" />
<text x="650.0" y="46" font-size="32" font-family="Helvetica" text-anchor="middle" font-weight="bold" fill="#1a1a1a">Uncorrelated vs autocorrelated clocks</text>
<use xlink:href="#d0" />
<text x="650.0" y="76" font-size="22" font-family="Helvetica" text-anchor="middle" font-weight="bold" fill="#1a1a1a">branch rate multiplier</text>
<rect x="475.0" y="84" width="350" height="16" fill="url(#d0)" stroke="#1a1a1a" stroke-width="0.8" />
<text x="475.0" y="116" font-size="22" font-family="Helvetica" text-anchor="start" fill="#8a8a8a">slow</text>
<text x="650.0" y="116" font-size="22" font-family="Helvetica" text-anchor="middle" fill="#8a8a8a">1x</text>
<text x="825.0" y="116" font-size="22" font-family="Helvetica" text-anchor="end" fill="#8a8a8a">fast</text>
<text x="345.0" y="152" font-size="22" font-family="Helvetica" text-anchor="middle" font-weight="bold" fill="#1a1a1a">Uncorrelated lognormal</text>
<text x="345.0" y="174" font-size="22" font-family="Helvetica" text-anchor="middle" fill="#8a8a8a" font-style="italic">each branch drawn independently</text>
<path d="M66.0,233.14655172413794 L88.83338675994841,233.14655172413794" stroke="#d8e033" stroke-width="2.8" stroke-linecap="round" />
<path d="M66.0,388.03286637931035 L69.06475106153546,388.03286637931035" stroke="#3a568b" stroke-width="2.8" stroke-linecap="round" />
<path d="M88.83338675994841,216.67241379310343 L98.6938820451025,216.67241379310343" stroke="#440154" stroke-width="2.8" stroke-linecap="round" />
<path d="M88.83338675994841,249.6206896551724 L163.94570805563143,249.6206896551724" stroke="#3c4783" stroke-width="2.8" stroke-linecap="round" />
<path d="M69.06475106153546,324.9310344827586 L93.20235371086659,324.9310344827586" stroke="#3e3779" stroke-width="2.8" stroke-linecap="round" />
<path d="M69.06475106153546,451.1346982758621 L135.94765948472232,451.1346982758621" stroke="#4dba6d" stroke-width="2.8" stroke-linecap="round" />
<path d="M98.6938820451025,205.68965517241378 L129.03481634460132,205.68965517241378" stroke="#2a9986" stroke-width="2.8" stroke-linecap="round" />
<path d="M98.6938820451025,227.6551724137931 L234.82059721948383,227.6551724137931" stroke="#2e718b" stroke-width="2.8" stroke-linecap="round" />
<path d="M163.94570805563143,240.20689655172413 L624.0,240.20689655172413" stroke="#fde725" stroke-width="2.8" stroke-linecap="round" />
<path d="M163.94570805563143,259.0344827586207 L232.59524145651034,259.0344827586207" stroke="#228e8c" stroke-width="2.8" stroke-linecap="round" />
<path d="M93.20235371086659,293.55172413793105 L98.42049558938906,293.55172413793105" stroke="#32678b" stroke-width="2.8" stroke-linecap="round" />
<path d="M93.20235371086659,356.3103448275862 L109.14286808047203,356.3103448275862" stroke="#2d748c" stroke-width="2.8" stroke-linecap="round" />
<path d="M135.94765948472232,397.1034482758621 L172.4155840071483,397.1034482758621" stroke="#3c4582" stroke-width="2.8" stroke-linecap="round" />
<path d="M135.94765948472232,505.1659482758621 L219.7778101126969,505.1659482758621" stroke="#4fbb6d" stroke-width="2.8" stroke-linecap="round" />
<path d="M129.03481634460132,196.27586206896552 L204.80767725978816,196.27586206896552" stroke="#375c8b" stroke-width="2.8" stroke-linecap="round" />
<path d="M129.03481634460132,215.10344827586206 L172.0126432774901,215.10344827586206" stroke="#440154" stroke-width="2.8" stroke-linecap="round" />
<path d="M232.59524145651034,252.75862068965517 L243.5834723148901,252.75862068965517" stroke="#31698b" stroke-width="2.8" stroke-linecap="round" />
<path d="M232.59524145651034,265.3103448275862 L244.02320889354394,265.3103448275862" stroke="#2f6e8b" stroke-width="2.8" stroke-linecap="round" />
<path d="M98.42049558938906,277.8620689655172 L291.694422052897,277.8620689655172" stroke="#2e9d83" stroke-width="2.8" stroke-linecap="round" />
<path d="M98.42049558938906,309.2413793103448 L139.80829841832514,309.2413793103448" stroke="#2e718b" stroke-width="2.8" stroke-linecap="round" />
<path d="M109.14286808047203,346.8965517241379 L145.29991499156398,346.8965517241379" stroke="#31a081" stroke-width="2.8" stroke-linecap="round" />
<path d="M109.14286808047203,365.7241379310345 L229.06569134117692,365.7241379310345" stroke="#2e708b" stroke-width="2.8" stroke-linecap="round" />
<path d="M172.4155840071483,384.55172413793105 L187.92013485266258,384.55172413793105" stroke="#306d8b" stroke-width="2.8" stroke-linecap="round" />
<path d="M172.4155840071483,409.65517241379314 L211.98532857918758,409.65517241379314" stroke="#26858c" stroke-width="2.8" stroke-linecap="round" />
<path d="M219.7778101126969,462.60775862068965 L254.59838014014593,462.60775862068965" stroke="#3d3f7e" stroke-width="2.8" stroke-linecap="round" />
<path d="M219.7778101126969,547.7241379310344 L276.6607880690377,547.7241379310344" stroke="#3c4d88" stroke-width="2.8" stroke-linecap="round" />
<path d="M204.80767725978816,190.0 L225.8524574803968,190.0" stroke="#34638b" stroke-width="2.8" stroke-linecap="round" />
<path d="M204.80767725978816,202.55172413793105 L228.78314739144525,202.55172413793105" stroke="#2e728c" stroke-width="2.8" stroke-linecap="round" />
<path d="M139.80829841832514,296.6896551724138 L230.66375971236772,296.6896551724138" stroke="#4bb76f" stroke-width="2.8" stroke-linecap="round" />
<path d="M139.80829841832514,321.7931034482759 L184.2937087060854,321.7931034482759" stroke="#89d151" stroke-width="2.8" stroke-linecap="round" />
<path d="M145.29991499156398,340.62068965517244 L464.9062099172577,340.62068965517244" stroke="#c7dd3a" stroke-width="2.8" stroke-linecap="round" />
<path d="M145.29991499156398,353.1724137931035 L240.35915831535834,353.1724137931035" stroke="#2f6f8b" stroke-width="2.8" stroke-linecap="round" />
<path d="M187.92013485266258,378.2758620689655 L320.7350715938185,378.2758620689655" stroke="#46b372" stroke-width="2.8" stroke-linecap="round" />
<path d="M187.92013485266258,390.8275862068965 L300.3975877628508,390.8275862068965" stroke="#34a27f" stroke-width="2.8" stroke-linecap="round" />
<path d="M211.98532857918758,403.37931034482756 L302.0736382788398,403.37931034482756" stroke="#39a77b" stroke-width="2.8" stroke-linecap="round" />
<path d="M211.98532857918758,415.9310344827586 L225.13956337144634,415.9310344827586" stroke="#440154" stroke-width="2.8" stroke-linecap="round" />
<path d="M254.59838014014593,434.7586206896552 L269.4317996823561,434.7586206896552" stroke="#440557" stroke-width="2.8" stroke-linecap="round" />
<path d="M254.59838014014593,490.4568965517242 L255.2965956630787,490.4568965517242" stroke="#34648b" stroke-width="2.8" stroke-linecap="round" />
<path d="M276.6607880690377,541.448275862069 L303.92103617107875,541.448275862069" stroke="#228e8c" stroke-width="2.8" stroke-linecap="round" />
<path d="M276.6607880690377,554.0 L282.7575209019384,554.0" stroke="#440154" stroke-width="2.8" stroke-linecap="round" />
<path d="M230.66375971236772,290.41379310344826 L273.1568897325682,290.41379310344826" stroke="#2d738c" stroke-width="2.8" stroke-linecap="round" />
<path d="M230.66375971236772,302.9655172413793 L278.72982131371526,302.9655172413793" stroke="#28818c" stroke-width="2.8" stroke-linecap="round" />
<path d="M184.2937087060854,315.51724137931035 L295.0556587746071,315.51724137931035" stroke="#31a081" stroke-width="2.8" stroke-linecap="round" />
<path d="M184.2937087060854,328.0689655172414 L246.45294764079352,328.0689655172414" stroke="#35608b" stroke-width="2.8" stroke-linecap="round" />
<path d="M269.4317996823561,428.48275862068965 L287.31202709870877,428.48275862068965" stroke="#21918c" stroke-width="2.8" stroke-linecap="round" />
<path d="M269.4317996823561,441.0344827586207 L292.0092132730705,441.0344827586207" stroke="#3ba97a" stroke-width="2.8" stroke-linecap="round" />
<path d="M255.2965956630787,463.0 L280.3501866847087,463.0" stroke="#3e3578" stroke-width="2.8" stroke-linecap="round" />
<path d="M255.2965956630787,517.9137931034483 L262.2936308431504,517.9137931034483" stroke="#238c8c" stroke-width="2.8" stroke-linecap="round" />
<path d="M280.3501866847087,453.58620689655174 L286.7575308001549,453.58620689655174" stroke="#27818c" stroke-width="2.8" stroke-linecap="round" />
<path d="M280.3501866847087,472.41379310344826 L280.7907660336091,472.41379310344826" stroke="#2a7c8c" stroke-width="2.8" stroke-linecap="round" />
<path d="M262.2936308431504,506.9310344827586 L317.3352175393657,506.9310344827586" stroke="#54c069" stroke-width="2.8" stroke-linecap="round" />
<path d="M262.2936308431504,528.8965517241379 L302.5580104292882,528.8965517241379" stroke="#2e728c" stroke-width="2.8" stroke-linecap="round" />
<path d="M280.7907660336091,466.13793103448273 L293.4912008461487,466.13793103448273" stroke="#73cd5a" stroke-width="2.8" stroke-linecap="round" />
<path d="M280.7907660336091,478.6896551724138 L289.63381419533937,478.6896551724138" stroke="#3eab78" stroke-width="2.8" stroke-linecap="round" />
<path d="M317.3352175393657,497.51724137931035 L330.1791888894487,497.51724137931035" stroke="#2e738c" stroke-width="2.8" stroke-linecap="round" />
<path d="M317.3352175393657,516.344827586207 L338.6191893753878,516.344827586207" stroke="#34a27f" stroke-width="2.8" stroke-linecap="round" />
<path d="M330.1791888894487,491.2413793103448 L330.82109419259314,491.2413793103448" stroke="#3d4280" stroke-width="2.8" stroke-linecap="round" />
<path d="M330.1791888894487,503.7931034482758 L331.651984466006,503.7931034482758" stroke="#34a27f" stroke-width="2.8" stroke-linecap="round" />
<path d="M204.80767725978816,190.0 L204.80767725978816,202.55172413793105" stroke="#1a1a1a" stroke-width="1.3" />
<path d="M129.03481634460132,196.27586206896552 L129.03481634460132,215.10344827586206" stroke="#1a1a1a" stroke-width="1.3" />
<path d="M98.6938820451025,205.68965517241378 L98.6938820451025,227.6551724137931" stroke="#1a1a1a" stroke-width="1.3" />
<path d="M232.59524145651034,252.75862068965517 L232.59524145651034,265.3103448275862" stroke="#1a1a1a" stroke-width="1.3" />
<path d="M163.94570805563143,240.20689655172413 L163.94570805563143,259.0344827586207" stroke="#1a1a1a" stroke-width="1.3" />
<path d="M88.83338675994841,216.67241379310343 L88.83338675994841,249.6206896551724" stroke="#1a1a1a" stroke-width="1.3" />
<path d="M230.66375971236772,290.41379310344826 L230.66375971236772,302.9655172413793" stroke="#1a1a1a" stroke-width="1.3" />
<path d="M184.2937087060854,315.51724137931035 L184.2937087060854,328.0689655172414" stroke="#1a1a1a" stroke-width="1.3" />
<path d="M139.80829841832514,296.6896551724138 L139.80829841832514,321.7931034482759" stroke="#1a1a1a" stroke-width="1.3" />
<path d="M98.42049558938906,277.8620689655172 L98.42049558938906,309.2413793103448" stroke="#1a1a1a" stroke-width="1.3" />
<path d="M145.29991499156398,340.62068965517244 L145.29991499156398,353.1724137931035" stroke="#1a1a1a" stroke-width="1.3" />
<path d="M109.14286808047203,346.8965517241379 L109.14286808047203,365.7241379310345" stroke="#1a1a1a" stroke-width="1.3" />
<path d="M93.20235371086659,293.55172413793105 L93.20235371086659,356.3103448275862" stroke="#1a1a1a" stroke-width="1.3" />
<path d="M187.92013485266258,378.2758620689655 L187.92013485266258,390.8275862068965" stroke="#1a1a1a" stroke-width="1.3" />
<path d="M211.98532857918758,403.37931034482756 L211.98532857918758,415.9310344827586" stroke="#1a1a1a" stroke-width="1.3" />
<path d="M172.4155840071483,384.55172413793105 L172.4155840071483,409.65517241379314" stroke="#1a1a1a" stroke-width="1.3" />
<path d="M269.4317996823561,428.48275862068965 L269.4317996823561,441.0344827586207" stroke="#1a1a1a" stroke-width="1.3" />
<path d="M280.7907660336091,466.13793103448273 L280.7907660336091,478.6896551724138" stroke="#1a1a1a" stroke-width="1.3" />
<path d="M280.3501866847087,453.58620689655174 L280.3501866847087,472.41379310344826" stroke="#1a1a1a" stroke-width="1.3" />
<path d="M330.1791888894487,491.2413793103448 L330.1791888894487,503.7931034482758" stroke="#1a1a1a" stroke-width="1.3" />
<path d="M317.3352175393657,497.51724137931035 L317.3352175393657,516.344827586207" stroke="#1a1a1a" stroke-width="1.3" />
<path d="M262.2936308431504,506.9310344827586 L262.2936308431504,528.8965517241379" stroke="#1a1a1a" stroke-width="1.3" />
<path d="M255.2965956630787,463.0 L255.2965956630787,517.9137931034483" stroke="#1a1a1a" stroke-width="1.3" />
<path d="M254.59838014014593,434.7586206896552 L254.59838014014593,490.4568965517242" stroke="#1a1a1a" stroke-width="1.3" />
<path d="M276.6607880690377,541.448275862069 L276.6607880690377,554.0" stroke="#1a1a1a" stroke-width="1.3" />
<path d="M219.7778101126969,462.60775862068965 L219.7778101126969,547.7241379310344" stroke="#1a1a1a" stroke-width="1.3" />
<path d="M135.94765948472232,397.1034482758621 L135.94765948472232,505.1659482758621" stroke="#1a1a1a" stroke-width="1.3" />
<path d="M69.06475106153546,324.9310344827586 L69.06475106153546,451.1346982758621" stroke="#1a1a1a" stroke-width="1.3" />
<path d="M66.0,233.14655172413794 L66.0,388.03286637931035" stroke="#1a1a1a" stroke-width="1.3" />
<text x="955.0" y="152" font-size="22" font-family="Helvetica" text-anchor="middle" font-weight="bold" fill="#1a1a1a">Autocorrelated lognormal</text>
<text x="955.0" y="174" font-size="22" font-family="Helvetica" text-anchor="middle" fill="#8a8a8a" font-style="italic">each branch inherits its parent's rate</text>
<path d="M676.0,233.14655172413794 L689.8270394250115,233.14655172413794" stroke="#24898c" stroke-width="2.8" stroke-linecap="round" />
<path d="M676.0,388.03286637931035 L685.1939215750768,388.03286637931035" stroke="#269589" stroke-width="2.8" stroke-linecap="round" />
<path d="M689.8270394250115,216.67241379310343 L761.5073682957822,216.67241379310343" stroke="#26848c" stroke-width="2.8" stroke-linecap="round" />
<path d="M689.8270394250115,249.6206896551724 L803.3499333579401,249.6206896551724" stroke="#3e3477" stroke-width="2.8" stroke-linecap="round" />
<path d="M685.1939215750768,324.9310344827586 L746.5126246115609,324.9310344827586" stroke="#316a8b" stroke-width="2.8" stroke-linecap="round" />
<path d="M685.1939215750768,451.1346982758621 L733.3454971780749,451.1346982758621" stroke="#375b8b" stroke-width="2.8" stroke-linecap="round" />
<path d="M761.5073682957822,205.68965517241378 L820.4460862239345,205.68965517241378" stroke="#38a67c" stroke-width="2.8" stroke-linecap="round" />
<path d="M761.5073682957822,227.6551724137931 L1057.6048480642608,227.6551724137931" stroke="#238c8c" stroke-width="2.8" stroke-linecap="round" />
<path d="M803.3499333579401,240.20689655172413 L878.6332558437034,240.20689655172413" stroke="#3d407f" stroke-width="2.8" stroke-linecap="round" />
<path d="M803.3499333579401,259.0344827586207 L864.47123257914,259.0344827586207" stroke="#3d3e7e" stroke-width="2.8" stroke-linecap="round" />
<path d="M746.5126246115609,293.55172413793105 L757.9929586359581,293.55172413793105" stroke="#26848c" stroke-width="2.8" stroke-linecap="round" />
<path d="M746.5126246115609,356.3103448275862 L778.3967357742564,356.3103448275862" stroke="#26868c" stroke-width="2.8" stroke-linecap="round" />
<path d="M733.3454971780749,397.1034482758621 L800.3159535359223,397.1034482758621" stroke="#3b4f89" stroke-width="2.8" stroke-linecap="round" />
<path d="M733.3454971780749,505.1659482758621 L779.305943670391,505.1659482758621" stroke="#3e3879" stroke-width="2.8" stroke-linecap="round" />
<path d="M820.4460862239345,196.27586206896552 L1148.5534066080447,196.27586206896552" stroke="#54c069" stroke-width="2.8" stroke-linecap="round" />
<path d="M820.4460862239345,215.10344827586206 L1062.7450398675953,215.10344827586206" stroke="#24898c" stroke-width="2.8" stroke-linecap="round" />
<path d="M864.47123257914,252.75862068965517 L881.2705772253845,252.75862068965517" stroke="#375c8b" stroke-width="2.8" stroke-linecap="round" />
<path d="M864.47123257914,265.3103448275862 L878.5338912908355,265.3103448275862" stroke="#3c4582" stroke-width="2.8" stroke-linecap="round" />
<path d="M757.9929586359581,277.8620689655172 L864.7514581466392,277.8620689655172" stroke="#430d5c" stroke-width="2.8" stroke-linecap="round" />
<path d="M757.9929586359581,309.2413793103448 L870.2097403611433,309.2413793103448" stroke="#35a37e" stroke-width="2.8" stroke-linecap="round" />
<path d="M778.3967357742564,346.8965517241379 L812.0664048367003,346.8965517241379" stroke="#375c8b" stroke-width="2.8" stroke-linecap="round" />
<path d="M778.3967357742564,365.7241379310345 L1130.8116667195677,365.7241379310345" stroke="#3dab79" stroke-width="2.8" stroke-linecap="round" />
<path d="M800.3159535359223,384.55172413793105 L821.5694334534226,384.55172413793105" stroke="#3a548b" stroke-width="2.8" stroke-linecap="round" />
<path d="M800.3159535359223,409.65517241379314 L844.589533744422,409.65517241379314" stroke="#3a558b" stroke-width="2.8" stroke-linecap="round" />
<path d="M779.305943670391,462.60775862068965 L824.0829223203941,462.60775862068965" stroke="#421561" stroke-width="2.8" stroke-linecap="round" />
<path d="M779.305943670391,547.7241379310344 L890.6096502009927,547.7241379310344" stroke="#365e8b" stroke-width="2.8" stroke-linecap="round" />
<path d="M1148.5534066080447,190.0 L1210.0609178521659,190.0" stroke="#309f82" stroke-width="2.8" stroke-linecap="round" />
<path d="M1148.5534066080447,202.55172413793105 L1234.0,202.55172413793105" stroke="#54c069" stroke-width="2.8" stroke-linecap="round" />
<path d="M870.2097403611433,296.6896551724138 L986.4082856552156,296.6896551724138" stroke="#2a9986" stroke-width="2.8" stroke-linecap="round" />
<path d="M870.2097403611433,321.7931034482759 L910.5721171485425,321.7931034482759" stroke="#289787" stroke-width="2.8" stroke-linecap="round" />
<path d="M812.0664048367003,340.62068965517244 L950.1079712471787,340.62068965517244" stroke="#375c8b" stroke-width="2.8" stroke-linecap="round" />
<path d="M812.0664048367003,353.1724137931035 L908.282043816827,353.1724137931035" stroke="#40296f" stroke-width="2.8" stroke-linecap="round" />
<path d="M821.5694334534226,378.2758620689655 L878.3714397736774,378.2758620689655" stroke="#430859" stroke-width="2.8" stroke-linecap="round" />
<path d="M821.5694334534226,390.8275862068965 L956.2562216469496,390.8275862068965" stroke="#2a7b8c" stroke-width="2.8" stroke-linecap="round" />
<path d="M844.589533744422,403.37931034482756 L944.2978720945355,403.37931034482756" stroke="#2b788c" stroke-width="2.8" stroke-linecap="round" />
<path d="M844.589533744422,415.9310344827586 L942.8573637695276,415.9310344827586" stroke="#2c768c" stroke-width="2.8" stroke-linecap="round" />
<path d="M824.0829223203941,434.7586206896552 L850.9362057284557,434.7586206896552" stroke="#430d5c" stroke-width="2.8" stroke-linecap="round" />
<path d="M824.0829223203941,490.4568965517242 L824.7420491417552,490.4568965517242" stroke="#42115f" stroke-width="2.8" stroke-linecap="round" />
<path d="M890.6096502009927,541.448275862069 L914.4323381558274,541.448275862069" stroke="#3d3c7c" stroke-width="2.8" stroke-linecap="round" />
<path d="M890.6096502009927,554.0 L930.2603002900074,554.0" stroke="#2a7b8c" stroke-width="2.8" stroke-linecap="round" />
<path d="M986.4082856552156,290.41379310344826 L1067.6558824145197,290.41379310344826" stroke="#28808c" stroke-width="2.8" stroke-linecap="round" />
<path d="M986.4082856552156,302.9655172413793 L1072.6584747779636,302.9655172413793" stroke="#25868c" stroke-width="2.8" stroke-linecap="round" />
<path d="M910.5721171485425,315.51724137931035 L1109.6512207160793,315.51724137931035" stroke="#37a57d" stroke-width="2.8" stroke-linecap="round" />
<path d="M910.5721171485425,328.0689655172414 L1078.2353713982704,328.0689655172414" stroke="#24948a" stroke-width="2.8" stroke-linecap="round" />
<path d="M850.9362057284557,428.48275862068965 L863.3743177573679,428.48275862068965" stroke="#411e68" stroke-width="2.8" stroke-linecap="round" />
<path d="M850.9362057284557,441.0344827586207 L863.570005233754,441.0344827586207" stroke="#402169" stroke-width="2.8" stroke-linecap="round" />
<path d="M824.7420491417552,463.0 L853.3244820882989,463.0" stroke="#440154" stroke-width="2.8" stroke-linecap="round" />
<path d="M824.7420491417552,517.9137931034483 L830.418072622067,517.9137931034483" stroke="#3f2e73" stroke-width="2.8" stroke-linecap="round" />
<path d="M853.3244820882989,453.58620689655174 L857.013250525708,453.58620689655174" stroke="#440154" stroke-width="2.8" stroke-linecap="round" />
<path d="M853.3244820882989,472.41379310344826 L853.6064063137952,472.41379310344826" stroke="#440154" stroke-width="2.8" stroke-linecap="round" />
<path d="M830.418072622067,506.9310344827586 L854.6346276227655,506.9310344827586" stroke="#411e68" stroke-width="2.8" stroke-linecap="round" />
<path d="M830.418072622067,528.8965517241379 L871.4542082083999,528.8965517241379" stroke="#3f2f73" stroke-width="2.8" stroke-linecap="round" />
<path d="M853.6064063137952,466.13793103448273 L857.1701705732214,466.13793103448273" stroke="#440154" stroke-width="2.8" stroke-linecap="round" />
<path d="M853.6064063137952,478.6896551724138 L857.2057525305414,478.6896551724138" stroke="#440154" stroke-width="2.8" stroke-linecap="round" />
<path d="M854.6346276227655,497.51724137931035 L865.812293404309,497.51724137931035" stroke="#411864" stroke-width="2.8" stroke-linecap="round" />
<path d="M854.6346276227655,516.344827586207 L866.4792571446203,516.344827586207" stroke="#421662" stroke-width="2.8" stroke-linecap="round" />
<path d="M865.812293404309,491.2413793103448 L866.6578698222276,491.2413793103448" stroke="#411b66" stroke-width="2.8" stroke-linecap="round" />
<path d="M865.812293404309,503.7931034482758 L866.6114847200449,503.7931034482758" stroke="#421360" stroke-width="2.8" stroke-linecap="round" />
<path d="M1148.5534066080447,190.0 L1148.5534066080447,202.55172413793105" stroke="#1a1a1a" stroke-width="1.3" />
<path d="M820.4460862239345,196.27586206896552 L820.4460862239345,215.10344827586206" stroke="#1a1a1a" stroke-width="1.3" />
<path d="M761.5073682957822,205.68965517241378 L761.5073682957822,227.6551724137931" stroke="#1a1a1a" stroke-width="1.3" />
<path d="M864.47123257914,252.75862068965517 L864.47123257914,265.3103448275862" stroke="#1a1a1a" stroke-width="1.3" />
<path d="M803.3499333579401,240.20689655172413 L803.3499333579401,259.0344827586207" stroke="#1a1a1a" stroke-width="1.3" />
<path d="M689.8270394250115,216.67241379310343 L689.8270394250115,249.6206896551724" stroke="#1a1a1a" stroke-width="1.3" />
<path d="M986.4082856552156,290.41379310344826 L986.4082856552156,302.9655172413793" stroke="#1a1a1a" stroke-width="1.3" />
<path d="M910.5721171485425,315.51724137931035 L910.5721171485425,328.0689655172414" stroke="#1a1a1a" stroke-width="1.3" />
<path d="M870.2097403611433,296.6896551724138 L870.2097403611433,321.7931034482759" stroke="#1a1a1a" stroke-width="1.3" />
<path d="M757.9929586359581,277.8620689655172 L757.9929586359581,309.2413793103448" stroke="#1a1a1a" stroke-width="1.3" />
<path d="M812.0664048367003,340.62068965517244 L812.0664048367003,353.1724137931035" stroke="#1a1a1a" stroke-width="1.3" />
<path d="M778.3967357742564,346.8965517241379 L778.3967357742564,365.7241379310345" stroke="#1a1a1a" stroke-width="1.3" />
<path d="M746.5126246115609,293.55172413793105 L746.5126246115609,356.3103448275862" stroke="#1a1a1a" stroke-width="1.3" />
<path d="M821.5694334534226,378.2758620689655 L821.5694334534226,390.8275862068965" stroke="#1a1a1a" stroke-width="1.3" />
<path d="M844.589533744422,403.37931034482756 L844.589533744422,415.9310344827586" stroke="#1a1a1a" stroke-width="1.3" />
<path d="M800.3159535359223,384.55172413793105 L800.3159535359223,409.65517241379314" stroke="#1a1a1a" stroke-width="1.3" />
<path d="M850.9362057284557,428.48275862068965 L850.9362057284557,441.0344827586207" stroke="#1a1a1a" stroke-width="1.3" />
<path d="M853.6064063137952,466.13793103448273 L853.6064063137952,478.6896551724138" stroke="#1a1a1a" stroke-width="1.3" />
<path d="M853.3244820882989,453.58620689655174 L853.3244820882989,472.41379310344826" stroke="#1a1a1a" stroke-width="1.3" />
<path d="M865.812293404309,491.2413793103448 L865.812293404309,503.7931034482758" stroke="#1a1a1a" stroke-width="1.3" />
<path d="M854.6346276227655,497.51724137931035 L854.6346276227655,516.344827586207" stroke="#1a1a1a" stroke-width="1.3" />
<path d="M830.418072622067,506.9310344827586 L830.418072622067,528.8965517241379" stroke="#1a1a1a" stroke-width="1.3" />
<path d="M824.7420491417552,463.0 L824.7420491417552,517.9137931034483" stroke="#1a1a1a" stroke-width="1.3" />
<path d="M824.0829223203941,434.7586206896552 L824.0829223203941,490.4568965517242" stroke="#1a1a1a" stroke-width="1.3" />
<path d="M890.6096502009927,541.448275862069 L890.6096502009927,554.0" stroke="#1a1a1a" stroke-width="1.3" />
<path d="M779.305943670391,462.60775862068965 L779.305943670391,547.7241379310344" stroke="#1a1a1a" stroke-width="1.3" />
<path d="M733.3454971780749,397.1034482758621 L733.3454971780749,505.1659482758621" stroke="#1a1a1a" stroke-width="1.3" />
<path d="M685.1939215750768,324.9310344827586 L685.1939215750768,451.1346982758621" stroke="#1a1a1a" stroke-width="1.3" />
<path d="M676.0,233.14655172413794 L676.0,388.03286637931035" stroke="#1a1a1a" stroke-width="1.3" />
<rect x="220.0" y="640" width="250" height="250" fill="white" stroke="#8a8a8a" stroke-width="1.0" />
<path d="M220.0,890.0 L470.0,640.0" stroke="#8a8a8a" stroke-width="1.2" stroke-dasharray="4,4" />
<path d="M345.0,640 L345.0,890" stroke="#e2e2e2" stroke-width="1.0" />
<path d="M220.0,765.0 L470.0,765.0" stroke="#e2e2e2" stroke-width="1.0" />
<circle cx="455.5093588042945" cy="890.0" r="4.2" fill="#2f6f8b" stroke="#1a1a1a" stroke-width="0.6" fill-opacity="0.9" />
<circle cx="455.5093588042945" cy="836.3533334757589" r="4.2" fill="#34a37f" stroke="#1a1a1a" stroke-width="0.6" fill-opacity="0.9" />
<circle cx="285.98515284806103" cy="848.239420620552" r="4.2" fill="#3c4783" stroke="#1a1a1a" stroke-width="0.6" fill-opacity="0.9" />
<circle cx="285.98515284806103" cy="719.4854808165999" r="4.2" fill="#248a8c" stroke="#1a1a1a" stroke-width="0.6" fill-opacity="0.9" />
<circle cx="220.0" cy="756.045024879228" r="4.2" fill="#3e3678" stroke="#1a1a1a" stroke-width="0.6" fill-opacity="0.9" />
<circle cx="220.0" cy="796.7232943073029" r="4.2" fill="#411c66" stroke="#1a1a1a" stroke-width="0.6" fill-opacity="0.9" />
<circle cx="273.6466665242412" cy="640.0" r="4.2" fill="#5bc664" stroke="#1a1a1a" stroke-width="0.6" fill-opacity="0.9" />
<circle cx="273.6466665242412" cy="768.0797219141634" r="4.2" fill="#306b8b" stroke="#1a1a1a" stroke-width="0.6" fill-opacity="0.9" />
<circle cx="261.760579379448" cy="806.6651239541256" r="4.2" fill="#3b528b" stroke="#1a1a1a" stroke-width="0.6" fill-opacity="0.9" />
<circle cx="261.760579379448" cy="793.6510808483258" r="4.2" fill="#38598b" stroke="#1a1a1a" stroke-width="0.6" fill-opacity="0.9" />
<circle cx="390.5145191834001" cy="837.6829400289124" r="4.2" fill="#27838c" stroke="#1a1a1a" stroke-width="0.6" fill-opacity="0.9" />
<circle cx="390.5145191834001" cy="718.2969053483519" r="4.2" fill="#4eba6d" stroke="#1a1a1a" stroke-width="0.6" fill-opacity="0.9" />
<circle cx="353.954975120772" cy="817.7396343723212" r="4.2" fill="#2a7b8c" stroke="#1a1a1a" stroke-width="0.6" fill-opacity="0.9" />
<circle cx="353.954975120772" cy="890.0" r="4.2" fill="#3c4c87" stroke="#1a1a1a" stroke-width="0.6" fill-opacity="0.9" />
<circle cx="341.92027808583657" cy="804.2764741083469" r="4.2" fill="#2a7c8c" stroke="#1a1a1a" stroke-width="0.6" fill-opacity="0.9" />
<circle cx="341.92027808583657" cy="799.8118807630224" r="4.2" fill="#297e8c" stroke="#1a1a1a" stroke-width="0.6" fill-opacity="0.9" />
<circle cx="303.3348760458743" cy="752.049575535797" r="4.2" fill="#27838c" stroke="#1a1a1a" stroke-width="0.6" fill-opacity="0.9" />
<circle cx="303.3348760458743" cy="797.1376438404151" r="4.2" fill="#306c8b" stroke="#1a1a1a" stroke-width="0.6" fill-opacity="0.9" />
<circle cx="316.3489191516742" cy="748.3837168977295" r="4.2" fill="#248b8c" stroke="#1a1a1a" stroke-width="0.6" fill-opacity="0.9" />
<circle cx="316.3489191516742" cy="797.4508560066349" r="4.2" fill="#2e728c" stroke="#1a1a1a" stroke-width="0.6" fill-opacity="0.9" />
<circle cx="272.31705997108764" cy="800.4647552936767" r="4.2" fill="#375a8b" stroke="#1a1a1a" stroke-width="0.6" fill-opacity="0.9" />
<circle cx="272.31705997108764" cy="776.482191469596" r="4.2" fill="#33678b" stroke="#1a1a1a" stroke-width="0.6" fill-opacity="0.9" />
<circle cx="391.70309465164814" cy="842.2627687787065" r="4.2" fill="#27828c" stroke="#1a1a1a" stroke-width="0.6" fill-opacity="0.9" />
<circle cx="391.70309465164814" cy="831.1965467573544" r="4.2" fill="#25878c" stroke="#1a1a1a" stroke-width="0.6" fill-opacity="0.9" />
<circle cx="292.2603656276787" cy="810.5355263622997" r="4.2" fill="#355f8b" stroke="#1a1a1a" stroke-width="0.6" fill-opacity="0.9" />
<circle cx="292.2603656276787" cy="795.7010537842352" r="4.2" fill="#32678b" stroke="#1a1a1a" stroke-width="0.6" fill-opacity="0.9" />
<circle cx="312.8623561595849" cy="722.2736794293548" r="4.2" fill="#269688" stroke="#1a1a1a" stroke-width="0.6" fill-opacity="0.9" />
<circle cx="312.8623561595849" cy="685.4733695207418" r="4.2" fill="#38a67c" stroke="#1a1a1a" stroke-width="0.6" fill-opacity="0.9" />
<circle cx="361.6162831022705" cy="661.1134391800208" r="4.2" fill="#5cc764" stroke="#1a1a1a" stroke-width="0.6" fill-opacity="0.9" />
<circle cx="361.6162831022705" cy="799.0817665075909" r="4.2" fill="#25888c" stroke="#1a1a1a" stroke-width="0.6" fill-opacity="0.9" />
<circle cx="309.5352447063233" cy="726.9808512580261" r="4.2" fill="#22928b" stroke="#1a1a1a" stroke-width="0.6" fill-opacity="0.9" />
<circle cx="309.5352447063233" cy="745.8915175720683" r="4.2" fill="#24898c" stroke="#1a1a1a" stroke-width="0.6" fill-opacity="0.9" />
<circle cx="333.517808530404" cy="740.274785586652" r="4.2" fill="#279788" stroke="#1a1a1a" stroke-width="0.6" fill-opacity="0.9" />
<circle cx="333.517808530404" cy="890.0" r="4.2" fill="#411e68" stroke="#1a1a1a" stroke-width="0.6" fill-opacity="0.9" />
<circle cx="267.7372312212935" cy="886.6296827924575" r="4.2" fill="#40226a" stroke="#1a1a1a" stroke-width="0.6" fill-opacity="0.9" />
<circle cx="267.7372312212935" cy="810.0422893395656" r="4.2" fill="#3a538b" stroke="#1a1a1a" stroke-width="0.6" fill-opacity="0.9" />
<circle cx="278.80345324264556" cy="767.8690003280497" r="4.2" fill="#2f6e8b" stroke="#1a1a1a" stroke-width="0.6" fill-opacity="0.9" />
<circle cx="278.80345324264556" cy="890.0" r="4.2" fill="#430859" stroke="#1a1a1a" stroke-width="0.6" fill-opacity="0.9" />
<circle cx="387.72632057064516" cy="794.7126171899108" r="4.2" fill="#279788" stroke="#1a1a1a" stroke-width="0.6" fill-opacity="0.9" />
<circle cx="387.72632057064516" cy="780.6910723453477" r="4.2" fill="#2e9d83" stroke="#1a1a1a" stroke-width="0.6" fill-opacity="0.9" />
<circle cx="424.5266304792582" cy="748.0970808570798" r="4.2" fill="#50bc6c" stroke="#1a1a1a" stroke-width="0.6" fill-opacity="0.9" />
<circle cx="424.5266304792582" cy="813.8258925616921" r="4.2" fill="#309f82" stroke="#1a1a1a" stroke-width="0.6" fill-opacity="0.9" />
<circle cx="223.3703172075425" cy="764.9095258918055" r="4.2" fill="#3a548b" stroke="#1a1a1a" stroke-width="0.6" fill-opacity="0.9" />
<circle cx="223.3703172075425" cy="738.3698492456888" r="4.2" fill="#35618b" stroke="#1a1a1a" stroke-width="0.6" fill-opacity="0.9" />
<circle cx="299.9577106604344" cy="849.5695542142241" r="4.2" fill="#3b4f89" stroke="#1a1a1a" stroke-width="0.6" fill-opacity="0.9" />
<circle cx="299.9577106604344" cy="770.0804313558826" r="4.2" fill="#2b788c" stroke="#1a1a1a" stroke-width="0.6" fill-opacity="0.9" />
<circle cx="260.4304457857759" cy="780.5743458097293" r="4.2" fill="#365f8b" stroke="#1a1a1a" stroke-width="0.6" fill-opacity="0.9" />
<circle cx="260.4304457857759" cy="785.5100813764018" r="4.2" fill="#375c8b" stroke="#1a1a1a" stroke-width="0.6" fill-opacity="0.9" />
<circle cx="339.9195686441174" cy="712.6443751335775" r="4.2" fill="#38a67c" stroke="#1a1a1a" stroke-width="0.6" fill-opacity="0.9" />
<circle cx="339.9195686441174" cy="795.6529773854958" r="4.2" fill="#287f8c" stroke="#1a1a1a" stroke-width="0.6" fill-opacity="0.9" />
<circle cx="324.4899186235982" cy="694.2483574819855" r="4.2" fill="#3aa87b" stroke="#1a1a1a" stroke-width="0.6" fill-opacity="0.9" />
<circle cx="324.4899186235982" cy="735.4372056691813" r="4.2" fill="#259589" stroke="#1a1a1a" stroke-width="0.6" fill-opacity="0.9" />
<circle cx="397.35562486642254" cy="795.07062639093" r="4.2" fill="#2c9b85" stroke="#1a1a1a" stroke-width="0.6" fill-opacity="0.9" />
<circle cx="397.35562486642254" cy="745.7545696505803" r="4.2" fill="#44b174" stroke="#1a1a1a" stroke-width="0.6" fill-opacity="0.9" />
<circle cx="314.92937360907" cy="840.1510305682255" r="4.2" fill="#375c8b" stroke="#1a1a1a" stroke-width="0.6" fill-opacity="0.9" />
<circle cx="314.92937360907" cy="745.6594563867975" r="4.2" fill="#238c8c" stroke="#1a1a1a" stroke-width="0.6" fill-opacity="0.9" />
<text x="345.0" y="932" font-size="22" font-family="Helvetica" text-anchor="middle" fill="#1a1a1a">parent branch rate</text>
<text x="194.0" y="765.0" font-size="22" font-family="Helvetica" text-anchor="middle" fill="#1a1a1a" transform="rotate(-90,194.0,765.0)">child branch rate</text>
<text x="220.0" y="910" font-size="22" font-family="Helvetica" text-anchor="start" fill="#8a8a8a">1/3</text>
<text x="212.0" y="894.0" font-size="22" font-family="Helvetica" text-anchor="end" fill="#8a8a8a">1/3</text>
<text x="345.0" y="910" font-size="22" font-family="Helvetica" text-anchor="middle" fill="#8a8a8a">1</text>
<text x="212.0" y="769.0" font-size="22" font-family="Helvetica" text-anchor="end" fill="#8a8a8a">1</text>
<text x="470.0" y="910" font-size="22" font-family="Helvetica" text-anchor="end" fill="#8a8a8a">3</text>
<text x="212.0" y="644.0" font-size="22" font-family="Helvetica" text-anchor="end" fill="#8a8a8a">3</text>
<text x="345.0" y="628" font-size="22" font-family="Helvetica" text-anchor="middle" font-weight="bold" fill="#1a1a1a">correlation r = -0.17</text>
<rect x="830.0" y="640" width="250" height="250" fill="white" stroke="#8a8a8a" stroke-width="1.0" />
<path d="M830.0,890.0 L1080.0,640.0" stroke="#8a8a8a" stroke-width="1.2" stroke-dasharray="4,4" />
<path d="M955.0,640 L955.0,890" stroke="#e2e2e2" stroke-width="1.0" />
<path d="M830.0,765.0 L1080.0,765.0" stroke="#e2e2e2" stroke-width="1.0" />
<circle cx="947.1821891025818" cy="777.6925497045179" r="4.2" fill="#25878c" stroke="#1a1a1a" stroke-width="0.6" fill-opacity="0.9" />
<circle cx="947.1821891025818" cy="850.6153945270065" r="4.2" fill="#34628b" stroke="#1a1a1a" stroke-width="0.6" fill-opacity="0.9" />
<circle cx="959.7256220463453" cy="803.4162505559269" r="4.2" fill="#28808c" stroke="#1a1a1a" stroke-width="0.6" fill-opacity="0.9" />
<circle cx="959.7256220463453" cy="818.1278001373248" r="4.2" fill="#2b798c" stroke="#1a1a1a" stroke-width="0.6" fill-opacity="0.9" />
<circle cx="942.3074502954821" cy="741.7505440765475" r="4.2" fill="#269688" stroke="#1a1a1a" stroke-width="0.6" fill-opacity="0.9" />
<circle cx="942.3074502954821" cy="769.5600691704778" r="4.2" fill="#25888c" stroke="#1a1a1a" stroke-width="0.6" fill-opacity="0.9" />
<circle cx="869.3846054729935" cy="841.4662236759925" r="4.2" fill="#3e3a7b" stroke="#1a1a1a" stroke-width="0.6" fill-opacity="0.9" />
<circle cx="869.3846054729935" cy="842.5511323057534" r="4.2" fill="#3e397a" stroke="#1a1a1a" stroke-width="0.6" fill-opacity="0.9" />
<circle cx="916.5837494440731" cy="778.2057673533864" r="4.2" fill="#2c778c" stroke="#1a1a1a" stroke-width="0.6" fill-opacity="0.9" />
<circle cx="916.5837494440731" cy="776.0292883744999" r="4.2" fill="#2b788c" stroke="#1a1a1a" stroke-width="0.6" fill-opacity="0.9" />
<circle cx="901.8721998626752" cy="829.7808393572634" r="4.2" fill="#3a568b" stroke="#1a1a1a" stroke-width="0.6" fill-opacity="0.9" />
<circle cx="901.8721998626752" cy="847.9353704479096" r="4.2" fill="#3c4b86" stroke="#1a1a1a" stroke-width="0.6" fill-opacity="0.9" />
<circle cx="978.2494559234525" cy="712.2391715833651" r="4.2" fill="#46b372" stroke="#1a1a1a" stroke-width="0.6" fill-opacity="0.9" />
<circle cx="978.2494559234525" cy="773.0922668716388" r="4.2" fill="#289887" stroke="#1a1a1a" stroke-width="0.6" fill-opacity="0.9" />
<circle cx="877.4488676942466" cy="817.2306142695825" r="4.2" fill="#3b4f89" stroke="#1a1a1a" stroke-width="0.6" fill-opacity="0.9" />
<circle cx="877.4488676942466" cy="837.4626051484835" r="4.2" fill="#3d4280" stroke="#1a1a1a" stroke-width="0.6" fill-opacity="0.9" />
<circle cx="941.7942326466136" cy="880.8378377562311" r="4.2" fill="#3b4f89" stroke="#1a1a1a" stroke-width="0.6" fill-opacity="0.9" />
<circle cx="941.7942326466136" cy="744.9037236465401" r="4.2" fill="#24948a" stroke="#1a1a1a" stroke-width="0.6" fill-opacity="0.9" />
<circle cx="943.9707116255001" cy="817.7487451618698" r="4.2" fill="#2e718b" stroke="#1a1a1a" stroke-width="0.6" fill-opacity="0.9" />
<circle cx="943.9707116255001" cy="736.0559998940612" r="4.2" fill="#2a9986" stroke="#1a1a1a" stroke-width="0.6" fill-opacity="0.9" />
<circle cx="890.2191606427366" cy="825.8354732305893" r="4.2" fill="#3b528b" stroke="#1a1a1a" stroke-width="0.6" fill-opacity="0.9" />
<circle cx="890.2191606427366" cy="824.9574825358735" r="4.2" fill="#3b528b" stroke="#1a1a1a" stroke-width="0.6" fill-opacity="0.9" />
<circle cx="872.0646295520904" cy="874.9041620312582" r="4.2" fill="#40266d" stroke="#1a1a1a" stroke-width="0.6" fill-opacity="0.9" />
<circle cx="872.0646295520904" cy="816.0753453260995" r="4.2" fill="#3c4c87" stroke="#1a1a1a" stroke-width="0.6" fill-opacity="0.9" />
<circle cx="1007.7608284166349" cy="749.7612398995927" r="4.2" fill="#42af75" stroke="#1a1a1a" stroke-width="0.6" fill-opacity="0.9" />
<circle cx="1007.7608284166349" cy="712.3581173342633" r="4.2" fill="#54c069" stroke="#1a1a1a" stroke-width="0.6" fill-opacity="0.9" />
<circle cx="975.0962763534599" cy="755.5357891613223" r="4.2" fill="#2f9e82" stroke="#1a1a1a" stroke-width="0.6" fill-opacity="0.9" />
<circle cx="975.0962763534599" cy="757.7953932729215" r="4.2" fill="#2e9d83" stroke="#1a1a1a" stroke-width="0.6" fill-opacity="0.9" />
<circle cx="902.2512548381302" cy="817.8910846580525" r="4.2" fill="#375c8b" stroke="#1a1a1a" stroke-width="0.6" fill-opacity="0.9" />
<circle cx="902.2512548381302" cy="858.9614123774044" r="4.2" fill="#3d4481" stroke="#1a1a1a" stroke-width="0.6" fill-opacity="0.9" />
<circle cx="894.1645267694107" cy="884.8792281296717" r="4.2" fill="#3f2e72" stroke="#1a1a1a" stroke-width="0.6" fill-opacity="0.9" />
<circle cx="894.1645267694107" cy="786.6438956251319" r="4.2" fill="#32678b" stroke="#1a1a1a" stroke-width="0.6" fill-opacity="0.9" />
<circle cx="895.0425174641265" cy="789.9862288053898" r="4.2" fill="#33668b" stroke="#1a1a1a" stroke-width="0.6" fill-opacity="0.9" />
<circle cx="895.0425174641265" cy="791.6420219430152" r="4.2" fill="#33658b" stroke="#1a1a1a" stroke-width="0.6" fill-opacity="0.9" />
<circle cx="845.0958379687418" cy="880.3561241171543" r="4.2" fill="#42115f" stroke="#1a1a1a" stroke-width="0.6" fill-opacity="0.9" />
<circle cx="845.0958379687418" cy="877.8527889138502" r="4.2" fill="#421360" stroke="#1a1a1a" stroke-width="0.6" fill-opacity="0.9" />
<circle cx="903.9246546739005" cy="844.4609485841452" r="4.2" fill="#3b4e89" stroke="#1a1a1a" stroke-width="0.6" fill-opacity="0.9" />
<circle cx="903.9246546739005" cy="786.4936216576072" r="4.2" fill="#306c8b" stroke="#1a1a1a" stroke-width="0.6" fill-opacity="0.9" />
<circle cx="964.4642108386777" cy="782.2205956327298" r="4.2" fill="#238d8c" stroke="#1a1a1a" stroke-width="0.6" fill-opacity="0.9" />
<circle cx="964.4642108386777" cy="775.4221319222466" r="4.2" fill="#21918c" stroke="#1a1a1a" stroke-width="0.6" fill-opacity="0.9" />
<circle cx="962.2046067270785" cy="742.6411948044519" r="4.2" fill="#2f9e82" stroke="#1a1a1a" stroke-width="0.6" fill-opacity="0.9" />
<circle cx="962.2046067270785" cy="762.1822927011989" r="4.2" fill="#269589" stroke="#1a1a1a" stroke-width="0.6" fill-opacity="0.9" />
<circle cx="839.6438758828457" cy="867.4591136044443" r="4.2" fill="#421662" stroke="#1a1a1a" stroke-width="0.6" fill-opacity="0.9" />
<circle cx="839.6438758828457" cy="865.6829622920952" r="4.2" fill="#421763" stroke="#1a1a1a" stroke-width="0.6" fill-opacity="0.9" />
<circle cx="842.1472110861498" cy="890.0" r="4.2" fill="#440557" stroke="#1a1a1a" stroke-width="0.6" fill-opacity="0.9" />
<circle cx="842.1472110861498" cy="855.1426667188643" r="4.2" fill="#411f69" stroke="#1a1a1a" stroke-width="0.6" fill-opacity="0.9" />
<circle cx="830.0" cy="890.0" r="4.2" fill="#440154" stroke="#1a1a1a" stroke-width="0.6" fill-opacity="0.9" />
<circle cx="830.0" cy="890.0" r="4.2" fill="#440154" stroke="#1a1a1a" stroke-width="0.6" fill-opacity="0.9" />
<circle cx="864.8573332811357" cy="867.3190797667922" r="4.2" fill="#40266d" stroke="#1a1a1a" stroke-width="0.6" fill-opacity="0.9" />
<circle cx="864.8573332811357" cy="854.7481976598854" r="4.2" fill="#3f2e73" stroke="#1a1a1a" stroke-width="0.6" fill-opacity="0.9" />
<circle cx="830.0" cy="890.0" r="4.2" fill="#440154" stroke="#1a1a1a" stroke-width="0.6" fill-opacity="0.9" />
<circle cx="830.0" cy="890.0" r="4.2" fill="#440154" stroke="#1a1a1a" stroke-width="0.6" fill-opacity="0.9" />
<circle cx="852.6809202332078" cy="872.1365543426373" r="4.2" fill="#411b66" stroke="#1a1a1a" stroke-width="0.6" fill-opacity="0.9" />
<circle cx="852.6809202332078" cy="873.6940920985458" r="4.2" fill="#411a65" stroke="#1a1a1a" stroke-width="0.6" fill-opacity="0.9" />
<circle cx="847.8634456573627" cy="870.0512471244411" r="4.2" fill="#411a65" stroke="#1a1a1a" stroke-width="0.6" fill-opacity="0.9" />
<circle cx="847.8634456573627" cy="876.47050277126" r="4.2" fill="#421562" stroke="#1a1a1a" stroke-width="0.6" fill-opacity="0.9" />
<text x="955.0" y="932" font-size="22" font-family="Helvetica" text-anchor="middle" fill="#1a1a1a">parent branch rate</text>
<text x="804.0" y="765.0" font-size="22" font-family="Helvetica" text-anchor="middle" fill="#1a1a1a" transform="rotate(-90,804.0,765.0)">child branch rate</text>
<text x="830.0" y="910" font-size="22" font-family="Helvetica" text-anchor="start" fill="#8a8a8a">1/3</text>
<text x="822.0" y="894.0" font-size="22" font-family="Helvetica" text-anchor="end" fill="#8a8a8a">1/3</text>
<text x="955.0" y="910" font-size="22" font-family="Helvetica" text-anchor="middle" fill="#8a8a8a">1</text>
<text x="822.0" y="769.0" font-size="22" font-family="Helvetica" text-anchor="end" fill="#8a8a8a">1</text>
<text x="1080.0" y="910" font-size="22" font-family="Helvetica" text-anchor="end" fill="#8a8a8a">3</text>
<text x="822.0" y="644.0" font-size="22" font-family="Helvetica" text-anchor="end" fill="#8a8a8a">3</text>
<text x="955.0" y="628" font-size="22" font-family="Helvetica" text-anchor="middle" font-weight="bold" fill="#1a1a1a">correlation r = +0.84</text>
</svg>