<?xml version="1.0" encoding="UTF-8"?>
<svg xmlns="http://www.w3.org/2000/svg" xmlns:xlink="http://www.w3.org/1999/xlink"
     width="1180" height="640" viewBox="0 0 1180 640">
<defs>
</defs>
<rect x="0" y="0" width="1180" height="640" fill="white" />
<text x="590.0" y="48" font-size="32" font-family="Helvetica" text-anchor="middle" font-weight="bold" fill="#1a1a1a">A null keeps the tree's variation -- it cuts only the trait's grip on it</text>
<text x="68" y="104" font-size="22" font-family="Helvetica" text-anchor="start" fill="#1a1a1a" font-weight="bold">A</text>
<text x="180" y="104" font-size="22" font-family="Helvetica" text-anchor="middle" fill="#1a1a1a" font-weight="bold">COUPLED</text>
<path d="M75,250 L110,250" stroke="#1a1a1a" stroke-width="2.8" stroke-linecap="round" />
<path d="M110,150 L110,315" stroke="#1a1a1a" stroke-width="2.8" stroke-linecap="round" />
<path d="M110,150 L178,150" stroke="#1a1a1a" stroke-width="4.4" stroke-linecap="round" />
<path d="M178,100 L178,200" stroke="#1a1a1a" stroke-width="4.4" stroke-linecap="round" />
<path d="M178,100 L265,100" stroke="#1a1a1a" stroke-width="4.4" stroke-linecap="round" />
<path d="M178,120 L265,120" stroke="#1a1a1a" stroke-width="4.4" stroke-linecap="round" />
<path d="M178,140 L265,140" stroke="#1a1a1a" stroke-width="4.4" stroke-linecap="round" />
<path d="M178,160 L265,160" stroke="#1a1a1a" stroke-width="4.4" stroke-linecap="round" />
<path d="M178,180 L265,180" stroke="#1a1a1a" stroke-width="4.4" stroke-linecap="round" />
<path d="M178,200 L265,200" stroke="#1a1a1a" stroke-width="4.4" stroke-linecap="round" />
<path d="M110,315 L165,315" stroke="#1a1a1a" stroke-width="2.2" stroke-linecap="round" />
<path d="M165,290 L165,340" stroke="#1a1a1a" stroke-width="2.2" stroke-linecap="round" />
<path d="M165,290 L265,290" stroke="#1a1a1a" stroke-width="2.2" stroke-linecap="round" />
<path d="M165,315 L265,315" stroke="#1a1a1a" stroke-width="2.2" stroke-linecap="round" />
<path d="M165,340 L265,340" stroke="#1a1a1a" stroke-width="2.2" stroke-linecap="round" />
<rect x="265" y="89" width="22" height="22" fill="#2f7d84" stroke="#1a1a1a" stroke-width="1.6" />
<rect x="265" y="109" width="22" height="22" fill="#2f7d84" stroke="#1a1a1a" stroke-width="1.6" />
<rect x="265" y="129" width="22" height="22" fill="#2f7d84" stroke="#1a1a1a" stroke-width="1.6" />
<rect x="265" y="149" width="22" height="22" fill="#2f7d84" stroke="#1a1a1a" stroke-width="1.6" />
<rect x="265" y="169" width="22" height="22" fill="#2f7d84" stroke="#1a1a1a" stroke-width="1.6" />
<rect x="265" y="189" width="22" height="22" fill="#2f7d84" stroke="#1a1a1a" stroke-width="1.6" />
<rect x="265" y="279" width="22" height="22" fill="white" stroke="#1a1a1a" stroke-width="1.6" />
<rect x="265" y="304" width="22" height="22" fill="white" stroke="#1a1a1a" stroke-width="1.6" />
<rect x="265" y="329" width="22" height="22" fill="white" stroke="#1a1a1a" stroke-width="1.6" />
<text x="180" y="402" font-size="22" font-family="Helvetica" text-anchor="middle" fill="#1a1a1a" font-style="italic">trait fills the fast clade</text>
<text x="180" y="430" font-size="22" font-family="Helvetica" text-anchor="middle" fill="#8a8a8a">the claim: looks causal</text>
<text x="468" y="104" font-size="22" font-family="Helvetica" text-anchor="start" fill="#1a1a1a" font-weight="bold">B</text>
<text x="580" y="104" font-size="22" font-family="Helvetica" text-anchor="middle" fill="#1a1a1a" font-weight="bold">NEUTRAL null</text>
<path d="M475,222 L510,222" stroke="#1a1a1a" stroke-width="2.8" stroke-linecap="round" />
<path d="M510,165 L510,278" stroke="#1a1a1a" stroke-width="2.8" stroke-linecap="round" />
<path d="M510,165 L568,165" stroke="#1a1a1a" stroke-width="2.8" stroke-linecap="round" />
<path d="M568,118 L568,210" stroke="#1a1a1a" stroke-width="2.8" stroke-linecap="round" />
<path d="M568,118 L665,118" stroke="#1a1a1a" stroke-width="2.8" stroke-linecap="round" />
<path d="M568,148 L665,148" stroke="#1a1a1a" stroke-width="2.8" stroke-linecap="round" />
<path d="M568,178 L665,178" stroke="#1a1a1a" stroke-width="2.8" stroke-linecap="round" />
<path d="M568,210 L665,210" stroke="#1a1a1a" stroke-width="2.8" stroke-linecap="round" />
<path d="M510,278 L568,278" stroke="#1a1a1a" stroke-width="2.8" stroke-linecap="round" />
<path d="M568,235 L568,325" stroke="#1a1a1a" stroke-width="2.8" stroke-linecap="round" />
<path d="M568,235 L665,235" stroke="#1a1a1a" stroke-width="2.8" stroke-linecap="round" />
<path d="M568,265 L665,265" stroke="#1a1a1a" stroke-width="2.8" stroke-linecap="round" />
<path d="M568,295 L665,295" stroke="#1a1a1a" stroke-width="2.8" stroke-linecap="round" />
<path d="M568,325 L665,325" stroke="#1a1a1a" stroke-width="2.8" stroke-linecap="round" />
<rect x="665" y="107" width="22" height="22" fill="#2f7d84" stroke="#1a1a1a" stroke-width="1.6" />
<rect x="665" y="137" width="22" height="22" fill="white" stroke="#1a1a1a" stroke-width="1.6" />
<rect x="665" y="167" width="22" height="22" fill="#2f7d84" stroke="#1a1a1a" stroke-width="1.6" />
<rect x="665" y="199" width="22" height="22" fill="white" stroke="#1a1a1a" stroke-width="1.6" />
<rect x="665" y="224" width="22" height="22" fill="white" stroke="#1a1a1a" stroke-width="1.6" />
<rect x="665" y="254" width="22" height="22" fill="#2f7d84" stroke="#1a1a1a" stroke-width="1.6" />
<rect x="665" y="284" width="22" height="22" fill="white" stroke="#1a1a1a" stroke-width="1.6" />
<rect x="665" y="314" width="22" height="22" fill="#2f7d84" stroke="#1a1a1a" stroke-width="1.6" />
<text x="580" y="402" font-size="22" font-family="Helvetica" text-anchor="middle" fill="#1a1a1a" font-style="italic">no fast clade at all</text>
<text x="580" y="430" font-size="22" font-family="Helvetica" text-anchor="middle" fill="#8a8a8a">the strawman: nothing to explain</text>
<text x="868" y="104" font-size="22" font-family="Helvetica" text-anchor="start" fill="#1a1a1a" font-weight="bold">C</text>
<text x="980" y="104" font-size="22" font-family="Helvetica" text-anchor="middle" fill="#1a1a1a" font-weight="bold">CID null</text>
<path d="M875,250 L910,250" stroke="#1a1a1a" stroke-width="2.8" stroke-linecap="round" />
<path d="M910,150 L910,315" stroke="#1a1a1a" stroke-width="2.8" stroke-linecap="round" />
<path d="M910,150 L978,150" stroke="#1a1a1a" stroke-width="4.4" stroke-linecap="round" />
<path d="M978,100 L978,200" stroke="#1a1a1a" stroke-width="4.4" stroke-linecap="round" />
<path d="M978,100 L1065,100" stroke="#1a1a1a" stroke-width="4.4" stroke-linecap="round" />
<path d="M978,120 L1065,120" stroke="#1a1a1a" stroke-width="4.4" stroke-linecap="round" />
<path d="M978,140 L1065,140" stroke="#1a1a1a" stroke-width="4.4" stroke-linecap="round" />
<path d="M978,160 L1065,160" stroke="#1a1a1a" stroke-width="4.4" stroke-linecap="round" />
<path d="M978,180 L1065,180" stroke="#1a1a1a" stroke-width="4.4" stroke-linecap="round" />
<path d="M978,200 L1065,200" stroke="#1a1a1a" stroke-width="4.4" stroke-linecap="round" />
<path d="M910,315 L965,315" stroke="#1a1a1a" stroke-width="2.2" stroke-linecap="round" />
<path d="M965,290 L965,340" stroke="#1a1a1a" stroke-width="2.2" stroke-linecap="round" />
<path d="M965,290 L1065,290" stroke="#1a1a1a" stroke-width="2.2" stroke-linecap="round" />
<path d="M965,315 L1065,315" stroke="#1a1a1a" stroke-width="2.2" stroke-linecap="round" />
<path d="M965,340 L1065,340" stroke="#1a1a1a" stroke-width="2.2" stroke-linecap="round" />
<rect x="1065" y="89" width="22" height="22" fill="#2f7d84" stroke="#1a1a1a" stroke-width="1.6" />
<rect x="1065" y="109" width="22" height="22" fill="white" stroke="#1a1a1a" stroke-width="1.6" />
<rect x="1065" y="129" width="22" height="22" fill="#2f7d84" stroke="#1a1a1a" stroke-width="1.6" />
<rect x="1065" y="149" width="22" height="22" fill="white" stroke="#1a1a1a" stroke-width="1.6" />
<rect x="1065" y="169" width="22" height="22" fill="#2f7d84" stroke="#1a1a1a" stroke-width="1.6" />
<rect x="1065" y="189" width="22" height="22" fill="white" stroke="#1a1a1a" stroke-width="1.6" />
<rect x="1065" y="279" width="22" height="22" fill="white" stroke="#1a1a1a" stroke-width="1.6" />
<rect x="1065" y="304" width="22" height="22" fill="#2f7d84" stroke="#1a1a1a" stroke-width="1.6" />
<rect x="1065" y="329" width="22" height="22" fill="white" stroke="#1a1a1a" stroke-width="1.6" />
<text x="980" y="402" font-size="22" font-family="Helvetica" text-anchor="middle" fill="#1a1a1a" font-style="italic">same fast clade, trait scattered</text>
<text x="980" y="430" font-size="22" font-family="Helvetica" text-anchor="middle" fill="#8a8a8a">the honest, worthy opponent</text>
<rect x="120.0" y="476" width="18" height="18" fill="#2f7d84" stroke="#1a1a1a" stroke-width="1.6" />
<text x="146.0" y="491" font-size="22" font-family="Helvetica" text-anchor="start" fill="#1a1a1a">trait present</text>
<rect x="340.0" y="476" width="18" height="18" fill="white" stroke="#1a1a1a" stroke-width="1.6" />
<text x="366.0" y="491" font-size="22" font-family="Helvetica" text-anchor="start" fill="#1a1a1a">trait absent</text>
<path d="M550.0,485 L582.0,485" stroke="#1a1a1a" stroke-width="4.4" stroke-linecap="round" />
<text x="594.0" y="491" font-size="22" font-family="Helvetica" text-anchor="start" fill="#1a1a1a">fast-diversifying (bushy) clade</text>
<text x="590.0" y="548" font-size="22" font-family="Helvetica" text-anchor="middle" fill="#8a8a8a">Panels A and C are the same tree: identical heterogeneity -- the only difference is whether the trait tracks it.</text>
</svg>