<?xml version="1.0" encoding="UTF-8"?>
<svg xmlns="http://www.w3.org/2000/svg" xmlns:xlink="http://www.w3.org/1999/xlink"
     width="1210" height="720" viewBox="0 0 1210 720">
<defs>
</defs>
<rect x="0" y="0" width="1210" height="720" fill="white" />
<text x="605.0" y="52" font-size="32" font-family="Helvetica" text-anchor="middle" font-weight="bold" fill="#1a1a1a">The DEC model of geographic-range evolution</text>
<text x="60" y="150" font-size="22" font-family="Helvetica" text-anchor="start" font-weight="bold" fill="#1a1a1a">A   along a branch: dispersal &amp; extinction</text>
<path d="M170.0,560.0 L170.0,440.0" stroke="#b7b7b7" stroke-width="1.8" />
<path d="M170.0,440.0 L173.46596385100634,447.76125599265464 L166.53403614899366,447.76125599265464 Z" fill="#2f8f4e" />
<path d="M170.0,560.0 L166.53403614899366,552.2387440073454 L173.46596385100634,552.2387440073454 Z" fill="#cc4b3c" />
<path d="M184.14213562373095,565.857864376269 L315.85786437626905,434.14213562373095" stroke="#b7b7b7" stroke-width="1.8" />
<path d="M315.85786437626905,434.14213562373095 L312.82063417573227,442.0809789090558 L307.9190210909442,437.17936582426773 Z" fill="#2f8f4e" />
<path d="M184.14213562373095,565.857864376269 L187.17936582426773,557.9190210909442 L192.0809789090558,562.8206341757323 Z" fill="#cc4b3c" />
<path d="M315.85786437626905,565.857864376269 L184.14213562373095,434.14213562373095" stroke="#b7b7b7" stroke-width="1.8" />
<path d="M184.14213562373095,434.14213562373095 L192.0809789090558,437.17936582426773 L187.17936582426773,442.0809789090558 Z" fill="#2f8f4e" />
<path d="M315.85786437626905,565.857864376269 L307.9190210909442,562.8206341757323 L312.82063417573227,557.9190210909442 Z" fill="#cc4b3c" />
<path d="M344.14213562373095,565.857864376269 L475.85786437626905,434.14213562373095" stroke="#b7b7b7" stroke-width="1.8" />
<path d="M475.85786437626905,434.14213562373095 L472.82063417573227,442.0809789090558 L467.9190210909442,437.17936582426773 Z" fill="#2f8f4e" />
<path d="M344.14213562373095,565.857864376269 L347.17936582426773,557.9190210909442 L352.0809789090558,562.8206341757323 Z" fill="#cc4b3c" />
<path d="M475.85786437626905,565.857864376269 L344.14213562373095,434.14213562373095" stroke="#b7b7b7" stroke-width="1.8" />
<path d="M344.14213562373095,434.14213562373095 L352.0809789090558,437.17936582426773 L347.17936582426773,442.0809789090558 Z" fill="#2f8f4e" />
<path d="M475.85786437626905,565.857864376269 L467.9190210909442,562.8206341757323 L472.82063417573227,557.9190210909442 Z" fill="#cc4b3c" />
<path d="M490.0,560.0 L490.0,440.0" stroke="#b7b7b7" stroke-width="1.8" />
<path d="M490.0,440.0 L493.46596385100634,447.76125599265464 L486.53403614899366,447.76125599265464 Z" fill="#2f8f4e" />
<path d="M490.0,560.0 L486.53403614899366,552.2387440073454 L493.46596385100634,552.2387440073454 Z" fill="#cc4b3c" />
<path d="M184.14213562373095,405.85786437626905 L315.85786437626905,274.14213562373095" stroke="#b7b7b7" stroke-width="1.8" />
<path d="M315.85786437626905,274.14213562373095 L312.82063417573227,282.0809789090558 L307.9190210909442,277.17936582426773 Z" fill="#2f8f4e" />
<path d="M184.14213562373095,405.85786437626905 L187.17936582426773,397.9190210909442 L192.0809789090558,402.82063417573227 Z" fill="#cc4b3c" />
<path d="M330.0,400.0 L330.0,280.0" stroke="#b7b7b7" stroke-width="1.8" />
<path d="M330.0,280.0 L333.46596385100634,287.76125599265464 L326.53403614899366,287.76125599265464 Z" fill="#2f8f4e" />
<path d="M330.0,400.0 L326.53403614899366,392.23874400734536 L333.46596385100634,392.23874400734536 Z" fill="#cc4b3c" />
<path d="M475.85786437626905,405.85786437626905 L344.14213562373095,274.14213562373095" stroke="#b7b7b7" stroke-width="1.8" />
<path d="M344.14213562373095,274.14213562373095 L352.0809789090558,277.17936582426773 L347.17936582426773,282.0809789090558 Z" fill="#2f8f4e" />
<path d="M475.85786437626905,405.85786437626905 L467.9190210909442,402.82063417573227 L472.82063417573227,397.9190210909442 Z" fill="#cc4b3c" />
<rect x="157.0" y="567.0" width="26" height="26" fill="#4477AA" stroke="#1a1a1a" stroke-width="1.3" />
<text x="170.0" y="585.1" font-size="15" font-family="Helvetica" text-anchor="middle" fill="white" font-weight="bold">A</text>
<rect x="157.0" y="567.0" width="26" height="26" fill="none" stroke="#1a1a1a" stroke-width="1.3" />
<rect x="317.0" y="567.0" width="26" height="26" fill="#EE6677" stroke="#1a1a1a" stroke-width="1.3" />
<text x="330.0" y="585.1" font-size="15" font-family="Helvetica" text-anchor="middle" fill="white" font-weight="bold">B</text>
<rect x="317.0" y="567.0" width="26" height="26" fill="none" stroke="#1a1a1a" stroke-width="1.3" />
<rect x="477.0" y="567.0" width="26" height="26" fill="#228833" stroke="#1a1a1a" stroke-width="1.3" />
<text x="490.0" y="585.1" font-size="15" font-family="Helvetica" text-anchor="middle" fill="white" font-weight="bold">C</text>
<rect x="477.0" y="567.0" width="26" height="26" fill="none" stroke="#1a1a1a" stroke-width="1.3" />
<rect x="144.0" y="407.0" width="26" height="26" fill="#4477AA" stroke="#1a1a1a" stroke-width="1.3" />
<text x="157.0" y="425.1" font-size="15" font-family="Helvetica" text-anchor="middle" fill="white" font-weight="bold">A</text>
<rect x="170.0" y="407.0" width="26" height="26" fill="#EE6677" stroke="#1a1a1a" stroke-width="1.3" />
<text x="183.0" y="425.1" font-size="15" font-family="Helvetica" text-anchor="middle" fill="white" font-weight="bold">B</text>
<rect x="144.0" y="407.0" width="52" height="26" fill="none" stroke="#1a1a1a" stroke-width="1.3" />
<rect x="304.0" y="407.0" width="26" height="26" fill="#4477AA" stroke="#1a1a1a" stroke-width="1.3" />
<text x="317.0" y="425.1" font-size="15" font-family="Helvetica" text-anchor="middle" fill="white" font-weight="bold">A</text>
<rect x="330.0" y="407.0" width="26" height="26" fill="#228833" stroke="#1a1a1a" stroke-width="1.3" />
<text x="343.0" y="425.1" font-size="15" font-family="Helvetica" text-anchor="middle" fill="white" font-weight="bold">C</text>
<rect x="304.0" y="407.0" width="52" height="26" fill="none" stroke="#1a1a1a" stroke-width="1.3" />
<rect x="464.0" y="407.0" width="26" height="26" fill="#EE6677" stroke="#1a1a1a" stroke-width="1.3" />
<text x="477.0" y="425.1" font-size="15" font-family="Helvetica" text-anchor="middle" fill="white" font-weight="bold">B</text>
<rect x="490.0" y="407.0" width="26" height="26" fill="#228833" stroke="#1a1a1a" stroke-width="1.3" />
<text x="503.0" y="425.1" font-size="15" font-family="Helvetica" text-anchor="middle" fill="white" font-weight="bold">C</text>
<rect x="464.0" y="407.0" width="52" height="26" fill="none" stroke="#1a1a1a" stroke-width="1.3" />
<rect x="291.0" y="247.0" width="26" height="26" fill="#4477AA" stroke="#1a1a1a" stroke-width="1.3" />
<text x="304.0" y="265.1" font-size="15" font-family="Helvetica" text-anchor="middle" fill="white" font-weight="bold">A</text>
<rect x="317.0" y="247.0" width="26" height="26" fill="#EE6677" stroke="#1a1a1a" stroke-width="1.3" />
<text x="330.0" y="265.1" font-size="15" font-family="Helvetica" text-anchor="middle" fill="white" font-weight="bold">B</text>
<rect x="343.0" y="247.0" width="26" height="26" fill="#228833" stroke="#1a1a1a" stroke-width="1.3" />
<text x="356.0" y="265.1" font-size="15" font-family="Helvetica" text-anchor="middle" fill="white" font-weight="bold">C</text>
<rect x="291.0" y="247.0" width="78" height="26" fill="none" stroke="#1a1a1a" stroke-width="1.3" />
<path d="M60,648 L86,648" stroke="#b7b7b7" stroke-width="1.8" />
<path d="M86,648 L78.23874400734537,651.4659638510063 L78.23874400734537,644.5340361489937 Z" fill="#2f8f4e" />
<text x="96" y="648" font-size="22" font-family="Helvetica" text-anchor="start" dominant-baseline="central" fill="#1a1a1a">dispersal: gain an area (rate d)</text>
<path d="M60,678 L86,678" stroke="#b7b7b7" stroke-width="1.8" />
<path d="M60,678 L67.76125599265463,674.5340361489937 L67.76125599265463,681.4659638510063 Z" fill="#cc4b3c" />
<text x="96" y="678" font-size="22" font-family="Helvetica" text-anchor="start" dominant-baseline="central" fill="#1a1a1a">local extinction: lose an area (rate e)</text>
<path d="M670,130 L670,690" stroke="#e2e2e2" stroke-width="1.2" />
<text x="700" y="150" font-size="22" font-family="Helvetica" text-anchor="start" font-weight="bold" fill="#1a1a1a">B   at a speciation: cladogenesis</text>
<rect x="757.0" y="237.0" width="26" height="26" fill="#4477AA" stroke="#1a1a1a" stroke-width="1.3" />
<text x="770.0" y="255.1" font-size="15" font-family="Helvetica" text-anchor="middle" fill="white" font-weight="bold">A</text>
<rect x="757.0" y="237.0" width="26" height="26" fill="none" stroke="#1a1a1a" stroke-width="1.3" />
<path d="M770,263.0 L770,280" stroke="#1a1a1a" stroke-width="2" />
<path d="M704,280 L836,280" stroke="#1a1a1a" stroke-width="2" />
<path d="M704,280 L704,307.0" stroke="#1a1a1a" stroke-width="2" />
<path d="M836,280 L836,307.0" stroke="#1a1a1a" stroke-width="2" />
<rect x="691.0" y="307.0" width="26" height="26" fill="#4477AA" stroke="#1a1a1a" stroke-width="1.3" />
<text x="704.0" y="325.1" font-size="15" font-family="Helvetica" text-anchor="middle" fill="white" font-weight="bold">A</text>
<rect x="691.0" y="307.0" width="26" height="26" fill="none" stroke="#1a1a1a" stroke-width="1.3" />
<rect x="823.0" y="307.0" width="26" height="26" fill="#4477AA" stroke="#1a1a1a" stroke-width="1.3" />
<text x="836.0" y="325.1" font-size="15" font-family="Helvetica" text-anchor="middle" fill="white" font-weight="bold">A</text>
<rect x="823.0" y="307.0" width="26" height="26" fill="none" stroke="#1a1a1a" stroke-width="1.3" />
<text x="930" y="242" font-size="22" font-family="Helvetica" text-anchor="start" dominant-baseline="central" font-weight="bold" fill="#1a1a1a">Narrow sympatry</text>
<text x="930" y="266" font-size="22" font-family="Helvetica" text-anchor="start" dominant-baseline="central" fill="#8a8a8a">both daughters keep the range</text>
<rect x="744.0" y="417.0" width="26" height="26" fill="#4477AA" stroke="#1a1a1a" stroke-width="1.3" />
<text x="757.0" y="435.1" font-size="15" font-family="Helvetica" text-anchor="middle" fill="white" font-weight="bold">A</text>
<rect x="770.0" y="417.0" width="26" height="26" fill="#EE6677" stroke="#1a1a1a" stroke-width="1.3" />
<text x="783.0" y="435.1" font-size="15" font-family="Helvetica" text-anchor="middle" fill="white" font-weight="bold">B</text>
<rect x="744.0" y="417.0" width="52" height="26" fill="none" stroke="#1a1a1a" stroke-width="1.3" />
<path d="M770,443.0 L770,460" stroke="#1a1a1a" stroke-width="2" />
<path d="M704,460 L836,460" stroke="#1a1a1a" stroke-width="2" />
<path d="M704,460 L704,487.0" stroke="#1a1a1a" stroke-width="2" />
<path d="M836,460 L836,487.0" stroke="#1a1a1a" stroke-width="2" />
<rect x="691.0" y="487.0" width="26" height="26" fill="#4477AA" stroke="#1a1a1a" stroke-width="1.3" />
<text x="704.0" y="505.1" font-size="15" font-family="Helvetica" text-anchor="middle" fill="white" font-weight="bold">A</text>
<rect x="691.0" y="487.0" width="26" height="26" fill="none" stroke="#1a1a1a" stroke-width="1.3" />
<rect x="810.0" y="487.0" width="26" height="26" fill="#4477AA" stroke="#1a1a1a" stroke-width="1.3" />
<text x="823.0" y="505.1" font-size="15" font-family="Helvetica" text-anchor="middle" fill="white" font-weight="bold">A</text>
<rect x="836.0" y="487.0" width="26" height="26" fill="#EE6677" stroke="#1a1a1a" stroke-width="1.3" />
<text x="849.0" y="505.1" font-size="15" font-family="Helvetica" text-anchor="middle" fill="white" font-weight="bold">B</text>
<rect x="810.0" y="487.0" width="52" height="26" fill="none" stroke="#1a1a1a" stroke-width="1.3" />
<text x="930" y="422" font-size="22" font-family="Helvetica" text-anchor="start" dominant-baseline="central" font-weight="bold" fill="#1a1a1a">Subset sympatry</text>
<text x="930" y="446" font-size="22" font-family="Helvetica" text-anchor="start" dominant-baseline="central" fill="#8a8a8a">one area, and the full range</text>
<rect x="744.0" y="587.0" width="26" height="26" fill="#4477AA" stroke="#1a1a1a" stroke-width="1.3" />
<text x="757.0" y="605.1" font-size="15" font-family="Helvetica" text-anchor="middle" fill="white" font-weight="bold">A</text>
<rect x="770.0" y="587.0" width="26" height="26" fill="#EE6677" stroke="#1a1a1a" stroke-width="1.3" />
<text x="783.0" y="605.1" font-size="15" font-family="Helvetica" text-anchor="middle" fill="white" font-weight="bold">B</text>
<rect x="744.0" y="587.0" width="52" height="26" fill="none" stroke="#1a1a1a" stroke-width="1.3" />
<path d="M770,613.0 L770,630" stroke="#1a1a1a" stroke-width="2" />
<path d="M704,630 L836,630" stroke="#1a1a1a" stroke-width="2" />
<path d="M704,630 L704,657.0" stroke="#1a1a1a" stroke-width="2" />
<path d="M836,630 L836,657.0" stroke="#1a1a1a" stroke-width="2" />
<rect x="691.0" y="657.0" width="26" height="26" fill="#4477AA" stroke="#1a1a1a" stroke-width="1.3" />
<text x="704.0" y="675.1" font-size="15" font-family="Helvetica" text-anchor="middle" fill="white" font-weight="bold">A</text>
<rect x="691.0" y="657.0" width="26" height="26" fill="none" stroke="#1a1a1a" stroke-width="1.3" />
<rect x="823.0" y="657.0" width="26" height="26" fill="#EE6677" stroke="#1a1a1a" stroke-width="1.3" />
<text x="836.0" y="675.1" font-size="15" font-family="Helvetica" text-anchor="middle" fill="white" font-weight="bold">B</text>
<rect x="823.0" y="657.0" width="26" height="26" fill="none" stroke="#1a1a1a" stroke-width="1.3" />
<text x="930" y="592" font-size="22" font-family="Helvetica" text-anchor="start" dominant-baseline="central" font-weight="bold" fill="#1a1a1a">Vicariance</text>
<text x="930" y="616" font-size="22" font-family="Helvetica" text-anchor="start" dominant-baseline="central" fill="#8a8a8a">range splits into complements</text>
</svg>