<?xml version="1.0" encoding="UTF-8"?>
<svg xmlns="http://www.w3.org/2000/svg" xmlns:xlink="http://www.w3.org/1999/xlink"
     width="1200" height="620" viewBox="0 0 1200 620">
<defs>
</defs>
<rect x="0" y="0" width="1200" height="620" fill="white" />
<text x="600.0" y="46" font-size="32" font-family="Helvetica" text-anchor="middle" font-weight="bold" fill="#1a1a1a">A DEC history on a tree</text>
<path d="M150.0,229.140625 L514.7774816464603,229.140625" stroke="#1a1a1a" stroke-width="2.4" />
<path d="M150.0,498.75 L348.8981019730875,498.75" stroke="#1a1a1a" stroke-width="2.4" />
<path d="M514.7774816464603,180.0 L810.0,180.0" stroke="#1a1a1a" stroke-width="2.4" />
<path d="M514.7774816464603,278.28125 L579.6027206453707,278.28125" stroke="#1a1a1a" stroke-width="2.4" />
<path d="M348.8981019730875,477.5 L810.0,477.5" stroke="#1a1a1a" stroke-width="2.4" />
<path d="M348.8981019730875,520.0 L810.0,520.0" stroke="#1a1a1a" stroke-width="2.4" />
<path d="M579.6027206453707,222.5 L810.0,222.5" stroke="#1a1a1a" stroke-width="2.4" />
<path d="M579.6027206453707,334.0625 L606.3233245226422,334.0625" stroke="#1a1a1a" stroke-width="2.4" />
<path d="M606.3233245226422,286.25 L775.4185898627097,286.25" stroke="#1a1a1a" stroke-width="2.4" />
<path d="M606.3233245226422,381.875 L708.1848640615954,381.875" stroke="#1a1a1a" stroke-width="2.4" />
<path d="M775.4185898627097,265.0 L810.0,265.0" stroke="#1a1a1a" stroke-width="2.4" />
<path d="M775.4185898627097,307.5 L810.0,307.5" stroke="#1a1a1a" stroke-width="2.4" />
<path d="M708.1848640615954,350.0 L810.0,350.0" stroke="#1a1a1a" stroke-width="2.4" />
<path d="M708.1848640615954,413.75 L771.8654596520286,413.75" stroke="#1a1a1a" stroke-width="2.4" />
<path d="M771.8654596520286,392.5 L810.0,392.5" stroke="#1a1a1a" stroke-width="2.4" />
<path d="M771.8654596520286,435.0 L810.0,435.0" stroke="#1a1a1a" stroke-width="2.4" />
<path d="M775.4185898627097,265.0 L775.4185898627097,307.5" stroke="#1a1a1a" stroke-width="2.4" />
<path d="M771.8654596520286,392.5 L771.8654596520286,435.0" stroke="#1a1a1a" stroke-width="2.4" />
<path d="M708.1848640615954,350.0 L708.1848640615954,413.75" stroke="#1a1a1a" stroke-width="2.4" />
<path d="M606.3233245226422,286.25 L606.3233245226422,381.875" stroke="#1a1a1a" stroke-width="2.4" />
<path d="M579.6027206453707,222.5 L579.6027206453707,334.0625" stroke="#1a1a1a" stroke-width="2.4" />
<path d="M514.7774816464603,180.0 L514.7774816464603,278.28125" stroke="#1a1a1a" stroke-width="2.4" />
<path d="M348.8981019730875,477.5 L348.8981019730875,520.0" stroke="#1a1a1a" stroke-width="2.4" />
<path d="M150.0,229.140625 L150.0,498.75" stroke="#1a1a1a" stroke-width="2.4" />
<path d="M258.7123673503526,221.140625 L251.71236735035262,234.140625 L265.7123673503526,234.140625 Z" fill="#2f8f4e" stroke="#1a1a1a" stroke-width="0.8" />
<path d="M318.5762548624155,221.140625 L311.5762548624155,234.140625 L325.5762548624155,234.140625 Z" fill="#2f8f4e" stroke="#1a1a1a" stroke-width="0.8" />
<path d="M375.5259880346496,223.140625 L387.5259880346496,235.140625" stroke="#cc4b3c" stroke-width="2.6" />
<path d="M375.5259880346496,235.140625 L387.5259880346496,223.140625" stroke="#cc4b3c" stroke-width="2.6" />
<path d="M508.2043540565594,223.140625 L520.2043540565594,235.140625" stroke="#cc4b3c" stroke-width="2.6" />
<path d="M508.2043540565594,235.140625 L520.2043540565594,223.140625" stroke="#cc4b3c" stroke-width="2.6" />
<path d="M537.3188977846039,172.0 L530.3188977846039,185.0 L544.3188977846039,185.0 Z" fill="#2f8f4e" stroke="#1a1a1a" stroke-width="0.8" />
<path d="M680.6935292049355,278.25 L673.6935292049355,291.25 L687.6935292049355,291.25 Z" fill="#2f8f4e" stroke="#1a1a1a" stroke-width="0.8" />
<path d="M583.970819533042,469.5 L576.970819533042,482.5 L590.970819533042,482.5 Z" fill="#2f8f4e" stroke="#1a1a1a" stroke-width="0.8" />
<path d="M592.4972854874343,469.5 L585.4972854874343,482.5 L599.4972854874343,482.5 Z" fill="#2f8f4e" stroke="#1a1a1a" stroke-width="0.8" />
<path d="M494.3117270607216,512.0 L487.3117270607216,525.0 L501.3117270607216,525.0 Z" fill="#2f8f4e" stroke="#1a1a1a" stroke-width="0.8" />
<path d="M599.460376849369,512.0 L592.460376849369,525.0 L606.460376849369,525.0 Z" fill="#2f8f4e" stroke="#1a1a1a" stroke-width="0.8" />
<rect x="92.0" y="351.9453125" width="24" height="24" fill="#4477AA" stroke="#1a1a1a" stroke-width="1.2" />
<text x="104.0" y="363.9453125" font-size="18" font-family="Helvetica" text-anchor="middle" dominant-baseline="central" font-weight="bold" fill="white">A</text>
<rect x="846.0" y="168.0" width="24" height="24" fill="#EE6677" stroke="#1a1a1a" stroke-width="1.2" />
<text x="858.0" y="180.0" font-size="18" font-family="Helvetica" text-anchor="middle" dominant-baseline="central" font-weight="bold" fill="white">B</text>
<rect x="870.0" y="168.0" width="24" height="24" fill="#228833" stroke="#1a1a1a" stroke-width="1.2" />
<text x="882.0" y="180.0" font-size="18" font-family="Helvetica" text-anchor="middle" dominant-baseline="central" font-weight="bold" fill="white">C</text>
<rect x="858.0" y="210.5" width="24" height="24" fill="#228833" stroke="#1a1a1a" stroke-width="1.2" />
<text x="870.0" y="222.5" font-size="18" font-family="Helvetica" text-anchor="middle" dominant-baseline="central" font-weight="bold" fill="white">C</text>
<rect x="858.0" y="253.0" width="24" height="24" fill="#EE6677" stroke="#1a1a1a" stroke-width="1.2" />
<text x="870.0" y="265.0" font-size="18" font-family="Helvetica" text-anchor="middle" dominant-baseline="central" font-weight="bold" fill="white">B</text>
<rect x="858.0" y="295.5" width="24" height="24" fill="#228833" stroke="#1a1a1a" stroke-width="1.2" />
<text x="870.0" y="307.5" font-size="18" font-family="Helvetica" text-anchor="middle" dominant-baseline="central" font-weight="bold" fill="white">C</text>
<rect x="858.0" y="338.0" width="24" height="24" fill="#228833" stroke="#1a1a1a" stroke-width="1.2" />
<text x="870.0" y="350.0" font-size="18" font-family="Helvetica" text-anchor="middle" dominant-baseline="central" font-weight="bold" fill="white">C</text>
<rect x="858.0" y="380.5" width="24" height="24" fill="#228833" stroke="#1a1a1a" stroke-width="1.2" />
<text x="870.0" y="392.5" font-size="18" font-family="Helvetica" text-anchor="middle" dominant-baseline="central" font-weight="bold" fill="white">C</text>
<rect x="858.0" y="423.0" width="24" height="24" fill="#228833" stroke="#1a1a1a" stroke-width="1.2" />
<text x="870.0" y="435.0" font-size="18" font-family="Helvetica" text-anchor="middle" dominant-baseline="central" font-weight="bold" fill="white">C</text>
<rect x="834.0" y="465.5" width="24" height="24" fill="#4477AA" stroke="#1a1a1a" stroke-width="1.2" />
<text x="846.0" y="477.5" font-size="18" font-family="Helvetica" text-anchor="middle" dominant-baseline="central" font-weight="bold" fill="white">A</text>
<rect x="858.0" y="465.5" width="24" height="24" fill="#EE6677" stroke="#1a1a1a" stroke-width="1.2" />
<text x="870.0" y="477.5" font-size="18" font-family="Helvetica" text-anchor="middle" dominant-baseline="central" font-weight="bold" fill="white">B</text>
<rect x="882.0" y="465.5" width="24" height="24" fill="#228833" stroke="#1a1a1a" stroke-width="1.2" />
<text x="894.0" y="477.5" font-size="18" font-family="Helvetica" text-anchor="middle" dominant-baseline="central" font-weight="bold" fill="white">C</text>
<rect x="834.0" y="508.0" width="24" height="24" fill="#4477AA" stroke="#1a1a1a" stroke-width="1.2" />
<text x="846.0" y="520.0" font-size="18" font-family="Helvetica" text-anchor="middle" dominant-baseline="central" font-weight="bold" fill="white">A</text>
<rect x="858.0" y="508.0" width="24" height="24" fill="#EE6677" stroke="#1a1a1a" stroke-width="1.2" />
<text x="870.0" y="520.0" font-size="18" font-family="Helvetica" text-anchor="middle" dominant-baseline="central" font-weight="bold" fill="white">B</text>
<rect x="882.0" y="508.0" width="24" height="24" fill="#228833" stroke="#1a1a1a" stroke-width="1.2" />
<text x="894.0" y="520.0" font-size="18" font-family="Helvetica" text-anchor="middle" dominant-baseline="central" font-weight="bold" fill="white">C</text>
<path d="M150.0,556 L810.0,556" stroke="#1a1a1a" stroke-width="1.6" />
<path d="M150.0,556 L150.0,562" stroke="#1a1a1a" stroke-width="1.6" />
<text x="150.0" y="578" font-size="18" font-family="Helvetica" text-anchor="middle" fill="#1a1a1a">0.00</text>
<path d="M315.0,556 L315.0,562" stroke="#1a1a1a" stroke-width="1.6" />
<text x="315.0" y="578" font-size="18" font-family="Helvetica" text-anchor="middle" fill="#1a1a1a">0.25</text>
<path d="M480.0,556 L480.0,562" stroke="#1a1a1a" stroke-width="1.6" />
<text x="480.0" y="578" font-size="18" font-family="Helvetica" text-anchor="middle" fill="#1a1a1a">0.50</text>
<path d="M645.0,556 L645.0,562" stroke="#1a1a1a" stroke-width="1.6" />
<text x="645.0" y="578" font-size="18" font-family="Helvetica" text-anchor="middle" fill="#1a1a1a">0.75</text>
<path d="M810.0,556 L810.0,562" stroke="#1a1a1a" stroke-width="1.6" />
<text x="810.0" y="578" font-size="18" font-family="Helvetica" text-anchor="middle" fill="#1a1a1a">1.00</text>
<text x="480.0" y="600" font-size="18" font-family="Helvetica" text-anchor="middle" fill="#8a8a8a">time (root to present)</text>
<rect x="60" y="83" width="18" height="18" fill="#4477AA" stroke="#1a1a1a" stroke-width="1.1" />
<text x="69" y="92" font-size="18" font-family="Helvetica" text-anchor="middle" dominant-baseline="central" font-weight="bold" fill="white">A</text>
<rect x="126" y="83" width="18" height="18" fill="#EE6677" stroke="#1a1a1a" stroke-width="1.1" />
<text x="135" y="92" font-size="18" font-family="Helvetica" text-anchor="middle" dominant-baseline="central" font-weight="bold" fill="white">B</text>
<rect x="192" y="83" width="18" height="18" fill="#228833" stroke="#1a1a1a" stroke-width="1.1" />
<text x="201" y="92" font-size="18" font-family="Helvetica" text-anchor="middle" dominant-baseline="central" font-weight="bold" fill="white">C</text>
<path d="M290,84 L283,97 L297,97 Z" fill="#2f8f4e" stroke="#1a1a1a" stroke-width="0.8" />
<text x="306" y="92" font-size="18" font-family="Helvetica" text-anchor="start" dominant-baseline="central" fill="#1a1a1a">dispersal (gain)</text>
<path d="M484,86 L496,98" stroke="#cc4b3c" stroke-width="2.6" />
<path d="M484,98 L496,86" stroke="#cc4b3c" stroke-width="2.6" />
<text x="506" y="92" font-size="18" font-family="Helvetica" text-anchor="start" dominant-baseline="central" fill="#1a1a1a">extinction (loss)</text>
</svg>