<?xml version="1.0" encoding="UTF-8"?>
<svg xmlns="http://www.w3.org/2000/svg" xmlns:xlink="http://www.w3.org/1999/xlink"
     width="1460" height="620" viewBox="0 0 1460 620">
<defs>
</defs>
<rect x="0" y="0" width="1460" height="620" fill="white" />
<text x="730.0" y="46" font-size="32" font-family="Helvetica" text-anchor="middle" font-weight="bold" fill="#1a1a1a">A DEC history on a tree</text>
<path d="M150.0,229.140625 L658.4777016890052,229.140625" stroke="#1a1a1a" stroke-width="2.4" />
<path d="M150.0,498.75 L427.2518997200613,498.75" stroke="#1a1a1a" stroke-width="2.4" />
<path d="M658.4777016890052,180.0 L1070.0,180.0" stroke="#1a1a1a" stroke-width="2.4" />
<path d="M658.4777016890052,278.28125 L748.8401560511228,278.28125" stroke="#1a1a1a" stroke-width="2.4" />
<path d="M427.2518997200613,477.5 L1070.0,477.5" stroke="#1a1a1a" stroke-width="2.4" />
<path d="M427.2518997200613,520.0 L1070.0,520.0" stroke="#1a1a1a" stroke-width="2.4" />
<path d="M748.8401560511228,222.5 L1070.0,222.5" stroke="#1a1a1a" stroke-width="2.4" />
<path d="M748.8401560511228,334.0625 L786.0870584255013,334.0625" stroke="#1a1a1a" stroke-width="2.4" />
<path d="M786.0870584255013,286.25 L1021.795610111656,286.25" stroke="#1a1a1a" stroke-width="2.4" />
<path d="M786.0870584255013,381.875 L928.0758711161633,381.875" stroke="#1a1a1a" stroke-width="2.4" />
<path d="M1021.795610111656,265.0 L1070.0,265.0" stroke="#1a1a1a" stroke-width="2.4" />
<path d="M1021.795610111656,307.5 L1070.0,307.5" stroke="#1a1a1a" stroke-width="2.4" />
<path d="M928.0758711161633,350.0 L1070.0,350.0" stroke="#1a1a1a" stroke-width="2.4" />
<path d="M928.0758711161633,413.75 L1016.8427619391913,413.75" stroke="#1a1a1a" stroke-width="2.4" />
<path d="M1016.8427619391913,392.5 L1070.0,392.5" stroke="#1a1a1a" stroke-width="2.4" />
<path d="M1016.8427619391913,435.0 L1070.0,435.0" stroke="#1a1a1a" stroke-width="2.4" />
<path d="M1021.795610111656,265.0 L1021.795610111656,307.5" stroke="#1a1a1a" stroke-width="2.4" />
<path d="M1016.8427619391913,392.5 L1016.8427619391913,435.0" stroke="#1a1a1a" stroke-width="2.4" />
<path d="M928.0758711161633,350.0 L928.0758711161633,413.75" stroke="#1a1a1a" stroke-width="2.4" />
<path d="M786.0870584255013,286.25 L786.0870584255013,381.875" stroke="#1a1a1a" stroke-width="2.4" />
<path d="M748.8401560511228,222.5 L748.8401560511228,334.0625" stroke="#1a1a1a" stroke-width="2.4" />
<path d="M658.4777016890052,180.0 L658.4777016890052,278.28125" stroke="#1a1a1a" stroke-width="2.4" />
<path d="M427.2518997200613,477.5 L427.2518997200613,520.0" stroke="#1a1a1a" stroke-width="2.4" />
<path d="M150.0,229.140625 L150.0,498.75" stroke="#1a1a1a" stroke-width="2.4" />
<path d="M301.53845145806724,221.140625 L294.53845145806724,234.140625 L308.53845145806724,234.140625 Z" fill="#2f8f4e" stroke="#1a1a1a" stroke-width="0.8" />
<path d="M384.9850825354883,221.140625 L377.9850825354883,234.140625 L391.9850825354883,234.140625 Z" fill="#2f8f4e" stroke="#1a1a1a" stroke-width="0.8" />
<path d="M466.7331954422388,223.140625 L478.7331954422388,235.140625" stroke="#cc4b3c" stroke-width="2.6" />
<path d="M466.7331954422388,235.140625 L478.7331954422388,223.140625" stroke="#cc4b3c" stroke-width="2.6" />
<path d="M651.6787965636888,223.140625 L663.6787965636888,235.140625" stroke="#cc4b3c" stroke-width="2.6" />
<path d="M651.6787965636888,235.140625 L663.6787965636888,223.140625" stroke="#cc4b3c" stroke-width="2.6" />
<path d="M689.8990696391448,172.0 L682.8990696391448,185.0 L696.8990696391448,185.0 Z" fill="#2f8f4e" stroke="#1a1a1a" stroke-width="0.8" />
<path d="M889.7546164674859,278.25 L882.7546164674859,291.25 L896.7546164674859,291.25 Z" fill="#2f8f4e" stroke="#1a1a1a" stroke-width="0.8" />
<path d="M754.9290211672707,469.5 L747.9290211672707,482.5 L761.9290211672707,482.5 Z" fill="#2f8f4e" stroke="#1a1a1a" stroke-width="0.8" />
<path d="M766.814397952181,469.5 L759.814397952181,482.5 L773.814397952181,482.5 Z" fill="#2f8f4e" stroke="#1a1a1a" stroke-width="0.8" />
<path d="M629.9496801452483,512.0 L622.9496801452483,525.0 L636.9496801452483,525.0 Z" fill="#2f8f4e" stroke="#1a1a1a" stroke-width="0.8" />
<path d="M776.5205253051811,512.0 L769.5205253051811,525.0 L783.5205253051811,525.0 Z" fill="#2f8f4e" stroke="#1a1a1a" stroke-width="0.8" />
<rect x="92.0" y="351.9453125" width="24" height="24" fill="#4477AA" stroke="#1a1a1a" stroke-width="1.2" />
<text x="104.0" y="363.9453125" font-size="22" font-family="Helvetica" text-anchor="middle" dominant-baseline="central" font-weight="bold" fill="white">A</text>
<rect x="1106.0" y="168.0" width="24" height="24" fill="#EE6677" stroke="#1a1a1a" stroke-width="1.2" />
<text x="1118.0" y="180.0" font-size="22" font-family="Helvetica" text-anchor="middle" dominant-baseline="central" font-weight="bold" fill="white">B</text>
<rect x="1130.0" y="168.0" width="24" height="24" fill="#228833" stroke="#1a1a1a" stroke-width="1.2" />
<text x="1142.0" y="180.0" font-size="22" font-family="Helvetica" text-anchor="middle" dominant-baseline="central" font-weight="bold" fill="white">C</text>
<rect x="1118.0" y="210.5" width="24" height="24" fill="#228833" stroke="#1a1a1a" stroke-width="1.2" />
<text x="1130.0" y="222.5" font-size="22" font-family="Helvetica" text-anchor="middle" dominant-baseline="central" font-weight="bold" fill="white">C</text>
<rect x="1118.0" y="253.0" width="24" height="24" fill="#EE6677" stroke="#1a1a1a" stroke-width="1.2" />
<text x="1130.0" y="265.0" font-size="22" font-family="Helvetica" text-anchor="middle" dominant-baseline="central" font-weight="bold" fill="white">B</text>
<rect x="1118.0" y="295.5" width="24" height="24" fill="#228833" stroke="#1a1a1a" stroke-width="1.2" />
<text x="1130.0" y="307.5" font-size="22" font-family="Helvetica" text-anchor="middle" dominant-baseline="central" font-weight="bold" fill="white">C</text>
<rect x="1118.0" y="338.0" width="24" height="24" fill="#228833" stroke="#1a1a1a" stroke-width="1.2" />
<text x="1130.0" y="350.0" font-size="22" font-family="Helvetica" text-anchor="middle" dominant-baseline="central" font-weight="bold" fill="white">C</text>
<rect x="1118.0" y="380.5" width="24" height="24" fill="#228833" stroke="#1a1a1a" stroke-width="1.2" />
<text x="1130.0" y="392.5" font-size="22" font-family="Helvetica" text-anchor="middle" dominant-baseline="central" font-weight="bold" fill="white">C</text>
<rect x="1118.0" y="423.0" width="24" height="24" fill="#228833" stroke="#1a1a1a" stroke-width="1.2" />
<text x="1130.0" y="435.0" font-size="22" font-family="Helvetica" text-anchor="middle" dominant-baseline="central" font-weight="bold" fill="white">C</text>
<rect x="1094.0" y="465.5" width="24" height="24" fill="#4477AA" stroke="#1a1a1a" stroke-width="1.2" />
<text x="1106.0" y="477.5" font-size="22" font-family="Helvetica" text-anchor="middle" dominant-baseline="central" font-weight="bold" fill="white">A</text>
<rect x="1118.0" y="465.5" width="24" height="24" fill="#EE6677" stroke="#1a1a1a" stroke-width="1.2" />
<text x="1130.0" y="477.5" font-size="22" font-family="Helvetica" text-anchor="middle" dominant-baseline="central" font-weight="bold" fill="white">B</text>
<rect x="1142.0" y="465.5" width="24" height="24" fill="#228833" stroke="#1a1a1a" stroke-width="1.2" />
<text x="1154.0" y="477.5" font-size="22" font-family="Helvetica" text-anchor="middle" dominant-baseline="central" font-weight="bold" fill="white">C</text>
<rect x="1094.0" y="508.0" width="24" height="24" fill="#4477AA" stroke="#1a1a1a" stroke-width="1.2" />
<text x="1106.0" y="520.0" font-size="22" font-family="Helvetica" text-anchor="middle" dominant-baseline="central" font-weight="bold" fill="white">A</text>
<rect x="1118.0" y="508.0" width="24" height="24" fill="#EE6677" stroke="#1a1a1a" stroke-width="1.2" />
<text x="1130.0" y="520.0" font-size="22" font-family="Helvetica" text-anchor="middle" dominant-baseline="central" font-weight="bold" fill="white">B</text>
<rect x="1142.0" y="508.0" width="24" height="24" fill="#228833" stroke="#1a1a1a" stroke-width="1.2" />
<text x="1154.0" y="520.0" font-size="22" font-family="Helvetica" text-anchor="middle" dominant-baseline="central" font-weight="bold" fill="white">C</text>
<path d="M150.0,556 L1070.0,556" stroke="#1a1a1a" stroke-width="1.6" />
<path d="M150.0,556 L150.0,562" stroke="#1a1a1a" stroke-width="1.6" />
<text x="150.0" y="578" font-size="22" font-family="Helvetica" text-anchor="middle" fill="#1a1a1a">0.00</text>
<path d="M380.0,556 L380.0,562" stroke="#1a1a1a" stroke-width="1.6" />
<text x="380.0" y="578" font-size="22" font-family="Helvetica" text-anchor="middle" fill="#1a1a1a">0.25</text>
<path d="M610.0,556 L610.0,562" stroke="#1a1a1a" stroke-width="1.6" />
<text x="610.0" y="578" font-size="22" font-family="Helvetica" text-anchor="middle" fill="#1a1a1a">0.50</text>
<path d="M840.0,556 L840.0,562" stroke="#1a1a1a" stroke-width="1.6" />
<text x="840.0" y="578" font-size="22" font-family="Helvetica" text-anchor="middle" fill="#1a1a1a">0.75</text>
<path d="M1070.0,556 L1070.0,562" stroke="#1a1a1a" stroke-width="1.6" />
<text x="1070.0" y="578" font-size="22" font-family="Helvetica" text-anchor="middle" fill="#1a1a1a">1.00</text>
<text x="610.0" y="600" font-size="22" font-family="Helvetica" text-anchor="middle" fill="#8a8a8a">time (root to present)</text>
<rect x="60" y="83" width="18" height="18" fill="#4477AA" stroke="#1a1a1a" stroke-width="1.1" />
<text x="69" y="92" font-size="22" font-family="Helvetica" text-anchor="middle" dominant-baseline="central" font-weight="bold" fill="white">A</text>
<rect x="126" y="83" width="18" height="18" fill="#EE6677" stroke="#1a1a1a" stroke-width="1.1" />
<text x="135" y="92" font-size="22" font-family="Helvetica" text-anchor="middle" dominant-baseline="central" font-weight="bold" fill="white">B</text>
<rect x="192" y="83" width="18" height="18" fill="#228833" stroke="#1a1a1a" stroke-width="1.1" />
<text x="201" y="92" font-size="22" font-family="Helvetica" text-anchor="middle" dominant-baseline="central" font-weight="bold" fill="white">C</text>
<path d="M290,84 L283,97 L297,97 Z" fill="#2f8f4e" stroke="#1a1a1a" stroke-width="0.8" />
<text x="306" y="92" font-size="22" font-family="Helvetica" text-anchor="start" dominant-baseline="central" fill="#1a1a1a">dispersal (gain)</text>
<path d="M484,86 L496,98" stroke="#cc4b3c" stroke-width="2.6" />
<path d="M484,98 L496,86" stroke="#cc4b3c" stroke-width="2.6" />
<text x="506" y="92" font-size="22" font-family="Helvetica" text-anchor="start" dominant-baseline="central" fill="#1a1a1a">extinction (loss)</text>
</svg>