<?xml version="1.0" encoding="UTF-8"?>
<svg xmlns="http://www.w3.org/2000/svg" xmlns:xlink="http://www.w3.org/1999/xlink"
     width="1400" height="762" viewBox="0 0 1400 762">
<defs>
</defs>
<rect x="0" y="0" width="1400" height="762" fill="white" />
<text x="700.0" y="48" font-size="32" font-family="Helvetica" text-anchor="middle" font-weight="bold" fill="#1a1a1a">The diversity-dependent model</text>
<path d="M100,86 L134,86" stroke="#1a1a1a" stroke-width="2.4" stroke-linecap="round" />
<text x="144" y="86" font-size="22" font-family="Helvetica" text-anchor="start" dominant-baseline="central" fill="#1a1a1a">surviving lineage</text>
<path d="M350,86 L384,86" stroke="#9a9a9a" stroke-width="1.7" stroke-dasharray="6,5" />
<text x="394" y="86" font-size="22" font-family="Helvetica" text-anchor="start" dominant-baseline="central" fill="#1a1a1a">extinct lineage</text>
<path d="M1320.0,108 L1320.0,698" stroke="#cccccc" stroke-width="1.0" stroke-dasharray="2,4" />
<path d="M86.0,265.9625 L100.0,265.9625" stroke="#1a1a1a" stroke-width="2.2" stroke-linecap="round" />
<path d="M100.0,265.9625 L100.0,164.63125" stroke="#1a1a1a" stroke-width="2.2" stroke-linecap="round" />
<path d="M100.0,265.9625 L100.0,367.29375000000005" stroke="#1a1a1a" stroke-width="2.2" stroke-linecap="round" />
<path d="M100.0,164.63125 L106.41271244468268,164.63125" stroke="#1a1a1a" stroke-width="2.2" stroke-linecap="round" />
<path d="M106.41271244468268,164.63125 L106.41271244468268,125.3" stroke="#1a1a1a" stroke-width="2.2" stroke-linecap="round" />
<path d="M106.41271244468268,164.63125 L106.41271244468268,203.9625" stroke="#1a1a1a" stroke-width="2.2" stroke-linecap="round" />
<path d="M106.41271244468268,125.3 L211.22805897703978,125.3" stroke="#1a1a1a" stroke-width="2.2" stroke-linecap="round" />
<path d="M211.22805897703978,125.3 L211.22805897703978,134.6" stroke="#1a1a1a" stroke-width="2.2" stroke-linecap="round" />
<path d="M211.22805897703978,125.3 L211.22805897703978,116.0" stroke="#9a9a9a" stroke-width="1.6" stroke-dasharray="6,5" stroke-linecap="butt" />
<path d="M211.22805897703978,134.6 L783.216207874563,134.6" stroke="#1a1a1a" stroke-width="2.2" stroke-linecap="round" />
<path d="M783.216207874563,134.6 L783.216207874563,128.4" stroke="#1a1a1a" stroke-width="2.2" stroke-linecap="round" />
<path d="M783.216207874563,134.6 L783.216207874563,140.8" stroke="#1a1a1a" stroke-width="2.2" stroke-linecap="round" />
<path d="M783.216207874563,128.4 L1320.0,128.4" stroke="#1a1a1a" stroke-width="2.2" stroke-linecap="round" />
<path d="M783.216207874563,140.8 L1320.0,140.8" stroke="#1a1a1a" stroke-width="2.2" stroke-linecap="round" />
<path d="M211.22805897703978,116.0 L757.4461621975021,116.0" stroke="#9a9a9a" stroke-width="1.6" stroke-dasharray="6,5" stroke-linecap="butt" />
<path d="M106.41271244468268,203.9625 L209.4603275801793,203.9625" stroke="#1a1a1a" stroke-width="2.2" stroke-linecap="round" />
<path d="M209.4603275801793,203.9625 L209.4603275801793,243.10000000000002" stroke="#1a1a1a" stroke-width="2.2" stroke-linecap="round" />
<path d="M209.4603275801793,203.9625 L209.4603275801793,164.825" stroke="#1a1a1a" stroke-width="2.2" stroke-linecap="round" />
<path d="M209.4603275801793,243.10000000000002 L217.4466147653004,243.10000000000002" stroke="#1a1a1a" stroke-width="2.2" stroke-linecap="round" />
<path d="M217.4466147653004,243.10000000000002 L217.4466147653004,224.5" stroke="#1a1a1a" stroke-width="2.2" stroke-linecap="round" />
<path d="M217.4466147653004,243.10000000000002 L217.4466147653004,261.70000000000005" stroke="#1a1a1a" stroke-width="2.2" stroke-linecap="round" />
<path d="M217.4466147653004,224.5 L298.68816587170784,224.5" stroke="#1a1a1a" stroke-width="2.2" stroke-linecap="round" />
<path d="M298.68816587170784,224.5 L298.68816587170784,215.2" stroke="#1a1a1a" stroke-width="2.2" stroke-linecap="round" />
<path d="M298.68816587170784,224.5 L298.68816587170784,233.8" stroke="#9a9a9a" stroke-width="1.6" stroke-dasharray="6,5" stroke-linecap="butt" />
<path d="M298.68816587170784,215.2 L1320.0,215.2" stroke="#1a1a1a" stroke-width="2.2" stroke-linecap="round" />
<path d="M298.68816587170784,233.8 L1152.9222104841892,233.8" stroke="#9a9a9a" stroke-width="1.6" stroke-dasharray="6,5" stroke-linecap="butt" />
<path d="M1152.9222104841892,233.8 L1152.9222104841892,227.60000000000002" stroke="#9a9a9a" stroke-width="1.6" stroke-dasharray="6,5" stroke-linecap="butt" />
<path d="M1152.9222104841892,233.8 L1152.9222104841892,240.0" stroke="#9a9a9a" stroke-width="1.6" stroke-dasharray="6,5" stroke-linecap="butt" />
<path d="M1152.9222104841892,227.60000000000002 L1274.814321270678,227.60000000000002" stroke="#9a9a9a" stroke-width="1.6" stroke-dasharray="6,5" stroke-linecap="butt" />
<path d="M1152.9222104841892,240.0 L1299.9326923704643,240.0" stroke="#9a9a9a" stroke-width="1.6" stroke-dasharray="6,5" stroke-linecap="butt" />
<path d="M217.4466147653004,261.70000000000005 L332.22131317559337,261.70000000000005" stroke="#1a1a1a" stroke-width="2.2" stroke-linecap="round" />
<path d="M332.22131317559337,261.70000000000005 L332.22131317559337,252.4" stroke="#9a9a9a" stroke-width="1.6" stroke-dasharray="6,5" stroke-linecap="butt" />
<path d="M332.22131317559337,261.70000000000005 L332.22131317559337,271.0" stroke="#1a1a1a" stroke-width="2.2" stroke-linecap="round" />
<path d="M332.22131317559337,252.4 L1125.8831005665536,252.4" stroke="#9a9a9a" stroke-width="1.6" stroke-dasharray="6,5" stroke-linecap="butt" />
<path d="M332.22131317559337,271.0 L797.5202899459662,271.0" stroke="#1a1a1a" stroke-width="2.2" stroke-linecap="round" />
<path d="M797.5202899459662,271.0 L797.5202899459662,264.8" stroke="#1a1a1a" stroke-width="2.2" stroke-linecap="round" />
<path d="M797.5202899459662,271.0 L797.5202899459662,277.20000000000005" stroke="#9a9a9a" stroke-width="1.6" stroke-dasharray="6,5" stroke-linecap="butt" />
<path d="M797.5202899459662,264.8 L1320.0,264.8" stroke="#1a1a1a" stroke-width="2.2" stroke-linecap="round" />
<path d="M797.5202899459662,277.20000000000005 L1295.6772165634861,277.20000000000005" stroke="#9a9a9a" stroke-width="1.6" stroke-dasharray="6,5" stroke-linecap="butt" />
<path d="M209.4603275801793,164.825 L260.2785906184436,164.825" stroke="#1a1a1a" stroke-width="2.2" stroke-linecap="round" />
<path d="M260.2785906184436,164.825 L260.2785906184436,153.2" stroke="#1a1a1a" stroke-width="2.2" stroke-linecap="round" />
<path d="M260.2785906184436,164.825 L260.2785906184436,176.45" stroke="#1a1a1a" stroke-width="2.2" stroke-linecap="round" />
<path d="M260.2785906184436,153.2 L1320.0,153.2" stroke="#1a1a1a" stroke-width="2.2" stroke-linecap="round" />
<path d="M260.2785906184436,176.45 L287.23976766761484,176.45" stroke="#1a1a1a" stroke-width="2.2" stroke-linecap="round" />
<path d="M287.23976766761484,176.45 L287.23976766761484,165.6" stroke="#1a1a1a" stroke-width="2.2" stroke-linecap="round" />
<path d="M287.23976766761484,176.45 L287.23976766761484,187.3" stroke="#1a1a1a" stroke-width="2.2" stroke-linecap="round" />
<path d="M287.23976766761484,165.6 L1320.0,165.6" stroke="#1a1a1a" stroke-width="2.2" stroke-linecap="round" />
<path d="M287.23976766761484,187.3 L536.8619677037983,187.3" stroke="#1a1a1a" stroke-width="2.2" stroke-linecap="round" />
<path d="M536.8619677037983,187.3 L536.8619677037983,196.60000000000002" stroke="#1a1a1a" stroke-width="2.2" stroke-linecap="round" />
<path d="M536.8619677037983,187.3 L536.8619677037983,178.0" stroke="#9a9a9a" stroke-width="1.6" stroke-dasharray="6,5" stroke-linecap="butt" />
<path d="M536.8619677037983,196.60000000000002 L648.0892562402091,196.60000000000002" stroke="#1a1a1a" stroke-width="2.2" stroke-linecap="round" />
<path d="M648.0892562402091,196.60000000000002 L648.0892562402091,190.4" stroke="#9a9a9a" stroke-width="1.6" stroke-dasharray="6,5" stroke-linecap="butt" />
<path d="M648.0892562402091,196.60000000000002 L648.0892562402091,202.8" stroke="#1a1a1a" stroke-width="2.2" stroke-linecap="round" />
<path d="M648.0892562402091,190.4 L1060.3518106713473,190.4" stroke="#9a9a9a" stroke-width="1.6" stroke-dasharray="6,5" stroke-linecap="butt" />
<path d="M648.0892562402091,202.8 L1320.0,202.8" stroke="#1a1a1a" stroke-width="2.2" stroke-linecap="round" />
<path d="M536.8619677037983,178.0 L1063.8943532399294,178.0" stroke="#9a9a9a" stroke-width="1.6" stroke-dasharray="6,5" stroke-linecap="butt" />
<path d="M100.0,367.29375000000005 L195.6400265593103,367.29375000000005" stroke="#1a1a1a" stroke-width="2.2" stroke-linecap="round" />
<path d="M195.6400265593103,367.29375000000005 L195.6400265593103,417.08750000000003" stroke="#1a1a1a" stroke-width="2.2" stroke-linecap="round" />
<path d="M195.6400265593103,367.29375000000005 L195.6400265593103,317.5" stroke="#1a1a1a" stroke-width="2.2" stroke-linecap="round" />
<path d="M195.6400265593103,417.08750000000003 L265.9056774535367,417.08750000000003" stroke="#1a1a1a" stroke-width="2.2" stroke-linecap="round" />
<path d="M265.9056774535367,417.08750000000003 L265.9056774535367,395.0" stroke="#1a1a1a" stroke-width="2.2" stroke-linecap="round" />
<path d="M265.9056774535367,417.08750000000003 L265.9056774535367,439.175" stroke="#1a1a1a" stroke-width="2.2" stroke-linecap="round" />
<path d="M265.9056774535367,395.0 L497.9990169762667,395.0" stroke="#1a1a1a" stroke-width="2.2" stroke-linecap="round" />
<path d="M497.9990169762667,395.0 L497.9990169762667,388.8" stroke="#1a1a1a" stroke-width="2.2" stroke-linecap="round" />
<path d="M497.9990169762667,395.0 L497.9990169762667,401.2" stroke="#1a1a1a" stroke-width="2.2" stroke-linecap="round" />
<path d="M497.9990169762667,388.8 L1320.0,388.8" stroke="#1a1a1a" stroke-width="2.2" stroke-linecap="round" />
<path d="M497.9990169762667,401.2 L1320.0,401.2" stroke="#1a1a1a" stroke-width="2.2" stroke-linecap="round" />
<path d="M265.9056774535367,439.175 L383.0490701326539,439.175" stroke="#1a1a1a" stroke-width="2.2" stroke-linecap="round" />
<path d="M383.0490701326539,439.175 L383.0490701326539,458.55" stroke="#1a1a1a" stroke-width="2.2" stroke-linecap="round" />
<path d="M383.0490701326539,439.175 L383.0490701326539,419.8" stroke="#1a1a1a" stroke-width="2.2" stroke-linecap="round" />
<path d="M383.0490701326539,458.55 L400.61305590590484,458.55" stroke="#1a1a1a" stroke-width="2.2" stroke-linecap="round" />
<path d="M400.61305590590484,458.55 L400.61305590590484,472.5" stroke="#1a1a1a" stroke-width="2.2" stroke-linecap="round" />
<path d="M400.61305590590484,458.55 L400.61305590590484,444.6" stroke="#1a1a1a" stroke-width="2.2" stroke-linecap="round" />
<path d="M400.61305590590484,472.5 L451.44988554861254,472.5" stroke="#1a1a1a" stroke-width="2.2" stroke-linecap="round" />
<path d="M451.44988554861254,472.5 L451.44988554861254,463.2" stroke="#9a9a9a" stroke-width="1.6" stroke-dasharray="6,5" stroke-linecap="butt" />
<path d="M451.44988554861254,472.5 L451.44988554861254,481.8" stroke="#1a1a1a" stroke-width="2.2" stroke-linecap="round" />
<path d="M451.44988554861254,463.2 L574.1330086852063,463.2" stroke="#9a9a9a" stroke-width="1.6" stroke-dasharray="6,5" stroke-linecap="butt" />
<path d="M451.44988554861254,481.8 L1289.3034321405123,481.8" stroke="#1a1a1a" stroke-width="2.2" stroke-linecap="round" />
<path d="M1289.3034321405123,481.8 L1289.3034321405123,475.6" stroke="#1a1a1a" stroke-width="2.2" stroke-linecap="round" />
<path d="M1289.3034321405123,481.8 L1289.3034321405123,488.0" stroke="#1a1a1a" stroke-width="2.2" stroke-linecap="round" />
<path d="M1289.3034321405123,475.6 L1320.0,475.6" stroke="#1a1a1a" stroke-width="2.2" stroke-linecap="round" />
<path d="M1289.3034321405123,488.0 L1320.0,488.0" stroke="#1a1a1a" stroke-width="2.2" stroke-linecap="round" />
<path d="M400.61305590590484,444.6 L502.3336094297241,444.6" stroke="#1a1a1a" stroke-width="2.2" stroke-linecap="round" />
<path d="M502.3336094297241,444.6 L502.3336094297241,438.40000000000003" stroke="#1a1a1a" stroke-width="2.2" stroke-linecap="round" />
<path d="M502.3336094297241,444.6 L502.3336094297241,450.8" stroke="#1a1a1a" stroke-width="2.2" stroke-linecap="round" />
<path d="M502.3336094297241,438.40000000000003 L1320.0,438.40000000000003" stroke="#1a1a1a" stroke-width="2.2" stroke-linecap="round" />
<path d="M502.3336094297241,450.8 L1320.0,450.8" stroke="#1a1a1a" stroke-width="2.2" stroke-linecap="round" />
<path d="M383.0490701326539,419.8 L1074.1979100882406,419.8" stroke="#1a1a1a" stroke-width="2.2" stroke-linecap="round" />
<path d="M1074.1979100882406,419.8 L1074.1979100882406,413.6" stroke="#1a1a1a" stroke-width="2.2" stroke-linecap="round" />
<path d="M1074.1979100882406,419.8 L1074.1979100882406,426.0" stroke="#1a1a1a" stroke-width="2.2" stroke-linecap="round" />
<path d="M1074.1979100882406,413.6 L1320.0,413.6" stroke="#1a1a1a" stroke-width="2.2" stroke-linecap="round" />
<path d="M1074.1979100882406,426.0 L1320.0,426.0" stroke="#1a1a1a" stroke-width="2.2" stroke-linecap="round" />
<path d="M195.6400265593103,317.5 L308.60979136355127,317.5" stroke="#1a1a1a" stroke-width="2.2" stroke-linecap="round" />
<path d="M308.60979136355127,317.5 L308.60979136355127,339.20000000000005" stroke="#1a1a1a" stroke-width="2.2" stroke-linecap="round" />
<path d="M308.60979136355127,317.5 L308.60979136355127,295.8" stroke="#9a9a9a" stroke-width="1.6" stroke-dasharray="6,5" stroke-linecap="butt" />
<path d="M308.60979136355127,339.20000000000005 L385.18919424612807,339.20000000000005" stroke="#1a1a1a" stroke-width="2.2" stroke-linecap="round" />
<path d="M385.18919424612807,339.20000000000005 L385.18919424612807,320.6" stroke="#1a1a1a" stroke-width="2.2" stroke-linecap="round" />
<path d="M385.18919424612807,339.20000000000005 L385.18919424612807,357.8" stroke="#1a1a1a" stroke-width="2.2" stroke-linecap="round" />
<path d="M385.18919424612807,320.6 L413.9331104975957,320.6" stroke="#1a1a1a" stroke-width="2.2" stroke-linecap="round" />
<path d="M413.9331104975957,320.6 L413.9331104975957,314.4" stroke="#1a1a1a" stroke-width="2.2" stroke-linecap="round" />
<path d="M413.9331104975957,320.6 L413.9331104975957,326.8" stroke="#1a1a1a" stroke-width="2.2" stroke-linecap="round" />
<path d="M413.9331104975957,314.4 L1320.0,314.4" stroke="#1a1a1a" stroke-width="2.2" stroke-linecap="round" />
<path d="M413.9331104975957,326.8 L1320.0,326.8" stroke="#1a1a1a" stroke-width="2.2" stroke-linecap="round" />
<path d="M385.18919424612807,357.8 L568.0971959514775,357.8" stroke="#1a1a1a" stroke-width="2.2" stroke-linecap="round" />
<path d="M568.0971959514775,357.8 L568.0971959514775,345.4" stroke="#1a1a1a" stroke-width="2.2" stroke-linecap="round" />
<path d="M568.0971959514775,357.8 L568.0971959514775,370.20000000000005" stroke="#1a1a1a" stroke-width="2.2" stroke-linecap="round" />
<path d="M568.0971959514775,345.4 L1078.8767346914806,345.4" stroke="#1a1a1a" stroke-width="2.2" stroke-linecap="round" />
<path d="M1078.8767346914806,345.4 L1078.8767346914806,339.20000000000005" stroke="#1a1a1a" stroke-width="2.2" stroke-linecap="round" />
<path d="M1078.8767346914806,345.4 L1078.8767346914806,351.6" stroke="#1a1a1a" stroke-width="2.2" stroke-linecap="round" />
<path d="M1078.8767346914806,339.20000000000005 L1320.0,339.20000000000005" stroke="#1a1a1a" stroke-width="2.2" stroke-linecap="round" />
<path d="M1078.8767346914806,351.6 L1320.0,351.6" stroke="#1a1a1a" stroke-width="2.2" stroke-linecap="round" />
<path d="M568.0971959514775,370.20000000000005 L1172.4705458915228,370.20000000000005" stroke="#1a1a1a" stroke-width="2.2" stroke-linecap="round" />
<path d="M1172.4705458915228,370.20000000000005 L1172.4705458915228,364.0" stroke="#1a1a1a" stroke-width="2.2" stroke-linecap="round" />
<path d="M1172.4705458915228,370.20000000000005 L1172.4705458915228,376.40000000000003" stroke="#1a1a1a" stroke-width="2.2" stroke-linecap="round" />
<path d="M1172.4705458915228,364.0 L1320.0,364.0" stroke="#1a1a1a" stroke-width="2.2" stroke-linecap="round" />
<path d="M1172.4705458915228,376.40000000000003 L1320.0,376.40000000000003" stroke="#1a1a1a" stroke-width="2.2" stroke-linecap="round" />
<path d="M308.60979136355127,295.8 L779.0643587822765,295.8" stroke="#9a9a9a" stroke-width="1.6" stroke-dasharray="6,5" stroke-linecap="butt" />
<path d="M779.0643587822765,295.8 L779.0643587822765,289.6" stroke="#9a9a9a" stroke-width="1.6" stroke-dasharray="6,5" stroke-linecap="butt" />
<path d="M779.0643587822765,295.8 L779.0643587822765,302.0" stroke="#9a9a9a" stroke-width="1.6" stroke-dasharray="6,5" stroke-linecap="butt" />
<path d="M779.0643587822765,289.6 L944.8196385058831,289.6" stroke="#9a9a9a" stroke-width="1.6" stroke-dasharray="6,5" stroke-linecap="butt" />
<path d="M779.0643587822765,302.0 L1029.2466450579113,302.0" stroke="#9a9a9a" stroke-width="1.6" stroke-dasharray="6,5" stroke-linecap="butt" />
<path d="M100,698 L1320,698" stroke="#bdbdbd" stroke-width="1.2" />
<path d="M100,548 L100,698" stroke="#bdbdbd" stroke-width="1.2" />
<path d="M100,548.0 L1320,548.0" stroke="#1a1a1a" stroke-width="1.4" stroke-dasharray="7,4" />
<text x="106" y="538.0" font-size="22" font-family="Helvetica" text-anchor="start" font-weight="bold" fill="#1a1a1a">carrying capacity K</text>
<path d="M100.0,698.0 L101.69444444444444,685.5 L103.38888888888889,685.5 L105.08333333333333,685.5 L106.77777777777777,679.25 L108.47222222222223,679.25 L110.16666666666667,679.25 L111.86111111111111,679.25 L113.55555555555556,679.25 L115.25,679.25 L116.94444444444444,679.25 L118.63888888888889,679.25 L120.33333333333333,679.25 L122.02777777777777,679.25 L123.72222222222221,679.25 L125.41666666666667,679.25 L127.11111111111111,679.25 L128.80555555555554,679.25 L130.5,679.25 L132.19444444444446,679.25 L133.88888888888889,679.25 L135.58333333333334,679.25 L137.27777777777777,679.25 L138.97222222222223,679.25 L140.66666666666666,679.25 L142.36111111111111,679.25 L144.05555555555554,679.25 L145.75,679.25 L147.44444444444443,679.25 L149.13888888888889,679.25 L150.83333333333334,679.25 L152.52777777777777,679.25 L154.22222222222223,679.25 L155.91666666666669,679.25 L157.61111111111111,679.25 L159.30555555555554,679.25 L161.0,679.25 L162.69444444444446,679.25 L164.38888888888889,679.25 L166.08333333333331,679.25 L167.77777777777777,679.25 L169.47222222222223,679.25 L171.16666666666669,679.25 L172.86111111111111,679.25 L174.55555555555554,679.25 L176.25,679.25 L177.94444444444446,679.25 L179.6388888888889,679.25 L181.33333333333331,679.25 L183.02777777777777,679.25 L184.72222222222223,679.25 L186.41666666666669,679.25 L188.1111111111111,679.25 L189.80555555555554,679.25 L191.5,679.25 L193.19444444444443,679.25 L194.88888888888886,679.25 L196.58333333333334,673.0 L198.27777777777777,673.0 L199.97222222222223,673.0 L201.66666666666669,673.0 L203.36111111111111,673.0 L205.05555555555554,673.0 L206.75,673.0 L208.44444444444446,673.0 L210.13888888888889,666.75 L211.83333333333334,660.5 L213.52777777777777,660.5 L215.22222222222223,660.5 L216.91666666666666,660.5 L218.61111111111111,654.25 L220.30555555555554,654.25 L222.0,654.25 L223.69444444444446,654.25 L225.38888888888889,654.25 L227.08333333333331,654.25 L228.77777777777777,654.25 L230.47222222222223,654.25 L232.16666666666666,654.25 L233.86111111111111,654.25 L235.55555555555557,654.25 L237.25,654.25 L238.94444444444446,654.25 L240.63888888888889,654.25 L242.33333333333334,654.25 L244.02777777777777,654.25 L245.72222222222223,654.25 L247.41666666666666,654.25 L249.11111111111111,654.25 L250.80555555555557,654.25 L252.5,654.25 L254.19444444444443,654.25 L255.8888888888889,654.25 L257.58333333333337,654.25 L259.2777777777778,654.25 L260.97222222222223,648.0 L262.66666666666663,648.0 L264.3611111111111,648.0 L266.05555555555554,641.75 L267.75,641.75 L269.44444444444446,641.75 L271.1388888888889,641.75 L272.83333333333337,641.75 L274.52777777777777,641.75 L276.2222222222222,641.75 L277.91666666666663,641.75 L279.6111111111111,641.75 L281.30555555555554,641.75 L283.0,641.75 L284.69444444444446,641.75 L286.38888888888886,641.75 L288.0833333333333,635.5 L289.7777777777777,635.5 L291.4722222222223,635.5 L293.1666666666667,635.5 L294.86111111111114,635.5 L296.55555555555554,635.5 L298.25,635.5 L299.94444444444446,629.25 L301.6388888888889,629.25 L303.33333333333337,629.25 L305.0277777777778,629.25 L306.72222222222223,629.25 L308.41666666666663,629.25 L310.1111111111111,623.0 L311.80555555555554,623.0 L313.5,623.0 L315.19444444444446,623.0 L316.8888888888889,623.0 L318.58333333333337,623.0 L320.27777777777777,623.0 L321.9722222222222,623.0 L323.6666666666667,623.0 L325.3611111111111,623.0 L327.05555555555554,623.0 L328.75,623.0 L330.44444444444446,623.0 L332.1388888888889,623.0 L333.8333333333333,616.75 L335.5277777777778,616.75 L337.22222222222223,616.75 L338.91666666666663,616.75 L340.6111111111111,616.75 L342.30555555555554,616.75 L344.0,616.75 L345.69444444444446,616.75 L347.3888888888889,616.75 L349.08333333333337,616.75 L350.77777777777777,616.75 L352.4722222222222,616.75 L354.16666666666663,616.75 L355.8611111111111,616.75 L357.55555555555554,616.75 L359.25,616.75 L360.94444444444446,616.75 L362.63888888888886,616.75 L364.3333333333333,616.75 L366.02777777777777,616.75 L367.72222222222223,616.75 L369.4166666666667,616.75 L371.11111111111114,616.75 L372.80555555555554,616.75 L374.5,616.75 L376.19444444444446,616.75 L377.8888888888889,616.75 L379.58333333333337,616.75 L381.27777777777777,616.75 L382.97222222222223,616.75 L384.6666666666667,610.5 L386.3611111111111,604.25 L388.05555555555554,604.25 L389.75,604.25 L391.44444444444446,604.25 L393.1388888888889,604.25 L394.8333333333333,604.25 L396.52777777777777,604.25 L398.22222222222223,604.25 L399.9166666666667,604.25 L401.61111111111114,598.0 L403.30555555555554,598.0 L405.0,598.0 L406.69444444444446,598.0 L408.38888888888886,598.0 L410.0833333333333,598.0 L411.7777777777778,598.0 L413.4722222222223,598.0 L415.1666666666667,591.75 L416.86111111111114,591.75 L418.5555555555556,591.75 L420.25,591.75 L421.94444444444446,591.75 L423.6388888888889,591.75 L425.3333333333333,591.75 L427.02777777777777,591.75 L428.72222222222223,591.75 L430.41666666666663,591.75 L432.1111111111111,591.75 L433.8055555555556,591.75 L435.5,591.75 L437.19444444444446,591.75 L438.8888888888889,591.75 L440.5833333333333,591.75 L442.27777777777777,591.75 L443.97222222222223,591.75 L445.6666666666667,591.75 L447.3611111111111,591.75 L449.05555555555554,591.75 L450.75000000000006,591.75 L452.4444444444444,585.5 L454.1388888888889,585.5 L455.8333333333333,585.5 L457.52777777777777,585.5 L459.2222222222222,585.5 L460.9166666666667,585.5 L462.6111111111111,585.5 L464.30555555555554,585.5 L466.0,585.5 L467.6944444444444,585.5 L469.38888888888886,585.5 L471.08333333333337,585.5 L472.7777777777777,585.5 L474.47222222222223,585.5 L476.16666666666663,585.5 L477.86111111111114,585.5 L479.5555555555555,585.5 L481.25,585.5 L482.9444444444445,585.5 L484.63888888888886,585.5 L486.33333333333337,585.5 L488.02777777777777,585.5 L489.7222222222223,585.5 L491.41666666666663,585.5 L493.11111111111114,585.5 L494.8055555555556,585.5 L496.5,585.5 L498.19444444444446,579.25 L499.8888888888889,579.25 L501.5833333333333,579.25 L503.2777777777778,573.0 L504.97222222222223,573.0 L506.6666666666667,573.0 L508.3611111111111,573.0 L510.0555555555556,573.0 L511.74999999999994,573.0 L513.4444444444445,573.0 L515.1388888888889,573.0 L516.8333333333333,573.0 L518.5277777777778,573.0 L520.2222222222222,573.0 L521.9166666666667,573.0 L523.6111111111111,573.0 L525.3055555555555,573.0 L527.0,573.0 L528.6944444444443,573.0 L530.3888888888889,573.0 L532.0833333333333,573.0 L533.7777777777778,573.0 L535.4722222222222,573.0 L537.1666666666667,566.75 L538.8611111111111,566.75 L540.5555555555555,566.75 L542.25,566.75 L543.9444444444443,566.75 L545.6388888888889,566.75 L547.3333333333334,566.75 L549.0277777777777,566.75 L550.7222222222222,566.75 L552.4166666666666,566.75 L554.1111111111111,566.75 L555.8055555555554,566.75 L557.5,566.75 L559.1944444444446,566.75 L560.8888888888889,566.75 L562.5833333333334,566.75 L564.2777777777778,566.75 L565.9722222222223,566.75 L567.6666666666666,566.75 L569.3611111111111,560.5 L571.0555555555557,560.5 L572.75,560.5 L574.4444444444445,566.75 L576.1388888888889,566.75 L577.8333333333333,566.75 L579.5277777777778,566.75 L581.2222222222222,566.75 L582.9166666666667,566.75 L584.6111111111111,566.75 L586.3055555555557,566.75 L588.0,566.75 L589.6944444444445,566.75 L591.3888888888889,566.75 L593.0833333333333,566.75 L594.7777777777778,566.75 L596.4722222222222,566.75 L598.1666666666667,566.75 L599.8611111111111,566.75 L601.5555555555555,566.75 L603.25,566.75 L604.9444444444443,566.75 L606.6388888888889,566.75 L608.3333333333333,566.75 L610.0277777777778,566.75 L611.7222222222222,566.75 L613.4166666666666,566.75 L615.1111111111111,566.75 L616.8055555555555,566.75 L618.5,566.75 L620.1944444444445,566.75 L621.8888888888889,566.75 L623.5833333333334,566.75 L625.2777777777777,566.75 L626.9722222222223,566.75 L628.6666666666666,566.75 L630.3611111111111,566.75 L632.0555555555555,566.75 L633.75,566.75 L635.4444444444445,566.75 L637.1388888888889,566.75 L638.8333333333334,566.75 L640.5277777777777,566.75 L642.2222222222223,566.75 L643.9166666666666,566.75 L645.6111111111111,566.75 L647.3055555555555,566.75 L649.0,560.5 L650.6944444444445,560.5 L652.3888888888889,560.5 L654.0833333333334,560.5 L655.7777777777778,560.5 L657.4722222222222,560.5 L659.1666666666667,560.5 L660.8611111111111,560.5 L662.5555555555555,560.5 L664.25,560.5 L665.9444444444445,560.5 L667.6388888888889,560.5 L669.3333333333334,560.5 L671.0277777777778,560.5 L672.7222222222222,560.5 L674.4166666666666,560.5 L676.1111111111111,560.5 L677.8055555555555,560.5 L679.5,560.5 L681.1944444444445,560.5 L682.8888888888889,560.5 L684.5833333333333,560.5 L686.2777777777778,560.5 L687.9722222222222,560.5 L689.6666666666666,560.5 L691.3611111111111,560.5 L693.0555555555555,560.5 L694.75,560.5 L696.4444444444445,560.5 L698.1388888888889,560.5 L699.8333333333334,560.5 L701.5277777777777,560.5 L703.2222222222223,560.5 L704.9166666666666,560.5 L706.6111111111111,560.5 L708.3055555555555,560.5 L710.0,560.5 L711.6944444444445,560.5 L713.3888888888889,560.5 L715.0833333333334,560.5 L716.7777777777777,560.5 L718.4722222222222,560.5 L720.1666666666666,560.5 L721.8611111111111,560.5 L723.5555555555557,560.5 L725.25,560.5 L726.9444444444446,560.5 L728.6388888888888,560.5 L730.3333333333334,560.5 L732.0277777777778,560.5 L733.7222222222223,560.5 L735.4166666666667,560.5 L737.1111111111112,560.5 L738.8055555555555,560.5 L740.5,560.5 L742.1944444444445,560.5 L743.8888888888889,560.5 L745.5833333333334,560.5 L747.2777777777778,560.5 L748.9722222222222,560.5 L750.6666666666666,560.5 L752.3611111111111,560.5 L754.0555555555555,560.5 L755.75,560.5 L757.4444444444445,560.5 L759.1388888888888,566.75 L760.8333333333333,566.75 L762.5277777777777,566.75 L764.2222222222222,566.75 L765.9166666666666,566.75 L767.6111111111112,566.75 L769.3055555555554,566.75 L771.0,566.75 L772.6944444444443,566.75 L774.3888888888889,566.75 L776.0833333333334,566.75 L777.7777777777778,566.75 L779.4722222222223,560.5 L781.1666666666666,560.5 L782.8611111111111,560.5 L784.5555555555555,554.25 L786.25,554.25 L787.9444444444445,554.25 L789.6388888888889,554.25 L791.3333333333334,554.25 L793.0277777777777,554.25 L794.7222222222222,554.25 L796.4166666666666,554.25 L798.1111111111111,548.0 L799.8055555555555,548.0 L801.5000000000001,548.0 L803.1944444444446,548.0 L804.8888888888888,548.0 L806.5833333333333,548.0 L808.2777777777778,548.0 L809.9722222222223,548.0 L811.6666666666666,548.0 L813.3611111111112,548.0 L815.0555555555555,548.0 L816.75,548.0 L818.4444444444443,548.0 L820.1388888888889,548.0 L821.8333333333334,548.0 L823.5277777777778,548.0 L825.2222222222222,548.0 L826.9166666666666,548.0 L828.6111111111111,548.0 L830.3055555555557,548.0 L832.0,548.0 L833.6944444444445,548.0 L835.3888888888888,548.0 L837.0833333333334,548.0 L838.7777777777777,548.0 L840.4722222222222,548.0 L842.1666666666667,548.0 L843.8611111111112,548.0 L845.5555555555554,548.0 L847.2499999999999,548.0 L848.9444444444445,548.0 L850.6388888888889,548.0 L852.3333333333333,548.0 L854.0277777777778,548.0 L855.7222222222223,548.0 L857.4166666666666,548.0 L859.111111111111,548.0 L860.8055555555555,548.0 L862.5,548.0 L864.1944444444445,548.0 L865.888888888889,548.0 L867.5833333333334,548.0 L869.2777777777777,548.0 L870.9722222222222,548.0 L872.6666666666667,548.0 L874.3611111111111,548.0 L876.0555555555555,548.0 L877.7500000000001,548.0 L879.4444444444446,548.0 L881.1388888888888,548.0 L882.8333333333333,548.0 L884.5277777777778,548.0 L886.2222222222223,548.0 L887.9166666666666,548.0 L889.6111111111112,548.0 L891.3055555555555,548.0 L893.0,548.0 L894.6944444444443,548.0 L896.3888888888889,548.0 L898.0833333333334,548.0 L899.7777777777778,548.0 L901.4722222222222,548.0 L903.1666666666666,548.0 L904.8611111111111,548.0 L906.5555555555557,548.0 L908.25,548.0 L909.9444444444445,548.0 L911.6388888888888,548.0 L913.3333333333334,548.0 L915.0277777777777,548.0 L916.7222222222222,548.0 L918.4166666666667,548.0 L920.1111111111112,548.0 L921.8055555555554,548.0 L923.4999999999999,548.0 L925.1944444444445,548.0 L926.8888888888889,548.0 L928.5833333333333,548.0 L930.2777777777778,548.0 L931.9722222222223,548.0 L933.6666666666666,548.0 L935.361111111111,548.0 L937.0555555555555,548.0 L938.75,548.0 L940.4444444444445,548.0 L942.138888888889,548.0 L943.8333333333334,548.0 L945.5277777777777,554.25 L947.2222222222222,554.25 L948.9166666666667,554.25 L950.6111111111111,554.25 L952.3055555555555,554.25 L954.0000000000001,554.25 L955.6944444444446,554.25 L957.3888888888888,554.25 L959.0833333333333,554.25 L960.7777777777778,554.25 L962.4722222222223,554.25 L964.1666666666666,554.25 L965.8611111111112,554.25 L967.5555555555555,554.25 L969.25,554.25 L970.9444444444443,554.25 L972.6388888888889,554.25 L974.3333333333334,554.25 L976.0277777777778,554.25 L977.7222222222222,554.25 L979.4166666666666,554.25 L981.1111111111111,554.25 L982.8055555555557,554.25 L984.5,554.25 L986.1944444444445,554.25 L987.8888888888888,554.25 L989.5833333333334,554.25 L991.2777777777777,554.25 L992.9722222222222,554.25 L994.6666666666667,554.25 L996.3611111111112,554.25 L998.0555555555554,554.25 L999.7499999999999,554.25 L1001.4444444444445,554.25 L1003.1388888888889,554.25 L1004.8333333333333,554.25 L1006.5277777777778,554.25 L1008.2222222222223,554.25 L1009.9166666666666,554.25 L1011.611111111111,554.25 L1013.3055555555555,554.25 L1015.0,554.25 L1016.6944444444445,554.25 L1018.388888888889,554.25 L1020.0833333333334,554.25 L1021.7777777777777,554.25 L1023.4722222222222,554.25 L1025.1666666666667,554.25 L1026.861111111111,554.25 L1028.5555555555557,554.25 L1030.25,560.5 L1031.9444444444446,560.5 L1033.6388888888887,560.5 L1035.3333333333333,560.5 L1037.0277777777778,560.5 L1038.7222222222222,560.5 L1040.4166666666665,560.5 L1042.1111111111113,560.5 L1043.8055555555557,560.5 L1045.5,560.5 L1047.1944444444443,560.5 L1048.888888888889,560.5 L1050.5833333333335,560.5 L1052.2777777777778,560.5 L1053.9722222222222,560.5 L1055.6666666666665,560.5 L1057.361111111111,560.5 L1059.0555555555557,560.5 L1060.75,566.75 L1062.4444444444443,566.75 L1064.1388888888887,573.0 L1065.8333333333335,573.0 L1067.5277777777778,573.0 L1069.2222222222222,573.0 L1070.9166666666667,573.0 L1072.6111111111113,573.0 L1074.3055555555554,566.75 L1076.0,566.75 L1077.6944444444443,566.75 L1079.388888888889,560.5 L1081.0833333333333,560.5 L1082.7777777777778,560.5 L1084.4722222222222,560.5 L1086.1666666666665,560.5 L1087.8611111111109,560.5 L1089.5555555555557,560.5 L1091.25,560.5 L1092.9444444444443,560.5 L1094.6388888888891,560.5 L1096.3333333333335,560.5 L1098.0277777777778,560.5 L1099.7222222222222,560.5 L1101.4166666666667,560.5 L1103.111111111111,560.5 L1104.8055555555557,560.5 L1106.5,560.5 L1108.1944444444446,560.5 L1109.8888888888887,560.5 L1111.5833333333333,560.5 L1113.2777777777778,560.5 L1114.9722222222222,560.5 L1116.6666666666665,560.5 L1118.3611111111113,560.5 L1120.0555555555557,560.5 L1121.75,560.5 L1123.4444444444443,560.5 L1125.138888888889,560.5 L1126.8333333333333,566.75 L1128.5277777777778,566.75 L1130.2222222222222,566.75 L1131.9166666666667,566.75 L1133.611111111111,566.75 L1135.3055555555557,566.75 L1137.0,566.75 L1138.6944444444443,566.75 L1140.388888888889,566.75 L1142.0833333333335,566.75 L1143.7777777777778,566.75 L1145.4722222222222,566.75 L1147.1666666666667,566.75 L1148.861111111111,566.75 L1150.5555555555554,566.75 L1152.25,566.75 L1153.9444444444446,560.5 L1155.638888888889,560.5 L1157.3333333333333,560.5 L1159.0277777777778,560.5 L1160.7222222222222,560.5 L1162.4166666666667,560.5 L1164.111111111111,560.5 L1165.8055555555557,560.5 L1167.5,560.5 L1169.1944444444443,560.5 L1170.888888888889,560.5 L1172.5833333333333,554.25 L1174.2777777777778,554.25 L1175.9722222222222,554.25 L1177.6666666666667,554.25 L1179.361111111111,554.25 L1181.0555555555554,554.25 L1182.75,554.25 L1184.4444444444446,554.25 L1186.138888888889,554.25 L1187.8333333333333,554.25 L1189.5277777777778,554.25 L1191.2222222222222,554.25 L1192.9166666666665,554.25 L1194.611111111111,554.25 L1196.3055555555557,554.25 L1198.0,554.25 L1199.6944444444443,554.25 L1201.388888888889,554.25 L1203.0833333333333,554.25 L1204.7777777777778,554.25 L1206.4722222222222,554.25 L1208.1666666666667,554.25 L1209.861111111111,554.25 L1211.5555555555557,554.25 L1213.25,554.25 L1214.9444444444443,554.25 L1216.638888888889,554.25 L1218.3333333333335,554.25 L1220.0277777777778,554.25 L1221.7222222222222,554.25 L1223.4166666666667,554.25 L1225.111111111111,554.25 L1226.8055555555554,554.25 L1228.5,554.25 L1230.1944444444446,554.25 L1231.888888888889,554.25 L1233.5833333333333,554.25 L1235.2777777777778,554.25 L1236.9722222222222,554.25 L1238.6666666666667,554.25 L1240.361111111111,554.25 L1242.0555555555557,554.25 L1243.75,554.25 L1245.4444444444443,554.25 L1247.138888888889,554.25 L1248.8333333333333,554.25 L1250.5277777777778,554.25 L1252.2222222222222,554.25 L1253.9166666666667,554.25 L1255.611111111111,554.25 L1257.3055555555554,554.25 L1259.0,554.25 L1260.6944444444446,554.25 L1262.388888888889,554.25 L1264.0833333333333,554.25 L1265.7777777777778,554.25 L1267.4722222222222,554.25 L1269.1666666666665,554.25 L1270.861111111111,554.25 L1272.5555555555557,554.25 L1274.25,554.25 L1275.9444444444443,560.5 L1277.638888888889,560.5 L1279.3333333333333,560.5 L1281.0277777777778,560.5 L1282.7222222222222,560.5 L1284.4166666666667,560.5 L1286.111111111111,560.5 L1287.8055555555557,560.5 L1289.5,554.25 L1291.1944444444443,554.25 L1292.888888888889,554.25 L1294.5833333333335,554.25 L1296.2777777777778,560.5 L1297.9722222222222,560.5 L1299.6666666666667,560.5 L1301.361111111111,566.75 L1303.0555555555554,566.75 L1304.75,566.75 L1306.4444444444446,566.75 L1308.138888888889,566.75 L1309.8333333333333,566.75 L1311.5277777777778,566.75 L1313.2222222222222,566.75 L1314.9166666666667,566.75 L1316.611111111111,566.75 L1318.3055555555557,566.75 L1320.0,566.75" fill="none" stroke="#1a1a1a" stroke-width="2.8" stroke-linejoin="round" />
<text x="90" y="698.0" font-size="18" font-family="Helvetica" text-anchor="end" dominant-baseline="central" fill="#777">0</text>
<text x="90" y="548.0" font-size="18" font-family="Helvetica" text-anchor="end" dominant-baseline="central" fill="#777">24</text>
<text x="60" y="623.0" font-size="22" font-family="Helvetica" text-anchor="middle" fill="#555" transform="rotate(-90 60 623.0)">lineages</text>
<text x="771.0" y="680" font-size="20" font-family="Helvetica" text-anchor="middle" fill="#555" font-style="italic">fast growth while small, then a plateau near K</text>
<path d="M100.0,698 L100.0,704" stroke="#1a1a1a" stroke-width="1.2" />
<text x="100.0" y="720" font-size="18" font-family="Helvetica" text-anchor="middle" fill="#777">0</text>
<path d="M344.0,698 L344.0,704" stroke="#1a1a1a" stroke-width="1.2" />
<text x="344.0" y="720" font-size="18" font-family="Helvetica" text-anchor="middle" fill="#777">1.4</text>
<path d="M588.0,698 L588.0,704" stroke="#1a1a1a" stroke-width="1.2" />
<text x="588.0" y="720" font-size="18" font-family="Helvetica" text-anchor="middle" fill="#777">2.8</text>
<path d="M832.0,698 L832.0,704" stroke="#1a1a1a" stroke-width="1.2" />
<text x="832.0" y="720" font-size="18" font-family="Helvetica" text-anchor="middle" fill="#777">4.2</text>
<path d="M1076.0,698 L1076.0,704" stroke="#1a1a1a" stroke-width="1.2" />
<text x="1076.0" y="720" font-size="18" font-family="Helvetica" text-anchor="middle" fill="#777">5.6</text>
<path d="M1320.0,698 L1320.0,704" stroke="#1a1a1a" stroke-width="1.2" />
<text x="1320.0" y="720" font-size="18" font-family="Helvetica" text-anchor="middle" fill="#777">7</text>
<text x="710.0" y="744" font-size="22" font-family="Helvetica" text-anchor="middle" fill="#555">time (root to present)</text>
</svg>