<?xml version="1.0" encoding="UTF-8"?>
<svg xmlns="http://www.w3.org/2000/svg" xmlns:xlink="http://www.w3.org/1999/xlink"
     width="920" height="900" viewBox="-460.0 -450.0 920 900">
<defs>
</defs>
<rect x="-460.0" y="-450.0" width="920" height="900" fill="white" />
<path d="M-48.38075664769735,-330.0 L339.9997280001088,-330.0" stroke="#1a1a1a" stroke-width="2.6" stroke-linecap="round" />
<path d="M126.77221329111467,-270.0 L339.9997280001088,-270.0" stroke="#1a1a1a" stroke-width="2.6" stroke-linecap="round" />
<path d="M126.77221329111467,-210.0 L339.9997280001088,-210.0" stroke="#1a1a1a" stroke-width="2.6" stroke-linecap="round" />
<path d="M-48.38075664769735,-240.0 L126.77221329111467,-240.0" stroke="#1a1a1a" stroke-width="2.6" stroke-linecap="round" />
<path d="M126.77221329111467,-240.0 L126.77221329111467,-270.0" stroke="#1a1a1a" stroke-width="2.6" stroke-linecap="round" />
<path d="M126.77221329111467,-240.0 L126.77221329111467,-210.0" stroke="#1a1a1a" stroke-width="2.6" stroke-linecap="round" />
<path d="M-188.21794071282372,-285.0 L-48.38075664769735,-285.0" stroke="#1a1a1a" stroke-width="2.6" stroke-linecap="round" />
<path d="M-48.38075664769735,-285.0 L-48.38075664769735,-330.0" stroke="#1a1a1a" stroke-width="2.6" stroke-linecap="round" />
<path d="M-48.38075664769735,-285.0 L-48.38075664769735,-240.0" stroke="#1a1a1a" stroke-width="2.6" stroke-linecap="round" />
<path d="M300.6882637246945,-150.0 L339.9994560002176,-150.0" stroke="#1a1a1a" stroke-width="2.6" stroke-linecap="round" />
<path d="M300.6882637246945,-90.0 L339.9994560002176,-90.0" stroke="#1a1a1a" stroke-width="2.6" stroke-linecap="round" />
<path d="M-188.21794071282372,-120.0 L300.6882637246945,-120.0" stroke="#1a1a1a" stroke-width="2.6" stroke-linecap="round" />
<path d="M300.6882637246945,-120.0 L300.6882637246945,-150.0" stroke="#1a1a1a" stroke-width="2.6" stroke-linecap="round" />
<path d="M300.6882637246945,-120.0 L300.6882637246945,-90.0" stroke="#1a1a1a" stroke-width="2.6" stroke-linecap="round" />
<path d="M-340.0,-202.5 L-188.21794071282372,-202.5" stroke="#1a1a1a" stroke-width="2.6" stroke-linecap="round" />
<path d="M-188.21794071282372,-202.5 L-188.21794071282372,-285.0" stroke="#1a1a1a" stroke-width="2.6" stroke-linecap="round" />
<path d="M-188.21794071282372,-202.5 L-188.21794071282372,-120.0" stroke="#1a1a1a" stroke-width="2.6" stroke-linecap="round" />
<path d="M-52.17801112879556,-30.0 L339.99959200016315,-30.0" stroke="#1a1a1a" stroke-width="2.6" stroke-linecap="round" />
<path d="M-52.17801112879556,30.0 L339.99959200016315,30.0" stroke="#1a1a1a" stroke-width="2.6" stroke-linecap="round" />
<path d="M-121.65086333965468,0.0 L-52.17801112879556,0.0" stroke="#1a1a1a" stroke-width="2.6" stroke-linecap="round" />
<path d="M-52.17801112879556,0.0 L-52.17801112879556,-30.0" stroke="#1a1a1a" stroke-width="2.6" stroke-linecap="round" />
<path d="M-52.17801112879556,0.0 L-52.17801112879556,30.0" stroke="#1a1a1a" stroke-width="2.6" stroke-linecap="round" />
<path d="M-111.1547955380818,90.0 L339.99986400005446,90.0" stroke="#1a1a1a" stroke-width="2.6" stroke-linecap="round" />
<path d="M-100.22298391080645,150.0 L340.0,150.0" stroke="#1a1a1a" stroke-width="2.6" stroke-linecap="round" />
<path d="M65.6445897421641,210.0 L340.0,210.0" stroke="#1a1a1a" stroke-width="2.6" stroke-linecap="round" />
<path d="M65.6445897421641,270.0 L340.0,270.0" stroke="#1a1a1a" stroke-width="2.6" stroke-linecap="round" />
<path d="M-100.22298391080645,240.0 L65.6445897421641,240.0" stroke="#1a1a1a" stroke-width="2.6" stroke-linecap="round" />
<path d="M65.6445897421641,240.0 L65.6445897421641,210.0" stroke="#1a1a1a" stroke-width="2.6" stroke-linecap="round" />
<path d="M65.6445897421641,240.0 L65.6445897421641,270.0" stroke="#1a1a1a" stroke-width="2.6" stroke-linecap="round" />
<path d="M-111.1547955380818,195.0 L-100.22298391080645,195.0" stroke="#1a1a1a" stroke-width="2.6" stroke-linecap="round" />
<path d="M-100.22298391080645,195.0 L-100.22298391080645,150.0" stroke="#1a1a1a" stroke-width="2.6" stroke-linecap="round" />
<path d="M-100.22298391080645,195.0 L-100.22298391080645,240.0" stroke="#1a1a1a" stroke-width="2.6" stroke-linecap="round" />
<path d="M-121.65086333965468,142.5 L-111.1547955380818,142.5" stroke="#1a1a1a" stroke-width="2.6" stroke-linecap="round" />
<path d="M-111.1547955380818,142.5 L-111.1547955380818,90.0" stroke="#1a1a1a" stroke-width="2.6" stroke-linecap="round" />
<path d="M-111.1547955380818,142.5 L-111.1547955380818,195.0" stroke="#1a1a1a" stroke-width="2.6" stroke-linecap="round" />
<path d="M-311.39186744325303,71.25 L-121.65086333965468,71.25" stroke="#1a1a1a" stroke-width="2.6" stroke-linecap="round" />
<path d="M-121.65086333965468,71.25 L-121.65086333965468,0.0" stroke="#1a1a1a" stroke-width="2.6" stroke-linecap="round" />
<path d="M-121.65086333965468,71.25 L-121.65086333965468,142.5" stroke="#1a1a1a" stroke-width="2.6" stroke-linecap="round" />
<path d="M-311.39186744325303,330.0 L144.7233901106439,330.0" stroke="#1a1a1a" stroke-width="2.6" stroke-dasharray="6,5" stroke-linecap="butt" />
<path d="M-340.0,200.625 L-311.39186744325303,200.625" stroke="#1a1a1a" stroke-width="2.6" stroke-linecap="round" />
<path d="M-311.39186744325303,200.625 L-311.39186744325303,71.25" stroke="#1a1a1a" stroke-width="2.6" stroke-linecap="round" />
<path d="M-311.39186744325303,200.625 L-311.39186744325303,330.0" stroke="#1a1a1a" stroke-width="2.6" stroke-dasharray="6,5" stroke-linecap="butt" />
<path d="M-354.0,-0.9375 L-340.0,-0.9375" stroke="#1a1a1a" stroke-width="2.6" stroke-linecap="round" />
<path d="M-340.0,-0.9375 L-340.0,-202.5" stroke="#1a1a1a" stroke-width="2.6" stroke-linecap="round" />
<path d="M-340.0,-0.9375 L-340.0,200.625" stroke="#1a1a1a" stroke-width="2.6" stroke-linecap="round" />
<text x="351.9997280001088" y="-330.0" font-size="18" fill="#1a1a1a" font-family="Helvetica" transform="" text-anchor="start" dominant-baseline="middle">A_1</text>
<text x="351.9997280001088" y="-270.0" font-size="18" fill="#1a1a1a" font-family="Helvetica" transform="" text-anchor="start" dominant-baseline="middle">B_1</text>
<text x="351.9997280001088" y="-210.0" font-size="18" fill="#1a1a1a" font-family="Helvetica" transform="" text-anchor="start" dominant-baseline="middle">C_1</text>
<text x="351.9994560002176" y="-150.0" font-size="18" fill="#1a1a1a" font-family="Helvetica" transform="" text-anchor="start" dominant-baseline="middle">D_1</text>
<text x="351.9994560002176" y="-90.0" font-size="18" fill="#1a1a1a" font-family="Helvetica" transform="" text-anchor="start" dominant-baseline="middle">E_1</text>
<text x="351.99959200016315" y="-30.0" font-size="18" fill="#1a1a1a" font-family="Helvetica" transform="" text-anchor="start" dominant-baseline="middle">F_1</text>
<text x="351.99959200016315" y="30.0" font-size="18" fill="#1a1a1a" font-family="Helvetica" transform="" text-anchor="start" dominant-baseline="middle">G_1</text>
<text x="351.99986400005446" y="90.0" font-size="18" fill="#1a1a1a" font-family="Helvetica" transform="" text-anchor="start" dominant-baseline="middle">G_2</text>
<text x="352.0" y="150.0" font-size="18" fill="#1a1a1a" font-family="Helvetica" transform="" text-anchor="start" dominant-baseline="middle">H_1</text>
<text x="352.0" y="210.0" font-size="18" fill="#1a1a1a" font-family="Helvetica" transform="" text-anchor="start" dominant-baseline="middle">I_1</text>
<text x="352.0" y="270.0" font-size="18" fill="#1a1a1a" font-family="Helvetica" transform="" text-anchor="start" dominant-baseline="middle">I_2</text>
<text x="156.7233901106439" y="330.0" font-size="18" fill="#1a1a1a" font-family="Helvetica" transform="" text-anchor="start" dominant-baseline="middle"></text>
<rect x="56.6445897421641" y="231.0" width="18.0" height="18.0" fill="#1a1a1a" opacity="1.0" />
<path d="M-52.17801112879556,-10.392304845413262 L-61.17801112879556,5.196152422706631 L-43.17801112879556,5.196152422706631 Z" fill="#1a1a1a" opacity="1.0" />
<text x="-34.17801112879556" y="-42.0" font-size="20" fill="#8a8a8a" font-weight="normal" font-family="Helvetica" text-anchor="start" dominant-baseline="middle">remaining copy</text>
<text x="-34.17801112879556" y="18.0" font-size="20" fill="#8a8a8a" font-weight="normal" font-family="Helvetica" text-anchor="start" dominant-baseline="middle">transferred copy</text>
<path d="M135.7233901106439,321.0 L153.7233901106439,339.0" stroke="#1a1a1a" stroke-width="3.0" stroke-linecap="round" />
<path d="M135.7233901106439,339.0 L153.7233901106439,321.0" stroke="#1a1a1a" stroke-width="3.0" stroke-linecap="round" />
<path d="M-354.0,346.0 L339.9997280001088,346.0" stroke="black" stroke-width="1.6" />
<path d="M-340.0,346.0 L-340.0,352.0" stroke="black" stroke-width="1.6" />
<text x="-340.0" y="370.0" font-size="18" text-anchor="middle" font-family="Helvetica">0.00</text>
<path d="M-170.0000679999728,346.0 L-170.0000679999728,352.0" stroke="black" stroke-width="1.6" />
<text x="-170.0000679999728" y="370.0" font-size="18" text-anchor="middle" font-family="Helvetica">0.25</text>
<path d="M-0.00013599994559854167,346.0 L-0.00013599994559854167,352.0" stroke="black" stroke-width="1.6" />
<text x="-0.00013599994559854167" y="370.0" font-size="18" text-anchor="middle" font-family="Helvetica">0.50</text>
<path d="M169.99979600008157,346.0 L169.99979600008157,352.0" stroke="black" stroke-width="1.6" />
<text x="169.99979600008157" y="370.0" font-size="18" text-anchor="middle" font-family="Helvetica">0.75</text>
<path d="M339.9997280001088,346.0 L339.9997280001088,352.0" stroke="black" stroke-width="1.6" />
<text x="339.9997280001088" y="370.0" font-size="18" text-anchor="middle" font-family="Helvetica">1.00</text>
<text x="-7.0001359999455985" y="397.0" font-size="18" text-anchor="middle" font-family="Helvetica">Time (root to present)</text>
<text x="0" y="-408.0" font-size="32" font-weight="bold" font-family="Helvetica" text-anchor="middle" dominant-baseline="central" fill="#1a1a1a">The reconciled gene tree</text>
<rect x="-427.0" y="-371.0" width="18.0" height="18.0" fill="#1a1a1a" opacity="1.0" />
<text x="-385.0" y="-362.0" font-size="22" font-family="Helvetica" text-anchor="start" dominant-baseline="central" fill="#1a1a1a">Duplication</text>
<path d="M-418.0,-332.39230484541326 L-427.0,-316.80384757729337 L-409.0,-316.80384757729337 Z" fill="#1a1a1a" opacity="1.0" />
<text x="-385.0" y="-322.0" font-size="22" font-family="Helvetica" text-anchor="start" dominant-baseline="central" fill="#1a1a1a">Transfer</text>
<path d="M-427.0,-291.0 L-409.0,-273.0" stroke="#1a1a1a" stroke-width="3.0" stroke-linecap="round" />
<path d="M-427.0,-273.0 L-409.0,-291.0" stroke="#1a1a1a" stroke-width="3.0" stroke-linecap="round" />
<text x="-385.0" y="-282.0" font-size="22" font-family="Helvetica" text-anchor="start" dominant-baseline="central" fill="#1a1a1a">Loss</text>
</svg>