<?xml version="1.0" encoding="UTF-8"?>
<svg xmlns="http://www.w3.org/2000/svg" xmlns:xlink="http://www.w3.org/1999/xlink"
     width="1200" height="612" viewBox="0 0 1200 612">
<defs>
</defs>
<rect x="0" y="0" width="1200" height="612" fill="white" />
<text x="600.0" y="46" font-size="32" font-family="Helvetica" text-anchor="middle" font-weight="bold" fill="#1a1a1a">Gene-conditioned trait (genes to traits)</text>
<path d="M300.0,82 L332.0,82" stroke="#1a1a1a" stroke-width="5.2" />
<text x="340.0" y="82" font-size="18" font-family="Helvetica" text-anchor="start" dominant-baseline="central" fill="#1a1a1a">modifier present</text>
<path d="M490.0,82 L522.0,82" stroke="#9a9a9a" stroke-width="2.4" />
<text x="530.0" y="82" font-size="18" font-family="Helvetica" text-anchor="start" dominant-baseline="central" fill="#1a1a1a">absent</text>
<circle cx="640.0" cy="82" r="6.5" fill="#1a1a1a" stroke="#1a1a1a" stroke-width="1.8" />
<text x="654.0" y="82" font-size="18" font-family="Helvetica" text-anchor="start" dominant-baseline="central" fill="#1a1a1a">tip trait value</text>
<text x="90" y="204" font-size="22" font-family="Helvetica" text-anchor="start" fill="#1a1a1a" font-weight="bold">A   the mechanism</text>
<path d="M90,220 L90,520" stroke="#1a1a1a" stroke-width="1.4" />
<path d="M90,520 L390,520" stroke="#1a1a1a" stroke-width="1.4" />
<path d="M90,477.14285714285717 L390,477.14285714285717" stroke="#8a8a8a" stroke-width="2.0" stroke-dasharray="6,5" />
<text x="390" y="469.14285714285717" font-size="18" font-family="Helvetica" text-anchor="end" fill="#8a8a8a">theta_absent</text>
<path d="M90,262.8571428571429 L390,262.8571428571429" stroke="#8a8a8a" stroke-width="2.0" stroke-dasharray="6,5" />
<text x="390" y="254.8571428571429" font-size="18" font-family="Helvetica" text-anchor="end" fill="#8a8a8a">theta_present</text>
<text x="78" y="370.0" font-size="18" font-family="Helvetica" text-anchor="middle" dominant-baseline="central" fill="#8a8a8a" transform="rotate(-90 78 370.0)">trait</text>
<text x="240.0" y="546" font-size="18" font-family="Helvetica" text-anchor="middle" fill="#8a8a8a">time</text>
<path d="M96.0,452.6518276862349 L102.14285714285714,507.81083751862735 L108.28571428571428,472.12567098214777 L114.42857142857143,483.9560924163923 L120.57142857142857,482.5746486481825 L126.71428571428572,479.73002309993433 L132.85714285714286,501.3826906926242 L139.0,479.92604567458744 L145.14285714285714,487.52541405815646 L151.28571428571428,437.26686294311855 L157.42857142857144,474.43341778412207 L163.57142857142856,481.3744266749563 L169.71428571428572,480.5183061606733 L175.85714285714283,485.15941329616453 L182.0,489.8046637573186 L188.14285714285714,481.832468869673 L194.28571428571428,471.3595124807757 L200.42857142857144,480.00550042173757 L206.57142857142856,465.64975270734 L212.71428571428572,479.5404826916561 L218.85714285714286,476.85174236193717 L225.0,458.5930069283034" fill="none" stroke="#9a9a9a" stroke-width="3.0" />
<path d="M225.0,458.5930069283034 L225.0,435.83721280512975 L229.8181818181818,425.0325917313145 L234.63636363636363,412.1607116645606 L239.45454545454544,393.6270106582048 L244.27272727272728,363.61260680603436 L249.0909090909091,357.0867495655722 L253.9090909090909,350.90249536455934 L258.72727272727275,333.5280282554354 L263.54545454545456,335.525699462246 L268.3636363636364,331.73603441650545 L273.1818181818182,317.21585248300164 L278.0,306.8516970354459 L282.8181818181818,302.0293153855936 L287.6363636363636,292.1856930839359 L292.45454545454544,316.2116538851943 L297.27272727272725,301.7802836133832 L302.0909090909091,307.3252801092269 L306.9090909090909,319.0558491301528 L311.72727272727275,311.39147697581245 L316.5454545454545,300.4182494146951 L321.3636363636364,301.2312715495245 L326.18181818181824,307.92656931673207 L331.0,303.62400107633385 L335.8181818181818,300.4523156000395 L340.6363636363636,283.81596734500823 L345.4545454545455,274.8826835448665 L350.27272727272725,271.9729802181906 L355.09090909090907,260.67144177787014 L359.9090909090909,262.80594363125925 L364.72727272727275,271.54046182741627 L369.54545454545456,265.2521276161393 L374.3636363636364,259.5440738976474 L379.1818181818182,261.8677798374838 L384.0,269.3375891014848" fill="none" stroke="#1a1a1a" stroke-width="4.4" />
<circle cx="225.0" cy="458.5930069283034" r="8.5" fill="white" stroke="#1a1a1a" stroke-width="1.8" />
<text x="225.0" y="459.5930069283034" font-size="18" font-family="Helvetica" text-anchor="middle" dominant-baseline="central" fill="#1a1a1a" font-weight="bold">+</text>
<text x="209.0" y="432.5930069283034" font-size="18" font-family="Helvetica" text-anchor="end" fill="#1a1a1a" font-style="italic">gene gained</text>
<text x="500" y="184" font-size="22" font-family="Helvetica" text-anchor="start" fill="#1a1a1a" font-weight="bold">B   a simulated realization</text>
<path d="M500.0,259.45454545454544 L638.1732885024471,259.45454545454544" stroke="#9a9a9a" stroke-width="2.4" stroke-linecap="butt" />
<path d="M500.0,415.81818181818187 L575.340190141321,415.81818181818187" stroke="#9a9a9a" stroke-width="2.4" stroke-linecap="butt" />
<path d="M638.1732885024471,234.0 L750.0,234.0" stroke="#9a9a9a" stroke-width="2.4" stroke-linecap="butt" />
<path d="M638.1732885024471,284.9090909090909 L662.7283032747616,284.9090909090909" stroke="#9a9a9a" stroke-width="2.4" stroke-linecap="butt" />
<path d="M575.340190141321,364.9090909090909 L724.8207360053239,364.9090909090909" stroke="#9a9a9a" stroke-width="2.4" stroke-linecap="butt" />
<path d="M575.340190141321,466.72727272727275 L595.3769544462272,466.72727272727275" stroke="#9a9a9a" stroke-width="2.4" stroke-linecap="butt" />
<path d="M595.3769544462272,466.72727272727275 L596.2766397419936,466.72727272727275" stroke="#1a1a1a" stroke-width="5.2" stroke-linecap="butt" />
<path d="M662.7283032747616,263.0909090909091 L750.0,263.0909090909091" stroke="#9a9a9a" stroke-width="2.4" stroke-linecap="butt" />
<path d="M662.7283032747616,306.72727272727275 L711.4336606293922,306.72727272727275" stroke="#9a9a9a" stroke-width="2.4" stroke-linecap="butt" />
<path d="M724.8207360053239,350.3636363636364 L750.0,350.3636363636364" stroke="#9a9a9a" stroke-width="2.4" stroke-linecap="butt" />
<path d="M724.8207360053239,379.45454545454544 L750.0,379.45454545454544" stroke="#9a9a9a" stroke-width="2.4" stroke-linecap="butt" />
<path d="M596.2766397419936,423.0909090909091 L672.8497441373645,423.0909090909091" stroke="#1a1a1a" stroke-width="5.2" stroke-linecap="butt" />
<path d="M596.2766397419936,510.3636363636364 L732.4177611703293,510.3636363636364" stroke="#1a1a1a" stroke-width="5.2" stroke-linecap="butt" />
<path d="M711.4336606293922,292.1818181818182 L750.0,292.1818181818182" stroke="#9a9a9a" stroke-width="2.4" stroke-linecap="butt" />
<path d="M711.4336606293922,321.27272727272725 L750.0,321.27272727272725" stroke="#9a9a9a" stroke-width="2.4" stroke-linecap="butt" />
<path d="M672.8497441373645,408.5454545454545 L750.0,408.5454545454545" stroke="#1a1a1a" stroke-width="5.2" stroke-linecap="butt" />
<path d="M672.8497441373645,437.6363636363636 L750.0,437.6363636363636" stroke="#1a1a1a" stroke-width="5.2" stroke-linecap="butt" />
<path d="M732.4177611703293,481.27272727272725 L736.9009810086021,481.27272727272725" stroke="#1a1a1a" stroke-width="5.2" stroke-linecap="butt" />
<path d="M732.4177611703293,539.4545454545455 L735.5550983530411,539.4545454545455" stroke="#1a1a1a" stroke-width="5.2" stroke-linecap="butt" />
<path d="M736.9009810086021,466.72727272727275 L750.0,466.72727272727275" stroke="#1a1a1a" stroke-width="5.2" stroke-linecap="butt" />
<path d="M736.9009810086021,495.8181818181818 L750.0,495.8181818181818" stroke="#1a1a1a" stroke-width="5.2" stroke-linecap="butt" />
<path d="M735.5550983530411,524.9090909090909 L750.0,524.9090909090909" stroke="#1a1a1a" stroke-width="5.2" stroke-linecap="butt" />
<path d="M735.5550983530411,554.0 L750.0,554.0" stroke="#1a1a1a" stroke-width="5.2" stroke-linecap="butt" />
<path d="M711.4336606293922,292.1818181818182 L711.4336606293922,321.27272727272725" stroke="#1a1a1a" stroke-width="2.4" />
<path d="M662.7283032747616,263.0909090909091 L662.7283032747616,306.72727272727275" stroke="#1a1a1a" stroke-width="2.4" />
<path d="M638.1732885024471,234.0 L638.1732885024471,284.9090909090909" stroke="#1a1a1a" stroke-width="2.4" />
<path d="M724.8207360053239,350.3636363636364 L724.8207360053239,379.45454545454544" stroke="#1a1a1a" stroke-width="2.4" />
<path d="M672.8497441373645,408.5454545454545 L672.8497441373645,437.6363636363636" stroke="#1a1a1a" stroke-width="2.4" />
<path d="M736.9009810086021,466.72727272727275 L736.9009810086021,495.8181818181818" stroke="#1a1a1a" stroke-width="2.4" />
<path d="M735.5550983530411,524.9090909090909 L735.5550983530411,554.0" stroke="#1a1a1a" stroke-width="2.4" />
<path d="M732.4177611703293,481.27272727272725 L732.4177611703293,539.4545454545455" stroke="#1a1a1a" stroke-width="2.4" />
<path d="M596.2766397419936,423.0909090909091 L596.2766397419936,510.3636363636364" stroke="#1a1a1a" stroke-width="2.4" />
<path d="M575.340190141321,364.9090909090909 L575.340190141321,466.72727272727275" stroke="#1a1a1a" stroke-width="2.4" />
<path d="M500.0,259.45454545454544 L500.0,415.81818181818187" stroke="#1a1a1a" stroke-width="2.4" />
<path d="M852.6666666666666,218.0 L852.6666666666666,566.0" stroke="#8a8a8a" stroke-width="2.0" stroke-dasharray="6,5" />
<text x="852.6666666666666" y="210.0" font-size="18" font-family="Helvetica" text-anchor="middle" fill="#8a8a8a">theta_absent</text>
<path d="M1066.0,218.0 L1066.0,566.0" stroke="#8a8a8a" stroke-width="2.0" stroke-dasharray="6,5" />
<text x="1066.0" y="210.0" font-size="18" font-family="Helvetica" text-anchor="middle" fill="#8a8a8a">theta_present</text>
<circle cx="867.2922091313237" cy="234.0" r="6.5" fill="white" stroke="#1a1a1a" stroke-width="1.8" />
<circle cx="864.1885278409312" cy="263.0909090909091" r="6.5" fill="white" stroke="#1a1a1a" stroke-width="1.8" />
<circle cx="837.205025387116" cy="292.1818181818182" r="6.5" fill="white" stroke="#1a1a1a" stroke-width="1.8" />
<circle cx="839.9066396387236" cy="321.27272727272725" r="6.5" fill="white" stroke="#1a1a1a" stroke-width="1.8" />
<circle cx="856.1830202581169" cy="350.3636363636364" r="6.5" fill="white" stroke="#1a1a1a" stroke-width="1.8" />
<circle cx="848.7872256700049" cy="379.45454545454544" r="6.5" fill="white" stroke="#1a1a1a" stroke-width="1.8" />
<circle cx="1021.4504740017713" cy="408.5454545454545" r="6.5" fill="#1a1a1a" stroke="#1a1a1a" stroke-width="1.8" />
<circle cx="1057.995886833915" cy="437.6363636363636" r="6.5" fill="#1a1a1a" stroke="#1a1a1a" stroke-width="1.8" />
<circle cx="1045.7795765171977" cy="466.72727272727275" r="6.5" fill="#1a1a1a" stroke="#1a1a1a" stroke-width="1.8" />
<circle cx="1039.892071714909" cy="495.8181818181818" r="6.5" fill="#1a1a1a" stroke="#1a1a1a" stroke-width="1.8" />
<circle cx="1036.1045162895591" cy="524.9090909090909" r="6.5" fill="#1a1a1a" stroke="#1a1a1a" stroke-width="1.8" />
<circle cx="1046.9007560867244" cy="554.0" r="6.5" fill="#1a1a1a" stroke="#1a1a1a" stroke-width="1.8" />
<text x="970.0" y="588.0" font-size="18" font-family="Helvetica" text-anchor="middle" fill="#8a8a8a">trait value at the tip</text>
</svg>