<svg xmlns="http://www.w3.org/2000/svg" xmlns:xlink="http://www.w3.org/1999/xlink" width="1800" height="1030" viewBox="0 0 1800 1030">
<rect x="0" y="0" width="1800" height="1030" fill="white" />
<svg x="0" y="0" xmlns="http://www.w3.org/2000/svg" width="900" height="900" viewBox="0 0 900 900">
<rect x="0" y="0" width="900" height="900" fill="white" />
<text x="40.0" y="58.0" font-size="46" font-family="Helvetica" text-anchor="start" dominant-baseline="middle" font-weight="bold" fill="#1a1a1a">A</text>
<text x="96.0" y="58.0" font-size="40" font-family="Helvetica" text-anchor="start" dominant-baseline="middle" font-weight="normal" fill="#1a1a1a">The mechanism</text>
<line x1="96.0" y1="170.0" x2="96.0" y2="812.0" stroke="#8a8a8a" stroke-width="2.4" stroke-linecap="butt" />
<polygon points="96,828 88,810 104,810" fill="#8a8a8a" />
<text transform="rotate(-90 80 491)" x="80.0" y="491.0" font-size="30" font-family="Helvetica" text-anchor="middle" dominant-baseline="middle" font-weight="normal" fill="#8a8a8a">time</text>
<line x1="460.0" y1="200.0" x2="460.0" y2="300.0" stroke="#1a1a1a" stroke-width="4.5" stroke-linecap="round" />
<line x1="360.0" y1="300.0" x2="560.0" y2="300.0" stroke="#1a1a1a" stroke-width="4.5" stroke-linecap="round" />
<rect x="446.0" y="286.0" width="28.0" height="28.0" fill="#1a1a1a" />
<line x1="360.0" y1="300.0" x2="360.0" y2="812.0" stroke="#1a1a1a" stroke-width="4.5" stroke-linecap="round" />
<line x1="560.0" y1="300.0" x2="560.0" y2="585.0" stroke="#1a1a1a" stroke-width="4.5" stroke-linecap="butt" stroke-dasharray="9,7" />
<line x1="360.0" y1="585.0" x2="560.0" y2="585.0" stroke="#1a1a1a" stroke-width="4.5" stroke-linecap="round" />
<line x1="560.0" y1="585.0" x2="560.0" y2="812.0" stroke="#1a1a1a" stroke-width="4.5" stroke-linecap="round" />
<line x1="547.0" y1="572.0" x2="573.0" y2="598.0" stroke="#1a1a1a" stroke-width="4.5" stroke-linecap="round" /><line x1="547.0" y1="598.0" x2="573.0" y2="572.0" stroke="#1a1a1a" stroke-width="4.5" stroke-linecap="round" />
<circle cx="360.0" cy="585.0" r="14.0" fill="white" stroke="#1a1a1a" stroke-width="3.2" /><line x1="351.9" y1="576.9" x2="368.1" y2="593.1" stroke="#1a1a1a" stroke-width="3.2" stroke-linecap="round" /><line x1="351.9" y1="593.1" x2="368.1" y2="576.9" stroke="#1a1a1a" stroke-width="3.2" stroke-linecap="round" />
<text x="334.0" y="585.0" font-size="30" font-family="Helvetica" text-anchor="end" dominant-baseline="middle" font-weight="normal" fill="#1a1a1a">conversion</text>
<text x="360.0" y="846.0" font-size="30" font-family="Helvetica" text-anchor="middle" dominant-baseline="middle" font-weight="normal" fill="#1a1a1a">copy 1</text>
<text x="560.0" y="846.0" font-size="30" font-family="Helvetica" text-anchor="middle" dominant-baseline="middle" font-weight="normal" fill="#1a1a1a">copy 2</text>
<line x1="648.0" y1="585.0" x2="648.0" y2="812.0" stroke="#1a1a1a" stroke-width="2.4" stroke-linecap="butt" />
<line x1="640.0" y1="585.0" x2="648.0" y2="585.0" stroke="#1a1a1a" stroke-width="2.4" stroke-linecap="butt" />
<line x1="640.0" y1="812.0" x2="648.0" y2="812.0" stroke="#1a1a1a" stroke-width="2.4" stroke-linecap="butt" />
<text x="662.0" y="680.5" font-size="26" font-family="Helvetica" text-anchor="start" dominant-baseline="middle" font-weight="normal" fill="#1a1a1a">copies coalesce</text>
<text x="662.0" y="714.5" font-size="26" font-family="Helvetica" text-anchor="start" dominant-baseline="middle" font-weight="normal" fill="#1a1a1a">at the conversion,</text>
<text x="662.0" y="746.5" font-size="26" font-family="Helvetica" text-anchor="start" dominant-baseline="middle" font-weight="normal" fill="#8a8a8a">not the duplication</text>
<text x="460.0" y="128.0" font-size="26" font-family="Helvetica" text-anchor="middle" dominant-baseline="middle" font-weight="normal" fill="#8a8a8a">copy number is unchanged: 2 copies before and after</text>
</svg>
<svg x="900" y="0" xmlns="http://www.w3.org/2000/svg" xmlns:xlink="http://www.w3.org/1999/xlink"
     width="900" height="900" viewBox="-450.0 -450.0 900 900">
<defs>
</defs>
<rect x="-450.0" y="-450.0" width="900" height="900" fill="white" />
<path d="M-238.17164728144027,-310.0 L309.99964502563546,-310.0" stroke="#1a1a1a" stroke-width="2.6" stroke-linecap="round" />
<path d="M297.760838884579,-103.33333333333334 L310.0,-103.33333333333334" stroke="#1a1a1a" stroke-width="2.6" stroke-linecap="round" />
<path d="M297.760838884579,103.33333333333331 L310.0,103.33333333333331" stroke="#1a1a1a" stroke-width="2.6" stroke-linecap="round" />
<path d="M-13.690118830531276,-1.4210854715202004e-14 L297.760838884579,-1.4210854715202004e-14" stroke="#1a1a1a" stroke-width="2.6" stroke-linecap="round" />
<path d="M297.760838884579,-1.4210854715202004e-14 L297.760838884579,-103.33333333333334" stroke="#1a1a1a" stroke-width="2.6" stroke-linecap="round" />
<path d="M297.760838884579,-1.4210854715202004e-14 L297.760838884579,103.33333333333331" stroke="#1a1a1a" stroke-width="2.6" stroke-linecap="round" />
<path d="M-13.690118830531276,310.0 L297.760838884579,310.0" stroke="#1a1a1a" stroke-width="2.6" stroke-dasharray="6,5" stroke-linecap="butt" />
<path d="M-238.17164728144027,155.0 L-13.690118830531276,155.0" stroke="#1a1a1a" stroke-width="2.6" stroke-linecap="round" />
<path d="M-13.690118830531276,155.0 L-13.690118830531276,-1.4210854715202004e-14" stroke="#1a1a1a" stroke-width="2.6" stroke-linecap="round" />
<path d="M-13.690118830531276,155.0 L-13.690118830531276,310.0" stroke="#1a1a1a" stroke-width="2.6" stroke-dasharray="6,5" stroke-linecap="butt" />
<path d="M-252.17164728144027,-77.5 L-238.17164728144027,-77.5" stroke="#1a1a1a" stroke-width="2.6" stroke-linecap="round" />
<path d="M-238.17164728144027,-77.5 L-238.17164728144027,-310.0" stroke="#1a1a1a" stroke-width="2.6" stroke-linecap="round" />
<path d="M-238.17164728144027,-77.5 L-238.17164728144027,155.0" stroke="#1a1a1a" stroke-width="2.6" stroke-linecap="round" />
<text x="323.99964502563546" y="-310.0" font-size="30" fill="#1a1a1a" font-family="Helvetica" transform="" text-anchor="start" dominant-baseline="middle">A_1</text>
<text x="324.0" y="-103.33333333333334" font-size="30" fill="#1a1a1a" font-family="Helvetica" transform="" text-anchor="start" dominant-baseline="middle">B_1</text>
<text x="324.0" y="103.33333333333331" font-size="30" fill="#1a1a1a" font-family="Helvetica" transform="" text-anchor="start" dominant-baseline="middle">B_2</text>
<text x="311.760838884579" y="310.0" font-size="30" fill="#1a1a1a" font-family="Helvetica" transform="" text-anchor="start" dominant-baseline="middle"></text>
<rect x="-27.690118830531276" y="141.0" width="28.0" height="28.0" fill="#1a1a1a" opacity="1.0" />
<text x="275.760838884579" y="-28.000000000000014" font-size="26" fill="#8a8a8a" font-weight="normal" font-family="Helvetica" text-anchor="end" dominant-baseline="middle">donor copy</text>
<text x="275.760838884579" y="27.999999999999986" font-size="26" fill="#8a8a8a" font-weight="normal" font-family="Helvetica" text-anchor="end" dominant-baseline="middle">converted copy</text>
<circle cx="297.760838884579" cy="-1.4210854715202004e-14" r="14.0" fill="white" stroke="#1a1a1a" stroke-width="3.2" />
<path d="M289.640838884579,-8.120000000000013 L305.880838884579,8.119999999999985" stroke="#1a1a1a" stroke-width="3.2" stroke-linecap="round" />
<path d="M289.640838884579,8.119999999999985 L305.880838884579,-8.120000000000013" stroke="#1a1a1a" stroke-width="3.2" stroke-linecap="round" />
<path d="M283.760838884579,296.0 L311.760838884579,324.0" stroke="#1a1a1a" stroke-width="4.0" stroke-linecap="round" />
<path d="M283.760838884579,324.0 L311.760838884579,296.0" stroke="#1a1a1a" stroke-width="4.0" stroke-linecap="round" />
<path d="M-324.0,326.0 L238.17129230707576,326.0" stroke="black" stroke-width="1.8" />
<path d="M-310.0,326.0 L-310.0,334.0" stroke="black" stroke-width="1.8" />
<text x="-310.0" y="364.0" font-size="30" text-anchor="middle" font-family="Helvetica">0.0</text>
<path d="M-35.91435384646212,326.0 L-35.91435384646212,334.0" stroke="black" stroke-width="1.8" />
<text x="-35.91435384646212" y="364.0" font-size="30" text-anchor="middle" font-family="Helvetica">0.4</text>
<path d="M238.17129230707576,326.0 L238.17129230707576,334.0" stroke="black" stroke-width="1.8" />
<text x="238.17129230707576" y="364.0" font-size="30" text-anchor="middle" font-family="Helvetica">0.8</text>
<text x="-42.91435384646212" y="409.0" font-size="30" text-anchor="middle" font-family="Helvetica">Time (root to present)</text>
<text x="-424.0" y="-392.0" font-size="46" fill="#1a1a1a" font-weight="bold" font-family="Helvetica" text-anchor="start" dominant-baseline="middle">B</text>
<text x="-360.0" y="-392.0" font-size="40" fill="#1a1a1a" font-weight="normal" font-family="Helvetica" text-anchor="start" dominant-baseline="middle">A complete gene tree</text>
</svg>
<rect x="265.0" y="950.0" width="30.0" height="30.0" fill="#1a1a1a" />
<text x="309.0" y="965.0" font-size="34" font-family="Helvetica" text-anchor="start" dominant-baseline="middle" font-weight="normal" fill="#1a1a1a">Duplication</text>
<circle cx="580.0" cy="965.0" r="15.0" fill="white" stroke="#1a1a1a" stroke-width="3.2" /><line x1="571.3" y1="956.3" x2="588.7" y2="973.7" stroke="#1a1a1a" stroke-width="3.2" stroke-linecap="round" /><line x1="571.3" y1="973.7" x2="588.7" y2="956.3" stroke="#1a1a1a" stroke-width="3.2" stroke-linecap="round" />
<text x="609.0" y="965.0" font-size="34" font-family="Helvetica" text-anchor="start" dominant-baseline="middle" font-weight="normal" fill="#1a1a1a">Conversion</text>
<line x1="865.0" y1="950.0" x2="895.0" y2="980.0" stroke="#1a1a1a" stroke-width="4.5" stroke-linecap="round" /><line x1="865.0" y1="980.0" x2="895.0" y2="950.0" stroke="#1a1a1a" stroke-width="4.5" stroke-linecap="round" />
<text x="909.0" y="965.0" font-size="34" font-family="Helvetica" text-anchor="start" dominant-baseline="middle" font-weight="normal" fill="#1a1a1a">Loss</text>
<line x1="1070.0" y1="965.0" x2="1124.0" y2="965.0" stroke="#1a1a1a" stroke-width="4.5" stroke-linecap="round" />
<text x="1136.0" y="965.0" font-size="34" font-family="Helvetica" text-anchor="start" dominant-baseline="middle" font-weight="normal" fill="#1a1a1a">surviving copy</text>
<line x1="1440.0" y1="965.0" x2="1494.0" y2="965.0" stroke="#1a1a1a" stroke-width="4.5" stroke-linecap="butt" stroke-dasharray="8,6" />
<text x="1506.0" y="965.0" font-size="34" font-family="Helvetica" text-anchor="start" dominant-baseline="middle" font-weight="normal" fill="#1a1a1a">overwritten / lost</text>
</svg>