<svg xmlns="http://www.w3.org/2000/svg" xmlns:xlink="http://www.w3.org/1999/xlink" width="1800" height="1030" viewBox="0 0 1800 1030">
<rect x="0" y="0" width="1800" height="1030" fill="white" />
<svg x="0" y="0" xmlns="http://www.w3.org/2000/svg" xmlns:xlink="http://www.w3.org/1999/xlink"
     width="900" height="900" viewBox="-450.0 -450.0 900 900">
<defs>
</defs>
<rect x="-450.0" y="-450.0" width="900" height="900" fill="white" />
<path d="M-318.0,-318.0 L318.0,-318.0" stroke="#1a1a1a" stroke-width="2.6" stroke-linecap="round" />
<path d="M-135.25494,-212.0 L318.0,-212.0" stroke="#1a1a1a" stroke-width="2.6" stroke-linecap="round" />
<path d="M48.67429475999995,-106.0 L317.99994275999995,-106.0" stroke="#1a1a1a" stroke-width="2.6" stroke-linecap="round" />
<path d="M48.67429475999995,0.0 L317.99994275999995,0.0" stroke="#1a1a1a" stroke-width="2.6" stroke-linecap="round" />
<path d="M45.98343599999998,-53.0 L48.67429475999995,-53.0" stroke="#1a1a1a" stroke-width="2.6" stroke-linecap="round" />
<path d="M48.67429475999995,-53.0 L48.67429475999995,-106.0" stroke="#1a1a1a" stroke-width="2.6" stroke-linecap="round" />
<path d="M48.67429475999995,-53.0 L48.67429475999995,0.0" stroke="#1a1a1a" stroke-width="2.6" stroke-linecap="round" />
<path d="M210.33283199999994,106.0 L317.9999999999999,106.0" stroke="#1a1a1a" stroke-width="2.6" stroke-linecap="round" />
<path d="M210.33283199999994,212.0 L317.9999999999999,212.0" stroke="#1a1a1a" stroke-width="2.6" stroke-linecap="round" />
<path d="M45.98343599999998,159.0 L210.33283199999994,159.0" stroke="#1a1a1a" stroke-width="2.6" stroke-linecap="round" />
<path d="M210.33283199999994,159.0 L210.33283199999994,106.0" stroke="#1a1a1a" stroke-width="2.6" stroke-linecap="round" />
<path d="M210.33283199999994,159.0 L210.33283199999994,212.0" stroke="#1a1a1a" stroke-width="2.6" stroke-linecap="round" />
<path d="M-66.00535199999999,53.0 L45.98343599999998,53.0" stroke="#1a1a1a" stroke-width="2.6" stroke-linecap="round" />
<path d="M45.98343599999998,53.0 L45.98343599999998,-53.0" stroke="#1a1a1a" stroke-width="2.6" stroke-linecap="round" />
<path d="M45.98343599999998,53.0 L45.98343599999998,159.0" stroke="#1a1a1a" stroke-width="2.6" stroke-linecap="round" />
<path d="M-66.00535199999999,318.0 L-31.551005999999973,318.0" stroke="#1a1a1a" stroke-width="2.6" stroke-dasharray="6,5" stroke-linecap="butt" />
<path d="M-135.25494,185.5 L-66.00535199999999,185.5" stroke="#1a1a1a" stroke-width="2.6" stroke-linecap="round" />
<path d="M-66.00535199999999,185.5 L-66.00535199999999,53.0" stroke="#1a1a1a" stroke-width="2.6" stroke-linecap="round" />
<path d="M-66.00535199999999,185.5 L-66.00535199999999,318.0" stroke="#1a1a1a" stroke-width="2.6" stroke-dasharray="6,5" stroke-linecap="butt" />
<path d="M-318.0,-13.25 L-135.25494,-13.25" stroke="#1a1a1a" stroke-width="2.6" stroke-linecap="round" />
<path d="M-135.25494,-13.25 L-135.25494,-212.0" stroke="#1a1a1a" stroke-width="2.6" stroke-linecap="round" />
<path d="M-135.25494,-13.25 L-135.25494,185.5" stroke="#1a1a1a" stroke-width="2.6" stroke-linecap="round" />
<path d="M-332.0,-165.625 L-318.0,-165.625" stroke="#1a1a1a" stroke-width="2.6" stroke-linecap="round" />
<path d="M-318.0,-165.625 L-318.0,-318.0" stroke="#1a1a1a" stroke-width="2.6" stroke-linecap="round" />
<path d="M-318.0,-165.625 L-318.0,-13.25" stroke="#1a1a1a" stroke-width="2.6" stroke-linecap="round" />
<text x="332.0" y="-318.0" font-size="30" fill="#1a1a1a" font-family="Helvetica" transform="" text-anchor="start" dominant-baseline="middle">A_1</text>
<text x="332.0" y="-212.0" font-size="30" fill="#1a1a1a" font-family="Helvetica" transform="" text-anchor="start" dominant-baseline="middle">B_1</text>
<text x="331.99994275999995" y="-106.0" font-size="30" fill="#1a1a1a" font-family="Helvetica" transform="" text-anchor="start" dominant-baseline="middle">C_1</text>
<text x="331.99994275999995" y="0.0" font-size="30" fill="#1a1a1a" font-family="Helvetica" transform="" text-anchor="start" dominant-baseline="middle">C_2</text>
<text x="331.9999999999999" y="106.0" font-size="30" fill="#1a1a1a" font-family="Helvetica" transform="" text-anchor="start" dominant-baseline="middle">D_1</text>
<text x="331.9999999999999" y="212.0" font-size="30" fill="#1a1a1a" font-family="Helvetica" transform="" text-anchor="start" dominant-baseline="middle">E_1</text>
<text x="-17.551005999999973" y="318.0" font-size="30" fill="#1a1a1a" font-family="Helvetica" transform="" text-anchor="start" dominant-baseline="middle"></text>
<rect x="35.67429475999995" y="-66.0" width="26.0" height="26.0" fill="#1a1a1a" opacity="1.0" />
<path d="M45.98343599999998,37.988893001069734 L32.98343599999998,60.50555349946514 L58.98343599999998,60.50555349946514 Z" fill="#1a1a1a" opacity="1.0" />
<text x="69.98343599999998" y="-69.0" font-size="30" fill="#8a8a8a" font-weight="normal" font-family="Helvetica" text-anchor="start" dominant-baseline="middle">donor-kept copy</text>
<text x="69.98343599999998" y="143.0" font-size="30" fill="#8a8a8a" font-weight="normal" font-family="Helvetica" text-anchor="start" dominant-baseline="middle">transferred copy</text>
<path d="M-44.55100599999997,305.0 L-18.551005999999973,331.0" stroke="#1a1a1a" stroke-width="4.0" stroke-linecap="round" />
<path d="M-44.55100599999997,331.0 L-18.551005999999973,305.0" stroke="#1a1a1a" stroke-width="4.0" stroke-linecap="round" />
<path d="M-332.0,334.0 L318.0,334.0" stroke="black" stroke-width="1.8" />
<path d="M-318.0,334.0 L-318.0,342.0" stroke="black" stroke-width="1.8" />
<text x="-318.0" y="372.0" font-size="30" text-anchor="middle" font-family="Helvetica">0.0</text>
<path d="M0.0,334.0 L0.0,342.0" stroke="black" stroke-width="1.8" />
<text x="0.0" y="372.0" font-size="30" text-anchor="middle" font-family="Helvetica">0.5</text>
<path d="M318.0,334.0 L318.0,342.0" stroke="black" stroke-width="1.8" />
<text x="318.0" y="372.0" font-size="30" text-anchor="middle" font-family="Helvetica">1.0</text>
<text x="-7.0" y="417.0" font-size="30" text-anchor="middle" font-family="Helvetica">Time (root to present)</text>
<text x="-424.0" y="-392.0" font-size="46" fill="#1a1a1a" font-weight="bold" font-family="Helvetica" text-anchor="start" dominant-baseline="middle">A</text>
<text x="-360.0" y="-392.0" font-size="40" fill="#1a1a1a" font-weight="normal" font-family="Helvetica" text-anchor="start" dominant-baseline="middle">Complete gene tree</text>
</svg>
<svg x="900" y="0" xmlns="http://www.w3.org/2000/svg" xmlns:xlink="http://www.w3.org/1999/xlink"
     width="900" height="900" viewBox="-450.0 -450.0 900 900">
<defs>
</defs>
<rect x="-450.0" y="-450.0" width="900" height="900" fill="white" />
<path d="M-318.0,-318.0 L318.0,-318.0" stroke="#1a1a1a" stroke-width="2.6" stroke-linecap="round" />
<path d="M-135.25494,-190.8 L318.0,-190.8" stroke="#1a1a1a" stroke-width="2.6" stroke-linecap="round" />
<path d="M48.67429475999995,-63.599999999999994 L317.99994275999995,-63.599999999999994" stroke="#1a1a1a" stroke-width="2.6" stroke-linecap="round" />
<path d="M48.67429475999995,63.60000000000002 L317.99994275999995,63.60000000000002" stroke="#1a1a1a" stroke-width="2.6" stroke-linecap="round" />
<path d="M45.98343599999998,1.4210854715202004e-14 L48.67429475999995,1.4210854715202004e-14" stroke="#1a1a1a" stroke-width="2.6" stroke-linecap="round" />
<path d="M48.67429475999995,1.4210854715202004e-14 L48.67429475999995,-63.599999999999994" stroke="#1a1a1a" stroke-width="2.6" stroke-linecap="round" />
<path d="M48.67429475999995,1.4210854715202004e-14 L48.67429475999995,63.60000000000002" stroke="#1a1a1a" stroke-width="2.6" stroke-linecap="round" />
<path d="M210.33283199999994,190.8 L317.9999999999999,190.8" stroke="#1a1a1a" stroke-width="2.6" stroke-linecap="round" />
<path d="M210.33283199999994,318.0 L317.9999999999999,318.0" stroke="#1a1a1a" stroke-width="2.6" stroke-linecap="round" />
<path d="M45.98343599999998,254.4 L210.33283199999994,254.4" stroke="#1a1a1a" stroke-width="2.6" stroke-linecap="round" />
<path d="M210.33283199999994,254.4 L210.33283199999994,190.8" stroke="#1a1a1a" stroke-width="2.6" stroke-linecap="round" />
<path d="M210.33283199999994,254.4 L210.33283199999994,318.0" stroke="#1a1a1a" stroke-width="2.6" stroke-linecap="round" />
<path d="M-135.25494,127.20000000000002 L45.98343599999998,127.20000000000002" stroke="#1a1a1a" stroke-width="2.6" stroke-linecap="round" />
<path d="M45.98343599999998,127.20000000000002 L45.98343599999998,1.4210854715202004e-14" stroke="#1a1a1a" stroke-width="2.6" stroke-linecap="round" />
<path d="M45.98343599999998,127.20000000000002 L45.98343599999998,254.4" stroke="#1a1a1a" stroke-width="2.6" stroke-linecap="round" />
<path d="M-318.0,-31.799999999999997 L-135.25494,-31.799999999999997" stroke="#1a1a1a" stroke-width="2.6" stroke-linecap="round" />
<path d="M-135.25494,-31.799999999999997 L-135.25494,-190.8" stroke="#1a1a1a" stroke-width="2.6" stroke-linecap="round" />
<path d="M-135.25494,-31.799999999999997 L-135.25494,127.20000000000002" stroke="#1a1a1a" stroke-width="2.6" stroke-linecap="round" />
<path d="M-332.0,-174.9 L-318.0,-174.9" stroke="#1a1a1a" stroke-width="2.6" stroke-linecap="round" />
<path d="M-318.0,-174.9 L-318.0,-318.0" stroke="#1a1a1a" stroke-width="2.6" stroke-linecap="round" />
<path d="M-318.0,-174.9 L-318.0,-31.799999999999997" stroke="#1a1a1a" stroke-width="2.6" stroke-linecap="round" />
<text x="332.0" y="-318.0" font-size="30" fill="#1a1a1a" font-family="Helvetica" transform="" text-anchor="start" dominant-baseline="middle">A_1</text>
<text x="332.0" y="-190.8" font-size="30" fill="#1a1a1a" font-family="Helvetica" transform="" text-anchor="start" dominant-baseline="middle">B_1</text>
<text x="331.99994275999995" y="-63.599999999999994" font-size="30" fill="#1a1a1a" font-family="Helvetica" transform="" text-anchor="start" dominant-baseline="middle">C_1</text>
<text x="331.99994275999995" y="63.60000000000002" font-size="30" fill="#1a1a1a" font-family="Helvetica" transform="" text-anchor="start" dominant-baseline="middle">C_2</text>
<text x="331.9999999999999" y="190.8" font-size="30" fill="#1a1a1a" font-family="Helvetica" transform="" text-anchor="start" dominant-baseline="middle">D_1</text>
<text x="331.9999999999999" y="318.0" font-size="30" fill="#1a1a1a" font-family="Helvetica" transform="" text-anchor="start" dominant-baseline="middle">E_1</text>
<rect x="35.67429475999995" y="-12.999999999999986" width="26.0" height="26.0" fill="#1a1a1a" opacity="1.0" />
<path d="M45.98343599999998,112.18889300106974 L32.98343599999998,134.70555349946514 L58.98343599999998,134.70555349946514 Z" fill="#1a1a1a" opacity="1.0" />
<text x="69.98343599999998" y="-15.999999999999986" font-size="30" fill="#8a8a8a" font-weight="normal" font-family="Helvetica" text-anchor="start" dominant-baseline="middle">donor-kept copy</text>
<text x="69.98343599999998" y="238.4" font-size="30" fill="#8a8a8a" font-weight="normal" font-family="Helvetica" text-anchor="start" dominant-baseline="middle">transferred copy</text>
<path d="M-332.0,334.0 L318.0,334.0" stroke="black" stroke-width="1.8" />
<path d="M-318.0,334.0 L-318.0,342.0" stroke="black" stroke-width="1.8" />
<text x="-318.0" y="372.0" font-size="30" text-anchor="middle" font-family="Helvetica">0.0</text>
<path d="M0.0,334.0 L0.0,342.0" stroke="black" stroke-width="1.8" />
<text x="0.0" y="372.0" font-size="30" text-anchor="middle" font-family="Helvetica">0.5</text>
<path d="M318.0,334.0 L318.0,342.0" stroke="black" stroke-width="1.8" />
<text x="318.0" y="372.0" font-size="30" text-anchor="middle" font-family="Helvetica">1.0</text>
<text x="-7.0" y="417.0" font-size="30" text-anchor="middle" font-family="Helvetica">Time (root to present)</text>
<text x="-424.0" y="-392.0" font-size="46" fill="#1a1a1a" font-weight="bold" font-family="Helvetica" text-anchor="start" dominant-baseline="middle">B</text>
<text x="-360.0" y="-392.0" font-size="40" fill="#1a1a1a" font-weight="normal" font-family="Helvetica" text-anchor="start" dominant-baseline="middle">Extant gene tree</text>
</svg>
<rect x="165.0" y="950.0" width="30" height="30" fill="#1a1a1a" />
<text x="209.0" y="965.0" font-size="34" font-family="Helvetica" text-anchor="start" dominant-baseline="middle" fill="#1a1a1a">Duplication</text>
<polygon points="510.0,950.0 525.0,980.0 495.0,980.0" fill="#1a1a1a" />
<text x="539.0" y="965.0" font-size="34" font-family="Helvetica" text-anchor="start" dominant-baseline="middle" fill="#1a1a1a">Transfer</text>
<line x1="795.0" y1="950.0" x2="825.0" y2="980.0" stroke="#1a1a1a" stroke-width="4.5" stroke-linecap="round" />
<line x1="795.0" y1="980.0" x2="825.0" y2="950.0" stroke="#1a1a1a" stroke-width="4.5" stroke-linecap="round" />
<text x="839.0" y="965.0" font-size="34" font-family="Helvetica" text-anchor="start" dominant-baseline="middle" fill="#1a1a1a">Loss</text>
<line x1="1040.0" y1="965.0" x2="1094.0" y2="965.0" stroke="#1a1a1a" stroke-width="4.5" stroke-linecap="round" />
<text x="1106.0" y="965.0" font-size="34" font-family="Helvetica" text-anchor="start" dominant-baseline="middle" fill="#1a1a1a">surviving copy</text>
<line x1="1470.0" y1="965.0" x2="1524.0" y2="965.0" stroke="#1a1a1a" stroke-width="4.5" stroke-dasharray="8,6" stroke-linecap="butt" />
<text x="1536.0" y="965.0" font-size="34" font-family="Helvetica" text-anchor="start" dominant-baseline="middle" fill="#1a1a1a">lost lineage</text>
</svg>