<?xml version="1.0" encoding="UTF-8"?>
<svg xmlns="http://www.w3.org/2000/svg" xmlns:xlink="http://www.w3.org/1999/xlink"
     width="1180" height="900" viewBox="-590.0 -450.0 1180 900">
<defs>
</defs>
<rect x="-590.0" y="-450.0" width="1180" height="900" fill="white" />
<path d="M-66.8792812482875,-330.0 L469.99962400015033,-330.0" stroke="#1a1a1a" stroke-width="2.6" stroke-linecap="round" />
<path d="M175.24394190242322,-270.0 L469.99962400015033,-270.0" stroke="#1a1a1a" stroke-width="2.6" stroke-linecap="round" />
<path d="M175.24394190242322,-210.0 L469.99962400015033,-210.0" stroke="#1a1a1a" stroke-width="2.6" stroke-linecap="round" />
<path d="M-66.8792812482875,-240.0 L175.24394190242322,-240.0" stroke="#1a1a1a" stroke-width="2.6" stroke-linecap="round" />
<path d="M175.24394190242322,-240.0 L175.24394190242322,-270.0" stroke="#1a1a1a" stroke-width="2.6" stroke-linecap="round" />
<path d="M175.24394190242322,-240.0 L175.24394190242322,-210.0" stroke="#1a1a1a" stroke-width="2.6" stroke-linecap="round" />
<path d="M-260.18362392655047,-285.0 L-66.8792812482875,-285.0" stroke="#1a1a1a" stroke-width="2.6" stroke-linecap="round" />
<path d="M-66.8792812482875,-285.0 L-66.8792812482875,-330.0" stroke="#1a1a1a" stroke-width="2.6" stroke-linecap="round" />
<path d="M-66.8792812482875,-285.0 L-66.8792812482875,-240.0" stroke="#1a1a1a" stroke-width="2.6" stroke-linecap="round" />
<path d="M415.65730573707754,-150.0 L469.99924800030067,-150.0" stroke="#1a1a1a" stroke-width="2.6" stroke-linecap="round" />
<path d="M415.65730573707754,-90.0 L469.99924800030067,-90.0" stroke="#1a1a1a" stroke-width="2.6" stroke-linecap="round" />
<path d="M-260.18362392655047,-120.0 L415.65730573707754,-120.0" stroke="#1a1a1a" stroke-width="2.6" stroke-linecap="round" />
<path d="M415.65730573707754,-120.0 L415.65730573707754,-150.0" stroke="#1a1a1a" stroke-width="2.6" stroke-linecap="round" />
<path d="M415.65730573707754,-120.0 L415.65730573707754,-90.0" stroke="#1a1a1a" stroke-width="2.6" stroke-linecap="round" />
<path d="M-470.0,-202.5 L-260.18362392655047,-202.5" stroke="#1a1a1a" stroke-width="2.6" stroke-linecap="round" />
<path d="M-260.18362392655047,-202.5 L-260.18362392655047,-285.0" stroke="#1a1a1a" stroke-width="2.6" stroke-linecap="round" />
<path d="M-260.18362392655047,-202.5 L-260.18362392655047,-120.0" stroke="#1a1a1a" stroke-width="2.6" stroke-linecap="round" />
<path d="M-72.12842714862921,-30.0 L469.9994360002255,-30.0" stroke="#1a1a1a" stroke-width="2.6" stroke-linecap="round" />
<path d="M-72.12842714862921,30.0 L469.9994360002255,30.0" stroke="#1a1a1a" stroke-width="2.6" stroke-linecap="round" />
<path d="M-168.16442873422852,0.0 L-72.12842714862921,0.0" stroke="#1a1a1a" stroke-width="2.6" stroke-linecap="round" />
<path d="M-72.12842714862921,0.0 L-72.12842714862921,-30.0" stroke="#1a1a1a" stroke-width="2.6" stroke-linecap="round" />
<path d="M-72.12842714862921,0.0 L-72.12842714862921,30.0" stroke="#1a1a1a" stroke-width="2.6" stroke-linecap="round" />
<path d="M-153.65515853793664,90.0 L469.9998120000753,90.0" stroke="#1a1a1a" stroke-width="2.6" stroke-linecap="round" />
<path d="M-138.54353658258543,150.0 L470.0,150.0" stroke="#1a1a1a" stroke-width="2.6" stroke-linecap="round" />
<path d="M90.74399170240326,210.0 L470.0,210.0" stroke="#1a1a1a" stroke-width="2.6" stroke-linecap="round" />
<path d="M90.74399170240326,270.0 L470.0,270.0" stroke="#1a1a1a" stroke-width="2.6" stroke-linecap="round" />
<path d="M-138.54353658258543,240.0 L90.74399170240326,240.0" stroke="#1a1a1a" stroke-width="2.6" stroke-linecap="round" />
<path d="M90.74399170240326,240.0 L90.74399170240326,210.0" stroke="#1a1a1a" stroke-width="2.6" stroke-linecap="round" />
<path d="M90.74399170240326,240.0 L90.74399170240326,270.0" stroke="#1a1a1a" stroke-width="2.6" stroke-linecap="round" />
<path d="M-153.65515853793664,195.0 L-138.54353658258543,195.0" stroke="#1a1a1a" stroke-width="2.6" stroke-linecap="round" />
<path d="M-138.54353658258543,195.0 L-138.54353658258543,150.0" stroke="#1a1a1a" stroke-width="2.6" stroke-linecap="round" />
<path d="M-138.54353658258543,195.0 L-138.54353658258543,240.0" stroke="#1a1a1a" stroke-width="2.6" stroke-linecap="round" />
<path d="M-168.16442873422852,142.5 L-153.65515853793664,142.5" stroke="#1a1a1a" stroke-width="2.6" stroke-linecap="round" />
<path d="M-153.65515853793664,142.5 L-153.65515853793664,90.0" stroke="#1a1a1a" stroke-width="2.6" stroke-linecap="round" />
<path d="M-153.65515853793664,142.5 L-153.65515853793664,195.0" stroke="#1a1a1a" stroke-width="2.6" stroke-linecap="round" />
<path d="M-430.45346381861447,71.25 L-168.16442873422852,71.25" stroke="#1a1a1a" stroke-width="2.6" stroke-linecap="round" />
<path d="M-168.16442873422852,71.25 L-168.16442873422852,0.0" stroke="#1a1a1a" stroke-width="2.6" stroke-linecap="round" />
<path d="M-168.16442873422852,71.25 L-168.16442873422852,142.5" stroke="#1a1a1a" stroke-width="2.6" stroke-linecap="round" />
<path d="M-430.45346381861447,330.0 L200.05880397647832,330.0" stroke="#1a1a1a" stroke-width="2.6" stroke-dasharray="6,5" stroke-linecap="butt" />
<path d="M-470.0,200.625 L-430.45346381861447,200.625" stroke="#1a1a1a" stroke-width="2.6" stroke-linecap="round" />
<path d="M-430.45346381861447,200.625 L-430.45346381861447,71.25" stroke="#1a1a1a" stroke-width="2.6" stroke-linecap="round" />
<path d="M-430.45346381861447,200.625 L-430.45346381861447,330.0" stroke="#1a1a1a" stroke-width="2.6" stroke-dasharray="6,5" stroke-linecap="butt" />
<path d="M-484.0,-0.9375 L-470.0,-0.9375" stroke="#1a1a1a" stroke-width="2.6" stroke-linecap="round" />
<path d="M-470.0,-0.9375 L-470.0,-202.5" stroke="#1a1a1a" stroke-width="2.6" stroke-linecap="round" />
<path d="M-470.0,-0.9375 L-470.0,200.625" stroke="#1a1a1a" stroke-width="2.6" stroke-linecap="round" />
<text x="481.99962400015033" y="-330.0" font-size="18" fill="#1a1a1a" font-family="Helvetica" transform="" text-anchor="start" dominant-baseline="middle">A_1</text>
<text x="481.99962400015033" y="-270.0" font-size="18" fill="#1a1a1a" font-family="Helvetica" transform="" text-anchor="start" dominant-baseline="middle">B_1</text>
<text x="481.99962400015033" y="-210.0" font-size="18" fill="#1a1a1a" font-family="Helvetica" transform="" text-anchor="start" dominant-baseline="middle">C_1</text>
<text x="481.99924800030067" y="-150.0" font-size="18" fill="#1a1a1a" font-family="Helvetica" transform="" text-anchor="start" dominant-baseline="middle">D_1</text>
<text x="481.99924800030067" y="-90.0" font-size="18" fill="#1a1a1a" font-family="Helvetica" transform="" text-anchor="start" dominant-baseline="middle">E_1</text>
<text x="481.9994360002255" y="-30.0" font-size="18" fill="#1a1a1a" font-family="Helvetica" transform="" text-anchor="start" dominant-baseline="middle">F_1</text>
<text x="481.9994360002255" y="30.0" font-size="18" fill="#1a1a1a" font-family="Helvetica" transform="" text-anchor="start" dominant-baseline="middle">G_1</text>
<text x="481.9998120000753" y="90.0" font-size="18" fill="#1a1a1a" font-family="Helvetica" transform="" text-anchor="start" dominant-baseline="middle">G_2</text>
<text x="482.0" y="150.0" font-size="18" fill="#1a1a1a" font-family="Helvetica" transform="" text-anchor="start" dominant-baseline="middle">H_1</text>
<text x="482.0" y="210.0" font-size="18" fill="#1a1a1a" font-family="Helvetica" transform="" text-anchor="start" dominant-baseline="middle">I_1</text>
<text x="482.0" y="270.0" font-size="18" fill="#1a1a1a" font-family="Helvetica" transform="" text-anchor="start" dominant-baseline="middle">I_2</text>
<text x="212.05880397647832" y="330.0" font-size="18" fill="#1a1a1a" font-family="Helvetica" transform="" text-anchor="start" dominant-baseline="middle"></text>
<rect x="81.74399170240326" y="231.0" width="18.0" height="18.0" fill="#1a1a1a" opacity="1.0" />
<path d="M-72.12842714862921,-10.392304845413262 L-81.12842714862921,5.196152422706631 L-63.128427148629214,5.196152422706631 Z" fill="#1a1a1a" opacity="1.0" />
<text x="-54.128427148629214" y="-42.0" font-size="20" fill="#8a8a8a" font-weight="normal" font-family="Helvetica" text-anchor="start" dominant-baseline="middle">remaining copy</text>
<text x="-54.128427148629214" y="18.0" font-size="20" fill="#8a8a8a" font-weight="normal" font-family="Helvetica" text-anchor="start" dominant-baseline="middle">transferred copy</text>
<path d="M191.05880397647832,321.0 L209.05880397647832,339.0" stroke="#1a1a1a" stroke-width="3.0" stroke-linecap="round" />
<path d="M191.05880397647832,339.0 L209.05880397647832,321.0" stroke="#1a1a1a" stroke-width="3.0" stroke-linecap="round" />
<path d="M-484.0,346.0 L469.99962400015033,346.0" stroke="black" stroke-width="1.6" />
<path d="M-470.0,346.0 L-470.0,352.0" stroke="black" stroke-width="1.6" />
<text x="-470.0" y="370.0" font-size="18" text-anchor="middle" font-family="Helvetica">0.00</text>
<path d="M-235.00009399996242,346.0 L-235.00009399996242,352.0" stroke="black" stroke-width="1.6" />
<text x="-235.00009399996242" y="370.0" font-size="18" text-anchor="middle" font-family="Helvetica">0.25</text>
<path d="M-0.00018799992483309325,346.0 L-0.00018799992483309325,352.0" stroke="black" stroke-width="1.6" />
<text x="-0.00018799992483309325" y="370.0" font-size="18" text-anchor="middle" font-family="Helvetica">0.50</text>
<path d="M234.9997180001128,346.0 L234.9997180001128,352.0" stroke="black" stroke-width="1.6" />
<text x="234.9997180001128" y="370.0" font-size="18" text-anchor="middle" font-family="Helvetica">0.75</text>
<path d="M469.99962400015033,346.0 L469.99962400015033,352.0" stroke="black" stroke-width="1.6" />
<text x="469.99962400015033" y="370.0" font-size="18" text-anchor="middle" font-family="Helvetica">1.00</text>
<text x="-7.000187999924833" y="397.0" font-size="18" text-anchor="middle" font-family="Helvetica">Time (root to present)</text>
<text x="0" y="-408.0" font-size="32" font-weight="bold" font-family="Helvetica" text-anchor="middle" dominant-baseline="central" fill="#1a1a1a">The complete gene tree</text>
<rect x="-557.0" y="-371.0" width="18.0" height="18.0" fill="#1a1a1a" opacity="1.0" />
<text x="-515.0" y="-362.0" font-size="22" font-family="Helvetica" text-anchor="start" dominant-baseline="central" fill="#1a1a1a">Duplication</text>
<path d="M-548.0,-332.39230484541326 L-557.0,-316.80384757729337 L-539.0,-316.80384757729337 Z" fill="#1a1a1a" opacity="1.0" />
<text x="-515.0" y="-322.0" font-size="22" font-family="Helvetica" text-anchor="start" dominant-baseline="central" fill="#1a1a1a">Transfer</text>
<path d="M-557.0,-291.0 L-539.0,-273.0" stroke="#1a1a1a" stroke-width="3.0" stroke-linecap="round" />
<path d="M-557.0,-273.0 L-539.0,-291.0" stroke="#1a1a1a" stroke-width="3.0" stroke-linecap="round" />
<text x="-515.0" y="-282.0" font-size="22" font-family="Helvetica" text-anchor="start" dominant-baseline="central" fill="#1a1a1a">Loss</text>
</svg>