<?xml version="1.0" encoding="UTF-8"?>
<svg xmlns="http://www.w3.org/2000/svg" xmlns:xlink="http://www.w3.org/1999/xlink"
     width="1240" height="516" viewBox="0 0 1240 516">
<defs>
</defs>
<rect x="0" y="0" width="1240" height="516" fill="white" />
<text x="620.0" y="42" font-size="32" font-family="Helvetica" text-anchor="middle" dominant-baseline="central" fill="#1a1a1a" font-weight="bold">One engine, many events: it's all Gillespie</text>
<rect x="50" y="91.0" width="700" height="104" rx="16" ry="16" fill="white" stroke="#1a1a1a" stroke-width="2.4" />
<text x="195" y="129" font-size="22" font-family="Helvetica" text-anchor="middle" dominant-baseline="central" fill="#1a1a1a" font-weight="bold">Species tree</text>
<text x="195" y="159" font-size="22" font-family="Helvetica" text-anchor="middle" dominant-baseline="central" fill="#8a8a8a" font-weight="normal">rates: lambda, mu</text>
<path d="M477.0,117 L477.0,135" stroke="#999999" stroke-width="3.8" />
<path d="M477.0,135 L462.0,151" stroke="#999999" stroke-width="3.8" />
<path d="M477.0,135 L492.0,151" stroke="#999999" stroke-width="3.8" />
<text x="477.0" y="169" font-size="18" font-family="Helvetica" text-anchor="middle" dominant-baseline="central" fill="#1a1a1a" font-weight="normal">speciation</text>
<path d="M565.0,123 L589.0,147" stroke="#1a1a1a" stroke-width="3.8" />
<path d="M565.0,147 L589.0,123" stroke="#1a1a1a" stroke-width="3.8" />
<text x="577.0" y="169" font-size="18" font-family="Helvetica" text-anchor="middle" dominant-baseline="central" fill="#1a1a1a" font-weight="normal">extinction</text>
<rect x="50" y="231.0" width="700" height="104" rx="16" ry="16" fill="white" stroke="#1a1a1a" stroke-width="2.4" />
<text x="195" y="269" font-size="22" font-family="Helvetica" text-anchor="middle" dominant-baseline="central" fill="#1a1a1a" font-weight="bold">Gene families</text>
<text x="195" y="299" font-size="22" font-family="Helvetica" text-anchor="middle" dominant-baseline="central" fill="#8a8a8a" font-weight="normal">rates: one per event</text>
<rect x="366.0" y="264.0" width="22" height="22" fill="#1a1a1a" />
<text x="377.0" y="309" font-size="18" font-family="Helvetica" text-anchor="middle" dominant-baseline="central" fill="#1a1a1a" font-weight="normal">duplication</text>
<path d="M461.0,286 Q477.0,248,493.0,286" fill="none" stroke="#1a1a1a" stroke-width="3.8" />
<path d="M493.0,286 L482.9394371013809,279.4589699463365 L491.15568128511666,274.142576650978 Z" fill="#1a1a1a" />
<text x="477.0" y="309" font-size="18" font-family="Helvetica" text-anchor="middle" dominant-baseline="central" fill="#1a1a1a" font-weight="normal">transfer</text>
<path d="M565.0,263 L589.0,287" stroke="#1a1a1a" stroke-width="3.8" />
<path d="M565.0,287 L589.0,263" stroke="#1a1a1a" stroke-width="3.8" />
<text x="577.0" y="309" font-size="18" font-family="Helvetica" text-anchor="middle" dominant-baseline="central" fill="#1a1a1a" font-weight="normal">loss</text>
<circle cx="677.0" cy="275" r="11" fill="none" stroke="#1a1a1a" stroke-width="3.8" />
<text x="677.0" y="309" font-size="18" font-family="Helvetica" text-anchor="middle" dominant-baseline="central" fill="#1a1a1a" font-weight="normal">origination</text>
<rect x="50" y="371.0" width="700" height="104" rx="16" ry="16" fill="white" stroke="#1a1a1a" stroke-width="2.4" />
<text x="195" y="409" font-size="22" font-family="Helvetica" text-anchor="middle" dominant-baseline="central" fill="#1a1a1a" font-weight="bold">Discrete trait (Mk)</text>
<text x="195" y="439" font-size="22" font-family="Helvetica" text-anchor="middle" dominant-baseline="central" fill="#8a8a8a" font-weight="normal">rates: Q-matrix entries</text>
<rect x="498.0" y="405" width="20" height="20" fill="#dddddd" stroke="#1a1a1a" stroke-width="1.8" />
<rect x="537.0" y="405" width="20" height="20" fill="#1a1a1a" />
<path d="M521.0,415 L535.0,415" stroke="#1a1a1a" stroke-width="2.8" />
<path d="M535.0,415 L526.7821995371892,418.66984407753614 L526.7821995371892,411.33015592246386 Z" fill="#1a1a1a" />
<text x="527.0" y="449" font-size="18" font-family="Helvetica" text-anchor="middle" dominant-baseline="central" fill="#1a1a1a" font-weight="normal">state change</text>
<rect x="814" y="91.0" width="374" height="384.0" rx="18" ry="18" fill="#f2f2f2" stroke="#1a1a1a" stroke-width="3.0" />
<text x="1001.0" y="131.0" font-size="22" font-family="Helvetica" text-anchor="middle" dominant-baseline="central" fill="#1a1a1a" font-weight="bold">one Gillespie loop</text>
<text x="846" y="171.0" font-size="22" font-family="Helvetica" text-anchor="start" dominant-baseline="central" fill="#1a1a1a" font-weight="normal">1.  total rate R = sum</text>
<text x="846" y="199.0" font-size="22" font-family="Helvetica" text-anchor="start" dominant-baseline="central" fill="#8a8a8a" font-weight="normal">     of every event's rate</text>
<text x="846" y="227.0" font-size="22" font-family="Helvetica" text-anchor="start" dominant-baseline="central" fill="#8a8a8a" font-weight="normal"></text>
<text x="846" y="255.0" font-size="22" font-family="Helvetica" text-anchor="start" dominant-baseline="central" fill="#1a1a1a" font-weight="normal">2.  when:  draw dt ~</text>
<text x="846" y="283.0" font-size="22" font-family="Helvetica" text-anchor="start" dominant-baseline="central" fill="#8a8a8a" font-weight="normal">     Exponential(R)</text>
<text x="846" y="311.0" font-size="22" font-family="Helvetica" text-anchor="start" dominant-baseline="central" fill="#8a8a8a" font-weight="normal"></text>
<text x="846" y="339.0" font-size="22" font-family="Helvetica" text-anchor="start" dominant-baseline="central" fill="#1a1a1a" font-weight="normal">3.  what:  pick event i</text>
<text x="846" y="367.0" font-size="22" font-family="Helvetica" text-anchor="start" dominant-baseline="central" fill="#8a8a8a" font-weight="normal">     with prob. (rate)/R</text>
<text x="846" y="395.0" font-size="22" font-family="Helvetica" text-anchor="start" dominant-baseline="central" fill="#8a8a8a" font-weight="normal"></text>
<text x="846" y="423.0" font-size="22" font-family="Helvetica" text-anchor="start" dominant-baseline="central" fill="#1a1a1a" font-weight="normal">4.  apply it, then repeat</text>
<path d="M750,143 L811,283.0" stroke="#8a8a8a" stroke-width="2.4" />
<path d="M811,283.0 L802.1374524722968,274.90955802695544 L811.1090709357574,271.00049569644756 Z" fill="#8a8a8a" />
<path d="M750,283 L811,283.0" stroke="#8a8a8a" stroke-width="2.4" />
<path d="M811,283.0 L800.0429327162523,287.89312543671485 L800.0429327162523,278.10687456328515 Z" fill="#8a8a8a" />
<path d="M750,423 L811,283.0" stroke="#8a8a8a" stroke-width="2.4" />
<path d="M811,283.0 L811.1090709357574,294.99950430355244 L802.1374524722968,291.09044197304456 Z" fill="#8a8a8a" />
</svg>