<?xml version="1.0" encoding="UTF-8"?>
<svg xmlns="http://www.w3.org/2000/svg" xmlns:xlink="http://www.w3.org/1999/xlink"
     width="1200" height="700" viewBox="0 0 1200 700">
<defs>
</defs>
<rect x="0" y="0" width="1200" height="700" fill="white" />
<text x="600.0" y="46" font-size="32" font-family="Helvetica" text-anchor="middle" font-weight="bold" fill="#1a1a1a">Key-innovation diversification (genes to species)</text>
<path d="M300.0,82 L332.0,82" stroke="#2f7d84" stroke-width="5.2" />
<text x="340.0" y="82" font-size="18" font-family="Helvetica" text-anchor="start" dominant-baseline="central" fill="#1a1a1a">carries the driver</text>
<path d="M510.0,82 L542.0,82" stroke="#b9b0a4" stroke-width="2.4" />
<text x="550.0" y="82" font-size="18" font-family="Helvetica" text-anchor="start" dominant-baseline="central" fill="#1a1a1a">no driver</text>
<circle cx="678.0" cy="82" r="10.0" fill="white" stroke="#1a1a1a" stroke-width="1.8" />
<path d="M672.8,82 L683.2,82" stroke="#1a1a1a" stroke-width="2.2" />
<path d="M678.0,76.8 L678.0,87.2" stroke="#1a1a1a" stroke-width="2.2" />
<text x="696.0" y="82" font-size="18" font-family="Helvetica" text-anchor="start" dominant-baseline="central" fill="#1a1a1a">gain / loss</text>
<text x="150" y="170" font-size="22" font-family="Helvetica" text-anchor="start" fill="#1a1a1a" font-weight="bold">A   the model</text>
<path d="M243.48533431783318,314.10658116006135 Q335.0,298.0,426.5146656821668,314.10658116006135" fill="none" stroke="#1a1a1a" stroke-width="4.388548009269341" stroke-linecap="round" />
<path d="M426.5146656821668,314.10658116006135 L415.8452507642349,316.78306865471023 L417.40019985239223,307.9481306538161 Z" fill="#1a1a1a" />
<text x="335.0" y="282.0" font-size="18" font-family="Helvetica" text-anchor="middle" dominant-baseline="central" fill="#8a8a8a">gain</text>
<path d="M426.5146656821668,325.89341883993865 Q335.0,342.0,243.48533431783318,325.89341883993865" fill="none" stroke="#1a1a1a" stroke-width="2.68" stroke-linecap="round" />
<path d="M243.48533431783318,325.89341883993865 L254.1547492357651,323.21693134528977 L252.59980014760774,332.0518693461838 Z" fill="#1a1a1a" />
<text x="335.0" y="358.0" font-size="18" font-family="Helvetica" text-anchor="middle" dominant-baseline="central" fill="#8a8a8a">loss</text>
<circle cx="210" cy="320" r="34" fill="white" stroke="#1a1a1a" stroke-width="2.2" />
<text x="210" y="320" font-size="22" font-family="Helvetica" text-anchor="middle" dominant-baseline="central" fill="#1a1a1a" font-weight="bold">D-</text>
<circle cx="460" cy="320" r="34" fill="white" stroke="#1a1a1a" stroke-width="2.2" />
<text x="460" y="320" font-size="22" font-family="Helvetica" text-anchor="middle" dominant-baseline="central" fill="#1a1a1a" font-weight="bold">D+</text>
<path d="M210,366 L210,382" stroke="#1a1a1a" stroke-width="3.68" stroke-linecap="round" />
<path d="M210,382 L188,404" stroke="#1a1a1a" stroke-width="3.68" stroke-linecap="round" />
<path d="M210,382 L232,404" stroke="#1a1a1a" stroke-width="3.68" stroke-linecap="round" />
<path d="M460,366 L460,382" stroke="#1a1a1a" stroke-width="7.040000000000001" stroke-linecap="round" />
<path d="M460,382 L438,404" stroke="#1a1a1a" stroke-width="7.040000000000001" stroke-linecap="round" />
<path d="M460,382 L482,404" stroke="#1a1a1a" stroke-width="7.040000000000001" stroke-linecap="round" />
<text x="210" y="440" font-size="18" font-family="Helvetica" text-anchor="middle" fill="#1a1a1a">slow speciation</text>
<text x="460" y="440" font-size="18" font-family="Helvetica" text-anchor="middle" fill="#1a1a1a">fast speciation</text>
<text x="335.0" y="224" font-size="18" font-family="Helvetica" text-anchor="middle" fill="#8a8a8a" font-style="italic">gain = transfer (proportional to prevalence) + origination</text>
<text x="335.0" y="478" font-size="20" font-family="Helvetica" text-anchor="middle" fill="#1a1a1a" font-style="italic">carriers speciate faster, so the driver's clades grow</text>
<text x="560" y="144" font-size="22" font-family="Helvetica" text-anchor="start" fill="#1a1a1a" font-weight="bold">B   a simulated realization</text>
<path d="M600.0,201.0 L832.9490759649265,201.0" stroke="#b9b0a4" stroke-width="2.4" stroke-linecap="butt" />
<path d="M600.0,441.7109375 L729.5935168491784,441.7109375" stroke="#2f7d84" stroke-width="5.2" stroke-linecap="butt" />
<circle cx="613.0" cy="441.7109375" r="10.0" fill="white" stroke="#1a1a1a" stroke-width="1.8" />
<path d="M607.8,441.7109375 L618.2,441.7109375" stroke="#1a1a1a" stroke-width="2.2" />
<path d="M613.0,436.5109375 L613.0,446.9109375" stroke="#1a1a1a" stroke-width="2.2" />
<path d="M832.9490759649265,190.0 L1050.0,190.0" stroke="#b9b0a4" stroke-width="2.4" stroke-linecap="butt" />
<path d="M832.9490759649265,212.0 L1050.0,212.0" stroke="#b9b0a4" stroke-width="2.4" stroke-linecap="butt" />
<path d="M729.5935168491784,319.421875 L784.222955201853,319.421875" stroke="#2f7d84" stroke-width="5.2" stroke-linecap="butt" />
<path d="M729.5935168491784,564.0 L802.3490435172624,564.0" stroke="#2f7d84" stroke-width="5.2" stroke-linecap="butt" />
<path d="M796.8490435172624,558.5 L807.8490435172624,569.5" stroke="#1a1a1a" stroke-width="2.0" />
<path d="M796.8490435172624,569.5 L807.8490435172624,558.5" stroke="#1a1a1a" stroke-width="2.0" />
<path d="M784.222955201853,234.0 L981.1055022252147,234.0" stroke="#2f7d84" stroke-width="5.2" stroke-linecap="butt" />
<path d="M975.6055022252147,228.5 L986.6055022252147,239.5" stroke="#1a1a1a" stroke-width="2.0" />
<path d="M975.6055022252147,239.5 L986.6055022252147,228.5" stroke="#1a1a1a" stroke-width="2.0" />
<path d="M784.222955201853,404.84375 L890.9437239604589,404.84375" stroke="#2f7d84" stroke-width="5.2" stroke-linecap="butt" />
<path d="M890.9437239604589,358.4375 L896.7663601446666,358.4375" stroke="#2f7d84" stroke-width="5.2" stroke-linecap="butt" />
<path d="M890.9437239604589,451.25 L893.2352732851566,451.25" stroke="#2f7d84" stroke-width="5.2" stroke-linecap="butt" />
<path d="M896.7663601446666,328.875 L937.4064675916055,328.875" stroke="#2f7d84" stroke-width="5.2" stroke-linecap="butt" />
<path d="M896.7663601446666,388.0 L1050.0,388.0" stroke="#2f7d84" stroke-width="5.2" stroke-linecap="butt" />
<path d="M893.2352732851566,410.0 L1050.0,410.0" stroke="#2f7d84" stroke-width="5.2" stroke-linecap="butt" />
<path d="M893.2352732851566,492.5 L896.2851683643789,492.5" stroke="#2f7d84" stroke-width="5.2" stroke-linecap="butt" />
<path d="M937.4064675916055,291.75 L949.6139114304907,291.75" stroke="#2f7d84" stroke-width="5.2" stroke-linecap="butt" />
<path d="M937.4064675916055,366.0 L1050.0,366.0" stroke="#2f7d84" stroke-width="5.2" stroke-linecap="butt" />
<path d="M896.2851683643789,459.5 L970.6859179446735,459.5" stroke="#2f7d84" stroke-width="5.2" stroke-linecap="butt" />
<path d="M896.2851683643789,525.5 L956.6450931545235,525.5" stroke="#b9b0a4" stroke-width="2.4" stroke-linecap="butt" />
<circle cx="909.2851683643789" cy="525.5" r="10.0" fill="white" stroke="#1a1a1a" stroke-width="1.8" />
<path d="M904.0851683643789,525.5 L914.485168364379,525.5" stroke="#1a1a1a" stroke-width="2.2" />
<path d="M949.6139114304907,267.0 L1048.6464506428092,267.0" stroke="#2f7d84" stroke-width="5.2" stroke-linecap="butt" />
<path d="M949.6139114304907,316.5 L983.7613863741499,316.5" stroke="#2f7d84" stroke-width="5.2" stroke-linecap="butt" />
<path d="M970.6859179446735,443.0 L1012.2147487776559,443.0" stroke="#2f7d84" stroke-width="5.2" stroke-linecap="butt" />
<path d="M970.6859179446735,476.0 L1050.0,476.0" stroke="#2f7d84" stroke-width="5.2" stroke-linecap="butt" />
<path d="M956.6450931545235,509.0 L1050.0,509.0" stroke="#b9b0a4" stroke-width="2.4" stroke-linecap="butt" />
<path d="M956.6450931545235,542.0 L1050.0,542.0" stroke="#b9b0a4" stroke-width="2.4" stroke-linecap="butt" />
<path d="M1048.6464506428092,256.0 L1050.0,256.0" stroke="#2f7d84" stroke-width="5.2" stroke-linecap="butt" />
<path d="M1048.6464506428092,278.0 L1050.0,278.0" stroke="#2f7d84" stroke-width="5.2" stroke-linecap="butt" />
<path d="M983.7613863741499,300.0 L1050.0,300.0" stroke="#2f7d84" stroke-width="5.2" stroke-linecap="butt" />
<path d="M983.7613863741499,333.0 L1039.9164815361937,333.0" stroke="#2f7d84" stroke-width="5.2" stroke-linecap="butt" />
<path d="M1012.2147487776559,432.0 L1050.0,432.0" stroke="#2f7d84" stroke-width="5.2" stroke-linecap="butt" />
<path d="M1012.2147487776559,454.0 L1050.0,454.0" stroke="#2f7d84" stroke-width="5.2" stroke-linecap="butt" />
<path d="M1050.0,498.0 L1050.0,498.0" stroke="#b9b0a4" stroke-width="2.4" stroke-linecap="butt" />
<path d="M1050.0,520.0 L1050.0,520.0" stroke="#b9b0a4" stroke-width="2.4" stroke-linecap="butt" />
<path d="M1039.9164815361937,322.0 L1050.0,322.0" stroke="#2f7d84" stroke-width="5.2" stroke-linecap="butt" />
<path d="M1039.9164815361937,344.0 L1050.0,344.0" stroke="#2f7d84" stroke-width="5.2" stroke-linecap="butt" />
<path d="M832.9490759649265,190.0 L832.9490759649265,212.0" stroke="#1a1a1a" stroke-width="2.4" />
<path d="M1048.6464506428092,256.0 L1048.6464506428092,278.0" stroke="#1a1a1a" stroke-width="2.4" />
<path d="M1039.9164815361937,322.0 L1039.9164815361937,344.0" stroke="#1a1a1a" stroke-width="2.4" />
<path d="M983.7613863741499,300.0 L983.7613863741499,333.0" stroke="#1a1a1a" stroke-width="2.4" />
<path d="M949.6139114304907,267.0 L949.6139114304907,316.5" stroke="#1a1a1a" stroke-width="2.4" />
<path d="M937.4064675916055,291.75 L937.4064675916055,366.0" stroke="#1a1a1a" stroke-width="2.4" />
<path d="M896.7663601446666,328.875 L896.7663601446666,388.0" stroke="#1a1a1a" stroke-width="2.4" />
<path d="M1012.2147487776559,432.0 L1012.2147487776559,454.0" stroke="#1a1a1a" stroke-width="2.4" />
<path d="M970.6859179446735,443.0 L970.6859179446735,476.0" stroke="#1a1a1a" stroke-width="2.4" />
<path d="M1050.0,498.0 L1050.0,520.0" stroke="#1a1a1a" stroke-width="2.4" />
<path d="M956.6450931545235,509.0 L956.6450931545235,542.0" stroke="#1a1a1a" stroke-width="2.4" />
<path d="M896.2851683643789,459.5 L896.2851683643789,525.5" stroke="#1a1a1a" stroke-width="2.4" />
<path d="M893.2352732851566,410.0 L893.2352732851566,492.5" stroke="#1a1a1a" stroke-width="2.4" />
<path d="M890.9437239604589,358.4375 L890.9437239604589,451.25" stroke="#1a1a1a" stroke-width="2.4" />
<path d="M784.222955201853,234.0 L784.222955201853,404.84375" stroke="#1a1a1a" stroke-width="2.4" />
<path d="M729.5935168491784,319.421875 L729.5935168491784,564.0" stroke="#1a1a1a" stroke-width="2.4" />
<path d="M600.0,201.0 L600.0,441.7109375" stroke="#1a1a1a" stroke-width="2.4" />
<text x="1130" y="158" font-size="18" font-family="Helvetica" text-anchor="middle" fill="#1a1a1a" font-weight="bold">driver</text>
<rect x="1121" y="181.0" width="18" height="18" fill="white" stroke="#2f7d84" stroke-width="1.6" />
<rect x="1121" y="203.0" width="18" height="18" fill="white" stroke="#2f7d84" stroke-width="1.6" />
<rect x="1121" y="247.0" width="18" height="18" fill="#2f7d84" stroke="#2f7d84" stroke-width="1.6" />
<rect x="1121" y="269.0" width="18" height="18" fill="#2f7d84" stroke="#2f7d84" stroke-width="1.6" />
<rect x="1121" y="291.0" width="18" height="18" fill="#2f7d84" stroke="#2f7d84" stroke-width="1.6" />
<rect x="1121" y="313.0" width="18" height="18" fill="#2f7d84" stroke="#2f7d84" stroke-width="1.6" />
<rect x="1121" y="335.0" width="18" height="18" fill="#2f7d84" stroke="#2f7d84" stroke-width="1.6" />
<rect x="1121" y="357.0" width="18" height="18" fill="#2f7d84" stroke="#2f7d84" stroke-width="1.6" />
<rect x="1121" y="379.0" width="18" height="18" fill="#2f7d84" stroke="#2f7d84" stroke-width="1.6" />
<rect x="1121" y="401.0" width="18" height="18" fill="#2f7d84" stroke="#2f7d84" stroke-width="1.6" />
<rect x="1121" y="423.0" width="18" height="18" fill="#2f7d84" stroke="#2f7d84" stroke-width="1.6" />
<rect x="1121" y="445.0" width="18" height="18" fill="#2f7d84" stroke="#2f7d84" stroke-width="1.6" />
<rect x="1121" y="467.0" width="18" height="18" fill="#2f7d84" stroke="#2f7d84" stroke-width="1.6" />
<rect x="1121" y="489.0" width="18" height="18" fill="white" stroke="#2f7d84" stroke-width="1.6" />
<rect x="1121" y="511.0" width="18" height="18" fill="white" stroke="#2f7d84" stroke-width="1.6" />
<rect x="1121" y="533.0" width="18" height="18" fill="white" stroke="#2f7d84" stroke-width="1.6" />
</svg>