<?xml version="1.0" encoding="UTF-8"?>
<svg xmlns="http://www.w3.org/2000/svg" xmlns:xlink="http://www.w3.org/1999/xlink"
     width="1180" height="780" viewBox="0 0 1180 780">
<defs>
</defs>
<rect x="0" y="0" width="1180" height="780" fill="white" />
<text x="590.0" y="48" font-size="32" font-family="Helvetica" text-anchor="middle" font-weight="bold" fill="#1a1a1a">The mass-extinction model</text>
<path d="M40,96 L74,96" stroke="#1a1a1a" stroke-width="2.2" stroke-linecap="round" />
<text x="84" y="96" font-size="22" font-family="Helvetica" text-anchor="start" dominant-baseline="central" fill="#1a1a1a">surviving lineage</text>
<path d="M290,96 L324,96" stroke="#9a9a9a" stroke-width="1.6" stroke-dasharray="6,5" />
<text x="334" y="96" font-size="22" font-family="Helvetica" text-anchor="start" dominant-baseline="central" fill="#1a1a1a">extinct lineage</text>
<path d="M1000.0,134 L1000.0,700" stroke="#cccccc" stroke-width="1.0" stroke-dasharray="2,4" />
<rect x="543.0" y="134" width="14" height="566" fill="#e9e9e9" />
<path d="M550.0,134 L550.0,700" stroke="#1a1a1a" stroke-width="1.6" stroke-dasharray="5,4" />
<path d="M86.0,181.85215635557432 L100.0,181.85215635557432" stroke="#1a1a1a" stroke-width="2.0" stroke-linecap="round" />
<path d="M100.0,181.85215635557432 L100.0,208.6772856841216" stroke="#1a1a1a" stroke-width="2.0" stroke-linecap="round" />
<path d="M100.0,181.85215635557432 L100.0,155.02702702702703" stroke="#9a9a9a" stroke-width="1.5" stroke-dasharray="6,5" stroke-linecap="butt" />
<path d="M100.0,208.6772856841216 L357.3927665617511,208.6772856841216" stroke="#1a1a1a" stroke-width="2.0" stroke-linecap="round" />
<path d="M357.3927665617511,208.6772856841216 L357.3927665617511,238.44916596283784" stroke="#1a1a1a" stroke-width="2.0" stroke-linecap="round" />
<path d="M357.3927665617511,208.6772856841216 L357.3927665617511,178.90540540540542" stroke="#9a9a9a" stroke-width="1.5" stroke-dasharray="6,5" stroke-linecap="butt" />
<path d="M357.3927665617511,238.44916596283784 L399.27788503732944,238.44916596283784" stroke="#1a1a1a" stroke-width="2.0" stroke-linecap="round" />
<path d="M399.27788503732944,238.44916596283784 L399.27788503732944,261.5469805743243" stroke="#1a1a1a" stroke-width="2.0" stroke-linecap="round" />
<path d="M399.27788503732944,238.44916596283784 L399.27788503732944,215.35135135135135" stroke="#9a9a9a" stroke-width="1.5" stroke-dasharray="6,5" stroke-linecap="butt" />
<path d="M399.27788503732944,261.5469805743243 L438.4221979111211,261.5469805743243" stroke="#1a1a1a" stroke-width="2.0" stroke-linecap="round" />
<path d="M438.4221979111211,261.5469805743243 L438.4221979111211,235.45945945945948" stroke="#9a9a9a" stroke-width="1.5" stroke-dasharray="6,5" stroke-linecap="butt" />
<path d="M438.4221979111211,261.5469805743243 L438.4221979111211,287.63450168918916" stroke="#1a1a1a" stroke-width="2.0" stroke-linecap="round" />
<path d="M438.4221979111211,235.45945945945948 L546.0101788368383,235.45945945945948" stroke="#9a9a9a" stroke-width="1.5" stroke-dasharray="6,5" stroke-linecap="butt" />
<path d="M546.0101788368383,235.45945945945948 L546.0101788368383,230.43243243243245" stroke="#9a9a9a" stroke-width="1.5" stroke-dasharray="6,5" stroke-linecap="butt" />
<path d="M546.0101788368383,235.45945945945948 L546.0101788368383,240.48648648648648" stroke="#9a9a9a" stroke-width="1.5" stroke-dasharray="6,5" stroke-linecap="butt" />
<path d="M546.0101788368383,230.43243243243245 L550.0,230.43243243243245" stroke="#9a9a9a" stroke-width="1.5" stroke-dasharray="6,5" stroke-linecap="butt" />
<path d="M546.0101788368383,240.48648648648648 L550.0,240.48648648648648" stroke="#9a9a9a" stroke-width="1.5" stroke-dasharray="6,5" stroke-linecap="butt" />
<path d="M438.4221979111211,287.63450168918916 L444.27275428549194,287.63450168918916" stroke="#1a1a1a" stroke-width="2.0" stroke-linecap="round" />
<path d="M444.27275428549194,287.63450168918916 L444.27275428549194,250.54054054054055" stroke="#9a9a9a" stroke-width="1.5" stroke-dasharray="6,5" stroke-linecap="butt" />
<path d="M444.27275428549194,287.63450168918916 L444.27275428549194,324.7284628378378" stroke="#1a1a1a" stroke-width="2.0" stroke-linecap="round" />
<path d="M444.27275428549194,250.54054054054055 L550.0,250.54054054054055" stroke="#9a9a9a" stroke-width="1.5" stroke-dasharray="6,5" stroke-linecap="butt" />
<path d="M444.27275428549194,324.7284628378378 L480.73330551864757,324.7284628378378" stroke="#1a1a1a" stroke-width="2.0" stroke-linecap="round" />
<path d="M480.73330551864757,324.7284628378378 L480.73330551864757,366.2407094594595" stroke="#1a1a1a" stroke-width="2.0" stroke-linecap="round" />
<path d="M480.73330551864757,324.7284628378378 L480.73330551864757,283.21621621621625" stroke="#1a1a1a" stroke-width="2.0" stroke-linecap="round" />
<path d="M480.73330551864757,366.2407094594595 L643.0532562893129,366.2407094594595" stroke="#1a1a1a" stroke-width="2.0" stroke-linecap="round" />
<path d="M643.0532562893129,366.2407094594595 L643.0532562893129,395.2246621621622" stroke="#1a1a1a" stroke-width="2.0" stroke-linecap="round" />
<path d="M643.0532562893129,366.2407094594595 L643.0532562893129,337.2567567567568" stroke="#1a1a1a" stroke-width="2.0" stroke-linecap="round" />
<path d="M643.0532562893129,395.2246621621622 L685.2896850739415,395.2246621621622" stroke="#1a1a1a" stroke-width="2.0" stroke-linecap="round" />
<path d="M685.2896850739415,395.2246621621622 L685.2896850739415,371.18918918918916" stroke="#1a1a1a" stroke-width="2.0" stroke-linecap="round" />
<path d="M685.2896850739415,395.2246621621622 L685.2896850739415,419.26013513513516" stroke="#1a1a1a" stroke-width="2.0" stroke-linecap="round" />
<path d="M685.2896850739415,371.18918918918916 L1000.0,371.18918918918916" stroke="#1a1a1a" stroke-width="2.0" stroke-linecap="round" />
<path d="M685.2896850739415,419.26013513513516 L736.9054101293158,419.26013513513516" stroke="#1a1a1a" stroke-width="2.0" stroke-linecap="round" />
<path d="M736.9054101293158,419.26013513513516 L736.9054101293158,452.25" stroke="#1a1a1a" stroke-width="2.0" stroke-linecap="round" />
<path d="M736.9054101293158,419.26013513513516 L736.9054101293158,386.2702702702703" stroke="#1a1a1a" stroke-width="2.0" stroke-linecap="round" />
<path d="M736.9054101293158,452.25 L756.3865336840375,452.25" stroke="#1a1a1a" stroke-width="2.0" stroke-linecap="round" />
<path d="M756.3865336840375,452.25 L756.3865336840375,486.81081081081084" stroke="#1a1a1a" stroke-width="2.0" stroke-linecap="round" />
<path d="M756.3865336840375,452.25 L756.3865336840375,417.6891891891892" stroke="#1a1a1a" stroke-width="2.0" stroke-linecap="round" />
<path d="M756.3865336840375,486.81081081081084 L777.4815332464248,486.81081081081084" stroke="#1a1a1a" stroke-width="2.0" stroke-linecap="round" />
<path d="M777.4815332464248,486.81081081081084 L777.4815332464248,466.7027027027027" stroke="#1a1a1a" stroke-width="2.0" stroke-linecap="round" />
<path d="M777.4815332464248,486.81081081081084 L777.4815332464248,506.9189189189189" stroke="#1a1a1a" stroke-width="2.0" stroke-linecap="round" />
<path d="M777.4815332464248,466.7027027027027 L918.6012614718578,466.7027027027027" stroke="#1a1a1a" stroke-width="2.0" stroke-linecap="round" />
<path d="M918.6012614718578,466.7027027027027 L918.6012614718578,456.64864864864865" stroke="#1a1a1a" stroke-width="2.0" stroke-linecap="round" />
<path d="M918.6012614718578,466.7027027027027 L918.6012614718578,476.7567567567568" stroke="#1a1a1a" stroke-width="2.0" stroke-linecap="round" />
<path d="M918.6012614718578,456.64864864864865 L951.0024030816124,456.64864864864865" stroke="#1a1a1a" stroke-width="2.0" stroke-linecap="round" />
<path d="M951.0024030816124,456.64864864864865 L951.0024030816124,451.6216216216216" stroke="#1a1a1a" stroke-width="2.0" stroke-linecap="round" />
<path d="M951.0024030816124,456.64864864864865 L951.0024030816124,461.6756756756757" stroke="#1a1a1a" stroke-width="2.0" stroke-linecap="round" />
<path d="M951.0024030816124,451.6216216216216 L1000.0,451.6216216216216" stroke="#1a1a1a" stroke-width="2.0" stroke-linecap="round" />
<path d="M951.0024030816124,461.6756756756757 L1000.0,461.6756756756757" stroke="#1a1a1a" stroke-width="2.0" stroke-linecap="round" />
<path d="M918.6012614718578,476.7567567567568 L921.2064635637038,476.7567567567568" stroke="#1a1a1a" stroke-width="2.0" stroke-linecap="round" />
<path d="M921.2064635637038,476.7567567567568 L921.2064635637038,471.72972972972974" stroke="#1a1a1a" stroke-width="2.0" stroke-linecap="round" />
<path d="M921.2064635637038,476.7567567567568 L921.2064635637038,481.7837837837838" stroke="#1a1a1a" stroke-width="2.0" stroke-linecap="round" />
<path d="M921.2064635637038,471.72972972972974 L1000.0,471.72972972972974" stroke="#1a1a1a" stroke-width="2.0" stroke-linecap="round" />
<path d="M921.2064635637038,481.7837837837838 L1000.0,481.7837837837838" stroke="#1a1a1a" stroke-width="2.0" stroke-linecap="round" />
<path d="M777.4815332464248,506.9189189189189 L974.080358268021,506.9189189189189" stroke="#1a1a1a" stroke-width="2.0" stroke-linecap="round" />
<path d="M974.080358268021,506.9189189189189 L974.080358268021,496.8648648648649" stroke="#1a1a1a" stroke-width="2.0" stroke-linecap="round" />
<path d="M974.080358268021,506.9189189189189 L974.080358268021,516.9729729729729" stroke="#1a1a1a" stroke-width="2.0" stroke-linecap="round" />
<path d="M974.080358268021,496.8648648648649 L982.5307061352215,496.8648648648649" stroke="#1a1a1a" stroke-width="2.0" stroke-linecap="round" />
<path d="M982.5307061352215,496.8648648648649 L982.5307061352215,491.83783783783787" stroke="#1a1a1a" stroke-width="2.0" stroke-linecap="round" />
<path d="M982.5307061352215,496.8648648648649 L982.5307061352215,501.89189189189193" stroke="#1a1a1a" stroke-width="2.0" stroke-linecap="round" />
<path d="M982.5307061352215,491.83783783783787 L1000.0,491.83783783783787" stroke="#1a1a1a" stroke-width="2.0" stroke-linecap="round" />
<path d="M982.5307061352215,501.89189189189193 L1000.0,501.89189189189193" stroke="#1a1a1a" stroke-width="2.0" stroke-linecap="round" />
<path d="M974.080358268021,516.9729729729729 L987.1037513889863,516.9729729729729" stroke="#1a1a1a" stroke-width="2.0" stroke-linecap="round" />
<path d="M987.1037513889863,516.9729729729729 L987.1037513889863,511.94594594594594" stroke="#1a1a1a" stroke-width="2.0" stroke-linecap="round" />
<path d="M987.1037513889863,516.9729729729729 L987.1037513889863,522.0" stroke="#1a1a1a" stroke-width="2.0" stroke-linecap="round" />
<path d="M987.1037513889863,511.94594594594594 L1000.0,511.94594594594594" stroke="#1a1a1a" stroke-width="2.0" stroke-linecap="round" />
<path d="M987.1037513889863,522.0 L1000.0,522.0" stroke="#1a1a1a" stroke-width="2.0" stroke-linecap="round" />
<path d="M756.3865336840375,417.6891891891892 L769.9381482960727,417.6891891891892" stroke="#1a1a1a" stroke-width="2.0" stroke-linecap="round" />
<path d="M769.9381482960727,417.6891891891892 L769.9381482960727,406.3783783783784" stroke="#1a1a1a" stroke-width="2.0" stroke-linecap="round" />
<path d="M769.9381482960727,417.6891891891892 L769.9381482960727,429.0" stroke="#1a1a1a" stroke-width="2.0" stroke-linecap="round" />
<path d="M769.9381482960727,406.3783783783784 L903.293699134927,406.3783783783784" stroke="#1a1a1a" stroke-width="2.0" stroke-linecap="round" />
<path d="M903.293699134927,406.3783783783784 L903.293699134927,401.35135135135135" stroke="#1a1a1a" stroke-width="2.0" stroke-linecap="round" />
<path d="M903.293699134927,406.3783783783784 L903.293699134927,411.4054054054054" stroke="#1a1a1a" stroke-width="2.0" stroke-linecap="round" />
<path d="M903.293699134927,401.35135135135135 L1000.0,401.35135135135135" stroke="#1a1a1a" stroke-width="2.0" stroke-linecap="round" />
<path d="M903.293699134927,411.4054054054054 L1000.0,411.4054054054054" stroke="#1a1a1a" stroke-width="2.0" stroke-linecap="round" />
<path d="M769.9381482960727,429.0 L866.3965139069504,429.0" stroke="#1a1a1a" stroke-width="2.0" stroke-linecap="round" />
<path d="M866.3965139069504,429.0 L866.3965139069504,436.5405405405406" stroke="#1a1a1a" stroke-width="2.0" stroke-linecap="round" />
<path d="M866.3965139069504,429.0 L866.3965139069504,421.4594594594595" stroke="#1a1a1a" stroke-width="2.0" stroke-linecap="round" />
<path d="M866.3965139069504,436.5405405405406 L868.1115384504485,436.5405405405406" stroke="#1a1a1a" stroke-width="2.0" stroke-linecap="round" />
<path d="M868.1115384504485,436.5405405405406 L868.1115384504485,431.51351351351354" stroke="#9a9a9a" stroke-width="1.5" stroke-dasharray="6,5" stroke-linecap="butt" />
<path d="M868.1115384504485,436.5405405405406 L868.1115384504485,441.56756756756755" stroke="#1a1a1a" stroke-width="2.0" stroke-linecap="round" />
<path d="M868.1115384504485,431.51351351351354 L939.3602547746196,431.51351351351354" stroke="#9a9a9a" stroke-width="1.5" stroke-dasharray="6,5" stroke-linecap="butt" />
<path d="M868.1115384504485,441.56756756756755 L1000.0,441.56756756756755" stroke="#1a1a1a" stroke-width="2.0" stroke-linecap="round" />
<path d="M866.3965139069504,421.4594594594595 L1000.0,421.4594594594595" stroke="#1a1a1a" stroke-width="2.0" stroke-linecap="round" />
<path d="M736.9054101293158,386.2702702702703 L774.4211137328917,386.2702702702703" stroke="#1a1a1a" stroke-width="2.0" stroke-linecap="round" />
<path d="M774.4211137328917,386.2702702702703 L774.4211137328917,381.2432432432432" stroke="#9a9a9a" stroke-width="1.5" stroke-dasharray="6,5" stroke-linecap="butt" />
<path d="M774.4211137328917,386.2702702702703 L774.4211137328917,391.2972972972973" stroke="#1a1a1a" stroke-width="2.0" stroke-linecap="round" />
<path d="M774.4211137328917,381.2432432432432 L787.0121831020264,381.2432432432432" stroke="#9a9a9a" stroke-width="1.5" stroke-dasharray="6,5" stroke-linecap="butt" />
<path d="M774.4211137328917,391.2972972972973 L1000.0,391.2972972972973" stroke="#1a1a1a" stroke-width="2.0" stroke-linecap="round" />
<path d="M643.0532562893129,337.2567567567568 L672.1169369314828,337.2567567567568" stroke="#1a1a1a" stroke-width="2.0" stroke-linecap="round" />
<path d="M672.1169369314828,337.2567567567568 L672.1169369314828,325.94594594594594" stroke="#1a1a1a" stroke-width="2.0" stroke-linecap="round" />
<path d="M672.1169369314828,337.2567567567568 L672.1169369314828,348.5675675675676" stroke="#1a1a1a" stroke-width="2.0" stroke-linecap="round" />
<path d="M672.1169369314828,325.94594594594594 L852.8513549683379,325.94594594594594" stroke="#1a1a1a" stroke-width="2.0" stroke-linecap="round" />
<path d="M852.8513549683379,325.94594594594594 L852.8513549683379,320.91891891891896" stroke="#1a1a1a" stroke-width="2.0" stroke-linecap="round" />
<path d="M852.8513549683379,325.94594594594594 L852.8513549683379,330.97297297297297" stroke="#1a1a1a" stroke-width="2.0" stroke-linecap="round" />
<path d="M852.8513549683379,320.91891891891896 L1000.0,320.91891891891896" stroke="#1a1a1a" stroke-width="2.0" stroke-linecap="round" />
<path d="M852.8513549683379,330.97297297297297 L1000.0,330.97297297297297" stroke="#1a1a1a" stroke-width="2.0" stroke-linecap="round" />
<path d="M672.1169369314828,348.5675675675676 L912.2488417658855,348.5675675675676" stroke="#1a1a1a" stroke-width="2.0" stroke-linecap="round" />
<path d="M912.2488417658855,348.5675675675676 L912.2488417658855,341.02702702702703" stroke="#1a1a1a" stroke-width="2.0" stroke-linecap="round" />
<path d="M912.2488417658855,348.5675675675676 L912.2488417658855,356.1081081081081" stroke="#1a1a1a" stroke-width="2.0" stroke-linecap="round" />
<path d="M912.2488417658855,341.02702702702703 L1000.0,341.02702702702703" stroke="#1a1a1a" stroke-width="2.0" stroke-linecap="round" />
<path d="M912.2488417658855,356.1081081081081 L955.7435894299635,356.1081081081081" stroke="#1a1a1a" stroke-width="2.0" stroke-linecap="round" />
<path d="M955.7435894299635,356.1081081081081 L955.7435894299635,351.0810810810811" stroke="#1a1a1a" stroke-width="2.0" stroke-linecap="round" />
<path d="M955.7435894299635,356.1081081081081 L955.7435894299635,361.1351351351351" stroke="#9a9a9a" stroke-width="1.5" stroke-dasharray="6,5" stroke-linecap="butt" />
<path d="M955.7435894299635,351.0810810810811 L1000.0,351.0810810810811" stroke="#1a1a1a" stroke-width="2.0" stroke-linecap="round" />
<path d="M955.7435894299635,361.1351351351351 L985.880410422018,361.1351351351351" stroke="#9a9a9a" stroke-width="1.5" stroke-dasharray="6,5" stroke-linecap="butt" />
<path d="M480.73330551864757,283.21621621621625 L491.77047959452887,283.21621621621625" stroke="#1a1a1a" stroke-width="2.0" stroke-linecap="round" />
<path d="M491.77047959452887,283.21621621621625 L491.77047959452887,268.13513513513516" stroke="#1a1a1a" stroke-width="2.0" stroke-linecap="round" />
<path d="M491.77047959452887,283.21621621621625 L491.77047959452887,298.2972972972973" stroke="#1a1a1a" stroke-width="2.0" stroke-linecap="round" />
<path d="M491.77047959452887,268.13513513513516 L507.5593435370138,268.13513513513516" stroke="#1a1a1a" stroke-width="2.0" stroke-linecap="round" />
<path d="M507.5593435370138,268.13513513513516 L507.5593435370138,275.6756756756757" stroke="#1a1a1a" stroke-width="2.0" stroke-linecap="round" />
<path d="M507.5593435370138,268.13513513513516 L507.5593435370138,260.5945945945946" stroke="#9a9a9a" stroke-width="1.5" stroke-dasharray="6,5" stroke-linecap="butt" />
<path d="M507.5593435370138,275.6756756756757 L543.859506919517,275.6756756756757" stroke="#1a1a1a" stroke-width="2.0" stroke-linecap="round" />
<path d="M543.859506919517,275.6756756756757 L543.859506919517,270.64864864864865" stroke="#9a9a9a" stroke-width="1.5" stroke-dasharray="6,5" stroke-linecap="butt" />
<path d="M543.859506919517,275.6756756756757 L543.859506919517,280.7027027027027" stroke="#1a1a1a" stroke-width="2.0" stroke-linecap="round" />
<path d="M543.859506919517,270.64864864864865 L550.0,270.64864864864865" stroke="#9a9a9a" stroke-width="1.5" stroke-dasharray="6,5" stroke-linecap="butt" />
<path d="M543.859506919517,280.7027027027027 L1000.0,280.7027027027027" stroke="#1a1a1a" stroke-width="2.0" stroke-linecap="round" />
<path d="M507.5593435370138,260.5945945945946 L550.0,260.5945945945946" stroke="#9a9a9a" stroke-width="1.5" stroke-dasharray="6,5" stroke-linecap="butt" />
<path d="M491.77047959452887,298.2972972972973 L506.58736487520036,298.2972972972973" stroke="#1a1a1a" stroke-width="2.0" stroke-linecap="round" />
<path d="M506.58736487520036,298.2972972972973 L506.58736487520036,290.7567567567568" stroke="#9a9a9a" stroke-width="1.5" stroke-dasharray="6,5" stroke-linecap="butt" />
<path d="M506.58736487520036,298.2972972972973 L506.58736487520036,305.8378378378378" stroke="#1a1a1a" stroke-width="2.0" stroke-linecap="round" />
<path d="M506.58736487520036,290.7567567567568 L550.0,290.7567567567568" stroke="#9a9a9a" stroke-width="1.5" stroke-dasharray="6,5" stroke-linecap="butt" />
<path d="M506.58736487520036,305.8378378378378 L765.9584273167158,305.8378378378378" stroke="#1a1a1a" stroke-width="2.0" stroke-linecap="round" />
<path d="M765.9584273167158,305.8378378378378 L765.9584273167158,300.81081081081084" stroke="#9a9a9a" stroke-width="1.5" stroke-dasharray="6,5" stroke-linecap="butt" />
<path d="M765.9584273167158,305.8378378378378 L765.9584273167158,310.8648648648649" stroke="#1a1a1a" stroke-width="2.0" stroke-linecap="round" />
<path d="M765.9584273167158,300.81081081081084 L852.4793890620024,300.81081081081084" stroke="#9a9a9a" stroke-width="1.5" stroke-dasharray="6,5" stroke-linecap="butt" />
<path d="M765.9584273167158,310.8648648648649 L1000.0,310.8648648648649" stroke="#1a1a1a" stroke-width="2.0" stroke-linecap="round" />
<path d="M399.27788503732944,215.35135135135135 L434.1772075392368,215.35135135135135" stroke="#9a9a9a" stroke-width="1.5" stroke-dasharray="6,5" stroke-linecap="butt" />
<path d="M434.1772075392368,215.35135135135135 L434.1772075392368,210.32432432432432" stroke="#9a9a9a" stroke-width="1.5" stroke-dasharray="6,5" stroke-linecap="butt" />
<path d="M434.1772075392368,215.35135135135135 L434.1772075392368,220.3783783783784" stroke="#9a9a9a" stroke-width="1.5" stroke-dasharray="6,5" stroke-linecap="butt" />
<path d="M434.1772075392368,210.32432432432432 L476.55087732549055,210.32432432432432" stroke="#9a9a9a" stroke-width="1.5" stroke-dasharray="6,5" stroke-linecap="butt" />
<path d="M434.1772075392368,220.3783783783784 L459.36282064950205,220.3783783783784" stroke="#9a9a9a" stroke-width="1.5" stroke-dasharray="6,5" stroke-linecap="butt" />
<path d="M357.3927665617511,178.90540540540542 L497.2453560760168,178.90540540540542" stroke="#9a9a9a" stroke-width="1.5" stroke-dasharray="6,5" stroke-linecap="butt" />
<path d="M497.2453560760168,178.90540540540542 L497.2453560760168,187.7027027027027" stroke="#9a9a9a" stroke-width="1.5" stroke-dasharray="6,5" stroke-linecap="butt" />
<path d="M497.2453560760168,178.90540540540542 L497.2453560760168,170.1081081081081" stroke="#9a9a9a" stroke-width="1.5" stroke-dasharray="6,5" stroke-linecap="butt" />
<path d="M497.2453560760168,187.7027027027027 L521.0025317404906,187.7027027027027" stroke="#9a9a9a" stroke-width="1.5" stroke-dasharray="6,5" stroke-linecap="butt" />
<path d="M521.0025317404906,187.7027027027027 L521.0025317404906,180.16216216216216" stroke="#9a9a9a" stroke-width="1.5" stroke-dasharray="6,5" stroke-linecap="butt" />
<path d="M521.0025317404906,187.7027027027027 L521.0025317404906,195.24324324324323" stroke="#9a9a9a" stroke-width="1.5" stroke-dasharray="6,5" stroke-linecap="butt" />
<path d="M521.0025317404906,180.16216216216216 L550.0,180.16216216216216" stroke="#9a9a9a" stroke-width="1.5" stroke-dasharray="6,5" stroke-linecap="butt" />
<path d="M521.0025317404906,195.24324324324323 L548.7016652440444,195.24324324324323" stroke="#9a9a9a" stroke-width="1.5" stroke-dasharray="6,5" stroke-linecap="butt" />
<path d="M548.7016652440444,195.24324324324323 L548.7016652440444,190.21621621621622" stroke="#9a9a9a" stroke-width="1.5" stroke-dasharray="6,5" stroke-linecap="butt" />
<path d="M548.7016652440444,195.24324324324323 L548.7016652440444,200.27027027027026" stroke="#9a9a9a" stroke-width="1.5" stroke-dasharray="6,5" stroke-linecap="butt" />
<path d="M548.7016652440444,190.21621621621622 L550.0,190.21621621621622" stroke="#9a9a9a" stroke-width="1.5" stroke-dasharray="6,5" stroke-linecap="butt" />
<path d="M548.7016652440444,200.27027027027026 L550.0,200.27027027027026" stroke="#9a9a9a" stroke-width="1.5" stroke-dasharray="6,5" stroke-linecap="butt" />
<path d="M497.2453560760168,170.1081081081081 L550.0,170.1081081081081" stroke="#9a9a9a" stroke-width="1.5" stroke-dasharray="6,5" stroke-linecap="butt" />
<path d="M100.0,155.02702702702703 L511.241591294695,155.02702702702703" stroke="#9a9a9a" stroke-width="1.5" stroke-dasharray="6,5" stroke-linecap="butt" />
<path d="M511.241591294695,155.02702702702703 L511.241591294695,150.0" stroke="#9a9a9a" stroke-width="1.5" stroke-dasharray="6,5" stroke-linecap="butt" />
<path d="M511.241591294695,155.02702702702703 L511.241591294695,160.05405405405406" stroke="#9a9a9a" stroke-width="1.5" stroke-dasharray="6,5" stroke-linecap="butt" />
<path d="M511.241591294695,150.0 L550.0,150.0" stroke="#9a9a9a" stroke-width="1.5" stroke-dasharray="6,5" stroke-linecap="butt" />
<path d="M511.241591294695,160.05405405405406 L550.0,160.05405405405406" stroke="#9a9a9a" stroke-width="1.5" stroke-dasharray="6,5" stroke-linecap="butt" />
<circle cx="550.0" cy="230.43243243243245" r="3.2" fill="#1a1a1a" />
<circle cx="550.0" cy="240.48648648648648" r="3.2" fill="#1a1a1a" />
<circle cx="550.0" cy="250.54054054054055" r="3.2" fill="#1a1a1a" />
<circle cx="550.0" cy="270.64864864864865" r="3.2" fill="#1a1a1a" />
<circle cx="550.0" cy="260.5945945945946" r="3.2" fill="#1a1a1a" />
<circle cx="550.0" cy="290.7567567567568" r="3.2" fill="#1a1a1a" />
<circle cx="550.0" cy="180.16216216216216" r="3.2" fill="#1a1a1a" />
<circle cx="550.0" cy="190.21621621621622" r="3.2" fill="#1a1a1a" />
<circle cx="550.0" cy="200.27027027027026" r="3.2" fill="#1a1a1a" />
<circle cx="550.0" cy="170.1081081081081" r="3.2" fill="#1a1a1a" />
<circle cx="550.0" cy="150.0" r="3.2" fill="#1a1a1a" />
<circle cx="550.0" cy="160.05405405405406" r="3.2" fill="#1a1a1a" />
<path d="M100,700 L1000,700" stroke="#bdbdbd" stroke-width="1.2" />
<path d="M100,572 L100,700" stroke="#bdbdbd" stroke-width="1.2" />
<path d="M100.0,700.0 L101.28571428571429,687.2 L102.57142857142857,687.2 L103.85714285714286,687.2 L105.14285714285714,687.2 L106.42857142857143,687.2 L107.71428571428571,687.2 L109.0,687.2 L110.28571428571429,687.2 L111.57142857142857,687.2 L112.85714285714286,687.2 L114.14285714285714,687.2 L115.42857142857143,687.2 L116.71428571428572,687.2 L118.0,687.2 L119.28571428571428,687.2 L120.57142857142857,687.2 L121.85714285714286,687.2 L123.14285714285714,687.2 L124.42857142857143,687.2 L125.71428571428571,687.2 L127.0,687.2 L128.28571428571428,687.2 L129.57142857142856,687.2 L130.85714285714286,687.2 L132.14285714285714,687.2 L133.42857142857144,687.2 L134.71428571428572,687.2 L136.0,687.2 L137.28571428571428,687.2 L138.57142857142856,687.2 L139.85714285714286,687.2 L141.14285714285714,687.2 L142.42857142857142,687.2 L143.71428571428572,687.2 L145.0,687.2 L146.28571428571428,687.2 L147.57142857142858,687.2 L148.85714285714286,687.2 L150.14285714285714,687.2 L151.42857142857142,687.2 L152.71428571428572,687.2 L154.0,687.2 L155.28571428571428,687.2 L156.57142857142858,687.2 L157.85714285714286,687.2 L159.14285714285714,687.2 L160.42857142857144,687.2 L161.71428571428572,687.2 L163.0,687.2 L164.28571428571428,687.2 L165.57142857142856,687.2 L166.85714285714286,687.2 L168.14285714285714,687.2 L169.42857142857144,687.2 L170.71428571428572,687.2 L172.0,687.2 L173.28571428571428,687.2 L174.57142857142858,687.2 L175.85714285714286,687.2 L177.14285714285714,687.2 L178.42857142857144,687.2 L179.71428571428572,687.2 L181.0,687.2 L182.28571428571428,687.2 L183.57142857142856,687.2 L184.85714285714283,687.2 L186.14285714285717,687.2 L187.42857142857144,687.2 L188.71428571428572,687.2 L190.0,687.2 L191.28571428571428,687.2 L192.57142857142856,687.2 L193.85714285714286,687.2 L195.14285714285717,687.2 L196.42857142857142,687.2 L197.71428571428572,687.2 L199.0,687.2 L200.28571428571428,687.2 L201.57142857142856,687.2 L202.85714285714283,687.2 L204.14285714285717,687.2 L205.42857142857144,687.2 L206.71428571428572,687.2 L208.0,687.2 L209.28571428571428,687.2 L210.57142857142856,687.2 L211.85714285714286,687.2 L213.14285714285717,687.2 L214.42857142857144,687.2 L215.71428571428572,687.2 L217.0,687.2 L218.28571428571428,687.2 L219.57142857142856,687.2 L220.85714285714286,687.2 L222.14285714285717,687.2 L223.42857142857144,687.2 L224.71428571428572,687.2 L226.0,687.2 L227.28571428571428,687.2 L228.57142857142856,687.2 L229.85714285714286,687.2 L231.14285714285714,687.2 L232.42857142857144,687.2 L233.71428571428572,687.2 L235.0,687.2 L236.28571428571428,687.2 L237.57142857142858,687.2 L238.85714285714286,687.2 L240.14285714285714,687.2 L241.42857142857142,687.2 L242.7142857142857,687.2 L244.0,687.2 L245.28571428571428,687.2 L246.57142857142858,687.2 L247.85714285714286,687.2 L249.14285714285717,687.2 L250.42857142857144,687.2 L251.71428571428572,687.2 L253.0,687.2 L254.28571428571428,687.2 L255.57142857142858,687.2 L256.8571428571429,687.2 L258.1428571428571,687.2 L259.42857142857144,687.2 L260.7142857142857,687.2 L262.0,687.2 L263.28571428571433,687.2 L264.57142857142856,687.2 L265.8571428571429,687.2 L267.1428571428571,687.2 L268.42857142857144,687.2 L269.71428571428567,687.2 L271.0,687.2 L272.28571428571433,687.2 L273.57142857142856,687.2 L274.8571428571429,687.2 L276.1428571428571,687.2 L277.42857142857144,687.2 L278.7142857142857,687.2 L280.0,687.2 L281.2857142857143,687.2 L282.57142857142856,687.2 L283.85714285714283,687.2 L285.1428571428571,687.2 L286.42857142857144,687.2 L287.7142857142857,687.2 L289.0,687.2 L290.28571428571433,687.2 L291.57142857142856,687.2 L292.85714285714283,687.2 L294.1428571428571,687.2 L295.42857142857144,687.2 L296.71428571428567,687.2 L298.0,687.2 L299.28571428571433,687.2 L300.57142857142856,687.2 L301.8571428571429,687.2 L303.1428571428571,687.2 L304.42857142857144,687.2 L305.71428571428567,687.2 L307.0,687.2 L308.28571428571433,687.2 L309.57142857142856,687.2 L310.8571428571429,687.2 L312.1428571428571,687.2 L313.42857142857144,687.2 L314.7142857142857,687.2 L316.0,687.2 L317.2857142857143,687.2 L318.57142857142856,687.2 L319.8571428571429,687.2 L321.1428571428571,687.2 L322.42857142857144,687.2 L323.7142857142857,687.2 L325.0,687.2 L326.28571428571433,687.2 L327.57142857142856,687.2 L328.8571428571429,687.2 L330.1428571428571,687.2 L331.42857142857144,687.2 L332.71428571428567,687.2 L334.0,687.2 L335.28571428571433,687.2 L336.57142857142856,687.2 L337.8571428571429,687.2 L339.1428571428571,687.2 L340.42857142857144,687.2 L341.7142857142857,687.2 L343.0,687.2 L344.28571428571433,687.2 L345.57142857142856,687.2 L346.8571428571429,687.2 L348.1428571428571,687.2 L349.42857142857144,687.2 L350.7142857142857,687.2 L352.0,687.2 L353.28571428571433,687.2 L354.57142857142856,687.2 L355.8571428571429,687.2 L357.1428571428571,687.2 L358.42857142857144,680.8 L359.7142857142857,680.8 L361.0,680.8 L362.2857142857143,680.8 L363.57142857142856,680.8 L364.8571428571429,680.8 L366.1428571428571,680.8 L367.42857142857144,680.8 L368.7142857142857,680.8 L370.0,680.8 L371.2857142857143,680.8 L372.57142857142856,680.8 L373.85714285714283,680.8 L375.14285714285717,680.8 L376.42857142857144,680.8 L377.7142857142857,680.8 L379.0,680.8 L380.2857142857143,680.8 L381.57142857142856,680.8 L382.85714285714283,680.8 L384.14285714285717,680.8 L385.4285714285714,680.8 L386.7142857142857,680.8 L388.0,680.8 L389.28571428571433,680.8 L390.57142857142856,680.8 L391.85714285714283,680.8 L393.14285714285717,680.8 L394.4285714285714,680.8 L395.7142857142857,680.8 L396.99999999999994,680.8 L398.28571428571433,680.8 L399.57142857142856,674.4 L400.8571428571429,674.4 L402.14285714285717,674.4 L403.42857142857144,674.4 L404.7142857142857,674.4 L406.0,674.4 L407.2857142857143,674.4 L408.57142857142856,674.4 L409.8571428571429,674.4 L411.14285714285717,674.4 L412.42857142857144,674.4 L413.7142857142857,674.4 L415.0,674.4 L416.2857142857143,674.4 L417.57142857142856,674.4 L418.85714285714283,674.4 L420.1428571428571,674.4 L421.42857142857144,674.4 L422.7142857142857,674.4 L424.0,674.4 L425.2857142857143,674.4 L426.5714285714286,674.4 L427.85714285714283,674.4 L429.14285714285717,674.4 L430.4285714285714,674.4 L431.7142857142857,674.4 L433.0,674.4 L434.2857142857143,668.0 L435.5714285714286,668.0 L436.85714285714283,668.0 L438.14285714285717,668.0 L439.4285714285714,661.6 L440.7142857142857,661.6 L442.0,661.6 L443.2857142857143,661.6 L444.5714285714286,655.2 L445.85714285714283,655.2 L447.14285714285717,655.2 L448.4285714285714,655.2 L449.7142857142857,655.2 L451.0,655.2 L452.2857142857143,655.2 L453.57142857142856,655.2 L454.8571428571429,655.2 L456.14285714285717,655.2 L457.42857142857144,655.2 L458.7142857142857,655.2 L460.0,661.6 L461.2857142857143,661.6 L462.57142857142856,661.6 L463.85714285714283,661.6 L465.1428571428571,661.6 L466.42857142857144,661.6 L467.71428571428567,661.6 L469.0,661.6 L470.2857142857142,661.6 L471.5714285714286,661.6 L472.8571428571429,661.6 L474.14285714285717,661.6 L475.42857142857144,661.6 L476.7142857142857,668.0 L478.00000000000006,668.0 L479.2857142857143,668.0 L480.5714285714286,668.0 L481.85714285714283,661.6 L483.14285714285717,661.6 L484.42857142857144,661.6 L485.71428571428567,661.6 L487.0,661.6 L488.2857142857142,661.6 L489.57142857142856,661.6 L490.85714285714283,661.6 L492.1428571428571,655.2 L493.4285714285714,655.2 L494.7142857142858,655.2 L496.00000000000006,655.2 L497.2857142857143,648.8 L498.5714285714286,648.8 L499.85714285714283,648.8 L501.14285714285717,648.8 L502.42857142857144,648.8 L503.7142857142857,648.8 L505.0,648.8 L506.2857142857143,648.8 L507.57142857142856,636.0 L508.8571428571429,636.0 L510.1428571428571,636.0 L511.4285714285714,629.6 L512.7142857142857,629.6 L514.0,629.6 L515.2857142857142,629.6 L516.5714285714287,629.6 L517.8571428571429,629.6 L519.1428571428571,629.6 L520.4285714285716,629.6 L521.7142857142858,623.2 L523.0,623.2 L524.2857142857142,623.2 L525.5714285714286,623.2 L526.8571428571429,623.2 L528.1428571428571,623.2 L529.4285714285714,623.2 L530.7142857142857,623.2 L532.0,623.2 L533.2857142857142,623.2 L534.5714285714286,623.2 L535.8571428571429,623.2 L537.1428571428571,623.2 L538.4285714285713,623.2 L539.7142857142858,623.2 L541.0,623.2 L542.2857142857142,623.2 L543.5714285714287,623.2 L544.8571428571429,616.8 L546.1428571428571,610.4 L547.4285714285714,610.4 L548.7142857142858,604.0 L550.0,604.0 L551.2857142857142,680.8 L552.5714285714287,680.8 L553.8571428571428,680.8 L555.1428571428571,680.8 L556.4285714285713,680.8 L557.7142857142858,680.8 L559.0,680.8 L560.2857142857142,680.8 L561.5714285714287,680.8 L562.8571428571429,680.8 L564.1428571428572,680.8 L565.4285714285713,680.8 L566.7142857142858,680.8 L568.0,680.8 L569.2857142857143,680.8 L570.5714285714287,680.8 L571.8571428571429,680.8 L573.1428571428571,680.8 L574.4285714285714,680.8 L575.7142857142858,680.8 L577.0,680.8 L578.2857142857142,680.8 L579.5714285714284,680.8 L580.8571428571429,680.8 L582.1428571428571,680.8 L583.4285714285714,680.8 L584.7142857142858,680.8 L586.0,680.8 L587.2857142857143,680.8 L588.5714285714287,680.8 L589.8571428571429,680.8 L591.1428571428571,680.8 L592.4285714285714,680.8 L593.7142857142858,680.8 L595.0,680.8 L596.2857142857142,680.8 L597.5714285714286,680.8 L598.8571428571429,680.8 L600.1428571428571,680.8 L601.4285714285714,680.8 L602.7142857142857,680.8 L604.0,680.8 L605.2857142857142,680.8 L606.5714285714287,680.8 L607.8571428571429,680.8 L609.1428571428571,680.8 L610.4285714285714,680.8 L611.7142857142858,680.8 L613.0,680.8 L614.2857142857142,680.8 L615.5714285714286,680.8 L616.8571428571429,680.8 L618.1428571428571,680.8 L619.4285714285714,680.8 L620.7142857142857,680.8 L622.0,680.8 L623.2857142857142,680.8 L624.5714285714286,680.8 L625.8571428571429,680.8 L627.1428571428571,680.8 L628.4285714285713,680.8 L629.7142857142858,680.8 L631.0000000000001,680.8 L632.2857142857142,680.8 L633.5714285714286,680.8 L634.8571428571429,680.8 L636.1428571428572,680.8 L637.4285714285714,680.8 L638.7142857142857,680.8 L640.0,680.8 L641.2857142857143,680.8 L642.5714285714286,680.8 L643.8571428571429,674.4 L645.1428571428571,674.4 L646.4285714285713,674.4 L647.7142857142857,674.4 L649.0,674.4 L650.2857142857143,674.4 L651.5714285714286,674.4 L652.8571428571429,674.4 L654.1428571428572,674.4 L655.4285714285714,674.4 L656.7142857142857,674.4 L658.0,674.4 L659.2857142857143,674.4 L660.5714285714286,674.4 L661.8571428571429,674.4 L663.1428571428571,674.4 L664.4285714285714,674.4 L665.7142857142857,674.4 L667.0,674.4 L668.2857142857143,674.4 L669.5714285714286,674.4 L670.8571428571428,674.4 L672.1428571428571,668.0 L673.4285714285714,668.0 L674.7142857142857,668.0 L676.0,668.0 L677.2857142857143,668.0 L678.5714285714287,668.0 L679.8571428571429,668.0 L681.1428571428571,668.0 L682.4285714285714,668.0 L683.7142857142857,668.0 L685.0,668.0 L686.2857142857143,661.6 L687.5714285714286,661.6 L688.8571428571428,661.6 L690.1428571428571,661.6 L691.4285714285714,661.6 L692.7142857142858,661.6 L693.9999999999999,661.6 L695.2857142857142,661.6 L696.5714285714287,661.6 L697.8571428571429,661.6 L699.1428571428571,661.6 L700.4285714285714,661.6 L701.7142857142858,661.6 L703.0,661.6 L704.2857142857143,661.6 L705.5714285714286,661.6 L706.8571428571429,661.6 L708.1428571428571,661.6 L709.4285714285714,661.6 L710.7142857142858,661.6 L712.0,661.6 L713.2857142857142,661.6 L714.5714285714286,661.6 L715.8571428571429,661.6 L717.1428571428571,661.6 L718.4285714285713,661.6 L719.7142857142858,661.6 L721.0,661.6 L722.2857142857143,661.6 L723.5714285714286,661.6 L724.8571428571429,661.6 L726.1428571428571,661.6 L727.4285714285714,661.6 L728.7142857142858,661.6 L730.0,661.6 L731.2857142857142,661.6 L732.5714285714286,661.6 L733.8571428571429,661.6 L735.1428571428571,661.6 L736.4285714285713,661.6 L737.7142857142857,655.2 L739.0,655.2 L740.2857142857142,655.2 L741.5714285714286,655.2 L742.8571428571429,655.2 L744.1428571428572,655.2 L745.4285714285714,655.2 L746.7142857142858,655.2 L748.0,655.2 L749.2857142857142,655.2 L750.5714285714286,655.2 L751.8571428571429,655.2 L753.1428571428572,655.2 L754.4285714285713,655.2 L755.7142857142857,655.2 L757.0,648.8 L758.2857142857143,648.8 L759.5714285714286,648.8 L760.8571428571428,648.8 L762.1428571428571,648.8 L763.4285714285714,648.8 L764.7142857142858,648.8 L766.0,642.4 L767.2857142857143,642.4 L768.5714285714286,642.4 L769.8571428571429,642.4 L771.1428571428572,636.0 L772.4285714285714,636.0 L773.7142857142857,636.0 L775.0,629.6 L776.2857142857143,629.6 L777.5714285714286,623.2 L778.8571428571428,623.2 L780.1428571428571,623.2 L781.4285714285714,623.2 L782.7142857142857,623.2 L784.0,623.2 L785.2857142857142,623.2 L786.5714285714286,623.2 L787.8571428571429,629.6 L789.1428571428572,629.6 L790.4285714285714,629.6 L791.7142857142857,629.6 L793.0,629.6 L794.2857142857143,629.6 L795.5714285714287,629.6 L796.8571428571428,629.6 L798.1428571428571,629.6 L799.4285714285714,629.6 L800.7142857142858,629.6 L802.0,629.6 L803.2857142857142,629.6 L804.5714285714286,629.6 L805.8571428571428,629.6 L807.1428571428571,629.6 L808.4285714285714,629.6 L809.7142857142858,629.6 L811.0,629.6 L812.2857142857143,629.6 L813.5714285714287,629.6 L814.8571428571429,629.6 L816.1428571428571,629.6 L817.4285714285714,629.6 L818.7142857142858,629.6 L820.0,629.6 L821.2857142857142,629.6 L822.5714285714286,629.6 L823.8571428571429,629.6 L825.1428571428571,629.6 L826.4285714285714,629.6 L827.7142857142857,629.6 L829.0,629.6 L830.2857142857142,629.6 L831.5714285714286,629.6 L832.8571428571429,629.6 L834.142857142857,629.6 L835.4285714285713,629.6 L836.7142857142857,629.6 L838.0,629.6 L839.2857142857142,629.6 L840.5714285714284,629.6 L841.8571428571428,629.6 L843.1428571428572,629.6 L844.4285714285714,629.6 L845.7142857142858,629.6 L847.0000000000001,629.6 L848.2857142857143,629.6 L849.5714285714287,629.6 L850.8571428571429,629.6 L852.1428571428572,629.6 L853.4285714285714,629.6 L854.7142857142858,629.6 L856.0000000000001,629.6 L857.2857142857142,629.6 L858.5714285714286,629.6 L859.8571428571429,629.6 L861.1428571428572,629.6 L862.4285714285714,629.6 L863.7142857142857,629.6 L865.0,629.6 L866.2857142857143,629.6 L867.5714285714286,623.2 L868.8571428571429,616.8 L870.1428571428571,616.8 L871.4285714285713,616.8 L872.7142857142857,616.8 L874.0,616.8 L875.2857142857143,616.8 L876.5714285714284,616.8 L877.8571428571428,616.8 L879.1428571428571,616.8 L880.4285714285714,616.8 L881.7142857142857,616.8 L882.9999999999999,616.8 L884.2857142857142,616.8 L885.5714285714284,616.8 L886.8571428571428,616.8 L888.1428571428572,616.8 L889.4285714285716,616.8 L890.7142857142858,616.8 L892.0000000000001,616.8 L893.2857142857143,616.8 L894.5714285714286,616.8 L895.8571428571429,616.8 L897.1428571428572,616.8 L898.4285714285716,616.8 L899.7142857142857,616.8 L901.0,616.8 L902.2857142857143,616.8 L903.5714285714287,610.4 L904.8571428571429,610.4 L906.1428571428571,610.4 L907.4285714285714,610.4 L908.7142857142857,610.4 L910.0,610.4 L911.2857142857143,610.4 L912.5714285714286,604.0 L913.8571428571428,604.0 L915.1428571428571,604.0 L916.4285714285714,604.0 L917.7142857142858,604.0 L918.9999999999999,597.6 L920.2857142857142,597.6 L921.5714285714286,591.2 L922.8571428571428,591.2 L924.1428571428571,591.2 L925.4285714285713,591.2 L926.7142857142857,591.2 L927.9999999999999,591.2 L929.2857142857142,591.2 L930.5714285714286,591.2 L931.8571428571428,591.2 L933.1428571428572,591.2 L934.4285714285716,591.2 L935.7142857142858,591.2 L937.0,591.2 L938.2857142857143,591.2 L939.5714285714287,597.6 L940.857142857143,597.6 L942.1428571428571,597.6 L943.4285714285714,597.6 L944.7142857142858,597.6 L946.0,597.6 L947.2857142857143,597.6 L948.5714285714286,597.6 L949.8571428571429,597.6 L951.1428571428571,591.2 L952.4285714285714,591.2 L953.7142857142858,591.2 L955.0,591.2 L956.2857142857142,584.8 L957.5714285714286,584.8 L958.8571428571429,584.8 L960.1428571428571,584.8 L961.4285714285713,584.8 L962.7142857142857,584.8 L964.0,584.8 L965.2857142857142,584.8 L966.5714285714286,584.8 L967.8571428571428,584.8 L969.1428571428571,584.8 L970.4285714285713,584.8 L971.7142857142857,584.8 L973.0,584.8 L974.2857142857142,578.4 L975.5714285714284,578.4 L976.8571428571428,578.4 L978.1428571428572,578.4 L979.4285714285714,578.4 L980.7142857142858,578.4 L982.0000000000001,578.4 L983.2857142857143,572.0 L984.5714285714286,572.0 L985.8571428571429,572.0 L987.1428571428572,572.0 L988.4285714285714,572.0 L989.7142857142858,572.0 L991.0,572.0 L992.2857142857143,572.0 L993.5714285714286,572.0 L994.8571428571429,572.0 L996.1428571428572,572.0 L997.4285714285714,572.0 L998.7142857142857,572.0 L1000.0,572.0" fill="none" stroke="#1a1a1a" stroke-width="2.8" stroke-linejoin="round" />
<text x="90" y="700.0" font-size="18" font-family="Helvetica" text-anchor="end" dominant-baseline="central" fill="#555">0</text>
<text x="90" y="572.0" font-size="18" font-family="Helvetica" text-anchor="end" dominant-baseline="central" fill="#555">20</text>
<text x="60" y="636.0" font-size="22" font-family="Helvetica" text-anchor="middle" fill="#555" transform="rotate(-90 60 636.0)">lineages</text>
<text x="566.0" y="594" font-size="20" font-family="Helvetica" text-anchor="start" fill="#555" font-style="italic">crash, then recovery</text>
<path d="M100.0,700 L100.0,706" stroke="#1a1a1a" stroke-width="1.2" />
<text x="100.0" y="724" font-size="18" font-family="Helvetica" text-anchor="middle" fill="#555">0</text>
<path d="M280.0,700 L280.0,706" stroke="#1a1a1a" stroke-width="1.2" />
<text x="280.0" y="724" font-size="18" font-family="Helvetica" text-anchor="middle" fill="#555">1</text>
<path d="M460.0,700 L460.0,706" stroke="#1a1a1a" stroke-width="1.2" />
<text x="460.0" y="724" font-size="18" font-family="Helvetica" text-anchor="middle" fill="#555">2</text>
<path d="M640.0,700 L640.0,706" stroke="#1a1a1a" stroke-width="1.2" />
<text x="640.0" y="724" font-size="18" font-family="Helvetica" text-anchor="middle" fill="#555">3</text>
<path d="M820.0,700 L820.0,706" stroke="#1a1a1a" stroke-width="1.2" />
<text x="820.0" y="724" font-size="18" font-family="Helvetica" text-anchor="middle" fill="#555">4</text>
<path d="M1000.0,700 L1000.0,706" stroke="#1a1a1a" stroke-width="1.2" />
<text x="1000.0" y="724" font-size="18" font-family="Helvetica" text-anchor="middle" fill="#555">5</text>
<text x="550.0" y="752" font-size="22" font-family="Helvetica" text-anchor="middle" fill="#555">time (root to present)</text>
</svg>