<svg xmlns="http://www.w3.org/2000/svg" xmlns:xlink="http://www.w3.org/1999/xlink" width="2460" height="790" viewBox="0 0 2460 790">
<rect x="0" y="0" width="2460" height="790" fill="white" />
<svg x="0" y="0" xmlns="http://www.w3.org/2000/svg" xmlns:xlink="http://www.w3.org/1999/xlink"
     width="820" height="680" viewBox="-410.0 -340.0 820 680">
<defs>
</defs>
<rect x="-410.0" y="-340.0" width="820" height="680" fill="white" />
<path d="M292.0,-234.0 L292.0,234.00000000000006" stroke="#c9c9c9" stroke-width="1.0" stroke-dasharray="2,4" />
<path d="M-292.0,-222.0 L292.0,-222.0" stroke="#1a1a1a" stroke-width="2.6" stroke-linecap="round" />
<path d="M73.96025725314064,-181.63636363636363 L292.0,-181.63636363636363" stroke="#1a1a1a" stroke-width="2.6" stroke-linecap="round" />
<path d="M262.0982226708678,-141.27272727272725 L292.0,-141.27272727272725" stroke="#1a1a1a" stroke-width="2.6" stroke-linecap="round" />
<path d="M262.0982226708678,-100.9090909090909 L292.0,-100.9090909090909" stroke="#1a1a1a" stroke-width="2.6" stroke-linecap="round" />
<path d="M136.66281480986834,-121.09090909090908 L262.0982226708678,-121.09090909090908" stroke="#1a1a1a" stroke-width="2.6" stroke-linecap="round" />
<path d="M262.0982226708678,-121.09090909090908 L262.0982226708678,-141.27272727272725" stroke="#1a1a1a" stroke-width="2.6" stroke-linecap="round" />
<path d="M262.0982226708678,-121.09090909090908 L262.0982226708678,-100.9090909090909" stroke="#1a1a1a" stroke-width="2.6" stroke-linecap="round" />
<path d="M257.13883578997616,-60.54545454545453 L292.0,-60.54545454545453" stroke="#1a1a1a" stroke-width="2.6" stroke-linecap="round" />
<path d="M285.75079274902805,-20.18181818181816 L292.0,-20.18181818181816" stroke="#1a1a1a" stroke-width="2.6" stroke-linecap="round" />
<path d="M285.75079274902805,20.181818181818187 L292.0,20.181818181818187" stroke="#1a1a1a" stroke-width="2.6" stroke-linecap="round" />
<path d="M257.13883578997616,1.4210854715202004e-14 L285.75079274902805,1.4210854715202004e-14" stroke="#1a1a1a" stroke-width="2.6" stroke-linecap="round" />
<path d="M285.75079274902805,1.4210854715202004e-14 L285.75079274902805,-20.18181818181816" stroke="#1a1a1a" stroke-width="2.6" stroke-linecap="round" />
<path d="M285.75079274902805,1.4210854715202004e-14 L285.75079274902805,20.181818181818187" stroke="#1a1a1a" stroke-width="2.6" stroke-linecap="round" />
<path d="M136.66281480986834,-30.27272727272726 L257.13883578997616,-30.27272727272726" stroke="#1a1a1a" stroke-width="2.6" stroke-linecap="round" />
<path d="M257.13883578997616,-30.27272727272726 L257.13883578997616,-60.54545454545453" stroke="#1a1a1a" stroke-width="2.6" stroke-linecap="round" />
<path d="M257.13883578997616,-30.27272727272726 L257.13883578997616,1.4210854715202004e-14" stroke="#1a1a1a" stroke-width="2.6" stroke-linecap="round" />
<path d="M73.96025725314064,-75.68181818181817 L136.66281480986834,-75.68181818181817" stroke="#1a1a1a" stroke-width="2.6" stroke-linecap="round" />
<path d="M136.66281480986834,-75.68181818181817 L136.66281480986834,-121.09090909090908" stroke="#1a1a1a" stroke-width="2.6" stroke-linecap="round" />
<path d="M136.66281480986834,-75.68181818181817 L136.66281480986834,-30.27272727272726" stroke="#1a1a1a" stroke-width="2.6" stroke-linecap="round" />
<path d="M-214.65809971313593,-128.6590909090909 L73.96025725314064,-128.6590909090909" stroke="#1a1a1a" stroke-width="2.6" stroke-linecap="round" />
<path d="M73.96025725314064,-128.6590909090909 L73.96025725314064,-181.63636363636363" stroke="#1a1a1a" stroke-width="2.6" stroke-linecap="round" />
<path d="M73.96025725314064,-128.6590909090909 L73.96025725314064,-75.68181818181817" stroke="#1a1a1a" stroke-width="2.6" stroke-linecap="round" />
<path d="M261.7936021993162,60.54545454545456 L292.0,60.54545454545456" stroke="#1a1a1a" stroke-width="2.6" stroke-linecap="round" />
<path d="M261.7936021993162,100.90909090909093 L292.0,100.90909090909093" stroke="#1a1a1a" stroke-width="2.6" stroke-linecap="round" />
<path d="M85.47668719849582,80.72727272727275 L261.7936021993162,80.72727272727275" stroke="#1a1a1a" stroke-width="2.6" stroke-linecap="round" />
<path d="M261.7936021993162,80.72727272727275 L261.7936021993162,60.54545454545456" stroke="#1a1a1a" stroke-width="2.6" stroke-linecap="round" />
<path d="M261.7936021993162,80.72727272727275 L261.7936021993162,100.90909090909093" stroke="#1a1a1a" stroke-width="2.6" stroke-linecap="round" />
<path d="M85.47668719849582,141.2727272727273 L292.0,141.2727272727273" stroke="#1a1a1a" stroke-width="2.6" stroke-linecap="round" />
<path d="M-188.110962763188,111.00000000000003 L85.47668719849582,111.00000000000003" stroke="#1a1a1a" stroke-width="2.6" stroke-linecap="round" />
<path d="M85.47668719849582,111.00000000000003 L85.47668719849582,80.72727272727275" stroke="#1a1a1a" stroke-width="2.6" stroke-linecap="round" />
<path d="M85.47668719849582,111.00000000000003 L85.47668719849582,141.2727272727273" stroke="#1a1a1a" stroke-width="2.6" stroke-linecap="round" />
<path d="M276.2433579587557,181.63636363636368 L292.0,181.63636363636368" stroke="#1a1a1a" stroke-width="2.6" stroke-linecap="round" />
<path d="M276.2433579587557,222.00000000000006 L292.0,222.00000000000006" stroke="#1a1a1a" stroke-width="2.6" stroke-linecap="round" />
<path d="M-188.110962763188,201.81818181818187 L276.2433579587557,201.81818181818187" stroke="#1a1a1a" stroke-width="2.6" stroke-linecap="round" />
<path d="M276.2433579587557,201.81818181818187 L276.2433579587557,181.63636363636368" stroke="#1a1a1a" stroke-width="2.6" stroke-linecap="round" />
<path d="M276.2433579587557,201.81818181818187 L276.2433579587557,222.00000000000006" stroke="#1a1a1a" stroke-width="2.6" stroke-linecap="round" />
<path d="M-214.65809971313593,156.40909090909093 L-188.110962763188,156.40909090909093" stroke="#1a1a1a" stroke-width="2.6" stroke-linecap="round" />
<path d="M-188.110962763188,156.40909090909093 L-188.110962763188,111.00000000000003" stroke="#1a1a1a" stroke-width="2.6" stroke-linecap="round" />
<path d="M-188.110962763188,156.40909090909093 L-188.110962763188,201.81818181818187" stroke="#1a1a1a" stroke-width="2.6" stroke-linecap="round" />
<path d="M-292.0,13.875000000000014 L-214.65809971313593,13.875000000000014" stroke="#1a1a1a" stroke-width="2.6" stroke-linecap="round" />
<path d="M-214.65809971313593,13.875000000000014 L-214.65809971313593,-128.6590909090909" stroke="#1a1a1a" stroke-width="2.6" stroke-linecap="round" />
<path d="M-214.65809971313593,13.875000000000014 L-214.65809971313593,156.40909090909093" stroke="#1a1a1a" stroke-width="2.6" stroke-linecap="round" />
<path d="M-306.0,-104.0625 L-292.0,-104.0625" stroke="#1a1a1a" stroke-width="2.6" stroke-linecap="round" />
<path d="M-292.0,-104.0625 L-292.0,-222.0" stroke="#1a1a1a" stroke-width="2.6" stroke-linecap="round" />
<path d="M-292.0,-104.0625 L-292.0,13.875000000000014" stroke="#1a1a1a" stroke-width="2.6" stroke-linecap="round" />
<path d="M-306.0,238.00000000000006 L292.0,238.00000000000006" stroke="black" stroke-width="1.6" />
<path d="M-292.0,238.00000000000006 L-292.0,246.00000000000006" stroke="black" stroke-width="1.6" />
<text x="-292.0" y="280.00000000000006" font-size="34" text-anchor="middle" font-family="Helvetica">0.0</text>
<path d="M0.0,238.00000000000006 L0.0,246.00000000000006" stroke="black" stroke-width="1.6" />
<text x="0.0" y="280.00000000000006" font-size="34" text-anchor="middle" font-family="Helvetica">1.0</text>
<path d="M292.0,238.00000000000006 L292.0,246.00000000000006" stroke="black" stroke-width="1.6" />
<text x="292.0" y="280.00000000000006" font-size="34" text-anchor="middle" font-family="Helvetica">2.0</text>
<text x="-7.0" y="331.00000000000006" font-size="34" text-anchor="middle" font-family="Helvetica">Time</text>
<text x="-386.0" y="-280.0" font-size="54" fill="#1a1a1a" font-weight="bold" font-family="Helvetica" text-anchor="start" dominant-baseline="middle">A</text>
<text x="-328.0" y="-280.0" font-size="38" fill="#1a1a1a" font-weight="normal" font-family="Helvetica" text-anchor="start" dominant-baseline="middle">Reconstructed tree</text>
</svg>
<svg x="820" y="0" xmlns="http://www.w3.org/2000/svg" xmlns:xlink="http://www.w3.org/1999/xlink"
     width="820" height="680" viewBox="-410.0 -340.0 820 680">
<defs>
</defs>
<rect x="-410.0" y="-340.0" width="820" height="680" fill="white" />
<path d="M292.0,-234.0 L292.0,234.0" stroke="#c9c9c9" stroke-width="1.0" stroke-dasharray="2,4" />
<path d="M102.78403285519448,-222.0 L292.0,-222.0" stroke="#1a1a1a" stroke-width="2.6" stroke-linecap="round" />
<path d="M122.80911355480174,-198.6315789473684 L243.69393590766765,-198.6315789473684" stroke="#1a1a1a" stroke-width="2.6" stroke-dasharray="6,5" stroke-linecap="butt" />
<path d="M122.80911355480174,-175.26315789473685 L155.22010940884263,-175.26315789473685" stroke="#1a1a1a" stroke-width="2.6" stroke-dasharray="6,5" stroke-linecap="butt" />
<path d="M102.78403285519448,-186.94736842105263 L122.80911355480174,-186.94736842105263" stroke="#1a1a1a" stroke-width="2.6" stroke-dasharray="6,5" stroke-linecap="butt" />
<path d="M122.80911355480174,-186.94736842105263 L122.80911355480174,-198.6315789473684" stroke="#1a1a1a" stroke-width="2.6" stroke-dasharray="6,5" stroke-linecap="butt" />
<path d="M122.80911355480174,-186.94736842105263 L122.80911355480174,-175.26315789473685" stroke="#1a1a1a" stroke-width="2.6" stroke-dasharray="6,5" stroke-linecap="butt" />
<path d="M-292.0,-204.4736842105263 L102.78403285519448,-204.4736842105263" stroke="#1a1a1a" stroke-width="2.6" stroke-linecap="round" />
<path d="M102.78403285519448,-204.4736842105263 L102.78403285519448,-222.0" stroke="#1a1a1a" stroke-width="2.6" stroke-linecap="round" />
<path d="M102.78403285519448,-204.4736842105263 L102.78403285519448,-186.94736842105263" stroke="#1a1a1a" stroke-width="2.6" stroke-dasharray="6,5" stroke-linecap="butt" />
<path d="M73.96025725314064,-151.89473684210526 L292.0,-151.89473684210526" stroke="#1a1a1a" stroke-width="2.6" stroke-linecap="round" />
<path d="M262.0982226708678,-128.5263157894737 L292.0,-128.5263157894737" stroke="#1a1a1a" stroke-width="2.6" stroke-linecap="round" />
<path d="M262.0982226708678,-105.15789473684211 L292.0,-105.15789473684211" stroke="#1a1a1a" stroke-width="2.6" stroke-linecap="round" />
<path d="M136.66281480986834,-116.8421052631579 L262.0982226708678,-116.8421052631579" stroke="#1a1a1a" stroke-width="2.6" stroke-linecap="round" />
<path d="M262.0982226708678,-116.8421052631579 L262.0982226708678,-128.5263157894737" stroke="#1a1a1a" stroke-width="2.6" stroke-linecap="round" />
<path d="M262.0982226708678,-116.8421052631579 L262.0982226708678,-105.15789473684211" stroke="#1a1a1a" stroke-width="2.6" stroke-linecap="round" />
<path d="M257.13883578997616,-81.78947368421052 L292.0,-81.78947368421052" stroke="#1a1a1a" stroke-width="2.6" stroke-linecap="round" />
<path d="M285.75079274902805,-58.42105263157896 L292.0,-58.42105263157896" stroke="#1a1a1a" stroke-width="2.6" stroke-linecap="round" />
<path d="M285.75079274902805,-35.05263157894737 L292.0,-35.05263157894737" stroke="#1a1a1a" stroke-width="2.6" stroke-linecap="round" />
<path d="M257.13883578997616,-46.736842105263165 L285.75079274902805,-46.736842105263165" stroke="#1a1a1a" stroke-width="2.6" stroke-linecap="round" />
<path d="M285.75079274902805,-46.736842105263165 L285.75079274902805,-58.42105263157896" stroke="#1a1a1a" stroke-width="2.6" stroke-linecap="round" />
<path d="M285.75079274902805,-46.736842105263165 L285.75079274902805,-35.05263157894737" stroke="#1a1a1a" stroke-width="2.6" stroke-linecap="round" />
<path d="M136.66281480986834,-64.26315789473685 L257.13883578997616,-64.26315789473685" stroke="#1a1a1a" stroke-width="2.6" stroke-linecap="round" />
<path d="M257.13883578997616,-64.26315789473685 L257.13883578997616,-81.78947368421052" stroke="#1a1a1a" stroke-width="2.6" stroke-linecap="round" />
<path d="M257.13883578997616,-64.26315789473685 L257.13883578997616,-46.736842105263165" stroke="#1a1a1a" stroke-width="2.6" stroke-linecap="round" />
<path d="M73.96025725314064,-90.55263157894737 L136.66281480986834,-90.55263157894737" stroke="#1a1a1a" stroke-width="2.6" stroke-linecap="round" />
<path d="M136.66281480986834,-90.55263157894737 L136.66281480986834,-116.8421052631579" stroke="#1a1a1a" stroke-width="2.6" stroke-linecap="round" />
<path d="M136.66281480986834,-90.55263157894737 L136.66281480986834,-64.26315789473685" stroke="#1a1a1a" stroke-width="2.6" stroke-linecap="round" />
<path d="M-214.65809971313593,-121.22368421052632 L73.96025725314064,-121.22368421052632" stroke="#1a1a1a" stroke-width="2.6" stroke-linecap="round" />
<path d="M73.96025725314064,-121.22368421052632 L73.96025725314064,-151.89473684210526" stroke="#1a1a1a" stroke-width="2.6" stroke-linecap="round" />
<path d="M73.96025725314064,-121.22368421052632 L73.96025725314064,-90.55263157894737" stroke="#1a1a1a" stroke-width="2.6" stroke-linecap="round" />
<path d="M261.7936021993162,-11.68421052631578 L292.0,-11.68421052631578" stroke="#1a1a1a" stroke-width="2.6" stroke-linecap="round" />
<path d="M261.7936021993162,11.68421052631578 L292.0,11.68421052631578" stroke="#1a1a1a" stroke-width="2.6" stroke-linecap="round" />
<path d="M89.20138895321082,0.0 L261.7936021993162,0.0" stroke="#1a1a1a" stroke-width="2.6" stroke-linecap="round" />
<path d="M261.7936021993162,0.0 L261.7936021993162,-11.68421052631578" stroke="#1a1a1a" stroke-width="2.6" stroke-linecap="round" />
<path d="M261.7936021993162,0.0 L261.7936021993162,11.68421052631578" stroke="#1a1a1a" stroke-width="2.6" stroke-linecap="round" />
<path d="M89.20138895321082,35.05263157894734 L142.94055727127687,35.05263157894734" stroke="#1a1a1a" stroke-width="2.6" stroke-dasharray="6,5" stroke-linecap="butt" />
<path d="M85.47668719849582,17.52631578947367 L89.20138895321082,17.52631578947367" stroke="#1a1a1a" stroke-width="2.6" stroke-linecap="round" />
<path d="M89.20138895321082,17.52631578947367 L89.20138895321082,0.0" stroke="#1a1a1a" stroke-width="2.6" stroke-linecap="round" />
<path d="M89.20138895321082,17.52631578947367 L89.20138895321082,35.05263157894734" stroke="#1a1a1a" stroke-width="2.6" stroke-dasharray="6,5" stroke-linecap="butt" />
<path d="M162.38439105625946,58.42105263157896 L292.0,58.42105263157896" stroke="#1a1a1a" stroke-width="2.6" stroke-linecap="round" />
<path d="M162.38439105625946,81.78947368421052 L231.17313796348435,81.78947368421052" stroke="#1a1a1a" stroke-width="2.6" stroke-dasharray="6,5" stroke-linecap="butt" />
<path d="M85.47668719849582,70.10526315789474 L162.38439105625946,70.10526315789474" stroke="#1a1a1a" stroke-width="2.6" stroke-linecap="round" />
<path d="M162.38439105625946,70.10526315789474 L162.38439105625946,58.42105263157896" stroke="#1a1a1a" stroke-width="2.6" stroke-linecap="round" />
<path d="M162.38439105625946,70.10526315789474 L162.38439105625946,81.78947368421052" stroke="#1a1a1a" stroke-width="2.6" stroke-dasharray="6,5" stroke-linecap="butt" />
<path d="M8.541480434406594,43.815789473684205 L85.47668719849582,43.815789473684205" stroke="#1a1a1a" stroke-width="2.6" stroke-linecap="round" />
<path d="M85.47668719849582,43.815789473684205 L85.47668719849582,17.52631578947367" stroke="#1a1a1a" stroke-width="2.6" stroke-linecap="round" />
<path d="M85.47668719849582,43.815789473684205 L85.47668719849582,70.10526315789474" stroke="#1a1a1a" stroke-width="2.6" stroke-linecap="round" />
<path d="M8.541480434406594,105.15789473684208 L59.94323069616678,105.15789473684208" stroke="#1a1a1a" stroke-width="2.6" stroke-dasharray="6,5" stroke-linecap="butt" />
<path d="M-35.086612151530915,74.48684210526315 L8.541480434406594,74.48684210526315" stroke="#1a1a1a" stroke-width="2.6" stroke-linecap="round" />
<path d="M8.541480434406594,74.48684210526315 L8.541480434406594,43.815789473684205" stroke="#1a1a1a" stroke-width="2.6" stroke-linecap="round" />
<path d="M8.541480434406594,74.48684210526315 L8.541480434406594,105.15789473684208" stroke="#1a1a1a" stroke-width="2.6" stroke-dasharray="6,5" stroke-linecap="butt" />
<path d="M-35.086612151530915,128.5263157894737 L177.60405181382384,128.5263157894737" stroke="#1a1a1a" stroke-width="2.6" stroke-dasharray="6,5" stroke-linecap="butt" />
<path d="M-177.1877438259752,101.50657894736842 L-35.086612151530915,101.50657894736842" stroke="#1a1a1a" stroke-width="2.6" stroke-linecap="round" />
<path d="M-35.086612151530915,101.50657894736842 L-35.086612151530915,74.48684210526315" stroke="#1a1a1a" stroke-width="2.6" stroke-linecap="round" />
<path d="M-35.086612151530915,101.50657894736842 L-35.086612151530915,128.5263157894737" stroke="#1a1a1a" stroke-width="2.6" stroke-dasharray="6,5" stroke-linecap="butt" />
<path d="M-177.1877438259752,151.89473684210526 L9.564589480432005,151.89473684210526" stroke="#1a1a1a" stroke-width="2.6" stroke-dasharray="6,5" stroke-linecap="butt" />
<path d="M-188.110962763188,126.70065789473685 L-177.1877438259752,126.70065789473685" stroke="#1a1a1a" stroke-width="2.6" stroke-linecap="round" />
<path d="M-177.1877438259752,126.70065789473685 L-177.1877438259752,101.50657894736842" stroke="#1a1a1a" stroke-width="2.6" stroke-linecap="round" />
<path d="M-177.1877438259752,126.70065789473685 L-177.1877438259752,151.89473684210526" stroke="#1a1a1a" stroke-width="2.6" stroke-dasharray="6,5" stroke-linecap="butt" />
<path d="M276.2433579587557,175.26315789473682 L292.0,175.26315789473682" stroke="#1a1a1a" stroke-width="2.6" stroke-linecap="round" />
<path d="M276.2433579587557,198.63157894736844 L292.0,198.63157894736844" stroke="#1a1a1a" stroke-width="2.6" stroke-linecap="round" />
<path d="M260.20346838828004,186.94736842105263 L276.2433579587557,186.94736842105263" stroke="#1a1a1a" stroke-width="2.6" stroke-linecap="round" />
<path d="M276.2433579587557,186.94736842105263 L276.2433579587557,175.26315789473682" stroke="#1a1a1a" stroke-width="2.6" stroke-linecap="round" />
<path d="M276.2433579587557,186.94736842105263 L276.2433579587557,198.63157894736844" stroke="#1a1a1a" stroke-width="2.6" stroke-linecap="round" />
<path d="M260.20346838828004,222.0 L279.4288517533977,222.0" stroke="#1a1a1a" stroke-width="2.6" stroke-dasharray="6,5" stroke-linecap="butt" />
<path d="M-188.110962763188,204.4736842105263 L260.20346838828004,204.4736842105263" stroke="#1a1a1a" stroke-width="2.6" stroke-linecap="round" />
<path d="M260.20346838828004,204.4736842105263 L260.20346838828004,186.94736842105263" stroke="#1a1a1a" stroke-width="2.6" stroke-linecap="round" />
<path d="M260.20346838828004,204.4736842105263 L260.20346838828004,222.0" stroke="#1a1a1a" stroke-width="2.6" stroke-dasharray="6,5" stroke-linecap="butt" />
<path d="M-214.65809971313593,165.58717105263156 L-188.110962763188,165.58717105263156" stroke="#1a1a1a" stroke-width="2.6" stroke-linecap="round" />
<path d="M-188.110962763188,165.58717105263156 L-188.110962763188,126.70065789473685" stroke="#1a1a1a" stroke-width="2.6" stroke-linecap="round" />
<path d="M-188.110962763188,165.58717105263156 L-188.110962763188,204.4736842105263" stroke="#1a1a1a" stroke-width="2.6" stroke-linecap="round" />
<path d="M-292.0,22.181743421052623 L-214.65809971313593,22.181743421052623" stroke="#1a1a1a" stroke-width="2.6" stroke-linecap="round" />
<path d="M-214.65809971313593,22.181743421052623 L-214.65809971313593,-121.22368421052632" stroke="#1a1a1a" stroke-width="2.6" stroke-linecap="round" />
<path d="M-214.65809971313593,22.181743421052623 L-214.65809971313593,165.58717105263156" stroke="#1a1a1a" stroke-width="2.6" stroke-linecap="round" />
<path d="M-306.0,-91.14597039473684 L-292.0,-91.14597039473684" stroke="#1a1a1a" stroke-width="2.6" stroke-linecap="round" />
<path d="M-292.0,-91.14597039473684 L-292.0,-204.4736842105263" stroke="#1a1a1a" stroke-width="2.6" stroke-linecap="round" />
<path d="M-292.0,-91.14597039473684 L-292.0,22.181743421052623" stroke="#1a1a1a" stroke-width="2.6" stroke-linecap="round" />
<path d="M-306.0,238.0 L292.0,238.0" stroke="black" stroke-width="1.6" />
<path d="M-292.0,238.0 L-292.0,246.0" stroke="black" stroke-width="1.6" />
<text x="-292.0" y="280.0" font-size="34" text-anchor="middle" font-family="Helvetica">0.0</text>
<path d="M0.0,238.0 L0.0,246.0" stroke="black" stroke-width="1.6" />
<text x="0.0" y="280.0" font-size="34" text-anchor="middle" font-family="Helvetica">1.0</text>
<path d="M292.0,238.0 L292.0,246.0" stroke="black" stroke-width="1.6" />
<text x="292.0" y="280.0" font-size="34" text-anchor="middle" font-family="Helvetica">2.0</text>
<text x="-7.0" y="331.0" font-size="34" text-anchor="middle" font-family="Helvetica">Time</text>
<text x="-386.0" y="-280.0" font-size="54" fill="#1a1a1a" font-weight="bold" font-family="Helvetica" text-anchor="start" dominant-baseline="middle">B</text>
<text x="-328.0" y="-280.0" font-size="38" fill="#1a1a1a" font-weight="normal" font-family="Helvetica" text-anchor="start" dominant-baseline="middle">Ghost lineages (seed 1)</text>
</svg>
<svg x="1640" y="0" xmlns="http://www.w3.org/2000/svg" xmlns:xlink="http://www.w3.org/1999/xlink"
     width="820" height="680" viewBox="-410.0 -340.0 820 680">
<defs>
</defs>
<rect x="-410.0" y="-340.0" width="820" height="680" fill="white" />
<path d="M292.0,-234.0 L292.0,234.0" stroke="#c9c9c9" stroke-width="1.0" stroke-dasharray="2,4" />
<path d="M-292.0,-222.0 L292.0,-222.0" stroke="#1a1a1a" stroke-width="2.6" stroke-linecap="round" />
<path d="M136.506498420188,-194.25 L292.0,-194.25" stroke="#1a1a1a" stroke-width="2.6" stroke-linecap="round" />
<path d="M152.11267987673102,-166.5 L249.75842384672978,-166.5" stroke="#1a1a1a" stroke-width="2.6" stroke-dasharray="6,5" stroke-linecap="butt" />
<path d="M152.11267987673102,-138.75 L279.2445971103175,-138.75" stroke="#1a1a1a" stroke-width="2.6" stroke-dasharray="6,5" stroke-linecap="butt" />
<path d="M136.506498420188,-152.625 L152.11267987673102,-152.625" stroke="#1a1a1a" stroke-width="2.6" stroke-dasharray="6,5" stroke-linecap="butt" />
<path d="M152.11267987673102,-152.625 L152.11267987673102,-166.5" stroke="#1a1a1a" stroke-width="2.6" stroke-dasharray="6,5" stroke-linecap="butt" />
<path d="M152.11267987673102,-152.625 L152.11267987673102,-138.75" stroke="#1a1a1a" stroke-width="2.6" stroke-dasharray="6,5" stroke-linecap="butt" />
<path d="M73.96025725314064,-173.4375 L136.506498420188,-173.4375" stroke="#1a1a1a" stroke-width="2.6" stroke-linecap="round" />
<path d="M136.506498420188,-173.4375 L136.506498420188,-194.25" stroke="#1a1a1a" stroke-width="2.6" stroke-linecap="round" />
<path d="M136.506498420188,-173.4375 L136.506498420188,-152.625" stroke="#1a1a1a" stroke-width="2.6" stroke-dasharray="6,5" stroke-linecap="butt" />
<path d="M262.0982226708678,-111.0 L292.0,-111.0" stroke="#1a1a1a" stroke-width="2.6" stroke-linecap="round" />
<path d="M262.0982226708678,-83.25 L292.0,-83.25" stroke="#1a1a1a" stroke-width="2.6" stroke-linecap="round" />
<path d="M136.66281480986834,-97.125 L262.0982226708678,-97.125" stroke="#1a1a1a" stroke-width="2.6" stroke-linecap="round" />
<path d="M262.0982226708678,-97.125 L262.0982226708678,-111.0" stroke="#1a1a1a" stroke-width="2.6" stroke-linecap="round" />
<path d="M262.0982226708678,-97.125 L262.0982226708678,-83.25" stroke="#1a1a1a" stroke-width="2.6" stroke-linecap="round" />
<path d="M257.13883578997616,-55.5 L292.0,-55.5" stroke="#1a1a1a" stroke-width="2.6" stroke-linecap="round" />
<path d="M285.75079274902805,-27.75 L292.0,-27.75" stroke="#1a1a1a" stroke-width="2.6" stroke-linecap="round" />
<path d="M285.75079274902805,0.0 L292.0,0.0" stroke="#1a1a1a" stroke-width="2.6" stroke-linecap="round" />
<path d="M257.13883578997616,-13.875 L285.75079274902805,-13.875" stroke="#1a1a1a" stroke-width="2.6" stroke-linecap="round" />
<path d="M285.75079274902805,-13.875 L285.75079274902805,-27.75" stroke="#1a1a1a" stroke-width="2.6" stroke-linecap="round" />
<path d="M285.75079274902805,-13.875 L285.75079274902805,0.0" stroke="#1a1a1a" stroke-width="2.6" stroke-linecap="round" />
<path d="M136.66281480986834,-34.6875 L257.13883578997616,-34.6875" stroke="#1a1a1a" stroke-width="2.6" stroke-linecap="round" />
<path d="M257.13883578997616,-34.6875 L257.13883578997616,-55.5" stroke="#1a1a1a" stroke-width="2.6" stroke-linecap="round" />
<path d="M257.13883578997616,-34.6875 L257.13883578997616,-13.875" stroke="#1a1a1a" stroke-width="2.6" stroke-linecap="round" />
<path d="M73.96025725314064,-65.90625 L136.66281480986834,-65.90625" stroke="#1a1a1a" stroke-width="2.6" stroke-linecap="round" />
<path d="M136.66281480986834,-65.90625 L136.66281480986834,-97.125" stroke="#1a1a1a" stroke-width="2.6" stroke-linecap="round" />
<path d="M136.66281480986834,-65.90625 L136.66281480986834,-34.6875" stroke="#1a1a1a" stroke-width="2.6" stroke-linecap="round" />
<path d="M-214.65809971313593,-119.671875 L73.96025725314064,-119.671875" stroke="#1a1a1a" stroke-width="2.6" stroke-linecap="round" />
<path d="M73.96025725314064,-119.671875 L73.96025725314064,-173.4375" stroke="#1a1a1a" stroke-width="2.6" stroke-linecap="round" />
<path d="M73.96025725314064,-119.671875 L73.96025725314064,-65.90625" stroke="#1a1a1a" stroke-width="2.6" stroke-linecap="round" />
<path d="M261.7936021993162,27.75 L292.0,27.75" stroke="#1a1a1a" stroke-width="2.6" stroke-linecap="round" />
<path d="M261.7936021993162,55.5 L292.0,55.5" stroke="#1a1a1a" stroke-width="2.6" stroke-linecap="round" />
<path d="M85.47668719849582,41.625 L261.7936021993162,41.625" stroke="#1a1a1a" stroke-width="2.6" stroke-linecap="round" />
<path d="M261.7936021993162,41.625 L261.7936021993162,27.75" stroke="#1a1a1a" stroke-width="2.6" stroke-linecap="round" />
<path d="M261.7936021993162,41.625 L261.7936021993162,55.5" stroke="#1a1a1a" stroke-width="2.6" stroke-linecap="round" />
<path d="M85.47668719849582,83.25 L292.0,83.25" stroke="#1a1a1a" stroke-width="2.6" stroke-linecap="round" />
<path d="M11.748434077061063,62.4375 L85.47668719849582,62.4375" stroke="#1a1a1a" stroke-width="2.6" stroke-linecap="round" />
<path d="M85.47668719849582,62.4375 L85.47668719849582,41.625" stroke="#1a1a1a" stroke-width="2.6" stroke-linecap="round" />
<path d="M85.47668719849582,62.4375 L85.47668719849582,83.25" stroke="#1a1a1a" stroke-width="2.6" stroke-linecap="round" />
<path d="M11.748434077061063,111.0 L70.72413783737466,111.0" stroke="#1a1a1a" stroke-width="2.6" stroke-dasharray="6,5" stroke-linecap="butt" />
<path d="M-188.110962763188,86.71875 L11.748434077061063,86.71875" stroke="#1a1a1a" stroke-width="2.6" stroke-linecap="round" />
<path d="M11.748434077061063,86.71875 L11.748434077061063,62.4375" stroke="#1a1a1a" stroke-width="2.6" stroke-linecap="round" />
<path d="M11.748434077061063,86.71875 L11.748434077061063,111.0" stroke="#1a1a1a" stroke-width="2.6" stroke-dasharray="6,5" stroke-linecap="butt" />
<path d="M276.2433579587557,138.75 L292.0,138.75" stroke="#1a1a1a" stroke-width="2.6" stroke-linecap="round" />
<path d="M276.2433579587557,166.5 L292.0,166.5" stroke="#1a1a1a" stroke-width="2.6" stroke-linecap="round" />
<path d="M-188.110962763188,152.625 L276.2433579587557,152.625" stroke="#1a1a1a" stroke-width="2.6" stroke-linecap="round" />
<path d="M276.2433579587557,152.625 L276.2433579587557,138.75" stroke="#1a1a1a" stroke-width="2.6" stroke-linecap="round" />
<path d="M276.2433579587557,152.625 L276.2433579587557,166.5" stroke="#1a1a1a" stroke-width="2.6" stroke-linecap="round" />
<path d="M-214.65809971313593,119.671875 L-188.110962763188,119.671875" stroke="#1a1a1a" stroke-width="2.6" stroke-linecap="round" />
<path d="M-188.110962763188,119.671875 L-188.110962763188,86.71875" stroke="#1a1a1a" stroke-width="2.6" stroke-linecap="round" />
<path d="M-188.110962763188,119.671875 L-188.110962763188,152.625" stroke="#1a1a1a" stroke-width="2.6" stroke-linecap="round" />
<path d="M-281.5178168000314,0.0 L-214.65809971313593,0.0" stroke="#1a1a1a" stroke-width="2.6" stroke-linecap="round" />
<path d="M-214.65809971313593,0.0 L-214.65809971313593,-119.671875" stroke="#1a1a1a" stroke-width="2.6" stroke-linecap="round" />
<path d="M-214.65809971313593,0.0 L-214.65809971313593,119.671875" stroke="#1a1a1a" stroke-width="2.6" stroke-linecap="round" />
<path d="M-143.0810995459726,194.25 L-71.95886927456169,194.25" stroke="#1a1a1a" stroke-width="2.6" stroke-dasharray="6,5" stroke-linecap="butt" />
<path d="M-143.0810995459726,222.0 L90.41993603788052,222.0" stroke="#1a1a1a" stroke-width="2.6" stroke-dasharray="6,5" stroke-linecap="butt" />
<path d="M-281.5178168000314,208.125 L-143.0810995459726,208.125" stroke="#1a1a1a" stroke-width="2.6" stroke-dasharray="6,5" stroke-linecap="butt" />
<path d="M-143.0810995459726,208.125 L-143.0810995459726,194.25" stroke="#1a1a1a" stroke-width="2.6" stroke-dasharray="6,5" stroke-linecap="butt" />
<path d="M-143.0810995459726,208.125 L-143.0810995459726,222.0" stroke="#1a1a1a" stroke-width="2.6" stroke-dasharray="6,5" stroke-linecap="butt" />
<path d="M-292.0,104.0625 L-281.5178168000314,104.0625" stroke="#1a1a1a" stroke-width="2.6" stroke-linecap="round" />
<path d="M-281.5178168000314,104.0625 L-281.5178168000314,0.0" stroke="#1a1a1a" stroke-width="2.6" stroke-linecap="round" />
<path d="M-281.5178168000314,104.0625 L-281.5178168000314,208.125" stroke="#1a1a1a" stroke-width="2.6" stroke-dasharray="6,5" stroke-linecap="butt" />
<path d="M-306.0,-58.96875 L-292.0,-58.96875" stroke="#1a1a1a" stroke-width="2.6" stroke-linecap="round" />
<path d="M-292.0,-58.96875 L-292.0,-222.0" stroke="#1a1a1a" stroke-width="2.6" stroke-linecap="round" />
<path d="M-292.0,-58.96875 L-292.0,104.0625" stroke="#1a1a1a" stroke-width="2.6" stroke-linecap="round" />
<path d="M-306.0,238.0 L292.0,238.0" stroke="black" stroke-width="1.6" />
<path d="M-292.0,238.0 L-292.0,246.0" stroke="black" stroke-width="1.6" />
<text x="-292.0" y="280.0" font-size="34" text-anchor="middle" font-family="Helvetica">0.0</text>
<path d="M0.0,238.0 L0.0,246.0" stroke="black" stroke-width="1.6" />
<text x="0.0" y="280.0" font-size="34" text-anchor="middle" font-family="Helvetica">1.0</text>
<path d="M292.0,238.0 L292.0,246.0" stroke="black" stroke-width="1.6" />
<text x="292.0" y="280.0" font-size="34" text-anchor="middle" font-family="Helvetica">2.0</text>
<text x="-7.0" y="331.0" font-size="34" text-anchor="middle" font-family="Helvetica">Time</text>
<text x="-386.0" y="-280.0" font-size="54" fill="#1a1a1a" font-weight="bold" font-family="Helvetica" text-anchor="start" dominant-baseline="middle">C</text>
<text x="-328.0" y="-280.0" font-size="38" fill="#1a1a1a" font-weight="normal" font-family="Helvetica" text-anchor="start" dominant-baseline="middle">Ghost lineages (seed 2)</text>
</svg>
<line x1="760.0" y1="735.0" x2="814.0" y2="735.0" stroke="#1a1a1a" stroke-width="4.2" stroke-linecap="round" />
<text x="826.0" y="735.0" font-size="38" font-family="Helvetica" text-anchor="start" dominant-baseline="middle" fill="#1a1a1a">reconstructed lineage</text>
<line x1="1320.0" y1="735.0" x2="1374.0" y2="735.0" stroke="#1a1a1a" stroke-width="4.2" stroke-dasharray="8,6" stroke-linecap="butt" />
<text x="1386.0" y="735.0" font-size="38" font-family="Helvetica" text-anchor="start" dominant-baseline="middle" fill="#1a1a1a">ghost lineage</text>
</svg>