<svg xmlns="http://www.w3.org/2000/svg" xmlns:xlink="http://www.w3.org/1999/xlink" width="2460" height="608" viewBox="0 0 2460 608">
<rect x="0" y="0" width="2460" height="608" fill="white" />
<svg x="0" y="0" xmlns="http://www.w3.org/2000/svg" xmlns:xlink="http://www.w3.org/1999/xlink"
     width="820" height="560" viewBox="-410.0 -280.0 820 560">
<defs>
</defs>
<rect x="-410.0" y="-280.0" width="820" height="560" fill="white" />
<path d="M356.0,-238.0 L356.0,238.0" stroke="#c9c9c9" stroke-width="1.0" stroke-dasharray="2,4" />
<path d="M-356.0,-226.0 L356.0,-226.0" stroke="#1a1a1a" stroke-width="2.6" stroke-linecap="round" />
<path d="M90.17072459629475,-184.9090909090909 L356.0,-184.9090909090909" stroke="#1a1a1a" stroke-width="2.6" stroke-linecap="round" />
<path d="M319.54440846174305,-143.8181818181818 L356.0,-143.8181818181818" stroke="#1a1a1a" stroke-width="2.6" stroke-linecap="round" />
<path d="M319.54440846174305,-102.72727272727272 L356.0,-102.72727272727272" stroke="#1a1a1a" stroke-width="2.6" stroke-linecap="round" />
<path d="M166.61630846682579,-123.27272727272727 L319.54440846174305,-123.27272727272727" stroke="#1a1a1a" stroke-width="2.6" stroke-linecap="round" />
<path d="M319.54440846174305,-123.27272727272727 L319.54440846174305,-143.8181818181818" stroke="#1a1a1a" stroke-width="2.6" stroke-linecap="round" />
<path d="M319.54440846174305,-123.27272727272727 L319.54440846174305,-102.72727272727272" stroke="#1a1a1a" stroke-width="2.6" stroke-linecap="round" />
<path d="M313.4980326754503,-61.636363636363626 L356.0,-61.636363636363626" stroke="#1a1a1a" stroke-width="2.6" stroke-linecap="round" />
<path d="M348.38110348854116,-20.545454545454533 L356.0,-20.545454545454533" stroke="#1a1a1a" stroke-width="2.6" stroke-linecap="round" />
<path d="M348.38110348854116,20.54545454545456 L356.0,20.54545454545456" stroke="#1a1a1a" stroke-width="2.6" stroke-linecap="round" />
<path d="M313.4980326754503,1.4210854715202004e-14 L348.38110348854116,1.4210854715202004e-14" stroke="#1a1a1a" stroke-width="2.6" stroke-linecap="round" />
<path d="M348.38110348854116,1.4210854715202004e-14 L348.38110348854116,-20.545454545454533" stroke="#1a1a1a" stroke-width="2.6" stroke-linecap="round" />
<path d="M348.38110348854116,1.4210854715202004e-14 L348.38110348854116,20.54545454545456" stroke="#1a1a1a" stroke-width="2.6" stroke-linecap="round" />
<path d="M166.61630846682579,-30.818181818181806 L313.4980326754503,-30.818181818181806" stroke="#1a1a1a" stroke-width="2.6" stroke-linecap="round" />
<path d="M313.4980326754503,-30.818181818181806 L313.4980326754503,-61.636363636363626" stroke="#1a1a1a" stroke-width="2.6" stroke-linecap="round" />
<path d="M313.4980326754503,-30.818181818181806 L313.4980326754503,1.4210854715202004e-14" stroke="#1a1a1a" stroke-width="2.6" stroke-linecap="round" />
<path d="M90.17072459629475,-77.04545454545453 L166.61630846682579,-77.04545454545453" stroke="#1a1a1a" stroke-width="2.6" stroke-linecap="round" />
<path d="M166.61630846682579,-77.04545454545453 L166.61630846682579,-123.27272727272727" stroke="#1a1a1a" stroke-width="2.6" stroke-linecap="round" />
<path d="M166.61630846682579,-77.04545454545453 L166.61630846682579,-30.818181818181806" stroke="#1a1a1a" stroke-width="2.6" stroke-linecap="round" />
<path d="M-261.7064503351931,-130.97727272727272 L90.17072459629475,-130.97727272727272" stroke="#1a1a1a" stroke-width="2.6" stroke-linecap="round" />
<path d="M90.17072459629475,-130.97727272727272 L90.17072459629475,-184.9090909090909" stroke="#1a1a1a" stroke-width="2.6" stroke-linecap="round" />
<path d="M90.17072459629475,-130.97727272727272 L90.17072459629475,-77.04545454545453" stroke="#1a1a1a" stroke-width="2.6" stroke-linecap="round" />
<path d="M319.17302185944027,61.636363636363626 L356.0,61.636363636363626" stroke="#1a1a1a" stroke-width="2.6" stroke-linecap="round" />
<path d="M319.17302185944027,102.72727272727275 L356.0,102.72727272727275" stroke="#1a1a1a" stroke-width="2.6" stroke-linecap="round" />
<path d="M104.21130357076885,82.18181818181819 L319.17302185944027,82.18181818181819" stroke="#1a1a1a" stroke-width="2.6" stroke-linecap="round" />
<path d="M319.17302185944027,82.18181818181819 L319.17302185944027,61.636363636363626" stroke="#1a1a1a" stroke-width="2.6" stroke-linecap="round" />
<path d="M319.17302185944027,82.18181818181819 L319.17302185944027,102.72727272727275" stroke="#1a1a1a" stroke-width="2.6" stroke-linecap="round" />
<path d="M104.21130357076885,143.81818181818187 L356.0,143.81818181818187" stroke="#1a1a1a" stroke-width="2.6" stroke-linecap="round" />
<path d="M-229.34076282087304,113.00000000000003 L104.21130357076885,113.00000000000003" stroke="#1a1a1a" stroke-width="2.6" stroke-linecap="round" />
<path d="M104.21130357076885,113.00000000000003 L104.21130357076885,82.18181818181819" stroke="#1a1a1a" stroke-width="2.6" stroke-linecap="round" />
<path d="M104.21130357076885,113.00000000000003 L104.21130357076885,143.81818181818187" stroke="#1a1a1a" stroke-width="2.6" stroke-linecap="round" />
<path d="M336.7898473743734,184.90909090909093 L356.0,184.90909090909093" stroke="#1a1a1a" stroke-width="2.6" stroke-linecap="round" />
<path d="M336.7898473743734,226.0 L356.0,226.0" stroke="#1a1a1a" stroke-width="2.6" stroke-linecap="round" />
<path d="M-229.34076282087304,205.45454545454547 L336.7898473743734,205.45454545454547" stroke="#1a1a1a" stroke-width="2.6" stroke-linecap="round" />
<path d="M336.7898473743734,205.45454545454547 L336.7898473743734,184.90909090909093" stroke="#1a1a1a" stroke-width="2.6" stroke-linecap="round" />
<path d="M336.7898473743734,205.45454545454547 L336.7898473743734,226.0" stroke="#1a1a1a" stroke-width="2.6" stroke-linecap="round" />
<path d="M-261.7064503351931,159.22727272727275 L-229.34076282087304,159.22727272727275" stroke="#1a1a1a" stroke-width="2.6" stroke-linecap="round" />
<path d="M-229.34076282087304,159.22727272727275 L-229.34076282087304,113.00000000000003" stroke="#1a1a1a" stroke-width="2.6" stroke-linecap="round" />
<path d="M-229.34076282087304,159.22727272727275 L-229.34076282087304,205.45454545454547" stroke="#1a1a1a" stroke-width="2.6" stroke-linecap="round" />
<path d="M-356.0,14.125000000000014 L-261.7064503351931,14.125000000000014" stroke="#1a1a1a" stroke-width="2.6" stroke-linecap="round" />
<path d="M-261.7064503351931,14.125000000000014 L-261.7064503351931,-130.97727272727272" stroke="#1a1a1a" stroke-width="2.6" stroke-linecap="round" />
<path d="M-261.7064503351931,14.125000000000014 L-261.7064503351931,159.22727272727275" stroke="#1a1a1a" stroke-width="2.6" stroke-linecap="round" />
<path d="M-370.0,-105.9375 L-356.0,-105.9375" stroke="#1a1a1a" stroke-width="2.6" stroke-linecap="round" />
<path d="M-356.0,-105.9375 L-356.0,-226.0" stroke="#1a1a1a" stroke-width="2.6" stroke-linecap="round" />
<path d="M-356.0,-105.9375 L-356.0,14.125000000000014" stroke="#1a1a1a" stroke-width="2.6" stroke-linecap="round" />
<path d="M-370.0,238.0 L356.0,238.0" stroke="black" stroke-width="1.4" />
<path d="M-356.0,238.0 L-356.0,243.0" stroke="black" stroke-width="1.4" />
<text x="-356.0" y="256.0" font-size="13" text-anchor="middle" font-family="Helvetica">0.0</text>
<path d="M0.0,238.0 L0.0,243.0" stroke="black" stroke-width="1.4" />
<text x="0.0" y="256.0" font-size="13" text-anchor="middle" font-family="Helvetica">1.0</text>
<path d="M356.0,238.0 L356.0,243.0" stroke="black" stroke-width="1.4" />
<text x="356.0" y="256.0" font-size="13" text-anchor="middle" font-family="Helvetica">2.0</text>
<text x="-7.0" y="275.5" font-size="13" text-anchor="middle" font-family="Helvetica">Time</text>
<text x="-390.0" y="-254.0" font-size="22" fill="#1a1a1a" font-weight="bold" font-family="Helvetica" text-anchor="start" dominant-baseline="middle">A</text>
<text x="-364.0" y="-254.0" font-size="14" fill="#1a1a1a" font-weight="normal" font-family="Helvetica" text-anchor="start" dominant-baseline="middle">Reconstructed tree</text>
</svg>
<svg x="820" y="0" xmlns="http://www.w3.org/2000/svg" xmlns:xlink="http://www.w3.org/1999/xlink"
     width="820" height="560" viewBox="-410.0 -280.0 820 560">
<defs>
</defs>
<rect x="-410.0" y="-280.0" width="820" height="560" fill="white" />
<path d="M356.0,-238.0 L356.0,238.0" stroke="#c9c9c9" stroke-width="1.0" stroke-dasharray="2,4" />
<path d="M125.31204005633305,-226.0 L356.0,-226.0" stroke="#1a1a1a" stroke-width="2.6" stroke-linecap="round" />
<path d="M149.72617953941585,-202.21052631578948 L297.106305421677,-202.21052631578948" stroke="#1a1a1a" stroke-width="2.6" stroke-dasharray="6,5" stroke-linecap="butt" />
<path d="M149.72617953941585,-178.42105263157896 L189.24095530667114,-178.42105263157896" stroke="#1a1a1a" stroke-width="2.6" stroke-dasharray="6,5" stroke-linecap="butt" />
<path d="M125.31204005633305,-190.31578947368422 L149.72617953941585,-190.31578947368422" stroke="#1a1a1a" stroke-width="2.6" stroke-dasharray="6,5" stroke-linecap="butt" />
<path d="M149.72617953941585,-190.31578947368422 L149.72617953941585,-202.21052631578948" stroke="#1a1a1a" stroke-width="2.6" stroke-dasharray="6,5" stroke-linecap="butt" />
<path d="M149.72617953941585,-190.31578947368422 L149.72617953941585,-178.42105263157896" stroke="#1a1a1a" stroke-width="2.6" stroke-dasharray="6,5" stroke-linecap="butt" />
<path d="M-356.0,-208.1578947368421 L125.31204005633305,-208.1578947368421" stroke="#1a1a1a" stroke-width="2.6" stroke-linecap="round" />
<path d="M125.31204005633305,-208.1578947368421 L125.31204005633305,-226.0" stroke="#1a1a1a" stroke-width="2.6" stroke-linecap="round" />
<path d="M125.31204005633305,-208.1578947368421 L125.31204005633305,-190.31578947368422" stroke="#1a1a1a" stroke-width="2.6" stroke-dasharray="6,5" stroke-linecap="butt" />
<path d="M90.17072459629475,-154.6315789473684 L356.0,-154.6315789473684" stroke="#1a1a1a" stroke-width="2.6" stroke-linecap="round" />
<path d="M319.54440846174305,-130.8421052631579 L356.0,-130.8421052631579" stroke="#1a1a1a" stroke-width="2.6" stroke-linecap="round" />
<path d="M319.54440846174305,-107.05263157894737 L356.0,-107.05263157894737" stroke="#1a1a1a" stroke-width="2.6" stroke-linecap="round" />
<path d="M166.61630846682579,-118.94736842105263 L319.54440846174305,-118.94736842105263" stroke="#1a1a1a" stroke-width="2.6" stroke-linecap="round" />
<path d="M319.54440846174305,-118.94736842105263 L319.54440846174305,-130.8421052631579" stroke="#1a1a1a" stroke-width="2.6" stroke-linecap="round" />
<path d="M319.54440846174305,-118.94736842105263 L319.54440846174305,-107.05263157894737" stroke="#1a1a1a" stroke-width="2.6" stroke-linecap="round" />
<path d="M313.4980326754503,-83.26315789473682 L356.0,-83.26315789473682" stroke="#1a1a1a" stroke-width="2.6" stroke-linecap="round" />
<path d="M348.38110348854116,-59.4736842105263 L356.0,-59.4736842105263" stroke="#1a1a1a" stroke-width="2.6" stroke-linecap="round" />
<path d="M348.38110348854116,-35.68421052631578 L356.0,-35.68421052631578" stroke="#1a1a1a" stroke-width="2.6" stroke-linecap="round" />
<path d="M313.4980326754503,-47.57894736842104 L348.38110348854116,-47.57894736842104" stroke="#1a1a1a" stroke-width="2.6" stroke-linecap="round" />
<path d="M348.38110348854116,-47.57894736842104 L348.38110348854116,-59.4736842105263" stroke="#1a1a1a" stroke-width="2.6" stroke-linecap="round" />
<path d="M348.38110348854116,-47.57894736842104 L348.38110348854116,-35.68421052631578" stroke="#1a1a1a" stroke-width="2.6" stroke-linecap="round" />
<path d="M166.61630846682579,-65.42105263157893 L313.4980326754503,-65.42105263157893" stroke="#1a1a1a" stroke-width="2.6" stroke-linecap="round" />
<path d="M313.4980326754503,-65.42105263157893 L313.4980326754503,-83.26315789473682" stroke="#1a1a1a" stroke-width="2.6" stroke-linecap="round" />
<path d="M313.4980326754503,-65.42105263157893 L313.4980326754503,-47.57894736842104" stroke="#1a1a1a" stroke-width="2.6" stroke-linecap="round" />
<path d="M90.17072459629475,-92.18421052631578 L166.61630846682579,-92.18421052631578" stroke="#1a1a1a" stroke-width="2.6" stroke-linecap="round" />
<path d="M166.61630846682579,-92.18421052631578 L166.61630846682579,-118.94736842105263" stroke="#1a1a1a" stroke-width="2.6" stroke-linecap="round" />
<path d="M166.61630846682579,-92.18421052631578 L166.61630846682579,-65.42105263157893" stroke="#1a1a1a" stroke-width="2.6" stroke-linecap="round" />
<path d="M-261.7064503351931,-123.4078947368421 L90.17072459629475,-123.4078947368421" stroke="#1a1a1a" stroke-width="2.6" stroke-linecap="round" />
<path d="M90.17072459629475,-123.4078947368421 L90.17072459629475,-154.6315789473684" stroke="#1a1a1a" stroke-width="2.6" stroke-linecap="round" />
<path d="M90.17072459629475,-123.4078947368421 L90.17072459629475,-92.18421052631578" stroke="#1a1a1a" stroke-width="2.6" stroke-linecap="round" />
<path d="M319.17302185944027,-11.89473684210526 L356.0,-11.89473684210526" stroke="#1a1a1a" stroke-width="2.6" stroke-linecap="round" />
<path d="M319.17302185944027,11.89473684210526 L356.0,11.89473684210526" stroke="#1a1a1a" stroke-width="2.6" stroke-linecap="round" />
<path d="M108.75237831281868,0.0 L319.17302185944027,0.0" stroke="#1a1a1a" stroke-width="2.6" stroke-linecap="round" />
<path d="M319.17302185944027,0.0 L319.17302185944027,-11.89473684210526" stroke="#1a1a1a" stroke-width="2.6" stroke-linecap="round" />
<path d="M319.17302185944027,0.0 L319.17302185944027,11.89473684210526" stroke="#1a1a1a" stroke-width="2.6" stroke-linecap="round" />
<path d="M108.75237831281868,35.68421052631578 L174.26999448141976,35.68421052631578" stroke="#1a1a1a" stroke-width="2.6" stroke-dasharray="6,5" stroke-linecap="butt" />
<path d="M104.21130357076885,17.84210526315789 L108.75237831281868,17.84210526315789" stroke="#1a1a1a" stroke-width="2.6" stroke-linecap="round" />
<path d="M108.75237831281868,17.84210526315789 L108.75237831281868,0.0" stroke="#1a1a1a" stroke-width="2.6" stroke-linecap="round" />
<path d="M108.75237831281868,17.84210526315789 L108.75237831281868,35.68421052631578" stroke="#1a1a1a" stroke-width="2.6" stroke-dasharray="6,5" stroke-linecap="butt" />
<path d="M197.9754904658505,59.47368421052636 L356.0,59.47368421052636" stroke="#1a1a1a" stroke-width="2.6" stroke-linecap="round" />
<path d="M197.9754904658505,83.26315789473688 L281.8412229965769,83.26315789473688" stroke="#1a1a1a" stroke-width="2.6" stroke-dasharray="6,5" stroke-linecap="butt" />
<path d="M104.21130357076885,71.36842105263162 L197.9754904658505,71.36842105263162" stroke="#1a1a1a" stroke-width="2.6" stroke-linecap="round" />
<path d="M197.9754904658505,71.36842105263162 L197.9754904658505,59.47368421052636" stroke="#1a1a1a" stroke-width="2.6" stroke-linecap="round" />
<path d="M197.9754904658505,71.36842105263162 L197.9754904658505,83.26315789473688" stroke="#1a1a1a" stroke-width="2.6" stroke-dasharray="6,5" stroke-linecap="butt" />
<path d="M10.41358573509848,44.605263157894754 L104.21130357076885,44.605263157894754" stroke="#1a1a1a" stroke-width="2.6" stroke-linecap="round" />
<path d="M104.21130357076885,44.605263157894754 L104.21130357076885,17.84210526315789" stroke="#1a1a1a" stroke-width="2.6" stroke-linecap="round" />
<path d="M104.21130357076885,44.605263157894754 L104.21130357076885,71.36842105263162" stroke="#1a1a1a" stroke-width="2.6" stroke-linecap="round" />
<path d="M10.41358573509848,107.0526315789474 L73.0814730405321,107.0526315789474" stroke="#1a1a1a" stroke-width="2.6" stroke-dasharray="6,5" stroke-linecap="butt" />
<path d="M-42.77682851351028,75.82894736842107 L10.41358573509848,75.82894736842107" stroke="#1a1a1a" stroke-width="2.6" stroke-linecap="round" />
<path d="M10.41358573509848,75.82894736842107 L10.41358573509848,44.605263157894754" stroke="#1a1a1a" stroke-width="2.6" stroke-linecap="round" />
<path d="M10.41358573509848,75.82894736842107 L10.41358573509848,107.0526315789474" stroke="#1a1a1a" stroke-width="2.6" stroke-dasharray="6,5" stroke-linecap="butt" />
<path d="M-42.77682851351028,130.84210526315792 L216.53096727986747,130.84210526315792" stroke="#1a1a1a" stroke-width="2.6" stroke-dasharray="6,5" stroke-linecap="butt" />
<path d="M-216.023413705641,103.3355263157895 L-42.77682851351028,103.3355263157895" stroke="#1a1a1a" stroke-width="2.6" stroke-linecap="round" />
<path d="M-42.77682851351028,103.3355263157895 L-42.77682851351028,75.82894736842107" stroke="#1a1a1a" stroke-width="2.6" stroke-linecap="round" />
<path d="M-42.77682851351028,103.3355263157895 L-42.77682851351028,130.84210526315792" stroke="#1a1a1a" stroke-width="2.6" stroke-dasharray="6,5" stroke-linecap="butt" />
<path d="M-216.023413705641,154.63157894736844 L11.660937859704802,154.63157894736844" stroke="#1a1a1a" stroke-width="2.6" stroke-dasharray="6,5" stroke-linecap="butt" />
<path d="M-229.34076282087304,128.98355263157896 L-216.023413705641,128.98355263157896" stroke="#1a1a1a" stroke-width="2.6" stroke-linecap="round" />
<path d="M-216.023413705641,128.98355263157896 L-216.023413705641,103.3355263157895" stroke="#1a1a1a" stroke-width="2.6" stroke-linecap="round" />
<path d="M-216.023413705641,128.98355263157896 L-216.023413705641,154.63157894736844" stroke="#1a1a1a" stroke-width="2.6" stroke-dasharray="6,5" stroke-linecap="butt" />
<path d="M336.7898473743734,178.42105263157896 L356.0,178.42105263157896" stroke="#1a1a1a" stroke-width="2.6" stroke-linecap="round" />
<path d="M336.7898473743734,202.21052631578948 L356.0,202.21052631578948" stroke="#1a1a1a" stroke-width="2.6" stroke-linecap="round" />
<path d="M317.2343655692729,190.31578947368422 L336.7898473743734,190.31578947368422" stroke="#1a1a1a" stroke-width="2.6" stroke-linecap="round" />
<path d="M336.7898473743734,190.31578947368422 L336.7898473743734,178.42105263157896" stroke="#1a1a1a" stroke-width="2.6" stroke-linecap="round" />
<path d="M336.7898473743734,190.31578947368422 L336.7898473743734,202.21052631578948" stroke="#1a1a1a" stroke-width="2.6" stroke-linecap="round" />
<path d="M317.2343655692729,226.0 L340.6735315897589,226.0" stroke="#1a1a1a" stroke-width="2.6" stroke-dasharray="6,5" stroke-linecap="butt" />
<path d="M-229.34076282087304,208.1578947368421 L317.2343655692729,208.1578947368421" stroke="#1a1a1a" stroke-width="2.6" stroke-linecap="round" />
<path d="M317.2343655692729,208.1578947368421 L317.2343655692729,190.31578947368422" stroke="#1a1a1a" stroke-width="2.6" stroke-linecap="round" />
<path d="M317.2343655692729,208.1578947368421 L317.2343655692729,226.0" stroke="#1a1a1a" stroke-width="2.6" stroke-dasharray="6,5" stroke-linecap="butt" />
<path d="M-261.7064503351931,168.57072368421052 L-229.34076282087304,168.57072368421052" stroke="#1a1a1a" stroke-width="2.6" stroke-linecap="round" />
<path d="M-229.34076282087304,168.57072368421052 L-229.34076282087304,128.98355263157896" stroke="#1a1a1a" stroke-width="2.6" stroke-linecap="round" />
<path d="M-229.34076282087304,168.57072368421052 L-229.34076282087304,208.1578947368421" stroke="#1a1a1a" stroke-width="2.6" stroke-linecap="round" />
<path d="M-356.0,22.581414473684212 L-261.7064503351931,22.581414473684212" stroke="#1a1a1a" stroke-width="2.6" stroke-linecap="round" />
<path d="M-261.7064503351931,22.581414473684212 L-261.7064503351931,-123.4078947368421" stroke="#1a1a1a" stroke-width="2.6" stroke-linecap="round" />
<path d="M-261.7064503351931,22.581414473684212 L-261.7064503351931,168.57072368421052" stroke="#1a1a1a" stroke-width="2.6" stroke-linecap="round" />
<path d="M-370.0,-92.78824013157895 L-356.0,-92.78824013157895" stroke="#1a1a1a" stroke-width="2.6" stroke-linecap="round" />
<path d="M-356.0,-92.78824013157895 L-356.0,-208.1578947368421" stroke="#1a1a1a" stroke-width="2.6" stroke-linecap="round" />
<path d="M-356.0,-92.78824013157895 L-356.0,22.581414473684212" stroke="#1a1a1a" stroke-width="2.6" stroke-linecap="round" />
<path d="M-370.0,238.0 L356.0,238.0" stroke="black" stroke-width="1.4" />
<path d="M-356.0,238.0 L-356.0,243.0" stroke="black" stroke-width="1.4" />
<text x="-356.0" y="256.0" font-size="13" text-anchor="middle" font-family="Helvetica">0.0</text>
<path d="M0.0,238.0 L0.0,243.0" stroke="black" stroke-width="1.4" />
<text x="0.0" y="256.0" font-size="13" text-anchor="middle" font-family="Helvetica">1.0</text>
<path d="M356.0,238.0 L356.0,243.0" stroke="black" stroke-width="1.4" />
<text x="356.0" y="256.0" font-size="13" text-anchor="middle" font-family="Helvetica">2.0</text>
<text x="-7.0" y="275.5" font-size="13" text-anchor="middle" font-family="Helvetica">Time</text>
<text x="-390.0" y="-254.0" font-size="22" fill="#1a1a1a" font-weight="bold" font-family="Helvetica" text-anchor="start" dominant-baseline="middle">B</text>
<text x="-364.0" y="-254.0" font-size="14" fill="#1a1a1a" font-weight="normal" font-family="Helvetica" text-anchor="start" dominant-baseline="middle">Ghost lineages (seed 1)</text>
</svg>
<svg x="1640" y="0" xmlns="http://www.w3.org/2000/svg" xmlns:xlink="http://www.w3.org/1999/xlink"
     width="820" height="560" viewBox="-410.0 -280.0 820 560">
<defs>
</defs>
<rect x="-410.0" y="-280.0" width="820" height="560" fill="white" />
<path d="M356.0,-238.0 L356.0,238.0" stroke="#c9c9c9" stroke-width="1.0" stroke-dasharray="2,4" />
<path d="M-356.0,-226.0 L356.0,-226.0" stroke="#1a1a1a" stroke-width="2.6" stroke-linecap="round" />
<path d="M166.42573095064017,-197.75 L356.0,-197.75" stroke="#1a1a1a" stroke-width="2.6" stroke-linecap="round" />
<path d="M185.45244532916524,-169.5 L304.4999961966979,-169.5" stroke="#1a1a1a" stroke-width="2.6" stroke-dasharray="6,5" stroke-linecap="butt" />
<path d="M185.45244532916524,-141.25 L340.44889236737333,-141.25" stroke="#1a1a1a" stroke-width="2.6" stroke-dasharray="6,5" stroke-linecap="butt" />
<path d="M166.42573095064017,-155.375 L185.45244532916524,-155.375" stroke="#1a1a1a" stroke-width="2.6" stroke-dasharray="6,5" stroke-linecap="butt" />
<path d="M185.45244532916524,-155.375 L185.45244532916524,-169.5" stroke="#1a1a1a" stroke-width="2.6" stroke-dasharray="6,5" stroke-linecap="butt" />
<path d="M185.45244532916524,-155.375 L185.45244532916524,-141.25" stroke="#1a1a1a" stroke-width="2.6" stroke-dasharray="6,5" stroke-linecap="butt" />
<path d="M90.17072459629475,-176.5625 L166.42573095064017,-176.5625" stroke="#1a1a1a" stroke-width="2.6" stroke-linecap="round" />
<path d="M166.42573095064017,-176.5625 L166.42573095064017,-197.75" stroke="#1a1a1a" stroke-width="2.6" stroke-linecap="round" />
<path d="M166.42573095064017,-176.5625 L166.42573095064017,-155.375" stroke="#1a1a1a" stroke-width="2.6" stroke-dasharray="6,5" stroke-linecap="butt" />
<path d="M319.54440846174305,-113.0 L356.0,-113.0" stroke="#1a1a1a" stroke-width="2.6" stroke-linecap="round" />
<path d="M319.54440846174305,-84.75 L356.0,-84.75" stroke="#1a1a1a" stroke-width="2.6" stroke-linecap="round" />
<path d="M166.61630846682579,-98.875 L319.54440846174305,-98.875" stroke="#1a1a1a" stroke-width="2.6" stroke-linecap="round" />
<path d="M319.54440846174305,-98.875 L319.54440846174305,-113.0" stroke="#1a1a1a" stroke-width="2.6" stroke-linecap="round" />
<path d="M319.54440846174305,-98.875 L319.54440846174305,-84.75" stroke="#1a1a1a" stroke-width="2.6" stroke-linecap="round" />
<path d="M313.4980326754503,-56.5 L356.0,-56.5" stroke="#1a1a1a" stroke-width="2.6" stroke-linecap="round" />
<path d="M348.38110348854116,-28.25 L356.0,-28.25" stroke="#1a1a1a" stroke-width="2.6" stroke-linecap="round" />
<path d="M348.38110348854116,0.0 L356.0,0.0" stroke="#1a1a1a" stroke-width="2.6" stroke-linecap="round" />
<path d="M313.4980326754503,-14.125 L348.38110348854116,-14.125" stroke="#1a1a1a" stroke-width="2.6" stroke-linecap="round" />
<path d="M348.38110348854116,-14.125 L348.38110348854116,-28.25" stroke="#1a1a1a" stroke-width="2.6" stroke-linecap="round" />
<path d="M348.38110348854116,-14.125 L348.38110348854116,0.0" stroke="#1a1a1a" stroke-width="2.6" stroke-linecap="round" />
<path d="M166.61630846682579,-35.3125 L313.4980326754503,-35.3125" stroke="#1a1a1a" stroke-width="2.6" stroke-linecap="round" />
<path d="M313.4980326754503,-35.3125 L313.4980326754503,-56.5" stroke="#1a1a1a" stroke-width="2.6" stroke-linecap="round" />
<path d="M313.4980326754503,-35.3125 L313.4980326754503,-14.125" stroke="#1a1a1a" stroke-width="2.6" stroke-linecap="round" />
<path d="M90.17072459629475,-67.09375 L166.61630846682579,-67.09375" stroke="#1a1a1a" stroke-width="2.6" stroke-linecap="round" />
<path d="M166.61630846682579,-67.09375 L166.61630846682579,-98.875" stroke="#1a1a1a" stroke-width="2.6" stroke-linecap="round" />
<path d="M166.61630846682579,-67.09375 L166.61630846682579,-35.3125" stroke="#1a1a1a" stroke-width="2.6" stroke-linecap="round" />
<path d="M-261.7064503351931,-121.828125 L90.17072459629475,-121.828125" stroke="#1a1a1a" stroke-width="2.6" stroke-linecap="round" />
<path d="M90.17072459629475,-121.828125 L90.17072459629475,-176.5625" stroke="#1a1a1a" stroke-width="2.6" stroke-linecap="round" />
<path d="M90.17072459629475,-121.828125 L90.17072459629475,-67.09375" stroke="#1a1a1a" stroke-width="2.6" stroke-linecap="round" />
<path d="M319.17302185944027,28.25 L356.0,28.25" stroke="#1a1a1a" stroke-width="2.6" stroke-linecap="round" />
<path d="M319.17302185944027,56.5 L356.0,56.5" stroke="#1a1a1a" stroke-width="2.6" stroke-linecap="round" />
<path d="M104.21130357076885,42.375 L319.17302185944027,42.375" stroke="#1a1a1a" stroke-width="2.6" stroke-linecap="round" />
<path d="M319.17302185944027,42.375 L319.17302185944027,28.25" stroke="#1a1a1a" stroke-width="2.6" stroke-linecap="round" />
<path d="M319.17302185944027,42.375 L319.17302185944027,56.5" stroke="#1a1a1a" stroke-width="2.6" stroke-linecap="round" />
<path d="M104.21130357076885,84.75 L356.0,84.75" stroke="#1a1a1a" stroke-width="2.6" stroke-linecap="round" />
<path d="M14.323433326827853,63.5625 L104.21130357076885,63.5625" stroke="#1a1a1a" stroke-width="2.6" stroke-linecap="round" />
<path d="M104.21130357076885,63.5625 L104.21130357076885,42.375" stroke="#1a1a1a" stroke-width="2.6" stroke-linecap="round" />
<path d="M104.21130357076885,63.5625 L104.21130357076885,84.75" stroke="#1a1a1a" stroke-width="2.6" stroke-linecap="round" />
<path d="M14.323433326827853,113.0 L86.2253187332376,113.0" stroke="#1a1a1a" stroke-width="2.6" stroke-dasharray="6,5" stroke-linecap="butt" />
<path d="M-229.34076282087304,88.28125 L14.323433326827853,88.28125" stroke="#1a1a1a" stroke-width="2.6" stroke-linecap="round" />
<path d="M14.323433326827853,88.28125 L14.323433326827853,63.5625" stroke="#1a1a1a" stroke-width="2.6" stroke-linecap="round" />
<path d="M14.323433326827853,88.28125 L14.323433326827853,113.0" stroke="#1a1a1a" stroke-width="2.6" stroke-dasharray="6,5" stroke-linecap="butt" />
<path d="M336.7898473743734,141.25 L356.0,141.25" stroke="#1a1a1a" stroke-width="2.6" stroke-linecap="round" />
<path d="M336.7898473743734,169.5 L356.0,169.5" stroke="#1a1a1a" stroke-width="2.6" stroke-linecap="round" />
<path d="M-229.34076282087304,155.375 L336.7898473743734,155.375" stroke="#1a1a1a" stroke-width="2.6" stroke-linecap="round" />
<path d="M336.7898473743734,155.375 L336.7898473743734,141.25" stroke="#1a1a1a" stroke-width="2.6" stroke-linecap="round" />
<path d="M336.7898473743734,155.375 L336.7898473743734,169.5" stroke="#1a1a1a" stroke-width="2.6" stroke-linecap="round" />
<path d="M-261.7064503351931,121.828125 L-229.34076282087304,121.828125" stroke="#1a1a1a" stroke-width="2.6" stroke-linecap="round" />
<path d="M-229.34076282087304,121.828125 L-229.34076282087304,88.28125" stroke="#1a1a1a" stroke-width="2.6" stroke-linecap="round" />
<path d="M-229.34076282087304,121.828125 L-229.34076282087304,155.375" stroke="#1a1a1a" stroke-width="2.6" stroke-linecap="round" />
<path d="M-343.2203519890794,0.0 L-261.7064503351931,0.0" stroke="#1a1a1a" stroke-width="2.6" stroke-linecap="round" />
<path d="M-261.7064503351931,0.0 L-261.7064503351931,-121.828125" stroke="#1a1a1a" stroke-width="2.6" stroke-linecap="round" />
<path d="M-261.7064503351931,0.0 L-261.7064503351931,121.828125" stroke="#1a1a1a" stroke-width="2.6" stroke-linecap="round" />
<path d="M-174.44134054235016,197.75 L-87.73067623884918,197.75" stroke="#1a1a1a" stroke-width="2.6" stroke-dasharray="6,5" stroke-linecap="butt" />
<path d="M-174.44134054235016,226.0 L110.23800421056666,226.0" stroke="#1a1a1a" stroke-width="2.6" stroke-dasharray="6,5" stroke-linecap="butt" />
<path d="M-343.2203519890794,211.875 L-174.44134054235016,211.875" stroke="#1a1a1a" stroke-width="2.6" stroke-dasharray="6,5" stroke-linecap="butt" />
<path d="M-174.44134054235016,211.875 L-174.44134054235016,197.75" stroke="#1a1a1a" stroke-width="2.6" stroke-dasharray="6,5" stroke-linecap="butt" />
<path d="M-174.44134054235016,211.875 L-174.44134054235016,226.0" stroke="#1a1a1a" stroke-width="2.6" stroke-dasharray="6,5" stroke-linecap="butt" />
<path d="M-356.0,105.9375 L-343.2203519890794,105.9375" stroke="#1a1a1a" stroke-width="2.6" stroke-linecap="round" />
<path d="M-343.2203519890794,105.9375 L-343.2203519890794,0.0" stroke="#1a1a1a" stroke-width="2.6" stroke-linecap="round" />
<path d="M-343.2203519890794,105.9375 L-343.2203519890794,211.875" stroke="#1a1a1a" stroke-width="2.6" stroke-dasharray="6,5" stroke-linecap="butt" />
<path d="M-370.0,-60.03125 L-356.0,-60.03125" stroke="#1a1a1a" stroke-width="2.6" stroke-linecap="round" />
<path d="M-356.0,-60.03125 L-356.0,-226.0" stroke="#1a1a1a" stroke-width="2.6" stroke-linecap="round" />
<path d="M-356.0,-60.03125 L-356.0,105.9375" stroke="#1a1a1a" stroke-width="2.6" stroke-linecap="round" />
<path d="M-370.0,238.0 L356.0,238.0" stroke="black" stroke-width="1.4" />
<path d="M-356.0,238.0 L-356.0,243.0" stroke="black" stroke-width="1.4" />
<text x="-356.0" y="256.0" font-size="13" text-anchor="middle" font-family="Helvetica">0.0</text>
<path d="M0.0,238.0 L0.0,243.0" stroke="black" stroke-width="1.4" />
<text x="0.0" y="256.0" font-size="13" text-anchor="middle" font-family="Helvetica">1.0</text>
<path d="M356.0,238.0 L356.0,243.0" stroke="black" stroke-width="1.4" />
<text x="356.0" y="256.0" font-size="13" text-anchor="middle" font-family="Helvetica">2.0</text>
<text x="-7.0" y="275.5" font-size="13" text-anchor="middle" font-family="Helvetica">Time</text>
<text x="-390.0" y="-254.0" font-size="22" fill="#1a1a1a" font-weight="bold" font-family="Helvetica" text-anchor="start" dominant-baseline="middle">C</text>
<text x="-364.0" y="-254.0" font-size="14" fill="#1a1a1a" font-weight="normal" font-family="Helvetica" text-anchor="start" dominant-baseline="middle">Ghost lineages (seed 2)</text>
</svg>
<line x1="1020.0" y1="584.0" x2="1050.0" y2="584.0" stroke="#1a1a1a" stroke-width="2.6" stroke-linecap="round" />
<text x="1058.0" y="584.0" font-size="15" font-family="Helvetica" text-anchor="start" dominant-baseline="middle" fill="#1a1a1a">reconstructed lineage</text>
<line x1="1250.0" y1="584.0" x2="1280.0" y2="584.0" stroke="#1a1a1a" stroke-width="2.6" stroke-dasharray="6,5" stroke-linecap="butt" />
<text x="1288.0" y="584.0" font-size="15" font-family="Helvetica" text-anchor="start" dominant-baseline="middle" fill="#1a1a1a">ghost lineage</text>
</svg>