<?xml version="1.0" encoding="UTF-8"?>
<svg xmlns="http://www.w3.org/2000/svg" xmlns:xlink="http://www.w3.org/1999/xlink"
     width="820" height="1076" viewBox="-410.0 -538.0 820 1076">
<defs>
</defs>
<rect x="-410.0" y="-538.0" width="820" height="1076" fill="white" />
<path d="M292.0,-434.0 L292.0,434.0" stroke="#c9c9c9" stroke-width="1.0" stroke-dasharray="2,4" />
<path d="M-292.0,-420.0 L-239.10450227002713,-420.0" stroke="#1a1a1a" stroke-width="2.6" stroke-dasharray="6,5" stroke-linecap="butt" />
<path d="M-76.98356481652704,-373.3333333333333 L41.54494991823657,-373.3333333333333" stroke="#1a1a1a" stroke-width="2.6" stroke-dasharray="6,5" stroke-linecap="butt" />
<path d="M44.24182503786551,-326.6666666666667 L292.0,-326.6666666666667" stroke="#1a1a1a" stroke-width="2.6" stroke-linecap="round" />
<path d="M117.47269722922738,-280.0 L292.0,-280.0" stroke="#1a1a1a" stroke-width="2.6" stroke-linecap="round" />
<path d="M267.758169677094,-233.33333333333334 L292.0,-233.33333333333334" stroke="#1a1a1a" stroke-width="2.6" stroke-linecap="round" />
<path d="M267.758169677094,-186.66666666666669 L292.0,-186.66666666666669" stroke="#1a1a1a" stroke-width="2.6" stroke-dasharray="6,5" stroke-linecap="butt" />
<path d="M117.47269722922738,-210.0 L267.758169677094,-210.0" stroke="#1a1a1a" stroke-width="2.6" stroke-linecap="round" />
<path d="M267.758169677094,-210.0 L267.758169677094,-233.33333333333334" stroke="#1a1a1a" stroke-width="2.6" stroke-linecap="round" />
<path d="M267.758169677094,-210.0 L267.758169677094,-186.66666666666669" stroke="#1a1a1a" stroke-width="2.6" stroke-dasharray="6,5" stroke-linecap="butt" />
<path d="M44.24182503786551,-245.0 L117.47269722922738,-245.0" stroke="#1a1a1a" stroke-width="2.6" stroke-linecap="round" />
<path d="M117.47269722922738,-245.0 L117.47269722922738,-280.0" stroke="#1a1a1a" stroke-width="2.6" stroke-linecap="round" />
<path d="M117.47269722922738,-245.0 L117.47269722922738,-210.0" stroke="#1a1a1a" stroke-width="2.6" stroke-linecap="round" />
<path d="M30.31156952362653,-285.83333333333337 L44.24182503786551,-285.83333333333337" stroke="#1a1a1a" stroke-width="2.6" stroke-linecap="round" />
<path d="M44.24182503786551,-285.83333333333337 L44.24182503786551,-326.6666666666667" stroke="#1a1a1a" stroke-width="2.6" stroke-linecap="round" />
<path d="M44.24182503786551,-285.83333333333337 L44.24182503786551,-245.0" stroke="#1a1a1a" stroke-width="2.6" stroke-linecap="round" />
<path d="M148.40775180313057,-140.0 L292.0,-140.0" stroke="#1a1a1a" stroke-width="2.6" stroke-dasharray="6,5" stroke-linecap="butt" />
<path d="M195.3109012408226,-93.33333333333337 L292.0,-93.33333333333337" stroke="#1a1a1a" stroke-width="2.6" stroke-dasharray="6,5" stroke-linecap="butt" />
<path d="M195.3109012408226,-46.666666666666686 L292.0,-46.666666666666686" stroke="#1a1a1a" stroke-width="2.6" stroke-linecap="round" />
<path d="M148.40775180313057,-70.00000000000003 L195.3109012408226,-70.00000000000003" stroke="#1a1a1a" stroke-width="2.6" stroke-linecap="round" />
<path d="M195.3109012408226,-70.00000000000003 L195.3109012408226,-93.33333333333337" stroke="#1a1a1a" stroke-width="2.6" stroke-dasharray="6,5" stroke-linecap="butt" />
<path d="M195.3109012408226,-70.00000000000003 L195.3109012408226,-46.666666666666686" stroke="#1a1a1a" stroke-width="2.6" stroke-linecap="round" />
<path d="M30.31156952362653,-105.00000000000001 L148.40775180313057,-105.00000000000001" stroke="#1a1a1a" stroke-width="2.6" stroke-linecap="round" />
<path d="M148.40775180313057,-105.00000000000001 L148.40775180313057,-140.0" stroke="#1a1a1a" stroke-width="2.6" stroke-dasharray="6,5" stroke-linecap="butt" />
<path d="M148.40775180313057,-105.00000000000001 L148.40775180313057,-70.00000000000003" stroke="#1a1a1a" stroke-width="2.6" stroke-linecap="round" />
<path d="M-76.98356481652704,-195.41666666666669 L30.31156952362653,-195.41666666666669" stroke="#1a1a1a" stroke-width="2.6" stroke-linecap="round" />
<path d="M30.31156952362653,-195.41666666666669 L30.31156952362653,-285.83333333333337" stroke="#1a1a1a" stroke-width="2.6" stroke-linecap="round" />
<path d="M30.31156952362653,-195.41666666666669 L30.31156952362653,-105.00000000000001" stroke="#1a1a1a" stroke-width="2.6" stroke-linecap="round" />
<path d="M-83.94505061154501,-284.375 L-76.98356481652704,-284.375" stroke="#1a1a1a" stroke-width="2.6" stroke-linecap="round" />
<path d="M-76.98356481652704,-284.375 L-76.98356481652704,-373.3333333333333" stroke="#1a1a1a" stroke-width="2.6" stroke-dasharray="6,5" stroke-linecap="butt" />
<path d="M-76.98356481652704,-284.375 L-76.98356481652704,-195.41666666666669" stroke="#1a1a1a" stroke-width="2.6" stroke-linecap="round" />
<path d="M258.99891510001135,0.0 L292.0,0.0" stroke="#1a1a1a" stroke-width="2.6" stroke-dasharray="6,5" stroke-linecap="butt" />
<path d="M258.99891510001135,46.66666666666663 L292.0,46.66666666666663" stroke="#1a1a1a" stroke-width="2.6" stroke-linecap="round" />
<path d="M237.0799401882922,23.333333333333314 L258.99891510001135,23.333333333333314" stroke="#1a1a1a" stroke-width="2.6" stroke-linecap="round" />
<path d="M258.99891510001135,23.333333333333314 L258.99891510001135,0.0" stroke="#1a1a1a" stroke-width="2.6" stroke-dasharray="6,5" stroke-linecap="butt" />
<path d="M258.99891510001135,23.333333333333314 L258.99891510001135,46.66666666666663" stroke="#1a1a1a" stroke-width="2.6" stroke-linecap="round" />
<path d="M237.0799401882922,93.33333333333326 L292.0,93.33333333333326" stroke="#1a1a1a" stroke-width="2.6" stroke-linecap="round" />
<path d="M43.81794827625038,58.333333333333286 L237.0799401882922,58.333333333333286" stroke="#1a1a1a" stroke-width="2.6" stroke-linecap="round" />
<path d="M237.0799401882922,58.333333333333286 L237.0799401882922,23.333333333333314" stroke="#1a1a1a" stroke-width="2.6" stroke-linecap="round" />
<path d="M237.0799401882922,58.333333333333286 L237.0799401882922,93.33333333333326" stroke="#1a1a1a" stroke-width="2.6" stroke-linecap="round" />
<path d="M234.22621097588626,140.0 L292.0,140.0" stroke="#1a1a1a" stroke-width="2.6" stroke-linecap="round" />
<path d="M260.54291275442336,186.66666666666663 L272.7842405590437,186.66666666666663" stroke="#1a1a1a" stroke-width="2.6" stroke-dasharray="6,5" stroke-linecap="butt" />
<path d="M260.54291275442336,233.33333333333326 L292.0,233.33333333333326" stroke="#1a1a1a" stroke-width="2.6" stroke-linecap="round" />
<path d="M259.20798687761373,209.99999999999994 L260.54291275442336,209.99999999999994" stroke="#1a1a1a" stroke-width="2.6" stroke-linecap="round" />
<path d="M260.54291275442336,209.99999999999994 L260.54291275442336,186.66666666666663" stroke="#1a1a1a" stroke-width="2.6" stroke-dasharray="6,5" stroke-linecap="butt" />
<path d="M260.54291275442336,209.99999999999994 L260.54291275442336,233.33333333333326" stroke="#1a1a1a" stroke-width="2.6" stroke-linecap="round" />
<path d="M259.20798687761373,280.0 L292.0,280.0" stroke="#1a1a1a" stroke-width="2.6" stroke-dasharray="6,5" stroke-linecap="butt" />
<path d="M234.22621097588626,244.99999999999997 L259.20798687761373,244.99999999999997" stroke="#1a1a1a" stroke-width="2.6" stroke-linecap="round" />
<path d="M259.20798687761373,244.99999999999997 L259.20798687761373,209.99999999999994" stroke="#1a1a1a" stroke-width="2.6" stroke-linecap="round" />
<path d="M259.20798687761373,244.99999999999997 L259.20798687761373,280.0" stroke="#1a1a1a" stroke-width="2.6" stroke-dasharray="6,5" stroke-linecap="butt" />
<path d="M94.50420101751195,192.5 L234.22621097588626,192.5" stroke="#1a1a1a" stroke-width="2.6" stroke-linecap="round" />
<path d="M234.22621097588626,192.5 L234.22621097588626,140.0" stroke="#1a1a1a" stroke-width="2.6" stroke-linecap="round" />
<path d="M234.22621097588626,192.5 L234.22621097588626,244.99999999999997" stroke="#1a1a1a" stroke-width="2.6" stroke-linecap="round" />
<path d="M100.3221859541099,326.66666666666663 L292.0,326.66666666666663" stroke="#1a1a1a" stroke-width="2.6" stroke-linecap="round" />
<path d="M100.3221859541099,373.33333333333326 L292.0,373.33333333333326" stroke="#1a1a1a" stroke-width="2.6" stroke-linecap="round" />
<path d="M94.50420101751195,349.99999999999994 L100.3221859541099,349.99999999999994" stroke="#1a1a1a" stroke-width="2.6" stroke-linecap="round" />
<path d="M100.3221859541099,349.99999999999994 L100.3221859541099,326.66666666666663" stroke="#1a1a1a" stroke-width="2.6" stroke-linecap="round" />
<path d="M100.3221859541099,349.99999999999994 L100.3221859541099,373.33333333333326" stroke="#1a1a1a" stroke-width="2.6" stroke-linecap="round" />
<path d="M43.81794827625038,271.25 L94.50420101751195,271.25" stroke="#1a1a1a" stroke-width="2.6" stroke-linecap="round" />
<path d="M94.50420101751195,271.25 L94.50420101751195,192.5" stroke="#1a1a1a" stroke-width="2.6" stroke-linecap="round" />
<path d="M94.50420101751195,271.25 L94.50420101751195,349.99999999999994" stroke="#1a1a1a" stroke-width="2.6" stroke-linecap="round" />
<path d="M-61.2806281005459,164.79166666666663 L43.81794827625038,164.79166666666663" stroke="#1a1a1a" stroke-width="2.6" stroke-linecap="round" />
<path d="M43.81794827625038,164.79166666666663 L43.81794827625038,58.333333333333286" stroke="#1a1a1a" stroke-width="2.6" stroke-linecap="round" />
<path d="M43.81794827625038,164.79166666666663 L43.81794827625038,271.25" stroke="#1a1a1a" stroke-width="2.6" stroke-linecap="round" />
<path d="M-61.2806281005459,420.0 L292.0,420.0" stroke="#1a1a1a" stroke-width="2.6" stroke-dasharray="6,5" stroke-linecap="butt" />
<path d="M-83.94505061154501,292.3958333333333 L-61.2806281005459,292.3958333333333" stroke="#1a1a1a" stroke-width="2.6" stroke-linecap="round" />
<path d="M-61.2806281005459,292.3958333333333 L-61.2806281005459,164.79166666666663" stroke="#1a1a1a" stroke-width="2.6" stroke-linecap="round" />
<path d="M-61.2806281005459,292.3958333333333 L-61.2806281005459,420.0" stroke="#1a1a1a" stroke-width="2.6" stroke-dasharray="6,5" stroke-linecap="butt" />
<path d="M-292.0,4.010416666666657 L-83.94505061154501,4.010416666666657" stroke="#1a1a1a" stroke-width="2.6" stroke-linecap="round" />
<path d="M-83.94505061154501,4.010416666666657 L-83.94505061154501,-284.375" stroke="#1a1a1a" stroke-width="2.6" stroke-linecap="round" />
<path d="M-83.94505061154501,4.010416666666657 L-83.94505061154501,292.3958333333333" stroke="#1a1a1a" stroke-width="2.6" stroke-linecap="round" />
<path d="M-306.0,-207.99479166666669 L-292.0,-207.99479166666669" stroke="#1a1a1a" stroke-width="2.6" stroke-linecap="round" />
<path d="M-292.0,-207.99479166666669 L-292.0,-420.0" stroke="#1a1a1a" stroke-width="2.6" stroke-dasharray="6,5" stroke-linecap="butt" />
<path d="M-292.0,-207.99479166666669 L-292.0,4.010416666666657" stroke="#1a1a1a" stroke-width="2.6" stroke-linecap="round" />
<circle cx="292.0" cy="-186.66666666666669" r="6.0" fill="#ffffff" stroke="#1a1a1a" stroke-width="2" />
<circle cx="292.0" cy="-140.0" r="6.0" fill="#ffffff" stroke="#1a1a1a" stroke-width="2" />
<circle cx="292.0" cy="-93.33333333333337" r="6.0" fill="#ffffff" stroke="#1a1a1a" stroke-width="2" />
<circle cx="292.0" cy="0.0" r="6.0" fill="#ffffff" stroke="#1a1a1a" stroke-width="2" />
<circle cx="292.0" cy="280.0" r="6.0" fill="#ffffff" stroke="#1a1a1a" stroke-width="2" />
<circle cx="292.0" cy="420.0" r="6.0" fill="#ffffff" stroke="#1a1a1a" stroke-width="2" />
<path d="M-306.0,434.0 L292.0,434.0" stroke="black" stroke-width="1.6" />
<path d="M-292.0,434.0 L-292.0,440.0" stroke="black" stroke-width="1.6" />
<text x="-292.0" y="457.0" font-size="17" text-anchor="middle" font-family="Helvetica">0.00</text>
<path d="M-146.0,434.0 L-146.0,440.0" stroke="black" stroke-width="1.6" />
<text x="-146.0" y="457.0" font-size="17" text-anchor="middle" font-family="Helvetica">0.55</text>
<path d="M0.0,434.0 L0.0,440.0" stroke="black" stroke-width="1.6" />
<text x="0.0" y="457.0" font-size="17" text-anchor="middle" font-family="Helvetica">1.10</text>
<path d="M145.99999999999994,434.0 L145.99999999999994,440.0" stroke="black" stroke-width="1.6" />
<text x="145.99999999999994" y="457.0" font-size="17" text-anchor="middle" font-family="Helvetica">1.65</text>
<path d="M292.0,434.0 L292.0,440.0" stroke="black" stroke-width="1.6" />
<text x="292.0" y="457.0" font-size="17" text-anchor="middle" font-family="Helvetica">2.20</text>
<text x="-7.0" y="482.5" font-size="17" text-anchor="middle" font-family="Helvetica">Time (root to present)</text>
<text x="0" y="-494.0" font-size="32" font-weight="bold" font-family="Helvetica" text-anchor="middle" dominant-baseline="central" fill="#1a1a1a">Incomplete sampling (rho = 0.6)</text>
<path d="M-376.0,54 L-342.0,54" stroke="#1a1a1a" stroke-width="2.6" stroke-linecap="round" />
<text x="-328.0" y="54" font-size="22" font-family="Helvetica" text-anchor="start" dominant-baseline="central" fill="#1a1a1a">sampled</text>
<path d="M-376.0,95.8 L-342.0,95.8" stroke="#1a1a1a" stroke-width="2.6" stroke-dasharray="6,5" stroke-linecap="butt" />
<circle cx="-334.0" cy="95.8" r="6.0" fill="#ffffff" stroke="#1a1a1a" stroke-width="2" />
<text x="-320.0" y="95.8" font-size="22" font-family="Helvetica" text-anchor="start" dominant-baseline="central" fill="#1a1a1a">unsampled extant</text>
<path d="M-376.0,137.6 L-342.0,137.6" stroke="#1a1a1a" stroke-width="2.6" stroke-dasharray="6,5" stroke-linecap="butt" />
<text x="-328.0" y="137.6" font-size="22" font-family="Helvetica" text-anchor="start" dominant-baseline="central" fill="#1a1a1a">extinct</text>
</svg>