<?xml version="1.0" encoding="UTF-8"?>
<svg xmlns="http://www.w3.org/2000/svg" xmlns:xlink="http://www.w3.org/1999/xlink"
     width="1180" height="680" viewBox="0 0 1180 680">
<defs>
<pattern width="4.5" height="4.5" patternUnits="userSpaceOnUse" id="ev_hatch">
<rect x="0" y="0" width="4.5" height="4.5" fill="white" />
<path d="M-4.5,4.5 L0.0,0" stroke="#1a1a1a" stroke-width="1.1" />
<path d="M0,4.5 L4.5,0" stroke="#1a1a1a" stroke-width="1.1" />
<path d="M4.5,4.5 L9.0,0" stroke="#1a1a1a" stroke-width="1.1" />
</pattern>
</defs>
<rect x="0" y="0" width="1180" height="680" fill="white" />
<path d="M788,22 L788,664" stroke="#dcdcdc" stroke-width="1.2" />
<use xlink:href="#ev_hatch" />
<path d="M515.0,84 L515.0,130" stroke="#1a1a1a" stroke-width="1.1" stroke-dasharray="3,3" />
<rect x="461.0" y="64" width="108.0" height="18" fill="#dcdcdc" />
<rect x="461.0" y="64" width="108.0" height="18" fill="none" stroke="#1a1a1a" stroke-width="1.1" />
<text x="515.0" y="56" font-size="15" font-family="Helvetica" text-anchor="middle" font-weight="bold" fill="#1a1a1a">initial genome — one piece, a smooth gradient (no segments yet)</text>
<path d="M330.0,130 L700,130" stroke="#1a1a1a" stroke-width="2.6" />
<path d="M330.0,130 L330.0,174.8" stroke="#1a1a1a" stroke-width="2.6" />
<path d="M700,130 L700,242" stroke="#1a1a1a" stroke-width="2.6" />
<path d="M230,174.8 L430,174.8" stroke="#1a1a1a" stroke-width="2.6" />
<path d="M230,174.8 L230,242" stroke="#1a1a1a" stroke-width="2.6" />
<path d="M430,174.8 L430,242" stroke="#1a1a1a" stroke-width="2.6" />
<rect x="224" y="202.4" width="12" height="12" fill="url(#ev_hatch)" stroke="#1a1a1a" stroke-width="1.5" />
<rect x="176.0" y="255" width="108.0" height="18" fill="#dcdcdc" />
<rect x="257.0" y="255" width="18.0" height="18" fill="#a6a6a6" />
<rect x="257.0" y="255" width="18.0" height="18" fill="none" stroke="white" stroke-width="1.0" />
<path d="M257.0,255 L257.0,273" stroke="#4a4a4a" stroke-width="2.6" />
<path d="M257.0,255 L257.0,273" stroke="white" stroke-width="1.3" />
<path d="M275.0,255 L275.0,273" stroke="#4a4a4a" stroke-width="2.6" />
<path d="M275.0,255 L275.0,273" stroke="white" stroke-width="1.3" />
<path d="M257.0,278 L275.0,278" stroke="#1a1a1a" stroke-width="2" />
<path d="M257.0,278 L257.0,274" stroke="#1a1a1a" stroke-width="2" />
<path d="M275.0,278 L275.0,274" stroke="#1a1a1a" stroke-width="2" />
<rect x="176.0" y="255" width="108.0" height="18" fill="none" stroke="#1a1a1a" stroke-width="1" />
<text x="230" y="292" font-size="20" font-family="Helvetica" text-anchor="middle" font-weight="bold" fill="#1a1a1a">A</text>
<path d="M436,211.4 C438,202.4,422,202.4,424,211.4" fill="none" stroke="#1a1a1a" stroke-width="2.2" />
<path d="M424,211.4 L421,206.4 L428,206.4 Z" fill="#1a1a1a" />
<rect x="376.0" y="255" width="108.0" height="18" fill="#dcdcdc" />
<rect x="475.0" y="255" width="9.0" height="18" fill="#c8c8c8" />
<rect x="475.0" y="255" width="9.0" height="18" fill="none" stroke="white" stroke-width="1.0" />
<path d="M475.0,255 L475.0,273" stroke="#4a4a4a" stroke-width="2.6" />
<path d="M475.0,255 L475.0,273" stroke="white" stroke-width="1.3" />
<path d="M475.0,278 L484.0,278" stroke="#1a1a1a" stroke-width="2" />
<path d="M475.0,278 L475.0,274" stroke="#1a1a1a" stroke-width="2" />
<path d="M484.0,278 L484.0,274" stroke="#1a1a1a" stroke-width="2" />
<rect x="376.0" y="255" width="108.0" height="18" fill="none" stroke="#1a1a1a" stroke-width="1" />
<text x="430" y="292" font-size="20" font-family="Helvetica" text-anchor="middle" font-weight="bold" fill="#1a1a1a">B</text>
<circle cx="700" cy="186.0" r="6" fill="url(#ev_hatch)" stroke="#1a1a1a" stroke-width="1.5" />
<rect x="646.0" y="255" width="108.0" height="18" fill="#dcdcdc" />
<rect x="655.0" y="255" width="18.0" height="18" fill="#5f5f5f" />
<rect x="655.0" y="255" width="18.0" height="18" fill="none" stroke="white" stroke-width="1.0" />
<path d="M655.0,255 L655.0,273" stroke="#4a4a4a" stroke-width="2.6" />
<path d="M655.0,255 L655.0,273" stroke="white" stroke-width="1.3" />
<path d="M673.0,255 L673.0,273" stroke="#4a4a4a" stroke-width="2.6" />
<path d="M673.0,255 L673.0,273" stroke="white" stroke-width="1.3" />
<path d="M655.0,278 L673.0,278" stroke="#1a1a1a" stroke-width="2" />
<path d="M655.0,278 L655.0,274" stroke="#1a1a1a" stroke-width="2" />
<path d="M673.0,278 L673.0,274" stroke="#1a1a1a" stroke-width="2" />
<rect x="646.0" y="255" width="108.0" height="18" fill="none" stroke="#1a1a1a" stroke-width="1" />
<text x="700" y="292" font-size="20" font-family="Helvetica" text-anchor="middle" font-weight="bold" fill="#1a1a1a">C</text>
<text x="40" y="34" font-size="18" font-family="Helvetica" text-anchor="start" font-weight="bold" fill="#1a1a1a">A — each event carves out one segment (only its own cut shown)</text>
<path d="M40,330 L760,330" stroke="#dcdcdc" stroke-width="1.2" />
<text x="40" y="350" font-size="15" font-family="Helvetica" text-anchor="start" font-weight="bold" fill="#1a1a1a">B — the segments propagate: every genome is a mosaic of the same blocks</text>
<path d="M515.0,402 L515.0,458" stroke="#1a1a1a" stroke-width="1.1" stroke-dasharray="3,3" />
<rect x="461.0" y="380" width="9.0" height="18" fill="#3a3a3a" />
<rect x="461.0" y="380" width="9.0" height="18" fill="none" stroke="white" stroke-width="1.0" />
<rect x="470.0" y="380" width="18.0" height="18" fill="#5f5f5f" />
<rect x="470.0" y="380" width="18.0" height="18" fill="none" stroke="white" stroke-width="1.0" />
<rect x="488.0" y="380" width="54.0" height="18" fill="#838383" />
<rect x="488.0" y="380" width="54.0" height="18" fill="none" stroke="white" stroke-width="1.0" />
<rect x="542.0" y="380" width="18.0" height="18" fill="#a6a6a6" />
<rect x="542.0" y="380" width="18.0" height="18" fill="none" stroke="white" stroke-width="1.0" />
<rect x="560.0" y="380" width="9.0" height="18" fill="#c8c8c8" />
<rect x="560.0" y="380" width="9.0" height="18" fill="none" stroke="white" stroke-width="1.0" />
<path d="M470.0,380 L470.0,398" stroke="#4a4a4a" stroke-width="2.6" />
<path d="M470.0,380 L470.0,398" stroke="white" stroke-width="1.3" />
<path d="M488.0,380 L488.0,398" stroke="#4a4a4a" stroke-width="2.6" />
<path d="M488.0,380 L488.0,398" stroke="white" stroke-width="1.3" />
<path d="M542.0,380 L542.0,398" stroke="#4a4a4a" stroke-width="2.6" />
<path d="M542.0,380 L542.0,398" stroke="white" stroke-width="1.3" />
<path d="M560.0,380 L560.0,398" stroke="#4a4a4a" stroke-width="2.6" />
<path d="M560.0,380 L560.0,398" stroke="white" stroke-width="1.3" />
<rect x="461.0" y="380" width="108.0" height="18" fill="none" stroke="#1a1a1a" stroke-width="1.1" />
<text x="515.0" y="370" font-size="15" font-family="Helvetica" text-anchor="middle" font-weight="bold" fill="#1a1a1a">initial genome — now cut into its blocks (gradient squares)</text>
<path d="M330.0,458 L700,458" stroke="#1a1a1a" stroke-width="2.6" />
<path d="M330.0,458 L330.0,502.8" stroke="#1a1a1a" stroke-width="2.6" />
<path d="M700,458 L700,570" stroke="#1a1a1a" stroke-width="2.6" />
<path d="M230,502.8 L430,502.8" stroke="#1a1a1a" stroke-width="2.6" />
<path d="M230,502.8 L230,570" stroke="#1a1a1a" stroke-width="2.6" />
<path d="M430,502.8 L430,570" stroke="#1a1a1a" stroke-width="2.6" />
<path d="M230,570 L230,584" stroke="#1a1a1a" stroke-width="1.2" />
<rect x="167.0" y="584" width="9.0" height="22" fill="#3a3a3a" />
<rect x="167.0" y="584" width="9.0" height="22" fill="none" stroke="white" stroke-width="1.0" />
<rect x="176.0" y="584" width="18.0" height="22" fill="#5f5f5f" />
<rect x="176.0" y="584" width="18.0" height="22" fill="none" stroke="white" stroke-width="1.0" />
<rect x="194.0" y="584" width="54.0" height="22" fill="#838383" />
<rect x="194.0" y="584" width="54.0" height="22" fill="none" stroke="white" stroke-width="1.0" />
<rect x="248.0" y="584" width="18.0" height="22" fill="#a6a6a6" />
<rect x="248.0" y="584" width="18.0" height="22" fill="none" stroke="white" stroke-width="1.0" />
<rect x="266.0" y="584" width="18.0" height="22" fill="#a6a6a6" />
<rect x="266.0" y="584" width="18.0" height="22" fill="none" stroke="white" stroke-width="1.0" />
<rect x="284.0" y="584" width="9.0" height="22" fill="#c8c8c8" />
<rect x="284.0" y="584" width="9.0" height="22" fill="none" stroke="white" stroke-width="1.0" />
<path d="M176.0,584 L176.0,606" stroke="#4a4a4a" stroke-width="2.6" />
<path d="M176.0,584 L176.0,606" stroke="white" stroke-width="1.3" />
<path d="M194.0,584 L194.0,606" stroke="#4a4a4a" stroke-width="2.6" />
<path d="M194.0,584 L194.0,606" stroke="white" stroke-width="1.3" />
<path d="M248.0,584 L248.0,606" stroke="#4a4a4a" stroke-width="2.6" />
<path d="M248.0,584 L248.0,606" stroke="white" stroke-width="1.3" />
<path d="M266.0,584 L266.0,606" stroke="#4a4a4a" stroke-width="2.6" />
<path d="M266.0,584 L266.0,606" stroke="white" stroke-width="1.3" />
<path d="M284.0,584 L284.0,606" stroke="#4a4a4a" stroke-width="2.6" />
<path d="M284.0,584 L284.0,606" stroke="white" stroke-width="1.3" />
<rect x="167.0" y="584" width="126.0" height="22" fill="none" stroke="#1a1a1a" stroke-width="1.0" />
<text x="230" y="624" font-size="20" font-family="Helvetica" text-anchor="middle" font-weight="bold" fill="#1a1a1a">A</text>
<path d="M430,570 L430,584" stroke="#1a1a1a" stroke-width="1.2" />
<rect x="376.0" y="584" width="9.0" height="22" fill="#3a3a3a" />
<rect x="376.0" y="584" width="9.0" height="22" fill="none" stroke="white" stroke-width="1.0" />
<rect x="385.0" y="584" width="18.0" height="22" fill="#5f5f5f" />
<rect x="385.0" y="584" width="18.0" height="22" fill="none" stroke="white" stroke-width="1.0" />
<rect x="403.0" y="584" width="54.0" height="22" fill="#838383" />
<rect x="403.0" y="584" width="54.0" height="22" fill="none" stroke="white" stroke-width="1.0" />
<rect x="457.0" y="584" width="18.0" height="22" fill="#a6a6a6" />
<rect x="457.0" y="584" width="18.0" height="22" fill="none" stroke="white" stroke-width="1.0" />
<rect x="475.0" y="584" width="9.0" height="22" fill="#c8c8c8" />
<rect x="475.0" y="584" width="9.0" height="22" fill="none" stroke="white" stroke-width="1.0" />
<path d="M483.0,614 L476.0,614" stroke="white" stroke-width="4.5" stroke-linecap="round" />
<path d="M483.0,614 L481.0,614" stroke="#1a1a1a" stroke-width="1.8" />
<path d="M476.0,614 L483.0,610 L483.0,618 Z" fill="#1a1a1a" stroke="white" stroke-width="0.7" />
<path d="M385.0,584 L385.0,606" stroke="#4a4a4a" stroke-width="2.6" />
<path d="M385.0,584 L385.0,606" stroke="white" stroke-width="1.3" />
<path d="M403.0,584 L403.0,606" stroke="#4a4a4a" stroke-width="2.6" />
<path d="M403.0,584 L403.0,606" stroke="white" stroke-width="1.3" />
<path d="M457.0,584 L457.0,606" stroke="#4a4a4a" stroke-width="2.6" />
<path d="M457.0,584 L457.0,606" stroke="white" stroke-width="1.3" />
<path d="M475.0,584 L475.0,606" stroke="#4a4a4a" stroke-width="2.6" />
<path d="M475.0,584 L475.0,606" stroke="white" stroke-width="1.3" />
<rect x="376.0" y="584" width="108.0" height="22" fill="none" stroke="#1a1a1a" stroke-width="1.0" />
<text x="430" y="624" font-size="20" font-family="Helvetica" text-anchor="middle" font-weight="bold" fill="#1a1a1a">B</text>
<path d="M700,570 L700,584" stroke="#1a1a1a" stroke-width="1.2" />
<rect x="655.0" y="584" width="9.0" height="22" fill="#3a3a3a" />
<rect x="655.0" y="584" width="9.0" height="22" fill="none" stroke="white" stroke-width="1.0" />
<rect x="664.0" y="584" width="54.0" height="22" fill="#838383" />
<rect x="664.0" y="584" width="54.0" height="22" fill="none" stroke="white" stroke-width="1.0" />
<rect x="718.0" y="584" width="18.0" height="22" fill="#a6a6a6" />
<rect x="718.0" y="584" width="18.0" height="22" fill="none" stroke="white" stroke-width="1.0" />
<rect x="736.0" y="584" width="9.0" height="22" fill="#c8c8c8" />
<rect x="736.0" y="584" width="9.0" height="22" fill="none" stroke="white" stroke-width="1.0" />
<path d="M664.0,584 L664.0,606" stroke="#4a4a4a" stroke-width="2.6" />
<path d="M664.0,584 L664.0,606" stroke="white" stroke-width="1.3" />
<path d="M718.0,584 L718.0,606" stroke="#4a4a4a" stroke-width="2.6" />
<path d="M718.0,584 L718.0,606" stroke="white" stroke-width="1.3" />
<path d="M736.0,584 L736.0,606" stroke="#4a4a4a" stroke-width="2.6" />
<path d="M736.0,584 L736.0,606" stroke="white" stroke-width="1.3" />
<rect x="655.0" y="584" width="90.0" height="22" fill="none" stroke="#1a1a1a" stroke-width="1.0" />
<text x="700" y="624" font-size="20" font-family="Helvetica" text-anchor="middle" font-weight="bold" fill="#1a1a1a">C</text>
<text x="808" y="34" font-size="17" font-family="Helvetica" text-anchor="start" font-weight="bold" fill="#1a1a1a">C — reconstruct a tree for every block</text>
<rect x="896" y="79" width="22" height="13" fill="none" stroke="#1a1a1a" stroke-width="0.8" />
<rect x="896" y="79" width="22" height="13" fill="#3a3a3a" />
<rect x="896" y="79" width="22" height="13" fill="none" stroke="white" stroke-width="1.0" />
<text x="926" y="88" font-size="14" font-family="Helvetica" text-anchor="start" dominant-baseline="central" font-weight="bold" fill="#1a1a1a">block 0</text>
<text x="1010" y="88" font-size="12" font-family="Helvetica" text-anchor="start" dominant-baseline="central" fill="#888">[0,1)</text>
<path d="M960.5,104 L1040,104" stroke="#3a3a3a" stroke-width="3" />
<path d="M960.5,104 L960.5,129.6" stroke="#3a3a3a" stroke-width="3" />
<path d="M944,129.6 L977,129.6" stroke="#3a3a3a" stroke-width="3" />
<path d="M944,129.6 L944,168" stroke="#3a3a3a" stroke-width="3" />
<path d="M977,129.6 L977,168" stroke="#3a3a3a" stroke-width="3" />
<path d="M1040,104 L1040,168" stroke="#3a3a3a" stroke-width="3" />
<text x="944" y="184" font-size="15" font-family="Helvetica" text-anchor="middle" font-weight="bold" fill="#1a1a1a">A</text>
<text x="977" y="184" font-size="15" font-family="Helvetica" text-anchor="middle" font-weight="bold" fill="#1a1a1a">B</text>
<text x="1040" y="184" font-size="15" font-family="Helvetica" text-anchor="middle" font-weight="bold" fill="#1a1a1a">C</text>
<rect x="896" y="197" width="22" height="13" fill="none" stroke="#1a1a1a" stroke-width="0.8" />
<rect x="896" y="197" width="22" height="13" fill="#5f5f5f" />
<rect x="896" y="197" width="22" height="13" fill="none" stroke="white" stroke-width="1.0" />
<text x="926" y="206" font-size="14" font-family="Helvetica" text-anchor="start" dominant-baseline="central" font-weight="bold" fill="#1a1a1a">block 1</text>
<text x="1010" y="206" font-size="12" font-family="Helvetica" text-anchor="start" dominant-baseline="central" fill="#888">[1,3)</text>
<path d="M960.5,222 L1040,222" stroke="#5f5f5f" stroke-width="3" />
<path d="M960.5,222 L960.5,247.6" stroke="#5f5f5f" stroke-width="3" />
<path d="M944,247.6 L977,247.6" stroke="#5f5f5f" stroke-width="3" />
<path d="M944,247.6 L944,286" stroke="#5f5f5f" stroke-width="3" />
<path d="M977,247.6 L977,286" stroke="#5f5f5f" stroke-width="3" />
<path d="M1040,222 L1040,237.76" stroke="#1a1a1a" stroke-width="2" stroke-dasharray="4,3" />
<circle cx="1040" cy="243.76" r="6" fill="url(#ev_hatch)" stroke="#1a1a1a" stroke-width="1.5" />
<text x="944" y="302" font-size="15" font-family="Helvetica" text-anchor="middle" font-weight="bold" fill="#1a1a1a">A</text>
<text x="977" y="302" font-size="15" font-family="Helvetica" text-anchor="middle" font-weight="bold" fill="#1a1a1a">B</text>
<rect x="896" y="315" width="22" height="13" fill="none" stroke="#1a1a1a" stroke-width="0.8" />
<rect x="896" y="315" width="22" height="13" fill="#838383" />
<rect x="896" y="315" width="22" height="13" fill="none" stroke="white" stroke-width="1.0" />
<text x="926" y="324" font-size="14" font-family="Helvetica" text-anchor="start" dominant-baseline="central" font-weight="bold" fill="#1a1a1a">block 2</text>
<text x="1010" y="324" font-size="12" font-family="Helvetica" text-anchor="start" dominant-baseline="central" fill="#888">[3,9)</text>
<path d="M960.5,340 L1040,340" stroke="#838383" stroke-width="3" />
<path d="M960.5,340 L960.5,365.6" stroke="#838383" stroke-width="3" />
<path d="M944,365.6 L977,365.6" stroke="#838383" stroke-width="3" />
<path d="M944,365.6 L944,404" stroke="#838383" stroke-width="3" />
<path d="M977,365.6 L977,404" stroke="#838383" stroke-width="3" />
<path d="M1040,340 L1040,404" stroke="#838383" stroke-width="3" />
<text x="944" y="420" font-size="15" font-family="Helvetica" text-anchor="middle" font-weight="bold" fill="#1a1a1a">A</text>
<text x="977" y="420" font-size="15" font-family="Helvetica" text-anchor="middle" font-weight="bold" fill="#1a1a1a">B</text>
<text x="1040" y="420" font-size="15" font-family="Helvetica" text-anchor="middle" font-weight="bold" fill="#1a1a1a">C</text>
<rect x="896" y="433" width="22" height="13" fill="none" stroke="#1a1a1a" stroke-width="0.8" />
<rect x="896" y="433" width="22" height="13" fill="#a6a6a6" />
<rect x="896" y="433" width="22" height="13" fill="none" stroke="white" stroke-width="1.0" />
<text x="926" y="442" font-size="14" font-family="Helvetica" text-anchor="start" dominant-baseline="central" font-weight="bold" fill="#1a1a1a">block 3</text>
<text x="1010" y="442" font-size="12" font-family="Helvetica" text-anchor="start" dominant-baseline="central" fill="#888">[9,11)</text>
<path d="M960.5,458 L1040,458" stroke="#a6a6a6" stroke-width="3" />
<path d="M960.5,458 L960.5,483.6" stroke="#a6a6a6" stroke-width="3" />
<path d="M944,483.6 L977,483.6" stroke="#a6a6a6" stroke-width="3" />
<path d="M944,483.6 L944,495.12" stroke="#a6a6a6" stroke-width="3" />
<path d="M935,495.12 L953,495.12" stroke="#a6a6a6" stroke-width="3" />
<path d="M935,495.12 L935,522" stroke="#a6a6a6" stroke-width="3" />
<path d="M953,495.12 L953,522" stroke="#a6a6a6" stroke-width="3" />
<rect x="938" y="489.12" width="12" height="12" fill="url(#ev_hatch)" stroke="#1a1a1a" stroke-width="1.5" />
<path d="M977,483.6 L977,522" stroke="#a6a6a6" stroke-width="3" />
<path d="M1040,458 L1040,522" stroke="#a6a6a6" stroke-width="3" />
<text x="935" y="538" font-size="15" font-family="Helvetica" text-anchor="middle" font-weight="bold" fill="#1a1a1a">A</text>
<text x="953" y="538" font-size="15" font-family="Helvetica" text-anchor="middle" font-weight="bold" fill="#1a1a1a">A</text>
<text x="977" y="538" font-size="15" font-family="Helvetica" text-anchor="middle" font-weight="bold" fill="#1a1a1a">B</text>
<text x="1040" y="538" font-size="15" font-family="Helvetica" text-anchor="middle" font-weight="bold" fill="#1a1a1a">C</text>
<rect x="896" y="551" width="22" height="13" fill="none" stroke="#1a1a1a" stroke-width="0.8" />
<rect x="896" y="551" width="22" height="13" fill="#c8c8c8" />
<rect x="896" y="551" width="22" height="13" fill="none" stroke="white" stroke-width="1.0" />
<text x="926" y="560" font-size="14" font-family="Helvetica" text-anchor="start" dominant-baseline="central" font-weight="bold" fill="#1a1a1a">block 4</text>
<text x="1010" y="560" font-size="12" font-family="Helvetica" text-anchor="start" dominant-baseline="central" fill="#888">[11,12)</text>
<path d="M960.5,576 L1040,576" stroke="#c8c8c8" stroke-width="3" />
<path d="M960.5,576 L960.5,601.6" stroke="#c8c8c8" stroke-width="3" />
<path d="M944,601.6 L977,601.6" stroke="#c8c8c8" stroke-width="3" />
<path d="M944,601.6 L944,640" stroke="#c8c8c8" stroke-width="3" />
<path d="M977,601.6 L977,640" stroke="#c8c8c8" stroke-width="3" />
<path d="M1040,576 L1040,640" stroke="#c8c8c8" stroke-width="3" />
<text x="944" y="656" font-size="15" font-family="Helvetica" text-anchor="middle" font-weight="bold" fill="#1a1a1a">A</text>
<text x="977" y="656" font-size="15" font-family="Helvetica" text-anchor="middle" font-weight="bold" fill="#1a1a1a">B</text>
<text x="1040" y="656" font-size="15" font-family="Helvetica" text-anchor="middle" font-weight="bold" fill="#1a1a1a">C</text>
</svg>