<?xml version="1.0" encoding="UTF-8"?>
<svg xmlns="http://www.w3.org/2000/svg" xmlns:xlink="http://www.w3.org/1999/xlink"
     width="1040" height="560" viewBox="0 0 1040 560">
<defs>
</defs>
<rect x="0" y="0" width="1040" height="560" fill="white" />
<text x="138" y="103.0" font-size="13" font-family="Helvetica" text-anchor="end" dominant-baseline="middle" fill="#1a1a1a">start</text>
<text x="138" y="275.0" font-size="13" font-family="Helvetica" text-anchor="end" dominant-baseline="middle" fill="#1a1a1a">after inversion</text>
<text x="138" y="447.0" font-size="13" font-family="Helvetica" text-anchor="end" dominant-baseline="middle" fill="#1a1a1a">after inversion</text>
<text x="138" y="462.0" font-size="13" font-family="Helvetica" text-anchor="end" dominant-baseline="middle" fill="#1a1a1a">+ duplication</text>
<rect x="150.0" y="96" width="7.817391304347826" height="30" fill="#3c5cbe" />
<rect x="157.2173913043478" y="96" width="7.817391304347826" height="30" fill="#3b60bf" />
<rect x="164.43478260869566" y="96" width="7.817391304347826" height="30" fill="#3a64bf" />
<rect x="171.65217391304347" y="96" width="7.817391304347826" height="30" fill="#3968c0" />
<rect x="178.8695652173913" y="96" width="7.817391304347826" height="30" fill="#396cc0" />
<rect x="186.08695652173913" y="96" width="7.817391304347826" height="30" fill="#3870c1" />
<rect x="193.30434782608694" y="96" width="7.817391304347826" height="30" fill="#3774c1" />
<rect x="200.52173913043478" y="96" width="7.817391304347826" height="30" fill="#3678c2" />
<rect x="207.73913043478262" y="96" width="7.817391304347826" height="30" fill="#367cc2" />
<rect x="214.95652173913044" y="96" width="7.817391304347826" height="30" fill="#3580c3" />
<rect x="222.17391304347825" y="96" width="7.817391304347826" height="30" fill="#3484c3" />
<rect x="229.3913043478261" y="96" width="7.817391304347826" height="30" fill="#3388c4" />
<rect x="236.6086956521739" y="96" width="7.817391304347826" height="30" fill="#338cc4" />
<rect x="243.82608695652175" y="96" width="7.817391304347826" height="30" fill="#3290c5" />
<rect x="251.04347826086956" y="96" width="7.817391304347826" height="30" fill="#3194c5" />
<rect x="258.2608695652174" y="96" width="7.817391304347826" height="30" fill="#3098c6" />
<rect x="265.47826086956525" y="96" width="7.817391304347826" height="30" fill="#309cc6" />
<rect x="272.69565217391306" y="96" width="7.817391304347826" height="30" fill="#2fa0c7" />
<rect x="279.9130434782609" y="96" width="7.817391304347826" height="30" fill="#2ea4c7" />
<rect x="287.1304347826087" y="96" width="7.817391304347826" height="30" fill="#2da8c8" />
<rect x="294.3478260869565" y="96" width="7.817391304347826" height="30" fill="#2eaac6" />
<rect x="301.5652173913044" y="96" width="7.817391304347826" height="30" fill="#2fabc1" />
<rect x="308.7826086956522" y="96" width="7.817391304347826" height="30" fill="#30acbc" />
<rect x="316.0" y="96" width="7.817391304347826" height="30" fill="#32acb7" />
<rect x="323.2173913043478" y="96" width="7.817391304347826" height="30" fill="#33adb3" />
<rect x="330.4347826086956" y="96" width="7.817391304347826" height="30" fill="#34aeae" />
<rect x="337.6521739130435" y="96" width="7.817391304347826" height="30" fill="#36aea9" />
<rect x="344.8695652173913" y="96" width="7.817391304347826" height="30" fill="#37afa4" />
<rect x="352.0869565217391" y="96" width="7.817391304347826" height="30" fill="#39b09f" />
<rect x="359.304347826087" y="96" width="7.817391304347826" height="30" fill="#3ab09b" />
<rect x="366.52173913043475" y="96" width="7.817391304347826" height="30" fill="#3bb196" />
<rect x="373.7391304347826" y="96" width="7.817391304347826" height="30" fill="#3db291" />
<rect x="380.95652173913044" y="96" width="7.817391304347826" height="30" fill="#3eb38c" />
<rect x="388.17391304347825" y="96" width="7.817391304347826" height="30" fill="#3fb388" />
<rect x="395.3913043478261" y="96" width="7.817391304347826" height="30" fill="#41b483" />
<rect x="402.6086956521739" y="96" width="7.817391304347826" height="30" fill="#42b57e" />
<rect x="409.82608695652175" y="96" width="7.817391304347826" height="30" fill="#44b579" />
<rect x="417.04347826086956" y="96" width="7.817391304347826" height="30" fill="#45b674" />
<rect x="424.2608695652174" y="96" width="7.817391304347826" height="30" fill="#46b770" />
<rect x="431.4782608695652" y="96" width="7.817391304347826" height="30" fill="#48b76b" />
<rect x="438.69565217391306" y="96" width="7.817391304347826" height="30" fill="#49b866" />
<rect x="445.9130434782609" y="96" width="7.817391304347826" height="30" fill="#4ab961" />
<rect x="453.1304347826087" y="96" width="7.817391304347826" height="30" fill="#4fba5e" />
<rect x="460.3478260869565" y="96" width="7.817391304347826" height="30" fill="#58bb5c" />
<rect x="467.5652173913044" y="96" width="7.817391304347826" height="30" fill="#60bc5a" />
<rect x="474.7826086956522" y="96" width="7.817391304347826" height="30" fill="#69bd58" />
<rect x="482.0" y="96" width="7.817391304347826" height="30" fill="#71bf56" />
<rect x="489.2173913043478" y="96" width="7.817391304347826" height="30" fill="#7ac054" />
<rect x="496.4347826086956" y="96" width="7.817391304347826" height="30" fill="#82c152" />
<rect x="503.6521739130435" y="96" width="7.817391304347826" height="30" fill="#8bc350" />
<rect x="510.8695652173913" y="96" width="7.817391304347826" height="30" fill="#93c44e" />
<rect x="518.0869565217391" y="96" width="7.817391304347826" height="30" fill="#9cc54d" />
<rect x="525.304347826087" y="96" width="7.817391304347826" height="30" fill="#a4c64b" />
<rect x="532.5217391304348" y="96" width="7.817391304347826" height="30" fill="#adc849" />
<rect x="539.7391304347826" y="96" width="7.817391304347826" height="30" fill="#b5c947" />
<rect x="546.9565217391305" y="96" width="7.817391304347826" height="30" fill="#beca45" />
<rect x="554.1739130434783" y="96" width="7.817391304347826" height="30" fill="#c6cc43" />
<rect x="561.391304347826" y="96" width="7.817391304347826" height="30" fill="#cfcd41" />
<rect x="568.608695652174" y="96" width="7.817391304347826" height="30" fill="#d7ce3f" />
<rect x="575.8260869565217" y="96" width="7.817391304347826" height="30" fill="#e0cf3d" />
<rect x="583.0434782608695" y="96" width="7.817391304347826" height="30" fill="#e4ce3c" />
<rect x="590.2608695652174" y="96" width="7.817391304347826" height="30" fill="#e5cb3b" />
<rect x="597.4782608695652" y="96" width="7.817391304347826" height="30" fill="#e5c73a" />
<rect x="604.695652173913" y="96" width="7.817391304347826" height="30" fill="#e6c439" />
<rect x="611.9130434782609" y="96" width="7.817391304347826" height="30" fill="#e6c038" />
<rect x="619.1304347826087" y="96" width="7.817391304347826" height="30" fill="#e7bd37" />
<rect x="626.3478260869565" y="96" width="7.817391304347826" height="30" fill="#e8ba37" />
<rect x="633.5652173913044" y="96" width="7.817391304347826" height="30" fill="#e8b636" />
<rect x="640.7826086956522" y="96" width="7.817391304347826" height="30" fill="#e9b335" />
<rect x="648.0" y="96" width="7.817391304347826" height="30" fill="#e9af34" />
<rect x="655.2173913043478" y="96" width="7.817391304347826" height="30" fill="#eaac33" />
<rect x="662.4347826086956" y="96" width="7.817391304347826" height="30" fill="#eaa832" />
<rect x="669.6521739130435" y="96" width="7.817391304347826" height="30" fill="#eba532" />
<rect x="676.8695652173913" y="96" width="7.817391304347826" height="30" fill="#eca231" />
<rect x="684.0869565217391" y="96" width="7.817391304347826" height="30" fill="#ec9e30" />
<rect x="691.304347826087" y="96" width="7.817391304347826" height="30" fill="#ed9b2f" />
<rect x="698.5217391304348" y="96" width="7.817391304347826" height="30" fill="#ed972e" />
<rect x="705.7391304347826" y="96" width="7.817391304347826" height="30" fill="#ee942d" />
<rect x="712.9565217391304" y="96" width="7.817391304347826" height="30" fill="#ed902d" />
<rect x="720.1739130434783" y="96" width="7.817391304347826" height="30" fill="#ec8c2e" />
<rect x="727.3913043478261" y="96" width="7.817391304347826" height="30" fill="#eb882e" />
<rect x="734.6086956521739" y="96" width="7.817391304347826" height="30" fill="#ea842f" />
<rect x="741.8260869565217" y="96" width="7.817391304347826" height="30" fill="#e87f2f" />
<rect x="749.0434782608696" y="96" width="7.817391304347826" height="30" fill="#e77b30" />
<rect x="756.2608695652174" y="96" width="7.817391304347826" height="30" fill="#e67730" />
<rect x="763.4782608695652" y="96" width="7.817391304347826" height="30" fill="#e47330" />
<rect x="770.695652173913" y="96" width="7.817391304347826" height="30" fill="#e36f31" />
<rect x="777.9130434782609" y="96" width="7.817391304347826" height="30" fill="#e26b31" />
<rect x="785.1304347826087" y="96" width="7.817391304347826" height="30" fill="#e16732" />
<rect x="792.3478260869565" y="96" width="7.817391304347826" height="30" fill="#df6232" />
<rect x="799.5652173913044" y="96" width="7.817391304347826" height="30" fill="#de5e33" />
<rect x="806.7826086956521" y="96" width="7.817391304347826" height="30" fill="#dd5a33" />
<rect x="814.0" y="96" width="7.817391304347826" height="30" fill="#dc5634" />
<rect x="821.2173913043479" y="96" width="7.817391304347826" height="30" fill="#da5234" />
<rect x="828.4347826086956" y="96" width="7.817391304347826" height="30" fill="#d94e34" />
<rect x="835.6521739130435" y="96" width="7.817391304347826" height="30" fill="#d84a35" />
<rect x="842.8695652173913" y="96" width="7.817391304347826" height="30" fill="#d64535" />
<rect x="850.0869565217391" y="96" width="7.817391304347826" height="30" fill="#d54136" />
<rect x="857.304347826087" y="96" width="7.817391304347826" height="30" fill="#d43d36" />
<rect x="864.5217391304348" y="96" width="7.817391304347826" height="30" fill="#d33937" />
<rect x="150" y="96" width="721.7391304347826" height="30" fill="none" stroke="#1a1a1a" stroke-width="1.4" />
<rect x="366.52173913043475" y="93.5" width="180.43478260869566" height="35" fill="none" stroke="#1a1a1a" stroke-width="2.4" />
<path d="M542.9565217391305,90 C542.9565217391305,74,370.52173913043475,74,370.52173913043475,90" fill="none" stroke="#1a1a1a" stroke-width="2.2" />
<path d="M370.52173913043475,90 L379.52173913043475,82 L380.52173913043475,93 Z" fill="#1a1a1a" />
<rect x="150.0" y="268" width="7.817391304347826" height="30" fill="#3c5cbe" />
<rect x="157.2173913043478" y="268" width="7.817391304347826" height="30" fill="#3b60bf" />
<rect x="164.43478260869566" y="268" width="7.817391304347826" height="30" fill="#3a64bf" />
<rect x="171.65217391304347" y="268" width="7.817391304347826" height="30" fill="#3968c0" />
<rect x="178.8695652173913" y="268" width="7.817391304347826" height="30" fill="#396cc0" />
<rect x="186.08695652173913" y="268" width="7.817391304347826" height="30" fill="#3870c1" />
<rect x="193.30434782608694" y="268" width="7.817391304347826" height="30" fill="#3774c1" />
<rect x="200.52173913043478" y="268" width="7.817391304347826" height="30" fill="#3678c2" />
<rect x="207.73913043478262" y="268" width="7.817391304347826" height="30" fill="#367cc2" />
<rect x="214.95652173913044" y="268" width="7.817391304347826" height="30" fill="#3580c3" />
<rect x="222.17391304347825" y="268" width="7.817391304347826" height="30" fill="#3484c3" />
<rect x="229.3913043478261" y="268" width="7.817391304347826" height="30" fill="#3388c4" />
<rect x="236.6086956521739" y="268" width="7.817391304347826" height="30" fill="#338cc4" />
<rect x="243.82608695652175" y="268" width="7.817391304347826" height="30" fill="#3290c5" />
<rect x="251.04347826086956" y="268" width="7.817391304347826" height="30" fill="#3194c5" />
<rect x="258.2608695652174" y="268" width="7.817391304347826" height="30" fill="#3098c6" />
<rect x="265.47826086956525" y="268" width="7.817391304347826" height="30" fill="#309cc6" />
<rect x="272.69565217391306" y="268" width="7.817391304347826" height="30" fill="#2fa0c7" />
<rect x="279.9130434782609" y="268" width="7.817391304347826" height="30" fill="#2ea4c7" />
<rect x="287.1304347826087" y="268" width="7.817391304347826" height="30" fill="#2da8c8" />
<rect x="294.3478260869565" y="268" width="7.817391304347826" height="30" fill="#2eaac6" />
<rect x="301.5652173913044" y="268" width="7.817391304347826" height="30" fill="#2fabc1" />
<rect x="308.7826086956522" y="268" width="7.817391304347826" height="30" fill="#30acbc" />
<rect x="316.0" y="268" width="7.817391304347826" height="30" fill="#32acb7" />
<rect x="323.2173913043478" y="268" width="7.817391304347826" height="30" fill="#33adb3" />
<rect x="330.4347826086956" y="268" width="7.817391304347826" height="30" fill="#34aeae" />
<rect x="337.6521739130435" y="268" width="7.817391304347826" height="30" fill="#36aea9" />
<rect x="344.8695652173913" y="268" width="7.817391304347826" height="30" fill="#37afa4" />
<rect x="352.0869565217391" y="268" width="7.817391304347826" height="30" fill="#39b09f" />
<rect x="359.304347826087" y="268" width="7.817391304347826" height="30" fill="#3ab09b" />
<rect x="366.52173913043475" y="268" width="7.817391304347826" height="30" fill="#b5c947" />
<rect x="373.7391304347826" y="268" width="7.817391304347826" height="30" fill="#adc849" />
<rect x="380.95652173913044" y="268" width="7.817391304347826" height="30" fill="#a4c64b" />
<rect x="388.17391304347825" y="268" width="7.817391304347826" height="30" fill="#9cc54d" />
<rect x="395.3913043478261" y="268" width="7.817391304347826" height="30" fill="#93c44e" />
<rect x="402.6086956521739" y="268" width="7.817391304347826" height="30" fill="#8bc350" />
<rect x="409.82608695652175" y="268" width="7.817391304347826" height="30" fill="#82c152" />
<rect x="417.04347826086956" y="268" width="7.817391304347826" height="30" fill="#7ac054" />
<rect x="424.2608695652174" y="268" width="7.817391304347826" height="30" fill="#71bf56" />
<rect x="431.4782608695652" y="268" width="7.817391304347826" height="30" fill="#69bd58" />
<rect x="438.69565217391306" y="268" width="7.817391304347826" height="30" fill="#60bc5a" />
<rect x="445.9130434782609" y="268" width="7.817391304347826" height="30" fill="#58bb5c" />
<rect x="453.1304347826087" y="268" width="7.817391304347826" height="30" fill="#4fba5e" />
<rect x="460.3478260869565" y="268" width="7.817391304347826" height="30" fill="#4ab961" />
<rect x="467.5652173913044" y="268" width="7.817391304347826" height="30" fill="#49b866" />
<rect x="474.7826086956522" y="268" width="7.817391304347826" height="30" fill="#48b76b" />
<rect x="482.0" y="268" width="7.817391304347826" height="30" fill="#46b770" />
<rect x="489.2173913043478" y="268" width="7.817391304347826" height="30" fill="#45b674" />
<rect x="496.4347826086956" y="268" width="7.817391304347826" height="30" fill="#44b579" />
<rect x="503.6521739130435" y="268" width="7.817391304347826" height="30" fill="#42b57e" />
<rect x="510.8695652173913" y="268" width="7.817391304347826" height="30" fill="#41b483" />
<rect x="518.0869565217391" y="268" width="7.817391304347826" height="30" fill="#3fb388" />
<rect x="525.304347826087" y="268" width="7.817391304347826" height="30" fill="#3eb38c" />
<rect x="532.5217391304348" y="268" width="7.817391304347826" height="30" fill="#3db291" />
<rect x="539.7391304347826" y="268" width="7.817391304347826" height="30" fill="#3bb196" />
<rect x="546.9565217391305" y="268" width="7.817391304347826" height="30" fill="#beca45" />
<rect x="554.1739130434783" y="268" width="7.817391304347826" height="30" fill="#c6cc43" />
<rect x="561.391304347826" y="268" width="7.817391304347826" height="30" fill="#cfcd41" />
<rect x="568.608695652174" y="268" width="7.817391304347826" height="30" fill="#d7ce3f" />
<rect x="575.8260869565217" y="268" width="7.817391304347826" height="30" fill="#e0cf3d" />
<rect x="583.0434782608695" y="268" width="7.817391304347826" height="30" fill="#e4ce3c" />
<rect x="590.2608695652174" y="268" width="7.817391304347826" height="30" fill="#e5cb3b" />
<rect x="597.4782608695652" y="268" width="7.817391304347826" height="30" fill="#e5c73a" />
<rect x="604.695652173913" y="268" width="7.817391304347826" height="30" fill="#e6c439" />
<rect x="611.9130434782609" y="268" width="7.817391304347826" height="30" fill="#e6c038" />
<rect x="619.1304347826087" y="268" width="7.817391304347826" height="30" fill="#e7bd37" />
<rect x="626.3478260869565" y="268" width="7.817391304347826" height="30" fill="#e8ba37" />
<rect x="633.5652173913044" y="268" width="7.817391304347826" height="30" fill="#e8b636" />
<rect x="640.7826086956522" y="268" width="7.817391304347826" height="30" fill="#e9b335" />
<rect x="648.0" y="268" width="7.817391304347826" height="30" fill="#e9af34" />
<rect x="655.2173913043478" y="268" width="7.817391304347826" height="30" fill="#eaac33" />
<rect x="662.4347826086956" y="268" width="7.817391304347826" height="30" fill="#eaa832" />
<rect x="669.6521739130435" y="268" width="7.817391304347826" height="30" fill="#eba532" />
<rect x="676.8695652173913" y="268" width="7.817391304347826" height="30" fill="#eca231" />
<rect x="684.0869565217391" y="268" width="7.817391304347826" height="30" fill="#ec9e30" />
<rect x="691.304347826087" y="268" width="7.817391304347826" height="30" fill="#ed9b2f" />
<rect x="698.5217391304348" y="268" width="7.817391304347826" height="30" fill="#ed972e" />
<rect x="705.7391304347826" y="268" width="7.817391304347826" height="30" fill="#ee942d" />
<rect x="712.9565217391304" y="268" width="7.817391304347826" height="30" fill="#ed902d" />
<rect x="720.1739130434783" y="268" width="7.817391304347826" height="30" fill="#ec8c2e" />
<rect x="727.3913043478261" y="268" width="7.817391304347826" height="30" fill="#eb882e" />
<rect x="734.6086956521739" y="268" width="7.817391304347826" height="30" fill="#ea842f" />
<rect x="741.8260869565217" y="268" width="7.817391304347826" height="30" fill="#e87f2f" />
<rect x="749.0434782608696" y="268" width="7.817391304347826" height="30" fill="#e77b30" />
<rect x="756.2608695652174" y="268" width="7.817391304347826" height="30" fill="#e67730" />
<rect x="763.4782608695652" y="268" width="7.817391304347826" height="30" fill="#e47330" />
<rect x="770.695652173913" y="268" width="7.817391304347826" height="30" fill="#e36f31" />
<rect x="777.9130434782609" y="268" width="7.817391304347826" height="30" fill="#e26b31" />
<rect x="785.1304347826087" y="268" width="7.817391304347826" height="30" fill="#e16732" />
<rect x="792.3478260869565" y="268" width="7.817391304347826" height="30" fill="#df6232" />
<rect x="799.5652173913044" y="268" width="7.817391304347826" height="30" fill="#de5e33" />
<rect x="806.7826086956521" y="268" width="7.817391304347826" height="30" fill="#dd5a33" />
<rect x="814.0" y="268" width="7.817391304347826" height="30" fill="#dc5634" />
<rect x="821.2173913043479" y="268" width="7.817391304347826" height="30" fill="#da5234" />
<rect x="828.4347826086956" y="268" width="7.817391304347826" height="30" fill="#d94e34" />
<rect x="835.6521739130435" y="268" width="7.817391304347826" height="30" fill="#d84a35" />
<rect x="842.8695652173913" y="268" width="7.817391304347826" height="30" fill="#d64535" />
<rect x="850.0869565217391" y="268" width="7.817391304347826" height="30" fill="#d54136" />
<rect x="857.304347826087" y="268" width="7.817391304347826" height="30" fill="#d43d36" />
<rect x="864.5217391304348" y="268" width="7.817391304347826" height="30" fill="#d33937" />
<rect x="150" y="268" width="721.7391304347826" height="30" fill="none" stroke="#1a1a1a" stroke-width="1.4" />
<rect x="366.52173913043475" y="265.5" width="180.43478260869566" height="35" fill="none" stroke="#1a1a1a" stroke-width="2.4" />
<rect x="222.17391304347825" y="265.5" width="108.26086956521739" height="35" fill="none" stroke="#1a1a1a" stroke-width="2.4" />
<rect x="150.0" y="440" width="7.817391304347826" height="30" fill="#3c5cbe" />
<rect x="157.2173913043478" y="440" width="7.817391304347826" height="30" fill="#3b60bf" />
<rect x="164.43478260869566" y="440" width="7.817391304347826" height="30" fill="#3a64bf" />
<rect x="171.65217391304347" y="440" width="7.817391304347826" height="30" fill="#3968c0" />
<rect x="178.8695652173913" y="440" width="7.817391304347826" height="30" fill="#396cc0" />
<rect x="186.08695652173913" y="440" width="7.817391304347826" height="30" fill="#3870c1" />
<rect x="193.30434782608694" y="440" width="7.817391304347826" height="30" fill="#3774c1" />
<rect x="200.52173913043478" y="440" width="7.817391304347826" height="30" fill="#3678c2" />
<rect x="207.73913043478262" y="440" width="7.817391304347826" height="30" fill="#367cc2" />
<rect x="214.95652173913044" y="440" width="7.817391304347826" height="30" fill="#3580c3" />
<rect x="222.17391304347825" y="440" width="7.817391304347826" height="30" fill="#3484c3" />
<rect x="229.3913043478261" y="440" width="7.817391304347826" height="30" fill="#3388c4" />
<rect x="236.6086956521739" y="440" width="7.817391304347826" height="30" fill="#338cc4" />
<rect x="243.82608695652175" y="440" width="7.817391304347826" height="30" fill="#3290c5" />
<rect x="251.04347826086956" y="440" width="7.817391304347826" height="30" fill="#3194c5" />
<rect x="258.2608695652174" y="440" width="7.817391304347826" height="30" fill="#3098c6" />
<rect x="265.47826086956525" y="440" width="7.817391304347826" height="30" fill="#309cc6" />
<rect x="272.69565217391306" y="440" width="7.817391304347826" height="30" fill="#2fa0c7" />
<rect x="279.9130434782609" y="440" width="7.817391304347826" height="30" fill="#2ea4c7" />
<rect x="287.1304347826087" y="440" width="7.817391304347826" height="30" fill="#2da8c8" />
<rect x="294.3478260869565" y="440" width="7.817391304347826" height="30" fill="#2eaac6" />
<rect x="301.5652173913044" y="440" width="7.817391304347826" height="30" fill="#2fabc1" />
<rect x="308.7826086956522" y="440" width="7.817391304347826" height="30" fill="#30acbc" />
<rect x="316.0" y="440" width="7.817391304347826" height="30" fill="#32acb7" />
<rect x="323.2173913043478" y="440" width="7.817391304347826" height="30" fill="#33adb3" />
<rect x="330.4347826086956" y="440" width="7.817391304347826" height="30" fill="#3484c3" />
<rect x="337.6521739130435" y="440" width="7.817391304347826" height="30" fill="#3388c4" />
<rect x="344.8695652173913" y="440" width="7.817391304347826" height="30" fill="#338cc4" />
<rect x="352.0869565217391" y="440" width="7.817391304347826" height="30" fill="#3290c5" />
<rect x="359.304347826087" y="440" width="7.817391304347826" height="30" fill="#3194c5" />
<rect x="366.52173913043475" y="440" width="7.817391304347826" height="30" fill="#3098c6" />
<rect x="373.7391304347826" y="440" width="7.817391304347826" height="30" fill="#309cc6" />
<rect x="380.95652173913044" y="440" width="7.817391304347826" height="30" fill="#2fa0c7" />
<rect x="388.17391304347825" y="440" width="7.817391304347826" height="30" fill="#2ea4c7" />
<rect x="395.3913043478261" y="440" width="7.817391304347826" height="30" fill="#2da8c8" />
<rect x="402.6086956521739" y="440" width="7.817391304347826" height="30" fill="#2eaac6" />
<rect x="409.82608695652175" y="440" width="7.817391304347826" height="30" fill="#2fabc1" />
<rect x="417.04347826086956" y="440" width="7.817391304347826" height="30" fill="#30acbc" />
<rect x="424.2608695652174" y="440" width="7.817391304347826" height="30" fill="#32acb7" />
<rect x="431.4782608695652" y="440" width="7.817391304347826" height="30" fill="#33adb3" />
<rect x="438.69565217391306" y="440" width="7.817391304347826" height="30" fill="#34aeae" />
<rect x="445.9130434782609" y="440" width="7.817391304347826" height="30" fill="#36aea9" />
<rect x="453.1304347826087" y="440" width="7.817391304347826" height="30" fill="#37afa4" />
<rect x="460.3478260869565" y="440" width="7.817391304347826" height="30" fill="#39b09f" />
<rect x="467.5652173913044" y="440" width="7.817391304347826" height="30" fill="#3ab09b" />
<rect x="474.7826086956522" y="440" width="7.817391304347826" height="30" fill="#b5c947" />
<rect x="482.0" y="440" width="7.817391304347826" height="30" fill="#adc849" />
<rect x="489.2173913043478" y="440" width="7.817391304347826" height="30" fill="#a4c64b" />
<rect x="496.4347826086956" y="440" width="7.817391304347826" height="30" fill="#9cc54d" />
<rect x="503.6521739130435" y="440" width="7.817391304347826" height="30" fill="#93c44e" />
<rect x="510.8695652173913" y="440" width="7.817391304347826" height="30" fill="#8bc350" />
<rect x="518.0869565217391" y="440" width="7.817391304347826" height="30" fill="#82c152" />
<rect x="525.304347826087" y="440" width="7.817391304347826" height="30" fill="#7ac054" />
<rect x="532.5217391304348" y="440" width="7.817391304347826" height="30" fill="#71bf56" />
<rect x="539.7391304347826" y="440" width="7.817391304347826" height="30" fill="#69bd58" />
<rect x="546.9565217391305" y="440" width="7.817391304347826" height="30" fill="#60bc5a" />
<rect x="554.1739130434783" y="440" width="7.817391304347826" height="30" fill="#58bb5c" />
<rect x="561.391304347826" y="440" width="7.817391304347826" height="30" fill="#4fba5e" />
<rect x="568.608695652174" y="440" width="7.817391304347826" height="30" fill="#4ab961" />
<rect x="575.8260869565217" y="440" width="7.817391304347826" height="30" fill="#49b866" />
<rect x="583.0434782608695" y="440" width="7.817391304347826" height="30" fill="#48b76b" />
<rect x="590.2608695652174" y="440" width="7.817391304347826" height="30" fill="#46b770" />
<rect x="597.4782608695652" y="440" width="7.817391304347826" height="30" fill="#45b674" />
<rect x="604.695652173913" y="440" width="7.817391304347826" height="30" fill="#44b579" />
<rect x="611.9130434782609" y="440" width="7.817391304347826" height="30" fill="#42b57e" />
<rect x="619.1304347826087" y="440" width="7.817391304347826" height="30" fill="#41b483" />
<rect x="626.3478260869565" y="440" width="7.817391304347826" height="30" fill="#3fb388" />
<rect x="633.5652173913044" y="440" width="7.817391304347826" height="30" fill="#3eb38c" />
<rect x="640.7826086956522" y="440" width="7.817391304347826" height="30" fill="#3db291" />
<rect x="648.0" y="440" width="7.817391304347826" height="30" fill="#3bb196" />
<rect x="655.2173913043478" y="440" width="7.817391304347826" height="30" fill="#beca45" />
<rect x="662.4347826086956" y="440" width="7.817391304347826" height="30" fill="#c6cc43" />
<rect x="669.6521739130435" y="440" width="7.817391304347826" height="30" fill="#cfcd41" />
<rect x="676.8695652173913" y="440" width="7.817391304347826" height="30" fill="#d7ce3f" />
<rect x="684.0869565217391" y="440" width="7.817391304347826" height="30" fill="#e0cf3d" />
<rect x="691.304347826087" y="440" width="7.817391304347826" height="30" fill="#e4ce3c" />
<rect x="698.5217391304348" y="440" width="7.817391304347826" height="30" fill="#e5cb3b" />
<rect x="705.7391304347826" y="440" width="7.817391304347826" height="30" fill="#e5c73a" />
<rect x="712.9565217391304" y="440" width="7.817391304347826" height="30" fill="#e6c439" />
<rect x="720.1739130434783" y="440" width="7.817391304347826" height="30" fill="#e6c038" />
<rect x="727.3913043478261" y="440" width="7.817391304347826" height="30" fill="#e7bd37" />
<rect x="734.6086956521739" y="440" width="7.817391304347826" height="30" fill="#e8ba37" />
<rect x="741.8260869565217" y="440" width="7.817391304347826" height="30" fill="#e8b636" />
<rect x="749.0434782608696" y="440" width="7.817391304347826" height="30" fill="#e9b335" />
<rect x="756.2608695652174" y="440" width="7.817391304347826" height="30" fill="#e9af34" />
<rect x="763.4782608695652" y="440" width="7.817391304347826" height="30" fill="#eaac33" />
<rect x="770.695652173913" y="440" width="7.817391304347826" height="30" fill="#eaa832" />
<rect x="777.9130434782609" y="440" width="7.817391304347826" height="30" fill="#eba532" />
<rect x="785.1304347826087" y="440" width="7.817391304347826" height="30" fill="#eca231" />
<rect x="792.3478260869565" y="440" width="7.817391304347826" height="30" fill="#ec9e30" />
<rect x="799.5652173913044" y="440" width="7.817391304347826" height="30" fill="#ed9b2f" />
<rect x="806.7826086956521" y="440" width="7.817391304347826" height="30" fill="#ed972e" />
<rect x="814.0" y="440" width="7.817391304347826" height="30" fill="#ee942d" />
<rect x="821.2173913043479" y="440" width="7.817391304347826" height="30" fill="#ed902d" />
<rect x="828.4347826086956" y="440" width="7.817391304347826" height="30" fill="#ec8c2e" />
<rect x="835.6521739130435" y="440" width="7.817391304347826" height="30" fill="#eb882e" />
<rect x="842.8695652173913" y="440" width="7.817391304347826" height="30" fill="#ea842f" />
<rect x="850.0869565217391" y="440" width="7.817391304347826" height="30" fill="#e87f2f" />
<rect x="857.304347826087" y="440" width="7.817391304347826" height="30" fill="#e77b30" />
<rect x="864.5217391304348" y="440" width="7.817391304347826" height="30" fill="#e67730" />
<rect x="871.7391304347826" y="440" width="7.817391304347826" height="30" fill="#e47330" />
<rect x="878.9565217391304" y="440" width="7.817391304347826" height="30" fill="#e36f31" />
<rect x="886.1739130434783" y="440" width="7.817391304347826" height="30" fill="#e26b31" />
<rect x="893.3913043478261" y="440" width="7.817391304347826" height="30" fill="#e16732" />
<rect x="900.6086956521739" y="440" width="7.817391304347826" height="30" fill="#df6232" />
<rect x="907.8260869565217" y="440" width="7.817391304347826" height="30" fill="#de5e33" />
<rect x="915.0434782608696" y="440" width="7.817391304347826" height="30" fill="#dd5a33" />
<rect x="922.2608695652174" y="440" width="7.817391304347826" height="30" fill="#dc5634" />
<rect x="929.4782608695652" y="440" width="7.817391304347826" height="30" fill="#da5234" />
<rect x="936.695652173913" y="440" width="7.817391304347826" height="30" fill="#d94e34" />
<rect x="943.9130434782609" y="440" width="7.817391304347826" height="30" fill="#d84a35" />
<rect x="951.1304347826087" y="440" width="7.817391304347826" height="30" fill="#d64535" />
<rect x="958.3478260869565" y="440" width="7.817391304347826" height="30" fill="#d54136" />
<rect x="965.5652173913044" y="440" width="7.817391304347826" height="30" fill="#d43d36" />
<rect x="972.7826086956521" y="440" width="7.817391304347826" height="30" fill="#d33937" />
<rect x="150" y="440" width="830.0" height="30" fill="none" stroke="#1a1a1a" stroke-width="1.4" />
<rect x="222.17391304347825" y="437.5" width="108.26086956521739" height="35" fill="none" stroke="#1a1a1a" stroke-width="2.4" />
<rect x="330.4347826086956" y="437.5" width="108.26086956521739" height="35" fill="none" stroke="#1a1a1a" stroke-width="2.4" />
<path d="M456.7391304347826,132 L456.7391304347826,253" stroke="#1a1a1a" stroke-width="2.4" />
<path d="M456.7391304347826,262 L450.7391304347826,252 L462.7391304347826,252 Z" fill="#1a1a1a" />
<text x="472.7391304347826" y="197.0" font-size="17" font-family="Helvetica" text-anchor="start" dominant-baseline="middle" font-weight="bold" fill="#1a1a1a">Inversion</text>
<path d="M276.30434782608694,304 L276.30434782608694,425" stroke="#1a1a1a" stroke-width="2.4" />
<path d="M276.30434782608694,434 L270.30434782608694,424 L282.30434782608694,424 Z" fill="#1a1a1a" />
<text x="292.30434782608694" y="369.0" font-size="17" font-family="Helvetica" text-anchor="start" dominant-baseline="middle" font-weight="bold" fill="#1a1a1a">Duplication</text>
<text x="110" y="36" font-size="16" font-family="Helvetica" text-anchor="start" font-weight="bold" fill="#1a1a1a">Nucleotide-level events  (100-base genome, drawn linearly)</text>
<text x="110" y="540" font-size="13" font-family="Helvetica" text-anchor="start" fill="#555">bars painted by ancestral position:  inversion = reversed gradient + flipped strand;  duplication = repeated colours, longer genome</text>
</svg>