<?xml version="1.0" encoding="UTF-8"?>
<svg xmlns="http://www.w3.org/2000/svg" xmlns:xlink="http://www.w3.org/1999/xlink"
     width="1120" height="640" viewBox="0 0 1120 640">
<defs>
</defs>
<rect x="0" y="0" width="1120" height="640" fill="white" />
<text x="560.0" y="52" font-size="32" font-family="Helvetica" text-anchor="middle" font-weight="bold" fill="#1a1a1a">Blind gain, selective retention</text>
<text x="560.0" y="92" font-size="22" font-family="Helvetica" text-anchor="middle" fill="#8a8a8a">gain is field-blind HGT; the coupling acts on whether the new gene is kept</text>
<rect x="300" y="220" width="62" height="62" fill="#4477AA" stroke="#1a1a1a" stroke-width="2.0" />
<text x="331.0" y="308" font-size="22" font-family="Helvetica" text-anchor="middle" fill="#1a1a1a">1</text>
<rect x="388" y="220" width="62" height="62" fill="#4477AA" stroke="#1a1a1a" stroke-width="2.0" />
<text x="419.0" y="308" font-size="22" font-family="Helvetica" text-anchor="middle" fill="#1a1a1a">2</text>
<rect x="476" y="220" width="62" height="62" fill="#4477AA" stroke="#1a1a1a" stroke-width="2.0" />
<text x="507.0" y="308" font-size="22" font-family="Helvetica" text-anchor="middle" fill="#1a1a1a">3</text>
<path d="M419.0,168 L419.0,210" stroke="#1a1a1a" stroke-width="3" />
<path d="M419.0,214 L410.0,200 L428.0,200 Z" fill="#1a1a1a" />
<text x="441.0" y="186" font-size="22" font-family="Helvetica" text-anchor="start" fill="#8a8a8a">HGT</text>
<path d="M602,253.0 L610,263.0 L625,241.0" fill="none" stroke="#2f8f4e" stroke-width="5" stroke-linecap="round" stroke-linejoin="round" />
<text x="636" y="251.0" font-size="22" font-family="Helvetica" text-anchor="start" dominant-baseline="central" font-weight="bold" fill="#2f8f4e">kept</text>
<text x="300" y="342" font-size="22" font-family="Helvetica" text-anchor="start" fill="#8a8a8a">module complete (partners 1, 3 present): large field, gene 2 is retained</text>
<rect x="300" y="420" width="62" height="62" fill="white" stroke="#bfc6cf" stroke-width="2.0" />
<text x="331.0" y="508" font-size="22" font-family="Helvetica" text-anchor="middle" fill="#1a1a1a">1</text>
<rect x="388" y="420" width="62" height="62" fill="#4477AA" fill-opacity="0.28" stroke="#bfc6cf" stroke-width="2.0" stroke-dasharray="6,4" />
<text x="419.0" y="508" font-size="22" font-family="Helvetica" text-anchor="middle" fill="#1a1a1a">2</text>
<rect x="476" y="420" width="62" height="62" fill="white" stroke="#bfc6cf" stroke-width="2.0" />
<text x="507.0" y="508" font-size="22" font-family="Helvetica" text-anchor="middle" fill="#1a1a1a">3</text>
<path d="M419.0,368 L419.0,410" stroke="#1a1a1a" stroke-width="3" />
<path d="M419.0,414 L410.0,400 L428.0,400 Z" fill="#1a1a1a" />
<text x="441.0" y="386" font-size="22" font-family="Helvetica" text-anchor="start" fill="#8a8a8a">HGT</text>
<path d="M603,442.0 L621,460.0" stroke="#cc4b3c" stroke-width="5" stroke-linecap="round" />
<path d="M603,460.0 L621,442.0" stroke="#cc4b3c" stroke-width="5" stroke-linecap="round" />
<text x="636" y="451.0" font-size="22" font-family="Helvetica" text-anchor="start" dominant-baseline="central" font-weight="bold" fill="#cc4b3c">purged</text>
<text x="300" y="542" font-size="22" font-family="Helvetica" text-anchor="start" fill="#8a8a8a">module incomplete (partners 1, 3 absent): no field, gene 2 is lost fast</text>
<text x="560.0" y="588" font-size="22" font-family="Helvetica" text-anchor="middle" fill="#8a8a8a">differential retention of transferred genes writes the coupling J into the profiles</text>
</svg>