<?xml version="1.0" encoding="UTF-8"?>
<svg xmlns="http://www.w3.org/2000/svg" xmlns:xlink="http://www.w3.org/1999/xlink"
     width="1420" height="940" viewBox="0 0 1420 940">
<defs>
</defs>
<rect x="0" y="0" width="1420" height="940" fill="white" />
<text x="710.0" y="48" font-size="32" font-family="Helvetica" text-anchor="middle" font-weight="bold" fill="#1a1a1a">How rates work: how many clocks, how fast</text>
<text x="710.0" y="84" font-size="22" font-family="Helvetica" text-anchor="middle" font-style="italic" fill="#555">the opportunity -- how many clocks -- is what makes growth exponential or linear</text>
<text x="280.0" y="130" font-size="22" font-family="Helvetica" text-anchor="middle" font-weight="bold" fill="#1a1a1a">per lineage</text>
<path d="M228.0,246 L228.0,296" stroke="#1a1a1a" stroke-width="3" stroke-linecap="round" />
<circle cx="228.0" cy="214" r="18" fill="white" stroke="#1a1a1a" stroke-width="2.2" />
<path d="M228.0,214 L228.0,201.76" stroke="#1a1a1a" stroke-width="2.2" stroke-linecap="round" />
<path d="M228.0,214 L237.36,214" stroke="#1a1a1a" stroke-width="2.2" stroke-linecap="round" />
<circle cx="228.0" cy="214" r="1.7" fill="#1a1a1a" />
<path d="M280.0,246 L280.0,296" stroke="#1a1a1a" stroke-width="3" stroke-linecap="round" />
<circle cx="280.0" cy="214" r="18" fill="white" stroke="#1a1a1a" stroke-width="2.2" />
<path d="M280.0,214 L280.0,201.76" stroke="#1a1a1a" stroke-width="2.2" stroke-linecap="round" />
<path d="M280.0,214 L289.36,214" stroke="#1a1a1a" stroke-width="2.2" stroke-linecap="round" />
<circle cx="280.0" cy="214" r="1.7" fill="#1a1a1a" />
<path d="M332.0,246 L332.0,296" stroke="#1a1a1a" stroke-width="3" stroke-linecap="round" />
<circle cx="332.0" cy="214" r="18" fill="white" stroke="#1a1a1a" stroke-width="2.2" />
<path d="M332.0,214 L332.0,201.76" stroke="#1a1a1a" stroke-width="2.2" stroke-linecap="round" />
<path d="M332.0,214 L341.36,214" stroke="#1a1a1a" stroke-width="2.2" stroke-linecap="round" />
<circle cx="332.0" cy="214" r="1.7" fill="#1a1a1a" />
<text x="280.0" y="328" font-size="22" font-family="Helvetica" text-anchor="middle" fill="#555">one clock on each lineage</text>
<text x="280.0" y="356" font-size="22" font-family="Helvetica" text-anchor="middle" fill="#555">count tracks the tree</text>
<text x="710.0" y="130" font-size="22" font-family="Helvetica" text-anchor="middle" font-weight="bold" fill="#1a1a1a">per copy</text>
<rect x="618.0" y="244" width="184" height="54" rx="10" fill="none" stroke="#8a8a8a" stroke-width="2" />
<rect x="638.0" y="256" width="32" height="30" rx="4" fill="#eee" stroke="#1a1a1a" stroke-width="1.6" />
<circle cx="654.0" cy="214" r="18" fill="white" stroke="#1a1a1a" stroke-width="2.2" />
<path d="M654.0,214 L654.0,201.76" stroke="#1a1a1a" stroke-width="2.2" stroke-linecap="round" />
<path d="M654.0,214 L663.36,214" stroke="#1a1a1a" stroke-width="2.2" stroke-linecap="round" />
<circle cx="654.0" cy="214" r="1.7" fill="#1a1a1a" />
<rect x="694.0" y="256" width="32" height="30" rx="4" fill="#eee" stroke="#1a1a1a" stroke-width="1.6" />
<circle cx="710.0" cy="214" r="18" fill="white" stroke="#1a1a1a" stroke-width="2.2" />
<path d="M710.0,214 L710.0,201.76" stroke="#1a1a1a" stroke-width="2.2" stroke-linecap="round" />
<path d="M710.0,214 L719.36,214" stroke="#1a1a1a" stroke-width="2.2" stroke-linecap="round" />
<circle cx="710.0" cy="214" r="1.7" fill="#1a1a1a" />
<rect x="750.0" y="256" width="32" height="30" rx="4" fill="#eee" stroke="#1a1a1a" stroke-width="1.6" />
<circle cx="766.0" cy="214" r="18" fill="white" stroke="#1a1a1a" stroke-width="2.2" />
<path d="M766.0,214 L766.0,201.76" stroke="#1a1a1a" stroke-width="2.2" stroke-linecap="round" />
<path d="M766.0,214 L775.36,214" stroke="#1a1a1a" stroke-width="2.2" stroke-linecap="round" />
<circle cx="766.0" cy="214" r="1.7" fill="#1a1a1a" />
<text x="710.0" y="328" font-size="22" font-family="Helvetica" text-anchor="middle" fill="#555">one clock on each gene copy</text>
<text x="710.0" y="356" font-size="22" font-family="Helvetica" text-anchor="middle" fill="#555">count tracks the family</text>
<text x="1140.0" y="130" font-size="22" font-family="Helvetica" text-anchor="middle" font-weight="bold" fill="#1a1a1a">shared</text>
<path d="M1088.0,252 L1088.0,296" stroke="#8a8a8a" stroke-width="3" stroke-linecap="round" />
<path d="M1140.0,252 L1140.0,296" stroke="#8a8a8a" stroke-width="3" stroke-linecap="round" />
<path d="M1192.0,252 L1192.0,296" stroke="#8a8a8a" stroke-width="3" stroke-linecap="round" />
<path d="M1066.0,244 Q1140.0,224,1214.0,244" fill="none" stroke="#1a1a1a" stroke-width="2" />
<circle cx="1140.0" cy="206" r="20" fill="white" stroke="#1a1a1a" stroke-width="2.2" />
<path d="M1140.0,206 L1140.0,192.4" stroke="#1a1a1a" stroke-width="2.2" stroke-linecap="round" />
<path d="M1140.0,206 L1150.4,206" stroke="#1a1a1a" stroke-width="2.2" stroke-linecap="round" />
<circle cx="1140.0" cy="206" r="1.7" fill="#1a1a1a" />
<text x="1140.0" y="328" font-size="22" font-family="Helvetica" text-anchor="middle" fill="#555">one clock for the whole thing</text>
<text x="1140.0" y="356" font-size="22" font-family="Helvetica" text-anchor="middle" fill="#555">count is fixed at one</text>
<path d="M150,858 L1270,858" stroke="#bdbdbd" stroke-width="1.3" />
<path d="M150,470 L150,858" stroke="#bdbdbd" stroke-width="1.3" />
<path d="M150.0,858.0 L157.0440251572327,851.7764364811559 L164.08805031446542,851.5459341286061 L171.1320754716981,851.3154317760562 L178.1761006289308,850.9312611884733 L185.22012578616352,850.7007588359235 L192.26415094339623,850.2397541308239 L199.30817610062894,850.1629200133074 L206.35220125786162,849.855583543241 L213.39622641509433,849.7019153082077 L220.44025157232704,849.3177447206248 L227.48427672955975,849.1640764855916 L234.52830188679246,849.0872423680751 L241.57232704402517,848.7799058980087 L248.61635220125788,848.5494035454589 L255.66037735849056,848.318901192909 L262.70440251572325,848.1652329578759 L269.748427672956,847.9347306053261 L276.79245283018867,847.5505600177431 L283.8364779874214,847.6273941352597 L290.8805031446541,847.4737259002266 L297.92452830188677,847.1663894301602 L304.9685534591195,847.0895553126436 L312.0125786163522,847.012721195127 L319.0566037735849,846.5517164900274 L326.1006289308176,846.244380019961 L333.14465408805034,845.860209432378 L340.188679245283,845.3992047272785 L347.23270440251576,844.9382000221789 L354.27672955974845,844.7845317871457 L361.3207547169811,844.7076976696292 L368.3647798742138,844.4771953170793 L375.40880503144655,844.0930247294964 L382.4528301886793,843.78568825943 L389.49685534591197,843.1710153192972 L396.54088050314465,842.5563423791644 L403.58490566037733,842.2490059090981 L410.62893081761007,842.0953376740649 L417.67295597484275,841.6343329689654 L424.7169811320755,840.7891576762828 L431.76100628930817,840.4049870886998 L438.80503144654085,839.8671482660836 L445.8490566037736,839.5598117960174 L452.8930817610063,838.9451388558846 L459.937106918239,837.9462953281688 L466.9811320754717,837.6389588581025 L474.0251572327044,837.1011200354862 L481.0691823899371,836.2559447428038 L488.11320754716985,835.257101215088 L495.1572327044026,834.9497647450216 L502.20125786163527,834.2582576873723 L509.24528301886795,834.1814235698557 L516.2893081761007,833.4899165122064 L523.3333333333334,832.6447412195238 L530.377358490566,831.645897691808 L537.4213836477988,831.0312247516753 L544.4654088050315,830.0323812239595 L551.5094339622642,829.57137651886 L558.5534591194969,829.1103718137605 L565.5974842767296,827.6505235809451 L572.6415094339623,826.344343583163 L579.6855345911949,825.8065047605469 L586.7295597484276,825.2686659379307 L593.7735849056604,824.5771588802813 L600.8176100628931,824.0393200576652 L607.8616352201259,823.4246471175325 L614.9056603773586,822.1953012372669 L621.9496855345913,821.1196235920346 L628.9937106918239,820.0439459468023 L636.0377358490566,819.890277711769 L643.0817610062893,818.96826830157 L650.125786163522,818.8146000665367 L657.1698113207547,818.1230930088874 L664.2138364779875,816.8169130111053 L671.2578616352201,815.35706477829 L678.3018867924528,814.2813871330577 L685.3459119496855,813.1288753703087 L692.3899371069183,812.3605341951428 L699.433962264151,811.0543541973607 L706.4779874213837,809.9786765521284 L713.5220125786163,809.2103353769625 L720.566037735849,808.2114918492467 L727.6100628930817,806.828477733948 L734.6540880503145,805.2917953836161 L741.6981132075472,803.8319471508008 L748.7421383647799,802.4489330355021 L755.7861635220125,801.3732553902698 L762.8301886792452,799.9902412749711 L769.874213836478,798.5303930421558 L776.9182389937107,797.0705448093405 L783.9622641509434,795.072857753909 L791.0062893081761,793.3056730510274 L798.0503144654087,791.9226589357287 L805.0943396226415,790.1554742328469 L812.1383647798742,788.465123647482 L819.1823899371069,786.4674365920505 L826.2264150943397,784.2392471840692 L833.2704402515723,782.7793989512539 L840.3144654088052,782.0110577760879 L847.3584905660377,779.7060342505902 L854.4025157232705,777.1705083725425 L861.4465408805031,774.9423189645613 L868.4905660377359,772.7909636740966 L875.5345911949685,770.5627742661154 L882.5786163522014,768.3345848581341 L889.622641509434,766.3368978027027 L896.6666666666667,764.6465472173376 L903.7106918238993,762.3415236918397 L910.7547169811321,759.1913248736594 L917.7987421383648,756.7326331131284 L924.8427672955976,755.1959507627964 L931.8867924528302,752.429922532199 L938.930817610063,748.8187190089191 L945.9748427672955,746.2831931308715 L953.0188679245284,743.2098284302077 L960.062893081761,741.1353072572597 L967.1069182389938,738.5229472616954 L974.1509433962264,735.8337531486146 L981.1949685534591,731.4542084501687 L988.2389937106917,728.3040096319883 L995.2830188679246,724.1549672860922 L1002.3270440251572,721.3889390554948 L1009.37106918239,717.3935649446319 L1016.4150943396226,712.9371861286694 L1023.4591194968554,709.1723143703563 L1030.503144654088,705.3306084945266 L1037.5471698113208,701.7962390887632 L1044.5911949685533,697.8776990954169 L1051.6352201257862,693.1908179269046 L1058.6792452830186,688.4271026408758 L1065.7232704402518,684.0475579424299 L1072.7672955974845,679.7448473615005 L1079.8113207547171,675.4421367805712 L1086.8553459119496,671.3699285521917 L1093.8993710691825,667.1440520887791 L1100.9433962264152,662.3035026852335 L1107.9874213836479,656.6946121065222 L1115.0314465408806,650.7783850577445 L1122.0754716981132,645.9378356541989 L1129.119496855346,639.7142721353548 L1136.1635220125786,634.3358839091932 L1143.2075471698113,628.496490977932 L1150.251572327044,622.5802639291542 L1157.2955974842766,617.2018757029925 L1164.3396226415093,611.055146301665 L1171.383647798742,602.4497251398063 L1178.427672955975,595.3809863282797 L1185.4716981132076,588.1585792817198 L1192.5157232704403,580.6288357650935 L1199.559748427673,572.1002487207516 L1206.6037735849056,566.1071875544571 L1213.6477987421383,558.2701075677645 L1220.691823899371,551.5855393438208 L1227.7358490566037,543.3642887695452 L1234.7798742138366,534.9125358427198 L1241.8238993710693,525.5387735056952 L1248.867924528302,517.7785276365191 L1255.9119496855344,510.0182817673431 L1262.9559748427673,500.49085119528536 L1270.0,491.9622641509434" fill="none" stroke="#1a1a1a" stroke-width="3.0" stroke-linejoin="round" />
<path d="M150.0,858.0 L157.0440251572327,851.7764364811559 L164.08805031446542,851.7764364811559 L171.1320754716981,851.6996023636392 L178.1761006289308,851.5459341286061 L185.22012578616352,851.5459341286061 L192.26415094339623,851.3922658935728 L199.30817610062894,851.2385976585397 L206.35220125786162,851.1617635410231 L213.39622641509433,851.1617635410231 L220.44025157232704,851.2385976585397 L227.48427672955975,850.9312611884733 L234.52830188679246,850.7775929534401 L241.57232704402517,850.8544270709567 L248.61635220125788,850.7775929534401 L255.66037735849056,850.7007588359235 L262.70440251572325,850.6239247184069 L269.748427672956,850.5470906008903 L276.79245283018867,850.5470906008903 L283.8364779874214,850.3165882483405 L290.8805031446541,850.2397541308239 L297.92452830188677,850.0860858957908 L304.9685534591195,850.0092517782741 L312.0125786163522,849.7787494257244 L319.0566037735849,849.855583543241 L326.1006289308176,849.7019153082077 L333.14465408805034,849.7019153082077 L340.188679245283,849.5482470731746 L347.23270440251576,849.471412955658 L354.27672955974845,849.3177447206248 L361.3207547169811,849.2409106031082 L368.3647798742138,849.2409106031082 L375.40880503144655,849.3177447206248 L382.4528301886793,849.1640764855916 L389.49685534591197,849.0104082505584 L396.54088050314465,848.8567400155252 L403.58490566037733,848.7799058980087 L410.62893081761007,848.5494035454589 L417.67295597484275,848.4725694279423 L424.7169811320755,848.4725694279423 L431.76100628930817,848.318901192909 L438.80503144654085,848.3957353104257 L445.8490566037736,848.318901192909 L452.8930817610063,848.318901192909 L459.937106918239,848.2420670753925 L466.9811320754717,848.1652329578759 L474.0251572327044,847.9347306053261 L481.0691823899371,847.9347306053261 L488.11320754716985,847.8578964878095 L495.1572327044026,847.8578964878095 L502.20125786163527,847.781062370293 L509.24528301886795,847.7042282527764 L516.2893081761007,847.5505600177431 L523.3333333333334,847.2432235476767 L530.377358490566,847.1663894301602 L537.4213836477988,847.0895553126436 L544.4654088050315,846.9358870776103 L551.5094339622642,846.7053847250606 L558.5534591194969,846.7053847250606 L565.5974842767296,846.5517164900274 L572.6415094339623,846.628550607544 L579.6855345911949,846.628550607544 L586.7295597484276,846.5517164900274 L593.7735849056604,846.4748823725108 L600.8176100628931,846.3980482549943 L607.8616352201259,846.1675459024444 L614.9056603773586,846.1675459024444 L621.9496855345913,846.0138776674113 L628.9937106918239,845.7833753148615 L636.0377358490566,845.7065411973449 L643.0817610062893,845.6297070798282 L650.125786163522,845.5528729623117 L657.1698113207547,845.6297070798282 L664.2138364779875,845.4760388447951 L671.2578616352201,845.3992047272785 L678.3018867924528,845.1687023747287 L685.3459119496855,845.0150341396956 L692.3899371069183,844.9382000221789 L699.433962264151,844.7845317871457 L706.4779874213837,844.8613659046623 L713.5220125786163,844.7845317871457 L720.566037735849,844.6308635521125 L727.6100628930817,844.5540294345959 L734.6540880503145,844.6308635521125 L741.6981132075472,844.5540294345959 L748.7421383647799,844.4003611995628 L755.7861635220125,844.169858847013 L762.8301886792452,844.169858847013 L769.874213836478,843.9393564944631 L776.9182389937107,843.8625223769466 L783.9622641509434,843.6320200243969 L791.0062893081761,843.5551859068802 L798.0503144654087,843.5551859068802 L805.0943396226415,843.5551859068802 L812.1383647798742,843.5551859068802 L819.1823899371069,843.5551859068802 L826.2264150943397,843.4783517893636 L833.2704402515723,843.3246835543305 L840.3144654088052,842.9405129667474 L847.3584905660377,842.7100106141977 L854.4025157232705,842.6331764966811 L861.4465408805031,842.5563423791644 L868.4905660377359,842.5563423791644 L875.5345911949685,842.4026741441313 L882.5786163522014,842.2490059090981 L889.622641509434,842.1721717915815 L896.6666666666667,842.1721717915815 L903.7106918238993,842.0953376740649 L910.7547169811321,842.0953376740649 L917.7987421383648,841.9416694390318 L924.8427672955976,841.8648353215151 L931.8867924528302,842.0185035565484 L938.930817610063,841.9416694390318 L945.9748427672955,842.0185035565484 L953.0188679245284,841.9416694390318 L960.062893081761,841.9416694390318 L967.1069182389938,842.0185035565484 L974.1509433962264,841.8648353215151 L981.1949685534591,841.8648353215151 L988.2389937106917,841.8648353215151 L995.2830188679246,841.6343329689654 L1002.3270440251572,841.6343329689654 L1009.37106918239,841.6343329689654 L1016.4150943396226,841.5574988514487 L1023.4591194968554,841.4806647339321 L1030.503144654088,841.326996498899 L1037.5471698113208,841.1733282638658 L1044.5911949685533,841.0964941463492 L1051.6352201257862,841.0196600288326 L1058.6792452830186,840.942825911316 L1065.7232704402518,840.942825911316 L1072.7672955974845,840.942825911316 L1079.8113207547171,840.942825911316 L1086.8553459119496,840.8659917937994 L1093.8993710691825,840.8659917937994 L1100.9433962264152,840.7891576762828 L1107.9874213836479,840.558655323733 L1115.0314465408806,840.4818212062164 L1122.0754716981132,840.3281529711833 L1129.119496855346,840.3281529711833 L1136.1635220125786,840.0976506186335 L1143.2075471698113,839.7903141485671 L1150.251572327044,839.7903141485671 L1157.2955974842766,839.4829776785007 L1164.3396226415093,839.3293094434675 L1171.383647798742,839.0219729734011 L1178.427672955975,839.0988070909177 L1185.4716981132076,839.0219729734011 L1192.5157232704403,839.0219729734011 L1199.559748427673,838.9451388558846 L1206.6037735849056,838.9451388558846 L1213.6477987421383,838.9451388558846 L1220.691823899371,838.8683047383679 L1227.7358490566037,838.6378023858182 L1234.7798742138366,838.4073000332684 L1241.8238993710693,838.2536317982352 L1248.867924528302,838.1767976807186 L1255.9119496855344,837.9462953281688 L1262.9559748427673,837.8694612106522 L1270.0,837.9462953281688" fill="none" stroke="#1a1a1a" stroke-width="3.0" stroke-linejoin="round" stroke-dasharray="9,6" />
<text x="512.88" y="586" font-size="22" font-family="Helvetica" text-anchor="middle" font-weight="bold" fill="#1a1a1a">one clock per lineage (or per copy)</text>
<text x="512.88" y="616" font-size="22" font-family="Helvetica" text-anchor="middle" fill="#1a1a1a">-&gt; EXPONENTIAL</text>
<text x="1068.4" y="809.9462953281688" font-size="22" font-family="Helvetica" text-anchor="middle" font-weight="bold" fill="#555">one shared clock -&gt; LINEAR</text>
<text x="138" y="858.0" font-size="22" font-family="Helvetica" text-anchor="end" dominant-baseline="central" fill="#777">0</text>
<text x="138" y="673.598117960173" font-size="22" font-family="Helvetica" text-anchor="end" dominant-baseline="central" fill="#777">60</text>
<text x="138" y="489.19623592034594" font-size="22" font-family="Helvetica" text-anchor="end" dominant-baseline="central" fill="#777">120</text>
<text x="106" y="664.0" font-size="22" font-family="Helvetica" text-anchor="middle" fill="#555" transform="rotate(-90 106 664.0)">lineages (count)</text>
<path d="M150.0,858 L150.0,864" stroke="#1a1a1a" stroke-width="1.2" />
<text x="150.0" y="882" font-size="22" font-family="Helvetica" text-anchor="middle" fill="#777">0</text>
<path d="M374.0,858 L374.0,864" stroke="#1a1a1a" stroke-width="1.2" />
<text x="374.0" y="882" font-size="22" font-family="Helvetica" text-anchor="middle" fill="#777">1</text>
<path d="M598.0,858 L598.0,864" stroke="#1a1a1a" stroke-width="1.2" />
<text x="598.0" y="882" font-size="22" font-family="Helvetica" text-anchor="middle" fill="#777">2</text>
<path d="M822.0,858 L822.0,864" stroke="#1a1a1a" stroke-width="1.2" />
<text x="822.0" y="882" font-size="22" font-family="Helvetica" text-anchor="middle" fill="#777">3</text>
<path d="M1046.0,858 L1046.0,864" stroke="#1a1a1a" stroke-width="1.2" />
<text x="1046.0" y="882" font-size="22" font-family="Helvetica" text-anchor="middle" fill="#777">4</text>
<path d="M1270.0,858 L1270.0,864" stroke="#1a1a1a" stroke-width="1.2" />
<text x="1270.0" y="882" font-size="22" font-family="Helvetica" text-anchor="middle" fill="#777">5</text>
<text x="710.0" y="908" font-size="22" font-family="Helvetica" text-anchor="middle" fill="#555">time</text>
<text x="710.0" y="458" font-size="22" font-family="Helvetica" text-anchor="middle" font-style="italic" fill="#555">same rate per clock (birth 1.0, death 0.2) -- only the number of clocks differs</text>
</svg>