<?xml version="1.0" encoding="UTF-8"?>
<svg xmlns="http://www.w3.org/2000/svg" xmlns:xlink="http://www.w3.org/1999/xlink"
     width="1120" height="500" viewBox="0 0 1120 500">
<defs>
</defs>
<rect x="0" y="0" width="1120" height="500" fill="white" />
<text x="560.0" y="44" font-size="32" font-family="Helvetica" text-anchor="middle" font-weight="bold" fill="#1a1a1a">Two ways to read the critic: frozen vs live</text>
<circle cx="60" cy="84" r="7.5" fill="#2f7d84" stroke="white" stroke-width="1.4" />
<text x="76" y="90" font-size="22" font-family="Helvetica" text-anchor="start" fill="#1a1a1a">= one ESM2 read</text>
<text x="280.0" y="132" font-size="22" font-family="Helvetica" text-anchor="middle" font-weight="bold" fill="#1a1a1a">FROZEN (default)</text>
<path d="M70,255.0 L212.8,255.0" stroke="#1a1a1a" stroke-width="3.0" stroke-linecap="round" />
<path d="M212.8,171.0 L482,171.0" stroke="#1a1a1a" stroke-width="3.0" stroke-linecap="round" />
<path d="M212.8,305.40000000000003 L334.6,305.40000000000003" stroke="#1a1a1a" stroke-width="3.0" stroke-linecap="round" />
<path d="M334.6,267.6 L482,267.6" stroke="#1a1a1a" stroke-width="3.0" stroke-linecap="round" />
<path d="M334.6,343.20000000000005 L482,343.20000000000005" stroke="#1a1a1a" stroke-width="3.0" stroke-linecap="round" />
<path d="M212.8,171.0 L212.8,305.40000000000003" stroke="#1a1a1a" stroke-width="3.0" stroke-linecap="round" />
<path d="M334.6,267.6 L334.6,343.20000000000005" stroke="#1a1a1a" stroke-width="3.0" stroke-linecap="round" />
<circle cx="72" cy="255.0" r="7.5" fill="#2f7d84" stroke="white" stroke-width="1.4" />
<rect x="482" y="165.0" width="12" height="12" fill="#1a1a1a" stroke="white" stroke-width="1" />
<rect x="482" y="261.6" width="12" height="12" fill="#1a1a1a" stroke="white" stroke-width="1" />
<rect x="482" y="337.20000000000005" width="12" height="12" fill="#1a1a1a" stroke="white" stroke-width="1" />
<text x="840.0" y="132" font-size="22" font-family="Helvetica" text-anchor="middle" font-weight="bold" fill="#1a1a1a">LIVE (epistatic)</text>
<path d="M666.0,159.0 L666.0,355.20000000000005" stroke="#c4c4c4" stroke-width="1.4" stroke-dasharray="3,5" />
<path d="M726.0,159.0 L726.0,355.20000000000005" stroke="#c4c4c4" stroke-width="1.4" stroke-dasharray="3,5" />
<path d="M786.0,159.0 L786.0,355.20000000000005" stroke="#c4c4c4" stroke-width="1.4" stroke-dasharray="3,5" />
<path d="M846.0,159.0 L846.0,355.20000000000005" stroke="#c4c4c4" stroke-width="1.4" stroke-dasharray="3,5" />
<path d="M906.0,159.0 L906.0,355.20000000000005" stroke="#c4c4c4" stroke-width="1.4" stroke-dasharray="3,5" />
<path d="M966.0,159.0 L966.0,355.20000000000005" stroke="#c4c4c4" stroke-width="1.4" stroke-dasharray="3,5" />
<path d="M1026.0,159.0 L1026.0,355.20000000000005" stroke="#c4c4c4" stroke-width="1.4" stroke-dasharray="3,5" />
<path d="M630,255.0 L772.8,255.0" stroke="#1a1a1a" stroke-width="3.0" stroke-linecap="round" />
<path d="M772.8,171.0 L1042,171.0" stroke="#1a1a1a" stroke-width="3.0" stroke-linecap="round" />
<path d="M772.8,305.40000000000003 L894.6,305.40000000000003" stroke="#1a1a1a" stroke-width="3.0" stroke-linecap="round" />
<path d="M894.6,267.6 L1042,267.6" stroke="#1a1a1a" stroke-width="3.0" stroke-linecap="round" />
<path d="M894.6,343.20000000000005 L1042,343.20000000000005" stroke="#1a1a1a" stroke-width="3.0" stroke-linecap="round" />
<path d="M772.8,171.0 L772.8,305.40000000000003" stroke="#1a1a1a" stroke-width="3.0" stroke-linecap="round" />
<path d="M894.6,267.6 L894.6,343.20000000000005" stroke="#1a1a1a" stroke-width="3.0" stroke-linecap="round" />
<circle cx="666.0" cy="255.0" r="7.5" fill="#2f7d84" stroke="white" stroke-width="1.4" />
<circle cx="726.0" cy="255.0" r="7.5" fill="#2f7d84" stroke="white" stroke-width="1.4" />
<circle cx="786.0" cy="171.0" r="7.5" fill="#2f7d84" stroke="white" stroke-width="1.4" />
<circle cx="786.0" cy="305.40000000000003" r="7.5" fill="#2f7d84" stroke="white" stroke-width="1.4" />
<circle cx="846.0" cy="171.0" r="7.5" fill="#2f7d84" stroke="white" stroke-width="1.4" />
<circle cx="846.0" cy="305.40000000000003" r="7.5" fill="#2f7d84" stroke="white" stroke-width="1.4" />
<circle cx="906.0" cy="171.0" r="7.5" fill="#2f7d84" stroke="white" stroke-width="1.4" />
<circle cx="906.0" cy="267.6" r="7.5" fill="#2f7d84" stroke="white" stroke-width="1.4" />
<circle cx="906.0" cy="343.20000000000005" r="7.5" fill="#2f7d84" stroke="white" stroke-width="1.4" />
<circle cx="966.0" cy="171.0" r="7.5" fill="#2f7d84" stroke="white" stroke-width="1.4" />
<circle cx="966.0" cy="267.6" r="7.5" fill="#2f7d84" stroke="white" stroke-width="1.4" />
<circle cx="966.0" cy="343.20000000000005" r="7.5" fill="#2f7d84" stroke="white" stroke-width="1.4" />
<circle cx="1026.0" cy="171.0" r="7.5" fill="#2f7d84" stroke="white" stroke-width="1.4" />
<circle cx="1026.0" cy="267.6" r="7.5" fill="#2f7d84" stroke="white" stroke-width="1.4" />
<circle cx="1026.0" cy="343.20000000000005" r="7.5" fill="#2f7d84" stroke="white" stroke-width="1.4" />
<rect x="1042" y="165.0" width="12" height="12" fill="#1a1a1a" stroke="white" stroke-width="1" />
<rect x="1042" y="261.6" width="12" height="12" fill="#1a1a1a" stroke="white" stroke-width="1" />
<rect x="1042" y="337.20000000000005" width="12" height="12" fill="#1a1a1a" stroke="white" stroke-width="1" />
<text x="70" y="410" font-size="22" font-family="Helvetica" text-anchor="start" fill="#1a1a1a" font-weight="bold">read the critic ONCE, on the root protein</text>
<text x="70" y="432" font-size="22" font-family="Helvetica" text-anchor="start" fill="#8a8a8a" font-weight="normal">sites evolve independently (no epistasis)</text>
<text x="70" y="454" font-size="22" font-family="Helvetica" text-anchor="start" fill="#8a8a8a" font-weight="normal">one call per gene: cheap, exact, parallel</text>
<text x="630" y="410" font-size="22" font-family="Helvetica" text-anchor="start" fill="#1a1a1a" font-weight="bold">re-read the critic every 'refresh' subs/site</text>
<text x="630" y="432" font-size="22" font-family="Helvetica" text-anchor="start" fill="#8a8a8a" font-weight="normal">each site feels the others (within-gene epistasis)</text>
<text x="630" y="454" font-size="22" font-family="Helvetica" text-anchor="start" fill="#8a8a8a" font-weight="normal">many calls; refresh = infinity recovers frozen</text>
</svg>