<?xml version="1.0" encoding="UTF-8"?>
<svg xmlns="http://www.w3.org/2000/svg" xmlns:xlink="http://www.w3.org/1999/xlink"
     width="1200" height="640" viewBox="0 0 1200 640">
<defs>
</defs>
<rect x="0" y="0" width="1200" height="640" fill="white" />
<text x="600.0" y="44" font-size="32" font-family="Helvetica" text-anchor="middle" font-weight="bold" fill="#1a1a1a">Language-model selection on a real genome, block by block</text>
<text x="50" y="110" font-size="22" font-family="Helvetica" text-anchor="start" font-weight="bold" fill="#1a1a1a">1. Root genome + GFF</text>
<rect x="50" y="135" width="38.4" height="30" fill="#c9c9c9" stroke="white" stroke-width="1.5" />
<rect x="88.4" y="135" width="76.8" height="30" fill="#4477AA" stroke="white" stroke-width="1.5" />
<rect x="165.2" y="135" width="44.800000000000004" height="30" fill="#c9c9c9" stroke="white" stroke-width="1.5" />
<rect x="210.0" y="135" width="83.2" height="30" fill="#7B5EA7" stroke="white" stroke-width="1.5" />
<rect x="293.2" y="135" width="76.8" height="30" fill="#c9c9c9" stroke="white" stroke-width="1.5" />
<rect x="50" y="135" width="320" height="30" fill="none" stroke="#1a1a1a" stroke-width="1.2" />
<text x="126.8" y="185" font-size="22" font-family="Helvetica" text-anchor="middle" fill="#4477AA" font-weight="bold">gene A</text>
<text x="251.6" y="185" font-size="22" font-family="Helvetica" text-anchor="middle" fill="#7B5EA7" font-weight="bold">gene B</text>
<text x="386" y="156.0" font-size="22" font-family="Helvetica" text-anchor="start" fill="#8a8a8a">grey = intergene</text>
<path d="M210,210 L210,252" stroke="#1a1a1a" stroke-width="2.6" />
<path d="M210,252 L216.71195754045885,239.7138441335348" stroke="#1a1a1a" stroke-width="2.6" />
<path d="M210,252 L203.28804245954115,239.7138441335348" stroke="#1a1a1a" stroke-width="2.6" />
<text x="232" y="230" font-size="22" font-family="Helvetica" text-anchor="start" fill="#8a8a8a">structural evolution (inversion, duplication, loss, transfer),</text>
<text x="232" y="252" font-size="22" font-family="Helvetica" text-anchor="start" fill="#8a8a8a">then trace every extant position back to its ancestral block</text>
<text x="50" y="300" font-size="22" font-family="Helvetica" text-anchor="start" font-weight="bold" fill="#1a1a1a">2. Each block on its own gene tree</text>
<rect x="50" y="320" width="250" height="150" rx="10" fill="#f4f7fb" stroke="#4477AA" stroke-width="1.8" />
<text x="64" y="346" font-size="22" font-family="Helvetica" text-anchor="start" fill="#4477AA" font-weight="bold">GENE block</text>
<path d="M70,399.0 L133.0,399.0" stroke="#1a1a1a" stroke-width="2.2" />
<path d="M133.0,360.0 L133.0,438.0" stroke="#1a1a1a" stroke-width="2.2" />
<path d="M133.0,360.0 L208,360.0" stroke="#1a1a1a" stroke-width="2.2" />
<path d="M133.0,418.5 L175.0,418.5" stroke="#1a1a1a" stroke-width="2.2" />
<path d="M175.0,399.0 L175.0,438.0" stroke="#1a1a1a" stroke-width="2.2" />
<path d="M175.0,399.0 L208,399.0" stroke="#1a1a1a" stroke-width="2.2" />
<path d="M175.0,438.0 L208,438.0" stroke="#1a1a1a" stroke-width="2.2" />
<rect x="208" y="354.0" width="12" height="12" fill="#4477AA" stroke="white" stroke-width="1" />
<rect x="208" y="393.0" width="12" height="12" fill="#4477AA" stroke="white" stroke-width="1" />
<rect x="208" y="432.0" width="12" height="12" fill="#4477AA" stroke="white" stroke-width="1" />
<text x="195.0" y="460" font-size="22" font-family="Helvetica" text-anchor="middle" fill="#1a1a1a" font-weight="bold">ESM2 codon selection</text>
<rect x="50" y="500" width="250" height="120" rx="10" fill="#f6f6f6" stroke="#8a8a8a" stroke-width="1.8" />
<text x="64" y="524" font-size="22" font-family="Helvetica" text-anchor="start" fill="#8a8a8a" font-weight="bold">INTERGENE block</text>
<path d="M70,564.0 L133.0,564.0" stroke="#1a1a1a" stroke-width="2.2" />
<path d="M133.0,536.0 L133.0,592.0" stroke="#1a1a1a" stroke-width="2.2" />
<path d="M133.0,536.0 L208,536.0" stroke="#1a1a1a" stroke-width="2.2" />
<path d="M133.0,578.0 L175.0,578.0" stroke="#1a1a1a" stroke-width="2.2" />
<path d="M175.0,564.0 L175.0,592.0" stroke="#1a1a1a" stroke-width="2.2" />
<path d="M175.0,564.0 L208,564.0" stroke="#1a1a1a" stroke-width="2.2" />
<path d="M175.0,592.0 L208,592.0" stroke="#1a1a1a" stroke-width="2.2" />
<rect x="208" y="530.0" width="12" height="12" fill="#c9c9c9" stroke="white" stroke-width="1" />
<rect x="208" y="558.0" width="12" height="12" fill="#c9c9c9" stroke="white" stroke-width="1" />
<rect x="208" y="586.0" width="12" height="12" fill="#c9c9c9" stroke="white" stroke-width="1" />
<text x="195.0" y="610" font-size="22" font-family="Helvetica" text-anchor="middle" fill="#1a1a1a" font-weight="bold">neutral drift</text>
<path d="M320,452 L420,452" stroke="#1a1a1a" stroke-width="2.6" />
<path d="M420,452 L407.7138441335348,445.28804245954115" stroke="#1a1a1a" stroke-width="2.6" />
<path d="M420,452 L407.7138441335348,458.71195754045885" stroke="#1a1a1a" stroke-width="2.6" />
<text x="370.0" y="388" font-size="22" font-family="Helvetica" text-anchor="middle" fill="#8a8a8a">evolve each</text>
<text x="370.0" y="408" font-size="22" font-family="Helvetica" text-anchor="middle" fill="#8a8a8a">block, then</text>
<text x="370.0" y="428" font-size="22" font-family="Helvetica" text-anchor="middle" fill="#8a8a8a">reassemble</text>
<text x="450" y="300" font-size="22" font-family="Helvetica" text-anchor="start" font-weight="bold" fill="#1a1a1a">3. Genomes at every node</text>
<rect x="450" y="345" width="36.0" height="30" fill="#c9c9c9" stroke="white" stroke-width="1.5" />
<rect x="486.0" y="345" width="86.39999999999999" height="30" fill="#4477AA" stroke="white" stroke-width="1.5" />
<rect x="572.4" y="345" width="57.6" height="30" fill="#c9c9c9" stroke="white" stroke-width="1.5" />
<rect x="630.0" y="345" width="93.60000000000001" height="30" fill="#7B5EA7" stroke="white" stroke-width="1.5" />
<rect x="723.6" y="345" width="86.39999999999999" height="30" fill="#c9c9c9" stroke="white" stroke-width="1.5" />
<rect x="450" y="345" width="360" height="30" fill="none" stroke="#1a1a1a" stroke-width="1.2" />
<text x="450" y="337" font-size="22" font-family="Helvetica" text-anchor="start" fill="#8a8a8a">node (ancestor)</text>
<rect x="450" y="437" width="50.400000000000006" height="30" fill="#c9c9c9" stroke="white" stroke-width="1.5" />
<rect x="500.4" y="437" width="93.60000000000001" height="30" fill="#7B5EA7" stroke="white" stroke-width="1.5" />
<rect x="594.0" y="437" width="43.199999999999996" height="30" fill="#c9c9c9" stroke="white" stroke-width="1.5" />
<rect x="637.2" y="437" width="79.2" height="30" fill="#4477AA" stroke="white" stroke-width="1.5" />
<rect x="716.4000000000001" y="437" width="93.60000000000001" height="30" fill="#c9c9c9" stroke="white" stroke-width="1.5" />
<rect x="450" y="437" width="360" height="30" fill="none" stroke="#1a1a1a" stroke-width="1.2" />
<text x="450" y="429" font-size="22" font-family="Helvetica" text-anchor="start" fill="#8a8a8a">tip 1</text>
<rect x="450" y="529" width="43.199999999999996" height="30" fill="#c9c9c9" stroke="white" stroke-width="1.5" />
<rect x="493.2" y="529" width="86.39999999999999" height="30" fill="#4477AA" stroke="white" stroke-width="1.5" />
<rect x="579.6" y="529" width="144.0" height="30" fill="#c9c9c9" stroke="white" stroke-width="1.5" />
<rect x="723.6" y="529" width="86.39999999999999" height="30" fill="#7B5EA7" stroke="white" stroke-width="1.5" />
<rect x="450" y="529" width="360" height="30" fill="none" stroke="#1a1a1a" stroke-width="1.2" />
<text x="450" y="521" font-size="22" font-family="Helvetica" text-anchor="start" fill="#8a8a8a">tip 2</text>
<text x="450" y="625" font-size="22" font-family="Helvetica" text-anchor="start" fill="#8a8a8a" font-style="italic">the root reproduces the input genome exactly</text>
</svg>