<?xml version="1.0" encoding="UTF-8"?>
<svg xmlns="http://www.w3.org/2000/svg" xmlns:xlink="http://www.w3.org/1999/xlink"
     width="1260" height="820" viewBox="-630.0 -410.0 1260 820">
<defs>
</defs>
<rect x="-630.0" y="-410.0" width="1260" height="820" fill="white" />
<path d="M-510.0,-290.0 L509.99999996940005,-290.0" stroke="#1a1a1a" stroke-width="2.6" stroke-linecap="round" />
<path d="M-45.931247377321995,-237.27272727272728 L510.0,-237.27272727272728" stroke="#1a1a1a" stroke-width="2.6" stroke-linecap="round" />
<path d="M249.80024798580598,-184.54545454545456 L509.99999989800006,-184.54545454545456" stroke="#1a1a1a" stroke-width="2.6" stroke-linecap="round" />
<path d="M432.101141157537,-131.8181818181818 L509.9999999184,-131.8181818181818" stroke="#1a1a1a" stroke-width="2.6" stroke-linecap="round" />
<path d="M432.101141157537,-79.0909090909091 L509.9999999184,-79.0909090909091" stroke="#1a1a1a" stroke-width="2.6" stroke-linecap="round" />
<path d="M270.85101467637446,-105.45454545454545 L432.101141157537,-105.45454545454545" stroke="#1a1a1a" stroke-width="2.6" stroke-linecap="round" />
<path d="M432.101141157537,-131.8181818181818 L432.101141157537,-79.0909090909091" stroke="#1a1a1a" stroke-width="2.6" stroke-linecap="round" />
<path d="M281.5137032612546,-26.363636363636374 L509.9999999184,-26.363636363636374" stroke="#1a1a1a" stroke-width="2.6" stroke-linecap="round" />
<path d="M281.5137032612546,26.363636363636374 L509.9999999184,26.363636363636374" stroke="#1a1a1a" stroke-width="2.6" stroke-linecap="round" />
<path d="M270.85101467637446,0.0 L281.5137032612546,0.0" stroke="#1a1a1a" stroke-width="2.6" stroke-linecap="round" />
<path d="M281.5137032612546,-26.363636363636374 L281.5137032612546,26.363636363636374" stroke="#1a1a1a" stroke-width="2.6" stroke-linecap="round" />
<path d="M249.80024798580598,-52.72727272727273 L270.85101467637446,-52.72727272727273" stroke="#1a1a1a" stroke-width="2.6" stroke-linecap="round" />
<path d="M270.85101467637446,-105.45454545454545 L270.85101467637446,0.0" stroke="#1a1a1a" stroke-width="2.6" stroke-linecap="round" />
<path d="M97.83926211636481,-118.63636363636364 L249.80024798580598,-118.63636363636364" stroke="#1a1a1a" stroke-width="2.6" stroke-linecap="round" />
<path d="M249.80024798580598,-184.54545454545456 L249.80024798580598,-52.72727272727273" stroke="#1a1a1a" stroke-width="2.6" stroke-linecap="round" />
<path d="M97.83926211636481,79.09090909090907 L509.99999989800006,79.09090909090907" stroke="#1a1a1a" stroke-width="2.6" stroke-linecap="round" />
<path d="M-45.931247377321995,-19.772727272727288 L97.83926211636481,-19.772727272727288" stroke="#1a1a1a" stroke-width="2.6" stroke-linecap="round" />
<path d="M97.83926211636481,-118.63636363636364 L97.83926211636481,79.09090909090907" stroke="#1a1a1a" stroke-width="2.6" stroke-linecap="round" />
<path d="M-487.68531513006945,-128.52272727272728 L-45.931247377321995,-128.52272727272728" stroke="#1a1a1a" stroke-width="2.6" stroke-linecap="round" />
<path d="M-45.931247377321995,-237.27272727272728 L-45.931247377321995,-19.772727272727288" stroke="#1a1a1a" stroke-width="2.6" stroke-linecap="round" />
<path d="M-52.330472275130035,131.8181818181818 L509.99999989800006,131.8181818181818" stroke="#1a1a1a" stroke-width="2.6" stroke-linecap="round" />
<path d="M0.32838347669019186,184.54545454545456 L509.99999996940005,184.54545454545456" stroke="#1a1a1a" stroke-width="2.6" stroke-linecap="round" />
<path d="M245.30397973334084,237.27272727272725 L509.99999996940005,237.27272727272725" stroke="#1a1a1a" stroke-width="2.6" stroke-linecap="round" />
<path d="M245.30397973334084,290.0 L509.99999996940005,290.0" stroke="#1a1a1a" stroke-width="2.6" stroke-linecap="round" />
<path d="M0.32838347669019186,263.6363636363636 L245.30397973334084,263.6363636363636" stroke="#1a1a1a" stroke-width="2.6" stroke-linecap="round" />
<path d="M245.30397973334084,237.27272727272725 L245.30397973334084,290.0" stroke="#1a1a1a" stroke-width="2.6" stroke-linecap="round" />
<path d="M-52.330472275130035,224.0909090909091 L0.32838347669019186,224.0909090909091" stroke="#1a1a1a" stroke-width="2.6" stroke-linecap="round" />
<path d="M0.32838347669019186,184.54545454545456 L0.32838347669019186,263.6363636363636" stroke="#1a1a1a" stroke-width="2.6" stroke-linecap="round" />
<path d="M-487.68531513006945,177.95454545454544 L-52.330472275130035,177.95454545454544" stroke="#1a1a1a" stroke-width="2.6" stroke-linecap="round" />
<path d="M-52.330472275130035,131.8181818181818 L-52.330472275130035,224.0909090909091" stroke="#1a1a1a" stroke-width="2.6" stroke-linecap="round" />
<path d="M-510.0,24.71590909090908 L-487.68531513006945,24.71590909090908" stroke="#1a1a1a" stroke-width="2.6" stroke-linecap="round" />
<path d="M-487.68531513006945,-128.52272727272728 L-487.68531513006945,177.95454545454544" stroke="#1a1a1a" stroke-width="2.6" stroke-linecap="round" />
<path d="M-524.0,-132.64204545454547 L-510.0,-132.64204545454547" stroke="#1a1a1a" stroke-width="2.6" />
<path d="M-510.0,-290.0 L-510.0,24.71590909090908" stroke="#1a1a1a" stroke-width="2.6" stroke-linecap="round" />
<text x="521.9999999694" y="-290.0" font-size="18" fill="#1a1a1a" font-family="Helvetica" transform="" text-anchor="start" dominant-baseline="middle">n6</text>
<text x="522.0" y="-237.27272727272728" font-size="18" fill="#1a1a1a" font-family="Helvetica" transform="" text-anchor="start" dominant-baseline="middle">n5</text>
<text x="521.999999898" y="-184.54545454545456" font-size="18" fill="#1a1a1a" font-family="Helvetica" transform="" text-anchor="start" dominant-baseline="middle">n12</text>
<text x="521.9999999184" y="-131.8181818181818" font-size="18" fill="#1a1a1a" font-family="Helvetica" transform="" text-anchor="start" dominant-baseline="middle">n1</text>
<text x="521.9999999184" y="-79.0909090909091" font-size="18" fill="#1a1a1a" font-family="Helvetica" transform="" text-anchor="start" dominant-baseline="middle">n7</text>
<text x="521.9999999184" y="-26.363636363636374" font-size="18" fill="#1a1a1a" font-family="Helvetica" transform="" text-anchor="start" dominant-baseline="middle">n9</text>
<text x="521.9999999184" y="26.363636363636374" font-size="18" fill="#1a1a1a" font-family="Helvetica" transform="" text-anchor="start" dominant-baseline="middle">n10</text>
<text x="521.999999898" y="79.09090909090907" font-size="18" fill="#1a1a1a" font-family="Helvetica" transform="" text-anchor="start" dominant-baseline="middle">n4</text>
<text x="521.999999898" y="131.8181818181818" font-size="18" fill="#1a1a1a" font-family="Helvetica" transform="" text-anchor="start" dominant-baseline="middle">n8</text>
<text x="521.9999999694" y="184.54545454545456" font-size="18" fill="#1a1a1a" font-family="Helvetica" transform="" text-anchor="start" dominant-baseline="middle">n3</text>
<text x="521.9999999694" y="237.27272727272725" font-size="18" fill="#1a1a1a" font-family="Helvetica" transform="" text-anchor="start" dominant-baseline="middle">n11</text>
<text x="521.9999999694" y="290.0" font-size="18" fill="#1a1a1a" font-family="Helvetica" transform="" text-anchor="start" dominant-baseline="middle">n2</text>
<path d="M-517.0,-154.44204545454548 L-510.2,-147.64204545454547 L-517.0,-140.84204545454546 L-523.8,-147.64204545454547 Z" fill="#4477AA" stroke="none" />
<path d="M-517.0,-139.44204545454548 L-510.2,-132.64204545454547 L-517.0,-125.84204545454547 L-523.8,-132.64204545454547 Z" fill="#E08A3C" stroke="none" />
<path d="M-517.0,-124.44204545454546 L-510.2,-117.64204545454547 L-517.0,-110.84204545454547 L-523.8,-117.64204545454547 Z" fill="#7B5EA7" stroke="none" />
<rect x="428.0599999716033" y="-87.5909090909091" width="17.0" height="17.0" fill="#4477AA" opacity="1.0" />
<path d="M-247.1800000081396,-298.5 L-230.1800000081396,-281.5" stroke="#4477AA" stroke-width="3.0" stroke-linecap="round" />
<path d="M-247.1800000081396,-281.5 L-230.1800000081396,-298.5" stroke="#4477AA" stroke-width="3.0" stroke-linecap="round" />
<path d="M366.17999997371464,79.09090909090907 C324.17999997371464,79.09090909090907,366.1799999737146,-183.27272727272728,366.1799999737146,-225.27272727272728" stroke-width="2.6" fill="none" stroke-opacity="1.0" stroke="#4477AA" />
<path d="M366.1799999737146,-237.27272727272728 L358.9799999737146,-225.27272727272728 L373.3799999737146,-225.27272727272728 Z" fill="#4477AA" stroke="none" />
<circle cx="366.17999997371464" cy="79.09090909090907" r="2.5" fill="#4477AA" />
<rect x="439.2799999712666" y="-193.04545454545456" width="17.0" height="17.0" fill="#E08A3C" opacity="1.0" />
<path d="M124.09999998072206,176.04545454545456 L141.09999998072206,193.04545454545456" stroke="#E08A3C" stroke-width="3.0" stroke-linecap="round" />
<path d="M124.09999998072206,193.04545454545456 L141.09999998072206,176.04545454545456" stroke="#E08A3C" stroke-width="3.0" stroke-linecap="round" />
<path d="M385.55999997313324,79.09090909090907 C343.55999997313324,79.09090909090907,385.55999997313324,27.636363636363626,385.55999997313324,-14.363636363636374" stroke-width="2.6" fill="none" stroke-opacity="1.0" stroke="#E08A3C" />
<path d="M385.55999997313324,-26.363636363636374 L378.35999997313326,-14.363636363636374 L392.75999997313323,-14.363636363636374 Z" fill="#E08A3C" stroke="none" />
<circle cx="385.55999997313324" cy="79.09090909090907" r="2.5" fill="#E08A3C" />
<rect x="441.3199999712054" y="-140.3181818181818" width="17.0" height="17.0" fill="#7B5EA7" opacity="1.0" />
<path d="M145.51999998007943,70.59090909090907 L162.51999998007943,87.59090909090907" stroke="#7B5EA7" stroke-width="3.0" stroke-linecap="round" />
<path d="M145.51999998007943,87.59090909090907 L162.51999998007943,70.59090909090907" stroke="#7B5EA7" stroke-width="3.0" stroke-linecap="round" />
<path d="M-2.040000015238789,-19.772727272727288 C-44.04000001523879,-19.772727272727288,-2.0400000152387747,-236.0,-2.0400000152387747,-278.0" stroke-width="2.6" fill="none" stroke-opacity="1.0" stroke="#7B5EA7" />
<path d="M-2.0400000152387747,-290.0 L-9.240000015238774,-278.0 L5.159999984761225,-278.0 Z" fill="#7B5EA7" stroke="none" />
<circle cx="-2.040000015238789" cy="-19.772727272727288" r="2.5" fill="#7B5EA7" />
<path d="M-524.0,306.0 L509.99999996940005,306.0" stroke="black" stroke-width="1.6" />
<path d="M-510.0,306.0 L-510.0,312.0" stroke="black" stroke-width="1.6" />
<text x="-510.0" y="330.0" font-size="18" text-anchor="middle" font-family="Helvetica">0.00</text>
<path d="M-255.00000000765,306.0 L-255.00000000765,312.0" stroke="black" stroke-width="1.6" />
<text x="-255.00000000765" y="330.0" font-size="18" text-anchor="middle" font-family="Helvetica">0.25</text>
<path d="M-1.5299974620575085e-08,306.0 L-1.5299974620575085e-08,312.0" stroke="black" stroke-width="1.6" />
<text x="-1.5299974620575085e-08" y="330.0" font-size="18" text-anchor="middle" font-family="Helvetica">0.50</text>
<path d="M254.99999997705004,306.0 L254.99999997705004,312.0" stroke="black" stroke-width="1.6" />
<text x="254.99999997705004" y="330.0" font-size="18" text-anchor="middle" font-family="Helvetica">0.75</text>
<path d="M509.99999996940005,306.0 L509.99999996940005,312.0" stroke="black" stroke-width="1.6" />
<text x="509.99999996940005" y="330.0" font-size="18" text-anchor="middle" font-family="Helvetica">1.00</text>
<text x="-7.000000015299975" y="357.0" font-size="18" text-anchor="middle" font-family="Helvetica">Time (root to present)</text>
<text x="0" y="-368.0" font-size="32" font-weight="bold" font-family="Helvetica" text-anchor="middle" dominant-baseline="central" fill="#1a1a1a">Three gene families on one species tree</text>
<text x="-590.0" y="-314.0" font-size="22" font-weight="bold" font-family="Helvetica" text-anchor="start" dominant-baseline="central" fill="#1a1a1a">Gene family</text>
<rect x="-590.0" y="-285.6" width="18.0" height="18.0" fill="#4477AA" opacity="1.0" />
<text x="-559.0" y="-276.6" font-size="22" font-family="Helvetica" text-anchor="start" dominant-baseline="central" fill="#1a1a1a">Family 1</text>
<rect x="-590.0" y="-248.20000000000002" width="18.0" height="18.0" fill="#E08A3C" opacity="1.0" />
<text x="-559.0" y="-239.20000000000002" font-size="22" font-family="Helvetica" text-anchor="start" dominant-baseline="central" fill="#1a1a1a">Family 2</text>
<rect x="-590.0" y="-210.8" width="18.0" height="18.0" fill="#7B5EA7" opacity="1.0" />
<text x="-559.0" y="-201.8" font-size="22" font-family="Helvetica" text-anchor="start" dominant-baseline="central" fill="#1a1a1a">Family 3</text>
<text x="-380.0" y="-314.0" font-size="22" font-weight="bold" font-family="Helvetica" text-anchor="start" dominant-baseline="central" fill="#1a1a1a">Event</text>
<path d="M-371.0,-284.25 L-363.35,-276.6 L-371.0,-268.95000000000005 L-378.65,-276.6 Z" fill="#1a1a1a" stroke="none" />
<text x="-349.0" y="-276.6" font-size="22" font-family="Helvetica" text-anchor="start" dominant-baseline="central" fill="#1a1a1a">Origination</text>
<rect x="-380.0" y="-249.60000000000002" width="18.0" height="18.0" fill="#1a1a1a" opacity="1.0" />
<text x="-349.0" y="-240.60000000000002" font-size="22" font-family="Helvetica" text-anchor="start" dominant-baseline="central" fill="#1a1a1a">Duplication</text>
<circle cx="-380.0" cy="-204.60000000000002" r="3.2" fill="#1a1a1a" />
<path d="M-380.0,-204.60000000000002 C-380.0,-216.60000000000002,-362.0,-216.60000000000002,-362.0,-204.60000000000002" stroke="#1a1a1a" stroke-width="2.6" fill="none" stroke-linecap="round" />
<path d="M-362.0,-203.60000000000002 L-367.0,-212.60000000000002 L-357.0,-212.60000000000002 Z" fill="#1a1a1a" />
<text x="-349.0" y="-204.60000000000002" font-size="22" font-family="Helvetica" text-anchor="start" dominant-baseline="central" fill="#1a1a1a">Transfer</text>
<path d="M-380.0,-177.60000000000002 L-362.0,-159.60000000000002" stroke="#1a1a1a" stroke-width="3.0" stroke-linecap="round" />
<path d="M-380.0,-159.60000000000002 L-362.0,-177.60000000000002" stroke="#1a1a1a" stroke-width="3.0" stroke-linecap="round" />
<text x="-349.0" y="-168.60000000000002" font-size="22" font-family="Helvetica" text-anchor="start" dominant-baseline="central" fill="#1a1a1a">Loss</text>
</svg>