<?xml version="1.0" encoding="UTF-8"?>
<svg xmlns="http://www.w3.org/2000/svg" xmlns:xlink="http://www.w3.org/1999/xlink"
     width="1300" height="1030" viewBox="-650.0 -515.0 1300 1030">
<defs>
</defs>
<rect x="-650.0" y="-515.0" width="1300" height="1030" fill="white" />
<path d="M-365.0,-230.0 L364.99999997810005,-230.0" stroke="#1a1a1a" stroke-width="2.6" stroke-linecap="round" />
<path d="M-32.872363319063766,-188.1818181818182 L365.0,-188.1818181818182" stroke="#1a1a1a" stroke-width="2.6" stroke-linecap="round" />
<path d="M178.77860885258667,-146.36363636363637 L364.9999999270001,-146.36363636363637" stroke="#1a1a1a" stroke-width="2.6" stroke-linecap="round" />
<path d="M309.2488559264725,-104.54545454545453 L364.9999999416001,-104.54545454545453" stroke="#1a1a1a" stroke-width="2.6" stroke-linecap="round" />
<path d="M309.2488559264725,-62.72727272727272 L364.9999999416001,-62.72727272727272" stroke="#1a1a1a" stroke-width="2.6" stroke-linecap="round" />
<path d="M193.84435364093474,-83.63636363636363 L309.2488559264725,-83.63636363636363" stroke="#1a1a1a" stroke-width="2.6" stroke-linecap="round" />
<path d="M309.2488559264725,-104.54545454545453 L309.2488559264725,-62.72727272727272" stroke="#1a1a1a" stroke-width="2.6" stroke-linecap="round" />
<path d="M201.47549351050577,-20.909090909090907 L364.9999999416001,-20.909090909090907" stroke="#1a1a1a" stroke-width="2.6" stroke-linecap="round" />
<path d="M201.47549351050577,20.909090909090935 L364.9999999416001,20.909090909090935" stroke="#1a1a1a" stroke-width="2.6" stroke-linecap="round" />
<path d="M193.84435364093474,1.4210854715202004e-14 L201.47549351050577,1.4210854715202004e-14" stroke="#1a1a1a" stroke-width="2.6" stroke-linecap="round" />
<path d="M201.47549351050577,-20.909090909090907 L201.47549351050577,20.909090909090935" stroke="#1a1a1a" stroke-width="2.6" stroke-linecap="round" />
<path d="M178.77860885258667,-41.818181818181806 L193.84435364093474,-41.818181818181806" stroke="#1a1a1a" stroke-width="2.6" stroke-linecap="round" />
<path d="M193.84435364093474,-83.63636363636363 L193.84435364093474,1.4210854715202004e-14" stroke="#1a1a1a" stroke-width="2.6" stroke-linecap="round" />
<path d="M70.02221700484938,-94.0909090909091 L178.77860885258667,-94.0909090909091" stroke="#1a1a1a" stroke-width="2.6" stroke-linecap="round" />
<path d="M178.77860885258667,-146.36363636363637 L178.77860885258667,-41.818181818181806" stroke="#1a1a1a" stroke-width="2.6" stroke-linecap="round" />
<path d="M70.02221700484938,62.72727272727275 L364.9999999270001,62.72727272727275" stroke="#1a1a1a" stroke-width="2.6" stroke-linecap="round" />
<path d="M-32.872363319063766,-15.681818181818173 L70.02221700484938,-15.681818181818173" stroke="#1a1a1a" stroke-width="2.6" stroke-linecap="round" />
<path d="M70.02221700484938,-94.0909090909091 L70.02221700484938,62.72727272727275" stroke="#1a1a1a" stroke-width="2.6" stroke-linecap="round" />
<path d="M-349.0296863185791,-101.93181818181819 L-32.872363319063766,-101.93181818181819" stroke="#1a1a1a" stroke-width="2.6" stroke-linecap="round" />
<path d="M-32.872363319063766,-188.1818181818182 L-32.872363319063766,-15.681818181818173" stroke="#1a1a1a" stroke-width="2.6" stroke-linecap="round" />
<path d="M-37.452200745926405,104.54545454545456 L364.9999999270001,104.54545454545456" stroke="#1a1a1a" stroke-width="2.6" stroke-linecap="round" />
<path d="M0.23501954704300942,146.36363636363637 L364.99999997810005,146.36363636363637" stroke="#1a1a1a" stroke-width="2.6" stroke-linecap="round" />
<path d="M175.5606913777832,188.1818181818182 L364.99999997810005,188.1818181818182" stroke="#1a1a1a" stroke-width="2.6" stroke-linecap="round" />
<path d="M175.5606913777832,230.0 L364.99999997810005,230.0" stroke="#1a1a1a" stroke-width="2.6" stroke-linecap="round" />
<path d="M0.23501954704300942,209.0909090909091 L175.5606913777832,209.0909090909091" stroke="#1a1a1a" stroke-width="2.6" stroke-linecap="round" />
<path d="M175.5606913777832,188.1818181818182 L175.5606913777832,230.0" stroke="#1a1a1a" stroke-width="2.6" stroke-linecap="round" />
<path d="M-37.452200745926405,177.72727272727275 L0.23501954704300942,177.72727272727275" stroke="#1a1a1a" stroke-width="2.6" stroke-linecap="round" />
<path d="M0.23501954704300942,146.36363636363637 L0.23501954704300942,209.0909090909091" stroke="#1a1a1a" stroke-width="2.6" stroke-linecap="round" />
<path d="M-349.0296863185791,141.13636363636365 L-37.452200745926405,141.13636363636365" stroke="#1a1a1a" stroke-width="2.6" stroke-linecap="round" />
<path d="M-37.452200745926405,104.54545454545456 L-37.452200745926405,177.72727272727275" stroke="#1a1a1a" stroke-width="2.6" stroke-linecap="round" />
<path d="M-365.0,19.602272727272734 L-349.0296863185791,19.602272727272734" stroke="#1a1a1a" stroke-width="2.6" stroke-linecap="round" />
<path d="M-349.0296863185791,-101.93181818181819 L-349.0296863185791,141.13636363636365" stroke="#1a1a1a" stroke-width="2.6" stroke-linecap="round" />
<path d="M-379.0,-105.19886363636363 L-365.0,-105.19886363636363" stroke="#1a1a1a" stroke-width="2.6" />
<path d="M-365.0,-230.0 L-365.0,19.602272727272734" stroke="#1a1a1a" stroke-width="2.6" stroke-linecap="round" />
<text x="376.99999997810005" y="-230.0" font-size="18" fill="#1a1a1a" font-family="Helvetica" transform="" text-anchor="start" dominant-baseline="middle">n6</text>
<text x="377.0" y="-188.1818181818182" font-size="18" fill="#1a1a1a" font-family="Helvetica" transform="" text-anchor="start" dominant-baseline="middle">n5</text>
<text x="376.9999999270001" y="-146.36363636363637" font-size="18" fill="#1a1a1a" font-family="Helvetica" transform="" text-anchor="start" dominant-baseline="middle">n12</text>
<text x="376.9999999416001" y="-104.54545454545453" font-size="18" fill="#1a1a1a" font-family="Helvetica" transform="" text-anchor="start" dominant-baseline="middle">n1</text>
<text x="376.9999999416001" y="-62.72727272727272" font-size="18" fill="#1a1a1a" font-family="Helvetica" transform="" text-anchor="start" dominant-baseline="middle">n7</text>
<text x="376.9999999416001" y="-20.909090909090907" font-size="18" fill="#1a1a1a" font-family="Helvetica" transform="" text-anchor="start" dominant-baseline="middle">n9</text>
<text x="376.9999999416001" y="20.909090909090935" font-size="18" fill="#1a1a1a" font-family="Helvetica" transform="" text-anchor="start" dominant-baseline="middle">n10</text>
<text x="376.9999999270001" y="62.72727272727275" font-size="18" fill="#1a1a1a" font-family="Helvetica" transform="" text-anchor="start" dominant-baseline="middle">n4</text>
<text x="376.9999999270001" y="104.54545454545456" font-size="18" fill="#1a1a1a" font-family="Helvetica" transform="" text-anchor="start" dominant-baseline="middle">n8</text>
<text x="376.99999997810005" y="146.36363636363637" font-size="18" fill="#1a1a1a" font-family="Helvetica" transform="" text-anchor="start" dominant-baseline="middle">n3</text>
<text x="376.99999997810005" y="188.1818181818182" font-size="18" fill="#1a1a1a" font-family="Helvetica" transform="" text-anchor="start" dominant-baseline="middle">n11</text>
<text x="376.99999997810005" y="230.0" font-size="18" fill="#1a1a1a" font-family="Helvetica" transform="" text-anchor="start" dominant-baseline="middle">n2</text>
<circle cx="-372.0" cy="-121.19886363636363" r="6.800000000000001" fill="#4477AA" stroke="none" />
<circle cx="-372.0" cy="-105.19886363636363" r="6.800000000000001" fill="#E08A3C" stroke="none" />
<circle cx="-372.0" cy="-89.19886363636363" r="6.800000000000001" fill="#7B5EA7" stroke="none" />
<rect x="303.9399999796768" y="-71.22727272727272" width="17.0" height="17.0" fill="#4477AA" opacity="1.0" />
<path d="M-179.32000000582536,-238.5 L-162.32000000582536,-221.5" stroke="#4477AA" stroke-width="3.0" stroke-linecap="round" />
<path d="M-179.32000000582536,-221.5 L-162.32000000582536,-238.5" stroke="#4477AA" stroke-width="3.0" stroke-linecap="round" />
<path d="M262.06999998118795,62.72727272727275 C220.06999998118795,62.72727272727275,262.0699999811879,-134.1818181818182,262.0699999811879,-176.1818181818182" stroke-width="2.6" fill="none" stroke-opacity="1.0" stroke="#4477AA" />
<path d="M262.0699999811879,-188.1818181818182 L254.8699999811879,-176.1818181818182 L269.2699999811879,-176.1818181818182 Z" fill="#4477AA" stroke="none" />
<circle cx="262.06999998118795" cy="62.72727272727275" r="2.5" fill="#4477AA" />
<rect x="311.96999997943595" y="-154.86363636363637" width="17.0" height="17.0" fill="#E08A3C" opacity="1.0" />
<path d="M86.39999998620306,137.86363636363637 L103.39999998620306,154.86363636363637" stroke="#E08A3C" stroke-width="3.0" stroke-linecap="round" />
<path d="M86.39999998620306,154.86363636363637 L103.39999998620306,137.86363636363637" stroke="#E08A3C" stroke-width="3.0" stroke-linecap="round" />
<path d="M275.93999998077186,62.72727272727275 C233.93999998077186,62.72727272727275,275.93999998077186,33.09090909090909,275.93999998077186,-8.909090909090907" stroke-width="2.6" fill="none" stroke-opacity="1.0" stroke="#E08A3C" />
<path d="M275.93999998077186,-20.909090909090907 L268.73999998077187,-8.909090909090907 L283.13999998077185,-8.909090909090907 Z" fill="#E08A3C" stroke="none" />
<circle cx="275.93999998077186" cy="62.72727272727275" r="2.5" fill="#E08A3C" />
<rect x="313.4299999793921" y="-113.04545454545453" width="17.0" height="17.0" fill="#7B5EA7" opacity="1.0" />
<path d="M101.72999998574318,54.22727272727275 L118.72999998574318,71.22727272727275" stroke="#7B5EA7" stroke-width="3.0" stroke-linecap="round" />
<path d="M101.72999998574318,71.22727272727275 L118.72999998574318,54.22727272727275" stroke="#7B5EA7" stroke-width="3.0" stroke-linecap="round" />
<path d="M-1.460000010906164,-15.681818181818173 C-43.460000010906164,-15.681818181818173,-1.4600000109061853,-176.0,-1.4600000109061853,-218.0" stroke-width="2.6" fill="none" stroke-opacity="1.0" stroke="#7B5EA7" />
<path d="M-1.4600000109061853,-230.0 L-8.660000010906185,-218.0 L5.739999989093814,-218.0 Z" fill="#7B5EA7" stroke="none" />
<circle cx="-1.460000010906164" cy="-15.681818181818173" r="2.5" fill="#7B5EA7" />
<path d="M-379.0,246.0 L364.99999997810005,246.0" stroke="black" stroke-width="1.6" />
<path d="M-365.0,246.0 L-365.0,252.0" stroke="black" stroke-width="1.6" />
<text x="-365.0" y="270.0" font-size="18" text-anchor="middle" font-family="Helvetica">0.00</text>
<path d="M-182.500000005475,246.0 L-182.500000005475,252.0" stroke="black" stroke-width="1.6" />
<text x="-182.500000005475" y="270.0" font-size="18" text-anchor="middle" font-family="Helvetica">0.25</text>
<path d="M-1.0949975148832891e-08,246.0 L-1.0949975148832891e-08,252.0" stroke="black" stroke-width="1.6" />
<text x="-1.0949975148832891e-08" y="270.0" font-size="18" text-anchor="middle" font-family="Helvetica">0.50</text>
<path d="M182.49999998357498,246.0 L182.49999998357498,252.0" stroke="black" stroke-width="1.6" />
<text x="182.49999998357498" y="270.0" font-size="18" text-anchor="middle" font-family="Helvetica">0.75</text>
<path d="M364.99999997810005,246.0 L364.99999997810005,252.0" stroke="black" stroke-width="1.6" />
<text x="364.99999997810005" y="270.0" font-size="18" text-anchor="middle" font-family="Helvetica">1.00</text>
<text x="-7.000000010949975" y="297.0" font-size="18" text-anchor="middle" font-family="Helvetica">Time (root to present)</text>
<text x="0" y="-471.0" font-size="32" font-weight="bold" font-family="Helvetica" text-anchor="middle" dominant-baseline="central" fill="#1a1a1a">Three gene families on one species tree</text>
<text x="-604.0" y="-415.0" font-size="22" font-weight="bold" font-family="Helvetica" text-anchor="start" dominant-baseline="central" fill="#1a1a1a">Gene family</text>
<rect x="-604.0" y="-390.9" width="20.0" height="20.0" fill="#4477AA" opacity="1.0" />
<text x="-564.0" y="-380.9" font-size="22" font-family="Helvetica" text-anchor="start" dominant-baseline="central" fill="#1a1a1a">Family 1</text>
<rect x="-604.0" y="-356.79999999999995" width="20.0" height="20.0" fill="#E08A3C" opacity="1.0" />
<text x="-564.0" y="-346.79999999999995" font-size="22" font-family="Helvetica" text-anchor="start" dominant-baseline="central" fill="#1a1a1a">Family 2</text>
<rect x="-604.0" y="-322.69999999999993" width="20.0" height="20.0" fill="#7B5EA7" opacity="1.0" />
<text x="-564.0" y="-312.69999999999993" font-size="22" font-family="Helvetica" text-anchor="start" dominant-baseline="central" fill="#1a1a1a">Family 3</text>
<text x="-304.0" y="-415.0" font-size="22" font-weight="bold" font-family="Helvetica" text-anchor="start" dominant-baseline="central" fill="#1a1a1a">Event</text>
<circle cx="-294.0" cy="-380.9" r="10" fill="#1a1a1a" stroke="none" />
<text x="-264.0" y="-380.9" font-size="22" font-family="Helvetica" text-anchor="start" dominant-baseline="central" fill="#1a1a1a">Origination</text>
<rect x="-304.0" y="-356.79999999999995" width="20.0" height="20.0" fill="#1a1a1a" opacity="1.0" />
<text x="-264.0" y="-346.79999999999995" font-size="22" font-family="Helvetica" text-anchor="start" dominant-baseline="central" fill="#1a1a1a">Duplication</text>
<circle cx="-304.0" cy="-312.69999999999993" r="3.4" fill="#1a1a1a" />
<path d="M-304.0,-312.69999999999993 C-304.0,-323.69999999999993,-284.0,-323.69999999999993,-284.0,-312.69999999999993" stroke="#1a1a1a" stroke-width="2.6" fill="none" stroke-linecap="round" />
<path d="M-284.0,-311.69999999999993 L-289.0,-319.69999999999993 L-279.0,-319.69999999999993 Z" fill="#1a1a1a" />
<text x="-264.0" y="-312.69999999999993" font-size="22" font-family="Helvetica" text-anchor="start" dominant-baseline="central" fill="#1a1a1a">Transfer</text>
<path d="M-304.0,-288.5999999999999 L-284.0,-268.5999999999999" stroke="#1a1a1a" stroke-width="3.0" stroke-linecap="round" />
<path d="M-304.0,-268.5999999999999 L-284.0,-288.5999999999999" stroke="#1a1a1a" stroke-width="3.0" stroke-linecap="round" />
<text x="-264.0" y="-278.5999999999999" font-size="22" font-family="Helvetica" text-anchor="start" dominant-baseline="central" fill="#1a1a1a">Loss</text>
</svg>