<?xml version="1.0" encoding="UTF-8"?>
<svg xmlns="http://www.w3.org/2000/svg" xmlns:xlink="http://www.w3.org/1999/xlink"
     width="1200" height="620" viewBox="0 0 1200 620">
<defs>
<linearGradient x1="0" y1="0" x2="1" y2="0" gradientUnits="objectBoundingBox" id="d0">
<stop offset="0.0" stop-color="#440154" />
<stop offset="0.25" stop-color="#3b528b" />
<stop offset="0.5" stop-color="#21918c" />
<stop offset="0.75" stop-color="#5ec962" />
<stop offset="1.0" stop-color="#fde725" />
</linearGradient>
<linearGradient x1="0" y1="0" x2="1" y2="0" gradientUnits="objectBoundingBox" id="d1">
<stop offset="0.0" stop-color="#440154" />
<stop offset="0.25" stop-color="#3b528b" />
<stop offset="0.5" stop-color="#21918c" />
<stop offset="0.75" stop-color="#5ec962" />
<stop offset="1.0" stop-color="#fde725" />
</linearGradient>
</defs>
<rect x="0" y="0" width="1200" height="620" fill="white" />
<text x="600.0" y="46" font-size="32" font-family="Helvetica" text-anchor="middle" font-weight="bold" fill="#1a1a1a">Continuous-trait diversification (QuaSSE)</text>
<text x="110" y="150" font-size="22" font-family="Helvetica" text-anchor="start" fill="#1a1a1a" font-weight="bold">A</text>
<text x="290.0" y="150" font-size="22" font-family="Helvetica" text-anchor="middle" fill="#1a1a1a" font-weight="bold">the model</text>
<use xlink:href="#d0" />
<rect x="110" y="526" width="360" height="14" fill="url(#d0)" stroke="#1a1a1a" stroke-width="0.8" />
<text x="290.0" y="560" font-size="22" font-family="Helvetica" text-anchor="middle" fill="#8a8a8a">trait value  x</text>
<path d="M110,200 L110,500" stroke="#1a1a1a" stroke-width="1.4" />
<path d="M110,500 L470,500" stroke="#1a1a1a" stroke-width="1.4" />
<text x="96" y="350.0" font-size="22" font-family="Helvetica" text-anchor="middle" dominant-baseline="central" fill="#8a8a8a" transform="rotate(-90 96 350.0)">rate</text>
<path d="M110.0,446.3168125489336 L112.26415094339623,446.22775919897515 L114.52830188679245,446.1328593757196 L116.79245283018868,446.03173470448877 L119.0566037735849,445.9239830661969 L121.32075471698113,445.8091772088756 L123.58490566037736,445.6868632920637 L125.84905660377358,445.5565593628488 L128.1132075471698,445.4177537626712 L130.37735849056602,445.26990346438924 L132.64150943396226,445.1124323395758 L134.9056603773585,444.9447293565664 L137.16981132075472,444.76614671043683 L139.43396226415092,444.5759978868451 L141.69811320754715,444.373555662565 L143.96226415094338,444.1580500465567 L146.22641509433961,443.92866616659484 L148.49056603773585,443.68454210782073 L150.75471698113205,443.42476671110563 L153.0188679245283,443.1483773408447 L155.2830188679245,442.8543576337446 L157.54716981132077,442.5416352423509 L159.81132075471697,442.2090795894996 L162.07547169811323,441.85549965258053 L164.33962264150944,441.4796417994968 L166.60377358490567,441.0801877014921 L168.8679245283019,440.65575235162095 L171.13207547169813,440.2048822215503 L173.39622641509436,439.7260535936115 L175.66037735849056,439.2176711095634 L177.9245283018868,438.6780665823603 L180.18867924528303,438.10549812232296 L182.45283018867923,437.498149634446 L184.7169811320755,436.8541307490865 L186.9811320754717,436.17147725389776 L189.24528301886792,435.4481521005057 L191.50943396226415,434.6820470649561 L193.77358490566039,433.8709851462524 L196.03773584905662,433.0127237921769 L198.30188679245282,432.1049590458481 L200.56603773584905,431.145330709871 L202.83018867924528,430.13142862721804 L205.09433962264154,429.0608001788237 L207.35849056603774,427.9309590969543 L209.62264150943398,426.73939569034195 L211.8867924528302,425.4835885714622 L214.15094339622644,424.16101796776854 L216.41509433962267,422.76918068675195 L218.67924528301887,421.30560678896177 L220.9433962264151,419.76787800321677 L223.20754716981133,418.15364789381954 L225.47169811320757,416.4606637604051 L227.7358490566038,414.6867902169554 L230.0,412.83003435748344 L232.26415094339626,410.8885723721087 L234.52830188679246,408.8607774290802 L236.7924528301887,406.7452485863899 L239.05660377358492,404.54084044185885 L241.32075471698116,402.24669317417363 L243.58490566037736,399.8622625708193 L245.8490566037736,397.38734958401153 L248.11320754716982,394.82212890469003 L250.37735849056605,392.1671759997359 L252.64150943396228,389.4234920213403 L254.9056603773585,386.592525972488 L257.1698113207547,383.6761935013799 L259.433962264151,380.67689170270376 L261.6981132075472,377.5975093270242 L263.9622641509434,374.4414318427664 L266.2264150943396,371.2125408592267 L268.49056603773585,367.9152075038588 L270.7547169811321,364.5542794519397 L273.0188679245283,361.1350614298052 L275.2830188679245,357.6632891513094 L277.54716981132077,354.14509679717884 L279.811320754717,350.58697830378935 L282.07547169811323,346.995742886176 L284.33962264150944,343.3784653739104 L286.60377358490564,339.7424320817921 L288.8679245283019,336.0950830641942 L291.1320754716981,332.4439517069617 L293.39622641509436,328.7966026893638 L295.66037735849056,325.16056939724547 L297.9245283018868,321.5432918849799 L300.1886792452831,317.95205646736656 L302.4528301886793,314.3939379739771 L304.7169811320755,310.8757456198465 L306.98113207547175,307.4039733413507 L309.24528301886795,303.98475531921616 L311.5094339622642,300.62382726729703 L313.7735849056604,297.3264939119292 L316.0377358490566,294.0976029283895 L318.3018867924529,290.9415254441317 L320.5660377358491,287.86214306845216 L322.83018867924534,284.862841269776 L325.09433962264154,281.9465087986679 L327.35849056603774,279.11554274981563 L329.622641509434,276.37185877142 L331.8867924528302,273.7169058664659 L334.15094339622647,271.1516851871444 L336.41509433962267,268.6767722003365 L338.6792452830189,266.29234159698217 L340.94339622641513,263.99819432929706 L343.20754716981133,261.79378618476596 L345.4716981132076,259.67825734207565 L347.7358490566038,257.6504623990472 L350.0,255.70900041367244 L352.26415094339626,253.8522445542005 L354.5283018867925,252.07837101075077 L356.7924528301887,250.38538687733637 L359.0566037735849,248.77115676793912 L361.3207547169811,247.2334279821941 L363.5849056603774,245.76985408440396 L365.84905660377365,244.37801680338734 L368.11320754716985,243.05544619969362 L370.37735849056605,241.79963908081396 L372.6415094339623,240.60807567420153 L374.9056603773585,239.47823459233223 L377.1698113207547,238.40760614393787 L379.433962264151,237.39370406128484 L381.6981132075472,236.43407572530782 L383.96226415094344,235.52631097897904 L386.22641509433964,234.66804962490352 L388.49056603773585,233.8569877061998 L390.7547169811321,233.09088267065027 L393.0188679245283,232.36755751725815 L395.28301886792457,231.68490402206942 L397.54716981132077,231.04088513670985 L399.811320754717,230.43353664883296 L402.07547169811323,229.8609681887956 L404.33962264150944,229.3213636615925 L406.6037735849057,228.81298117754443 L408.8679245283019,228.33415254960562 L411.1320754716981,227.88328241953502 L413.39622641509436,227.45884706966382 L415.66037735849056,227.05939297165912 L417.9245283018868,226.68353511857538 L420.188679245283,226.32995518165632 L422.45283018867923,225.99739952880503 L424.7169811320755,225.68467713741137 L426.9811320754717,225.39065743031114 L429.24528301886795,225.11426806005028 L431.50943396226415,224.85449266333524 L433.7735849056604,224.61036860456107 L436.0377358490566,224.38098472459927 L438.3018867924528,224.1654791085909 L440.5660377358491,223.96303688431084 L442.8301886792453,223.77288806071908 L445.09433962264154,223.59430541458948 L447.35849056603774,223.4266024315802 L449.62264150943395,223.26913130676667 L451.8867924528302,223.1212810084847 L454.1509433962264,222.9824754083071 L456.41509433962267,222.85217147909225 L458.6792452830189,222.7298575622803 L460.9433962264151,222.615051704959 L463.20754716981133,222.50730006666714 L465.47169811320754,222.40617539543632 L467.7358490566038,222.31127557218076 L470.0,222.22222222222223" fill="none" stroke="#1a1a1a" stroke-width="3.4" />
<path d="M110.0,473.83202906088076 L112.26415094339623,473.83202906088076 L114.52830188679245,473.83202906088076 L116.79245283018868,473.83202906088076 L119.0566037735849,473.83202906088076 L121.32075471698113,473.83202906088076 L123.58490566037736,473.83202906088076 L125.84905660377358,473.83202906088076 L128.1132075471698,473.83202906088076 L130.37735849056602,473.83202906088076 L132.64150943396226,473.83202906088076 L134.9056603773585,473.83202906088076 L137.16981132075472,473.83202906088076 L139.43396226415092,473.83202906088076 L141.69811320754715,473.83202906088076 L143.96226415094338,473.83202906088076 L146.22641509433961,473.83202906088076 L148.49056603773585,473.83202906088076 L150.75471698113205,473.83202906088076 L153.0188679245283,473.83202906088076 L155.2830188679245,473.83202906088076 L157.54716981132077,473.83202906088076 L159.81132075471697,473.83202906088076 L162.07547169811323,473.83202906088076 L164.33962264150944,473.83202906088076 L166.60377358490567,473.83202906088076 L168.8679245283019,473.83202906088076 L171.13207547169813,473.83202906088076 L173.39622641509436,473.83202906088076 L175.66037735849056,473.83202906088076 L177.9245283018868,473.83202906088076 L180.18867924528303,473.83202906088076 L182.45283018867923,473.83202906088076 L184.7169811320755,473.83202906088076 L186.9811320754717,473.83202906088076 L189.24528301886792,473.83202906088076 L191.50943396226415,473.83202906088076 L193.77358490566039,473.83202906088076 L196.03773584905662,473.83202906088076 L198.30188679245282,473.83202906088076 L200.56603773584905,473.83202906088076 L202.83018867924528,473.83202906088076 L205.09433962264154,473.83202906088076 L207.35849056603774,473.83202906088076 L209.62264150943398,473.83202906088076 L211.8867924528302,473.83202906088076 L214.15094339622644,473.83202906088076 L216.41509433962267,473.83202906088076 L218.67924528301887,473.83202906088076 L220.9433962264151,473.83202906088076 L223.20754716981133,473.83202906088076 L225.47169811320757,473.83202906088076 L227.7358490566038,473.83202906088076 L230.0,473.83202906088076 L232.26415094339626,473.83202906088076 L234.52830188679246,473.83202906088076 L236.7924528301887,473.83202906088076 L239.05660377358492,473.83202906088076 L241.32075471698116,473.83202906088076 L243.58490566037736,473.83202906088076 L245.8490566037736,473.83202906088076 L248.11320754716982,473.83202906088076 L250.37735849056605,473.83202906088076 L252.64150943396228,473.83202906088076 L254.9056603773585,473.83202906088076 L257.1698113207547,473.83202906088076 L259.433962264151,473.83202906088076 L261.6981132075472,473.83202906088076 L263.9622641509434,473.83202906088076 L266.2264150943396,473.83202906088076 L268.49056603773585,473.83202906088076 L270.7547169811321,473.83202906088076 L273.0188679245283,473.83202906088076 L275.2830188679245,473.83202906088076 L277.54716981132077,473.83202906088076 L279.811320754717,473.83202906088076 L282.07547169811323,473.83202906088076 L284.33962264150944,473.83202906088076 L286.60377358490564,473.83202906088076 L288.8679245283019,473.83202906088076 L291.1320754716981,473.83202906088076 L293.39622641509436,473.83202906088076 L295.66037735849056,473.83202906088076 L297.9245283018868,473.83202906088076 L300.1886792452831,473.83202906088076 L302.4528301886793,473.83202906088076 L304.7169811320755,473.83202906088076 L306.98113207547175,473.83202906088076 L309.24528301886795,473.83202906088076 L311.5094339622642,473.83202906088076 L313.7735849056604,473.83202906088076 L316.0377358490566,473.83202906088076 L318.3018867924529,473.83202906088076 L320.5660377358491,473.83202906088076 L322.83018867924534,473.83202906088076 L325.09433962264154,473.83202906088076 L327.35849056603774,473.83202906088076 L329.622641509434,473.83202906088076 L331.8867924528302,473.83202906088076 L334.15094339622647,473.83202906088076 L336.41509433962267,473.83202906088076 L338.6792452830189,473.83202906088076 L340.94339622641513,473.83202906088076 L343.20754716981133,473.83202906088076 L345.4716981132076,473.83202906088076 L347.7358490566038,473.83202906088076 L350.0,473.83202906088076 L352.26415094339626,473.83202906088076 L354.5283018867925,473.83202906088076 L356.7924528301887,473.83202906088076 L359.0566037735849,473.83202906088076 L361.3207547169811,473.83202906088076 L363.5849056603774,473.83202906088076 L365.84905660377365,473.83202906088076 L368.11320754716985,473.83202906088076 L370.37735849056605,473.83202906088076 L372.6415094339623,473.83202906088076 L374.9056603773585,473.83202906088076 L377.1698113207547,473.83202906088076 L379.433962264151,473.83202906088076 L381.6981132075472,473.83202906088076 L383.96226415094344,473.83202906088076 L386.22641509433964,473.83202906088076 L388.49056603773585,473.83202906088076 L390.7547169811321,473.83202906088076 L393.0188679245283,473.83202906088076 L395.28301886792457,473.83202906088076 L397.54716981132077,473.83202906088076 L399.811320754717,473.83202906088076 L402.07547169811323,473.83202906088076 L404.33962264150944,473.83202906088076 L406.6037735849057,473.83202906088076 L408.8679245283019,473.83202906088076 L411.1320754716981,473.83202906088076 L413.39622641509436,473.83202906088076 L415.66037735849056,473.83202906088076 L417.9245283018868,473.83202906088076 L420.188679245283,473.83202906088076 L422.45283018867923,473.83202906088076 L424.7169811320755,473.83202906088076 L426.9811320754717,473.83202906088076 L429.24528301886795,473.83202906088076 L431.50943396226415,473.83202906088076 L433.7735849056604,473.83202906088076 L436.0377358490566,473.83202906088076 L438.3018867924528,473.83202906088076 L440.5660377358491,473.83202906088076 L442.8301886792453,473.83202906088076 L445.09433962264154,473.83202906088076 L447.35849056603774,473.83202906088076 L449.62264150943395,473.83202906088076 L451.8867924528302,473.83202906088076 L454.1509433962264,473.83202906088076 L456.41509433962267,473.83202906088076 L458.6792452830189,473.83202906088076 L460.9433962264151,473.83202906088076 L463.20754716981133,473.83202906088076 L465.47169811320754,473.83202906088076 L467.7358490566038,473.83202906088076 L470.0,473.83202906088076" fill="none" stroke="#8a8a8a" stroke-width="3.0" stroke-dasharray="7,5" />
<text x="309.6875" y="203.04428648502864" font-size="22" font-family="Helvetica" text-anchor="middle" fill="#1a1a1a" font-weight="bold">lambda(x)</text>
<text x="171.875" y="459.83202906088076" font-size="22" font-family="Helvetica" text-anchor="middle" fill="#8a8a8a">mu(x)</text>
<text x="620" y="150" font-size="22" font-family="Helvetica" text-anchor="start" fill="#1a1a1a" font-weight="bold">B</text>
<text x="880.0" y="150" font-size="22" font-family="Helvetica" text-anchor="middle" fill="#1a1a1a" font-weight="bold">a simulated realization</text>
<path d="M660.0,261.6666666666667 L850.9494273412995,261.6666666666667" stroke="#3d4381" stroke-width="4.4" stroke-linecap="butt" />
<path d="M660.0,446.23958333333337 L769.7162636935764,446.23958333333337" stroke="#375d8b" stroke-width="4.4" stroke-linecap="butt" />
<path d="M850.9494273412995,248.66666666666666 L965.2942319489894,248.66666666666666" stroke="#3d417f" stroke-width="4.4" stroke-linecap="butt" />
<path d="M850.9494273412995,274.6666666666667 L977.3239103424013,274.6666666666667" stroke="#40246c" stroke-width="4.4" stroke-linecap="butt" />
<path d="M971.8239103424013,269.1666666666667 L982.8239103424013,280.1666666666667" stroke="#1a1a1a" stroke-width="2.0" />
<path d="M971.8239103424013,280.1666666666667 L982.8239103424013,269.1666666666667" stroke="#1a1a1a" stroke-width="2.0" />
<path d="M769.7162636935764,392.47916666666663 L946.242962572949,392.47916666666663" stroke="#46b373" stroke-width="4.4" stroke-linecap="butt" />
<path d="M769.7162636935764,500.0 L829.186706041559,500.0" stroke="#27828c" stroke-width="4.4" stroke-linecap="butt" />
<path d="M823.686706041559,494.5 L834.686706041559,505.5" stroke="#1a1a1a" stroke-width="2.0" />
<path d="M823.686706041559,505.5 L834.686706041559,494.5" stroke="#1a1a1a" stroke-width="2.0" />
<path d="M965.2942319489894,240.0 L1030.0,240.0" stroke="#3d4482" stroke-width="4.4" stroke-linecap="butt" />
<path d="M965.2942319489894,257.3333333333333 L1030.0,257.3333333333333" stroke="#35618b" stroke-width="4.4" stroke-linecap="butt" />
<path d="M946.242962572949,339.6666666666667 L959.6114293004337,339.6666666666667" stroke="#c0db3c" stroke-width="4.4" stroke-linecap="butt" />
<path d="M946.242962572949,445.29166666666663 L976.5999565179122,445.29166666666663" stroke="#afd843" stroke-width="4.4" stroke-linecap="butt" />
<path d="M959.6114293004337,318.0 L1024.2110635863344,318.0" stroke="#7ace57" stroke-width="4.4" stroke-linecap="butt" />
<path d="M959.6114293004337,361.3333333333333 L1030.0,361.3333333333333" stroke="#d0de36" stroke-width="4.4" stroke-linecap="butt" />
<path d="M976.5999565179122,407.9166666666667 L979.8626326019737,407.9166666666667" stroke="#a2d648" stroke-width="4.4" stroke-linecap="butt" />
<path d="M976.5999565179122,482.66666666666663 L1030.0,482.66666666666663" stroke="#79ce58" stroke-width="4.4" stroke-linecap="butt" />
<path d="M1024.2110635863344,300.6666666666667 L1030.0,300.6666666666667" stroke="#55c168" stroke-width="4.4" stroke-linecap="butt" />
<path d="M1024.2110635863344,335.3333333333333 L1024.8308220894708,335.3333333333333" stroke="#4dba6d" stroke-width="4.4" stroke-linecap="butt" />
<path d="M979.8626326019737,378.66666666666663 L1030.0,378.66666666666663" stroke="#c6dd3a" stroke-width="4.4" stroke-linecap="butt" />
<path d="M979.8626326019737,437.16666666666663 L993.9610339263702,437.16666666666663" stroke="#98d44c" stroke-width="4.4" stroke-linecap="butt" />
<path d="M1030.0,292.0 L1030.0,292.0" stroke="#5bc664" stroke-width="4.4" stroke-linecap="butt" />
<path d="M1030.0,309.3333333333333 L1030.0,309.3333333333333" stroke="#5bc664" stroke-width="4.4" stroke-linecap="butt" />
<path d="M1024.8308220894708,326.66666666666663 L1030.0,326.66666666666663" stroke="#4fbb6c" stroke-width="4.4" stroke-linecap="butt" />
<path d="M1024.8308220894708,344.0 L1030.0,344.0" stroke="#4db96e" stroke-width="4.4" stroke-linecap="butt" />
<path d="M993.9610339263702,417.66666666666663 L999.5162954302825,417.66666666666663" stroke="#87d152" stroke-width="4.4" stroke-linecap="butt" />
<path d="M993.9610339263702,456.6666666666667 L1016.5432911302389,456.6666666666667" stroke="#b2d942" stroke-width="4.4" stroke-linecap="butt" />
<path d="M999.5162954302825,404.66666666666663 L1015.749152722633,404.66666666666663" stroke="#86d053" stroke-width="4.4" stroke-linecap="butt" />
<path d="M999.5162954302825,430.66666666666663 L1030.0,430.66666666666663" stroke="#57c367" stroke-width="4.4" stroke-linecap="butt" />
<path d="M1016.5432911302389,448.0 L1030.0,448.0" stroke="#dce132" stroke-width="4.4" stroke-linecap="butt" />
<path d="M1016.5432911302389,465.33333333333337 L1030.0,465.33333333333337" stroke="#eee42b" stroke-width="4.4" stroke-linecap="butt" />
<path d="M1015.749152722633,396.0 L1030.0,396.0" stroke="#72cd5a" stroke-width="4.4" stroke-linecap="butt" />
<path d="M1015.749152722633,413.3333333333333 L1030.0,413.3333333333333" stroke="#a6d747" stroke-width="4.4" stroke-linecap="butt" />
<path d="M965.2942319489894,240.0 L965.2942319489894,257.3333333333333" stroke="#3e3b7c" stroke-width="3.2" />
<path d="M850.9494273412995,248.66666666666666 L850.9494273412995,274.6666666666667" stroke="#3c4783" stroke-width="3.2" />
<path d="M1030.0,292.0 L1030.0,309.3333333333333" stroke="#5bc664" stroke-width="3.2" />
<path d="M1024.8308220894708,326.66666666666663 L1024.8308220894708,344.0" stroke="#4cb86e" stroke-width="3.2" />
<path d="M1024.2110635863344,300.6666666666667 L1024.2110635863344,335.3333333333333" stroke="#4fbb6c" stroke-width="3.2" />
<path d="M959.6114293004337,318.0 L959.6114293004337,361.3333333333333" stroke="#bcdb3e" stroke-width="3.2" />
<path d="M1015.749152722633,396.0 L1015.749152722633,413.3333333333333" stroke="#83d054" stroke-width="3.2" />
<path d="M999.5162954302825,404.66666666666663 L999.5162954302825,430.66666666666663" stroke="#88d152" stroke-width="3.2" />
<path d="M1016.5432911302389,448.0 L1016.5432911302389,465.33333333333337" stroke="#dfe131" stroke-width="3.2" />
<path d="M993.9610339263702,417.66666666666663 L993.9610339263702,456.6666666666667" stroke="#86d153" stroke-width="3.2" />
<path d="M979.8626326019737,378.66666666666663 L979.8626326019737,437.16666666666663" stroke="#abd745" stroke-width="3.2" />
<path d="M976.5999565179122,407.9166666666667 L976.5999565179122,482.66666666666663" stroke="#9ad44b" stroke-width="3.2" />
<path d="M946.242962572949,339.6666666666667 L946.242962572949,445.29166666666663" stroke="#c3dc3b" stroke-width="3.2" />
<path d="M769.7162636935764,392.47916666666663 L769.7162636935764,500.0" stroke="#2c768c" stroke-width="3.2" />
<path d="M660.0,261.6666666666667 L660.0,446.23958333333337" stroke="#3d407e" stroke-width="3.2" />
<rect x="1098" y="232.0" width="16" height="16" fill="#3c4d88" stroke="#1a1a1a" stroke-width="1.0" />
<rect x="1098" y="249.33333333333331" width="16" height="16" fill="#27828c" stroke="#1a1a1a" stroke-width="1.0" />
<rect x="1098" y="284.0" width="16" height="16" fill="#5bc664" stroke="#1a1a1a" stroke-width="1.0" />
<rect x="1098" y="301.3333333333333" width="16" height="16" fill="#5bc664" stroke="#1a1a1a" stroke-width="1.0" />
<rect x="1098" y="318.66666666666663" width="16" height="16" fill="#52be6a" stroke="#1a1a1a" stroke-width="1.0" />
<rect x="1098" y="336.0" width="16" height="16" fill="#4dba6e" stroke="#1a1a1a" stroke-width="1.0" />
<rect x="1098" y="353.3333333333333" width="16" height="16" fill="#e3e22f" stroke="#1a1a1a" stroke-width="1.0" />
<rect x="1098" y="370.66666666666663" width="16" height="16" fill="#e1e230" stroke="#1a1a1a" stroke-width="1.0" />
<rect x="1098" y="388.0" width="16" height="16" fill="#60c961" stroke="#1a1a1a" stroke-width="1.0" />
<rect x="1098" y="405.3333333333333" width="16" height="16" fill="#c8dd39" stroke="#1a1a1a" stroke-width="1.0" />
<rect x="1098" y="422.66666666666663" width="16" height="16" fill="#40ae77" stroke="#1a1a1a" stroke-width="1.0" />
<rect x="1098" y="440.0" width="16" height="16" fill="#d9e033" stroke="#1a1a1a" stroke-width="1.0" />
<rect x="1098" y="457.33333333333337" width="16" height="16" fill="#fde725" stroke="#1a1a1a" stroke-width="1.0" />
<rect x="1098" y="474.66666666666663" width="16" height="16" fill="#5bc764" stroke="#1a1a1a" stroke-width="1.0" />
<use xlink:href="#d1" />
<rect x="780.0" y="526" width="200" height="14" fill="url(#d1)" stroke="#1a1a1a" stroke-width="0.8" />
<text x="780.0" y="560" font-size="22" font-family="Helvetica" text-anchor="start" fill="#555">-0.6</text>
<text x="980.0" y="560" font-size="22" font-family="Helvetica" text-anchor="end" fill="#555">+2.5</text>
<text x="880.0" y="560" font-size="22" font-family="Helvetica" text-anchor="middle" fill="#8a8a8a">trait value</text>
</svg>