<?xml version="1.0" encoding="UTF-8"?>
<svg xmlns="http://www.w3.org/2000/svg" xmlns:xlink="http://www.w3.org/1999/xlink"
     width="1120" height="600" viewBox="0 0 1120 600">
<defs>
</defs>
<rect x="0" y="0" width="1120" height="600" fill="white" />
<text x="40" y="40" font-size="20" font-family="Helvetica" text-anchor="start" font-weight="bold" fill="#1a1a1a">Multivariate Brownian motion — traits evolve jointly</text>
<text x="40" y="64" font-size="13.5" font-family="Helvetica" text-anchor="start" fill="#777">the rate matrix R sets each trait's variance and their covariance;  dots = endpoints, ring = 95% ellipse, lines = sample paths</text>
<rect x="110" y="150" width="384" height="384" fill="none" stroke="#cccccc" stroke-width="1.2" />
<path d="M110,342.0 L494,342.0" stroke="#d9d9d9" stroke-width="1" />
<path d="M302.0,150 L302.0,534" stroke="#d9d9d9" stroke-width="1" />
<text x="488" y="334.0" font-size="12" font-family="Helvetica" text-anchor="end" fill="#999">trait X</text>
<text x="310.0" y="164" font-size="12" font-family="Helvetica" text-anchor="start" fill="#999">trait Y</text>
<circle cx="349.05010162384843" cy="428.66871009104216" r="2.6" fill="#8aa9c8" fill-opacity="0.5" />
<circle cx="310.58002683545357" cy="362.0997827021088" r="2.6" fill="#8aa9c8" fill-opacity="0.5" />
<circle cx="272.8354027057323" cy="364.2685353591207" r="2.6" fill="#8aa9c8" fill-opacity="0.5" />
<circle cx="189.32988955262357" cy="402.6540013127419" r="2.6" fill="#8aa9c8" fill-opacity="0.5" />
<circle cx="335.66515060371955" cy="186.49593760224923" r="2.6" fill="#8aa9c8" fill-opacity="0.5" />
<circle cx="305.53191635035785" cy="355.2947718698463" r="2.6" fill="#8aa9c8" fill-opacity="0.5" />
<circle cx="271.09175093131677" cy="384.15941788199524" r="2.6" fill="#8aa9c8" fill-opacity="0.5" />
<circle cx="236.69123307526033" cy="387.9822338637806" r="2.6" fill="#8aa9c8" fill-opacity="0.5" />
<circle cx="321.84659085429587" cy="343.11337991167215" r="2.6" fill="#8aa9c8" fill-opacity="0.5" />
<circle cx="348.0061880892256" cy="329.66830884244985" r="2.6" fill="#8aa9c8" fill-opacity="0.5" />
<circle cx="340.2906332180156" cy="259.445765730751" r="2.6" fill="#8aa9c8" fill-opacity="0.5" />
<circle cx="318.8121937452037" cy="355.7429846781174" r="2.6" fill="#8aa9c8" fill-opacity="0.5" />
<circle cx="305.2434110966608" cy="317.71326944581085" r="2.6" fill="#8aa9c8" fill-opacity="0.5" />
<circle cx="398.16177062005346" cy="309.97519989458704" r="2.6" fill="#8aa9c8" fill-opacity="0.5" />
<circle cx="313.0778843610696" cy="294.6785583922454" r="2.6" fill="#8aa9c8" fill-opacity="0.5" />
<circle cx="248.00856065475017" cy="378.6899204879197" r="2.6" fill="#8aa9c8" fill-opacity="0.5" />
<circle cx="362.692791239165" cy="290.0981600703793" r="2.6" fill="#8aa9c8" fill-opacity="0.5" />
<circle cx="322.8941419852365" cy="304.2742172425126" r="2.6" fill="#8aa9c8" fill-opacity="0.5" />
<circle cx="176.47331775739428" cy="355.5421258980575" r="2.6" fill="#8aa9c8" fill-opacity="0.5" />
<circle cx="211.16713549169094" cy="453.45759419115495" r="2.6" fill="#8aa9c8" fill-opacity="0.5" />
<circle cx="333.42945678160413" cy="298.2331141033882" r="2.6" fill="#8aa9c8" fill-opacity="0.5" />
<circle cx="252.6471584398857" cy="409.7277763795477" r="2.6" fill="#8aa9c8" fill-opacity="0.5" />
<circle cx="302.122701009632" cy="344.1717612966055" r="2.6" fill="#8aa9c8" fill-opacity="0.5" />
<circle cx="394.4292222819597" cy="268.71812836644" r="2.6" fill="#8aa9c8" fill-opacity="0.5" />
<circle cx="338.8883702021002" cy="278.4114826281727" r="2.6" fill="#8aa9c8" fill-opacity="0.5" />
<circle cx="268.9369255869966" cy="396.01948237642375" r="2.6" fill="#8aa9c8" fill-opacity="0.5" />
<circle cx="346.91701410045914" cy="297.1272009502917" r="2.6" fill="#8aa9c8" fill-opacity="0.5" />
<circle cx="271.8687850488419" cy="388.6542598046013" r="2.6" fill="#8aa9c8" fill-opacity="0.5" />
<circle cx="254.4524854100088" cy="468.76346175133676" r="2.6" fill="#8aa9c8" fill-opacity="0.5" />
<circle cx="350.35917447208465" cy="299.4228330746156" r="2.6" fill="#8aa9c8" fill-opacity="0.5" />
<circle cx="216.5615569202657" cy="377.9777695167187" r="2.6" fill="#8aa9c8" fill-opacity="0.5" />
<circle cx="269.0011623974402" cy="324.92405336112296" r="2.6" fill="#8aa9c8" fill-opacity="0.5" />
<circle cx="172.23856597895184" cy="439.1891362625365" r="2.6" fill="#8aa9c8" fill-opacity="0.5" />
<circle cx="367.3105558136658" cy="263.69101332989516" r="2.6" fill="#8aa9c8" fill-opacity="0.5" />
<circle cx="175.64071750776108" cy="420.06937600860533" r="2.6" fill="#8aa9c8" fill-opacity="0.5" />
<circle cx="304.81107526821705" cy="366.45397870974506" r="2.6" fill="#8aa9c8" fill-opacity="0.5" />
<circle cx="357.83441215608514" cy="367.09262531128724" r="2.6" fill="#8aa9c8" fill-opacity="0.5" />
<circle cx="295.7035716555325" cy="389.1091545941093" r="2.6" fill="#8aa9c8" fill-opacity="0.5" />
<circle cx="376.0386720674603" cy="309.4919220326254" r="2.6" fill="#8aa9c8" fill-opacity="0.5" />
<circle cx="241.12962741201918" cy="442.024827445639" r="2.6" fill="#8aa9c8" fill-opacity="0.5" />
<circle cx="409.2058769713724" cy="261.82094346118885" r="2.6" fill="#8aa9c8" fill-opacity="0.5" />
<circle cx="369.1996497784784" cy="263.6202070532767" r="2.6" fill="#8aa9c8" fill-opacity="0.5" />
<circle cx="305.2167608378312" cy="367.53882283342557" r="2.6" fill="#8aa9c8" fill-opacity="0.5" />
<circle cx="240.40857210530672" cy="403.59022796250133" r="2.6" fill="#8aa9c8" fill-opacity="0.5" />
<circle cx="339.6948183003532" cy="386.64564839140314" r="2.6" fill="#8aa9c8" fill-opacity="0.5" />
<circle cx="262.68505409812235" cy="373.3112923023258" r="2.6" fill="#8aa9c8" fill-opacity="0.5" />
<circle cx="327.68417624165016" cy="306.11275864827815" r="2.6" fill="#8aa9c8" fill-opacity="0.5" />
<circle cx="194.34808779421" cy="463.642208705484" r="2.6" fill="#8aa9c8" fill-opacity="0.5" />
<circle cx="330.81645181318174" cy="277.75145922949315" r="2.6" fill="#8aa9c8" fill-opacity="0.5" />
<circle cx="347.30840686892554" cy="312.44162296661085" r="2.6" fill="#8aa9c8" fill-opacity="0.5" />
<circle cx="292.20100559016333" cy="334.04221361514345" r="2.6" fill="#8aa9c8" fill-opacity="0.5" />
<circle cx="308.6586122674" cy="304.48926653304306" r="2.6" fill="#8aa9c8" fill-opacity="0.5" />
<circle cx="263.08462751412304" cy="353.8990150757469" r="2.6" fill="#8aa9c8" fill-opacity="0.5" />
<circle cx="309.13247419970537" cy="315.83801232708015" r="2.6" fill="#8aa9c8" fill-opacity="0.5" />
<circle cx="374.95562237198806" cy="201.3964907143092" r="2.6" fill="#8aa9c8" fill-opacity="0.5" />
<circle cx="417.30152293493546" cy="226.75426157755834" r="2.6" fill="#8aa9c8" fill-opacity="0.5" />
<circle cx="185.7003589656299" cy="408.86874029568605" r="2.6" fill="#8aa9c8" fill-opacity="0.5" />
<circle cx="282.47831738992613" cy="328.319290877653" r="2.6" fill="#8aa9c8" fill-opacity="0.5" />
<circle cx="209.26063898761618" cy="334.2731743050525" r="2.6" fill="#8aa9c8" fill-opacity="0.5" />
<circle cx="327.4119415639799" cy="385.5059979019433" r="2.6" fill="#8aa9c8" fill-opacity="0.5" />
<circle cx="230.9298259157349" cy="407.91012992891297" r="2.6" fill="#8aa9c8" fill-opacity="0.5" />
<circle cx="319.6396371678278" cy="306.9734489585336" r="2.6" fill="#8aa9c8" fill-opacity="0.5" />
<circle cx="405.87108648914244" cy="303.44764762707587" r="2.6" fill="#8aa9c8" fill-opacity="0.5" />
<circle cx="346.42040036416586" cy="315.38570142039225" r="2.6" fill="#8aa9c8" fill-opacity="0.5" />
<circle cx="413.0932484369655" cy="260.51456022330166" r="2.6" fill="#8aa9c8" fill-opacity="0.5" />
<circle cx="348.77540718612005" cy="366.38752054211096" r="2.6" fill="#8aa9c8" fill-opacity="0.5" />
<circle cx="272.3253984546841" cy="389.7555240272385" r="2.6" fill="#8aa9c8" fill-opacity="0.5" />
<circle cx="397.5487375296441" cy="271.1002079304442" r="2.6" fill="#8aa9c8" fill-opacity="0.5" />
<circle cx="274.98719550977205" cy="373.2985779096573" r="2.6" fill="#8aa9c8" fill-opacity="0.5" />
<circle cx="310.90880620581953" cy="367.5976784017806" r="2.6" fill="#8aa9c8" fill-opacity="0.5" />
<circle cx="264.17254561636696" cy="338.7550654822894" r="2.6" fill="#8aa9c8" fill-opacity="0.5" />
<circle cx="426.7257049610714" cy="296.0892939093297" r="2.6" fill="#8aa9c8" fill-opacity="0.5" />
<circle cx="244.48754481216238" cy="417.4118312818591" r="2.6" fill="#8aa9c8" fill-opacity="0.5" />
<circle cx="243.7727112401933" cy="346.11836680711986" r="2.6" fill="#8aa9c8" fill-opacity="0.5" />
<circle cx="347.33695390736216" cy="321.1467788023415" r="2.6" fill="#8aa9c8" fill-opacity="0.5" />
<circle cx="322.4110429985647" cy="327.8917762354456" r="2.6" fill="#8aa9c8" fill-opacity="0.5" />
<circle cx="272.8192410920843" cy="419.6117086862449" r="2.6" fill="#8aa9c8" fill-opacity="0.5" />
<circle cx="280.3750097749947" cy="347.0548787882295" r="2.6" fill="#8aa9c8" fill-opacity="0.5" />
<circle cx="249.06449174385816" cy="386.0122490065748" r="2.6" fill="#8aa9c8" fill-opacity="0.5" />
<circle cx="250.57947548876996" cy="379.29329524201427" r="2.6" fill="#8aa9c8" fill-opacity="0.5" />
<circle cx="337.50677039209256" cy="343.13871688007424" r="2.6" fill="#8aa9c8" fill-opacity="0.5" />
<circle cx="313.31932833192167" cy="302.53262687869" r="2.6" fill="#8aa9c8" fill-opacity="0.5" />
<circle cx="376.7718096913803" cy="236.67001300526795" r="2.6" fill="#8aa9c8" fill-opacity="0.5" />
<circle cx="211.6550984290627" cy="346.60398454834257" r="2.6" fill="#8aa9c8" fill-opacity="0.5" />
<circle cx="279.64918393819124" cy="346.4024260809807" r="2.6" fill="#8aa9c8" fill-opacity="0.5" />
<circle cx="372.35464504718357" cy="264.5025543479501" r="2.6" fill="#8aa9c8" fill-opacity="0.5" />
<circle cx="360.8288171934" cy="308.8946446023988" r="2.6" fill="#8aa9c8" fill-opacity="0.5" />
<circle cx="380.58508554977914" cy="318.47344274795034" r="2.6" fill="#8aa9c8" fill-opacity="0.5" />
<circle cx="313.65888396668026" cy="302.98597124888704" r="2.6" fill="#8aa9c8" fill-opacity="0.5" />
<circle cx="324.4894200591366" cy="240.60792781921367" r="2.6" fill="#8aa9c8" fill-opacity="0.5" />
<circle cx="408.1269761659569" cy="202.23320544085703" r="2.6" fill="#8aa9c8" fill-opacity="0.5" />
<circle cx="291.41954839593154" cy="362.95134216713836" r="2.6" fill="#8aa9c8" fill-opacity="0.5" />
<circle cx="328.4428467658497" cy="299.04723322137164" r="2.6" fill="#8aa9c8" fill-opacity="0.5" />
<circle cx="279.9386092846088" cy="335.9267162762215" r="2.6" fill="#8aa9c8" fill-opacity="0.5" />
<circle cx="339.78539860108657" cy="256.7240984317199" r="2.6" fill="#8aa9c8" fill-opacity="0.5" />
<circle cx="291.9007433653445" cy="302.3868614628858" r="2.6" fill="#8aa9c8" fill-opacity="0.5" />
<circle cx="244.86063546761184" cy="408.35451093434926" r="2.6" fill="#8aa9c8" fill-opacity="0.5" />
<circle cx="235.84254529250148" cy="422.1177873465276" r="2.6" fill="#8aa9c8" fill-opacity="0.5" />
<circle cx="334.4473574441166" cy="283.8097935082553" r="2.6" fill="#8aa9c8" fill-opacity="0.5" />
<circle cx="325.658691720065" cy="304.9591923919328" r="2.6" fill="#8aa9c8" fill-opacity="0.5" />
<circle cx="395.0166922599351" cy="288.6094240570476" r="2.6" fill="#8aa9c8" fill-opacity="0.5" />
<circle cx="305.7648096266573" cy="351.9144290329316" r="2.6" fill="#8aa9c8" fill-opacity="0.5" />
<circle cx="234.9031261687173" cy="340.21014752206474" r="2.6" fill="#8aa9c8" fill-opacity="0.5" />
<circle cx="224.48036539802385" cy="349.4356525216908" r="2.6" fill="#8aa9c8" fill-opacity="0.5" />
<circle cx="328.2137260680376" cy="282.5905855961256" r="2.6" fill="#8aa9c8" fill-opacity="0.5" />
<circle cx="278.70027264967837" cy="387.2758698215131" r="2.6" fill="#8aa9c8" fill-opacity="0.5" />
<circle cx="307.5686177368626" cy="363.1410957892671" r="2.6" fill="#8aa9c8" fill-opacity="0.5" />
<circle cx="293.40633195078624" cy="344.11141025943016" r="2.6" fill="#8aa9c8" fill-opacity="0.5" />
<circle cx="290.3453617517051" cy="355.2328946331137" r="2.6" fill="#8aa9c8" fill-opacity="0.5" />
<circle cx="253.32866064619614" cy="371.9568315954259" r="2.6" fill="#8aa9c8" fill-opacity="0.5" />
<circle cx="184.83945347049348" cy="401.531208001629" r="2.6" fill="#8aa9c8" fill-opacity="0.5" />
<circle cx="265.28525462816845" cy="311.27271842553495" r="2.6" fill="#8aa9c8" fill-opacity="0.5" />
<circle cx="322.6390380769277" cy="415.06139909667263" r="2.6" fill="#8aa9c8" fill-opacity="0.5" />
<circle cx="306.6598834602838" cy="345.23191908612046" r="2.6" fill="#8aa9c8" fill-opacity="0.5" />
<circle cx="259.22042146715745" cy="338.8633960534282" r="2.6" fill="#8aa9c8" fill-opacity="0.5" />
<circle cx="235.20387211792485" cy="446.78622391209285" r="2.6" fill="#8aa9c8" fill-opacity="0.5" />
<circle cx="284.3094615610356" cy="356.24549018421897" r="2.6" fill="#8aa9c8" fill-opacity="0.5" />
<circle cx="278.1704393076561" cy="404.74342300432176" r="2.6" fill="#8aa9c8" fill-opacity="0.5" />
<circle cx="352.254531107737" cy="288.26107147328696" r="2.6" fill="#8aa9c8" fill-opacity="0.5" />
<circle cx="225.46598235194722" cy="404.3675679645114" r="2.6" fill="#8aa9c8" fill-opacity="0.5" />
<circle cx="284.19254958376666" cy="373.93364716337544" r="2.6" fill="#8aa9c8" fill-opacity="0.5" />
<circle cx="399.45780855841673" cy="289.20786398533414" r="2.6" fill="#8aa9c8" fill-opacity="0.5" />
<circle cx="229.54382421997326" cy="407.98423079880735" r="2.6" fill="#8aa9c8" fill-opacity="0.5" />
<circle cx="353.9092176614239" cy="221.63262767634103" r="2.6" fill="#8aa9c8" fill-opacity="0.5" />
<circle cx="295.5983578049636" cy="339.5073660913892" r="2.6" fill="#8aa9c8" fill-opacity="0.5" />
<circle cx="328.2988261695166" cy="331.82252115910063" r="2.6" fill="#8aa9c8" fill-opacity="0.5" />
<circle cx="410.2176652774341" cy="315.5913767470566" r="2.6" fill="#8aa9c8" fill-opacity="0.5" />
<circle cx="345.30502570178714" cy="315.6772333865682" r="2.6" fill="#8aa9c8" fill-opacity="0.5" />
<circle cx="306.7747752815726" cy="389.5260052751155" r="2.6" fill="#8aa9c8" fill-opacity="0.5" />
<circle cx="392.85229268439724" cy="306.1190586543854" r="2.6" fill="#8aa9c8" fill-opacity="0.5" />
<circle cx="281.42999779909997" cy="390.7631519881369" r="2.6" fill="#8aa9c8" fill-opacity="0.5" />
<circle cx="276.81178627249335" cy="329.54647696092394" r="2.6" fill="#8aa9c8" fill-opacity="0.5" />
<circle cx="372.3447730622049" cy="278.44054171181523" r="2.6" fill="#8aa9c8" fill-opacity="0.5" />
<circle cx="383.2141954446157" cy="275.17071619171804" r="2.6" fill="#8aa9c8" fill-opacity="0.5" />
<circle cx="323.53423287482116" cy="296.9584462208105" r="2.6" fill="#8aa9c8" fill-opacity="0.5" />
<circle cx="331.07066058470275" cy="333.1236232538261" r="2.6" fill="#8aa9c8" fill-opacity="0.5" />
<circle cx="371.2802725559941" cy="256.43973686978336" r="2.6" fill="#8aa9c8" fill-opacity="0.5" />
<circle cx="305.9121993551505" cy="355.27402381183197" r="2.6" fill="#8aa9c8" fill-opacity="0.5" />
<circle cx="385.61248323283945" cy="224.00176069817832" r="2.6" fill="#8aa9c8" fill-opacity="0.5" />
<circle cx="288.62435597758326" cy="351.9355735919744" r="2.6" fill="#8aa9c8" fill-opacity="0.5" />
<circle cx="324.0437966792414" cy="280.4095868786462" r="2.6" fill="#8aa9c8" fill-opacity="0.5" />
<circle cx="213.33269155967764" cy="366.57876654474086" r="2.6" fill="#8aa9c8" fill-opacity="0.5" />
<circle cx="345.75376456888824" cy="356.5923324976553" r="2.6" fill="#8aa9c8" fill-opacity="0.5" />
<circle cx="393.7734813159062" cy="277.969599402412" r="2.6" fill="#8aa9c8" fill-opacity="0.5" />
<circle cx="277.7718539669421" cy="344.31757914919586" r="2.6" fill="#8aa9c8" fill-opacity="0.5" />
<circle cx="207.08849545851706" cy="408.72470933913445" r="2.6" fill="#8aa9c8" fill-opacity="0.5" />
<circle cx="377.4830226006731" cy="345.6648425858757" r="2.6" fill="#8aa9c8" fill-opacity="0.5" />
<circle cx="397.86327229462455" cy="302.1700461083265" r="2.6" fill="#8aa9c8" fill-opacity="0.5" />
<circle cx="355.7969032131143" cy="315.8617400254884" r="2.6" fill="#8aa9c8" fill-opacity="0.5" />
<circle cx="169.4279865857653" cy="426.02422482836823" r="2.6" fill="#8aa9c8" fill-opacity="0.5" />
<circle cx="284.5161019077778" cy="398.4890851624616" r="2.6" fill="#8aa9c8" fill-opacity="0.5" />
<circle cx="239.3138385670801" cy="354.83607890214125" r="2.6" fill="#8aa9c8" fill-opacity="0.5" />
<circle cx="226.9670478671763" cy="447.47403493146146" r="2.6" fill="#8aa9c8" fill-opacity="0.5" />
<circle cx="286.3264901635556" cy="312.73233901561025" r="2.6" fill="#8aa9c8" fill-opacity="0.5" />
<circle cx="299.2544411476274" cy="303.7704710986476" r="2.6" fill="#8aa9c8" fill-opacity="0.5" />
<circle cx="383.7682754876973" cy="303.7155750477012" r="2.6" fill="#8aa9c8" fill-opacity="0.5" />
<circle cx="210.936771009282" cy="438.06342541761035" r="2.6" fill="#8aa9c8" fill-opacity="0.5" />
<circle cx="321.6986692688562" cy="295.9068716418231" r="2.6" fill="#8aa9c8" fill-opacity="0.5" />
<circle cx="329.3659959874428" cy="306.5396953034702" r="2.6" fill="#8aa9c8" fill-opacity="0.5" />
<circle cx="285.68156030190613" cy="336.68165307836256" r="2.6" fill="#8aa9c8" fill-opacity="0.5" />
<circle cx="269.2124003378554" cy="370.54908730344096" r="2.6" fill="#8aa9c8" fill-opacity="0.5" />
<circle cx="195.8373690795986" cy="456.30711161583156" r="2.6" fill="#8aa9c8" fill-opacity="0.5" />
<circle cx="249.92833006609362" cy="412.2721833503091" r="2.6" fill="#8aa9c8" fill-opacity="0.5" />
<circle cx="267.2222367397446" cy="329.3655979341402" r="2.6" fill="#8aa9c8" fill-opacity="0.5" />
<circle cx="366.0805249595467" cy="190.02982240057213" r="2.6" fill="#8aa9c8" fill-opacity="0.5" />
<circle cx="335.9657234638094" cy="353.4024129900893" r="2.6" fill="#8aa9c8" fill-opacity="0.5" />
<circle cx="351.79828005571704" cy="304.45491133788056" r="2.6" fill="#8aa9c8" fill-opacity="0.5" />
<circle cx="292.0330824440837" cy="299.9443416547592" r="2.6" fill="#8aa9c8" fill-opacity="0.5" />
<circle cx="187.67286917183282" cy="522.7432077589991" r="2.6" fill="#8aa9c8" fill-opacity="0.5" />
<circle cx="329.33247466141927" cy="355.7242199642575" r="2.6" fill="#8aa9c8" fill-opacity="0.5" />
<circle cx="365.2512618192893" cy="340.8784748809708" r="2.6" fill="#8aa9c8" fill-opacity="0.5" />
<circle cx="276.4212221499314" cy="288.16595129800135" r="2.6" fill="#8aa9c8" fill-opacity="0.5" />
<circle cx="249.83616008061992" cy="356.95970852627727" r="2.6" fill="#8aa9c8" fill-opacity="0.5" />
<circle cx="381.6186033133647" cy="301.22444693785985" r="2.6" fill="#8aa9c8" fill-opacity="0.5" />
<circle cx="300.17848647923313" cy="338.49763417367285" r="2.6" fill="#8aa9c8" fill-opacity="0.5" />
<circle cx="327.1806368454892" cy="364.69909586487097" r="2.6" fill="#8aa9c8" fill-opacity="0.5" />
<circle cx="348.1958959677617" cy="296.7805573371487" r="2.6" fill="#8aa9c8" fill-opacity="0.5" />
<circle cx="417.64582680418886" cy="304.0047202594054" r="2.6" fill="#8aa9c8" fill-opacity="0.5" />
<circle cx="271.09841053186153" cy="324.88655289484177" r="2.6" fill="#8aa9c8" fill-opacity="0.5" />
<circle cx="287.86002539893553" cy="336.17565704302524" r="2.6" fill="#8aa9c8" fill-opacity="0.5" />
<circle cx="336.99966435669273" cy="276.86746469653343" r="2.6" fill="#8aa9c8" fill-opacity="0.5" />
<circle cx="264.9594868608311" cy="362.61700895555003" r="2.6" fill="#8aa9c8" fill-opacity="0.5" />
<circle cx="145.35601238325464" cy="450.29493298595264" r="2.6" fill="#8aa9c8" fill-opacity="0.5" />
<circle cx="367.15665431100905" cy="341.3624649961303" r="2.6" fill="#8aa9c8" fill-opacity="0.5" />
<circle cx="235.64680189062352" cy="423.37662688297775" r="2.6" fill="#8aa9c8" fill-opacity="0.5" />
<circle cx="337.00886060433936" cy="318.6811503429816" r="2.6" fill="#8aa9c8" fill-opacity="0.5" />
<circle cx="255.03906790794662" cy="335.0171580202063" r="2.6" fill="#8aa9c8" fill-opacity="0.5" />
<circle cx="333.84338582168346" cy="295.78781419027194" r="2.6" fill="#8aa9c8" fill-opacity="0.5" />
<circle cx="309.58771538640656" cy="265.19080777976944" r="2.6" fill="#8aa9c8" fill-opacity="0.5" />
<circle cx="320.93678961287276" cy="338.38705396270865" r="2.6" fill="#8aa9c8" fill-opacity="0.5" />
<circle cx="268.6259530133008" cy="367.40293687996143" r="2.6" fill="#8aa9c8" fill-opacity="0.5" />
<circle cx="341.1023964082694" cy="335.70512901479646" r="2.6" fill="#8aa9c8" fill-opacity="0.5" />
<circle cx="373.0733529219609" cy="285.39843474775614" r="2.6" fill="#8aa9c8" fill-opacity="0.5" />
<circle cx="392.8916312215781" cy="266.5961053724683" r="2.6" fill="#8aa9c8" fill-opacity="0.5" />
<circle cx="252.95622362424083" cy="444.75725058145275" r="2.6" fill="#8aa9c8" fill-opacity="0.5" />
<circle cx="336.72199274106543" cy="293.00875773482295" r="2.6" fill="#8aa9c8" fill-opacity="0.5" />
<circle cx="323.9580069205597" cy="308.59357314161275" r="2.6" fill="#8aa9c8" fill-opacity="0.5" />
<circle cx="267.8824571724388" cy="373.46612418359325" r="2.6" fill="#8aa9c8" fill-opacity="0.5" />
<circle cx="284.62739318046135" cy="292.33873200581905" r="2.6" fill="#8aa9c8" fill-opacity="0.5" />
<circle cx="298.61027599759086" cy="364.32442503923187" r="2.6" fill="#8aa9c8" fill-opacity="0.5" />
<circle cx="227.7031465420592" cy="382.01190128349504" r="2.6" fill="#8aa9c8" fill-opacity="0.5" />
<circle cx="389.5590213044444" cy="282.9707109295988" r="2.6" fill="#8aa9c8" fill-opacity="0.5" />
<circle cx="297.79880334859934" cy="283.538897502008" r="2.6" fill="#8aa9c8" fill-opacity="0.5" />
<circle cx="401.2306388370421" cy="255.7943496219758" r="2.6" fill="#8aa9c8" fill-opacity="0.5" />
<circle cx="371.49448092877196" cy="261.8339580008016" r="2.6" fill="#8aa9c8" fill-opacity="0.5" />
<circle cx="349.3606689742382" cy="287.89775222784215" r="2.6" fill="#8aa9c8" fill-opacity="0.5" />
<circle cx="296.532666797224" cy="281.1521871247238" r="2.6" fill="#8aa9c8" fill-opacity="0.5" />
<circle cx="362.7152686164919" cy="229.1238115948277" r="2.6" fill="#8aa9c8" fill-opacity="0.5" />
<circle cx="210.5876267958599" cy="353.48053780765974" r="2.6" fill="#8aa9c8" fill-opacity="0.5" />
<circle cx="345.836842236903" cy="336.6909876221458" r="2.6" fill="#8aa9c8" fill-opacity="0.5" />
<circle cx="343.9063065937748" cy="291.48621439946226" r="2.6" fill="#8aa9c8" fill-opacity="0.5" />
<circle cx="319.6995560320624" cy="356.7961754117034" r="2.6" fill="#8aa9c8" fill-opacity="0.5" />
<circle cx="318.86713467390103" cy="291.35898033013547" r="2.6" fill="#8aa9c8" fill-opacity="0.5" />
<circle cx="372.10447479016347" cy="306.1746013003393" r="2.6" fill="#8aa9c8" fill-opacity="0.5" />
<circle cx="310.88448579632984" cy="329.52383784855346" r="2.6" fill="#8aa9c8" fill-opacity="0.5" />
<circle cx="331.7946779446737" cy="373.05488359090623" r="2.6" fill="#8aa9c8" fill-opacity="0.5" />
<circle cx="234.49669835606792" cy="367.2231329126567" r="2.6" fill="#8aa9c8" fill-opacity="0.5" />
<circle cx="229.2674197185744" cy="399.62220083885325" r="2.6" fill="#8aa9c8" fill-opacity="0.5" />
<circle cx="318.12648615080883" cy="314.3474282603346" r="2.6" fill="#8aa9c8" fill-opacity="0.5" />
<circle cx="264.3369163661099" cy="325.15552633249456" r="2.6" fill="#8aa9c8" fill-opacity="0.5" />
<circle cx="220.9977711832572" cy="355.5366092830433" r="2.6" fill="#8aa9c8" fill-opacity="0.5" />
<circle cx="187.81491717085112" cy="447.3761123864432" r="2.6" fill="#8aa9c8" fill-opacity="0.5" />
<circle cx="326.3288767942089" cy="348.1753894781401" r="2.6" fill="#8aa9c8" fill-opacity="0.5" />
<circle cx="249.16509611950806" cy="384.6303500343646" r="2.6" fill="#8aa9c8" fill-opacity="0.5" />
<circle cx="325.3664815162083" cy="333.7340098375587" r="2.6" fill="#8aa9c8" fill-opacity="0.5" />
<circle cx="325.6913069314216" cy="286.7695170463236" r="2.6" fill="#8aa9c8" fill-opacity="0.5" />
<circle cx="252.71320129332895" cy="384.1753248550978" r="2.6" fill="#8aa9c8" fill-opacity="0.5" />
<circle cx="302.2778967008341" cy="292.51913196744306" r="2.6" fill="#8aa9c8" fill-opacity="0.5" />
<circle cx="385.38365679312056" cy="250.01500804207456" r="2.6" fill="#8aa9c8" fill-opacity="0.5" />
<circle cx="296.4566643626621" cy="351.12302857745374" r="2.6" fill="#8aa9c8" fill-opacity="0.5" />
<circle cx="337.78028696888936" cy="342.5014490563658" r="2.6" fill="#8aa9c8" fill-opacity="0.5" />
<circle cx="363.38776306341686" cy="283.7067418615213" r="2.6" fill="#8aa9c8" fill-opacity="0.5" />
<circle cx="262.9772865731637" cy="363.12821614835934" r="2.6" fill="#8aa9c8" fill-opacity="0.5" />
<circle cx="337.16927622646665" cy="252.9371565674536" r="2.6" fill="#8aa9c8" fill-opacity="0.5" />
<circle cx="436.8378898920705" cy="285.35121812742955" r="2.6" fill="#8aa9c8" fill-opacity="0.5" />
<circle cx="248.1288103825172" cy="462.653709870506" r="2.6" fill="#8aa9c8" fill-opacity="0.5" />
<circle cx="313.0490128768545" cy="337.3092495800087" r="2.6" fill="#8aa9c8" fill-opacity="0.5" />
<circle cx="263.913761135598" cy="326.02258724126455" r="2.6" fill="#8aa9c8" fill-opacity="0.5" />
<circle cx="213.8262758239364" cy="390.8747900843091" r="2.6" fill="#8aa9c8" fill-opacity="0.5" />
<circle cx="279.4646389748009" cy="404.90937426267215" r="2.6" fill="#8aa9c8" fill-opacity="0.5" />
<circle cx="372.7004482448717" cy="265.5156679146755" r="2.6" fill="#8aa9c8" fill-opacity="0.5" />
<circle cx="194.77821290859026" cy="449.8448487761344" r="2.6" fill="#8aa9c8" fill-opacity="0.5" />
<circle cx="333.20724100497705" cy="329.20022043851606" r="2.6" fill="#8aa9c8" fill-opacity="0.5" />
<circle cx="230.69317283574156" cy="386.65442260137473" r="2.6" fill="#8aa9c8" fill-opacity="0.5" />
<circle cx="292.8743913871919" cy="352.15898324927343" r="2.6" fill="#8aa9c8" fill-opacity="0.5" />
<circle cx="355.0780014497524" cy="301.81771924607256" r="2.6" fill="#8aa9c8" fill-opacity="0.5" />
<circle cx="428.7328083368727" cy="226.76110625941965" r="2.6" fill="#8aa9c8" fill-opacity="0.5" />
<circle cx="363.76220273130616" cy="268.64199792799707" r="2.6" fill="#8aa9c8" fill-opacity="0.5" />
<circle cx="389.10122514221166" cy="272.87186093894104" r="2.6" fill="#8aa9c8" fill-opacity="0.5" />
<circle cx="257.5728785411051" cy="325.76793773589395" r="2.6" fill="#8aa9c8" fill-opacity="0.5" />
<circle cx="344.5839739674983" cy="254.42581755106744" r="2.6" fill="#8aa9c8" fill-opacity="0.5" />
<circle cx="319.54816587289486" cy="311.86948462544035" r="2.6" fill="#8aa9c8" fill-opacity="0.5" />
<circle cx="359.726024703974" cy="244.95512151701098" r="2.6" fill="#8aa9c8" fill-opacity="0.5" />
<circle cx="304.9435203305369" cy="352.0520351465153" r="2.6" fill="#8aa9c8" fill-opacity="0.5" />
<circle cx="307.86982584137576" cy="357.90763066282926" r="2.6" fill="#8aa9c8" fill-opacity="0.5" />
<circle cx="310.41392954828365" cy="338.51730732572014" r="2.6" fill="#8aa9c8" fill-opacity="0.5" />
<circle cx="362.4438625374553" cy="233.5078037511107" r="2.6" fill="#8aa9c8" fill-opacity="0.5" />
<circle cx="281.37166218212053" cy="349.7508460920495" r="2.6" fill="#8aa9c8" fill-opacity="0.5" />
<circle cx="307.5222403491997" cy="311.1074821912267" r="2.6" fill="#8aa9c8" fill-opacity="0.5" />
<circle cx="222.75945125378365" cy="407.0195989783638" r="2.6" fill="#8aa9c8" fill-opacity="0.5" />
<circle cx="312.9796985060396" cy="313.9835756085178" r="2.6" fill="#8aa9c8" fill-opacity="0.5" />
<circle cx="287.5697953329844" cy="369.63762462157376" r="2.6" fill="#8aa9c8" fill-opacity="0.5" />
<circle cx="268.28335163948657" cy="335.61250179594623" r="2.6" fill="#8aa9c8" fill-opacity="0.5" />
<circle cx="386.20756617993936" cy="290.35456038371257" r="2.6" fill="#8aa9c8" fill-opacity="0.5" />
<circle cx="322.6021541363451" cy="313.9581955068714" r="2.6" fill="#8aa9c8" fill-opacity="0.5" />
<circle cx="244.55101878159059" cy="381.09325668895144" r="2.6" fill="#8aa9c8" fill-opacity="0.5" />
<circle cx="294.8596256092432" cy="332.75733806106786" r="2.6" fill="#8aa9c8" fill-opacity="0.5" />
<circle cx="271.1832773267921" cy="407.27124954914734" r="2.6" fill="#8aa9c8" fill-opacity="0.5" />
<circle cx="402.18310864251947" cy="225.3171273016148" r="2.6" fill="#8aa9c8" fill-opacity="0.5" />
<circle cx="297.5904246262275" cy="327.1502880066568" r="2.6" fill="#8aa9c8" fill-opacity="0.5" />
<circle cx="334.95077619031315" cy="293.9946191747178" r="2.6" fill="#8aa9c8" fill-opacity="0.5" />
<circle cx="262.14097015561845" cy="291.8868750305211" r="2.6" fill="#8aa9c8" fill-opacity="0.5" />
<circle cx="307.45350663777947" cy="286.15875595154785" r="2.6" fill="#8aa9c8" fill-opacity="0.5" />
<circle cx="296.9526579683377" cy="360.7266665031858" r="2.6" fill="#8aa9c8" fill-opacity="0.5" />
<circle cx="316.0286245933656" cy="297.78590210644626" r="2.6" fill="#8aa9c8" fill-opacity="0.5" />
<circle cx="247.24015093059438" cy="382.5606282673502" r="2.6" fill="#8aa9c8" fill-opacity="0.5" />
<circle cx="235.36566357442507" cy="444.5112286886605" r="2.6" fill="#8aa9c8" fill-opacity="0.5" />
<circle cx="384.8179545966606" cy="280.172197830144" r="2.6" fill="#8aa9c8" fill-opacity="0.5" />
<circle cx="328.7256750084523" cy="280.80224563859406" r="2.6" fill="#8aa9c8" fill-opacity="0.5" />
<circle cx="249.52311980415212" cy="368.79018820022816" r="2.6" fill="#8aa9c8" fill-opacity="0.5" />
<path d="M260.85924182187364,300.85924182187364 L268.63976218758495,293.2836826439627 L276.5864815800068,285.9508257086144 L284.6598098428583,278.89720294022663 L292.8195260608346,272.15795513262367 L301.02497893818395,265.76665687938834 L309.23528932141824,259.75514930692634 L317.4095538571993,254.1533814435756 L325.50704877078795,248.98926101505378 L333.48743274984093,244.28851540957277 L341.3109479228002,240.07456350528435 L348.9386179306088,236.36839899860735 L356.33244210497134,233.18848581468842 L363.45558478577175,230.55066612105531 L370.2725588344791,228.46808140273544 L376.7494024292873,226.9511069920381 L382.85384826120173,226.00730037917145 L388.5554842881511,225.6413635612057 L393.8259052462498,225.8551196169609 L398.6388541633952,226.64750362451946 L402.9703531701805,228.01456796661387 L406.7988229564349,229.94950199745733 L410.10519027826126,232.44266597303812 L412.87298297997756,235.48163907584 L415.088412057568,239.0512812947298 L416.74044035480756,243.13380885173143 L417.8208375498189,247.70888279991323 L418.3242211581221,252.75371035099874 L418.2480833479015,258.24315842789076 L417.5928034338979,264.149878876398 L416.3616459876812,270.44444471236307 L414.56074457371943,277.09549672541726 L412.1990711922687,284.06989970898985 L409.28839158131973,291.3329075382396 L405.8432066002827,298.8483362735018 L401.8806799874349,306.57874442685477 L397.42055285104055,314.4856194937299 L392.4850453201418,322.5295698202719 L387.0987458449942,330.6705208505769 L381.28848869864373,338.8679147761142 L375.0832202899287,347.08091259268826 L368.51385495392697,355.2685975583032 L361.61312093829315,363.3901790383135 L354.4153973527759,371.40519572231347 L346.9565428942216,379.27371720035114 L339.27371720035114,386.9565428942217 L331.40519572231347,394.4153973527759 L323.3901790383135,401.61312093829315 L315.2685975583033,408.5138549539269 L307.0809125926883,415.0832202899287 L298.8679147761143,421.28848869864373 L290.67052085057696,427.0987458449942 L282.52956982027194,432.4850453201418 L274.4856194937299,437.4205528510405 L266.5787444268549,441.88067998743486 L258.8483362735019,445.84320660028266 L251.33290753823968,449.28839158131973 L244.0698997089899,452.19907119226866 L237.09549672541732,454.5607445737194 L230.44444471236304,456.36164598768124 L224.14987887639802,457.5928034338979 L218.24315842789076,458.24808334790157 L212.75371035099877,458.3242211581221 L207.7088827999133,457.82083754981886 L203.13380885173146,456.74044035480756 L199.05128129472982,455.088412057568 L195.48163907584004,452.87298297997756 L192.44266597303817,450.10519027826126 L189.9495019974573,446.79882295643495 L188.01456796661392,442.9703531701805 L186.64750362451946,438.6388541633952 L185.8551196169609,433.8259052462499 L185.6413635612057,428.5554842881511 L186.00730037917145,422.8538482612018 L186.95110699203815,416.7494024292872 L188.46808140273544,410.2725588344791 L190.55066612105534,403.45558478577175 L193.18848581468842,396.3324421049714 L196.36839899860735,388.93861793060887 L200.0745635052843,381.3109479228002 L204.28851540957277,373.48743274984093 L208.9892610150538,365.5070487707879 L214.1533814435755,357.4095538571994 L219.75514930692628,349.2352893214183 L225.76665687938834,341.02497893818395 L232.15795513262364,332.8195260608346 L238.8972029402267,324.6598098428583 L245.95082570861433,316.5864815800069 L253.28368264396266,308.639762187585 L260.8592418218736,300.85924182187364 Z" fill="none" stroke="#c0436a" stroke-width="2.4" />
<path d="M302.0,342.0 L311.7148815100204,334.1186088486178 L294.9996162297849,353.55467066565507 L292.4950941396098,350.89806702824114 L289.9371687935113,352.82977493239224 L290.8724116425194,355.5664322749328 L293.4290144008602,351.58574071192106 L296.32311984992276,348.8663646201605 L294.66536155674163,347.7794718457514 L295.38891840500264,342.7961481813771 L305.41056442697374,340.91256591990737 L294.8042017787173,347.2186308511996 L298.6177081004347,341.74976245482986 L301.8675668287643,343.080251028013 L300.87639864058076,339.00532179970133 L298.18625823687984,336.3292082989937 L298.7199442628612,333.35338539837056 L303.4560999128922,328.4439263696119 L305.13138644062167,331.2183128900262 L306.4930984147116,330.5537178218258 L310.37035774504136,324.40261770625796 L307.71488986004573,328.1420028230726 L303.82280674760847,331.00810653710687 L305.54734802154786,333.1372871600387 L311.3305103902468,329.4901988291159 L307.62300549630265,335.91581829197776 L310.1196858489131,332.3212705456543 L304.61742566814297,330.5515767754651 L312.6871016322719,325.70084988445467 L319.77441469520824,313.8882600874522 L323.47917999370895,315.4195121440883 L323.08708531284356,316.1565179801611 L317.6276271448636,327.05788695349065 L319.7321437145207,328.3800644938753 L320.19016327708886,328.65911977376646 L323.4957546595428,328.2225143908323 L321.0079919086793,327.4455832238996 L326.6573532725447,326.0366130563159 L333.3275910348129,322.08995987507456 L334.0256346422284,316.33233169977615 L332.4083021196176,313.4437946063652 L331.08640192444494,312.4339182389202 L323.86065026323445,318.6846859769625 L329.014566100637,315.68683043239764 L328.2963900634611,317.5804808341204 L327.47053575878175,322.9394351126713 L322.13200171087965,325.9124103586846 L316.9755351688899,330.74018931079763 L316.3768475526663,331.50119098096707 L318.74871972420846,324.4879595090582 L325.76807078088007,316.931007445649 L324.62080432806465,319.2498661540947 L317.4004180551127,323.75159274147006 L306.87063431358365,330.5879867450743 L313.576377829585,321.7744806189974 L316.160868914043,323.6824173853068 L316.7720806558558,326.2226353859246 L320.23516624230575,325.05673431730304 L329.286775014731,311.78932289265083 L338.14021360368076,299.46939803395173 L338.26840312711244,300.588127667693 L347.734397033914,290.16166440740164 L345.4019826987729,290.94109320713056 L338.5680178503956,294.73991882588905 L342.37455625953385,293.32984958156976 L336.97638448384606,300.7884023106168 L340.240361510501,296.46896920312594 L343.4302862735786,294.11789226762716 L341.28460676181936,288.7994792133662 L340.7382788013231,289.5628061170281 L339.64665745375726,297.7749037785671 L339.08098411435884,298.51839109626036 L343.474977106167,291.7275364194507 L341.8846683472531,298.9832639612537 L340.7808225720457,298.7481187557829 L338.8482099416922,304.19271338237235 L332.50234370701344,305.09819710272933 L333.998896461565,304.4986416822945 L329.85510362472434,300.038524856538 L316.12027802223633,307.53792785093185 L325.1738583521163,304.01276838271434 L323.8283586322438,308.8279284954217 L327.3023148637866,311.8724483409724 L328.7154990495227,310.75310376469395 L325.80087499316505,308.9036296574805 L318.07207598187483,314.8315469912207 L317.10889551244645,316.73833879022607 L321.07500007266094,311.6504885455453 L318.6629059653301,314.67156627397105 L315.60627404001247,317.3560001718272 L318.7947339718719,316.6931289010194 L320.43726829450304,316.27694059371044 L318.39999522676277,314.11441802806394 L313.7602640240874,316.18675117954774 L318.2132580267378,318.0773458474155 L314.75966984540884,325.29163708318595 L309.45278415024785,333.0207247607645 L306.74317574322265,336.164798467791 L310.53991718827655,328.79731583966395 L313.1397747334181,325.27500485203836 L312.4178326309036,326.47348285013624 L305.036712916677,336.2317909778255 L308.64021090004724,328.7915922602815 L309.6945428041055,330.22118734853655 L316.21155358819533,328.8231182762855 L310.9845922873958,335.51014874182044 L306.1744654135302,338.560663066958 L314.71650701357885,335.4403859078177 L308.8686291365214,340.240647027364 L304.40668607719215,348.36322094181696 L306.3917620979412,344.9667925132366 L309.0449418754284,341.6253918621653 L299.8289770674377,351.84704686191725 L307.8046301537396,344.34159029639386 L301.31904759484036,346.5328153395601 L302.5358430391227,344.03910939613155 L302.4547933189122,345.86755239703973 L303.6476191476639,344.76867024321666 L299.6819652839913,353.1691797807207 L284.6594715869884,362.77036302803003 L277.8437591443698,364.94581952708097 L281.5854667515672,362.31782557151803 L280.07191795989,362.7495554275513 L283.8291951772542,363.65420828101514 L289.3943272817787,358.6168910727818 L293.5046065312077,351.5802369210376 L292.19433159754306,348.8083870410819 L286.4791591993515,354.1254579569864 L282.6317525553111,354.2712913533089 L278.52548404535526,355.9387951973109 L275.5881899280089,353.4598011873062 L284.274897926978,348.7317265535656 L292.7744016380624,342.89418652179677 L302.69850358125893,338.05845585305974 L298.67588490554385,334.5551876155558 L296.01386847432383,339.4532741409667 L289.7823221964579,348.06985399233827 L286.8633956751457,353.21030553984866 L294.85952827992844,347.2294842718926 L284.36427501214456,357.3534014823923 L277.9285741359804,367.1280830593298" fill="none" stroke="#2f5c86" stroke-width="1.5" stroke-opacity="0.85" stroke-linejoin="round" />
<circle cx="277.9285741359804" cy="367.1280830593298" r="3.4" fill="#2f5c86" />
<path d="M302.0,342.0 L301.41997276169366,342.41687827052607 L296.850787903301,346.42964564360506 L301.96281281278823,339.0487183222914 L308.7354996412424,335.8689866345607 L311.07742346148154,337.4466226992681 L310.98215105079663,340.91421615083107 L311.7464688038329,344.9884208054569 L307.40429848117736,346.97832479514614 L306.9909613758824,352.29703241212997 L304.8592969564686,352.7770143015315 L304.18881729309453,356.0729316037168 L304.08236351707853,357.07462094373153 L311.50070104730025,351.73857358533496 L301.1123256915399,364.28430323878865 L303.9515048057738,358.78438738059793 L306.5147185812365,354.4796617047242 L301.5831079421273,361.57301626091294 L305.1383134977083,359.61506363279295 L305.4073171446357,364.4237439675218 L304.9555187290148,366.8597910708922 L307.39565474045315,367.8304546386603 L303.4884471974615,371.6843725322211 L309.210542674086,368.9983239907589 L303.73556594813044,375.11890518493976 L302.0151520539616,370.676146949598 L292.16133745311765,378.15881648807124 L297.40449055893504,371.58651449838726 L298.329158798135,368.36599311956866 L303.7287963602857,362.40930415848925 L307.2850623691993,354.89820039032344 L311.3859249841238,347.52225817868725 L308.47656954637296,345.40764431098194 L299.95608608743976,354.5195426281774 L300.69325534248685,357.040657683085 L300.7284651353219,360.73334854041207 L308.1721407696995,357.2110964022387 L303.70415909423264,358.45843713715686 L306.37508249748714,359.8466292034583 L313.12787035610717,349.3282076119038 L317.31027857020246,347.3001444644948 L316.254719148157,345.53156436327987 L303.64949348002807,361.8790035698944 L298.8196457776578,367.7293531097711 L307.2824347436534,363.2100924124668 L300.8855403372613,370.0416841742282 L301.82673285417724,372.3688782721008 L299.4244533707217,373.5616805318365 L300.4231539494017,372.5379447549441 L303.9946084511536,366.0446303943942 L308.71491930563104,369.5695665854811 L320.97784254679004,363.3232878102191 L325.5188533204224,363.65793079403323 L327.88118740866196,361.5655692598663 L330.5882402802631,357.0401538478558 L331.866799438406,359.7867430054928 L333.29771417775294,356.2736510041374 L336.1844726730884,355.9017891505397 L335.1037290376392,356.6705341569315 L328.0390592921244,364.1854789757572 L334.7628295699205,362.2915682797495 L334.16678817825505,364.96122195153146 L344.0168491395604,353.9928388135077 L344.56199134316324,351.64225041382423 L345.2392201121449,344.7692645298399 L348.1791797702393,346.1706579343105 L354.98993358718474,341.5429680830243 L358.0547040425702,338.6170099017541 L354.45249963707505,341.8990038506171 L357.62030433841534,340.3851330930656 L357.9504992335718,332.7302842654726 L356.3433759670729,335.19864931842045 L355.070965838471,333.05941410078486 L360.39101583566753,329.5323711094817 L361.7034330216842,334.04339480173616 L359.5307897559145,336.4600256942677 L360.98000684884914,333.8241642638253 L358.59186888796404,323.5141688277619 L355.8211771435245,323.3068597328343 L361.6605685575802,317.411962060381 L357.2438854497392,329.5796458337699 L354.27921710063345,328.00946135405115 L348.3623543884664,334.2610656254485 L340.594512111863,333.24784939631587 L341.3711443449559,335.9268275288078 L340.84011264127935,336.3843277812713 L335.5198002400243,339.63921045851 L337.98821305728507,336.44178077530466 L343.9105103556795,333.5647833776753 L342.82336549453123,332.528418610123 L337.62459726460037,339.2587744716658 L342.1218816103583,338.5120817259966 L344.1135147799223,335.22176076909767 L340.57701512679455,334.4591661451894 L342.52427372365975,333.8609655285741 L342.8867379323932,336.32937813911 L332.55179503549004,341.9383248991034 L330.3458362574801,339.76884653374987 L330.57839781717894,341.48954892980424 L333.64628803563414,335.21194042399134 L339.596835564071,331.1451075305239 L341.0801873378399,331.4047635981756 L341.8017408432958,328.9141451909777 L341.98335905835125,327.70403416293266 L333.71533394489734,337.332663988657 L325.3216029125912,342.6250158370631 L333.7733737985963,334.52899609319843 L326.2575447966714,343.4201272116536 L330.85190372492013,339.63690004874013 L326.9588340065336,337.563289891327 L330.5213845837907,331.17526771567793 L333.95858671150194,326.39081831633445 L333.5712515196193,329.911656462118 L331.2533303009112,333.32398402273924 L333.0553091164836,336.01396470584444 L327.6552992897832,335.96505079778035 L335.8119463921724,327.0733275720944 L337.74879222807715,331.5321040333965 L333.6009182672972,335.31546971639574 L329.2224747530902,344.9355871521915 L329.81781734432593,343.63625475695517 L325.87153085586,344.95508178051915 L331.37971545210974,342.26326311609785 L338.24260924531967,335.50597767911665 L340.9313508174398,332.8829195024904 L341.84966913296444,327.99902411056 L338.4012239748713,332.00387265871666 L340.17005327877865,333.755993951321 L344.29220490728454,328.08180208251804 L344.94387665536055,327.3682706533316 L350.6654728393953,322.05095866988364 L341.1944692757103,330.9569963271049 L348.03976845272814,326.4248015442802 L336.0757947274103,336.58651633059554 L334.30392392585827,340.8286043448422 L336.6711498540204,339.4203452545214 L336.6194276852515,343.5497605790056 L343.487232456971,333.3898630458977 L342.70850218042614,328.9816516262116 L348.5451431259969,323.9738822933723 L346.03780644992037,329.1758580281491" fill="none" stroke="#2f5c86" stroke-width="1.5" stroke-opacity="0.85" stroke-linejoin="round" />
<circle cx="346.03780644992037" cy="329.1758580281491" r="3.4" fill="#2f5c86" />
<path d="M302.0,342.0 L299.7532858994074,340.2089115980039 L306.76241198620613,332.5997579522982 L313.04477532664356,326.45756637477564 L308.8053615876764,332.59786446649184 L310.88639344206035,329.7883290881494 L308.3506012998096,336.27295589250275 L303.1868316857051,343.78913019698234 L301.873219185617,348.0428653196739 L301.9372364335504,346.7747587984036 L305.48323117114757,340.2009491821814 L296.27807098943674,352.0573429495196 L303.5195157309354,343.69075399990413 L310.68838547792643,339.3417747206905 L313.5334118612872,337.51987459259556 L306.75924635218126,342.5132470037722 L308.0072146054833,343.90462146056245 L313.6325624594691,346.757176041403 L314.13033995755075,342.4624921053619 L309.31366073748615,348.5692128956179 L301.95031507613066,354.3774825677719 L309.746839449768,349.2876886430266 L311.2153259204979,350.3652593721048 L315.4225775972377,347.97057341197024 L310.5893615422042,351.65088091948417 L314.077759031402,345.78158201151547 L315.0428964576258,343.44368140702716 L322.6948912160456,342.72061830119156 L319.3420705198611,340.60510944367036 L321.32818833198326,339.9376436934281 L322.06733283051705,340.65756449388823 L323.92477156873787,340.8940131630009 L325.36775218264836,344.2955605975518 L322.17112931729355,345.197814061483 L321.70279595593104,342.8003124532803 L320.649318781024,345.08283396165825 L320.75737391916005,346.78784836513955 L311.7179806091855,354.790039488374 L307.4191649711531,358.2725541480513 L309.9511326624899,353.739551888992 L316.28478095671545,344.3835707284253 L321.8866700962767,342.3778236317471 L331.9536999278195,333.4648522642883 L330.83643894862735,332.7008138989139 L336.5205450090556,329.1120920954013 L342.1698598127837,324.9882778472507 L344.9773535345816,324.692283913606 L346.2411785422412,325.25426030637493 L346.15761580691014,331.1516687506265 L350.49316108048913,324.56502245805234 L353.3490228081649,323.19862262933066 L354.360635033243,325.59122264489724 L350.214966034758,328.5748867948108 L351.8136837959768,324.2376452993026 L350.13742737973286,321.25534590435007 L341.8017610532856,327.65904087795457 L344.2839849018817,322.2400741190669 L337.501063624283,332.78461014062134 L339.62790477758426,331.76194551151104 L332.96867398143763,338.3270821880616 L330.351714597471,338.99232730698066 L330.6355260469253,343.97467843270994 L341.11712491849073,339.21384535433424 L341.10571516780726,336.6545099461537 L346.61692587932635,325.66726116261975 L351.07882047022616,324.8067054361454 L348.6138124205213,327.5362067491645 L348.73478506096535,324.9214804835236 L349.39216378394514,318.71056689472584 L349.0167978264773,319.24286216083163 L349.54989280294535,325.9095738492224 L346.84929688892953,324.8371093689509 L347.15647085472426,324.58816476147945 L347.99773415918787,326.2009320890577 L344.7546686963147,332.37081608204335 L339.1828385162098,330.22299319282683 L333.8238986537293,335.04966228555287 L342.4937616033636,327.20870192487473 L339.32458282601647,330.3895965943507 L337.28638875940123,334.5749014339989 L340.29530870948486,332.5578821202855 L342.65614288437,328.66373201576744 L349.85805918865503,318.70023538955843 L353.44912425330205,323.042777999715 L355.46213641133386,325.9876461725112 L350.7515169348143,325.43874448779655 L347.21541033369147,328.0251177571795 L350.9190276320493,328.58336951513354 L347.8177205879228,328.68010154605315 L354.6194440806688,323.58566817517305 L346.58900882939747,329.396991805357 L350.06238158211846,320.80377164231976 L356.0386648416484,314.93047545783554 L361.05453225163114,313.63202223131117 L364.44657187565264,310.21380718967225 L360.2845836905434,312.015149947131 L360.8788062666054,315.46264194837784 L366.28614963914686,310.17684001484395 L369.60176384227765,311.307846314745 L373.2726316359914,304.3277816840154 L375.4795837354508,306.0079875709053 L379.6104671447191,298.9384842298303 L380.2857107233673,297.1394924039189 L391.9668647877006,291.86495647984873 L389.6886707173549,296.35162330761716 L389.9759150210473,290.79390379330056 L387.1782796337045,296.1681313568708 L383.23416367960976,297.80908902857726 L385.3685224907091,299.38754745072794 L387.77736319425287,299.9356550878632 L390.60884642936435,296.7051113043531 L392.6263708601421,297.2457978924506 L393.0433466308381,295.17198160904877 L387.723571566158,296.8915051963893 L392.2454817173683,291.0703189457573 L391.7926483157639,291.8885357902432 L391.01281959758086,294.821523490374 L390.9551668952944,293.3631064554425 L390.1405605393157,297.439532884904 L384.4220851322014,307.5567355325022 L386.9379605728013,308.3209909686916 L385.77177207012426,312.78053489731866 L386.2622351698056,310.9900727212501 L387.85551965840654,315.15880211973524 L391.2315208044829,314.2620995688873 L388.6398832340645,313.77875410369165 L386.6290327761036,315.79629850239394 L383.82564437513525,316.3232594861401 L383.52789762444445,317.13973022263974 L378.0942562601042,321.483950120213 L382.36085035918956,315.0643247685465 L384.9739269925659,308.9114906535609 L382.592691038667,313.94628467067554 L383.33923710836484,317.12463824225324 L387.17579032936106,311.64605675179644 L385.48853652619897,312.79318375386134 L396.895975112754,306.86041752096423 L399.53203882753155,302.95446849590763 L398.7895457916123,303.6721610307092 L395.5391136519827,313.73393778901976 L399.5991273290093,315.7718904729452" fill="none" stroke="#2f5c86" stroke-width="1.5" stroke-opacity="0.85" stroke-linejoin="round" />
<circle cx="399.5991273290093" cy="315.7718904729452" r="3.4" fill="#2f5c86" />
<circle cx="302.0" cy="342.0" r="3.6" fill="white" stroke="#1a1a1a" stroke-width="1.6" />
<text x="302.0" y="134" font-size="16" font-family="Helvetica" text-anchor="middle" font-weight="bold" fill="#1a1a1a">Correlated  (ρ = 0.75)</text>
<rect x="628" y="150" width="384" height="384" fill="none" stroke="#cccccc" stroke-width="1.2" />
<path d="M628,342.0 L1012,342.0" stroke="#d9d9d9" stroke-width="1" />
<path d="M820.0,150 L820.0,534" stroke="#d9d9d9" stroke-width="1" />
<text x="1006" y="334.0" font-size="12" font-family="Helvetica" text-anchor="end" fill="#999">trait X</text>
<text x="828.0" y="164" font-size="12" font-family="Helvetica" text-anchor="start" fill="#999">trait Y</text>
<circle cx="773.3421716216176" cy="419.05361429109206" r="2.6" fill="#8aa9c8" fill-opacity="0.5" />
<circle cx="805.5498692599128" cy="317.5377316034606" r="2.6" fill="#8aa9c8" fill-opacity="0.5" />
<circle cx="886.0972527993974" cy="335.61708222127663" r="2.6" fill="#8aa9c8" fill-opacity="0.5" />
<circle cx="787.8459740778919" cy="387.6599479473035" r="2.6" fill="#8aa9c8" fill-opacity="0.5" />
<circle cx="863.5633902972853" cy="246.88535022786454" r="2.6" fill="#8aa9c8" fill-opacity="0.5" />
<circle cx="835.8701833218747" cy="413.7573040890631" r="2.6" fill="#8aa9c8" fill-opacity="0.5" />
<circle cx="764.2463880473549" cy="248.90798027641534" r="2.6" fill="#8aa9c8" fill-opacity="0.5" />
<circle cx="831.8040692659554" cy="442.77875446921223" r="2.6" fill="#8aa9c8" fill-opacity="0.5" />
<circle cx="815.1304033270094" cy="409.67860209133084" r="2.6" fill="#8aa9c8" fill-opacity="0.5" />
<circle cx="783.3868745273278" cy="370.39306608156267" r="2.6" fill="#8aa9c8" fill-opacity="0.5" />
<circle cx="778.498131105033" cy="309.80343445217227" r="2.6" fill="#8aa9c8" fill-opacity="0.5" />
<circle cx="816.3295434516195" cy="376.2941822855334" r="2.6" fill="#8aa9c8" fill-opacity="0.5" />
<circle cx="843.8334735451414" cy="293.71750940734114" r="2.6" fill="#8aa9c8" fill-opacity="0.5" />
<circle cx="724.4059129363969" cy="356.93702553399237" r="2.6" fill="#8aa9c8" fill-opacity="0.5" />
<circle cx="762.9383356483484" cy="352.07448581015456" r="2.6" fill="#8aa9c8" fill-opacity="0.5" />
<circle cx="744.9792729161392" cy="340.7961952559947" r="2.6" fill="#8aa9c8" fill-opacity="0.5" />
<circle cx="817.7957387028906" cy="359.70692369213026" r="2.6" fill="#8aa9c8" fill-opacity="0.5" />
<circle cx="759.0297306111856" cy="365.05107377298" r="2.6" fill="#8aa9c8" fill-opacity="0.5" />
<circle cx="756.504500264977" cy="420.84850887009395" r="2.6" fill="#8aa9c8" fill-opacity="0.5" />
<circle cx="833.0784426158483" cy="406.5439963864068" r="2.6" fill="#8aa9c8" fill-opacity="0.5" />
<circle cx="888.0899549776461" cy="300.3076272946132" r="2.6" fill="#8aa9c8" fill-opacity="0.5" />
<circle cx="703.763392439289" cy="326.16704759781885" r="2.6" fill="#8aa9c8" fill-opacity="0.5" />
<circle cx="755.9001234861937" cy="340.0766708271552" r="2.6" fill="#8aa9c8" fill-opacity="0.5" />
<circle cx="822.5385886585846" cy="457.69046040617434" r="2.6" fill="#8aa9c8" fill-opacity="0.5" />
<circle cx="806.4190531627188" cy="356.88232909960095" r="2.6" fill="#8aa9c8" fill-opacity="0.5" />
<circle cx="875.9709400345073" cy="410.73872337199805" r="2.6" fill="#8aa9c8" fill-opacity="0.5" />
<circle cx="862.9406195110216" cy="405.94023348575456" r="2.6" fill="#8aa9c8" fill-opacity="0.5" />
<circle cx="800.7248935156413" cy="390.9002570718377" r="2.6" fill="#8aa9c8" fill-opacity="0.5" />
<circle cx="904.2898204463518" cy="308.9403287395902" r="2.6" fill="#8aa9c8" fill-opacity="0.5" />
<circle cx="961.4826183473579" cy="304.6521379443014" r="2.6" fill="#8aa9c8" fill-opacity="0.5" />
<circle cx="869.1632135982065" cy="293.08754174456203" r="2.6" fill="#8aa9c8" fill-opacity="0.5" />
<circle cx="784.706237910717" cy="346.0743823498695" r="2.6" fill="#8aa9c8" fill-opacity="0.5" />
<circle cx="898.5680795778692" cy="365.0720445191547" r="2.6" fill="#8aa9c8" fill-opacity="0.5" />
<circle cx="830.9847000023913" cy="343.2348195151877" r="2.6" fill="#8aa9c8" fill-opacity="0.5" />
<circle cx="855.4453232193595" cy="363.23105407693805" r="2.6" fill="#8aa9c8" fill-opacity="0.5" />
<circle cx="811.1353082905107" cy="327.8978077863476" r="2.6" fill="#8aa9c8" fill-opacity="0.5" />
<circle cx="825.9940735119596" cy="392.3256870563968" r="2.6" fill="#8aa9c8" fill-opacity="0.5" />
<circle cx="872.1182861492041" cy="417.5479975707294" r="2.6" fill="#8aa9c8" fill-opacity="0.5" />
<circle cx="750.1169135241585" cy="416.6177044212633" r="2.6" fill="#8aa9c8" fill-opacity="0.5" />
<circle cx="876.2602053197506" cy="362.98085055413935" r="2.6" fill="#8aa9c8" fill-opacity="0.5" />
<circle cx="763.5033379769561" cy="408.0957902073976" r="2.6" fill="#8aa9c8" fill-opacity="0.5" />
<circle cx="844.50217527054" cy="403.3725476408922" r="2.6" fill="#8aa9c8" fill-opacity="0.5" />
<circle cx="745.9881768670463" cy="306.276767274539" r="2.6" fill="#8aa9c8" fill-opacity="0.5" />
<circle cx="750.373368599705" cy="360.7600378618995" r="2.6" fill="#8aa9c8" fill-opacity="0.5" />
<circle cx="819.6066012889296" cy="367.91042134864364" r="2.6" fill="#8aa9c8" fill-opacity="0.5" />
<circle cx="816.8527149617194" cy="264.10772369135873" r="2.6" fill="#8aa9c8" fill-opacity="0.5" />
<circle cx="789.9261583948058" cy="415.26878015291504" r="2.6" fill="#8aa9c8" fill-opacity="0.5" />
<circle cx="713.1347953341859" cy="353.913664979425" r="2.6" fill="#8aa9c8" fill-opacity="0.5" />
<circle cx="799.5050466669829" cy="326.57652905132665" r="2.6" fill="#8aa9c8" fill-opacity="0.5" />
<circle cx="792.9894055774556" cy="369.8480560321585" r="2.6" fill="#8aa9c8" fill-opacity="0.5" />
<circle cx="778.0325383069903" cy="372.24056857426496" r="2.6" fill="#8aa9c8" fill-opacity="0.5" />
<circle cx="829.322281094832" cy="364.1296132197899" r="2.6" fill="#8aa9c8" fill-opacity="0.5" />
<circle cx="825.8438896193459" cy="231.3854719980651" r="2.6" fill="#8aa9c8" fill-opacity="0.5" />
<circle cx="847.8759651372768" cy="433.69977282532227" r="2.6" fill="#8aa9c8" fill-opacity="0.5" />
<circle cx="920.8599031629444" cy="321.76376029157615" r="2.6" fill="#8aa9c8" fill-opacity="0.5" />
<circle cx="765.2268633337609" cy="289.22624246191646" r="2.6" fill="#8aa9c8" fill-opacity="0.5" />
<circle cx="821.0272355438452" cy="377.7945328311313" r="2.6" fill="#8aa9c8" fill-opacity="0.5" />
<circle cx="783.1412988838623" cy="399.7996677964717" r="2.6" fill="#8aa9c8" fill-opacity="0.5" />
<circle cx="822.7996499775907" cy="279.81430145457074" r="2.6" fill="#8aa9c8" fill-opacity="0.5" />
<circle cx="801.0878778876289" cy="317.51568726944845" r="2.6" fill="#8aa9c8" fill-opacity="0.5" />
<circle cx="929.1284976741981" cy="412.66709137337307" r="2.6" fill="#8aa9c8" fill-opacity="0.5" />
<circle cx="834.9831170282758" cy="359.82905756229087" r="2.6" fill="#8aa9c8" fill-opacity="0.5" />
<circle cx="758.3705541918345" cy="401.68565523994744" r="2.6" fill="#8aa9c8" fill-opacity="0.5" />
<circle cx="819.1106825794698" cy="316.75703789380833" r="2.6" fill="#8aa9c8" fill-opacity="0.5" />
<circle cx="789.0711377022236" cy="338.8354592372659" r="2.6" fill="#8aa9c8" fill-opacity="0.5" />
<circle cx="862.0194126216559" cy="324.7455274520538" r="2.6" fill="#8aa9c8" fill-opacity="0.5" />
<circle cx="870.5408110394701" cy="315.1551646166733" r="2.6" fill="#8aa9c8" fill-opacity="0.5" />
<circle cx="848.3930574941503" cy="235.7231089488398" r="2.6" fill="#8aa9c8" fill-opacity="0.5" />
<circle cx="856.257272651204" cy="334.4671341174918" r="2.6" fill="#8aa9c8" fill-opacity="0.5" />
<circle cx="861.3058212911709" cy="395.47628657502315" r="2.6" fill="#8aa9c8" fill-opacity="0.5" />
<circle cx="800.3517215557313" cy="295.8489684832231" r="2.6" fill="#8aa9c8" fill-opacity="0.5" />
<circle cx="856.7003170963715" cy="251.91350162436174" r="2.6" fill="#8aa9c8" fill-opacity="0.5" />
<circle cx="820.6093398643598" cy="427.08088962446266" r="2.6" fill="#8aa9c8" fill-opacity="0.5" />
<circle cx="933.2943668873429" cy="278.4135092038546" r="2.6" fill="#8aa9c8" fill-opacity="0.5" />
<circle cx="758.4007311357925" cy="261.95207738365576" r="2.6" fill="#8aa9c8" fill-opacity="0.5" />
<circle cx="821.8852537471466" cy="447.5376738853741" r="2.6" fill="#8aa9c8" fill-opacity="0.5" />
<circle cx="795.5430445717559" cy="371.6089503414556" r="2.6" fill="#8aa9c8" fill-opacity="0.5" />
<circle cx="912.5584384187487" cy="388.08399682440864" r="2.6" fill="#8aa9c8" fill-opacity="0.5" />
<circle cx="805.2440820142913" cy="358.1024469437307" r="2.6" fill="#8aa9c8" fill-opacity="0.5" />
<circle cx="797.9506756085956" cy="395.18249082371597" r="2.6" fill="#8aa9c8" fill-opacity="0.5" />
<circle cx="832.7468747069485" cy="279.3495478450295" r="2.6" fill="#8aa9c8" fill-opacity="0.5" />
<circle cx="856.3041542499928" cy="395.9635849343599" r="2.6" fill="#8aa9c8" fill-opacity="0.5" />
<circle cx="753.101628674229" cy="335.0779023370444" r="2.6" fill="#8aa9c8" fill-opacity="0.5" />
<circle cx="778.8898813891625" cy="378.6641832057775" r="2.6" fill="#8aa9c8" fill-opacity="0.5" />
<circle cx="722.2723154129359" cy="228.51685220654747" r="2.6" fill="#8aa9c8" fill-opacity="0.5" />
<circle cx="873.3305688751063" cy="398.6636993109513" r="2.6" fill="#8aa9c8" fill-opacity="0.5" />
<circle cx="872.8413246135009" cy="263.8916592974765" r="2.6" fill="#8aa9c8" fill-opacity="0.5" />
<circle cx="680.9714414733592" cy="373.9386057055572" r="2.6" fill="#8aa9c8" fill-opacity="0.5" />
<circle cx="797.4270127635992" cy="304.28337627093583" r="2.6" fill="#8aa9c8" fill-opacity="0.5" />
<circle cx="812.932920884316" cy="355.4069140859532" r="2.6" fill="#8aa9c8" fill-opacity="0.5" />
<circle cx="816.6038464539837" cy="234.1701406346471" r="2.6" fill="#8aa9c8" fill-opacity="0.5" />
<circle cx="945.6715909689607" cy="372.53535633534" r="2.6" fill="#8aa9c8" fill-opacity="0.5" />
<circle cx="766.109440392702" cy="185.3423623338556" r="2.6" fill="#8aa9c8" fill-opacity="0.5" />
<circle cx="762.996675886968" cy="375.36157195009173" r="2.6" fill="#8aa9c8" fill-opacity="0.5" />
<circle cx="822.1283787257448" cy="313.8838548860955" r="2.6" fill="#8aa9c8" fill-opacity="0.5" />
<circle cx="879.8711592400181" cy="319.25223437555553" r="2.6" fill="#8aa9c8" fill-opacity="0.5" />
<circle cx="769.2431667377343" cy="312.53775555783506" r="2.6" fill="#8aa9c8" fill-opacity="0.5" />
<circle cx="834.5406591913438" cy="232.79744043902974" r="2.6" fill="#8aa9c8" fill-opacity="0.5" />
<circle cx="819.1272844709399" cy="419.78751417700266" r="2.6" fill="#8aa9c8" fill-opacity="0.5" />
<circle cx="759.1988413449332" cy="257.62745838817966" r="2.6" fill="#8aa9c8" fill-opacity="0.5" />
<circle cx="788.5741843154389" cy="464.44165876861445" r="2.6" fill="#8aa9c8" fill-opacity="0.5" />
<circle cx="786.2138353169771" cy="341.9991214643611" r="2.6" fill="#8aa9c8" fill-opacity="0.5" />
<circle cx="889.1683303876289" cy="401.0236007332321" r="2.6" fill="#8aa9c8" fill-opacity="0.5" />
<circle cx="858.7888480524844" cy="295.728052386815" r="2.6" fill="#8aa9c8" fill-opacity="0.5" />
<circle cx="779.3083166066226" cy="352.9143101276491" r="2.6" fill="#8aa9c8" fill-opacity="0.5" />
<circle cx="922.9498319358793" cy="241.89906927556916" r="2.6" fill="#8aa9c8" fill-opacity="0.5" />
<circle cx="869.7758257397464" cy="322.6867572647327" r="2.6" fill="#8aa9c8" fill-opacity="0.5" />
<circle cx="886.2289234014954" cy="350.1848602539797" r="2.6" fill="#8aa9c8" fill-opacity="0.5" />
<circle cx="814.4673125411807" cy="392.05731720886206" r="2.6" fill="#8aa9c8" fill-opacity="0.5" />
<circle cx="820.323687835272" cy="346.77187635859684" r="2.6" fill="#8aa9c8" fill-opacity="0.5" />
<circle cx="981.3749333742178" cy="353.21996600904356" r="2.6" fill="#8aa9c8" fill-opacity="0.5" />
<circle cx="893.9385012371456" cy="265.1710676716604" r="2.6" fill="#8aa9c8" fill-opacity="0.5" />
<circle cx="809.1503300704012" cy="273.96234517526517" r="2.6" fill="#8aa9c8" fill-opacity="0.5" />
<circle cx="693.3490240299634" cy="336.47696379024774" r="2.6" fill="#8aa9c8" fill-opacity="0.5" />
<circle cx="869.8770268780389" cy="481.51216131945426" r="2.6" fill="#8aa9c8" fill-opacity="0.5" />
<circle cx="752.5573121019288" cy="280.5557168073605" r="2.6" fill="#8aa9c8" fill-opacity="0.5" />
<circle cx="805.0466461681644" cy="405.89519673140126" r="2.6" fill="#8aa9c8" fill-opacity="0.5" />
<circle cx="798.2635247406099" cy="373.56877419255085" r="2.6" fill="#8aa9c8" fill-opacity="0.5" />
<circle cx="862.1496618667761" cy="315.5920942859842" r="2.6" fill="#8aa9c8" fill-opacity="0.5" />
<circle cx="803.6958057102099" cy="380.71084716384826" r="2.6" fill="#8aa9c8" fill-opacity="0.5" />
<circle cx="816.8654159188749" cy="264.9000187726416" r="2.6" fill="#8aa9c8" fill-opacity="0.5" />
<circle cx="840.306973822725" cy="304.8249836425989" r="2.6" fill="#8aa9c8" fill-opacity="0.5" />
<circle cx="811.2330707078659" cy="417.16021818625234" r="2.6" fill="#8aa9c8" fill-opacity="0.5" />
<circle cx="778.6418306567491" cy="304.1098725296128" r="2.6" fill="#8aa9c8" fill-opacity="0.5" />
<circle cx="826.0053005138278" cy="394.58704691355933" r="2.6" fill="#8aa9c8" fill-opacity="0.5" />
<circle cx="725.8693570558343" cy="335.5603257977351" r="2.6" fill="#8aa9c8" fill-opacity="0.5" />
<circle cx="800.245468584834" cy="362.39448544655863" r="2.6" fill="#8aa9c8" fill-opacity="0.5" />
<circle cx="800.8320024749917" cy="325.4818843064376" r="2.6" fill="#8aa9c8" fill-opacity="0.5" />
<circle cx="837.131503997254" cy="286.02161162354025" r="2.6" fill="#8aa9c8" fill-opacity="0.5" />
<circle cx="874.0172555893171" cy="264.49640258947295" r="2.6" fill="#8aa9c8" fill-opacity="0.5" />
<circle cx="866.9156687582292" cy="361.52628557542926" r="2.6" fill="#8aa9c8" fill-opacity="0.5" />
<circle cx="816.8425340367365" cy="313.2456672098076" r="2.6" fill="#8aa9c8" fill-opacity="0.5" />
<circle cx="801.9466315635535" cy="310.03265278371555" r="2.6" fill="#8aa9c8" fill-opacity="0.5" />
<circle cx="887.1190968433448" cy="388.6179496707532" r="2.6" fill="#8aa9c8" fill-opacity="0.5" />
<circle cx="716.9958370416582" cy="272.55098441940027" r="2.6" fill="#8aa9c8" fill-opacity="0.5" />
<circle cx="821.0333038740373" cy="300.76830120079694" r="2.6" fill="#8aa9c8" fill-opacity="0.5" />
<circle cx="742.4840521084593" cy="241.17134193581592" r="2.6" fill="#8aa9c8" fill-opacity="0.5" />
<circle cx="862.9742481145288" cy="349.33522465114" r="2.6" fill="#8aa9c8" fill-opacity="0.5" />
<circle cx="799.5206959240677" cy="335.3733305916949" r="2.6" fill="#8aa9c8" fill-opacity="0.5" />
<circle cx="810.299267458016" cy="358.21469831236976" r="2.6" fill="#8aa9c8" fill-opacity="0.5" />
<circle cx="754.8596377876029" cy="268.52745082641195" r="2.6" fill="#8aa9c8" fill-opacity="0.5" />
<circle cx="817.6972983523166" cy="337.657562915514" r="2.6" fill="#8aa9c8" fill-opacity="0.5" />
<circle cx="825.4060211549364" cy="479.20537231952704" r="2.6" fill="#8aa9c8" fill-opacity="0.5" />
<circle cx="850.670048472688" cy="361.15083232729364" r="2.6" fill="#8aa9c8" fill-opacity="0.5" />
<circle cx="803.1721620600817" cy="337.93961468655635" r="2.6" fill="#8aa9c8" fill-opacity="0.5" />
<circle cx="763.4196011445282" cy="292.93057105526066" r="2.6" fill="#8aa9c8" fill-opacity="0.5" />
<circle cx="779.5133309785012" cy="394.5764686378402" r="2.6" fill="#8aa9c8" fill-opacity="0.5" />
<circle cx="769.8362413973891" cy="332.76347955549517" r="2.6" fill="#8aa9c8" fill-opacity="0.5" />
<circle cx="863.390805781089" cy="376.62127915905523" r="2.6" fill="#8aa9c8" fill-opacity="0.5" />
<circle cx="732.1345934012924" cy="280.18235967106307" r="2.6" fill="#8aa9c8" fill-opacity="0.5" />
<circle cx="758.0314999247495" cy="272.4825967400776" r="2.6" fill="#8aa9c8" fill-opacity="0.5" />
<circle cx="816.8409671576951" cy="382.63126656140145" r="2.6" fill="#8aa9c8" fill-opacity="0.5" />
<circle cx="782.7613120502856" cy="315.12778625788934" r="2.6" fill="#8aa9c8" fill-opacity="0.5" />
<circle cx="871.745268072541" cy="353.52990415018036" r="2.6" fill="#8aa9c8" fill-opacity="0.5" />
<circle cx="875.0943640652584" cy="220.57581337216175" r="2.6" fill="#8aa9c8" fill-opacity="0.5" />
<circle cx="807.8802417303266" cy="408.8768954897785" r="2.6" fill="#8aa9c8" fill-opacity="0.5" />
<circle cx="758.6530706309555" cy="422.89223883643126" r="2.6" fill="#8aa9c8" fill-opacity="0.5" />
<circle cx="782.7831010361884" cy="384.11079196694425" r="2.6" fill="#8aa9c8" fill-opacity="0.5" />
<circle cx="742.9030790419636" cy="311.1529160893964" r="2.6" fill="#8aa9c8" fill-opacity="0.5" />
<circle cx="668.0675488015604" cy="418.84648562578104" r="2.6" fill="#8aa9c8" fill-opacity="0.5" />
<circle cx="937.251014177971" cy="281.6187677984921" r="2.6" fill="#8aa9c8" fill-opacity="0.5" />
<circle cx="850.4169706672426" cy="315.3958365698709" r="2.6" fill="#8aa9c8" fill-opacity="0.5" />
<circle cx="923.0363445993007" cy="310.8360938888513" r="2.6" fill="#8aa9c8" fill-opacity="0.5" />
<circle cx="824.5135759841287" cy="413.57295480928394" r="2.6" fill="#8aa9c8" fill-opacity="0.5" />
<circle cx="815.7139306281351" cy="384.69870535649875" r="2.6" fill="#8aa9c8" fill-opacity="0.5" />
<circle cx="778.9134385510969" cy="383.5557197576208" r="2.6" fill="#8aa9c8" fill-opacity="0.5" />
<circle cx="817.402364236074" cy="361.18317496681163" r="2.6" fill="#8aa9c8" fill-opacity="0.5" />
<circle cx="870.6827933634576" cy="419.1596475294099" r="2.6" fill="#8aa9c8" fill-opacity="0.5" />
<circle cx="810.1399158258696" cy="233.81105475290178" r="2.6" fill="#8aa9c8" fill-opacity="0.5" />
<circle cx="822.263117800435" cy="272.26238711571534" r="2.6" fill="#8aa9c8" fill-opacity="0.5" />
<circle cx="886.1447852918292" cy="265.39503590764446" r="2.6" fill="#8aa9c8" fill-opacity="0.5" />
<circle cx="862.9451153178326" cy="422.3168600001682" r="2.6" fill="#8aa9c8" fill-opacity="0.5" />
<circle cx="804.4428971178471" cy="364.1286157072652" r="2.6" fill="#8aa9c8" fill-opacity="0.5" />
<circle cx="729.8847822933283" cy="368.9894761410989" r="2.6" fill="#8aa9c8" fill-opacity="0.5" />
<circle cx="747.268082319488" cy="438.90481140476413" r="2.6" fill="#8aa9c8" fill-opacity="0.5" />
<circle cx="832.2703276544844" cy="344.53621948774753" r="2.6" fill="#8aa9c8" fill-opacity="0.5" />
<circle cx="779.9816779883529" cy="397.30684291565717" r="2.6" fill="#8aa9c8" fill-opacity="0.5" />
<circle cx="788.5077270066884" cy="364.9288942181155" r="2.6" fill="#8aa9c8" fill-opacity="0.5" />
<circle cx="796.2554017406485" cy="345.06663260674725" r="2.6" fill="#8aa9c8" fill-opacity="0.5" />
<circle cx="794.6594516968155" cy="319.4852664802212" r="2.6" fill="#8aa9c8" fill-opacity="0.5" />
<circle cx="850.4215793360938" cy="321.1784914822964" r="2.6" fill="#8aa9c8" fill-opacity="0.5" />
<circle cx="781.4194318821285" cy="377.86944853423" r="2.6" fill="#8aa9c8" fill-opacity="0.5" />
<circle cx="845.3011842019464" cy="353.46430711136543" r="2.6" fill="#8aa9c8" fill-opacity="0.5" />
<circle cx="817.4893551357336" cy="486.988814563561" r="2.6" fill="#8aa9c8" fill-opacity="0.5" />
<circle cx="662.9030411702554" cy="322.38410518872746" r="2.6" fill="#8aa9c8" fill-opacity="0.5" />
<circle cx="839.174321824044" cy="260.9276002069189" r="2.6" fill="#8aa9c8" fill-opacity="0.5" />
<circle cx="861.9585814630333" cy="329.09883344476845" r="2.6" fill="#8aa9c8" fill-opacity="0.5" />
<circle cx="820.9519974451597" cy="425.0103521867286" r="2.6" fill="#8aa9c8" fill-opacity="0.5" />
<circle cx="871.3847790331678" cy="377.1177318035138" r="2.6" fill="#8aa9c8" fill-opacity="0.5" />
<circle cx="849.2354591757596" cy="330.36121335633084" r="2.6" fill="#8aa9c8" fill-opacity="0.5" />
<circle cx="835.8310993895972" cy="290.0625329138285" r="2.6" fill="#8aa9c8" fill-opacity="0.5" />
<circle cx="791.4986989394222" cy="364.53004693059205" r="2.6" fill="#8aa9c8" fill-opacity="0.5" />
<circle cx="770.2044233686148" cy="363.94339045536015" r="2.6" fill="#8aa9c8" fill-opacity="0.5" />
<circle cx="916.9274597266176" cy="363.13854060336746" r="2.6" fill="#8aa9c8" fill-opacity="0.5" />
<circle cx="888.9813127094465" cy="293.94115294591177" r="2.6" fill="#8aa9c8" fill-opacity="0.5" />
<circle cx="862.4309406015603" cy="295.27911929761973" r="2.6" fill="#8aa9c8" fill-opacity="0.5" />
<circle cx="760.9875458969036" cy="320.27213504666577" r="2.6" fill="#8aa9c8" fill-opacity="0.5" />
<circle cx="912.4167038536582" cy="382.48267265925796" r="2.6" fill="#8aa9c8" fill-opacity="0.5" />
<circle cx="817.2592241112587" cy="382.0965327803072" r="2.6" fill="#8aa9c8" fill-opacity="0.5" />
<circle cx="838.4443061069411" cy="404.75084403583173" r="2.6" fill="#8aa9c8" fill-opacity="0.5" />
<circle cx="913.6540971200482" cy="363.92493317582176" r="2.6" fill="#8aa9c8" fill-opacity="0.5" />
<circle cx="730.245144901804" cy="237.80852882535117" r="2.6" fill="#8aa9c8" fill-opacity="0.5" />
<circle cx="876.4667866065978" cy="311.8320592633775" r="2.6" fill="#8aa9c8" fill-opacity="0.5" />
<circle cx="850.9869116203229" cy="362.81733863637845" r="2.6" fill="#8aa9c8" fill-opacity="0.5" />
<circle cx="807.0082560132535" cy="299.8752448099123" r="2.6" fill="#8aa9c8" fill-opacity="0.5" />
<circle cx="873.389088448573" cy="287.7389147261615" r="2.6" fill="#8aa9c8" fill-opacity="0.5" />
<circle cx="832.3666027991725" cy="369.13530723525287" r="2.6" fill="#8aa9c8" fill-opacity="0.5" />
<circle cx="808.8240099387613" cy="277.4414713300562" r="2.6" fill="#8aa9c8" fill-opacity="0.5" />
<circle cx="903.7770539611481" cy="361.8581754231915" r="2.6" fill="#8aa9c8" fill-opacity="0.5" />
<circle cx="792.2295853065045" cy="269.4152919303157" r="2.6" fill="#8aa9c8" fill-opacity="0.5" />
<circle cx="862.1032158914003" cy="301.4322507621639" r="2.6" fill="#8aa9c8" fill-opacity="0.5" />
<circle cx="743.6460414281696" cy="363.74588750349926" r="2.6" fill="#8aa9c8" fill-opacity="0.5" />
<circle cx="790.0366237553933" cy="329.9037289283085" r="2.6" fill="#8aa9c8" fill-opacity="0.5" />
<circle cx="721.9670120883811" cy="268.00710934493804" r="2.6" fill="#8aa9c8" fill-opacity="0.5" />
<circle cx="837.4622135476689" cy="316.7003912448118" r="2.6" fill="#8aa9c8" fill-opacity="0.5" />
<circle cx="751.1045598903347" cy="343.5371852432389" r="2.6" fill="#8aa9c8" fill-opacity="0.5" />
<circle cx="897.652380401856" cy="433.3277441430645" r="2.6" fill="#8aa9c8" fill-opacity="0.5" />
<circle cx="837.7901415201487" cy="301.34225953079925" r="2.6" fill="#8aa9c8" fill-opacity="0.5" />
<circle cx="779.7412594567445" cy="294.5968739916467" r="2.6" fill="#8aa9c8" fill-opacity="0.5" />
<circle cx="800.7959836762673" cy="270.4499460054367" r="2.6" fill="#8aa9c8" fill-opacity="0.5" />
<circle cx="850.6915942065543" cy="328.94598483034827" r="2.6" fill="#8aa9c8" fill-opacity="0.5" />
<circle cx="936.882384373183" cy="293.5987515127799" r="2.6" fill="#8aa9c8" fill-opacity="0.5" />
<circle cx="896.1388048668122" cy="411.20841729341356" r="2.6" fill="#8aa9c8" fill-opacity="0.5" />
<circle cx="782.3792251509135" cy="293.326894374879" r="2.6" fill="#8aa9c8" fill-opacity="0.5" />
<circle cx="872.6901447756661" cy="345.24305629033483" r="2.6" fill="#8aa9c8" fill-opacity="0.5" />
<circle cx="865.3659074458571" cy="403.57694523034695" r="2.6" fill="#8aa9c8" fill-opacity="0.5" />
<circle cx="832.4413222237312" cy="408.7510612327475" r="2.6" fill="#8aa9c8" fill-opacity="0.5" />
<circle cx="839.8150128743624" cy="370.2863655063269" r="2.6" fill="#8aa9c8" fill-opacity="0.5" />
<circle cx="782.7055990316057" cy="338.7244200621011" r="2.6" fill="#8aa9c8" fill-opacity="0.5" />
<circle cx="925.7431309785974" cy="400.8661372774061" r="2.6" fill="#8aa9c8" fill-opacity="0.5" />
<circle cx="784.9890550608363" cy="279.8813587935848" r="2.6" fill="#8aa9c8" fill-opacity="0.5" />
<circle cx="795.3561210182592" cy="239.0609875078029" r="2.6" fill="#8aa9c8" fill-opacity="0.5" />
<circle cx="832.9471827692439" cy="336.72687044939323" r="2.6" fill="#8aa9c8" fill-opacity="0.5" />
<circle cx="840.7641680792948" cy="240.69500529364927" r="2.6" fill="#8aa9c8" fill-opacity="0.5" />
<circle cx="858.1301256430935" cy="311.93674863076035" r="2.6" fill="#8aa9c8" fill-opacity="0.5" />
<circle cx="834.6535425832728" cy="432.90436848293615" r="2.6" fill="#8aa9c8" fill-opacity="0.5" />
<circle cx="768.4932638170094" cy="255.69634204874103" r="2.6" fill="#8aa9c8" fill-opacity="0.5" />
<circle cx="867.8183756754481" cy="312.55622622020326" r="2.6" fill="#8aa9c8" fill-opacity="0.5" />
<circle cx="857.0654677961675" cy="373.6272321228952" r="2.6" fill="#8aa9c8" fill-opacity="0.5" />
<circle cx="839.6633755736502" cy="394.4098694021244" r="2.6" fill="#8aa9c8" fill-opacity="0.5" />
<circle cx="842.7701714245911" cy="383.5496791684025" r="2.6" fill="#8aa9c8" fill-opacity="0.5" />
<circle cx="807.5595735763677" cy="315.6194999370793" r="2.6" fill="#8aa9c8" fill-opacity="0.5" />
<circle cx="800.9868972584461" cy="304.3225063051474" r="2.6" fill="#8aa9c8" fill-opacity="0.5" />
<circle cx="846.5331360714767" cy="321.08607202650626" r="2.6" fill="#8aa9c8" fill-opacity="0.5" />
<circle cx="897.056662274483" cy="427.75329026741736" r="2.6" fill="#8aa9c8" fill-opacity="0.5" />
<circle cx="727.1253946864729" cy="306.1459321070093" r="2.6" fill="#8aa9c8" fill-opacity="0.5" />
<circle cx="874.7371109826493" cy="224.95910238751588" r="2.6" fill="#8aa9c8" fill-opacity="0.5" />
<circle cx="864.0003955776873" cy="293.6965819158731" r="2.6" fill="#8aa9c8" fill-opacity="0.5" />
<circle cx="768.6207970032003" cy="298.21109658361837" r="2.6" fill="#8aa9c8" fill-opacity="0.5" />
<circle cx="859.205174578925" cy="403.432156460388" r="2.6" fill="#8aa9c8" fill-opacity="0.5" />
<circle cx="767.8506176553841" cy="348.45999725377607" r="2.6" fill="#8aa9c8" fill-opacity="0.5" />
<circle cx="836.7711273419714" cy="513.3329767940071" r="2.6" fill="#8aa9c8" fill-opacity="0.5" />
<circle cx="824.0905024108738" cy="328.56846568108693" r="2.6" fill="#8aa9c8" fill-opacity="0.5" />
<circle cx="809.7113390679356" cy="326.4756422943132" r="2.6" fill="#8aa9c8" fill-opacity="0.5" />
<circle cx="846.5254534750866" cy="400.858940346675" r="2.6" fill="#8aa9c8" fill-opacity="0.5" />
<circle cx="844.2141188932335" cy="356.62150980259946" r="2.6" fill="#8aa9c8" fill-opacity="0.5" />
<circle cx="764.9670528704314" cy="329.8318083582354" r="2.6" fill="#8aa9c8" fill-opacity="0.5" />
<circle cx="906.5538466766719" cy="426.952179393464" r="2.6" fill="#8aa9c8" fill-opacity="0.5" />
<circle cx="723.8190594464484" cy="438.18421235929736" r="2.6" fill="#8aa9c8" fill-opacity="0.5" />
<circle cx="935.0435928898441" cy="356.6375999244748" r="2.6" fill="#8aa9c8" fill-opacity="0.5" />
<circle cx="816.5389525127803" cy="387.7644054692408" r="2.6" fill="#8aa9c8" fill-opacity="0.5" />
<circle cx="765.2830380287146" cy="459.92640931226214" r="2.6" fill="#8aa9c8" fill-opacity="0.5" />
<circle cx="829.9145480090488" cy="326.8983376918452" r="2.6" fill="#8aa9c8" fill-opacity="0.5" />
<circle cx="705.0016551327828" cy="402.69231572513115" r="2.6" fill="#8aa9c8" fill-opacity="0.5" />
<circle cx="776.7061087325551" cy="343.5128700764784" r="2.6" fill="#8aa9c8" fill-opacity="0.5" />
<circle cx="834.2038788069317" cy="276.49931820500643" r="2.6" fill="#8aa9c8" fill-opacity="0.5" />
<circle cx="899.3865320230475" cy="279.8353738354423" r="2.6" fill="#8aa9c8" fill-opacity="0.5" />
<circle cx="898.0525691056209" cy="409.8642437990002" r="2.6" fill="#8aa9c8" fill-opacity="0.5" />
<circle cx="787.738660946641" cy="275.4627025297443" r="2.6" fill="#8aa9c8" fill-opacity="0.5" />
<circle cx="836.7948263985202" cy="340.9107363679611" r="2.6" fill="#8aa9c8" fill-opacity="0.5" />
<circle cx="704.8588702427091" cy="450.1741339408519" r="2.6" fill="#8aa9c8" fill-opacity="0.5" />
<circle cx="862.5244754927239" cy="322.12646429623607" r="2.6" fill="#8aa9c8" fill-opacity="0.5" />
<circle cx="802.7748291382707" cy="366.0274462253158" r="2.6" fill="#8aa9c8" fill-opacity="0.5" />
<circle cx="719.5722107996019" cy="320.4020282740859" r="2.6" fill="#8aa9c8" fill-opacity="0.5" />
<circle cx="880.1844828519302" cy="246.45550666520057" r="2.6" fill="#8aa9c8" fill-opacity="0.5" />
<circle cx="822.8589352806484" cy="353.88053423243684" r="2.6" fill="#8aa9c8" fill-opacity="0.5" />
<circle cx="756.2328991582599" cy="270.82945947936605" r="2.6" fill="#8aa9c8" fill-opacity="0.5" />
<circle cx="919.3079580639169" cy="377.67534581017406" r="2.6" fill="#8aa9c8" fill-opacity="0.5" />
<circle cx="836.9168738693966" cy="336.72464839919104" r="2.6" fill="#8aa9c8" fill-opacity="0.5" />
<circle cx="786.6136830017118" cy="487.3061563240355" r="2.6" fill="#8aa9c8" fill-opacity="0.5" />
<path d="M936.3636363636364,342.0 L936.0737774720889,333.7918302205311 L935.2056448598637,325.62455313002 L933.7635635199667,317.5388576921052 L931.7547178290943,309.5750264347355 L929.1891157554303,301.77273476464217 L926.0795389994521,294.1708533064585 L922.4414793161416,286.807254251223 L918.2930613358408,279.7186226790285 L913.654952268256,272.94027379579853 L908.5502589394581,266.50597699470825 L903.004412674837,260.44778761876563 L897.0450426015186,254.79588726270543 L890.7018380014429,249.57843340980236 L884.0064004008543,244.82141915270574 L876.9920861330884,240.54854369715912 L869.6938401589964,236.78109429375013 L862.1480219729085,233.53784018589795 L854.3922244614614,230.83493910242726 L846.4650866177287,228.68585676057592 L838.4061010437008,227.10129978046893 L830.2554172001282,226.08916234527544 L822.0536413839277,225.65448687278564 L813.8416344296538,225.79943889433855 L805.6603081428761,226.52329626625408 L797.5504214796222,227.82245276751655 L789.5523774873087,229.69043606578623 L781.7060220187916,232.1179399622335 L774.0504452223312,235.09287075455347 L766.6237867964404,238.60040748718228 L759.4630459798245,242.62307578855257 L752.6038972230361,247.14083492753315 L746.0805124601555,252.13117765534383 L739.9253908659352,257.56924233553656 L734.1691969465458,263.42793680341754 L728.8406077705481,269.6780733378491 L723.9661701011809,276.28851407300806 L719.5701681417211,283.22632612566724 L715.6745025528054,290.4569456651627 L712.2985813444398,297.94435010865993 L709.4592231862702,305.65123758384937 L707.1705736178167,313.5392127649978 L705.4440345761067,321.5689781565299 L704.2882075917985,329.70052987117464 L703.7088509367879,337.89335692731896 L703.7088509367879,346.106643072681 L704.2882075917985,354.2994701288253 L705.4440345761067,362.43102184347003 L707.1705736178167,370.4607872350021 L709.4592231862702,378.3487624161506 L712.2985813444398,386.05564989134 L715.6745025528054,393.5430543348373 L719.5701681417211,400.77367387433276 L723.9661701011808,407.7114859269919 L728.8406077705481,414.3219266621509 L734.1691969465458,420.57206319658246 L739.9253908659352,426.43075766446344 L746.0805124601554,431.8688223446561 L752.603897223036,436.8591650724668 L759.4630459798245,441.37692421144743 L766.6237867964404,445.39959251281766 L774.0504452223312,448.9071292454465 L781.7060220187915,451.88206003776645 L789.5523774873087,454.30956393421377 L797.5504214796222,456.17754723248345 L805.6603081428761,457.4767037337459 L813.8416344296538,458.2005611056615 L822.0536413839277,458.3455131272144 L830.2554172001281,457.91083765472456 L838.4061010437008,456.89870021953107 L846.4650866177287,455.3141432394241 L854.3922244614614,453.16506089757274 L862.1480219729085,450.4621598141021 L869.6938401589964,447.21890570624987 L876.9920861330884,443.4514563028409 L884.0064004008543,439.1785808472943 L890.7018380014429,434.42156659019764 L897.0450426015186,429.2041127372946 L903.0044126748369,423.5522123812344 L908.5502589394581,417.49402300529175 L913.654952268256,411.05972620420147 L918.2930613358408,404.28137732097156 L922.4414793161416,397.19274574877704 L926.0795389994521,389.8291466935415 L929.1891157554303,382.2272652353579 L931.7547178290943,374.4249735652645 L933.7635635199667,366.4611423078948 L935.2056448598637,358.37544686998007 L936.0737774720889,350.20816977946896 L936.3636363636364,342.0 Z" fill="none" stroke="#c0436a" stroke-width="2.4" />
<path d="M820.0,342.0 L818.2002868292594,339.0130385300462 L811.1031938787472,343.1380367599211 L794.9570695616726,336.82167856404004 L797.4170591131901,336.59804876190054 L796.087070838445,339.7317365462366 L795.6995599061077,341.257636096336 L794.4783250611448,341.42389416784556 L795.0961836684586,333.8071628188697 L787.9689460572883,332.5189946854604 L784.8978174337238,338.12212122045884 L773.2529032119014,335.13787408340545 L768.3829498877142,338.8734483806595 L770.6442935024038,344.2503407021224 L770.7231915971007,344.66771981286144 L774.616892310831,339.7473070134294 L770.3051828228135,335.28647721131347 L769.7802865445024,334.73182213562353 L768.6861290062983,330.96746385671537 L762.6762504602268,329.7377342144621 L768.4086940867978,331.1817858682267 L778.3306082091096,334.84959969061947 L779.3322352712153,337.2718844564808 L776.2405058158777,342.80759439147954 L773.5356853547424,343.11363033125645 L769.5374742250644,338.8238326816417 L776.9641446271484,346.39098689220054 L781.020114813896,345.51541897504444 L782.1674136542575,333.46567391085506 L788.0402197977947,331.870957712682 L788.8914672886674,342.52035443877634 L792.6895151105305,346.20184364880015 L793.5536383110086,345.7217683490685 L798.2759374683425,335.7372554791881 L803.1125666544226,329.47783447647953 L801.959256482566,327.23667709838725 L805.7418543353365,334.3157047985896 L815.7806539533402,337.8308986294898 L809.4986399298301,329.79587651002765 L819.915555764882,333.25323101837364 L816.8997505684325,317.95114252335384 L817.4535183108026,327.7072744442803 L814.4428330016003,317.8623335901795 L817.6839181344876,314.16406602349724 L823.7053867614054,310.8410857484571 L822.0669333230529,318.6807327802219 L824.2618552943527,324.16856787919113 L823.9853158132833,315.51924779540025 L826.6438344509442,315.2267124080815 L826.9668004357477,311.63321363710395 L831.4967474165444,318.10833081065374 L832.4087976833599,309.6720461662479 L836.1182252849236,313.43437000527547 L832.7763184725568,323.5733813050113 L828.8750675451801,315.6715134702497 L828.5332003661562,319.8758256183863 L825.7002653224014,320.4203902285197 L825.1763499739129,322.16097140557616 L821.3945117852315,319.03079007046034 L828.9598879891336,321.8235829623768 L826.298312879896,315.97522338510186 L819.1007031519782,318.88326553872054 L817.2415009956478,318.05823964083277 L815.8895550774417,322.417899769226 L817.4163958636353,328.2581819503925 L808.8480012972283,338.2316539553577 L812.5295475068225,346.7722262000943 L814.7278449184148,343.4741743069551 L818.6955795447722,344.3331348666367 L815.999936400541,343.91186653606945 L813.0803868144042,350.23645891090644 L819.2537127944612,354.63464144911285 L828.0845679473421,352.10340973436803 L825.8493936904674,349.95138197707786 L831.8983598719631,356.7296752243998 L827.3411752918984,361.8891977566183 L828.1526777734173,359.90139066501996 L828.2951226800633,363.4821885992952 L825.6965895691376,357.64518689483253 L831.188888353676,356.9992786353797 L824.7442819601956,353.91061518586685 L826.1587772456229,352.66787334896014 L834.6657944095851,348.63306523193 L829.8739949750268,353.3770447990498 L836.6613585939904,352.36548296525007 L841.0232544418063,352.88867756210357 L836.3543599939533,351.29449456234215 L844.314990194003,349.33183939470365 L839.0753300497677,350.54079105863764 L836.96871289934,349.3245359236803 L842.3681318180863,339.2230560647364 L843.914567264803,340.87764852238195 L844.7583602384766,340.3324906182803 L843.1366655150675,339.7492830009436 L843.6052391010271,345.06247579095646 L846.7710923188134,346.37392193396954 L842.4058229149707,343.4924894287244 L840.4802580558714,334.4533085045978 L843.2875554629522,333.62407759757366 L840.0137597344112,335.18969026860964 L844.6139966033054,338.15227150974124 L848.7624010218387,348.0751276429214 L850.1414595824018,343.67269316274377 L852.1884859555951,343.3150106569983 L857.5303035342415,347.14698899224317 L853.0658285301222,346.2608293010861 L859.3482378815489,343.77022975902435 L858.7612035748718,341.92590474580356 L861.3042274750305,347.681351979349 L847.8451856339391,352.3557512183674 L840.8642385712224,354.839063028753 L835.3199511131673,358.7299237830888 L837.821743664121,357.8767291087334 L838.0841823122316,349.3201858008457 L836.2228536012856,350.7800308662926 L842.8668154882689,355.8219420256425 L835.2815596576968,348.9509077183457 L837.3884948658125,345.5385884573984 L840.9899120263282,340.61880635905146 L839.1537022310348,340.4970244377548 L834.1843599924562,339.3026578379612 L835.8437104564018,341.00593502161803 L839.6623103548297,325.9363785239755 L834.5504662495316,321.28978432262807 L839.7672122750234,315.4551089134606 L836.41610420559,308.95742391420407 L840.2588390851636,308.93403886466666 L839.2249309417526,307.0645479321856 L844.4938992337162,302.0284148747912 L856.4569095185938,303.04367511109433 L860.2431157240279,304.407943432253 L864.8466910741702,303.0000560681982 L862.671457062333,308.7568508928216 L859.6565467876321,306.8037773366673 L867.6567736908261,302.22676525934526 L862.5360887432998,303.86722589452614 L863.4411835974272,303.81153218959287 L864.3763293388017,299.4287522022213 L865.9196996115509,302.38480613924827 L856.8488917799691,303.69128378007827 L848.9186120011425,304.2049570975964" fill="none" stroke="#2f5c86" stroke-width="1.5" stroke-opacity="0.85" stroke-linejoin="round" />
<circle cx="848.9186120011425" cy="304.2049570975964" r="3.4" fill="#2f5c86" />
<path d="M820.0,342.0 L821.7870991122657,348.3918282814634 L821.2174398987595,350.00059186874023 L830.5901272214278,347.79388197645 L821.2434735449252,345.7263373581045 L823.1430021632787,346.88156326332864 L821.1084173046931,344.15510161165537 L824.12687871089,342.27656000641593 L818.9532963521794,343.82169553258944 L810.9604889776664,351.52650169543085 L807.839044333638,357.095700427385 L805.4019991399869,345.32981463865497 L807.3814063996734,350.1531631383434 L796.2612180890028,354.78932582158035 L788.6720992939426,366.15572230597814 L791.6472619591277,369.1185976060822 L793.2033354867094,354.5328297836472 L793.9240870906366,354.56931005672345 L795.026369704392,356.4944050007036 L790.3451265296217,358.15395049040137 L795.3520524341541,360.0882348238392 L788.0152581039483,366.81778745036854 L782.3616686492793,367.34496434911176 L784.1599508704468,365.5337461905086 L789.4758521168826,367.0416393419675 L793.111780493982,365.8769961996112 L796.1823401626883,375.29712347340705 L801.9804232059796,383.193977082817 L796.1721114752713,379.6115567120817 L794.049559262342,371.1098474398873 L794.67431112858,376.30874896644957 L795.3056544707079,378.4034703356587 L802.8293258639131,370.490710058162 L806.3703818415233,372.5682471456539 L806.7112229794043,367.4776066705408 L802.7102686094476,371.44450812763637 L806.8340777288859,367.8746153204096 L805.6440360959083,369.24292350155014 L796.0006724998198,363.47178611149786 L795.3805901196004,370.53430429670993 L789.7993945639962,374.961319855799 L798.1437997459689,371.5927133592162 L791.5475776528738,362.4894649747727 L798.113002328937,367.7078635783648 L785.028209205585,362.97992381716546 L782.0641916665527,363.65007172100655 L779.4830810862633,357.457823200163 L786.755595688089,353.4742624838544 L786.0148749364762,352.18670920767613 L789.0693869365465,359.92960749562616 L795.1834185026364,361.49673732217786 L796.4770054220756,360.8083113909315 L800.943434187652,355.53955574953625 L811.826315563983,357.2481985530475 L807.4177348660795,356.5361189703708 L804.2617054825558,352.23301012645425 L800.3725347703219,351.4936355048712 L805.0873253675411,346.40757700733553 L806.2007470123482,339.3555544292016 L812.6467014783371,347.59193349975845 L814.5414039114618,346.57089814583935 L813.2146954868628,349.5570167606038 L813.583873086913,347.49796506358757 L815.1016078024388,340.6143570045132 L820.1571128003638,343.33487766814386 L816.604490761908,338.9868892924874 L813.3593360039735,337.98482189617914 L815.8851978815732,332.7339382710447 L818.6136413267566,325.4385386564954 L816.5488267077885,321.94708333423904 L813.5103638608417,320.8315594958562 L814.3189097491947,325.1976451713033 L801.7146002185184,320.2946808426674 L803.7023011986334,319.39855575823356 L800.4611151152735,320.83174022714104 L802.9045870895739,320.5290476829 L808.8094516352239,319.75112871997277 L804.972277122158,316.5518445931021 L802.0534871366204,315.2954881722222 L793.3389749301438,316.8324115672747 L796.2549752133264,319.8652909818732 L796.2823253310352,316.80922895157437 L796.7648265937739,307.88084024934017 L795.6352354434636,308.62149446052734 L794.9852764618313,318.20267363260757 L787.5809183292142,315.44592989221525 L786.0969612576007,308.48231985833195 L785.8467322255837,309.1851216931603 L791.0383293155386,307.69267805643807 L799.0578976877533,312.7569565903839 L801.355673462585,309.27850742991603 L804.229754510506,303.46892312582133 L809.4455115479789,303.1243549420053 L806.8801792239351,298.11131013553006 L807.3373244770873,293.16359922881264 L814.2430380978062,291.892497748306 L810.1167734050736,292.82038919051354 L814.334643355371,293.62541056770016 L820.5075649443778,293.0253449498732 L821.581476643204,295.66466161532037 L821.5414711322024,289.83143812713536 L820.308301192021,291.0270665164507 L816.9109421531602,286.76758264158406 L809.8395749675412,289.5859455640823 L814.6952619831596,282.2232537050393 L813.9594283811249,277.1388862538189 L804.5429236826915,273.0878920735176 L806.299754577472,278.78841312862227 L797.8579958982511,280.96930775639044 L799.4323242439041,278.8619982585333 L800.2698756665411,274.7805270397723 L804.0030345285044,281.29665725824316 L802.4016119393776,283.532446693894 L807.7248751922365,285.6803459319551 L812.9410873838536,284.958096425268 L824.7448119029589,284.9298432339658 L825.0374740294023,285.20902959128705 L826.0298813754105,273.0000710133638 L823.8191605339393,277.0234963043017 L823.1062350541839,273.4652422925813 L818.4991144874261,269.30495673638615 L822.4954003409503,269.8796047882203 L821.487632561835,273.5264940546338 L820.3622909702323,277.23835585983545 L826.6880844873905,269.02990517789976 L825.4999797556386,269.02792687661605 L816.3647936912556,271.4339049351939 L818.2195875450589,269.9081109774358 L819.0051695269663,265.57600900344755 L819.6272731193294,267.3107199427046 L827.6635504885322,276.5669616638971 L822.1409601499245,280.0387841473411 L818.7042874155737,283.70445134337956 L817.7275521868904,287.08569826371945 L817.5575307944106,284.0879305629351 L817.7875253611226,283.3514054984116 L813.2746713216214,288.85111531585886 L811.9079760129787,284.2477975055807 L813.8108785844533,278.8623569285418 L818.7337744435688,273.30501506785487 L814.8330054917899,267.18526183571714" fill="none" stroke="#2f5c86" stroke-width="1.5" stroke-opacity="0.85" stroke-linejoin="round" />
<circle cx="814.8330054917899" cy="267.18526183571714" r="3.4" fill="#2f5c86" />
<path d="M820.0,342.0 L823.7635982132524,331.78546837142346 L826.702694912985,330.1359218252296 L826.1252468598766,329.2730042200503 L818.0976025186292,330.4375984865794 L817.9694299208177,325.53742064161963 L814.819711567671,324.8307605931967 L823.8062559874124,327.35838581692883 L827.9853196396421,329.9058579783393 L827.5566556978197,327.59480640177986 L831.9291449790949,329.93925722659156 L827.0015669546694,322.47061936558 L827.9751361285073,318.535527458311 L832.492027283118,314.7772189430367 L831.2816075156036,315.3766743528255 L823.7706349768812,314.43583235076164 L821.5481461803265,314.4830640355814 L830.7126963546098,311.0717143264154 L831.0346363718834,317.6251677849525 L834.6424853617558,310.16001139121994 L830.7063779352397,308.03292880643494 L828.2572304572952,308.704764106891 L826.5463796816231,316.4566930436046 L824.1218201050606,324.25180508800474 L830.8989196354703,319.1433147359195 L831.1697026690806,317.7331559465099 L831.5076621170101,316.71224795030395 L832.5152351319493,317.81170193641583 L831.7684207291331,324.25544092210106 L826.9837544740379,327.1264804340648 L828.0479855276354,328.8639768820616 L837.3213702020917,329.7183231599538 L835.660052568828,327.56486929632604 L840.6980128843035,318.54962779828475 L845.472085750376,321.3199580128597 L844.7245787522614,316.1727159829114 L846.0473244995086,312.2317460088934 L845.7726928686754,304.4220061074466 L852.8420854808589,298.89917406688005 L853.6993149178859,306.55549466799 L847.3114152082119,304.87184249564336 L850.5755928165075,318.76907848260896 L848.416384200778,313.10341008070634 L853.1368953462523,315.3645804578704 L856.3334475837273,315.08353615721967 L855.4208863718411,309.559081666225 L861.041465702504,311.93651627693043 L856.6462026327451,318.0720436948498 L849.9644629255183,311.5079879616384 L859.1343006272082,310.32543655552206 L864.3609682271926,313.43777485666715 L864.2048672394612,308.8582590183096 L865.9012218289455,308.8457845685105 L858.1011893011306,315.63547156731926 L856.2996419536021,318.10502054136464 L856.1326213556315,320.97786529419193 L855.2767536308622,320.4976390747789 L857.9370990508335,319.99467564805184 L855.4930549998604,321.14347801806815 L860.0134058183588,321.9503011079587 L855.5579668590535,326.602246963734 L857.0880146522686,323.75174844666753 L863.1182847309387,325.1268727888767 L869.8723253140093,326.6314535166698 L868.9151466994335,329.1971383828443 L871.5761343627205,324.03327831926737 L871.6006980879716,326.2881394041127 L864.3579203057507,325.44173452652853 L862.8514648333079,326.2728934934486 L859.9625280959267,330.3324707027001 L858.0318425753519,328.0727418234912 L862.7260998308005,328.01725278042176 L864.3785783547969,328.8533870958474 L863.8876905164057,335.2807387098635 L868.2049561868406,332.33401749081594 L875.2584290466359,335.1592643206145 L875.9697236439563,339.46651547162185 L877.2185041192939,339.95321009709744 L880.5462529053505,340.5452608017932 L883.717805338905,342.7808856980152 L886.6590831808159,344.116595662545 L884.6826603878762,343.5899022298636 L886.5462642612854,350.20058584731277 L879.4301155565358,349.1891698710199 L879.2722606736213,358.7630675246751 L871.2702220956892,362.30747900269097 L872.9096478075256,361.2187184993496 L877.8260751774144,355.51821541554403 L889.2342810842448,362.26646741768553 L889.1664960229197,357.0678475163733 L883.307742287439,363.66012907587043 L884.3738863040835,358.31168149383524 L890.4745120725845,366.66029454228226 L884.8107388877423,366.99151260107686 L882.4171220150363,365.32231511330247 L883.187929035865,356.7863873296144 L883.0234837511643,355.77848283618744 L883.5248619988834,350.3614117666384 L878.3638185622044,348.3757852505623 L874.8250166339112,354.99115081271634 L880.6091262390485,352.32263476534513 L887.4464217061089,350.93220293113313 L890.7267773281759,350.0993508722894 L893.6365586084491,351.8740365064423 L902.0037825403881,355.90715931783365 L910.39145194433,356.63779529177833 L914.7785188542846,355.748731192277 L917.1500427598114,348.37760676374864 L918.078118850696,352.65511020631345 L919.4785595162598,349.2871442759367 L907.9541006604315,344.34273993401086 L913.454582327497,352.5829310349303 L912.9733729151816,348.3724153304686 L907.6663148506269,350.1367167275167 L906.2919300324559,347.1841013225977 L911.9153763590812,347.0712512697936 L912.4826725019489,342.3411229804536 L915.3610461499268,342.6064048525538 L922.0413605016172,349.1723874430671 L923.0349686747521,350.944591247304 L920.8590894375591,349.73320163511505 L921.2994039365227,337.60279646873465 L924.6645926647825,335.650839189998 L932.8992370453594,330.4907965542948 L924.1402928180265,329.65265054697426 L927.9849185638841,332.3366970845396 L929.6562043180699,334.3114352658318 L931.7025060959331,341.97041302418734 L922.4863252155285,344.41592226977286 L923.7890135403678,337.762181033263 L922.6463321470552,341.1949515945566 L927.2785037728167,340.83696279039947 L936.2053893865827,341.08646025725454 L926.9387240259798,344.780272266058 L922.4880595099855,351.36897397336617 L918.8862213549985,354.55890543181715 L917.6543852586374,357.07488959242784 L919.776358321541,354.9314625541273 L920.7705292801261,353.83879690393496 L911.7510821041868,361.812182151216 L907.6021405944603,360.4514065856376" fill="none" stroke="#2f5c86" stroke-width="1.5" stroke-opacity="0.85" stroke-linejoin="round" />
<circle cx="907.6021405944603" cy="360.4514065856376" r="3.4" fill="#2f5c86" />
<circle cx="820.0" cy="342.0" r="3.6" fill="white" stroke="#1a1a1a" stroke-width="1.6" />
<text x="820.0" y="134" font-size="16" font-family="Helvetica" text-anchor="middle" font-weight="bold" fill="#1a1a1a">Independent  (ρ = 0)</text>
<text x="302.0" y="570" font-size="13" font-family="Helvetica" text-anchor="middle" fill="#555">R = [[1, 0.75], [0.75, 1]]</text>
<text x="820.0" y="570" font-size="13" font-family="Helvetica" text-anchor="middle" fill="#555">R = [[1, 0], [0, 1]]</text>
</svg>