<?xml version="1.0" encoding="UTF-8"?>
<svg xmlns="http://www.w3.org/2000/svg" xmlns:xlink="http://www.w3.org/1999/xlink"
     width="1200" height="660" viewBox="0 0 1200 660">
<defs>
</defs>
<rect x="0" y="0" width="1200" height="660" fill="white" />
<text x="600.0" y="46" font-size="32" font-family="Helvetica" text-anchor="middle" font-weight="bold" fill="#1a1a1a">A discrete character under the Mk model</text>
<rect x="450.0" y="74" width="18" height="18" fill="#1f1f1f" stroke="#1a1a1a" stroke-width="1.4" />
<text x="476.0" y="83" font-size="18" font-family="Helvetica" text-anchor="start" dominant-baseline="central" fill="#1a1a1a">state A</text>
<rect x="560.0" y="74" width="18" height="18" fill="#8a8a8a" stroke="#1a1a1a" stroke-width="1.4" />
<text x="586.0" y="83" font-size="18" font-family="Helvetica" text-anchor="start" dominant-baseline="central" fill="#1a1a1a">state B</text>
<rect x="670.0" y="74" width="18" height="18" fill="#cccccc" stroke="#1a1a1a" stroke-width="1.4" />
<text x="696.0" y="83" font-size="18" font-family="Helvetica" text-anchor="start" dominant-baseline="central" fill="#1a1a1a">state C</text>
<text x="150" y="126" font-size="22" font-family="Helvetica" text-anchor="start" fill="#1a1a1a" font-weight="bold">A   the model</text>
<path d="M279.5861837798008,269.1896323499957 Q227.05124503538997,339.16212816274293,194.6070395182176,420.4237026460337" fill="none" stroke="#1a1a1a" stroke-width="3.4" stroke-linecap="round" />
<path d="M194.6070395182176,420.4237026460337 L194.16567520736007,409.4325608698077 L202.49692335235815,412.7588651993707 Z" fill="#1a1a1a" />
<text x="213.10249007077994" y="331.32425632548586" font-size="18" font-family="Helvetica" text-anchor="middle" dominant-baseline="central" fill="#8a8a8a">q</text>
<path d="M202.41381622019915,424.8103676500043 Q254.94875496461003,354.83787183725707,287.3929604817824,273.5762973539663" fill="none" stroke="#1a1a1a" stroke-width="3.4" stroke-linecap="round" />
<path d="M287.3929604817824,273.5762973539663 L287.8343247926399,284.5674391301923 L279.5030766476418,281.2411348006293 Z" fill="#1a1a1a" />
<path d="M215.6916909981247,447.4316351188983 Q300.0,436.0,384.3083090018753,447.4316351188983" fill="none" stroke="#1a1a1a" stroke-width="3.4" stroke-linecap="round" />
<path d="M384.3083090018753,447.4316351188983 L373.75273845454774,450.52678138691084 L374.95807868220976,441.6373972079037 Z" fill="#1a1a1a" />
<text x="300.0" y="420.0" font-size="18" font-family="Helvetica" text-anchor="middle" dominant-baseline="central" fill="#8a8a8a">q</text>
<path d="M384.3083090018753,456.5683648811017 Q300.0,468.0,215.6916909981247,456.5683648811017" fill="none" stroke="#1a1a1a" stroke-width="3.4" stroke-linecap="round" />
<path d="M215.6916909981247,456.5683648811017 L226.2472615454522,453.47321861308916 L225.0419213177902,462.3626027920963 Z" fill="#1a1a1a" />
<path d="M320.4138162201992,269.1896323499957 Q372.94875496461003,339.16212816274293,405.3929604817824,420.4237026460337" fill="none" stroke="#1a1a1a" stroke-width="3.4" stroke-linecap="round" />
<path d="M405.3929604817824,420.4237026460337 L397.5030766476418,412.7588651993707 L405.8343247926399,409.4325608698077 Z" fill="#1a1a1a" />
<text x="386.89750992922006" y="331.32425632548586" font-size="18" font-family="Helvetica" text-anchor="middle" dominant-baseline="central" fill="#8a8a8a">q</text>
<path d="M397.5861837798008,424.8103676500043 Q345.05124503538997,354.83787183725707,312.6070395182176,273.5762973539663" fill="none" stroke="#1a1a1a" stroke-width="3.4" stroke-linecap="round" />
<path d="M312.6070395182176,273.5762973539663 L320.4969233523582,281.2411348006293 L312.1656752073601,284.5674391301923 Z" fill="#1a1a1a" />
<circle cx="300" cy="242" r="34" fill="#1f1f1f" stroke="#1a1a1a" stroke-width="2.2" />
<text x="300" y="242" font-size="22" font-family="Helvetica" text-anchor="middle" dominant-baseline="central" font-weight="bold" fill="white">A</text>
<circle cx="182" cy="452" r="34" fill="#8a8a8a" stroke="#1a1a1a" stroke-width="2.2" />
<text x="182" y="452" font-size="22" font-family="Helvetica" text-anchor="middle" dominant-baseline="central" font-weight="bold" fill="white">B</text>
<circle cx="418" cy="452" r="34" fill="#cccccc" stroke="#1a1a1a" stroke-width="2.2" />
<text x="418" y="452" font-size="22" font-family="Helvetica" text-anchor="middle" dominant-baseline="central" font-weight="bold" fill="#1a1a1a">C</text>
<text x="300" y="510" font-size="18" font-family="Helvetica" text-anchor="middle" fill="#8a8a8a">equal-rates Q (one shared rate q)</text>
<text x="560" y="126" font-size="22" font-family="Helvetica" text-anchor="start" fill="#1a1a1a" font-weight="bold">B   a simulated realization</text>
<path d="M610.0,233.1818181818182 L677.1975947162645,233.1818181818182" stroke="#1f1f1f" stroke-width="5.0" stroke-linecap="butt" />
<path d="M677.1975947162645,233.1818181818182 L861.5018707664731,233.1818181818182" stroke="#cccccc" stroke-width="5.0" stroke-linecap="butt" />
<path d="M610.0,438.29545454545456 L646.0292104830262,438.29545454545456" stroke="#1f1f1f" stroke-width="5.0" stroke-linecap="butt" />
<path d="M861.5018707664731,207.27272727272728 L916.0624100851032,207.27272727272728" stroke="#cccccc" stroke-width="5.0" stroke-linecap="butt" />
<path d="M861.5018707664731,259.0909090909091 L1038.1617257831685,259.0909090909091" stroke="#cccccc" stroke-width="5.0" stroke-linecap="butt" />
<path d="M1038.1617257831685,259.0909090909091 L1040.0,259.0909090909091" stroke="#8a8a8a" stroke-width="5.0" stroke-linecap="butt" />
<path d="M646.0292104830262,358.4090909090909 L876.9638438548521,358.4090909090909" stroke="#1f1f1f" stroke-width="5.0" stroke-linecap="butt" />
<path d="M646.0292104830262,518.1818181818182 L647.295466310146,518.1818181818182" stroke="#1f1f1f" stroke-width="5.0" stroke-linecap="butt" />
<path d="M916.0624100851032,190.0 L1040.0,190.0" stroke="#cccccc" stroke-width="5.0" stroke-linecap="butt" />
<path d="M916.0624100851032,224.54545454545456 L992.1155241132035,224.54545454545456" stroke="#cccccc" stroke-width="5.0" stroke-linecap="butt" />
<path d="M992.1155241132035,224.54545454545456 L1040.0,224.54545454545456" stroke="#1f1f1f" stroke-width="5.0" stroke-linecap="butt" />
<path d="M876.9638438548521,310.9090909090909 L949.713923986587,310.9090909090909" stroke="#1f1f1f" stroke-width="5.0" stroke-linecap="butt" />
<path d="M876.9638438548521,405.90909090909093 L910.914740271955,405.90909090909093" stroke="#1f1f1f" stroke-width="5.0" stroke-linecap="butt" />
<path d="M647.295466310146,483.6363636363636 L1000.5579774863861,483.6363636363636" stroke="#1f1f1f" stroke-width="5.0" stroke-linecap="butt" />
<path d="M1000.5579774863861,483.6363636363636 L1032.9148517701428,483.6363636363636" stroke="#8a8a8a" stroke-width="5.0" stroke-linecap="butt" />
<path d="M647.295466310146,552.7272727272727 L724.4193770175674,552.7272727272727" stroke="#1f1f1f" stroke-width="5.0" stroke-linecap="butt" />
<path d="M949.713923986587,293.6363636363636 L1040.0,293.6363636363636" stroke="#1f1f1f" stroke-width="5.0" stroke-linecap="butt" />
<path d="M949.713923986587,328.1818181818182 L1040.0,328.1818181818182" stroke="#1f1f1f" stroke-width="5.0" stroke-linecap="butt" />
<path d="M910.914740271955,380.0 L933.7638775931398,380.0" stroke="#1f1f1f" stroke-width="5.0" stroke-linecap="butt" />
<path d="M933.7638775931398,380.0 L960.7174497193366,380.0" stroke="#8a8a8a" stroke-width="5.0" stroke-linecap="butt" />
<path d="M960.7174497193366,380.0 L1001.1665341973908,380.0" stroke="#cccccc" stroke-width="5.0" stroke-linecap="butt" />
<path d="M910.914740271955,431.8181818181818 L1040.0,431.8181818181818" stroke="#1f1f1f" stroke-width="5.0" stroke-linecap="butt" />
<path d="M1032.9148517701428,466.3636363636364 L1040.0,466.3636363636364" stroke="#8a8a8a" stroke-width="5.0" stroke-linecap="butt" />
<path d="M1032.9148517701428,500.90909090909093 L1040.0,500.90909090909093" stroke="#8a8a8a" stroke-width="5.0" stroke-linecap="butt" />
<path d="M724.4193770175674,535.4545454545455 L986.1236681373707,535.4545454545455" stroke="#1f1f1f" stroke-width="5.0" stroke-linecap="butt" />
<path d="M986.1236681373707,535.4545454545455 L1040.0,535.4545454545455" stroke="#cccccc" stroke-width="5.0" stroke-linecap="butt" />
<path d="M724.4193770175674,570.0 L838.9441497102433,570.0" stroke="#1f1f1f" stroke-width="5.0" stroke-linecap="butt" />
<path d="M838.9441497102433,570.0 L1040.0,570.0" stroke="#cccccc" stroke-width="5.0" stroke-linecap="butt" />
<path d="M1001.1665341973908,362.72727272727275 L1040.0,362.72727272727275" stroke="#cccccc" stroke-width="5.0" stroke-linecap="butt" />
<path d="M1001.1665341973908,397.27272727272725 L1040.0,397.27272727272725" stroke="#cccccc" stroke-width="5.0" stroke-linecap="butt" />
<path d="M916.0624100851032,190.0 L916.0624100851032,224.54545454545456" stroke="#cccccc" stroke-width="5.0" />
<path d="M861.5018707664731,207.27272727272728 L861.5018707664731,259.0909090909091" stroke="#cccccc" stroke-width="5.0" />
<path d="M949.713923986587,293.6363636363636 L949.713923986587,328.1818181818182" stroke="#1f1f1f" stroke-width="5.0" />
<path d="M1001.1665341973908,362.72727272727275 L1001.1665341973908,397.27272727272725" stroke="#cccccc" stroke-width="5.0" />
<path d="M910.914740271955,380.0 L910.914740271955,431.8181818181818" stroke="#1f1f1f" stroke-width="5.0" />
<path d="M876.9638438548521,310.9090909090909 L876.9638438548521,405.90909090909093" stroke="#1f1f1f" stroke-width="5.0" />
<path d="M1032.9148517701428,466.3636363636364 L1032.9148517701428,500.90909090909093" stroke="#8a8a8a" stroke-width="5.0" />
<path d="M724.4193770175674,535.4545454545455 L724.4193770175674,570.0" stroke="#1f1f1f" stroke-width="5.0" />
<path d="M647.295466310146,483.6363636363636 L647.295466310146,552.7272727272727" stroke="#1f1f1f" stroke-width="5.0" />
<path d="M646.0292104830262,358.4090909090909 L646.0292104830262,518.1818181818182" stroke="#1f1f1f" stroke-width="5.0" />
<path d="M610.0,233.1818181818182 L610.0,438.29545454545456" stroke="#1f1f1f" stroke-width="5.0" />
<path d="M1040.0,190.0 L1052,190.0" stroke="#c8c8c8" stroke-width="0.8" />
<rect x="1058" y="178.0" width="24" height="24" fill="#cccccc" stroke="#1a1a1a" stroke-width="1.5" />
<path d="M1040.0,224.54545454545456 L1052,224.54545454545456" stroke="#c8c8c8" stroke-width="0.8" />
<rect x="1058" y="212.54545454545456" width="24" height="24" fill="#1f1f1f" stroke="#1a1a1a" stroke-width="1.5" />
<path d="M1040.0,259.0909090909091 L1052,259.0909090909091" stroke="#c8c8c8" stroke-width="0.8" />
<rect x="1058" y="247.09090909090912" width="24" height="24" fill="#8a8a8a" stroke="#1a1a1a" stroke-width="1.5" />
<path d="M1040.0,293.6363636363636 L1052,293.6363636363636" stroke="#c8c8c8" stroke-width="0.8" />
<rect x="1058" y="281.6363636363636" width="24" height="24" fill="#1f1f1f" stroke="#1a1a1a" stroke-width="1.5" />
<path d="M1040.0,328.1818181818182 L1052,328.1818181818182" stroke="#c8c8c8" stroke-width="0.8" />
<rect x="1058" y="316.1818181818182" width="24" height="24" fill="#1f1f1f" stroke="#1a1a1a" stroke-width="1.5" />
<path d="M1040.0,362.72727272727275 L1052,362.72727272727275" stroke="#c8c8c8" stroke-width="0.8" />
<rect x="1058" y="350.72727272727275" width="24" height="24" fill="#cccccc" stroke="#1a1a1a" stroke-width="1.5" />
<path d="M1040.0,397.27272727272725 L1052,397.27272727272725" stroke="#c8c8c8" stroke-width="0.8" />
<rect x="1058" y="385.27272727272725" width="24" height="24" fill="#cccccc" stroke="#1a1a1a" stroke-width="1.5" />
<path d="M1040.0,431.8181818181818 L1052,431.8181818181818" stroke="#c8c8c8" stroke-width="0.8" />
<rect x="1058" y="419.8181818181818" width="24" height="24" fill="#1f1f1f" stroke="#1a1a1a" stroke-width="1.5" />
<path d="M1040.0,466.3636363636364 L1052,466.3636363636364" stroke="#c8c8c8" stroke-width="0.8" />
<rect x="1058" y="454.3636363636364" width="24" height="24" fill="#8a8a8a" stroke="#1a1a1a" stroke-width="1.5" />
<path d="M1040.0,500.90909090909093 L1052,500.90909090909093" stroke="#c8c8c8" stroke-width="0.8" />
<rect x="1058" y="488.90909090909093" width="24" height="24" fill="#8a8a8a" stroke="#1a1a1a" stroke-width="1.5" />
<path d="M1040.0,535.4545454545455 L1052,535.4545454545455" stroke="#c8c8c8" stroke-width="0.8" />
<rect x="1058" y="523.4545454545455" width="24" height="24" fill="#cccccc" stroke="#1a1a1a" stroke-width="1.5" />
<path d="M1040.0,570.0 L1052,570.0" stroke="#c8c8c8" stroke-width="0.8" />
<rect x="1058" y="558.0" width="24" height="24" fill="#cccccc" stroke="#1a1a1a" stroke-width="1.5" />
<path d="M610.0,606 L1040.0,606" stroke="#1a1a1a" stroke-width="1.6" />
<path d="M610.0,606 L610.0,612" stroke="#1a1a1a" stroke-width="1.6" />
<text x="610.0" y="628" font-size="18" font-family="Helvetica" text-anchor="middle" fill="#1a1a1a">0.00</text>
<path d="M717.5,606 L717.5,612" stroke="#1a1a1a" stroke-width="1.6" />
<text x="717.5" y="628" font-size="18" font-family="Helvetica" text-anchor="middle" fill="#1a1a1a">0.25</text>
<path d="M825.0,606 L825.0,612" stroke="#1a1a1a" stroke-width="1.6" />
<text x="825.0" y="628" font-size="18" font-family="Helvetica" text-anchor="middle" fill="#1a1a1a">0.50</text>
<path d="M932.5,606 L932.5,612" stroke="#1a1a1a" stroke-width="1.6" />
<text x="932.5" y="628" font-size="18" font-family="Helvetica" text-anchor="middle" fill="#1a1a1a">0.75</text>
<path d="M1040.0,606 L1040.0,612" stroke="#1a1a1a" stroke-width="1.6" />
<text x="1040.0" y="628" font-size="18" font-family="Helvetica" text-anchor="middle" fill="#1a1a1a">1.00</text>
<text x="825.0" y="650" font-size="18" font-family="Helvetica" text-anchor="middle" fill="#8a8a8a">time (root to present)</text>
</svg>