<?xml version="1.0" encoding="UTF-8"?>
<svg xmlns="http://www.w3.org/2000/svg" xmlns:xlink="http://www.w3.org/1999/xlink"
     width="1200" height="560" viewBox="0 0 1200 560">
<defs>
</defs>
<rect x="0" y="0" width="1200" height="560" fill="white" />
<text x="600.0" y="46" font-size="32" font-family="Helvetica" text-anchor="middle" font-weight="bold" fill="#1a1a1a">Two ways a branch is traversed</text>
<text x="70" y="124" font-size="22" font-family="Helvetica" text-anchor="start" fill="#1a1a1a" font-weight="bold">A   continuous: draw the endpoint</text>
<path d="M110,450 L110,150" stroke="#1a1a1a" stroke-width="1.6" />
<path d="M110,450 L470,450" stroke="#1a1a1a" stroke-width="1.6" />
<text x="290.0" y="484" font-size="18" font-family="Helvetica" text-anchor="middle" fill="#8a8a8a">time (one branch)</text>
<text x="76" y="300.0" font-size="18" font-family="Helvetica" text-anchor="middle" fill="#8a8a8a" transform="rotate(-90, 76, 300.0)">trait value</text>
<circle cx="110" cy="300.0" r="5" fill="#1a1a1a" />
<text x="120" y="286.0" font-size="18" font-family="Helvetica" text-anchor="start" fill="#8a8a8a">root value</text>
<text x="290.0" y="158" font-size="20" font-family="Helvetica" text-anchor="middle" fill="#1a1a1a">endpoint = one Normal draw</text>
<text x="290.0" y="180" font-size="18" font-family="Helvetica" text-anchor="middle" fill="#8a8a8a">(the path is never simulated)</text>
<path d="M347.6,205.5 L348.6398020759795,205.5 L348.90212081529774,207.89240506329114 L349.2212378676551,210.28481012658227 L349.60695231192165,212.6772151898734 L350.07014372611513,215.06962025316454 L350.62275014275224,217.4620253164557 L351.277707060421,219.85443037974684 L352.0488408829011,222.24683544303798 L352.95071068312495,224.63924050632912 L353.9983931418054,227.03164556962025 L355.20720692895037,229.4240506329114 L356.59237469910613,231.81645569620252 L358.16862324979564,234.20886075949366 L359.9497252074955,236.6012658227848 L361.9479887818964,238.99367088607596 L364.1737055557854,241.3860759493671 L366.63456980765136,243.77848101265823 L369.33508631798856,246.17088607594937 L372.27598678385954,248.5632911392405 L375.453677639554,250.95569620253164 L378.8597440308718,253.34810126582278 L382.4805357047308,255.7405063291139 L386.29686046969704,258.13291139240505 L390.28380951523457,260.5253164556962 L394.4107361649956,262.9177215189873 L398.64140557061563,265.3101265822785 L402.93432749603437,267.7025316455696 L407.24327785207214,270.09493670886076 L411.51800725435606,272.4873417721519 L415.7051269086978,274.87974683544303 L419.7491539535929,277.2721518987342 L423.5936904303502,279.6645569620253 L427.1827027479938,282.05696202531647 L430.4618622956808,284.4493670886076 L433.3799031271795,286.84177215189874 L435.88994973327794,289.2341772151899 L437.9507670732387,291.626582278481 L439.5278863908136,294.0189873417721 L440.5945639065638,296.4113924050633 L441.13253514087086,298.80379746835445 L441.13253514087086,301.19620253164555 L440.5945639065638,303.5886075949367 L439.5278863908136,305.9810126582278 L437.9507670732387,308.373417721519 L435.88994973327794,310.7658227848101 L433.3799031271795,313.15822784810126 L430.4618622956808,315.5506329113924 L427.1827027479938,317.94303797468353 L423.59369043035025,320.33544303797464 L419.7491539535929,322.7278481012658 L415.7051269086978,325.12025316455697 L411.51800725435606,327.5126582278481 L407.24327785207214,329.90506329113924 L402.93432749603437,332.2974683544304 L398.64140557061563,334.6898734177215 L394.4107361649957,337.0822784810126 L390.28380951523457,339.4746835443038 L386.29686046969704,341.86708860759495 L382.48053570473087,344.25949367088606 L378.85974403087187,346.65189873417717 L375.453677639554,349.0443037974684 L372.27598678385954,351.4367088607595 L369.33508631798856,353.8291139240506 L366.63456980765136,356.22151898734177 L364.1737055557853,358.61392405063293 L361.9479887818964,361.00632911392404 L359.94972520749553,363.39873417721515 L358.1686232497957,365.7911392405063 L356.59237469910613,368.1835443037975 L355.20720692895037,370.5759493670886 L353.9983931418054,372.96835443037975 L352.9507106831249,375.3607594936709 L352.0488408829011,377.753164556962 L351.277707060421,380.1455696202531 L350.62275014275224,382.5379746835443 L350.07014372611513,384.93037974683546 L349.60695231192165,387.32278481012656 L349.2212378676551,389.71518987341767 L348.90212081529774,392.1075949367089 L348.6398020759795,394.5" fill="none" stroke="#1a1a1a" stroke-width="2.4" />
<path d="M347.6,205.5 L347.6,394.5" stroke="#9a9a9a" stroke-width="1.2" />
<path d="M110,300.0 L347.6,304.725" stroke="#9a9a9a" stroke-width="1.6" stroke-dasharray="7,6" />
<circle cx="347.6" cy="249.6" r="4.5" fill="white" stroke="#1a1a1a" stroke-width="1.6" />
<circle cx="347.6" cy="277.95" r="4.5" fill="white" stroke="#1a1a1a" stroke-width="1.6" />
<circle cx="347.6" cy="304.725" r="4.5" fill="white" stroke="#1a1a1a" stroke-width="1.6" />
<circle cx="347.6" cy="328.35" r="4.5" fill="white" stroke="#1a1a1a" stroke-width="1.6" />
<circle cx="347.6" cy="353.55" r="4.5" fill="white" stroke="#1a1a1a" stroke-width="1.6" />
<circle cx="347.6" cy="304.725" r="6.0" fill="#1a1a1a" stroke="#1a1a1a" stroke-width="1.6" />
<text x="453.20000000000005" y="300.0" font-size="18" font-family="Helvetica" text-anchor="start" dominant-baseline="central" fill="#8a8a8a">Normal(x0, sigma^2 t)</text>
<text x="680" y="124" font-size="22" font-family="Helvetica" text-anchor="start" fill="#1a1a1a" font-weight="bold">B   discrete: simulate the jumps</text>
<path d="M720,450 L720,150" stroke="#1a1a1a" stroke-width="1.6" />
<path d="M720,450 L1080,450" stroke="#1a1a1a" stroke-width="1.6" />
<text x="900.0" y="484" font-size="18" font-family="Helvetica" text-anchor="middle" fill="#8a8a8a">time (one branch)</text>
<text x="686" y="300.0" font-size="18" font-family="Helvetica" text-anchor="middle" fill="#8a8a8a" transform="rotate(-90, 686, 300.0)">state</text>
<path d="M720,390.0 L1080,390.0" stroke="#e4e4e4" stroke-width="1.0" />
<text x="708" y="390.0" font-size="18" font-family="Helvetica" text-anchor="end" dominant-baseline="central" fill="#8a8a8a">0</text>
<path d="M720,300.0 L1080,300.0" stroke="#e4e4e4" stroke-width="1.0" />
<text x="708" y="300.0" font-size="18" font-family="Helvetica" text-anchor="end" dominant-baseline="central" fill="#8a8a8a">1</text>
<path d="M720,210.0 L1080,210.0" stroke="#e4e4e4" stroke-width="1.0" />
<text x="708" y="210.0" font-size="18" font-family="Helvetica" text-anchor="end" dominant-baseline="central" fill="#8a8a8a">2</text>
<path d="M720.0,300.0 L731.0894931179464,300.0" stroke="#1a1a1a" stroke-width="4.0" stroke-linecap="round" />
<path d="M731.0894931179464,390.0 L872.1632216963657,390.0" stroke="#1a1a1a" stroke-width="4.0" stroke-linecap="round" />
<path d="M731.0894931179464,300.0 L731.0894931179464,390.0" stroke="#1a1a1a" stroke-width="2.0" />
<circle cx="731.0894931179464" cy="390.0" r="4.0" fill="#1a1a1a" />
<path d="M872.1632216963657,300.0 L1080.0,300.0" stroke="#1a1a1a" stroke-width="4.0" stroke-linecap="round" />
<path d="M872.1632216963657,390.0 L872.1632216963657,300.0" stroke="#1a1a1a" stroke-width="2.0" />
<circle cx="872.1632216963657" cy="300.0" r="4.0" fill="#1a1a1a" />
<text x="900.0" y="156" font-size="20" font-family="Helvetica" text-anchor="middle" fill="#1a1a1a">every jump simulated exactly</text>
<text x="900.0" y="178" font-size="18" font-family="Helvetica" text-anchor="middle" fill="#8a8a8a">(a stochastic character map)</text>
</svg>