<?xml version="1.0" encoding="UTF-8"?>
<svg xmlns="http://www.w3.org/2000/svg" xmlns:xlink="http://www.w3.org/1999/xlink"
     width="1200" height="660" viewBox="0 0 1200 660">
<defs>
</defs>
<rect x="0" y="0" width="1200" height="660" fill="white" />
<text x="600.0" y="46" font-size="32" font-family="Helvetica" text-anchor="middle" font-weight="bold" fill="#1a1a1a">Correlated binary characters (Pagel)</text>
<rect x="450.0" y="68" width="22" height="22" fill="#5a86a0" stroke="#1a1a1a" stroke-width="1.4" />
<text x="480.0" y="80" font-size="22" font-family="Helvetica" text-anchor="start" dominant-baseline="central" fill="#1a1a1a">state 1 (present)</text>
<rect x="640.0" y="68" width="22" height="22" fill="white" stroke="#1a1a1a" stroke-width="1.4" />
<text x="670.0" y="80" font-size="22" font-family="Helvetica" text-anchor="start" dominant-baseline="central" fill="#1a1a1a">state 0 (absent)</text>
<text x="172" y="126" font-size="22" font-family="Helvetica" text-anchor="start" fill="#1a1a1a" font-weight="bold">A   the model</text>
<path d="M245.51657834516936,266.28694687298247 Q300.0,257.0,354.48342165483064,266.28694687298247" fill="none" stroke="#1a1a1a" stroke-width="2.1692099788303083" stroke-linecap="round" />
<path d="M354.48342165483064,266.28694687298247 L343.8285711992241,269.0208381964737 L345.33593169602915,260.17765661521713 Z" fill="#1a1a1a" />
<text x="300.0" y="241.0" font-size="22" font-family="Helvetica" text-anchor="middle" dominant-baseline="central" fill="#8a8a8a">0.05</text>
<path d="M354.48342165483064,277.71305312701753 Q300.0,287.0,245.51657834516936,277.71305312701753" fill="none" stroke="#1a1a1a" stroke-width="5.2" stroke-linecap="round" />
<path d="M245.51657834516936,277.71305312701753 L256.1714288007759,274.9791618035263 L254.66406830397085,283.82234338478287 Z" fill="#1a1a1a" />
<text x="300.0" y="303.0" font-size="22" font-family="Helvetica" text-anchor="middle" dominant-baseline="central" fill="#8a8a8a">2</text>
<path d="M245.51657834516936,453.71305312701753 Q300.0,463.0,354.48342165483064,453.71305312701753" fill="none" stroke="#1a1a1a" stroke-width="5.2" stroke-linecap="round" />
<path d="M354.48342165483064,453.71305312701753 L345.33593169602915,459.82234338478287 L343.8285711992241,450.9791618035263 Z" fill="#1a1a1a" />
<text x="300.0" y="479.0" font-size="22" font-family="Helvetica" text-anchor="middle" dominant-baseline="central" fill="#8a8a8a">2</text>
<path d="M354.48342165483064,442.28694687298247 Q300.0,433.0,245.51657834516936,442.28694687298247" fill="none" stroke="#1a1a1a" stroke-width="2.1692099788303083" stroke-linecap="round" />
<path d="M245.51657834516936,442.28694687298247 L254.66406830397085,436.17765661521713 L256.1714288007759,445.0208381964737 Z" fill="#1a1a1a" />
<text x="300.0" y="417.0" font-size="22" font-family="Helvetica" text-anchor="middle" dominant-baseline="central" fill="#8a8a8a">0.05</text>
<path d="M206.2869468729825,305.51657834516936 Q197.0,360.0,206.2869468729825,414.48342165483064" fill="none" stroke="#1a1a1a" stroke-width="3.4000000000000004" stroke-linecap="round" />
<path d="M206.2869468729825,414.48342165483064 L200.1776566152172,405.33593169602915 L209.02083819647373,403.8285711992241 Z" fill="#1a1a1a" />
<text x="181.0" y="360.0" font-size="22" font-family="Helvetica" text-anchor="middle" dominant-baseline="central" fill="#8a8a8a">0.5</text>
<path d="M217.7130531270175,414.48342165483064 Q227.0,360.0,217.7130531270175,305.51657834516936" fill="none" stroke="#1a1a1a" stroke-width="3.4000000000000004" stroke-linecap="round" />
<path d="M217.7130531270175,305.51657834516936 L223.8223433847828,314.66406830397085 L214.9791618035263,316.1714288007759 Z" fill="#1a1a1a" />
<text x="243.0" y="360.0" font-size="22" font-family="Helvetica" text-anchor="middle" dominant-baseline="central" fill="#8a8a8a">0.5</text>
<path d="M393.7130531270175,305.51657834516936 Q403.0,360.0,393.7130531270175,414.48342165483064" fill="none" stroke="#1a1a1a" stroke-width="3.4000000000000004" stroke-linecap="round" />
<path d="M393.7130531270175,414.48342165483064 L390.97916180352627,403.8285711992241 L399.8223433847828,405.33593169602915 Z" fill="#1a1a1a" />
<text x="419.0" y="360.0" font-size="22" font-family="Helvetica" text-anchor="middle" dominant-baseline="central" fill="#8a8a8a">0.5</text>
<path d="M382.28694687298247,414.48342165483064 Q373.0,360.0,382.28694687298247,305.51657834516936" fill="none" stroke="#1a1a1a" stroke-width="3.4000000000000004" stroke-linecap="round" />
<path d="M382.28694687298247,305.51657834516936 L385.0208381964737,316.1714288007759 L376.17765661521713,314.66406830397085 Z" fill="#1a1a1a" />
<text x="357.0" y="360.0" font-size="22" font-family="Helvetica" text-anchor="middle" dominant-baseline="central" fill="#8a8a8a">0.5</text>
<circle cx="212" cy="272" r="34" fill="white" stroke="#1a1a1a" stroke-width="2.2" />
<text x="212" y="272" font-size="22" font-family="Helvetica" text-anchor="middle" dominant-baseline="central" fill="#1a1a1a" font-weight="bold">00</text>
<circle cx="388" cy="272" r="34" fill="white" stroke="#1a1a1a" stroke-width="2.2" />
<text x="388" y="272" font-size="22" font-family="Helvetica" text-anchor="middle" dominant-baseline="central" fill="#1a1a1a" font-weight="bold">01</text>
<circle cx="212" cy="448" r="34" fill="white" stroke="#1a1a1a" stroke-width="2.2" />
<text x="212" y="448" font-size="22" font-family="Helvetica" text-anchor="middle" dominant-baseline="central" fill="#1a1a1a" font-weight="bold">10</text>
<circle cx="388" cy="448" r="34" fill="white" stroke="#1a1a1a" stroke-width="2.2" />
<text x="388" y="448" font-size="22" font-family="Helvetica" text-anchor="middle" dominant-baseline="central" fill="#1a1a1a" font-weight="bold">11</text>
<text x="300.0" y="180" font-size="22" font-family="Helvetica" text-anchor="middle" fill="#8a8a8a" font-style="italic">flip Y</text>
<text x="114" y="360.0" font-size="22" font-family="Helvetica" text-anchor="middle" dominant-baseline="central" fill="#8a8a8a" font-style="italic">flip X</text>
<text x="300.0" y="544" font-size="22" font-family="Helvetica" text-anchor="middle" fill="#8a8a8a">states = (X, Y);  arrow width = rate</text>
<text x="520" y="126" font-size="22" font-family="Helvetica" text-anchor="start" fill="#1a1a1a" font-weight="bold">B   a simulated realization</text>
<path d="M580.0,190.0 L746.9763136854112,190.0" stroke="#9a9a9a" stroke-width="2.4" stroke-linecap="butt" />
<path d="M746.9763136854112,190.0 L926.5615426774671,190.0" stroke="#5a86a0" stroke-width="5.2" stroke-linecap="butt" />
<path d="M926.5615426774671,190.0 L980.0,190.0" stroke="#9a9a9a" stroke-width="2.4" stroke-linecap="butt" />
<path d="M580.0,413.25 L700.5443042261136,413.25" stroke="#9a9a9a" stroke-width="2.4" stroke-linecap="butt" />
<path d="M700.5443042261136,304.0 L752.476566235317,304.0" stroke="#9a9a9a" stroke-width="2.4" stroke-linecap="butt" />
<path d="M752.476566235317,304.0 L840.3652852396185,304.0" stroke="#5a86a0" stroke-width="5.2" stroke-linecap="butt" />
<path d="M700.5443042261136,522.5 L734.0426235871897,522.5" stroke="#9a9a9a" stroke-width="2.4" stroke-linecap="butt" />
<path d="M840.3652852396185,228.0 L980.0,228.0" stroke="#5a86a0" stroke-width="5.2" stroke-linecap="butt" />
<path d="M840.3652852396185,380.0 L856.5595906197832,380.0" stroke="#5a86a0" stroke-width="5.2" stroke-linecap="butt" />
<path d="M734.0426235871897,494.0 L980.0,494.0" stroke="#9a9a9a" stroke-width="2.4" stroke-linecap="butt" />
<path d="M734.0426235871897,551.0 L801.0772616039153,551.0" stroke="#9a9a9a" stroke-width="2.4" stroke-linecap="butt" />
<path d="M856.5595906197832,323.0 L939.7131776085181,323.0" stroke="#5a86a0" stroke-width="5.2" stroke-linecap="butt" />
<path d="M856.5595906197832,437.0 L918.2938570070276,437.0" stroke="#5a86a0" stroke-width="5.2" stroke-linecap="butt" />
<path d="M801.0772616039153,532.0 L980.0,532.0" stroke="#9a9a9a" stroke-width="2.4" stroke-linecap="butt" />
<path d="M801.0772616039153,570.0 L980.0,570.0" stroke="#9a9a9a" stroke-width="2.4" stroke-linecap="butt" />
<path d="M939.7131776085181,285.0 L959.0415696137634,285.0" stroke="#5a86a0" stroke-width="5.2" stroke-linecap="butt" />
<path d="M939.7131776085181,361.0 L956.8881573648657,361.0" stroke="#5a86a0" stroke-width="5.2" stroke-linecap="butt" />
<path d="M918.2938570070276,418.0 L980.0,418.0" stroke="#5a86a0" stroke-width="5.2" stroke-linecap="butt" />
<path d="M918.2938570070276,456.0 L980.0,456.0" stroke="#5a86a0" stroke-width="5.2" stroke-linecap="butt" />
<path d="M959.0415696137634,266.0 L980.0,266.0" stroke="#5a86a0" stroke-width="5.2" stroke-linecap="butt" />
<path d="M959.0415696137634,304.0 L980.0,304.0" stroke="#5a86a0" stroke-width="5.2" stroke-linecap="butt" />
<path d="M956.8881573648657,342.0 L980.0,342.0" stroke="#5a86a0" stroke-width="5.2" stroke-linecap="butt" />
<path d="M956.8881573648657,380.0 L980.0,380.0" stroke="#5a86a0" stroke-width="5.2" stroke-linecap="butt" />
<path d="M959.0415696137634,266.0 L959.0415696137634,304.0" stroke="#1a1a1a" stroke-width="2.4" />
<path d="M956.8881573648657,342.0 L956.8881573648657,380.0" stroke="#1a1a1a" stroke-width="2.4" />
<path d="M939.7131776085181,285.0 L939.7131776085181,361.0" stroke="#1a1a1a" stroke-width="2.4" />
<path d="M918.2938570070276,418.0 L918.2938570070276,456.0" stroke="#1a1a1a" stroke-width="2.4" />
<path d="M856.5595906197832,323.0 L856.5595906197832,437.0" stroke="#1a1a1a" stroke-width="2.4" />
<path d="M840.3652852396185,228.0 L840.3652852396185,380.0" stroke="#1a1a1a" stroke-width="2.4" />
<path d="M801.0772616039153,532.0 L801.0772616039153,570.0" stroke="#1a1a1a" stroke-width="2.4" />
<path d="M734.0426235871897,494.0 L734.0426235871897,551.0" stroke="#1a1a1a" stroke-width="2.4" />
<path d="M700.5443042261136,304.0 L700.5443042261136,522.5" stroke="#1a1a1a" stroke-width="2.4" />
<path d="M580.0,190.0 L580.0,413.25" stroke="#1a1a1a" stroke-width="2.4" />
<text x="1020" y="164" font-size="22" font-family="Helvetica" text-anchor="middle" fill="#1a1a1a" font-weight="bold">X</text>
<text x="1066" y="164" font-size="22" font-family="Helvetica" text-anchor="middle" fill="#1a1a1a" font-weight="bold">Y</text>
<rect x="1007" y="177.0" width="26" height="26" fill="white" stroke="#1a1a1a" stroke-width="1.6" />
<rect x="1053" y="177.0" width="26" height="26" fill="white" stroke="#1a1a1a" stroke-width="1.6" />
<rect x="1007" y="215.0" width="26" height="26" fill="#5a86a0" stroke="#1a1a1a" stroke-width="1.6" />
<rect x="1053" y="215.0" width="26" height="26" fill="#5a86a0" stroke="#1a1a1a" stroke-width="1.6" />
<rect x="1007" y="253.0" width="26" height="26" fill="#5a86a0" stroke="#1a1a1a" stroke-width="1.6" />
<rect x="1053" y="253.0" width="26" height="26" fill="#5a86a0" stroke="#1a1a1a" stroke-width="1.6" />
<rect x="1007" y="291.0" width="26" height="26" fill="#5a86a0" stroke="#1a1a1a" stroke-width="1.6" />
<rect x="1053" y="291.0" width="26" height="26" fill="#5a86a0" stroke="#1a1a1a" stroke-width="1.6" />
<rect x="1007" y="329.0" width="26" height="26" fill="#5a86a0" stroke="#1a1a1a" stroke-width="1.6" />
<rect x="1053" y="329.0" width="26" height="26" fill="#5a86a0" stroke="#1a1a1a" stroke-width="1.6" />
<rect x="1007" y="367.0" width="26" height="26" fill="#5a86a0" stroke="#1a1a1a" stroke-width="1.6" />
<rect x="1053" y="367.0" width="26" height="26" fill="#5a86a0" stroke="#1a1a1a" stroke-width="1.6" />
<rect x="1007" y="405.0" width="26" height="26" fill="#5a86a0" stroke="#1a1a1a" stroke-width="1.6" />
<rect x="1053" y="405.0" width="26" height="26" fill="#5a86a0" stroke="#1a1a1a" stroke-width="1.6" />
<rect x="1007" y="443.0" width="26" height="26" fill="#5a86a0" stroke="#1a1a1a" stroke-width="1.6" />
<rect x="1053" y="443.0" width="26" height="26" fill="#5a86a0" stroke="#1a1a1a" stroke-width="1.6" />
<rect x="1007" y="481.0" width="26" height="26" fill="white" stroke="#1a1a1a" stroke-width="1.6" />
<rect x="1053" y="481.0" width="26" height="26" fill="white" stroke="#1a1a1a" stroke-width="1.6" />
<rect x="1007" y="519.0" width="26" height="26" fill="white" stroke="#1a1a1a" stroke-width="1.6" />
<rect x="1053" y="519.0" width="26" height="26" fill="white" stroke="#1a1a1a" stroke-width="1.6" />
<rect x="1007" y="557.0" width="26" height="26" fill="white" stroke="#1a1a1a" stroke-width="1.6" />
<rect x="1053" y="557.0" width="26" height="26" fill="white" stroke="#1a1a1a" stroke-width="1.6" />
<path d="M580.0,606 L980.0,606" stroke="#1a1a1a" stroke-width="1.6" />
<path d="M580.0,606 L580.0,612" stroke="#1a1a1a" stroke-width="1.6" />
<text x="580.0" y="628" font-size="22" font-family="Helvetica" text-anchor="middle" fill="#1a1a1a">0.00</text>
<path d="M680.0,606 L680.0,612" stroke="#1a1a1a" stroke-width="1.6" />
<text x="680.0" y="628" font-size="22" font-family="Helvetica" text-anchor="middle" fill="#1a1a1a">0.25</text>
<path d="M780.0,606 L780.0,612" stroke="#1a1a1a" stroke-width="1.6" />
<text x="780.0" y="628" font-size="22" font-family="Helvetica" text-anchor="middle" fill="#1a1a1a">0.50</text>
<path d="M880.0,606 L880.0,612" stroke="#1a1a1a" stroke-width="1.6" />
<text x="880.0" y="628" font-size="22" font-family="Helvetica" text-anchor="middle" fill="#1a1a1a">0.75</text>
<path d="M980.0,606 L980.0,612" stroke="#1a1a1a" stroke-width="1.6" />
<text x="980.0" y="628" font-size="22" font-family="Helvetica" text-anchor="middle" fill="#1a1a1a">1.00</text>
<text x="780.0" y="650" font-size="22" font-family="Helvetica" text-anchor="middle" fill="#8a8a8a">time (root to present)</text>
</svg>