<?xml version="1.0" encoding="UTF-8"?>
<svg xmlns="http://www.w3.org/2000/svg" xmlns:xlink="http://www.w3.org/1999/xlink"
     width="1200" height="660" viewBox="0 0 1200 660">
<defs>
</defs>
<rect x="0" y="0" width="1200" height="660" fill="white" />
<text x="600.0" y="46" font-size="32" font-family="Helvetica" text-anchor="middle" font-weight="bold" fill="#1a1a1a">Hidden rate classes (corHMM)</text>
<path d="M300.0,82 L332.0,82" stroke="#1a1a1a" stroke-width="5.2" />
<text x="340.0" y="82" font-size="18" font-family="Helvetica" text-anchor="start" dominant-baseline="central" fill="#1a1a1a">hidden: fast</text>
<path d="M450.0,82 L482.0,82" stroke="#9a9a9a" stroke-width="2.4" />
<text x="490.0" y="82" font-size="18" font-family="Helvetica" text-anchor="start" dominant-baseline="central" fill="#1a1a1a">hidden: slow</text>
<circle cx="612.0" cy="82" r="4.6" fill="white" stroke="#1a1a1a" stroke-width="1.8" />
<text x="624.0" y="82" font-size="18" font-family="Helvetica" text-anchor="start" dominant-baseline="central" fill="#1a1a1a">observed change</text>
<text x="172" y="126" font-size="22" font-family="Helvetica" text-anchor="start" fill="#1a1a1a" font-weight="bold">A   the model</text>
<path d="M245.51657834516936,266.28694687298247 Q300.0,257.0,354.48342165483064,266.28694687298247" fill="none" stroke="#1a1a1a" stroke-width="3.209968943799849" stroke-linecap="round" />
<path d="M354.48342165483064,266.28694687298247 L343.8285711992241,269.0208381964737 L345.33593169602915,260.17765661521713 Z" fill="#1a1a1a" />
<text x="300.0" y="241.0" font-size="18" font-family="Helvetica" text-anchor="middle" dominant-baseline="central" fill="#8a8a8a">0.4</text>
<path d="M354.48342165483064,277.71305312701753 Q300.0,287.0,245.51657834516936,277.71305312701753" fill="none" stroke="#1a1a1a" stroke-width="3.209968943799849" stroke-linecap="round" />
<path d="M245.51657834516936,277.71305312701753 L256.1714288007759,274.9791618035263 L254.66406830397085,283.82234338478287 Z" fill="#1a1a1a" />
<text x="300.0" y="303.0" font-size="18" font-family="Helvetica" text-anchor="middle" dominant-baseline="central" fill="#8a8a8a">0.4</text>
<path d="M245.51657834516936,453.71305312701753 Q300.0,463.0,354.48342165483064,453.71305312701753" fill="none" stroke="#1a1a1a" stroke-width="6.3623523599162635" stroke-linecap="round" />
<path d="M354.48342165483064,453.71305312701753 L345.33593169602915,459.82234338478287 L343.8285711992241,450.9791618035263 Z" fill="#1a1a1a" />
<text x="300.0" y="479.0" font-size="18" font-family="Helvetica" text-anchor="middle" dominant-baseline="central" fill="#8a8a8a">3.5</text>
<path d="M354.48342165483064,442.28694687298247 Q300.0,433.0,245.51657834516936,442.28694687298247" fill="none" stroke="#1a1a1a" stroke-width="6.3623523599162635" stroke-linecap="round" />
<path d="M245.51657834516936,442.28694687298247 L254.66406830397085,436.17765661521713 L256.1714288007759,445.0208381964737 Z" fill="#1a1a1a" />
<text x="300.0" y="417.0" font-size="18" font-family="Helvetica" text-anchor="middle" dominant-baseline="central" fill="#8a8a8a">3.5</text>
<path d="M206.2869468729825,305.51657834516936 Q197.0,360.0,206.2869468729825,414.48342165483064" fill="none" stroke="#1a1a1a" stroke-width="3.729788721915862" stroke-linecap="round" />
<path d="M206.2869468729825,414.48342165483064 L200.1776566152172,405.33593169602915 L209.02083819647373,403.8285711992241 Z" fill="#1a1a1a" />
<text x="181.0" y="360.0" font-size="18" font-family="Helvetica" text-anchor="middle" dominant-baseline="central" fill="#8a8a8a">0.7</text>
<path d="M217.7130531270175,414.48342165483064 Q227.0,360.0,217.7130531270175,305.51657834516936" fill="none" stroke="#1a1a1a" stroke-width="3.729788721915862" stroke-linecap="round" />
<path d="M217.7130531270175,305.51657834516936 L223.8223433847828,314.66406830397085 L214.9791618035263,316.1714288007759 Z" fill="#1a1a1a" />
<path d="M393.7130531270175,305.51657834516936 Q403.0,360.0,393.7130531270175,414.48342165483064" fill="none" stroke="#1a1a1a" stroke-width="3.729788721915862" stroke-linecap="round" />
<path d="M393.7130531270175,414.48342165483064 L390.97916180352627,403.8285711992241 L399.8223433847828,405.33593169602915 Z" fill="#1a1a1a" />
<text x="419.0" y="360.0" font-size="18" font-family="Helvetica" text-anchor="middle" dominant-baseline="central" fill="#8a8a8a">0.7</text>
<path d="M382.28694687298247,414.48342165483064 Q373.0,360.0,382.28694687298247,305.51657834516936" fill="none" stroke="#1a1a1a" stroke-width="3.729788721915862" stroke-linecap="round" />
<path d="M382.28694687298247,305.51657834516936 L385.0208381964737,316.1714288007759 L376.17765661521713,314.66406830397085 Z" fill="#1a1a1a" />
<circle cx="212" cy="272" r="34" fill="white" stroke="#1a1a1a" stroke-width="2.2" />
<text x="212" y="272" font-size="22" font-family="Helvetica" text-anchor="middle" dominant-baseline="central" fill="#1a1a1a" font-weight="bold">0</text>
<circle cx="388" cy="272" r="34" fill="white" stroke="#1a1a1a" stroke-width="2.2" />
<text x="388" y="272" font-size="22" font-family="Helvetica" text-anchor="middle" dominant-baseline="central" fill="#1a1a1a" font-weight="bold">1</text>
<circle cx="212" cy="448" r="34" fill="white" stroke="#1a1a1a" stroke-width="2.2" />
<text x="212" y="448" font-size="22" font-family="Helvetica" text-anchor="middle" dominant-baseline="central" fill="#1a1a1a" font-weight="bold">0</text>
<circle cx="388" cy="448" r="34" fill="white" stroke="#1a1a1a" stroke-width="2.2" />
<text x="388" y="448" font-size="22" font-family="Helvetica" text-anchor="middle" dominant-baseline="central" fill="#1a1a1a" font-weight="bold">1</text>
<text x="120" y="272" font-size="18" font-family="Helvetica" text-anchor="middle" dominant-baseline="central" fill="#8a8a8a" font-style="italic">slow</text>
<text x="120" y="448" font-size="18" font-family="Helvetica" text-anchor="middle" dominant-baseline="central" fill="#8a8a8a" font-style="italic">fast</text>
<text x="300.0" y="180" font-size="18" font-family="Helvetica" text-anchor="middle" fill="#8a8a8a" font-style="italic">flip observed</text>
<text x="300.0" y="544" font-size="18" font-family="Helvetica" text-anchor="middle" fill="#8a8a8a">nodes = observed 0/1;  arrow width = rate</text>
<text x="520" y="126" font-size="22" font-family="Helvetica" text-anchor="start" fill="#1a1a1a" font-weight="bold">B   a simulated realization</text>
<path d="M580.0,190.0 L854.5755725293943,190.0" stroke="#1a1a1a" stroke-width="5.2" stroke-linecap="butt" />
<path d="M854.5755725293943,190.0 L990.0,190.0" stroke="#9a9a9a" stroke-width="2.4" stroke-linecap="butt" />
<circle cx="628.1843501637154" cy="190.0" r="4.6" fill="white" stroke="#1a1a1a" stroke-width="1.8" />
<circle cx="725.6792777346076" cy="190.0" r="4.6" fill="white" stroke="#1a1a1a" stroke-width="1.8" />
<path d="M580.0,413.25 L703.5579118317664,413.25" stroke="#1a1a1a" stroke-width="5.2" stroke-linecap="butt" />
<circle cx="582.1586072868771" cy="413.25" r="4.6" fill="white" stroke="#1a1a1a" stroke-width="1.8" />
<path d="M703.5579118317664,304.0 L716.7954314107575,304.0" stroke="#1a1a1a" stroke-width="5.2" stroke-linecap="butt" />
<path d="M716.7954314107575,304.0 L846.8744173706091,304.0" stroke="#9a9a9a" stroke-width="2.4" stroke-linecap="butt" />
<path d="M703.5579118317664,522.5 L737.8936891768695,522.5" stroke="#1a1a1a" stroke-width="5.2" stroke-linecap="butt" />
<circle cx="717.8104244938453" cy="522.5" r="4.6" fill="white" stroke="#1a1a1a" stroke-width="1.8" />
<path d="M846.8744173706091,228.0 L990.0,228.0" stroke="#9a9a9a" stroke-width="2.4" stroke-linecap="butt" />
<circle cx="930.4664576892712" cy="228.0" r="4.6" fill="white" stroke="#1a1a1a" stroke-width="1.8" />
<path d="M846.8744173706091,380.0 L863.4735803852777,380.0" stroke="#9a9a9a" stroke-width="2.4" stroke-linecap="butt" />
<path d="M737.8936891768695,494.0 L990.0,494.0" stroke="#1a1a1a" stroke-width="5.2" stroke-linecap="butt" />
<circle cx="752.1216699240974" cy="494.0" r="4.6" fill="white" stroke="#1a1a1a" stroke-width="1.8" />
<circle cx="757.5774787222524" cy="494.0" r="4.6" fill="white" stroke="#1a1a1a" stroke-width="1.8" />
<circle cx="947.0773758680621" cy="494.0" r="4.6" fill="white" stroke="#1a1a1a" stroke-width="1.8" />
<path d="M737.8936891768695,551.0 L806.6041931440133,551.0" stroke="#1a1a1a" stroke-width="5.2" stroke-linecap="butt" />
<path d="M863.4735803852777,323.0 L948.7060070487311,323.0" stroke="#9a9a9a" stroke-width="2.4" stroke-linecap="butt" />
<path d="M863.4735803852777,437.0 L913.2719362709734,437.0" stroke="#9a9a9a" stroke-width="2.4" stroke-linecap="butt" />
<path d="M913.2719362709734,437.0 L926.7512034322033,437.0" stroke="#1a1a1a" stroke-width="5.2" stroke-linecap="butt" />
<path d="M806.6041931440133,532.0 L990.0,532.0" stroke="#1a1a1a" stroke-width="5.2" stroke-linecap="butt" />
<path d="M806.6041931440133,570.0 L990.0,570.0" stroke="#1a1a1a" stroke-width="5.2" stroke-linecap="butt" />
<circle cx="873.5686344431117" cy="570.0" r="4.6" fill="white" stroke="#1a1a1a" stroke-width="1.8" />
<path d="M948.7060070487311,285.0 L968.5176088541075,285.0" stroke="#9a9a9a" stroke-width="2.4" stroke-linecap="butt" />
<path d="M948.7060070487311,361.0 L966.3103612989873,361.0" stroke="#9a9a9a" stroke-width="2.4" stroke-linecap="butt" />
<path d="M926.7512034322033,418.0 L990.0,418.0" stroke="#1a1a1a" stroke-width="5.2" stroke-linecap="butt" />
<circle cx="968.0530095971081" cy="418.0" r="4.6" fill="white" stroke="#1a1a1a" stroke-width="1.8" />
<path d="M926.7512034322033,456.0 L933.0432994029446,456.0" stroke="#1a1a1a" stroke-width="5.2" stroke-linecap="butt" />
<path d="M933.0432994029446,456.0 L990.0,456.0" stroke="#9a9a9a" stroke-width="2.4" stroke-linecap="butt" />
<path d="M968.5176088541075,266.0 L990.0,266.0" stroke="#9a9a9a" stroke-width="2.4" stroke-linecap="butt" />
<path d="M968.5176088541075,304.0 L990.0,304.0" stroke="#9a9a9a" stroke-width="2.4" stroke-linecap="butt" />
<path d="M966.3103612989873,342.0 L990.0,342.0" stroke="#9a9a9a" stroke-width="2.4" stroke-linecap="butt" />
<path d="M966.3103612989873,380.0 L990.0,380.0" stroke="#9a9a9a" stroke-width="2.4" stroke-linecap="butt" />
<path d="M968.5176088541075,266.0 L968.5176088541075,304.0" stroke="#1a1a1a" stroke-width="2.4" />
<path d="M966.3103612989873,342.0 L966.3103612989873,380.0" stroke="#1a1a1a" stroke-width="2.4" />
<path d="M948.7060070487311,285.0 L948.7060070487311,361.0" stroke="#1a1a1a" stroke-width="2.4" />
<path d="M926.7512034322033,418.0 L926.7512034322033,456.0" stroke="#1a1a1a" stroke-width="2.4" />
<path d="M863.4735803852777,323.0 L863.4735803852777,437.0" stroke="#1a1a1a" stroke-width="2.4" />
<path d="M846.8744173706091,228.0 L846.8744173706091,380.0" stroke="#1a1a1a" stroke-width="2.4" />
<path d="M806.6041931440133,532.0 L806.6041931440133,570.0" stroke="#1a1a1a" stroke-width="2.4" />
<path d="M737.8936891768695,494.0 L737.8936891768695,551.0" stroke="#1a1a1a" stroke-width="2.4" />
<path d="M703.5579118317664,304.0 L703.5579118317664,522.5" stroke="#1a1a1a" stroke-width="2.4" />
<path d="M580.0,190.0 L580.0,413.25" stroke="#1a1a1a" stroke-width="2.4" />
<text x="1044" y="164" font-size="18" font-family="Helvetica" text-anchor="middle" fill="#1a1a1a" font-weight="bold">obs</text>
<path d="M990.0,190.0 L1024,190.0" stroke="#9a9a9a" stroke-width="0.8" />
<rect x="1031" y="177.0" width="26" height="26" fill="#1a1a1a" stroke="#1a1a1a" stroke-width="1.6" />
<path d="M990.0,228.0 L1024,228.0" stroke="#9a9a9a" stroke-width="0.8" />
<rect x="1031" y="215.0" width="26" height="26" fill="#1a1a1a" stroke="#1a1a1a" stroke-width="1.6" />
<path d="M990.0,266.0 L1024,266.0" stroke="#9a9a9a" stroke-width="0.8" />
<rect x="1031" y="253.0" width="26" height="26" fill="white" stroke="#1a1a1a" stroke-width="1.6" />
<path d="M990.0,304.0 L1024,304.0" stroke="#9a9a9a" stroke-width="0.8" />
<rect x="1031" y="291.0" width="26" height="26" fill="white" stroke="#1a1a1a" stroke-width="1.6" />
<path d="M990.0,342.0 L1024,342.0" stroke="#9a9a9a" stroke-width="0.8" />
<rect x="1031" y="329.0" width="26" height="26" fill="white" stroke="#1a1a1a" stroke-width="1.6" />
<path d="M990.0,380.0 L1024,380.0" stroke="#9a9a9a" stroke-width="0.8" />
<rect x="1031" y="367.0" width="26" height="26" fill="white" stroke="#1a1a1a" stroke-width="1.6" />
<path d="M990.0,418.0 L1024,418.0" stroke="#9a9a9a" stroke-width="0.8" />
<rect x="1031" y="405.0" width="26" height="26" fill="#1a1a1a" stroke="#1a1a1a" stroke-width="1.6" />
<path d="M990.0,456.0 L1024,456.0" stroke="#9a9a9a" stroke-width="0.8" />
<rect x="1031" y="443.0" width="26" height="26" fill="white" stroke="#1a1a1a" stroke-width="1.6" />
<path d="M990.0,494.0 L1024,494.0" stroke="#9a9a9a" stroke-width="0.8" />
<rect x="1031" y="481.0" width="26" height="26" fill="white" stroke="#1a1a1a" stroke-width="1.6" />
<path d="M990.0,532.0 L1024,532.0" stroke="#9a9a9a" stroke-width="0.8" />
<rect x="1031" y="519.0" width="26" height="26" fill="#1a1a1a" stroke="#1a1a1a" stroke-width="1.6" />
<path d="M990.0,570.0 L1024,570.0" stroke="#9a9a9a" stroke-width="0.8" />
<rect x="1031" y="557.0" width="26" height="26" fill="white" stroke="#1a1a1a" stroke-width="1.6" />
<path d="M580.0,606 L990.0,606" stroke="#1a1a1a" stroke-width="1.6" />
<path d="M580.0,606 L580.0,612" stroke="#1a1a1a" stroke-width="1.6" />
<text x="580.0" y="628" font-size="18" font-family="Helvetica" text-anchor="middle" fill="#1a1a1a">0.00</text>
<path d="M682.5,606 L682.5,612" stroke="#1a1a1a" stroke-width="1.6" />
<text x="682.5" y="628" font-size="18" font-family="Helvetica" text-anchor="middle" fill="#1a1a1a">0.25</text>
<path d="M785.0,606 L785.0,612" stroke="#1a1a1a" stroke-width="1.6" />
<text x="785.0" y="628" font-size="18" font-family="Helvetica" text-anchor="middle" fill="#1a1a1a">0.50</text>
<path d="M887.5,606 L887.5,612" stroke="#1a1a1a" stroke-width="1.6" />
<text x="887.5" y="628" font-size="18" font-family="Helvetica" text-anchor="middle" fill="#1a1a1a">0.75</text>
<path d="M990.0,606 L990.0,612" stroke="#1a1a1a" stroke-width="1.6" />
<text x="990.0" y="628" font-size="18" font-family="Helvetica" text-anchor="middle" fill="#1a1a1a">1.00</text>
<text x="785.0" y="650" font-size="18" font-family="Helvetica" text-anchor="middle" fill="#8a8a8a">time (root to present)</text>
</svg>