<?xml version="1.0" encoding="UTF-8"?>
<svg xmlns="http://www.w3.org/2000/svg" xmlns:xlink="http://www.w3.org/1999/xlink"
     width="820" height="708" viewBox="-410.0 -354.0 820 708">
<defs>
</defs>
<rect x="-410.0" y="-354.0" width="820" height="708" fill="white" />
<path d="M-342.0,-63.36363636363637 L-328.0,-63.36363636363637" stroke="#4477AA" stroke-width="5.0" stroke-linecap="round" />
<path d="M-328.0,-210.1818181818182 L-197.52585414922356,-210.1818181818182" stroke="#4477AA" stroke-width="5.0" stroke-linecap="butt" />
<path d="M-197.52585414922356,-210.1818181818182 L55.68657493675886,-210.1818181818182" stroke="#228833" stroke-width="5.0" stroke-linecap="butt" />
<path d="M-328.0,83.45454545454545 L-273.03450679798794,83.45454545454545" stroke="#4477AA" stroke-width="5.0" stroke-linecap="butt" />
<path d="M55.68657493675886,-247.27272727272728 L138.92311864145972,-247.27272727272728" stroke="#228833" stroke-width="5.0" stroke-linecap="butt" />
<path d="M55.68657493675886,-173.0909090909091 L328.0,-173.0909090909091" stroke="#228833" stroke-width="5.0" stroke-linecap="butt" />
<path d="M-273.03450679798794,-30.909090909090907 L-60.36915768754443,-30.909090909090907" stroke="#4477AA" stroke-width="5.0" stroke-linecap="butt" />
<path d="M-60.36915768754443,-30.909090909090907 L79.27507341577444,-30.909090909090907" stroke="#EE6677" stroke-width="5.0" stroke-linecap="butt" />
<path d="M-273.03450679798794,197.8181818181818 L-271.1027304663819,197.8181818181818" stroke="#4477AA" stroke-width="5.0" stroke-linecap="butt" />
<path d="M138.92311864145972,-272.0 L328.0,-272.0" stroke="#228833" stroke-width="5.0" stroke-linecap="butt" />
<path d="M138.92311864145972,-222.54545454545456 L286.59157513914977,-222.54545454545456" stroke="#228833" stroke-width="5.0" stroke-linecap="butt" />
<path d="M286.59157513914977,-222.54545454545456 L328.0,-222.54545454545456" stroke="#4477AA" stroke-width="5.0" stroke-linecap="butt" />
<path d="M79.27507341577444,-98.9090909090909 L190.2612421748862,-98.9090909090909" stroke="#EE6677" stroke-width="5.0" stroke-linecap="butt" />
<path d="M79.27507341577444,37.09090909090909 L131.06992934512198,37.09090909090909" stroke="#EE6677" stroke-width="5.0" stroke-linecap="butt" />
<path d="M-271.1027304663819,148.36363636363635 L317.191029677241,148.36363636363635" stroke="#4477AA" stroke-width="5.0" stroke-linecap="butt" />
<path d="M-271.1027304663819,247.27272727272725 L-153.44392715459483,247.27272727272725" stroke="#4477AA" stroke-width="5.0" stroke-linecap="butt" />
<path d="M190.2612421748862,-123.63636363636363 L328.0,-123.63636363636363" stroke="#EE6677" stroke-width="5.0" stroke-linecap="butt" />
<path d="M190.2612421748862,-74.18181818181819 L328.0,-74.18181818181819" stroke="#EE6677" stroke-width="5.0" stroke-linecap="butt" />
<path d="M131.06992934512198,0.0 L175.4349350867207,0.0" stroke="#EE6677" stroke-width="5.0" stroke-linecap="butt" />
<path d="M175.4349350867207,0.0 L227.76931276261757,0.0" stroke="#4477AA" stroke-width="5.0" stroke-linecap="butt" />
<path d="M227.76931276261757,0.0 L268.75638705462416,0.0" stroke="#228833" stroke-width="5.0" stroke-linecap="butt" />
<path d="M131.06992934512198,74.18181818181819 L328.0,74.18181818181819" stroke="#EE6677" stroke-width="5.0" stroke-linecap="butt" />
<path d="M317.191029677241,123.63636363636363 L328.0,123.63636363636363" stroke="#4477AA" stroke-width="5.0" stroke-linecap="butt" />
<path d="M317.191029677241,173.09090909090907 L328.0,173.09090909090907" stroke="#4477AA" stroke-width="5.0" stroke-linecap="butt" />
<path d="M-153.44392715459483,222.5454545454545 L73.12058060472299,222.5454545454545" stroke="#4477AA" stroke-width="5.0" stroke-linecap="butt" />
<path d="M73.12058060472299,222.5454545454545 L328.0,222.5454545454545" stroke="#228833" stroke-width="5.0" stroke-linecap="butt" />
<path d="M-153.44392715459483,272.0 L328.0,272.0" stroke="#4477AA" stroke-width="5.0" stroke-linecap="butt" />
<path d="M268.75638705462416,-24.727272727272748 L328.0,-24.727272727272748" stroke="#228833" stroke-width="5.0" stroke-linecap="butt" />
<path d="M268.75638705462416,24.727272727272748 L328.0,24.727272727272748" stroke="#228833" stroke-width="5.0" stroke-linecap="butt" />
<path d="M138.92311864145972,-272.0 L138.92311864145972,-222.54545454545456" stroke="#228833" stroke-width="5.0" stroke-linecap="round" />
<path d="M55.68657493675886,-247.27272727272728 L55.68657493675886,-173.0909090909091" stroke="#228833" stroke-width="5.0" stroke-linecap="round" />
<path d="M190.2612421748862,-123.63636363636363 L190.2612421748862,-74.18181818181819" stroke="#EE6677" stroke-width="5.0" stroke-linecap="round" />
<path d="M268.75638705462416,-24.727272727272748 L268.75638705462416,24.727272727272748" stroke="#228833" stroke-width="5.0" stroke-linecap="round" />
<path d="M131.06992934512198,0.0 L131.06992934512198,74.18181818181819" stroke="#EE6677" stroke-width="5.0" stroke-linecap="round" />
<path d="M79.27507341577444,-98.9090909090909 L79.27507341577444,37.09090909090909" stroke="#EE6677" stroke-width="5.0" stroke-linecap="round" />
<path d="M317.191029677241,123.63636363636363 L317.191029677241,173.09090909090907" stroke="#4477AA" stroke-width="5.0" stroke-linecap="round" />
<path d="M-153.44392715459483,222.5454545454545 L-153.44392715459483,272.0" stroke="#4477AA" stroke-width="5.0" stroke-linecap="round" />
<path d="M-271.1027304663819,148.36363636363635 L-271.1027304663819,247.27272727272725" stroke="#4477AA" stroke-width="5.0" stroke-linecap="round" />
<path d="M-273.03450679798794,-30.909090909090907 L-273.03450679798794,197.8181818181818" stroke="#4477AA" stroke-width="5.0" stroke-linecap="round" />
<path d="M-328.0,-210.1818181818182 L-328.0,83.45454545454545" stroke="#4477AA" stroke-width="5.0" stroke-linecap="round" />
<rect x="342.0" y="-280.0" width="16.0" height="16.0" fill="#228833" opacity="1.0" stroke="#1a1a1a" stroke-width="1.0" />
<rect x="342.0" y="-230.54545454545456" width="16.0" height="16.0" fill="#4477AA" opacity="1.0" stroke="#1a1a1a" stroke-width="1.0" />
<rect x="342.0" y="-181.0909090909091" width="16.0" height="16.0" fill="#228833" opacity="1.0" stroke="#1a1a1a" stroke-width="1.0" />
<rect x="342.0" y="-131.63636363636363" width="16.0" height="16.0" fill="#EE6677" opacity="1.0" stroke="#1a1a1a" stroke-width="1.0" />
<rect x="342.0" y="-82.18181818181819" width="16.0" height="16.0" fill="#EE6677" opacity="1.0" stroke="#1a1a1a" stroke-width="1.0" />
<rect x="342.0" y="-32.72727272727275" width="16.0" height="16.0" fill="#228833" opacity="1.0" stroke="#1a1a1a" stroke-width="1.0" />
<rect x="342.0" y="16.727272727272748" width="16.0" height="16.0" fill="#228833" opacity="1.0" stroke="#1a1a1a" stroke-width="1.0" />
<rect x="342.0" y="66.18181818181819" width="16.0" height="16.0" fill="#EE6677" opacity="1.0" stroke="#1a1a1a" stroke-width="1.0" />
<rect x="342.0" y="115.63636363636363" width="16.0" height="16.0" fill="#4477AA" opacity="1.0" stroke="#1a1a1a" stroke-width="1.0" />
<rect x="342.0" y="165.09090909090907" width="16.0" height="16.0" fill="#4477AA" opacity="1.0" stroke="#1a1a1a" stroke-width="1.0" />
<rect x="342.0" y="214.5454545454545" width="16.0" height="16.0" fill="#228833" opacity="1.0" stroke="#1a1a1a" stroke-width="1.0" />
<rect x="342.0" y="264.0" width="16.0" height="16.0" fill="#4477AA" opacity="1.0" stroke="#1a1a1a" stroke-width="1.0" />
<path d="M-342.0,286.0 L328.0,286.0" stroke="black" stroke-width="1.6" />
<path d="M-328.0,286.0 L-328.0,292.0" stroke="black" stroke-width="1.6" />
<text x="-328.0" y="306.0" font-size="14" text-anchor="middle" font-family="Helvetica">0.00</text>
<path d="M-164.0,286.0 L-164.0,292.0" stroke="black" stroke-width="1.6" />
<text x="-164.0" y="306.0" font-size="14" text-anchor="middle" font-family="Helvetica">0.25</text>
<path d="M0.0,286.0 L0.0,292.0" stroke="black" stroke-width="1.6" />
<text x="0.0" y="306.0" font-size="14" text-anchor="middle" font-family="Helvetica">0.50</text>
<path d="M164.0,286.0 L164.0,292.0" stroke="black" stroke-width="1.6" />
<text x="164.0" y="306.0" font-size="14" text-anchor="middle" font-family="Helvetica">0.75</text>
<path d="M328.0,286.0 L328.0,292.0" stroke="black" stroke-width="1.6" />
<text x="328.0" y="306.0" font-size="14" text-anchor="middle" font-family="Helvetica">1.00</text>
<text x="-7.0" y="327.0" font-size="14" text-anchor="middle" font-family="Helvetica">Time (root to present)</text>
<text x="-376.0" y="-314.0" font-size="16" font-weight="bold" font-family="Helvetica" text-anchor="start">Mk trait (3 states)</text>
<circle cx="-369.0" cy="-293.0" r="7" fill="#4477AA" />
<text x="-358.5" y="-293.0" font-size="14" font-family="Helvetica" text-anchor="start" dominant-baseline="middle">State A</text>
<circle cx="-369.0" cy="-273.4" r="7" fill="#EE6677" />
<text x="-358.5" y="-273.4" font-size="14" font-family="Helvetica" text-anchor="start" dominant-baseline="middle">State B</text>
<circle cx="-369.0" cy="-253.79999999999998" r="7" fill="#228833" />
<text x="-358.5" y="-253.79999999999998" font-size="14" font-family="Helvetica" text-anchor="start" dominant-baseline="middle">State C</text>
</svg>