<?xml version="1.0" encoding="UTF-8"?>
<svg xmlns="http://www.w3.org/2000/svg" xmlns:xlink="http://www.w3.org/1999/xlink"
     width="1180" height="760" viewBox="0 0 1180 760">
<defs>
</defs>
<rect x="0" y="0" width="1180" height="760" fill="white" />
<text x="590.0" y="48" font-size="32" font-family="Helvetica" text-anchor="middle" font-weight="bold" fill="#1a1a1a">The clade-shift model</text>
<rect x="401.40000000000003" y="441.75" width="586.5999999999999" height="146.5" fill="#f0f0f0" />
<path d="M96.0,306.787109375 L96.0,361.99609375" stroke="#9a9a9a" stroke-width="1.6" stroke-linecap="round" />
<path d="M96.0,306.787109375 L96.0,251.578125" stroke="#9a9a9a" stroke-width="1.6" stroke-linecap="round" />
<path d="M96.0,251.578125 L425.6426758711098,251.578125" stroke="#9a9a9a" stroke-width="1.6" stroke-linecap="round" />
<path d="M425.6426758711098,251.578125 L425.6426758711098,275.65625" stroke="#9a9a9a" stroke-width="1.6" stroke-linecap="round" />
<path d="M425.6426758711098,251.578125 L425.6426758711098,227.5" stroke="#9a9a9a" stroke-width="1.6" stroke-linecap="round" />
<path d="M425.6426758711098,227.5 L841.5729924682971,227.5" stroke="#9a9a9a" stroke-width="1.6" stroke-linecap="round" />
<path d="M841.5729924682971,227.5 L841.5729924682971,221.75" stroke="#9a9a9a" stroke-width="1.6" stroke-linecap="round" />
<path d="M841.5729924682971,227.5 L841.5729924682971,233.25" stroke="#9a9a9a" stroke-width="1.6" stroke-linecap="round" />
<path d="M841.5729924682971,233.25 L980.0,233.25" stroke="#9a9a9a" stroke-width="1.6" stroke-linecap="round" />
<path d="M841.5729924682971,221.75 L980.0,221.75" stroke="#9a9a9a" stroke-width="1.6" stroke-linecap="round" />
<path d="M425.6426758711098,275.65625 L556.4064130780764,275.65625" stroke="#9a9a9a" stroke-width="1.6" stroke-linecap="round" />
<path d="M556.4064130780764,275.65625 L556.4064130780764,253.375" stroke="#9a9a9a" stroke-width="1.6" stroke-linecap="round" />
<path d="M556.4064130780764,275.65625 L556.4064130780764,297.9375" stroke="#9a9a9a" stroke-width="1.6" stroke-linecap="round" />
<path d="M556.4064130780764,297.9375 L683.4521317467196,297.9375" stroke="#9a9a9a" stroke-width="1.6" stroke-linecap="round" />
<path d="M683.4521317467196,297.9375 L683.4521317467196,310.875" stroke="#9a9a9a" stroke-width="1.6" stroke-linecap="round" />
<path d="M683.4521317467196,297.9375 L683.4521317467196,285.0" stroke="#9a9a9a" stroke-width="1.6" stroke-linecap="round" />
<path d="M683.4521317467196,285.0 L931.837945104922,285.0" stroke="#9a9a9a" stroke-width="1.6" stroke-linecap="round" />
<path d="M931.837945104922,285.0 L931.837945104922,279.25" stroke="#9a9a9a" stroke-width="1.6" stroke-linecap="round" />
<path d="M931.837945104922,285.0 L931.837945104922,290.75" stroke="#9a9a9a" stroke-width="1.6" stroke-linecap="round" />
<path d="M931.837945104922,290.75 L980.0,290.75" stroke="#9a9a9a" stroke-width="1.6" stroke-linecap="round" />
<path d="M931.837945104922,279.25 L980.0,279.25" stroke="#9a9a9a" stroke-width="1.6" stroke-linecap="round" />
<path d="M683.4521317467196,310.875 L859.2121616442678,310.875" stroke="#9a9a9a" stroke-width="1.6" stroke-linecap="round" />
<path d="M859.2121616442678,310.875 L859.2121616442678,302.25" stroke="#9a9a9a" stroke-width="1.6" stroke-linecap="round" />
<path d="M859.2121616442678,310.875 L859.2121616442678,319.5" stroke="#9a9a9a" stroke-width="1.6" stroke-linecap="round" />
<path d="M859.2121616442678,319.5 L922.5645000173326,319.5" stroke="#9a9a9a" stroke-width="1.6" stroke-linecap="round" />
<path d="M922.5645000173326,319.5 L922.5645000173326,313.75" stroke="#9a9a9a" stroke-width="1.6" stroke-linecap="round" />
<path d="M922.5645000173326,319.5 L922.5645000173326,325.25" stroke="#9a9a9a" stroke-width="1.6" stroke-linecap="round" />
<path d="M922.5645000173326,325.25 L980.0,325.25" stroke="#9a9a9a" stroke-width="1.6" stroke-linecap="round" />
<path d="M922.5645000173326,313.75 L980.0,313.75" stroke="#9a9a9a" stroke-width="1.6" stroke-linecap="round" />
<path d="M859.2121616442678,302.25 L980.0,302.25" stroke="#9a9a9a" stroke-width="1.6" stroke-linecap="round" />
<path d="M556.4064130780764,253.375 L722.8584264853747,253.375" stroke="#9a9a9a" stroke-width="1.6" stroke-linecap="round" />
<path d="M722.8584264853747,253.375 L722.8584264853747,262.0" stroke="#9a9a9a" stroke-width="1.6" stroke-linecap="round" />
<path d="M722.8584264853747,253.375 L722.8584264853747,244.75" stroke="#9a9a9a" stroke-width="1.6" stroke-linecap="round" />
<path d="M722.8584264853747,244.75 L980.0,244.75" stroke="#9a9a9a" stroke-width="1.6" stroke-linecap="round" />
<path d="M722.8584264853747,262.0 L950.0769819263098,262.0" stroke="#9a9a9a" stroke-width="1.6" stroke-linecap="round" />
<path d="M950.0769819263098,262.0 L950.0769819263098,256.25" stroke="#9a9a9a" stroke-width="1.6" stroke-linecap="round" />
<path d="M950.0769819263098,262.0 L950.0769819263098,267.75" stroke="#9a9a9a" stroke-width="1.6" stroke-linecap="round" />
<path d="M950.0769819263098,267.75 L980.0,267.75" stroke="#9a9a9a" stroke-width="1.6" stroke-linecap="round" />
<path d="M950.0769819263098,256.25 L980.0,256.25" stroke="#9a9a9a" stroke-width="1.6" stroke-linecap="round" />
<path d="M96.0,361.99609375 L129.9068393926721,361.99609375" stroke="#9a9a9a" stroke-width="1.6" stroke-linecap="round" />
<path d="M129.9068393926721,361.99609375 L129.9068393926721,387.2421875" stroke="#9a9a9a" stroke-width="1.6" stroke-linecap="round" />
<path d="M129.9068393926721,361.99609375 L129.9068393926721,336.75" stroke="#9a9a9a" stroke-width="1.4" stroke-dasharray="6,5" stroke-linecap="butt" />
<path d="M129.9068393926721,336.75 L192.25196444487472,336.75" stroke="#9a9a9a" stroke-width="1.4" stroke-dasharray="6,5" stroke-linecap="butt" />
<path d="M129.9068393926721,387.2421875 L219.59546222968987,387.2421875" stroke="#9a9a9a" stroke-width="1.6" stroke-linecap="round" />
<path d="M219.59546222968987,387.2421875 L219.59546222968987,354.0" stroke="#9a9a9a" stroke-width="1.6" stroke-linecap="round" />
<path d="M219.59546222968987,387.2421875 L219.59546222968987,420.484375" stroke="#9a9a9a" stroke-width="1.6" stroke-linecap="round" />
<path d="M219.59546222968987,420.484375 L273.20780418439557,420.484375" stroke="#9a9a9a" stroke-width="1.6" stroke-linecap="round" />
<path d="M273.20780418439557,420.484375 L273.20780418439557,385.625" stroke="#9a9a9a" stroke-width="1.6" stroke-linecap="round" />
<path d="M273.20780418439557,420.484375 L273.20780418439557,455.34375" stroke="#9a9a9a" stroke-width="1.6" stroke-linecap="round" />
<path d="M273.20780418439557,455.34375 L369.8479711244567,455.34375" stroke="#9a9a9a" stroke-width="1.6" stroke-linecap="round" />
<path d="M369.8479711244567,455.34375 L369.8479711244567,476.1875" stroke="#1a1a1a" stroke-width="2.4" stroke-linecap="round" />
<path d="M369.8479711244567,455.34375 L369.8479711244567,434.5" stroke="#9a9a9a" stroke-width="1.6" stroke-linecap="round" />
<path d="M369.8479711244567,434.5 L798.2826126578992,434.5" stroke="#9a9a9a" stroke-width="1.6" stroke-linecap="round" />
<path d="M798.2826126578992,434.5 L798.2826126578992,428.75" stroke="#9a9a9a" stroke-width="1.6" stroke-linecap="round" />
<path d="M798.2826126578992,434.5 L798.2826126578992,440.25" stroke="#9a9a9a" stroke-width="1.6" stroke-linecap="round" />
<path d="M798.2826126578992,440.25 L980.0,440.25" stroke="#9a9a9a" stroke-width="1.6" stroke-linecap="round" />
<path d="M798.2826126578992,428.75 L980.0,428.75" stroke="#9a9a9a" stroke-width="1.6" stroke-linecap="round" />
<path d="M369.8479711244567,476.1875 L521.4774705970442,476.1875" stroke="#1a1a1a" stroke-width="2.4" stroke-linecap="round" />
<path d="M521.4774705970442,476.1875 L521.4774705970442,500.625" stroke="#1a1a1a" stroke-width="2.4" stroke-linecap="round" />
<path d="M521.4774705970442,476.1875 L521.4774705970442,451.75" stroke="#1a1a1a" stroke-width="1.4" stroke-dasharray="6,5" stroke-linecap="butt" />
<path d="M521.4774705970442,451.75 L528.006513553274,451.75" stroke="#1a1a1a" stroke-width="1.4" stroke-dasharray="6,5" stroke-linecap="butt" />
<path d="M521.4774705970442,500.625 L677.1984341710241,500.625" stroke="#1a1a1a" stroke-width="2.4" stroke-linecap="round" />
<path d="M677.1984341710241,500.625 L677.1984341710241,473.3125" stroke="#1a1a1a" stroke-width="2.4" stroke-linecap="round" />
<path d="M677.1984341710241,500.625 L677.1984341710241,527.9375" stroke="#1a1a1a" stroke-width="2.4" stroke-linecap="round" />
<path d="M677.1984341710241,527.9375 L762.773118947703,527.9375" stroke="#1a1a1a" stroke-width="2.4" stroke-linecap="round" />
<path d="M762.773118947703,527.9375 L762.773118947703,546.625" stroke="#1a1a1a" stroke-width="2.4" stroke-linecap="round" />
<path d="M762.773118947703,527.9375 L762.773118947703,509.25" stroke="#1a1a1a" stroke-width="1.4" stroke-dasharray="6,5" stroke-linecap="butt" />
<path d="M762.773118947703,509.25 L775.0480011984831,509.25" stroke="#1a1a1a" stroke-width="1.4" stroke-dasharray="6,5" stroke-linecap="butt" />
<path d="M762.773118947703,546.625 L846.1468819143336,546.625" stroke="#1a1a1a" stroke-width="2.4" stroke-linecap="round" />
<path d="M846.1468819143336,546.625 L846.1468819143336,529.375" stroke="#1a1a1a" stroke-width="2.4" stroke-linecap="round" />
<path d="M846.1468819143336,546.625 L846.1468819143336,563.875" stroke="#1a1a1a" stroke-width="2.4" stroke-linecap="round" />
<path d="M846.1468819143336,563.875 L854.4629671268278,563.875" stroke="#1a1a1a" stroke-width="2.4" stroke-linecap="round" />
<path d="M854.4629671268278,563.875 L854.4629671268278,555.25" stroke="#1a1a1a" stroke-width="2.4" stroke-linecap="round" />
<path d="M854.4629671268278,563.875 L854.4629671268278,572.5" stroke="#1a1a1a" stroke-width="2.4" stroke-linecap="round" />
<path d="M854.4629671268278,572.5 L918.944073572366,572.5" stroke="#1a1a1a" stroke-width="2.4" stroke-linecap="round" />
<path d="M918.944073572366,572.5 L918.944073572366,566.75" stroke="#1a1a1a" stroke-width="2.4" stroke-linecap="round" />
<path d="M918.944073572366,572.5 L918.944073572366,578.25" stroke="#1a1a1a" stroke-width="2.4" stroke-linecap="round" />
<path d="M918.944073572366,578.25 L980.0,578.25" stroke="#1a1a1a" stroke-width="2.4" stroke-linecap="round" />
<path d="M918.944073572366,566.75 L980.0,566.75" stroke="#1a1a1a" stroke-width="2.4" stroke-linecap="round" />
<path d="M854.4629671268278,555.25 L980.0,555.25" stroke="#1a1a1a" stroke-width="2.4" stroke-linecap="round" />
<path d="M846.1468819143336,529.375 L921.7399533716087,529.375" stroke="#1a1a1a" stroke-width="2.4" stroke-linecap="round" />
<path d="M921.7399533716087,529.375 L921.7399533716087,538.0" stroke="#1a1a1a" stroke-width="2.4" stroke-linecap="round" />
<path d="M921.7399533716087,529.375 L921.7399533716087,520.75" stroke="#1a1a1a" stroke-width="2.4" stroke-linecap="round" />
<path d="M921.7399533716087,520.75 L980.0,520.75" stroke="#1a1a1a" stroke-width="2.4" stroke-linecap="round" />
<path d="M921.7399533716087,538.0 L959.9337027972507,538.0" stroke="#1a1a1a" stroke-width="2.4" stroke-linecap="round" />
<path d="M959.9337027972507,538.0 L959.9337027972507,532.25" stroke="#1a1a1a" stroke-width="2.4" stroke-linecap="round" />
<path d="M959.9337027972507,538.0 L959.9337027972507,543.75" stroke="#1a1a1a" stroke-width="2.4" stroke-linecap="round" />
<path d="M959.9337027972507,543.75 L980.0,543.75" stroke="#1a1a1a" stroke-width="2.4" stroke-linecap="round" />
<path d="M959.9337027972507,532.25 L980.0,532.25" stroke="#1a1a1a" stroke-width="2.4" stroke-linecap="round" />
<path d="M677.1984341710241,473.3125 L925.8528167522875,473.3125" stroke="#1a1a1a" stroke-width="2.4" stroke-linecap="round" />
<path d="M925.8528167522875,473.3125 L925.8528167522875,483.375" stroke="#1a1a1a" stroke-width="2.4" stroke-linecap="round" />
<path d="M925.8528167522875,473.3125 L925.8528167522875,463.25" stroke="#1a1a1a" stroke-width="2.4" stroke-linecap="round" />
<path d="M925.8528167522875,463.25 L980.0,463.25" stroke="#1a1a1a" stroke-width="2.4" stroke-linecap="round" />
<path d="M925.8528167522875,483.375 L929.0995661297752,483.375" stroke="#1a1a1a" stroke-width="2.4" stroke-linecap="round" />
<path d="M929.0995661297752,483.375 L929.0995661297752,492.0" stroke="#1a1a1a" stroke-width="2.4" stroke-linecap="round" />
<path d="M929.0995661297752,483.375 L929.0995661297752,474.75" stroke="#1a1a1a" stroke-width="2.4" stroke-linecap="round" />
<path d="M929.0995661297752,474.75 L980.0,474.75" stroke="#1a1a1a" stroke-width="2.4" stroke-linecap="round" />
<path d="M929.0995661297752,492.0 L934.1366429138579,492.0" stroke="#1a1a1a" stroke-width="2.4" stroke-linecap="round" />
<path d="M934.1366429138579,492.0 L934.1366429138579,486.25" stroke="#1a1a1a" stroke-width="2.4" stroke-linecap="round" />
<path d="M934.1366429138579,492.0 L934.1366429138579,497.75" stroke="#1a1a1a" stroke-width="2.4" stroke-linecap="round" />
<path d="M934.1366429138579,497.75 L980.0,497.75" stroke="#1a1a1a" stroke-width="2.4" stroke-linecap="round" />
<path d="M934.1366429138579,486.25 L980.0,486.25" stroke="#1a1a1a" stroke-width="2.4" stroke-linecap="round" />
<path d="M273.20780418439557,385.625 L281.11768616359194,385.625" stroke="#9a9a9a" stroke-width="1.6" stroke-linecap="round" />
<path d="M281.11768616359194,385.625 L281.11768616359194,400.0" stroke="#9a9a9a" stroke-width="1.6" stroke-linecap="round" />
<path d="M281.11768616359194,385.625 L281.11768616359194,371.25" stroke="#9a9a9a" stroke-width="1.4" stroke-dasharray="6,5" stroke-linecap="butt" />
<path d="M281.11768616359194,371.25 L373.44452796069186,371.25" stroke="#9a9a9a" stroke-width="1.4" stroke-dasharray="6,5" stroke-linecap="butt" />
<path d="M281.11768616359194,400.0 L485.26708185162465,400.0" stroke="#9a9a9a" stroke-width="1.6" stroke-linecap="round" />
<path d="M485.26708185162465,400.0 L485.26708185162465,388.5" stroke="#9a9a9a" stroke-width="1.6" stroke-linecap="round" />
<path d="M485.26708185162465,400.0 L485.26708185162465,411.5" stroke="#9a9a9a" stroke-width="1.6" stroke-linecap="round" />
<path d="M485.26708185162465,411.5 L536.0696736142497,411.5" stroke="#9a9a9a" stroke-width="1.6" stroke-linecap="round" />
<path d="M536.0696736142497,411.5 L536.0696736142497,405.75" stroke="#9a9a9a" stroke-width="1.6" stroke-linecap="round" />
<path d="M536.0696736142497,411.5 L536.0696736142497,417.25" stroke="#9a9a9a" stroke-width="1.6" stroke-linecap="round" />
<path d="M536.0696736142497,417.25 L980.0,417.25" stroke="#9a9a9a" stroke-width="1.6" stroke-linecap="round" />
<path d="M536.0696736142497,405.75 L980.0,405.75" stroke="#9a9a9a" stroke-width="1.6" stroke-linecap="round" />
<path d="M485.26708185162465,388.5 L647.995641878798,388.5" stroke="#9a9a9a" stroke-width="1.6" stroke-linecap="round" />
<path d="M647.995641878798,388.5 L647.995641878798,382.75" stroke="#9a9a9a" stroke-width="1.6" stroke-linecap="round" />
<path d="M647.995641878798,388.5 L647.995641878798,394.25" stroke="#9a9a9a" stroke-width="1.6" stroke-linecap="round" />
<path d="M647.995641878798,394.25 L980.0,394.25" stroke="#9a9a9a" stroke-width="1.6" stroke-linecap="round" />
<path d="M647.995641878798,382.75 L980.0,382.75" stroke="#9a9a9a" stroke-width="1.6" stroke-linecap="round" />
<path d="M219.59546222968987,354.0 L503.6700046808208,354.0" stroke="#9a9a9a" stroke-width="1.6" stroke-linecap="round" />
<path d="M503.6700046808208,354.0 L503.6700046808208,348.25" stroke="#9a9a9a" stroke-width="1.6" stroke-linecap="round" />
<path d="M503.6700046808208,354.0 L503.6700046808208,359.75" stroke="#9a9a9a" stroke-width="1.4" stroke-dasharray="6,5" stroke-linecap="butt" />
<path d="M503.6700046808208,359.75 L851.1131776101345,359.75" stroke="#9a9a9a" stroke-width="1.4" stroke-dasharray="6,5" stroke-linecap="butt" />
<path d="M503.6700046808208,348.25 L980.0,348.25" stroke="#9a9a9a" stroke-width="1.6" stroke-linecap="round" />
<path d="M405.40000000000003,437.75 L405.40000000000003,592.25" stroke="#1a1a1a" stroke-width="1.4" stroke-dasharray="5,4" />
<circle cx="405.40000000000003" cy="476.1875" r="6.5" fill="white" stroke="#1a1a1a" stroke-width="2.2" />
<path d="M402.40000000000003,476.1875 L407.40000000000003,472.6875 L407.40000000000003,479.6875 Z" fill="#1a1a1a" />
<text x="405.40000000000003" y="427.75" font-size="20" font-family="Helvetica" text-anchor="middle" font-weight="bold" fill="#1a1a1a">rate shift</text>
<text x="425.40000000000003" y="545.0" font-size="20" font-family="Helvetica" text-anchor="start" fill="#555" font-style="italic">this clade now diversifies fast</text>
<path d="M102,92 L136,92" stroke="#9a9a9a" stroke-width="1.7" stroke-linecap="round" />
<text x="146" y="92" font-size="22" font-family="Helvetica" text-anchor="start" dominant-baseline="central" fill="#1a1a1a">background rate</text>
<path d="M102,122 L136,122" stroke="#1a1a1a" stroke-width="2.6" stroke-linecap="round" />
<text x="146" y="122" font-size="22" font-family="Helvetica" text-anchor="start" dominant-baseline="central" fill="#1a1a1a">shifted clade</text>
<path d="M102,152 L136,152" stroke="#9a9a9a" stroke-width="1.5" stroke-dasharray="6,5" />
<text x="146" y="152" font-size="22" font-family="Helvetica" text-anchor="start" dominant-baseline="central" fill="#1a1a1a">extinct lineage</text>
<path d="M96.0,606.25 L96.0,612.25" stroke="#1a1a1a" stroke-width="1.2" />
<text x="96.0" y="630.25" font-size="18" font-family="Helvetica" text-anchor="middle" fill="#777">0.0</text>
<path d="M272.79999999999995,606.25 L272.79999999999995,612.25" stroke="#1a1a1a" stroke-width="1.2" />
<text x="272.79999999999995" y="630.25" font-size="18" font-family="Helvetica" text-anchor="middle" fill="#777">1.2</text>
<path d="M449.59999999999997,606.25 L449.59999999999997,612.25" stroke="#1a1a1a" stroke-width="1.2" />
<text x="449.59999999999997" y="630.25" font-size="18" font-family="Helvetica" text-anchor="middle" fill="#777">2.4</text>
<path d="M626.4,606.25 L626.4,612.25" stroke="#1a1a1a" stroke-width="1.2" />
<text x="626.4" y="630.25" font-size="18" font-family="Helvetica" text-anchor="middle" fill="#777">3.6</text>
<path d="M803.1999999999999,606.25 L803.1999999999999,612.25" stroke="#1a1a1a" stroke-width="1.2" />
<text x="803.1999999999999" y="630.25" font-size="18" font-family="Helvetica" text-anchor="middle" fill="#777">4.8</text>
<path d="M980.0,606.25 L980.0,612.25" stroke="#1a1a1a" stroke-width="1.2" />
<text x="980.0" y="630.25" font-size="18" font-family="Helvetica" text-anchor="middle" fill="#777">6.0</text>
<text x="538.0" y="658.25" font-size="22" font-family="Helvetica" text-anchor="middle" fill="#555">time (root to present)</text>
</svg>