<?xml version="1.0" encoding="UTF-8"?>
<svg xmlns="http://www.w3.org/2000/svg" xmlns:xlink="http://www.w3.org/1999/xlink"
     width="820" height="960" viewBox="-410.0 -480.0 820 960">
<defs>
</defs>
<rect x="-410.0" y="-480.0" width="820" height="960" fill="white" />
<path d="M327.9999999999999,-412.0 L327.9999999999999,412.0" stroke="#c9c9c9" stroke-width="1.0" stroke-dasharray="2,4" />
<path d="M317.4544907745134,-398.0 L327.9999999999999,-398.0" stroke="#1a1a1a" stroke-width="2.6" stroke-linecap="round" />
<path d="M317.4544907745134,-341.14285714285717 L327.9999999999999,-341.14285714285717" stroke="#1a1a1a" stroke-width="2.6" stroke-linecap="round" />
<path d="M64.40218264327945,-369.57142857142856 L317.4544907745134,-369.57142857142856" stroke="#1a1a1a" stroke-width="2.6" stroke-linecap="round" />
<path d="M317.4544907745134,-369.57142857142856 L317.4544907745134,-398.0" stroke="#1a1a1a" stroke-width="2.6" stroke-linecap="round" />
<path d="M317.4544907745134,-369.57142857142856 L317.4544907745134,-341.14285714285717" stroke="#1a1a1a" stroke-width="2.6" stroke-linecap="round" />
<path d="M300.92870514275853,-284.2857142857143 L327.9999999999999,-284.2857142857143" stroke="#1a1a1a" stroke-width="2.6" stroke-linecap="round" />
<path d="M300.92870514275853,-227.42857142857144 L327.9999999999999,-227.42857142857144" stroke="#1a1a1a" stroke-width="2.6" stroke-linecap="round" />
<path d="M246.49199730834744,-255.85714285714286 L300.92870514275853,-255.85714285714286" stroke="#1a1a1a" stroke-width="2.6" stroke-linecap="round" />
<path d="M300.92870514275853,-255.85714285714286 L300.92870514275853,-284.2857142857143" stroke="#1a1a1a" stroke-width="2.6" stroke-linecap="round" />
<path d="M300.92870514275853,-255.85714285714286 L300.92870514275853,-227.42857142857144" stroke="#1a1a1a" stroke-width="2.6" stroke-linecap="round" />
<path d="M246.49199730834744,-170.57142857142858 L327.9999999999999,-170.57142857142858" stroke="#1a1a1a" stroke-width="2.6" stroke-linecap="round" />
<path d="M197.3547577654631,-213.21428571428572 L246.49199730834744,-213.21428571428572" stroke="#1a1a1a" stroke-width="2.6" stroke-linecap="round" />
<path d="M246.49199730834744,-213.21428571428572 L246.49199730834744,-255.85714285714286" stroke="#1a1a1a" stroke-width="2.6" stroke-linecap="round" />
<path d="M246.49199730834744,-213.21428571428572 L246.49199730834744,-170.57142857142858" stroke="#1a1a1a" stroke-width="2.6" stroke-linecap="round" />
<path d="M197.3547577654631,-113.71428571428572 L327.9999999999999,-113.71428571428572" stroke="#1a1a1a" stroke-width="2.6" stroke-linecap="round" />
<path d="M64.40218264327945,-163.46428571428572 L197.3547577654631,-163.46428571428572" stroke="#1a1a1a" stroke-width="2.6" stroke-linecap="round" />
<path d="M197.3547577654631,-163.46428571428572 L197.3547577654631,-213.21428571428572" stroke="#1a1a1a" stroke-width="2.6" stroke-linecap="round" />
<path d="M197.3547577654631,-163.46428571428572 L197.3547577654631,-113.71428571428572" stroke="#1a1a1a" stroke-width="2.6" stroke-linecap="round" />
<path d="M-185.39012495924544,-266.5178571428571 L64.40218264327945,-266.5178571428571" stroke="#1a1a1a" stroke-width="2.6" stroke-linecap="round" />
<path d="M64.40218264327945,-266.5178571428571 L64.40218264327945,-369.57142857142856" stroke="#1a1a1a" stroke-width="2.6" stroke-linecap="round" />
<path d="M64.40218264327945,-266.5178571428571 L64.40218264327945,-163.46428571428572" stroke="#1a1a1a" stroke-width="2.6" stroke-linecap="round" />
<path d="M-35.809134674516145,-56.85714285714289 L8.34432311068906,-56.85714285714289" stroke="#1a1a1a" stroke-width="2.6" stroke-dasharray="6,5" stroke-linecap="butt" />
<path d="M289.88391759433307,0.0 L327.9999999999999,0.0" stroke="#1a1a1a" stroke-width="2.6" stroke-linecap="round" />
<path d="M125.78305044844831,0.0 L289.88391759433307,0.0" stroke="#1a1a1a" stroke-width="2.6" stroke-linecap="round" />
<path d="M289.88391759433307,0.0 L289.88391759433307,0.0" stroke="#1a1a1a" stroke-width="2.6" stroke-linecap="round" />
<path d="M320.8903011048603,56.85714285714283 L327.9999999999999,56.85714285714283" stroke="#1a1a1a" stroke-width="2.6" stroke-linecap="round" />
<path d="M125.78305044844831,56.85714285714283 L320.8903011048603,56.85714285714283" stroke="#1a1a1a" stroke-width="2.6" stroke-linecap="round" />
<path d="M320.8903011048603,56.85714285714283 L320.8903011048603,56.85714285714283" stroke="#1a1a1a" stroke-width="2.6" stroke-linecap="round" />
<path d="M-35.809134674516145,28.428571428571416 L125.78305044844831,28.428571428571416" stroke="#1a1a1a" stroke-width="2.6" stroke-linecap="round" />
<path d="M125.78305044844831,28.428571428571416 L125.78305044844831,0.0" stroke="#1a1a1a" stroke-width="2.6" stroke-linecap="round" />
<path d="M125.78305044844831,28.428571428571416 L125.78305044844831,56.85714285714283" stroke="#1a1a1a" stroke-width="2.6" stroke-linecap="round" />
<path d="M-157.07272946461637,-14.214285714285737 L-35.809134674516145,-14.214285714285737" stroke="#1a1a1a" stroke-width="2.6" stroke-linecap="round" />
<path d="M-35.809134674516145,-14.214285714285737 L-35.809134674516145,-56.85714285714289" stroke="#1a1a1a" stroke-width="2.6" stroke-dasharray="6,5" stroke-linecap="butt" />
<path d="M-35.809134674516145,-14.214285714285737 L-35.809134674516145,28.428571428571416" stroke="#1a1a1a" stroke-width="2.6" stroke-linecap="round" />
<path d="M-69.48536336157798,113.71428571428567 L105.01218501131467,113.71428571428567" stroke="#1a1a1a" stroke-width="2.6" stroke-dasharray="6,5" stroke-linecap="butt" />
<path d="M-69.48536336157798,170.57142857142856 L12.816643686791508,170.57142857142856" stroke="#1a1a1a" stroke-width="2.6" stroke-linecap="round" />
<path d="M-141.96875519179164,142.1428571428571 L-69.48536336157798,142.1428571428571" stroke="#1a1a1a" stroke-width="2.6" stroke-linecap="round" />
<path d="M-69.48536336157798,142.1428571428571 L-69.48536336157798,113.71428571428567" stroke="#1a1a1a" stroke-width="2.6" stroke-dasharray="6,5" stroke-linecap="butt" />
<path d="M-69.48536336157798,142.1428571428571 L-69.48536336157798,170.57142857142856" stroke="#1a1a1a" stroke-width="2.6" stroke-linecap="round" />
<path d="M70.0054512425707,227.42857142857144 L287.38095983439996,227.42857142857144" stroke="#1a1a1a" stroke-width="2.6" stroke-dasharray="6,5" stroke-linecap="butt" />
<path d="M-141.96875519179164,227.42857142857144 L70.0054512425707,227.42857142857144" stroke="#1a1a1a" stroke-width="2.6" stroke-linecap="round" />
<path d="M70.0054512425707,227.42857142857144 L70.0054512425707,227.42857142857144" stroke="#1a1a1a" stroke-width="2.6" stroke-dasharray="6,5" stroke-linecap="butt" />
<path d="M-157.07272946461637,184.78571428571428 L-141.96875519179164,184.78571428571428" stroke="#1a1a1a" stroke-width="2.6" stroke-linecap="round" />
<path d="M-141.96875519179164,184.78571428571428 L-141.96875519179164,142.1428571428571" stroke="#1a1a1a" stroke-width="2.6" stroke-linecap="round" />
<path d="M-141.96875519179164,184.78571428571428 L-141.96875519179164,227.42857142857144" stroke="#1a1a1a" stroke-width="2.6" stroke-linecap="round" />
<path d="M-185.39012495924544,85.28571428571428 L-157.07272946461637,85.28571428571428" stroke="#1a1a1a" stroke-width="2.6" stroke-linecap="round" />
<path d="M-157.07272946461637,85.28571428571428 L-157.07272946461637,-14.214285714285737" stroke="#1a1a1a" stroke-width="2.6" stroke-linecap="round" />
<path d="M-157.07272946461637,85.28571428571428 L-157.07272946461637,184.78571428571428" stroke="#1a1a1a" stroke-width="2.6" stroke-linecap="round" />
<path d="M-272.38914271092375,-90.61607142857142 L-185.39012495924544,-90.61607142857142" stroke="#1a1a1a" stroke-width="2.6" stroke-linecap="round" />
<path d="M-185.39012495924544,-90.61607142857142 L-185.39012495924544,-266.5178571428571" stroke="#1a1a1a" stroke-width="2.6" stroke-linecap="round" />
<path d="M-185.39012495924544,-90.61607142857142 L-185.39012495924544,85.28571428571428" stroke="#1a1a1a" stroke-width="2.6" stroke-linecap="round" />
<path d="M-328.0,-90.61607142857142 L-272.38914271092375,-90.61607142857142" stroke="#1a1a1a" stroke-width="2.6" stroke-linecap="round" />
<path d="M-272.38914271092375,-90.61607142857142 L-272.38914271092375,-90.61607142857142" stroke="#1a1a1a" stroke-width="2.6" stroke-linecap="round" />
<path d="M314.37010252332345,284.2857142857142 L327.9999999999999,284.2857142857142" stroke="#1a1a1a" stroke-width="2.6" stroke-linecap="round" />
<path d="M314.37010252332345,341.1428571428571 L327.9999999999999,341.1428571428571" stroke="#1a1a1a" stroke-width="2.6" stroke-linecap="round" />
<path d="M185.525103730899,312.71428571428567 L314.37010252332345,312.71428571428567" stroke="#1a1a1a" stroke-width="2.6" stroke-linecap="round" />
<path d="M314.37010252332345,312.71428571428567 L314.37010252332345,284.2857142857142" stroke="#1a1a1a" stroke-width="2.6" stroke-linecap="round" />
<path d="M314.37010252332345,312.71428571428567 L314.37010252332345,341.1428571428571" stroke="#1a1a1a" stroke-width="2.6" stroke-linecap="round" />
<path d="M185.525103730899,398.0 L327.9999999999999,398.0" stroke="#1a1a1a" stroke-width="2.6" stroke-linecap="round" />
<path d="M-328.0,355.35714285714283 L185.525103730899,355.35714285714283" stroke="#1a1a1a" stroke-width="2.6" stroke-linecap="round" />
<path d="M185.525103730899,355.35714285714283 L185.525103730899,312.71428571428567" stroke="#1a1a1a" stroke-width="2.6" stroke-linecap="round" />
<path d="M185.525103730899,355.35714285714283 L185.525103730899,398.0" stroke="#1a1a1a" stroke-width="2.6" stroke-linecap="round" />
<path d="M-342.0,132.37053571428572 L-328.0,132.37053571428572" stroke="#1a1a1a" stroke-width="2.6" stroke-linecap="round" />
<path d="M-328.0,132.37053571428572 L-328.0,-90.61607142857142" stroke="#1a1a1a" stroke-width="2.6" stroke-linecap="round" />
<path d="M-328.0,132.37053571428572 L-328.0,355.35714285714283" stroke="#1a1a1a" stroke-width="2.6" stroke-linecap="round" />
<rect x="-278.88914271092375" y="-97.11607142857142" width="13.0" height="13.0" transform="rotate(45.0,-272.38914271092375,-90.61607142857142)" fill="#1a1a1a" opacity="1.0" stroke="#ffffff" stroke-width="1.1" />
<rect x="63.5054512425707" y="220.92857142857144" width="13.0" height="13.0" transform="rotate(45.0,70.0054512425707,227.42857142857144)" fill="#1a1a1a" opacity="1.0" stroke="#ffffff" stroke-width="1.1" />
<rect x="283.38391759433307" y="-6.5" width="13.0" height="13.0" transform="rotate(45.0,289.88391759433307,0.0)" fill="#1a1a1a" opacity="1.0" stroke="#ffffff" stroke-width="1.1" />
<rect x="314.3903011048603" y="50.35714285714283" width="13.0" height="13.0" transform="rotate(45.0,320.8903011048603,56.85714285714283)" fill="#1a1a1a" opacity="1.0" stroke="#ffffff" stroke-width="1.1" />
<rect x="6.316643686791508" y="164.07142857142856" width="13.0" height="13.0" transform="rotate(45.0,12.816643686791508,170.57142857142856)" fill="#1a1a1a" opacity="1.0" stroke="#ffffff" stroke-width="1.1" />
<path d="M-342.0,412.0 L327.9999999999999,412.0" stroke="black" stroke-width="1.6" />
<path d="M-328.0,412.0 L-328.0,418.0" stroke="black" stroke-width="1.6" />
<text x="-328.0" y="435.0" font-size="17" text-anchor="middle" font-family="Helvetica">0.00</text>
<path d="M-164.00000000000003,412.0 L-164.00000000000003,418.0" stroke="black" stroke-width="1.6" />
<text x="-164.00000000000003" y="435.0" font-size="17" text-anchor="middle" font-family="Helvetica">0.55</text>
<path d="M-5.684341886080802e-14,412.0 L-5.684341886080802e-14,418.0" stroke="black" stroke-width="1.6" />
<text x="-5.684341886080802e-14" y="435.0" font-size="17" text-anchor="middle" font-family="Helvetica">1.10</text>
<path d="M163.9999999999999,412.0 L163.9999999999999,418.0" stroke="black" stroke-width="1.6" />
<text x="163.9999999999999" y="435.0" font-size="17" text-anchor="middle" font-family="Helvetica">1.65</text>
<path d="M327.9999999999999,412.0 L327.9999999999999,418.0" stroke="black" stroke-width="1.6" />
<text x="327.9999999999999" y="435.0" font-size="17" text-anchor="middle" font-family="Helvetica">2.20</text>
<text x="-7.000000000000057" y="460.5" font-size="17" text-anchor="middle" font-family="Helvetica">Time (root to present)</text>
<text x="-376.0" y="-440.0" font-size="17" font-weight="bold" font-family="Helvetica" text-anchor="start">Fossilized birth–death</text>
<path d="M-376.0,-411.5 L-346.0,-411.5" stroke="#1a1a1a" stroke-width="2.6" stroke-linecap="round" />
<text x="-334.0" y="-411.5" font-size="15" font-family="Helvetica" text-anchor="start" dominant-baseline="middle">Extant lineage</text>
<rect x="-367.5" y="-389.5" width="13.0" height="13.0" transform="rotate(45.0,-361.0,-383.0)" fill="#1a1a1a" opacity="1.0" stroke="#ffffff" stroke-width="1.1" />
<text x="-334.0" y="-383.0" font-size="15" font-family="Helvetica" text-anchor="start" dominant-baseline="middle">Fossil sample</text>
<path d="M-376.0,-354.5 L-346.0,-354.5" stroke="#1a1a1a" stroke-width="2.6" stroke-dasharray="6,5" stroke-linecap="butt" />
<text x="-334.0" y="-354.5" font-size="15" font-family="Helvetica" text-anchor="start" dominant-baseline="middle">Extinct / unsampled</text>
</svg>