<?xml version="1.0" encoding="UTF-8"?>
<svg xmlns="http://www.w3.org/2000/svg" xmlns:xlink="http://www.w3.org/1999/xlink"
     width="940" height="1164" viewBox="-470.0 -582.0 940 1164">
<defs>
</defs>
<rect x="-470.0" y="-582.0" width="940" height="1164" fill="white" />
<text x="264.0" y="-500.0" font-size="20" font-family="Helvetica" text-anchor="middle" fill="#1a1a1a">b = 1.5,  d = 0.15</text>
<rect x="0.0" y="-486.0" width="176.0" height="972.0" fill="#e9e9e9" />
<text x="88.0" y="-500.0" font-size="20" font-family="Helvetica" text-anchor="middle" fill="#1a1a1a">b = 0.7,  d = 0.35</text>
<text x="-88.0" y="-500.0" font-size="20" font-family="Helvetica" text-anchor="middle" fill="#1a1a1a">b = 1.5,  d = 0.15</text>
<rect x="-352.0" y="-486.0" width="176.0" height="972.0" fill="#e9e9e9" />
<text x="-264.0" y="-500.0" font-size="20" font-family="Helvetica" text-anchor="middle" fill="#1a1a1a">b = 0.6,  d = 0.3</text>
<path d="M176.0,-486.0 L176.0,486.0" stroke="#8a8a8a" stroke-width="1.2" stroke-dasharray="3,4" />
<path d="M0.0,-486.0 L0.0,486.0" stroke="#8a8a8a" stroke-width="1.2" stroke-dasharray="3,4" />
<path d="M-176.0,-486.0 L-176.0,486.0" stroke="#8a8a8a" stroke-width="1.2" stroke-dasharray="3,4" />
<path d="M-352.0,-464.0 L-289.63871177801633,-464.0" stroke="#1a1a1a" stroke-width="2.6" stroke-dasharray="6,5" stroke-linecap="butt" />
<path d="M256.9652898737812,-419.8095238095238 L352.0,-419.8095238095238" stroke="#1a1a1a" stroke-width="2.6" stroke-linecap="round" />
<path d="M273.88185183130327,-375.6190476190476 L352.0,-375.6190476190476" stroke="#1a1a1a" stroke-width="2.6" stroke-linecap="round" />
<path d="M293.4894108382018,-331.42857142857144 L352.0,-331.42857142857144" stroke="#1a1a1a" stroke-width="2.6" stroke-linecap="round" />
<path d="M293.4894108382018,-287.23809523809524 L352.0,-287.23809523809524" stroke="#1a1a1a" stroke-width="2.6" stroke-linecap="round" />
<path d="M273.88185183130327,-309.33333333333337 L293.4894108382018,-309.33333333333337" stroke="#1a1a1a" stroke-width="2.6" stroke-linecap="round" />
<path d="M293.4894108382018,-309.33333333333337 L293.4894108382018,-331.42857142857144" stroke="#1a1a1a" stroke-width="2.6" stroke-linecap="round" />
<path d="M293.4894108382018,-309.33333333333337 L293.4894108382018,-287.23809523809524" stroke="#1a1a1a" stroke-width="2.6" stroke-linecap="round" />
<path d="M257.17473578140607,-342.4761904761905 L273.88185183130327,-342.4761904761905" stroke="#1a1a1a" stroke-width="2.6" stroke-linecap="round" />
<path d="M273.88185183130327,-342.4761904761905 L273.88185183130327,-375.6190476190476" stroke="#1a1a1a" stroke-width="2.6" stroke-linecap="round" />
<path d="M273.88185183130327,-342.4761904761905 L273.88185183130327,-309.33333333333337" stroke="#1a1a1a" stroke-width="2.6" stroke-linecap="round" />
<path d="M257.17473578140607,-243.04761904761904 L352.0,-243.04761904761904" stroke="#1a1a1a" stroke-width="2.6" stroke-linecap="round" />
<path d="M256.9652898737812,-292.76190476190476 L257.17473578140607,-292.76190476190476" stroke="#1a1a1a" stroke-width="2.6" stroke-linecap="round" />
<path d="M257.17473578140607,-292.76190476190476 L257.17473578140607,-342.4761904761905" stroke="#1a1a1a" stroke-width="2.6" stroke-linecap="round" />
<path d="M257.17473578140607,-292.76190476190476 L257.17473578140607,-243.04761904761904" stroke="#1a1a1a" stroke-width="2.6" stroke-linecap="round" />
<path d="M-324.26144409970857,-356.2857142857143 L256.9652898737812,-356.2857142857143" stroke="#1a1a1a" stroke-width="2.6" stroke-linecap="round" />
<path d="M256.9652898737812,-356.2857142857143 L256.9652898737812,-419.8095238095238" stroke="#1a1a1a" stroke-width="2.6" stroke-linecap="round" />
<path d="M256.9652898737812,-356.2857142857143 L256.9652898737812,-292.76190476190476" stroke="#1a1a1a" stroke-width="2.6" stroke-linecap="round" />
<path d="M248.35852846330977,-198.8571428571429 L352.0,-198.8571428571429" stroke="#1a1a1a" stroke-width="2.6" stroke-linecap="round" />
<path d="M248.35852846330977,-154.66666666666669 L352.0,-154.66666666666669" stroke="#1a1a1a" stroke-width="2.6" stroke-linecap="round" />
<path d="M227.01541566539822,-176.7619047619048 L248.35852846330977,-176.7619047619048" stroke="#1a1a1a" stroke-width="2.6" stroke-linecap="round" />
<path d="M248.35852846330977,-176.7619047619048 L248.35852846330977,-198.8571428571429" stroke="#1a1a1a" stroke-width="2.6" stroke-linecap="round" />
<path d="M248.35852846330977,-176.7619047619048 L248.35852846330977,-154.66666666666669" stroke="#1a1a1a" stroke-width="2.6" stroke-linecap="round" />
<path d="M248.58923425738465,-110.47619047619048 L352.0,-110.47619047619048" stroke="#1a1a1a" stroke-width="2.6" stroke-linecap="round" />
<path d="M265.339613183016,-66.28571428571428 L352.0,-66.28571428571428" stroke="#1a1a1a" stroke-width="2.6" stroke-linecap="round" />
<path d="M265.339613183016,-22.095238095238074 L352.0,-22.095238095238074" stroke="#1a1a1a" stroke-width="2.6" stroke-linecap="round" />
<path d="M248.58923425738465,-44.190476190476176 L265.339613183016,-44.190476190476176" stroke="#1a1a1a" stroke-width="2.6" stroke-linecap="round" />
<path d="M265.339613183016,-44.190476190476176 L265.339613183016,-66.28571428571428" stroke="#1a1a1a" stroke-width="2.6" stroke-linecap="round" />
<path d="M265.339613183016,-44.190476190476176 L265.339613183016,-22.095238095238074" stroke="#1a1a1a" stroke-width="2.6" stroke-linecap="round" />
<path d="M227.01541566539822,-77.33333333333333 L248.58923425738465,-77.33333333333333" stroke="#1a1a1a" stroke-width="2.6" stroke-linecap="round" />
<path d="M248.58923425738465,-77.33333333333333 L248.58923425738465,-110.47619047619048" stroke="#1a1a1a" stroke-width="2.6" stroke-linecap="round" />
<path d="M248.58923425738465,-77.33333333333333 L248.58923425738465,-44.190476190476176" stroke="#1a1a1a" stroke-width="2.6" stroke-linecap="round" />
<path d="M189.98903335624345,-127.04761904761907 L227.01541566539822,-127.04761904761907" stroke="#1a1a1a" stroke-width="2.6" stroke-linecap="round" />
<path d="M227.01541566539822,-127.04761904761907 L227.01541566539822,-176.7619047619048" stroke="#1a1a1a" stroke-width="2.6" stroke-linecap="round" />
<path d="M227.01541566539822,-127.04761904761907 L227.01541566539822,-77.33333333333333" stroke="#1a1a1a" stroke-width="2.6" stroke-linecap="round" />
<path d="M191.58351662051462,22.095238095238074 L352.0,22.095238095238074" stroke="#1a1a1a" stroke-width="2.6" stroke-linecap="round" />
<path d="M191.58351662051462,66.28571428571422 L352.0,66.28571428571422" stroke="#1a1a1a" stroke-width="2.6" stroke-linecap="round" />
<path d="M189.98903335624345,44.19047619047615 L191.58351662051462,44.19047619047615" stroke="#1a1a1a" stroke-width="2.6" stroke-linecap="round" />
<path d="M191.58351662051462,44.19047619047615 L191.58351662051462,22.095238095238074" stroke="#1a1a1a" stroke-width="2.6" stroke-linecap="round" />
<path d="M191.58351662051462,44.19047619047615 L191.58351662051462,66.28571428571422" stroke="#1a1a1a" stroke-width="2.6" stroke-linecap="round" />
<path d="M-107.60041817153845,-41.42857142857146 L189.98903335624345,-41.42857142857146" stroke="#1a1a1a" stroke-width="2.6" stroke-linecap="round" />
<path d="M189.98903335624345,-41.42857142857146 L189.98903335624345,-127.04761904761907" stroke="#1a1a1a" stroke-width="2.6" stroke-linecap="round" />
<path d="M189.98903335624345,-41.42857142857146 L189.98903335624345,44.19047619047615" stroke="#1a1a1a" stroke-width="2.6" stroke-linecap="round" />
<path d="M229.83203639840337,110.47619047619048 L352.0,110.47619047619048" stroke="#1a1a1a" stroke-width="2.6" stroke-linecap="round" />
<path d="M332.15711815706277,154.66666666666663 L352.0,154.66666666666663" stroke="#1a1a1a" stroke-width="2.6" stroke-linecap="round" />
<path d="M332.15711815706277,198.8571428571429 L352.0,198.8571428571429" stroke="#1a1a1a" stroke-width="2.6" stroke-linecap="round" />
<path d="M229.83203639840337,176.76190476190476 L332.15711815706277,176.76190476190476" stroke="#1a1a1a" stroke-width="2.6" stroke-linecap="round" />
<path d="M332.15711815706277,176.76190476190476 L332.15711815706277,154.66666666666663" stroke="#1a1a1a" stroke-width="2.6" stroke-linecap="round" />
<path d="M332.15711815706277,176.76190476190476 L332.15711815706277,198.8571428571429" stroke="#1a1a1a" stroke-width="2.6" stroke-linecap="round" />
<path d="M224.5501427406133,143.61904761904762 L229.83203639840337,143.61904761904762" stroke="#1a1a1a" stroke-width="2.6" stroke-linecap="round" />
<path d="M229.83203639840337,143.61904761904762 L229.83203639840337,110.47619047619048" stroke="#1a1a1a" stroke-width="2.6" stroke-linecap="round" />
<path d="M229.83203639840337,143.61904761904762 L229.83203639840337,176.76190476190476" stroke="#1a1a1a" stroke-width="2.6" stroke-linecap="round" />
<path d="M320.443636448049,243.04761904761904 L352.0,243.04761904761904" stroke="#1a1a1a" stroke-width="2.6" stroke-linecap="round" />
<path d="M320.443636448049,287.2380952380952 L352.0,287.2380952380952" stroke="#1a1a1a" stroke-width="2.6" stroke-linecap="round" />
<path d="M224.5501427406133,265.1428571428571 L320.443636448049,265.1428571428571" stroke="#1a1a1a" stroke-width="2.6" stroke-linecap="round" />
<path d="M320.443636448049,265.1428571428571 L320.443636448049,243.04761904761904" stroke="#1a1a1a" stroke-width="2.6" stroke-linecap="round" />
<path d="M320.443636448049,265.1428571428571 L320.443636448049,287.2380952380952" stroke="#1a1a1a" stroke-width="2.6" stroke-linecap="round" />
<path d="M-32.6565951401364,204.38095238095235 L224.5501427406133,204.38095238095235" stroke="#1a1a1a" stroke-width="2.6" stroke-linecap="round" />
<path d="M224.5501427406133,204.38095238095235 L224.5501427406133,143.61904761904762" stroke="#1a1a1a" stroke-width="2.6" stroke-linecap="round" />
<path d="M224.5501427406133,204.38095238095235 L224.5501427406133,265.1428571428571" stroke="#1a1a1a" stroke-width="2.6" stroke-linecap="round" />
<path d="M275.7260231211271,331.42857142857144 L352.0,331.42857142857144" stroke="#1a1a1a" stroke-width="2.6" stroke-linecap="round" />
<path d="M331.07827820715556,375.6190476190476 L352.0,375.6190476190476" stroke="#1a1a1a" stroke-width="2.6" stroke-linecap="round" />
<path d="M331.07827820715556,419.80952380952385 L352.0,419.80952380952385" stroke="#1a1a1a" stroke-width="2.6" stroke-linecap="round" />
<path d="M275.7260231211271,397.7142857142857 L331.07827820715556,397.7142857142857" stroke="#1a1a1a" stroke-width="2.6" stroke-linecap="round" />
<path d="M331.07827820715556,397.7142857142857 L331.07827820715556,375.6190476190476" stroke="#1a1a1a" stroke-width="2.6" stroke-linecap="round" />
<path d="M331.07827820715556,397.7142857142857 L331.07827820715556,419.80952380952385" stroke="#1a1a1a" stroke-width="2.6" stroke-linecap="round" />
<path d="M118.04873417039198,364.57142857142856 L275.7260231211271,364.57142857142856" stroke="#1a1a1a" stroke-width="2.6" stroke-linecap="round" />
<path d="M275.7260231211271,364.57142857142856 L275.7260231211271,331.42857142857144" stroke="#1a1a1a" stroke-width="2.6" stroke-linecap="round" />
<path d="M275.7260231211271,364.57142857142856 L275.7260231211271,397.7142857142857" stroke="#1a1a1a" stroke-width="2.6" stroke-linecap="round" />
<path d="M118.04873417039198,464.0 L352.0,464.0" stroke="#1a1a1a" stroke-width="2.6" stroke-linecap="round" />
<path d="M-32.6565951401364,414.2857142857143 L118.04873417039198,414.2857142857143" stroke="#1a1a1a" stroke-width="2.6" stroke-linecap="round" />
<path d="M118.04873417039198,414.2857142857143 L118.04873417039198,364.57142857142856" stroke="#1a1a1a" stroke-width="2.6" stroke-linecap="round" />
<path d="M118.04873417039198,414.2857142857143 L118.04873417039198,464.0" stroke="#1a1a1a" stroke-width="2.6" stroke-linecap="round" />
<path d="M-107.60041817153845,309.3333333333333 L-32.6565951401364,309.3333333333333" stroke="#1a1a1a" stroke-width="2.6" stroke-linecap="round" />
<path d="M-32.6565951401364,309.3333333333333 L-32.6565951401364,204.38095238095235" stroke="#1a1a1a" stroke-width="2.6" stroke-linecap="round" />
<path d="M-32.6565951401364,309.3333333333333 L-32.6565951401364,414.2857142857143" stroke="#1a1a1a" stroke-width="2.6" stroke-linecap="round" />
<path d="M-324.26144409970857,133.95238095238093 L-107.60041817153845,133.95238095238093" stroke="#1a1a1a" stroke-width="2.6" stroke-linecap="round" />
<path d="M-107.60041817153845,133.95238095238093 L-107.60041817153845,-41.42857142857146" stroke="#1a1a1a" stroke-width="2.6" stroke-linecap="round" />
<path d="M-107.60041817153845,133.95238095238093 L-107.60041817153845,309.3333333333333" stroke="#1a1a1a" stroke-width="2.6" stroke-linecap="round" />
<path d="M-352.0,-111.16666666666667 L-324.26144409970857,-111.16666666666667" stroke="#1a1a1a" stroke-width="2.6" stroke-linecap="round" />
<path d="M-324.26144409970857,-111.16666666666667 L-324.26144409970857,-356.2857142857143" stroke="#1a1a1a" stroke-width="2.6" stroke-linecap="round" />
<path d="M-324.26144409970857,-111.16666666666667 L-324.26144409970857,133.95238095238093" stroke="#1a1a1a" stroke-width="2.6" stroke-linecap="round" />
<path d="M-366.0,-287.5833333333333 L-352.0,-287.5833333333333" stroke="#1a1a1a" stroke-width="2.6" stroke-linecap="round" />
<path d="M-352.0,-287.5833333333333 L-352.0,-464.0" stroke="#1a1a1a" stroke-width="2.6" stroke-dasharray="6,5" stroke-linecap="butt" />
<path d="M-352.0,-287.5833333333333 L-352.0,-111.16666666666667" stroke="#1a1a1a" stroke-width="2.6" stroke-linecap="round" />
<path d="M-366.0,478.0 L352.0,478.0" stroke="black" stroke-width="1.6" />
<path d="M-352.0,478.0 L-352.0,484.0" stroke="black" stroke-width="1.6" />
<text x="-352.0" y="501.0" font-size="17" text-anchor="middle" font-family="Helvetica">0.00</text>
<path d="M-176.0,478.0 L-176.0,484.0" stroke="black" stroke-width="1.6" />
<text x="-176.0" y="501.0" font-size="17" text-anchor="middle" font-family="Helvetica">0.75</text>
<path d="M0.0,478.0 L0.0,484.0" stroke="black" stroke-width="1.6" />
<text x="0.0" y="501.0" font-size="17" text-anchor="middle" font-family="Helvetica">1.50</text>
<path d="M176.0,478.0 L176.0,484.0" stroke="black" stroke-width="1.6" />
<text x="176.0" y="501.0" font-size="17" text-anchor="middle" font-family="Helvetica">2.25</text>
<path d="M352.0,478.0 L352.0,484.0" stroke="black" stroke-width="1.6" />
<text x="352.0" y="501.0" font-size="17" text-anchor="middle" font-family="Helvetica">3.00</text>
<text x="-7.0" y="526.5" font-size="17" text-anchor="middle" font-family="Helvetica">Time (root to present)</text>
<text x="0" y="-538.0" font-size="32" font-weight="bold" font-family="Helvetica" text-anchor="middle" dominant-baseline="central" fill="#1a1a1a">Episodic (skyline) birth-death</text>
<text x="-436.0" y="414.0" font-size="22" font-family="Helvetica" text-anchor="start" dominant-baseline="central" fill="#1a1a1a">b = birth rate,  d = death rate</text>
<path d="M-436.0,446.0 L-402.0,446.0" stroke="#1a1a1a" stroke-width="2.6" stroke-dasharray="6,5" stroke-linecap="butt" />
<text x="-390.0" y="446.0" font-size="22" font-family="Helvetica" text-anchor="start" dominant-baseline="central" fill="#1a1a1a">extinct lineage</text>
</svg>