<?xml version="1.0" encoding="UTF-8"?>
<svg xmlns="http://www.w3.org/2000/svg" xmlns:xlink="http://www.w3.org/1999/xlink"
     width="920" height="1124" viewBox="-460.0 -562.0 920 1124">
<defs>
</defs>
<rect x="-460.0" y="-562.0" width="920" height="1124" fill="white" />
<text x="283.5" y="-514.0" font-size="14" font-family="Helvetica" text-anchor="middle" fill="#1a1a1a">λ = 1.5,  μ = 0.15</text>
<rect x="0.0" y="-502.0" width="189.0" height="1004.0" fill="#e9e9e9" />
<text x="94.5" y="-514.0" font-size="14" font-family="Helvetica" text-anchor="middle" fill="#1a1a1a">λ = 0.7,  μ = 0.35</text>
<text x="-94.5" y="-514.0" font-size="14" font-family="Helvetica" text-anchor="middle" fill="#1a1a1a">λ = 1.5,  μ = 0.15</text>
<rect x="-378.0" y="-502.0" width="189.0" height="1004.0" fill="#e9e9e9" />
<text x="-283.5" y="-514.0" font-size="14" font-family="Helvetica" text-anchor="middle" fill="#1a1a1a">λ = 0.6,  μ = 0.3</text>
<path d="M189.0,-502.0 L189.0,502.0" stroke="#8a8a8a" stroke-width="1.2" stroke-dasharray="3,4" />
<path d="M0.0,-502.0 L0.0,502.0" stroke="#8a8a8a" stroke-width="1.2" stroke-dasharray="3,4" />
<path d="M-189.0,-502.0 L-189.0,502.0" stroke="#8a8a8a" stroke-width="1.2" stroke-dasharray="3,4" />
<text x="-426.0" y="-538.0" font-size="16" fill="#1a1a1a" font-weight="bold" font-family="Helvetica" text-anchor="start" dominant-baseline="middle">Episodic (skyline) birth–death</text>
<path d="M-378.0,-480.0 L-311.0324802616198,-480.0" stroke="#1a1a1a" stroke-width="2.6" stroke-dasharray="6,5" stroke-linecap="butt" />
<path d="M275.9456806030946,-434.2857142857143 L378.0,-434.2857142857143" stroke="#1a1a1a" stroke-width="2.6" stroke-linecap="round" />
<path d="M294.11176134157006,-388.57142857142856 L378.0,-388.57142857142856" stroke="#1a1a1a" stroke-width="2.6" stroke-linecap="round" />
<path d="M315.1676059569327,-342.8571428571429 L378.0,-342.8571428571429" stroke="#1a1a1a" stroke-width="2.6" stroke-linecap="round" />
<path d="M315.1676059569327,-297.1428571428571 L378.0,-297.1428571428571" stroke="#1a1a1a" stroke-width="2.6" stroke-linecap="round" />
<path d="M294.11176134157006,-320.0 L315.1676059569327,-320.0" stroke="#1a1a1a" stroke-width="2.6" stroke-linecap="round" />
<path d="M315.1676059569327,-320.0 L315.1676059569327,-342.8571428571429" stroke="#1a1a1a" stroke-width="2.6" stroke-linecap="round" />
<path d="M315.1676059569327,-320.0 L315.1676059569327,-297.1428571428571" stroke="#1a1a1a" stroke-width="2.6" stroke-linecap="round" />
<path d="M276.17059694707814,-354.2857142857143 L294.11176134157006,-354.2857142857143" stroke="#1a1a1a" stroke-width="2.6" stroke-linecap="round" />
<path d="M294.11176134157006,-354.2857142857143 L294.11176134157006,-388.57142857142856" stroke="#1a1a1a" stroke-width="2.6" stroke-linecap="round" />
<path d="M294.11176134157006,-354.2857142857143 L294.11176134157006,-320.0" stroke="#1a1a1a" stroke-width="2.6" stroke-linecap="round" />
<path d="M276.17059694707814,-251.42857142857142 L378.0,-251.42857142857142" stroke="#1a1a1a" stroke-width="2.6" stroke-linecap="round" />
<path d="M275.9456806030946,-302.85714285714283 L276.17059694707814,-302.85714285714283" stroke="#1a1a1a" stroke-width="2.6" stroke-linecap="round" />
<path d="M276.17059694707814,-302.85714285714283 L276.17059694707814,-354.2857142857143" stroke="#1a1a1a" stroke-width="2.6" stroke-linecap="round" />
<path d="M276.17059694707814,-302.85714285714283 L276.17059694707814,-251.42857142857142" stroke="#1a1a1a" stroke-width="2.6" stroke-linecap="round" />
<path d="M-348.212573493437,-368.57142857142856 L275.9456806030946,-368.57142857142856" stroke="#1a1a1a" stroke-width="2.6" stroke-linecap="round" />
<path d="M275.9456806030946,-368.57142857142856 L275.9456806030946,-434.2857142857143" stroke="#1a1a1a" stroke-width="2.6" stroke-linecap="round" />
<path d="M275.9456806030946,-368.57142857142856 L275.9456806030946,-302.85714285714283" stroke="#1a1a1a" stroke-width="2.6" stroke-linecap="round" />
<path d="M266.7031924975315,-205.71428571428572 L378.0,-205.71428571428572" stroke="#1a1a1a" stroke-width="2.6" stroke-linecap="round" />
<path d="M266.7031924975315,-160.0 L378.0,-160.0" stroke="#1a1a1a" stroke-width="2.6" stroke-linecap="round" />
<path d="M243.78359977704702,-182.85714285714286 L266.7031924975315,-182.85714285714286" stroke="#1a1a1a" stroke-width="2.6" stroke-linecap="round" />
<path d="M266.7031924975315,-182.85714285714286 L266.7031924975315,-205.71428571428572" stroke="#1a1a1a" stroke-width="2.6" stroke-linecap="round" />
<path d="M266.7031924975315,-182.85714285714286 L266.7031924975315,-160.0" stroke="#1a1a1a" stroke-width="2.6" stroke-linecap="round" />
<path d="M266.9509390604869,-114.28571428571428 L378.0,-114.28571428571428" stroke="#1a1a1a" stroke-width="2.6" stroke-linecap="round" />
<path d="M284.93856188403436,-68.57142857142856 L378.0,-68.57142857142856" stroke="#1a1a1a" stroke-width="2.6" stroke-linecap="round" />
<path d="M284.93856188403436,-22.857142857142833 L378.0,-22.857142857142833" stroke="#1a1a1a" stroke-width="2.6" stroke-linecap="round" />
<path d="M266.9509390604869,-45.714285714285694 L284.93856188403436,-45.714285714285694" stroke="#1a1a1a" stroke-width="2.6" stroke-linecap="round" />
<path d="M284.93856188403436,-45.714285714285694 L284.93856188403436,-68.57142857142856" stroke="#1a1a1a" stroke-width="2.6" stroke-linecap="round" />
<path d="M284.93856188403436,-45.714285714285694 L284.93856188403436,-22.857142857142833" stroke="#1a1a1a" stroke-width="2.6" stroke-linecap="round" />
<path d="M243.78359977704702,-79.99999999999999 L266.9509390604869,-79.99999999999999" stroke="#1a1a1a" stroke-width="2.6" stroke-linecap="round" />
<path d="M266.9509390604869,-79.99999999999999 L266.9509390604869,-114.28571428571428" stroke="#1a1a1a" stroke-width="2.6" stroke-linecap="round" />
<path d="M266.9509390604869,-79.99999999999999 L266.9509390604869,-45.714285714285694" stroke="#1a1a1a" stroke-width="2.6" stroke-linecap="round" />
<path d="M204.0223142291478,-131.42857142857142 L243.78359977704702,-131.42857142857142" stroke="#1a1a1a" stroke-width="2.6" stroke-linecap="round" />
<path d="M243.78359977704702,-131.42857142857142 L243.78359977704702,-182.85714285714286" stroke="#1a1a1a" stroke-width="2.6" stroke-linecap="round" />
<path d="M243.78359977704702,-131.42857142857142 L243.78359977704702,-79.99999999999999" stroke="#1a1a1a" stroke-width="2.6" stroke-linecap="round" />
<path d="M205.73457182543905,22.85714285714289 L378.0,22.85714285714289" stroke="#1a1a1a" stroke-width="2.6" stroke-linecap="round" />
<path d="M205.73457182543905,68.57142857142856 L378.0,68.57142857142856" stroke="#1a1a1a" stroke-width="2.6" stroke-linecap="round" />
<path d="M204.0223142291478,45.71428571428572 L205.73457182543905,45.71428571428572" stroke="#1a1a1a" stroke-width="2.6" stroke-linecap="round" />
<path d="M205.73457182543905,45.71428571428572 L205.73457182543905,22.85714285714289" stroke="#1a1a1a" stroke-width="2.6" stroke-linecap="round" />
<path d="M205.73457182543905,45.71428571428572 L205.73457182543905,68.57142857142856" stroke="#1a1a1a" stroke-width="2.6" stroke-linecap="round" />
<path d="M-115.54817633193613,-42.85714285714285 L204.0223142291478,-42.85714285714285" stroke="#1a1a1a" stroke-width="2.6" stroke-linecap="round" />
<path d="M204.0223142291478,-42.85714285714285 L204.0223142291478,-131.42857142857142" stroke="#1a1a1a" stroke-width="2.6" stroke-linecap="round" />
<path d="M204.0223142291478,-42.85714285714285 L204.0223142291478,45.71428571428572" stroke="#1a1a1a" stroke-width="2.6" stroke-linecap="round" />
<path d="M246.808266359649,114.28571428571433 L378.0,114.28571428571433" stroke="#1a1a1a" stroke-width="2.6" stroke-linecap="round" />
<path d="M356.6914507482094,160.0 L378.0,160.0" stroke="#1a1a1a" stroke-width="2.6" stroke-linecap="round" />
<path d="M356.6914507482094,205.71428571428578 L378.0,205.71428571428578" stroke="#1a1a1a" stroke-width="2.6" stroke-linecap="round" />
<path d="M246.808266359649,182.8571428571429 L356.6914507482094,182.8571428571429" stroke="#1a1a1a" stroke-width="2.6" stroke-linecap="round" />
<path d="M356.6914507482094,182.8571428571429 L356.6914507482094,160.0" stroke="#1a1a1a" stroke-width="2.6" stroke-linecap="round" />
<path d="M356.6914507482094,182.8571428571429 L356.6914507482094,205.71428571428578" stroke="#1a1a1a" stroke-width="2.6" stroke-linecap="round" />
<path d="M241.13623282940864,148.5714285714286 L246.808266359649,148.5714285714286" stroke="#1a1a1a" stroke-width="2.6" stroke-linecap="round" />
<path d="M246.808266359649,148.5714285714286 L246.808266359649,114.28571428571433" stroke="#1a1a1a" stroke-width="2.6" stroke-linecap="round" />
<path d="M246.808266359649,148.5714285714286 L246.808266359649,182.8571428571429" stroke="#1a1a1a" stroke-width="2.6" stroke-linecap="round" />
<path d="M344.11276868568905,251.42857142857144 L378.0,251.42857142857144" stroke="#1a1a1a" stroke-width="2.6" stroke-linecap="round" />
<path d="M344.11276868568905,297.1428571428571 L378.0,297.1428571428571" stroke="#1a1a1a" stroke-width="2.6" stroke-linecap="round" />
<path d="M241.13623282940864,274.2857142857143 L344.11276868568905,274.2857142857143" stroke="#1a1a1a" stroke-width="2.6" stroke-linecap="round" />
<path d="M344.11276868568905,274.2857142857143 L344.11276868568905,251.42857142857144" stroke="#1a1a1a" stroke-width="2.6" stroke-linecap="round" />
<path d="M344.11276868568905,274.2857142857143 L344.11276868568905,297.1428571428571" stroke="#1a1a1a" stroke-width="2.6" stroke-linecap="round" />
<path d="M-35.06873000844189,211.42857142857144 L241.13623282940864,211.42857142857144" stroke="#1a1a1a" stroke-width="2.6" stroke-linecap="round" />
<path d="M241.13623282940864,211.42857142857144 L241.13623282940864,148.5714285714286" stroke="#1a1a1a" stroke-width="2.6" stroke-linecap="round" />
<path d="M241.13623282940864,211.42857142857144 L241.13623282940864,274.2857142857143" stroke="#1a1a1a" stroke-width="2.6" stroke-linecap="round" />
<path d="M296.09214982893764,342.8571428571429 L378.0,342.8571428571429" stroke="#1a1a1a" stroke-width="2.6" stroke-linecap="round" />
<path d="M355.5329237565478,388.57142857142856 L378.0,388.57142857142856" stroke="#1a1a1a" stroke-width="2.6" stroke-linecap="round" />
<path d="M355.5329237565478,434.28571428571433 L378.0,434.28571428571433" stroke="#1a1a1a" stroke-width="2.6" stroke-linecap="round" />
<path d="M296.09214982893764,411.42857142857144 L355.5329237565478,411.42857142857144" stroke="#1a1a1a" stroke-width="2.6" stroke-linecap="round" />
<path d="M355.5329237565478,411.42857142857144 L355.5329237565478,388.57142857142856" stroke="#1a1a1a" stroke-width="2.6" stroke-linecap="round" />
<path d="M355.5329237565478,411.42857142857144 L355.5329237565478,434.28571428571433" stroke="#1a1a1a" stroke-width="2.6" stroke-linecap="round" />
<path d="M126.76824294434147,377.14285714285717 L296.09214982893764,377.14285714285717" stroke="#1a1a1a" stroke-width="2.6" stroke-linecap="round" />
<path d="M296.09214982893764,377.14285714285717 L296.09214982893764,342.8571428571429" stroke="#1a1a1a" stroke-width="2.6" stroke-linecap="round" />
<path d="M296.09214982893764,377.14285714285717 L296.09214982893764,411.42857142857144" stroke="#1a1a1a" stroke-width="2.6" stroke-linecap="round" />
<path d="M126.76824294434147,480.0 L378.0,480.0" stroke="#1a1a1a" stroke-width="2.6" stroke-linecap="round" />
<path d="M-35.06873000844189,428.57142857142856 L126.76824294434147,428.57142857142856" stroke="#1a1a1a" stroke-width="2.6" stroke-linecap="round" />
<path d="M126.76824294434147,428.57142857142856 L126.76824294434147,377.14285714285717" stroke="#1a1a1a" stroke-width="2.6" stroke-linecap="round" />
<path d="M126.76824294434147,428.57142857142856 L126.76824294434147,480.0" stroke="#1a1a1a" stroke-width="2.6" stroke-linecap="round" />
<path d="M-115.54817633193613,320.0 L-35.06873000844189,320.0" stroke="#1a1a1a" stroke-width="2.6" stroke-linecap="round" />
<path d="M-35.06873000844189,320.0 L-35.06873000844189,211.42857142857144" stroke="#1a1a1a" stroke-width="2.6" stroke-linecap="round" />
<path d="M-35.06873000844189,320.0 L-35.06873000844189,428.57142857142856" stroke="#1a1a1a" stroke-width="2.6" stroke-linecap="round" />
<path d="M-348.212573493437,138.57142857142858 L-115.54817633193613,138.57142857142858" stroke="#1a1a1a" stroke-width="2.6" stroke-linecap="round" />
<path d="M-115.54817633193613,138.57142857142858 L-115.54817633193613,-42.85714285714285" stroke="#1a1a1a" stroke-width="2.6" stroke-linecap="round" />
<path d="M-115.54817633193613,138.57142857142858 L-115.54817633193613,320.0" stroke="#1a1a1a" stroke-width="2.6" stroke-linecap="round" />
<path d="M-378.0,-114.99999999999999 L-348.212573493437,-114.99999999999999" stroke="#1a1a1a" stroke-width="2.6" stroke-linecap="round" />
<path d="M-348.212573493437,-114.99999999999999 L-348.212573493437,-368.57142857142856" stroke="#1a1a1a" stroke-width="2.6" stroke-linecap="round" />
<path d="M-348.212573493437,-114.99999999999999 L-348.212573493437,138.57142857142858" stroke="#1a1a1a" stroke-width="2.6" stroke-linecap="round" />
<path d="M-392.0,-297.5 L-378.0,-297.5" stroke="#1a1a1a" stroke-width="2.6" stroke-linecap="round" />
<path d="M-378.0,-297.5 L-378.0,-480.0" stroke="#1a1a1a" stroke-width="2.6" stroke-dasharray="6,5" stroke-linecap="butt" />
<path d="M-378.0,-297.5 L-378.0,-114.99999999999999" stroke="#1a1a1a" stroke-width="2.6" stroke-linecap="round" />
<path d="M-392.0,494.0 L378.0,494.0" stroke="black" stroke-width="1.6" />
<path d="M-378.0,494.0 L-378.0,500.0" stroke="black" stroke-width="1.6" />
<text x="-378.0" y="517.0" font-size="17" text-anchor="middle" font-family="Helvetica">0.00</text>
<path d="M-189.0,494.0 L-189.0,500.0" stroke="black" stroke-width="1.6" />
<text x="-189.0" y="517.0" font-size="17" text-anchor="middle" font-family="Helvetica">0.75</text>
<path d="M0.0,494.0 L0.0,500.0" stroke="black" stroke-width="1.6" />
<text x="0.0" y="517.0" font-size="17" text-anchor="middle" font-family="Helvetica">1.50</text>
<path d="M189.0,494.0 L189.0,500.0" stroke="black" stroke-width="1.6" />
<text x="189.0" y="517.0" font-size="17" text-anchor="middle" font-family="Helvetica">2.25</text>
<path d="M378.0,494.0 L378.0,500.0" stroke="black" stroke-width="1.6" />
<text x="378.0" y="517.0" font-size="17" text-anchor="middle" font-family="Helvetica">3.00</text>
<text x="-7.0" y="542.5" font-size="17" text-anchor="middle" font-family="Helvetica">Time (root to present)</text>
</svg>